# convertido de flygym/NeuroMechFly (c_abdomen12)
v -0.47858 0.00000 0.29026
v -0.47832 0.00000 0.28946
v -0.47758 0.00000 0.28757
v -0.47564 0.00000 0.30472
v -0.47281 0.00000 0.27494
v -0.46802 0.00000 0.27155
v -0.46704 0.00000 0.26100
v -0.46666 0.00000 0.25191
v -0.46648 0.00000 0.25078
v -0.46638 0.00000 0.25068
v -0.46622 0.00000 0.25026
v -0.46611 0.00000 0.25017
v -0.46475 0.00000 0.23941
v -0.46417 -0.10303 0.25421
v -0.46417 0.10303 0.25421
v -0.46383 0.00000 0.25868
v -0.46371 -0.13845 0.25082
v -0.46371 0.13845 0.25082
v -0.46303 -0.12264 0.24370
v -0.46303 0.12264 0.24370
v -0.46279 -0.12473 0.24712
v -0.46279 0.12473 0.24712
v -0.46261 0.00000 0.29911
v -0.46250 0.00000 0.27991
v -0.46233 -0.10505 0.26763
v -0.46233 0.10505 0.26763
v -0.46230 -0.15442 0.25367
v -0.46230 0.15442 0.25367
v -0.46213 0.00000 0.27235
v -0.46174 -0.12092 0.24624
v -0.46174 0.12092 0.24624
v -0.46140 -0.10496 0.27116
v -0.46140 0.10496 0.27116
v -0.46136 -0.15507 0.24999
v -0.46136 0.15507 0.24999
v -0.46071 -0.12276 0.24332
v -0.46071 0.12276 0.24332
v -0.46063 -0.13657 0.24151
v -0.46063 0.13657 0.24151
v -0.46028 -0.13886 0.23267
v -0.46028 0.13886 0.23267
v -0.46023 0.00000 0.28625
v -0.46003 -0.11902 0.26444
v -0.46003 0.11902 0.26444
v -0.45997 -0.15888 0.25427
v -0.45997 0.15888 0.25427
v -0.45995 -0.17489 0.25488
v -0.45995 0.17489 0.25488
v -0.45994 -0.12083 0.26460
v -0.45994 0.12083 0.26460
v -0.45969 0.00000 0.28687
v -0.45926 -0.16984 0.25499
v -0.45926 0.16984 0.25499
v -0.45878 -0.15320 0.25935
v -0.45878 0.15320 0.25935
v -0.45860 -0.10217 0.25065
v -0.45860 0.10217 0.25065
v -0.45820 0.00000 0.28263
v -0.45812 0.00000 0.27989
v -0.45810 0.00000 0.27501
v -0.45788 -0.11494 0.26335
v -0.45788 0.11494 0.26335
v -0.45786 0.00000 0.28980
v -0.45778 0.00000 0.30934
v -0.45774 0.00000 0.28318
v -0.45763 0.00000 0.27650
v -0.45747 0.00000 0.16611
v -0.45725 -0.15129 0.24245
v -0.45725 0.15129 0.24245
v -0.45707 -0.15527 0.23765
v -0.45707 0.15527 0.23765
v -0.45701 0.00000 0.15724
v -0.45637 -0.18387 0.24096
v -0.45637 0.18387 0.24096
v -0.45636 -0.16768 0.23817
v -0.45636 0.16768 0.23817
v -0.45615 0.00000 0.15450
v -0.45561 -0.17583 0.23872
v -0.45561 0.17583 0.23872
v -0.45541 0.00000 0.28763
v -0.45509 -0.18333 0.23896
v -0.45509 0.18333 0.23896
v -0.45467 -0.18745 0.23339
v -0.45467 0.18745 0.23339
v -0.45426 -0.14620 0.23578
v -0.45426 0.14620 0.23578
v -0.45416 -0.19941 0.25253
v -0.45416 0.19941 0.25253
v -0.45415 -0.16992 0.25581
v -0.45415 0.16992 0.25581
v -0.45364 0.00000 0.29153
v -0.45354 -0.18609 0.22694
v -0.45354 0.18609 0.22694
v -0.45344 -0.18764 0.23631
v -0.45344 0.18764 0.23631
v -0.45287 -0.19316 0.23166
v -0.45287 0.19316 0.23166
v -0.45278 -0.21088 0.23393
v -0.45278 0.21088 0.23393
v -0.45266 -0.19745 0.23170
v -0.45266 0.19745 0.23170
v -0.45183 -0.20557 0.23219
v -0.45183 0.20557 0.23219
v -0.45178 -0.21224 0.25003
v -0.45178 0.21224 0.25003
v -0.45159 -0.23680 0.24467
v -0.45159 0.23680 0.24467
v -0.45138 0.00000 0.31659
v -0.45125 -0.21027 0.22883
v -0.45125 0.21027 0.22883
v -0.45116 -0.19422 0.22690
v -0.45116 0.19422 0.22690
v -0.45095 -0.19966 0.25004
v -0.45095 0.19966 0.25004
v -0.45050 -0.12335 0.23683
v -0.45050 0.12335 0.23683
v -0.45042 0.00000 0.31586
v -0.45008 -0.19956 0.22976
v -0.45008 0.19956 0.22976
v -0.44963 -0.20403 0.22776
v -0.44963 0.20403 0.22776
v -0.44961 0.00000 0.27966
v -0.44956 -0.20562 0.22111
v -0.44956 0.20562 0.22111
v -0.44904 -0.21083 0.22684
v -0.44904 0.21083 0.22684
v -0.44869 0.00000 0.29596
v -0.44811 -0.10040 0.12895
v -0.44811 0.10040 0.12895
v -0.44810 -0.24802 0.24315
v -0.44810 0.24802 0.24315
v -0.44792 0.00000 0.31690
v -0.44773 -0.22795 0.24337
v -0.44773 0.22795 0.24337
v -0.44729 -0.20899 0.22457
v -0.44729 0.20899 0.22457
v -0.44509 -0.24827 0.23942
v -0.44509 0.24827 0.23942
v -0.44478 -0.20051 0.22575
v -0.44478 0.20051 0.22575
v -0.44471 -0.24485 0.19757
v -0.44471 0.24485 0.19757
v -0.44462 0.00000 0.29334
v -0.44411 -0.22197 0.22031
v -0.44411 0.22197 0.22031
v -0.44396 -0.16018 0.23291
v -0.44396 0.16018 0.23291
v -0.44392 -0.24659 0.24377
v -0.44392 0.24659 0.24377
v -0.44346 -0.24537 0.21884
v -0.44346 0.24537 0.21884
v -0.44271 -0.26893 0.22784
v -0.44271 0.26893 0.22784
v -0.44216 -0.24495 0.21888
v -0.44216 0.24495 0.21888
v -0.44197 -0.25639 0.21937
v -0.44197 0.25639 0.21937
v -0.44183 -0.19750 0.26288
v -0.44183 0.19750 0.26288
v -0.44148 -0.26121 0.22529
v -0.44148 0.26121 0.22529
v -0.44145 -0.27427 0.22025
v -0.44145 0.27427 0.22025
v -0.44120 -0.30675 0.23663
v -0.44120 0.30675 0.23663
v -0.44113 -0.27841 0.23635
v -0.44113 0.27841 0.23635
v -0.44107 0.00000 0.30687
v -0.44069 -0.27252 0.22530
v -0.44069 0.27252 0.22530
v -0.44061 -0.26970 0.22466
v -0.44061 0.26970 0.22466
v -0.44008 -0.33786 0.23009
v -0.44008 0.33786 0.23009
v -0.43988 -0.27682 0.23703
v -0.43988 0.27682 0.23703
v -0.43986 0.00000 0.31194
v -0.43965 -0.19064 0.26741
v -0.43965 0.19064 0.26741
v -0.43892 -0.34022 0.22850
v -0.43892 0.34022 0.22850
v -0.43860 -0.32593 0.23225
v -0.43860 0.32593 0.23225
v -0.43856 -0.27728 0.23916
v -0.43856 0.27728 0.23916
v -0.43787 -0.30696 0.23465
v -0.43787 0.30696 0.23465
v -0.43778 -0.14895 0.23397
v -0.43778 0.14895 0.23397
v -0.43766 -0.28411 0.22175
v -0.43766 0.28411 0.22175
v -0.43748 0.00000 0.30997
v -0.43675 -0.30828 0.21845
v -0.43675 0.30828 0.21845
v -0.43667 0.00000 0.31086
v -0.43661 -0.31776 0.23039
v -0.43661 0.31776 0.23039
v -0.43638 -0.33167 0.22322
v -0.43638 0.33167 0.22322
v -0.43626 -0.30452 0.21350
v -0.43626 0.30452 0.21350
v -0.43618 -0.30053 0.22531
v -0.43618 0.30053 0.22531
v -0.43558 0.00000 0.31068
v -0.43511 -0.32762 0.23222
v -0.43511 0.32762 0.23222
v -0.43465 -0.34809 0.22611
v -0.43465 0.34809 0.22611
v -0.43428 -0.31301 0.21894
v -0.43428 0.31301 0.21894
v -0.43380 0.00000 0.30751
v -0.43330 -0.31566 0.21846
v -0.43330 0.31566 0.21846
v -0.43256 -0.32837 0.22028
v -0.43256 0.32837 0.22028
v -0.43253 -0.32688 0.22352
v -0.43253 0.32688 0.22352
v -0.43201 -0.32000 0.21124
v -0.43201 0.32000 0.21124
v -0.43167 -0.31866 0.21529
v -0.43167 0.31866 0.21529
v -0.43098 -0.16312 0.24080
v -0.43098 0.16312 0.24080
v -0.43071 -0.32466 0.21598
v -0.43071 0.32466 0.21598
v -0.42997 -0.24974 0.21588
v -0.42997 0.24974 0.21588
v -0.42956 -0.10128 0.26311
v -0.42956 0.10128 0.26311
v -0.42932 -0.11205 0.30675
v -0.42932 0.11205 0.30675
v -0.42881 0.00000 0.31440
v -0.42876 -0.35209 0.22174
v -0.42876 0.35209 0.22174
v -0.42669 0.00000 0.27701
v -0.42636 0.00000 0.30713
v -0.42599 -0.30731 0.21167
v -0.42599 0.30731 0.21167
v -0.42480 -0.33445 0.21752
v -0.42480 0.33445 0.21752
v -0.42179 -0.31346 0.23944
v -0.42179 0.31346 0.23944
v -0.42093 -0.29907 0.23038
v -0.42093 0.29907 0.23038
v -0.41960 -0.13817 0.26123
v -0.41960 0.13817 0.26123
v -0.41697 -0.37936 0.21118
v -0.41697 0.37936 0.21118
v -0.40947 -0.19009 0.24645
v -0.40947 0.19009 0.24645
v -0.40802 -0.22665 0.22918
v -0.40802 0.22665 0.22918
v -0.40734 -0.17097 0.25653
v -0.40734 0.17097 0.25653
v -0.40697 -0.40505 0.17622
v -0.40697 0.40505 0.17622
v -0.40572 -0.41354 0.17640
v -0.40572 0.41354 0.17640
v -0.40179 -0.26909 0.20491
v -0.40179 0.26909 0.20491
v -0.40002 -0.22752 0.27676
v -0.40002 0.22752 0.27676
v -0.39999 -0.42513 0.16463
v -0.39999 0.42513 0.16463
v -0.39896 -0.42852 0.16560
v -0.39896 0.42852 0.16560
v -0.39864 -0.43703 0.15172
v -0.39864 0.43703 0.15172
v -0.39778 0.00000 0.01042
v -0.39660 -0.12206 0.29064
v -0.39660 0.12206 0.29064
v -0.39628 0.00000 0.31165
v -0.39509 -0.44324 0.14624
v -0.39509 0.44324 0.14624
v -0.39505 0.00000 0.31316
v -0.39400 -0.18886 0.27057
v -0.39400 0.18886 0.27057
v -0.39301 0.00000 0.00027
v -0.39268 0.00000 -0.00156
v -0.38946 0.00000 -0.00972
v -0.38819 -0.25349 0.22241
v -0.38819 0.25349 0.22241
v -0.38698 -0.16295 -0.00694
v -0.38698 0.16295 -0.00694
v -0.38556 -0.33906 0.20352
v -0.38556 0.33906 0.20352
v -0.38469 -0.33916 0.21223
v -0.38469 0.33916 0.21223
v -0.38435 -0.43354 0.13969
v -0.38435 0.43354 0.13969
v -0.38387 -0.45131 0.13870
v -0.38387 0.45131 0.13870
v -0.38306 -0.30184 0.23008
v -0.38306 0.30184 0.23008
v -0.38210 -0.45252 0.13717
v -0.38210 0.45252 0.13717
v -0.37401 -0.45661 0.13780
v -0.37401 0.45661 0.13780
v -0.37074 -0.28536 0.22067
v -0.37074 0.28536 0.22067
v -0.36675 -0.28719 -0.00796
v -0.36675 0.28719 -0.00796
v -0.36483 -0.22340 0.32981
v -0.36483 0.22340 0.32981
v -0.36055 0.00000 0.35813
v -0.35202 0.00000 0.36397
v -0.35166 -0.30523 0.19099
v -0.35166 0.30523 0.19099
v -0.35112 0.00000 0.36391
v -0.35098 0.00000 -0.10608
v -0.35077 0.00000 -0.10652
v -0.35061 -0.46496 0.12251
v -0.35061 0.46496 0.12251
v -0.35060 0.00000 0.36564
v -0.35012 0.00000 -0.10734
v -0.34926 -0.31280 0.18908
v -0.34926 0.31280 0.18908
v -0.34394 -0.16054 -0.11518
v -0.34394 0.16054 -0.11518
v -0.33547 -0.47383 0.10151
v -0.33547 0.47383 0.10151
v -0.33181 -0.47808 0.03951
v -0.33181 0.47808 0.03951
v -0.32169 -0.39125 0.25333
v -0.32169 0.39125 0.25333
v -0.32145 0.00000 -0.16300
v -0.32121 0.00000 -0.16396
v -0.32065 -0.28227 -0.10146
v -0.32065 0.28227 -0.10146
v -0.32036 0.00000 -0.16555
v -0.31519 0.00000 -0.17214
v -0.31487 -0.47598 0.01294
v -0.31487 0.47598 0.01294
v -0.31406 -0.47799 0.01521
v -0.31406 0.47799 0.01521
v -0.31379 -0.36858 0.27524
v -0.31379 0.36858 0.27524
v -0.31059 -0.47576 -0.00004
v -0.31059 0.47576 -0.00004
v -0.30927 0.00000 -0.18889
v -0.30502 -0.45044 -0.07817
v -0.30502 0.45044 -0.07817
v -0.30364 -0.46794 -0.01944
v -0.30364 0.46794 -0.01944
v -0.29634 -0.22314 0.34248
v -0.29634 0.22314 0.34248
v -0.29614 -0.43206 -0.11891
v -0.29614 0.43206 -0.11891
v -0.29511 -0.42885 -0.11973
v -0.29511 0.42885 -0.11973
v -0.29279 -0.46508 0.08842
v -0.29279 0.46508 0.08842
v -0.29052 -0.40613 0.23295
v -0.29052 0.40613 0.23295
v -0.28845 0.00000 0.37387
v -0.28497 -0.44154 0.15465
v -0.28497 0.44154 0.15465
v -0.28123 -0.31977 0.30151
v -0.28123 0.31977 0.30151
v -0.27921 0.00000 0.37461
v -0.27795 -0.41703 -0.13870
v -0.27795 0.41703 -0.13870
v -0.27521 0.00000 0.37445
v -0.27439 -0.46185 -0.00578
v -0.27439 0.46185 -0.00578
v -0.27365 0.00000 0.37598
v -0.26678 -0.40532 -0.15202
v -0.26678 0.40532 -0.15202
v -0.26429 0.00000 0.37172
v -0.26231 -0.41774 -0.12570
v -0.26231 0.41774 -0.12570
v -0.25988 0.00000 -0.24782
v -0.25982 0.00000 -0.24839
v -0.25561 -0.34853 -0.20003
v -0.25561 0.34853 -0.20003
v -0.25487 -0.36045 -0.18945
v -0.25487 0.36045 -0.18945
v -0.25399 -0.36721 -0.18892
v -0.25399 0.36721 -0.18892
v -0.25332 -0.31761 -0.19126
v -0.25332 0.31761 -0.19126
v -0.25288 -0.36382 -0.18841
v -0.25288 0.36382 -0.18841
v -0.25240 -0.37997 -0.17617
v -0.25240 0.37997 -0.17617
v -0.25134 -0.26056 -0.20146
v -0.25134 0.26056 -0.20146
v -0.24968 0.00000 -0.25654
v -0.24540 -0.32933 -0.20113
v -0.24540 0.32933 -0.20113
v -0.24489 -0.35547 0.29095
v -0.24489 0.35547 0.29095
v -0.23941 -0.29044 -0.17564
v -0.23941 0.29044 -0.17564
v -0.23926 -0.36977 -0.18465
v -0.23926 0.36977 -0.18465
v -0.23237 -0.39399 -0.12569
v -0.23237 0.39399 -0.12569
v -0.23209 -0.24004 -0.22897
v -0.23209 0.24004 -0.22897
v -0.22642 -0.11761 -0.26959
v -0.22642 0.11761 -0.26959
v -0.22505 0.00000 -0.28187
v -0.22321 -0.42954 0.04513
v -0.22321 0.42954 0.04513
v -0.21920 -0.32000 -0.16503
v -0.21920 0.32000 -0.16503
v -0.21760 -0.32070 -0.16537
v -0.21760 0.32070 -0.16537
v -0.21453 -0.13653 0.34186
v -0.21453 0.13653 0.34186
v -0.21444 -0.33532 -0.16200
v -0.21444 0.33532 -0.16200
v -0.21348 -0.39791 -0.05411
v -0.21348 0.39791 -0.05411
v -0.21275 -0.31877 0.06832
v -0.21275 0.31877 0.06832
v -0.21245 -0.31573 -0.03487
v -0.21245 0.31573 -0.03487
v -0.20953 -0.20013 -0.26693
v -0.20953 0.20013 -0.26693
v -0.20758 -0.25004 -0.21312
v -0.20758 0.25004 -0.21312
v -0.20661 -0.10335 -0.28059
v -0.20661 0.10335 -0.28059
v -0.20288 -0.29001 0.04080
v -0.20288 0.29001 0.04080
v -0.20286 -0.26395 -0.17674
v -0.20286 0.26395 -0.17674
v -0.20230 -0.16883 -0.28434
v -0.20230 0.16883 -0.28434
v -0.20192 -0.23327 -0.23412
v -0.20192 0.23327 -0.23412
v -0.20178 -0.16919 -0.28761
v -0.20178 0.16919 -0.28761
v -0.20098 -0.34994 0.17753
v -0.20098 0.34994 0.17753
v -0.19840 0.00000 -0.29853
v -0.19780 -0.15233 -0.29306
v -0.19780 0.15233 -0.29306
v -0.19757 0.00000 0.34325
v -0.19646 0.00000 -0.29560
v -0.19576 -0.38540 0.18897
v -0.19576 0.38540 0.18897
v -0.19479 -0.21269 -0.25030
v -0.19479 0.21269 -0.25030
v -0.19320 -0.39798 0.16425
v -0.19320 0.39798 0.16425
v -0.19311 -0.36204 0.05898
v -0.19311 0.36204 0.05898
v -0.19305 -0.16559 -0.26412
v -0.19305 0.16559 -0.26412
v -0.19250 -0.39629 0.05699
v -0.19250 0.39629 0.05699
v -0.19087 0.00000 -0.29988
v -0.19045 0.00000 -0.26283
v -0.18990 -0.36326 0.24579
v -0.18990 0.36326 0.24579
v -0.18946 -0.15519 -0.29762
v -0.18946 0.15519 -0.29762
v -0.18942 -0.37784 -0.00834
v -0.18942 0.37784 -0.00834
v -0.18899 -0.38183 0.06307
v -0.18899 0.38183 0.06307
v -0.18871 -0.14899 -0.29960
v -0.18871 0.14899 -0.29960
v -0.18866 -0.37519 -0.03081
v -0.18866 0.37519 -0.03081
v -0.18795 -0.36447 0.14260
v -0.18795 0.36447 0.14260
v -0.18727 -0.36869 0.04457
v -0.18727 0.36869 0.04457
v -0.18714 0.00000 -0.31271
v -0.18667 -0.16617 -0.23776
v -0.18667 0.16617 -0.23776
v -0.18608 -0.30521 0.00172
v -0.18608 0.30521 0.00172
v -0.18562 -0.33506 -0.16088
v -0.18562 0.33506 -0.16088
v -0.18451 -0.36903 -0.13930
v -0.18451 0.36903 -0.13930
v -0.18436 -0.14356 -0.30793
v -0.18436 0.14356 -0.30793
v -0.18343 -0.38304 0.03363
v -0.18343 0.38304 0.03363
v -0.18331 -0.34427 -0.10596
v -0.18331 0.34427 -0.10596
v -0.18246 -0.28799 -0.03468
v -0.18246 0.28799 -0.03468
v -0.18232 -0.12157 -0.30951
v -0.18232 0.12157 -0.30951
v -0.18196 -0.22078 -0.18417
v -0.18196 0.22078 -0.18417
v -0.18155 -0.35418 0.15826
v -0.18155 0.35418 0.15826
v -0.18124 0.00000 -0.32701
v -0.18102 -0.12250 0.32400
v -0.18102 0.12250 0.32400
v -0.18098 -0.36346 -0.09985
v -0.18098 0.36346 -0.09985
v -0.18051 0.00000 -0.32643
v -0.18027 -0.29838 0.05487
v -0.18027 0.29838 0.05487
v -0.17997 0.00000 0.33546
v -0.17900 -0.34755 -0.11539
v -0.17900 0.34755 -0.11539
v -0.17820 -0.33934 0.00168
v -0.17820 0.33934 0.00168
v -0.17600 0.00000 -0.33435
v -0.17554 -0.30565 -0.08006
v -0.17554 0.30565 -0.08006
v -0.17452 -0.12014 -0.30052
v -0.17452 0.12014 -0.30052
v -0.17437 -0.19975 -0.18001
v -0.17437 0.19975 -0.18001
v -0.17261 0.00000 -0.33981
v -0.17241 0.00000 -0.33591
v -0.17188 0.00000 -0.33652
v -0.17120 -0.16865 -0.22410
v -0.17120 0.16865 -0.22410
v -0.16937 0.00000 -0.34196
v -0.16928 0.00000 -0.34210
v -0.16928 0.00000 -0.34202
v -0.16920 0.00000 -0.34201
v -0.16879 0.00000 -0.34181
v -0.16868 -0.28645 -0.06988
v -0.16868 0.28645 -0.06988
v -0.16829 -0.35104 0.12835
v -0.16829 0.35104 0.12835
v -0.16803 0.00000 -0.30910
v -0.16673 -0.29248 -0.08656
v -0.16673 0.29248 -0.08656
v -0.16581 -0.28834 -0.09376
v -0.16581 0.28834 -0.09376
v -0.16542 -0.36166 0.20935
v -0.16542 0.36166 0.20935
v -0.16498 0.00000 -0.24706
v -0.16367 0.00000 -0.25269
v -0.16353 0.00000 -0.29574
v -0.16344 -0.29204 -0.16210
v -0.16344 0.29204 -0.16210
v -0.16323 -0.37078 0.06613
v -0.16323 0.37078 0.06613
v -0.16283 0.00000 -0.34792
v -0.16251 -0.34097 0.06589
v -0.16251 0.34097 0.06589
v -0.16179 -0.24432 0.29034
v -0.16179 0.24432 0.29034
v -0.16122 -0.29617 0.26367
v -0.16122 0.29617 0.26367
v -0.15939 -0.27106 -0.10422
v -0.15939 0.27106 -0.10422
v -0.15909 -0.26254 -0.11129
v -0.15909 0.26254 -0.11129
v -0.15875 -0.30412 -0.07757
v -0.15875 0.30412 -0.07757
v -0.15824 -0.32478 -0.13103
v -0.15824 0.32478 -0.13103
v -0.15613 -0.37220 0.13417
v -0.15613 0.37220 0.13417
v -0.15377 -0.12779 -0.25494
v -0.15377 0.12779 -0.25494
v -0.15375 -0.29074 -0.01075
v -0.15375 0.29074 -0.01075
v -0.15327 0.00000 -0.33837
v -0.15153 -0.30729 0.00619
v -0.15153 0.30729 0.00619
v -0.15146 -0.16354 -0.24116
v -0.15146 0.16354 -0.24116
v -0.15049 0.00000 -0.28473
v -0.15047 -0.15231 -0.25948
v -0.15047 0.15231 -0.25948
v -0.15016 -0.26488 -0.10994
v -0.15016 0.26488 -0.10994
v -0.14995 -0.28738 -0.11059
v -0.14995 0.28738 -0.11059
v -0.14725 0.00000 -0.28658
v -0.14698 0.00000 0.32283
v -0.14497 -0.34855 0.05606
v -0.14497 0.34855 0.05606
v -0.14425 -0.24446 -0.17112
v -0.14425 0.24446 -0.17112
v -0.14336 -0.25424 -0.14624
v -0.14336 0.25424 -0.14624
v -0.14329 -0.11850 -0.28364
v -0.14329 0.11850 -0.28364
v -0.14295 0.00000 -0.26709
v -0.14276 -0.20376 -0.21828
v -0.14276 0.20376 -0.21828
v -0.14255 -0.14603 -0.26047
v -0.14255 0.14603 -0.26047
v -0.14215 0.00000 0.32118
v -0.14181 0.00000 0.31965
v -0.13976 -0.10616 -0.27261
v -0.13976 0.10616 -0.27261
v -0.13951 -0.20727 -0.20622
v -0.13951 0.20727 -0.20622
v -0.13883 -0.20297 -0.16642
v -0.13883 0.20297 -0.16642
v -0.13793 -0.17356 -0.17777
v -0.13793 0.17356 -0.17777
v -0.13781 -0.10560 -0.27261
v -0.13781 0.10560 -0.27261
v -0.13714 -0.21899 -0.16299
v -0.13714 0.21899 -0.16299
v -0.13695 -0.16356 -0.21492
v -0.13695 0.16356 -0.21492
v -0.13589 0.00000 0.31502
v -0.13315 0.00000 -0.29923
v -0.13300 -0.25146 -0.14008
v -0.13300 0.25146 -0.14008
v -0.13191 -0.19072 -0.16692
v -0.13191 0.19072 -0.16692
v -0.13128 -0.16134 -0.20044
v -0.13128 0.16134 -0.20044
v -0.13007 -0.31039 -0.06945
v -0.13007 0.31039 -0.06945
v -0.12910 -0.12151 -0.30434
v -0.12910 0.12151 -0.30434
v -0.12749 0.00000 -0.31903
v -0.12648 -0.19126 -0.13985
v -0.12648 0.19126 -0.13985
v -0.12557 -0.24363 -0.18717
v -0.12557 0.24363 -0.18717
v -0.12458 0.00000 0.30901
v -0.12344 0.00000 -0.30487
v -0.12318 -0.17270 -0.17665
v -0.12318 0.17270 -0.17665
v -0.12217 -0.31441 0.18238
v -0.12217 0.31441 0.18238
v -0.12097 0.00000 -0.33127
v -0.12045 0.00000 -0.30632
v -0.11900 0.00000 -0.32391
v -0.11753 0.00000 -0.33203
v -0.11739 0.00000 -0.30147
v -0.11706 0.00000 -0.30266
v -0.11665 0.00000 -0.30887
v -0.11602 0.00000 -0.32942
v -0.11371 -0.17147 -0.27628
v -0.11371 0.17147 -0.27628
v -0.11079 -0.21350 -0.22478
v -0.11079 0.21350 -0.22478
v -0.11014 -0.30897 0.08535
v -0.11014 0.30897 0.08535
v -0.10985 0.00000 -0.33632
v -0.10883 -0.29195 -0.06669
v -0.10883 0.29195 -0.06669
v -0.10436 -0.22035 0.26106
v -0.10436 0.22035 0.26106
v -0.10244 -0.10963 -0.27800
v -0.10244 0.10963 -0.27800
v -0.10191 -0.30511 -0.01534
v -0.10191 0.30511 -0.01534
v -0.09959 -0.13726 -0.27032
v -0.09959 0.13726 -0.27032
v -0.09734 -0.21514 -0.22769
v -0.09734 0.21514 -0.22769
v -0.09582 -0.30105 0.14103
v -0.09582 0.30105 0.14103
v -0.09547 -0.13995 -0.25795
v -0.09547 0.13995 -0.25795
v -0.09531 -0.26763 -0.14404
v -0.09531 0.26763 -0.14404
v -0.09511 -0.13774 -0.25634
v -0.09511 0.13774 -0.25634
v -0.09469 -0.15989 -0.27052
v -0.09469 0.15989 -0.27052
v -0.08983 0.00000 -0.32171
v -0.08936 -0.13416 -0.25911
v -0.08936 0.13416 -0.25911
v -0.08890 0.00000 -0.28852
v -0.08787 -0.12403 -0.29217
v -0.08787 0.12403 -0.29217
v -0.08720 0.00000 -0.28118
v -0.08692 -0.12273 0.25727
v -0.08692 0.12273 0.25727
v -0.08635 -0.11303 -0.29186
v -0.08635 0.11303 -0.29186
v -0.08519 -0.12463 -0.26849
v -0.08519 0.12463 -0.26849
v -0.08300 -0.25737 -0.06627
v -0.08300 0.25737 -0.06627
v -0.08210 -0.17481 0.24398
v -0.08210 0.17481 0.24398
v -0.08172 -0.26681 0.05730
v -0.08172 0.26681 0.05730
v -0.08127 0.00000 -0.31225
v -0.08099 -0.15769 -0.27059
v -0.08099 0.15769 -0.27059
v -0.08037 -0.11231 -0.28435
v -0.08037 0.11231 -0.28435
v -0.07998 -0.11087 -0.27613
v -0.07998 0.11087 -0.27613
v -0.07993 -0.15809 -0.26992
v -0.07993 0.15809 -0.26992
v -0.07975 0.00000 -0.31600
v -0.07885 -0.23211 -0.17005
v -0.07885 0.23211 -0.17005
v -0.07869 -0.11084 -0.27784
v -0.07869 0.11084 -0.27784
v -0.07732 -0.11114 -0.28503
v -0.07732 0.11114 -0.28503
v -0.07585 -0.10686 -0.28582
v -0.07585 0.10686 -0.28582
v -0.07533 -0.16250 -0.27282
v -0.07533 0.16250 -0.27282
v -0.07265 -0.14752 -0.27273
v -0.07265 0.14752 -0.27273
v -0.07259 -0.19175 0.14951
v -0.07259 0.19175 0.14951
v -0.07189 -0.17669 -0.24287
v -0.07189 0.17669 -0.24287
v -0.07138 0.00000 -0.28422
v -0.07136 0.00000 -0.28264
v -0.06950 -0.20403 -0.19778
v -0.06950 0.20403 -0.19778
v -0.06920 -0.23101 -0.06123
v -0.06920 0.23101 -0.06123
v -0.06908 -0.23234 -0.02974
v -0.06908 0.23234 -0.02974
v -0.06763 0.00000 -0.30753
v -0.06378 0.00000 -0.30871
v -0.06366 -0.25304 0.06606
v -0.06366 0.25304 0.06606
v -0.06320 -0.18832 0.12354
v -0.06320 0.18832 0.12354
v -0.06300 -0.23488 0.04111
v -0.06300 0.23488 0.04111
v -0.06247 0.00000 -0.30239
v -0.06228 0.00000 -0.30421
v -0.06121 -0.19650 0.13618
v -0.06121 0.19650 0.13618
v -0.06113 0.00000 -0.30398
v -0.05737 -0.24843 -0.03383
v -0.05737 0.24843 -0.03383
v -0.05602 -0.22824 -0.12882
v -0.05602 0.22824 -0.12882
v -0.05482 -0.23716 0.21233
v -0.05482 0.23716 0.21233
v -0.05473 -0.22932 0.14458
v -0.05473 0.22932 0.14458
v -0.05428 0.00000 -0.30189
v -0.05314 0.00000 -0.30143
v -0.05291 0.00000 -0.30014
v -0.05230 0.00000 0.26239
v -0.05119 -0.18280 0.17165
v -0.05119 0.18280 0.17165
v -0.05112 -0.24213 -0.06199
v -0.05112 0.24213 -0.06199
v -0.05055 -0.27410 0.17126
v -0.05055 0.27410 0.17126
v -0.05027 0.00000 0.26191
v -0.04930 -0.18547 0.17733
v -0.04930 0.18547 0.17733
v -0.04895 0.00000 0.25958
v -0.04871 0.00000 0.25391
v -0.04824 -0.21988 -0.15822
v -0.04824 0.21988 -0.15822
v -0.04749 0.00000 0.26108
v -0.04699 -0.20619 -0.19531
v -0.04699 0.20619 -0.19531
v -0.04408 -0.20593 0.17776
v -0.04408 0.20593 0.17776
v -0.04393 -0.17877 0.19902
v -0.04393 0.17877 0.19902
v -0.04157 -0.24230 0.06392
v -0.04157 0.24230 0.06392
v -0.04103 -0.17946 -0.05346
v -0.04103 0.17946 -0.05346
v -0.04002 -0.17080 0.20466
v -0.04002 0.17080 0.20466
v -0.03941 -0.22871 0.04047
v -0.03941 0.22871 0.04047
v -0.03839 -0.25051 0.18970
v -0.03839 0.25051 0.18970
v -0.03732 -0.11885 0.22026
v -0.03732 0.11885 0.22026
v -0.03394 0.00000 -0.16267
v -0.03344 -0.25160 0.13959
v -0.03344 0.25160 0.13959
v -0.03326 -0.18901 0.18939
v -0.03326 0.18901 0.18939
v -0.03245 -0.20831 0.13405
v -0.03245 0.20831 0.13405
v -0.03146 -0.20824 0.10844
v -0.03146 0.20824 0.10844
v -0.03042 0.00000 -0.12734
v -0.02756 -0.22617 0.12365
v -0.02756 0.22617 0.12365
v -0.02408 -0.24466 0.08602
v -0.02408 0.24466 0.08602
v -0.02272 0.00000 -0.07846
v -0.02133 0.00000 -0.06874
v -0.02087 0.00000 -0.06504
v -0.01988 0.00000 0.19346
v -0.01935 -0.22909 0.09394
v -0.01935 0.22909 0.09394
v -0.01655 0.00000 -0.01728
v -0.01511 0.00000 0.12358
v -0.01308 0.00000 0.17573
v -0.01244 0.00000 0.16560
v -0.01108 0.00000 0.17278
v -0.01005 0.00000 0.17347
v -0.00771 0.00000 0.07832
v -0.00771 0.00000 0.10785
v -0.00593 0.00000 0.05308
v -0.00546 0.00000 0.10416
vn 0.0000 0.0000 0.0000
vn 0.0000 0.0000 0.0000
vn 0.0000 0.0000 0.0000
vn 0.0000 0.0000 0.0000
vn -0.9950 0.0000 -0.1004
vn -0.3681 0.0000 0.9298
vn 0.5772 0.0000 0.8166
vn 0.0000 0.0000 0.0000
vn 0.0000 0.0000 0.0000
vn 0.0000 0.0000 0.0000
vn 0.0000 0.0000 0.0000
vn 0.0000 0.0000 0.0000
vn 0.0000 0.0000 0.0000
vn -0.9978 -0.0642 -0.0175
vn -0.9978 0.0642 -0.0175
vn 0.5517 0.0000 0.8340
vn -0.9844 -0.0421 0.1709
vn -0.9844 0.0421 0.1709
vn -0.9932 -0.0410 -0.1092
vn -0.9932 0.0410 -0.1092
vn 0.5475 -0.2774 0.7895
vn 0.5475 0.2774 0.7895
vn -0.7521 0.0000 0.6590
vn -0.8832 0.0000 0.4691
vn -0.3879 0.0690 -0.9191
vn -0.3879 -0.0690 -0.9191
vn 0.7625 0.1887 -0.6189
vn 0.7625 -0.1887 -0.6189
vn -0.8691 0.0000 -0.4947
vn 0.4284 -0.4105 0.8050
vn 0.4284 0.4105 0.8050
vn -0.8558 0.0342 -0.5163
vn -0.8558 -0.0342 -0.5163
vn 0.9319 0.0344 -0.3612
vn 0.9319 -0.0344 -0.3612
vn 0.4585 -0.2271 0.8592
vn 0.4585 0.2271 0.8592
vn -0.5284 -0.2921 0.7971
vn -0.5284 0.2921 0.7971
vn -0.9890 -0.0667 -0.1324
vn -0.9890 0.0667 -0.1324
vn 0.0000 0.0000 0.0000
vn -0.6263 0.0546 -0.7777
vn -0.6263 -0.0546 -0.7777
vn 0.6655 0.3190 -0.6748
vn 0.6655 -0.3190 -0.6748
vn -0.9622 -0.1650 -0.2169
vn -0.9622 0.1650 -0.2169
vn -0.7913 -0.1319 0.5970
vn -0.7913 0.1319 0.5970
vn 0.0000 0.0000 0.0000
vn -0.0813 -0.4042 0.9111
vn -0.0813 0.4042 0.9111
vn -0.7493 -0.1289 0.6496
vn -0.7493 0.1289 0.6496
vn -0.3047 -0.2202 0.9267
vn -0.3047 0.2202 0.9267
vn 0.0000 0.0000 0.0000
vn -0.5779 0.0000 0.8161
vn 0.0000 0.0000 0.0000
vn -0.2545 0.1563 -0.9543
vn -0.2545 -0.1563 -0.9543
vn 0.0000 -0.0000 0.0000
vn 0.0000 0.0000 0.0000
vn 0.0000 0.0000 0.0000
vn 0.6365 0.0000 -0.7713
vn -0.9458 -0.0000 -0.3249
vn 0.8195 0.0435 0.5715
vn 0.8195 -0.0435 0.5715
vn -0.9740 -0.0538 0.2200
vn -0.9740 0.0538 0.2200
vn 0.0000 0.0000 0.0000
vn -0.8753 -0.1291 0.4661
vn -0.8753 0.1291 0.4661
vn 0.1644 -0.0210 0.9862
vn 0.1644 0.0210 0.9862
vn 0.0000 0.0000 0.0000
vn -0.8666 -0.0758 -0.4932
vn -0.8666 0.0758 -0.4932
vn 0.0000 0.0000 0.0000
vn 0.7325 -0.1236 0.6694
vn 0.7325 0.1236 0.6694
vn -0.9838 -0.1258 -0.1281
vn -0.9838 0.1258 -0.1281
vn 0.3807 -0.0812 0.9211
vn 0.3807 0.0812 0.9211
vn -0.7829 -0.1987 0.5896
vn -0.7829 0.1987 0.5896
vn 0.6810 0.0843 -0.7274
vn 0.6810 -0.0843 -0.7274
vn -0.9128 0.0000 0.4083
vn -0.9878 -0.0957 -0.1233
vn -0.9878 0.0957 -0.1233
vn 0.7391 -0.0232 0.6732
vn 0.7391 0.0232 0.6732
vn -0.9669 -0.1613 -0.1975
vn -0.9669 0.1613 -0.1975
vn -0.7967 -0.3310 0.5056
vn -0.7967 0.3310 0.5056
vn -0.9801 -0.0925 -0.1755
vn -0.9801 0.0925 -0.1755
vn 0.8727 0.0723 0.4829
vn 0.8727 -0.0723 0.4829
vn -0.6258 -0.1945 0.7553
vn -0.6258 0.1945 0.7553
vn -0.9951 -0.0974 0.0180
vn -0.9951 0.0974 0.0180
vn 0.0000 0.0000 0.0000
vn -0.8751 -0.2329 -0.4243
vn -0.8751 0.2329 -0.4243
vn -0.9279 -0.3159 -0.1982
vn -0.9279 0.3159 -0.1982
vn 0.5305 0.3380 -0.7774
vn 0.5305 -0.3380 -0.7774
vn -0.4815 -0.3325 0.8109
vn -0.4815 0.3325 0.8109
vn 0.0000 0.0000 0.0000
vn 0.8166 -0.1307 0.5622
vn 0.8166 0.1307 0.5622
vn -0.7868 -0.1027 0.6086
vn -0.7868 0.1027 0.6086
vn 0.5716 0.0000 -0.8205
vn -0.9629 -0.1963 0.1851
vn -0.9629 0.1963 0.1851
vn 0.1904 -0.5236 0.8304
vn 0.1904 0.5236 0.8304
vn 0.0000 0.0000 0.0000
vn -0.9564 -0.0873 -0.2789
vn -0.9564 0.0873 -0.2789
vn -0.6066 -0.0682 -0.7921
vn -0.6066 0.0682 -0.7921
vn 0.0000 0.0000 0.0000
vn -0.0592 0.1838 -0.9812
vn -0.0592 -0.1838 -0.9812
vn -0.1902 -0.5574 0.8082
vn -0.1902 0.5574 0.8082
vn -0.4716 0.0184 -0.8816
vn -0.4716 -0.0184 -0.8816
vn -0.2456 -0.2621 0.9333
vn -0.2456 0.2621 0.9333
vn -0.9388 -0.1738 -0.2975
vn -0.9388 0.1738 -0.2975
vn 0.0000 0.0000 0.0000
vn 0.0311 -0.1533 0.9877
vn 0.0311 0.1533 0.9877
vn -0.2870 -0.1127 0.9513
vn -0.2870 0.1127 0.9513
vn -0.5752 -0.2499 0.7789
vn -0.5752 0.2499 0.7789
vn -0.9635 -0.1180 0.2403
vn -0.9635 0.1180 0.2403
vn -0.9845 -0.0719 0.1598
vn -0.9845 0.0719 0.1598
vn 0.1970 -0.0559 0.9788
vn 0.1970 0.0559 0.9788
vn -0.8645 0.1395 0.4829
vn -0.8645 -0.1395 0.4829
vn -0.6790 -0.2312 0.6968
vn -0.6790 0.2312 0.6968
vn 0.4141 0.3053 0.8575
vn 0.4141 -0.3053 0.8575
vn -0.9912 -0.1322 0.0105
vn -0.9912 0.1322 0.0105
vn -0.3181 -0.0925 0.9435
vn -0.3181 0.0925 0.9435
vn -0.9987 -0.0216 -0.0452
vn -0.9987 0.0216 -0.0452
vn 0.0000 0.0000 0.0000
vn 0.3680 0.0460 0.9287
vn 0.3680 -0.0460 0.9287
vn -0.7074 -0.6280 0.3244
vn -0.7074 0.6280 0.3244
vn -0.4019 -0.2583 0.8785
vn -0.4019 0.2583 0.8785
vn -0.2924 0.1444 -0.9453
vn -0.2924 -0.1444 -0.9453
vn 0.0000 0.0000 0.0000
vn -0.8313 -0.3092 -0.4619
vn -0.8313 0.3092 -0.4619
vn -0.7848 -0.1866 -0.5910
vn -0.7848 0.1866 -0.5910
vn -0.6406 -0.0468 0.7665
vn -0.6406 0.0468 0.7665
vn -0.4940 -0.2372 0.8365
vn -0.4940 0.2372 0.8365
vn -0.0096 0.0909 -0.9958
vn -0.0096 -0.0909 -0.9958
vn -0.5528 -0.2270 0.8018
vn -0.5528 0.2270 0.8018
vn 0.7415 -0.0140 0.6708
vn 0.7415 0.0140 0.6708
vn -0.2160 0.0000 0.9764
vn -0.9533 -0.0988 -0.2853
vn -0.9533 0.0988 -0.2853
vn 0.0000 0.0000 0.0000
vn -0.6476 0.2335 -0.7253
vn -0.6476 -0.2335 -0.7253
vn -0.9132 -0.0275 -0.4065
vn -0.9132 0.0275 -0.4065
vn -0.9775 -0.1844 -0.1024
vn -0.9775 0.1844 -0.1024
vn 0.3608 -0.0141 0.9325
vn 0.3608 0.0141 0.9325
vn 0.0000 -0.0000 0.0000
vn -0.6835 -0.0572 0.7277
vn -0.6835 0.0572 0.7277
vn -0.0997 -0.5738 0.8129
vn -0.0997 0.5738 0.8129
vn -0.8379 -0.3923 -0.3794
vn -0.8379 0.3923 -0.3794
vn 0.0000 0.0000 0.0000
vn 0.7509 -0.0200 0.6601
vn 0.7509 0.0200 0.6601
vn -0.2666 -0.0234 -0.9635
vn -0.2666 0.0234 -0.9635
vn 0.8728 0.4625 0.1562
vn 0.8728 -0.4625 0.1562
vn -0.9150 -0.2161 -0.3408
vn -0.9150 0.2161 -0.3408
vn -0.1875 -0.5076 -0.8410
vn -0.1875 0.5076 -0.8410
vn -0.5947 -0.2386 0.7677
vn -0.5947 0.2386 0.7677
vn -0.5185 0.1290 0.8453
vn -0.5185 -0.1290 0.8453
vn -0.0435 -0.1234 0.9914
vn -0.0435 0.1234 0.9914
vn -0.6399 -0.1385 0.7559
vn -0.6399 0.1385 0.7559
vn -0.6612 -0.1516 0.7348
vn -0.6612 0.1516 0.7348
vn -0.5398 -0.0000 0.8418
vn -0.4886 -0.4160 0.7669
vn -0.4886 0.4160 0.7669
vn -0.4665 0.0000 0.8845
vn 0.4577 0.0000 -0.8891
vn 0.3280 -0.0131 0.9446
vn 0.3280 0.0131 0.9446
vn 0.1318 0.8967 -0.4226
vn 0.1318 -0.8967 -0.4226
vn -0.5299 -0.3727 0.7618
vn -0.5299 0.3727 0.7618
vn 0.2419 0.3754 -0.8947
vn 0.2419 -0.3754 -0.8947
vn -0.7073 -0.2825 0.6480
vn -0.7073 0.2825 0.6480
vn -0.7355 -0.5590 0.3828
vn -0.7355 0.5590 0.3828
vn -0.5624 -0.3630 0.7429
vn -0.5624 0.3630 0.7429
vn -0.1433 -0.3474 0.9267
vn -0.1433 0.3474 0.9267
vn -0.7130 -0.2820 0.6419
vn -0.7130 0.2820 0.6419
vn -0.9386 -0.1738 -0.2979
vn -0.9386 0.1738 -0.2979
vn -0.9518 -0.3026 -0.0496
vn -0.9518 0.3026 -0.0496
vn 0.1793 -0.3120 0.9330
vn 0.1793 0.3120 0.9330
vn 0.0248 0.2753 -0.9610
vn 0.0248 -0.2753 -0.9610
vn -0.8568 0.1364 -0.4972
vn -0.8568 -0.1364 -0.4972
vn -0.3309 -0.7400 0.5856
vn -0.3309 0.7400 0.5856
vn -0.8040 0.3023 -0.5120
vn -0.8040 -0.3023 -0.5120
vn 0.0000 0.0000 0.0000
vn -0.9890 -0.1294 0.0712
vn -0.9890 0.1294 0.0712
vn 0.1890 0.0000 -0.9820
vn -0.6930 -0.7207 0.0163
vn -0.6930 0.7207 0.0163
vn -0.7167 -0.0000 0.6974
vn -0.9791 -0.1367 0.1504
vn -0.9791 0.1367 0.1504
vn 0.0000 0.0000 0.0000
vn 0.0000 0.0000 0.0000
vn 0.0000 0.0000 0.0000
vn -0.8237 -0.4439 0.3528
vn -0.8237 0.4439 0.3528
vn -0.9278 -0.0540 -0.3691
vn -0.9278 0.0540 -0.3691
vn 0.2463 0.3353 0.9094
vn 0.2463 -0.3353 0.9094
vn -0.1817 0.5239 -0.8322
vn -0.1817 -0.5239 -0.8322
vn -0.9096 -0.2452 -0.3355
vn -0.9096 0.2452 -0.3355
vn -0.4345 -0.1214 -0.8925
vn -0.4345 0.1214 -0.8925
vn -0.6849 0.2828 -0.6715
vn -0.6849 -0.2828 -0.6715
vn 0.0000 0.0000 0.0000
vn 0.0000 0.0000 0.0000
vn -0.0660 -0.8730 0.4832
vn -0.0660 0.8730 0.4832
vn -0.9076 -0.1524 -0.3912
vn -0.9076 0.1524 -0.3912
vn -0.9177 -0.1957 -0.3458
vn -0.9177 0.1957 -0.3458
vn -0.4527 -0.2535 0.8549
vn -0.4527 0.2535 0.8549
vn 0.0000 0.0000 0.0000
vn 0.0000 0.0000 0.0000
vn -0.8661 -0.4641 -0.1856
vn -0.8661 0.4641 -0.1856
vn 0.0000 0.0000 0.0000
vn 0.0000 0.0000 0.0000
vn 0.0000 0.0000 0.0000
vn -0.1232 -0.9409 0.3156
vn -0.1232 0.9409 0.3156
vn -0.1175 0.0000 0.9931
vn 0.0000 0.0000 0.0000
vn -0.2670 0.0565 0.9620
vn -0.2670 -0.0565 0.9620
vn -0.8493 -0.1300 -0.5117
vn -0.8493 0.1300 -0.5117
vn -0.0650 -0.9829 0.1722
vn -0.0650 0.9829 0.1722
vn -0.8917 -0.3414 -0.2970
vn -0.8917 0.3414 -0.2970
vn -0.2376 -0.7267 0.6446
vn -0.2376 0.7267 0.6446
vn 0.0000 0.0000 0.0000
vn 0.0000 0.0000 0.0000
vn -0.8450 -0.1524 -0.5126
vn -0.8450 0.1524 -0.5126
vn 0.0000 0.0000 0.0000
vn 0.0000 0.0000 0.0000
vn -0.6464 -0.6584 -0.3855
vn -0.6464 0.6584 -0.3855
vn 0.2851 -0.9566 0.0609
vn 0.2851 0.9566 0.0609
vn -0.3183 -0.4991 0.8060
vn -0.3183 0.4991 0.8060
vn 0.2371 -0.9498 -0.2042
vn 0.2371 0.9498 -0.2042
vn -0.8557 0.0000 -0.5174
vn -0.8826 -0.2937 -0.3672
vn -0.8826 0.2937 -0.3672
vn 0.0314 -0.9539 -0.2985
vn 0.0314 0.9539 -0.2985
vn 0.0932 -0.2196 0.9711
vn 0.0932 0.2196 0.9711
vn 0.3214 -0.8914 -0.3196
vn 0.3214 0.8914 -0.3196
vn -0.8623 -0.0845 -0.4993
vn -0.8623 0.0845 -0.4993
vn 0.4263 -0.8932 0.1428
vn 0.4263 0.8932 0.1428
vn 0.2589 -0.8395 0.4777
vn 0.2589 0.8395 0.4777
vn 0.0000 0.0000 0.0000
vn 0.2780 -0.8991 0.3381
vn 0.2780 0.8991 0.3381
vn 0.1269 -0.3462 0.9295
vn 0.1269 0.3462 0.9295
vn 0.0000 0.0000 0.0000
vn 0.1917 -0.8397 -0.5081
vn 0.1917 0.8397 -0.5081
vn 0.0000 0.0000 0.0000
vn 0.5132 -0.8451 -0.1497
vn 0.5132 0.8451 -0.1497
vn 0.0000 0.0000 0.0000
vn -0.6193 -0.3395 -0.7080
vn -0.6193 0.3395 -0.7080
vn 0.0000 0.0000 0.0000
vn 0.5396 -0.8041 -0.2494
vn 0.5396 0.8041 -0.2494
vn 0.0000 0.0000 0.0000
vn 0.0000 0.0000 0.0000
vn -0.3802 -0.2166 -0.8992
vn -0.3802 0.2166 -0.8992
vn -0.9914 -0.1274 -0.0291
vn -0.9914 0.1274 -0.0291
vn -0.1164 -0.6095 -0.7842
vn -0.1164 0.6095 -0.7842
vn -0.7395 -0.0753 -0.6690
vn -0.7395 0.0753 -0.6690
vn 0.1422 -0.0594 -0.9881
vn 0.1422 0.0594 -0.9881
vn -0.0088 -0.7618 -0.6477
vn -0.0088 0.7618 -0.6477
vn -0.7159 -0.2075 -0.6666
vn -0.7159 0.2075 -0.6666
vn 0.0000 0.0000 0.0000
vn 0.6531 0.0752 -0.7535
vn 0.6531 -0.0752 -0.7535
vn 0.2880 -0.6334 0.7182
vn 0.2880 0.6334 0.7182
vn 0.3767 -0.2371 -0.8955
vn 0.3767 0.2371 -0.8955
vn 0.6078 -0.2799 -0.7431
vn 0.6078 0.2799 -0.7431
vn 0.5057 -0.8495 -0.1502
vn 0.5057 0.8495 -0.1502
vn -0.7256 -0.2319 -0.6479
vn -0.7256 0.2319 -0.6479
vn -0.7338 -0.0939 -0.6729
vn -0.7338 0.0939 -0.6729
vn 0.0000 0.0000 0.0000
vn 0.5906 -0.8066 0.0234
vn 0.5906 0.8066 0.0234
vn 0.5734 0.2360 -0.7845
vn 0.5734 -0.2360 -0.7845
vn -0.0501 -0.3674 -0.9287
vn -0.0501 0.3674 -0.9287
vn 0.2561 -0.1188 0.9593
vn 0.2561 0.1188 0.9593
vn 0.5911 -0.1234 -0.7971
vn 0.5911 0.1234 -0.7971
vn 0.6530 -0.7389 -0.1663
vn 0.6530 0.7389 -0.1663
vn 0.9980 -0.0084 -0.0629
vn 0.9980 0.0084 -0.0629
vn 0.9822 -0.0540 0.1798
vn 0.9822 0.0540 0.1798
vn -0.2518 -0.3978 -0.8822
vn -0.2518 0.3978 -0.8822
vn 0.5570 -0.7190 -0.4157
vn 0.5570 0.7190 -0.4157
vn -0.1131 -0.2765 -0.9543
vn -0.1131 0.2765 -0.9543
vn 0.3163 -0.9136 -0.2555
vn 0.3163 0.9136 -0.2555
vn 0.3428 -0.3968 -0.8515
vn 0.3428 0.3968 -0.8515
vn -0.5547 -0.1684 -0.8149
vn -0.5547 0.1684 -0.8149
vn 0.8514 -0.4086 -0.3289
vn 0.8514 0.4086 -0.3289
vn 0.4048 -0.8043 -0.4350
vn 0.4048 0.8043 -0.4350
vn 0.9364 -0.0550 -0.3465
vn 0.9364 0.0550 -0.3465
vn -0.6641 0.0000 -0.7477
vn -0.6609 0.1194 -0.7409
vn -0.6609 -0.1194 -0.7409
vn 0.4020 0.0000 0.9156
vn 0.0797 0.0000 -0.9968
vn 0.4218 -0.8570 0.2959
vn 0.4218 0.8570 0.2959
vn 0.6360 -0.4645 -0.6163
vn 0.6360 0.4645 -0.6163
vn 0.5431 -0.8105 0.2192
vn 0.5431 0.8105 0.2192
vn 0.2642 0.9558 0.1292
vn 0.2642 -0.9558 0.1292
vn 0.5923 -0.7734 -0.2258
vn 0.5923 0.7734 -0.2258
vn 0.7949 -0.6047 -0.0502
vn 0.7949 0.6047 -0.0502
vn 0.0000 0.0000 0.0000
vn -0.3665 0.0000 -0.9304
vn 0.5133 -0.6589 0.5498
vn 0.5133 0.6589 0.5498
vn 0.5478 -0.6537 -0.5221
vn 0.5478 0.6537 -0.5221
vn 0.9996 0.0273 -0.0106
vn 0.9996 -0.0273 -0.0106
vn 0.6744 -0.7380 -0.0236
vn 0.6744 0.7380 -0.0236
vn 0.0000 0.0000 0.0000
vn 0.0000 0.0000 0.0000
vn 0.8733 -0.4872 0.0040
vn 0.8733 0.4872 0.0040
vn 0.3857 0.9226 0.0023
vn 0.3857 -0.9226 0.0023
vn 0.1250 -0.7085 -0.6945
vn 0.1250 0.7085 -0.6945
vn 0.0000 -0.0000 0.0000
vn 0.7944 -0.4896 -0.3595
vn 0.7944 0.4896 -0.3595
vn -0.9294 0.3469 0.1261
vn -0.9294 -0.3469 0.1261
vn 0.4996 -0.2724 -0.8223
vn 0.4996 0.2724 -0.8223
vn 0.6071 -0.6504 -0.4566
vn 0.6071 0.6504 -0.4566
vn -0.4449 0.1160 -0.8881
vn -0.4449 -0.1160 -0.8881
vn 0.9810 -0.1934 -0.0168
vn 0.9810 0.1934 -0.0168
vn 0.9482 0.1120 0.2974
vn 0.9482 -0.1120 0.2974
vn 0.6390 -0.7490 0.1752
vn 0.6390 0.7490 0.1752
vn 0.0000 0.0000 0.0000
vn 0.0000 0.0000 0.0000
vn 0.5472 -0.2831 -0.7877
vn 0.5472 0.2831 -0.7877
vn -0.3550 -0.8079 -0.4704
vn -0.3550 0.8079 -0.4704
vn 0.0000 -0.0000 0.0000
vn 0.5394 -0.0974 0.8364
vn 0.5394 0.0974 0.8364
vn 0.7054 -0.7039 -0.0840
vn 0.7054 0.7039 -0.0840
vn 0.0000 0.0000 0.0000
vn -0.4099 -0.8297 -0.3789
vn -0.4099 0.8297 -0.3789
vn 0.5647 0.0000 0.8253
vn 0.9057 -0.4172 0.0745
vn 0.9057 0.4172 0.0745
vn 0.0294 -0.9232 -0.3833
vn 0.0294 0.9232 -0.3833
vn 0.0000 0.0000 0.0000
vn 0.7719 -0.4821 0.4144
vn 0.7719 0.4821 0.4144
vn 0.4515 0.1920 -0.8714
vn 0.4515 -0.1920 -0.8714
vn 0.7258 -0.3692 -0.5804
vn 0.7258 0.3692 -0.5804
vn 0.0000 0.0000 0.0000
vn 0.0000 0.0000 0.0000
vn 0.0000 0.0000 0.0000
vn 0.3480 -0.8635 -0.3651
vn 0.3480 0.8635 -0.3651
vn 0.0000 0.0000 0.0000
vn 0.0000 0.0000 0.0000
vn 0.0000 0.0000 0.0000
vn 0.0000 0.0000 0.0000
vn 0.0000 0.0000 0.0000
vn -0.6039 -0.7773 -0.1763
vn -0.6039 0.7773 -0.1763
vn -0.9796 0.0489 -0.1950
vn -0.9796 -0.0489 -0.1950
vn 0.0000 0.0000 0.0000
vn -0.2589 -0.9297 -0.2619
vn -0.2589 0.9297 -0.2619
vn 0.8068 -0.3940 0.4403
vn 0.8068 0.3940 0.4403
vn 0.6991 -0.6409 0.3171
vn 0.6991 0.6409 0.3171
vn 0.0000 0.0000 0.0000
vn 0.5844 -0.0000 -0.8114
vn 0.4702 -0.0000 -0.8826
vn 0.4634 -0.4591 -0.7580
vn 0.4634 0.4591 -0.7580
vn 0.5640 -0.7939 -0.2272
vn 0.5640 0.7939 -0.2272
vn 0.0000 0.0000 0.0000
vn -0.6606 0.7072 0.2517
vn -0.6606 -0.7072 0.2517
vn 0.3663 -0.3084 0.8779
vn 0.3663 0.3084 0.8779
vn 0.5280 -0.4137 0.7416
vn 0.5280 0.4137 0.7416
vn 0.1573 0.0303 -0.9871
vn 0.1573 -0.0303 -0.9871
vn 0.9346 -0.0020 0.3558
vn 0.9346 0.0020 0.3558
vn -0.6236 -0.6572 -0.4233
vn -0.6236 0.6572 -0.4233
vn 0.8762 -0.4157 -0.2440
vn 0.8762 0.4157 -0.2440
vn 0.6097 -0.7916 0.0407
vn 0.6097 0.7916 0.0407
vn 0.5892 0.1277 -0.7978
vn 0.5892 -0.1277 -0.7978
vn -0.7330 -0.6517 -0.1949
vn -0.7330 0.6517 -0.1949
vn 0.0000 0.0000 0.0000
vn -0.1696 0.8331 0.5265
vn -0.1696 -0.8331 0.5265
vn -0.5585 -0.8272 -0.0613
vn -0.5585 0.8272 -0.0613
vn -0.9100 0.0000 -0.4146
vn 0.1853 -0.9045 -0.3841
vn 0.1853 0.9045 -0.3841
vn -0.5225 -0.5766 -0.6281
vn -0.5225 0.5766 -0.6281
vn 0.1302 -0.8778 -0.4609
vn 0.1302 0.8778 -0.4609
vn 0.0000 0.0000 0.0000
vn 0.0000 0.0000 0.0000
vn 0.6935 -0.7169 -0.0715
vn 0.6935 0.7169 -0.0715
vn 0.1427 -0.3349 -0.9314
vn 0.1427 0.3349 -0.9314
vn 0.9297 -0.3364 -0.1502
vn 0.9297 0.3364 -0.1502
vn -0.9200 -0.2551 -0.2977
vn -0.9200 0.2551 -0.2977
vn -0.2967 0.0000 -0.9550
vn -0.7481 -0.4905 -0.4470
vn -0.7481 0.4905 -0.4470
vn 0.4433 -0.2305 -0.8662
vn 0.4433 0.2305 -0.8662
vn 0.0000 0.0000 0.0000
vn 0.0000 0.0000 0.0000
vn -0.8188 -0.0243 -0.5736
vn -0.8188 0.0243 -0.5736
vn -0.9482 -0.2251 -0.2243
vn -0.9482 0.2251 -0.2243
vn -0.4099 -0.1618 -0.8977
vn -0.4099 0.1618 -0.8977
vn 0.4524 -0.7197 -0.5267
vn 0.4524 0.7197 -0.5267
vn -0.0000 0.0000 -0.0000
vn -0.0000 0.0000 -0.0000
vn -0.6427 0.0956 -0.7601
vn -0.6427 -0.0956 -0.7601
vn -0.8890 -0.3884 0.2426
vn -0.8890 0.3884 0.2426
vn 0.0000 0.0000 0.0000
vn 0.2417 0.0000 -0.9704
vn -0.8493 -0.3707 -0.3760
vn -0.8493 0.3707 -0.3760
vn -0.9022 0.4016 0.1575
vn -0.9022 -0.4016 0.1575
vn 0.0760 -0.9633 -0.2575
vn 0.0760 0.9633 -0.2575
vn 0.2777 -0.9118 -0.3025
vn 0.2777 0.9118 -0.3025
vn -0.0124 -0.1067 -0.9942
vn -0.0124 0.1067 -0.9942
vn 0.0000 0.0000 0.0000
vn 0.0945 -0.5081 -0.8561
vn 0.0945 0.5081 -0.8561
vn -0.1080 -0.8127 -0.5725
vn -0.1080 0.8127 -0.5725
vn 0.0000 0.0000 0.0000
vn 0.0000 0.0000 0.0000
vn -0.9941 -0.0929 0.0551
vn -0.9941 0.0929 0.0551
vn 0.6403 -0.7676 -0.0287
vn 0.6403 0.7676 -0.0287
vn 0.0000 -0.0000 0.0000
vn 0.0000 0.0000 0.0000
vn 0.0000 0.0000 0.0000
vn 0.0000 0.0000 0.0000
vn 0.0000 0.0000 0.0000
vn 0.0000 0.0000 0.0000
vn 0.0000 -0.0000 0.0000
vn 0.0000 -0.0000 0.0000
vn -0.2493 -0.6109 -0.7515
vn -0.2493 0.6109 -0.7515
vn -0.3046 -0.6131 -0.7289
vn -0.3046 0.6131 -0.7289
vn 0.7909 -0.6117 -0.0149
vn 0.7909 0.6117 -0.0149
vn 0.0000 0.0000 0.0000
vn 0.7853 -0.6047 -0.1325
vn 0.7853 0.6047 -0.1325
vn 0.5833 -0.1720 0.7939
vn 0.5833 0.1720 0.7939
vn 0.3970 -0.0837 -0.9140
vn 0.3970 0.0837 -0.9140
vn 0.6952 -0.7102 -0.1108
vn 0.6952 0.7102 -0.1108
vn 0.4167 0.0794 -0.9056
vn 0.4167 -0.0794 -0.9056
vn 0.4053 -0.7350 -0.5436
vn 0.4053 0.7350 -0.5436
vn 0.6462 -0.7609 -0.0591
vn 0.6462 0.7609 -0.0591
vn 0.0000 0.0000 0.0000
vn 0.0000 0.0000 0.0000
vn 0.3688 -0.8306 -0.4173
vn 0.3688 0.8306 -0.4173
vn 0.4426 -0.3871 -0.8089
vn 0.4426 0.3871 -0.8089
vn -0.0378 -0.6270 -0.7781
vn -0.0378 0.6270 -0.7781
vn 0.0000 0.0000 0.0000
vn -0.6579 0.7155 0.2352
vn -0.6579 -0.7155 0.2352
vn 0.3657 -0.0000 -0.9307
vn -0.0335 -0.3519 -0.9354
vn -0.0335 0.3519 -0.9354
vn 0.2380 0.0000 -0.9713
vn 0.5688 -0.1316 0.8119
vn 0.5688 0.1316 0.8119
vn -0.7907 0.5910 -0.1596
vn -0.7907 -0.5910 -0.1596
vn -0.6907 -0.1364 -0.7101
vn -0.6907 0.1364 -0.7101
vn 0.8285 -0.5511 -0.0992
vn 0.8285 0.5511 -0.0992
vn 0.7347 -0.0594 0.6758
vn 0.7347 0.0594 0.6758
vn 0.7827 -0.6122 -0.1122
vn 0.7827 0.6122 -0.1122
vn 0.0000 0.0000 0.0000
vn 0.0299 -0.5268 0.8495
vn 0.0299 0.5268 0.8495
vn -0.6739 0.6644 0.3232
vn -0.6739 -0.6644 0.3232
vn -0.0343 -0.1066 -0.9937
vn -0.0343 0.1066 -0.9937
vn 0.2876 -0.6686 -0.6857
vn 0.2876 0.6686 -0.6857
vn 0.0000 0.0000 0.0000
vn 0.7352 -0.6306 -0.2488
vn 0.7352 0.6306 -0.2488
vn -0.9546 0.0767 -0.2879
vn -0.9546 -0.0767 -0.2879
vn -0.3503 -0.0708 -0.9340
vn -0.3503 0.0708 -0.9340
vn 0.8846 -0.0269 -0.4655
vn 0.8846 0.0269 -0.4655
vn 0.4855 -0.5112 -0.7092
vn 0.4855 0.5112 -0.7092
vn 0.9362 -0.0523 -0.3476
vn 0.9362 0.0523 -0.3476
vn 0.9284 0.1391 -0.3444
vn 0.9284 -0.1391 -0.3444
vn 0.4950 -0.6892 -0.5291
vn 0.4950 0.6892 -0.5291
vn 0.8615 0.0000 -0.5078
vn 0.0000 0.0000 0.0000
vn 0.4667 -0.8067 -0.3625
vn 0.4667 0.8067 -0.3625
vn 0.4291 -0.9031 0.0192
vn 0.4291 0.9031 0.0192
vn 0.2466 -0.9691 0.0035
vn 0.2466 0.9691 0.0035
vn 0.0000 0.0000 0.0000
vn 0.0000 0.0000 0.0000
vn 0.4447 -0.8545 -0.2683
vn 0.4447 0.8545 -0.2683
vn -0.3513 -0.9014 0.2532
vn -0.3513 0.9014 0.2532
vn 0.7303 -0.6642 -0.1598
vn 0.7303 0.6642 -0.1598
vn 0.0000 0.0000 0.0000
vn 0.0000 0.0000 0.0000
vn 0.7995 0.2832 0.5296
vn 0.7995 -0.2832 0.5296
vn 0.0000 0.0000 0.0000
vn -0.2460 -0.9570 0.1535
vn -0.2460 0.9570 0.1535
vn 0.2268 -0.9527 -0.2024
vn 0.2268 0.9527 -0.2024
vn 0.7349 -0.0600 0.6755
vn 0.7349 0.0600 0.6755
vn 0.9109 0.4040 -0.0833
vn 0.9109 -0.4040 -0.0833
vn 0.0000 0.0000 0.0000
vn 0.0000 0.0000 0.0000
vn 0.0000 -0.0000 0.0000
vn 0.0000 0.0000 0.0000
vn -0.3279 -0.9192 0.2179
vn -0.3279 0.9192 0.2179
vn 0.8706 -0.4749 -0.1289
vn 0.8706 0.4749 -0.1289
vn 0.6132 -0.7843 -0.0946
vn 0.6132 0.7843 -0.0946
vn 0.0000 0.0000 0.0000
vn 0.8286 -0.1560 -0.5377
vn 0.8286 0.1560 -0.5377
vn 0.0000 0.0000 0.0000
vn 0.6563 0.0000 0.7545
vn 0.9884 -0.1446 -0.0457
vn 0.9884 0.1446 -0.0457
vn 0.0000 0.0000 0.0000
vn 0.9543 -0.1175 -0.2748
vn 0.9543 0.1175 -0.2748
vn 0.9017 0.1866 -0.3901
vn 0.9017 -0.1866 -0.3901
vn 0.7635 -0.1347 0.6316
vn 0.7635 0.1347 0.6316
vn 0.3315 -0.8204 -0.4659
vn 0.3315 0.8204 -0.4659
vn 0.9954 -0.0683 -0.0666
vn 0.9954 0.0683 -0.0666
vn 0.4252 -0.3438 0.8373
vn 0.4252 0.3438 0.8373
vn -0.2602 -0.9644 0.0470
vn -0.2602 0.9644 0.0470
vn 0.7184 -0.4258 0.5501
vn 0.7184 0.4258 0.5501
vn 0.8972 -0.1358 0.4201
vn 0.8972 0.1358 0.4201
vn 0.9911 -0.0000 -0.1329
vn 0.8426 -0.5355 0.0575
vn 0.8426 0.5355 0.0575
vn 0.9839 -0.1186 0.1340
vn 0.9839 0.1186 0.1340
vn -0.4644 -0.8623 0.2021
vn -0.4644 0.8623 0.2021
vn 0.9983 -0.0566 -0.0119
vn 0.9983 0.0566 -0.0119
vn 0.0000 0.0000 0.0000
vn 0.8678 0.4503 0.2101
vn 0.8678 -0.4503 0.2101
vn 0.9765 -0.1996 -0.0817
vn 0.9765 0.1996 -0.0817
vn 0.0000 0.0000 0.0000
vn 0.0000 0.0000 0.0000
vn 0.0000 -0.0000 0.0000
vn 0.0000 0.0000 0.0000
vn 0.0000 0.0000 0.0000
vn 0.0000 0.0000 0.0000
vn 0.0000 0.0000 0.0000
vn 0.9995 0.0000 -0.0313
vn 0.0000 0.0000 0.0000
vn 0.0000 0.0000 0.0000
vn 0.0000 0.0000 0.0000
vn 0.9683 0.0000 0.2497
vn 0.0000 0.0000 0.0000
vn 0.0000 0.0000 0.0000
vn 0.0000 0.0000 0.0000
vn 0.0000 0.0000 0.0000
f 649//649 548//548 411//411
f 649//649 498//498 504//504
f 550//550 392//392 359//359
f 659//659 751//751 686//686
f 653//653 644//644 686//686
f 357//357 448//448 405//405
f 448//448 444//444 464//464
f 560//560 464//464 444//444
f 477//477 450//450 472//472
f 472//472 543//543 580//580
f 472//472 450//450 462//462
f 495//495 529//529 564//564
f 427//427 417//417 495//495
f 427//427 495//495 503//503
f 450//450 546//546 470//470
f 543//543 464//464 560//560
f 580//580 536//536 630//630
f 536//536 560//560 444//444
f 765//765 763//763 775//775
f 741//741 775//775 763//763
f 771//771 777//777 782//782
f 799//799 782//782 777//777
f 756//756 803//803 777//777
f 786//786 782//782 799//799
f 732//732 741//741 710//710
f 789//789 780//780 732//732
f 686//686 724//724 728//728
f 724//724 791//791 767//767
f 784//784 747//747 782//782
f 739//739 649//649 684//684
f 775//775 649//649 739//739
f 411//411 346//346 314//314
f 411//411 314//314 441//441
f 304//304 231//231 232//232
f 204//204 314//314 232//232
f 91//91 23//23 127//127
f 211//211 236//236 232//232
f 63//63 23//23 91//91
f 204//204 23//23 4//4
f 337//337 325//325 242//242
f 282//282 262//262 300//300
f 242//242 325//325 234//234
f 288//288 244//244 240//240
f 234//234 219//219 225//225
f 286//286 288//288 240//240
f 210//210 213//213 201//201
f 238//238 221//221 213//213
f 213//213 203//203 238//238
f 317//317 238//238 260//260
f 252//252 260//260 238//238
f 142//142 201//201 219//219
f 262//262 288//288 294//294
f 163//163 191//191 201//201
f 153//153 172//172 163//163
f 172//172 170//170 163//163
f 194//194 213//213 210//210
f 238//238 191//191 227//227
f 194//194 215//215 213//213
f 325//325 357//357 298//298
f 298//298 357//357 313//313
f 357//357 321//321 313//313
f 352//352 405//405 365//365
f 321//321 352//352 335//335
f 323//323 321//321 335//335
f 290//290 321//321 323//323
f 268//268 266//266 274//274
f 296//296 298//298 290//290
f 274//274 292//292 290//290
f 304//304 242//242 159//159
f 159//159 242//242 149//149
f 179//179 304//304 159//159
f 116//116 271//271 246//246
f 223//223 254//254 250//250
f 189//189 246//246 223//223
f 271//271 223//223 246//246
f 147//147 86//86 189//189
f 84//84 79//79 82//82
f 74//74 82//82 79//79
f 69//69 82//82 74//74
f 84//84 71//71 76//76
f 84//84 76//76 79//79
f 39//39 79//79 76//76
f 62//62 44//44 50//50
f 46//46 53//53 28//28
f 28//28 50//50 35//35
f 86//86 71//71 41//41
f 39//39 71//71 86//86
f 227//227 155//155 145//145
f 145//145 161//161 151//151
f 84//84 101//101 97//97
f 110//110 121//121 112//112
f 110//110 101//101 103//103
f 129//129 84//84 93//93
f 129//129 41//41 84//84
f 223//223 147//147 189//189
f 277//277 271//271 262//262
f 272//272 271//271 275//275
f 271//271 229//229 275//275
f 91//91 50//50 59//59
f 91//91 231//231 50//50
f 33//33 59//59 50//50
f 6//6 235//235 57//57
f 33//33 59//59 29//29
f 57//57 229//229 116//116
f 57//57 116//116 31//31
f 20//20 41//41 67//67
f 7//7 16//16 15//15
f 5//5 7//7 15//15
f 67//67 4//4 23//23
f 62//62 50//50 122//122
f 116//116 37//37 31//31
f 91//91 236//236 143//143
f 201//201 142//142 163//163
f 564//564 567//567 477//477
f 462//462 468//468 415//415
f 427//427 564//564 489//489
f 489//489 477//477 527//527
f 417//417 489//489 419//419
f 558//558 511//511 534//534
f 398//398 371//371 500//500
f 415//415 500//500 371//371
f 527//527 477//477 556//556
f 508//508 653//653 617//617
f 564//564 477//477 489//489
f 479//479 413//413 481//481
f 429//429 479//479 558//558
f 390//390 407//407 381//381
f 381//381 407//407 394//394
f 385//385 481//481 396//396
f 558//558 534//534 576//576
f 682//682 728//728 720//720
f 720//720 773//773 735//735
f 698//698 647//647 682//682
f 698//698 682//682 716//716
f 718//718 749//749 737//737
f 749//749 769//769 758//758
f 657//657 624//624 698//698
f 758//758 769//769 778//778
f 716//716 758//758 761//761
f 657//657 698//698 716//716
f 761//761 712//712 716//716
f 758//758 778//778 761//761
f 778//778 798//798 744//744
f 778//778 744//744 713//713
f 713//713 708//708 778//778
f 584//584 574//574 611//611
f 663//663 624//624 576//576
f 515//515 582//582 605//605
f 607//607 613//613 589//589
f 520//520 601//601 607//607
f 572//572 589//589 591//591
f 520//520 515//515 601//601
f 423//423 387//387 429//429
f 400//400 423//423 433//433
f 446//446 433//433 475//475
f 475//475 515//515 520//520
f 657//657 642//642 624//624
f 402//402 340//340 400//400
f 667//667 657//657 695//695
f 673//673 667//667 708//708
f 651//651 665//665 680//680
f 651//651 693//693 713//713
f 674//674 671//671 651//651
f 591//591 589//589 586//586
f 421//421 400//400 446//446
f 452//452 421//421 475//475
f 440//440 431//431 435//435
f 402//402 400//400 421//421
f 595//595 562//562 591//591
f 591//591 460//460 572//572
f 483//483 460//460 513//513
f 460//460 591//591 513//513
f 570//570 577//577 586//586
f 651//651 671//671 609//609
f 496//496 530//530 516//516
f 496//496 473//473 530//530
f 570//570 586//586 619//619
f 530//530 626//626 516//516
f 530//530 570//570 626//626
f 440//440 466//466 483//483
f 483//483 513//513 440//440
f 438//438 425//425 442//442
f 442//442 539//539 530//530
f 473//473 455//455 530//530
f 513//513 456//456 425//425
f 589//589 667//667 640//640
f 653//653 686//686 682//682
f 323//323 333//333 344//344
f 344//344 342//342 323//323
f 342//342 365//365 348//348
f 350//350 342//342 348//348
f 329//329 342//342 350//350
f 323//323 342//342 302//302
f 348//348 365//365 371//371
f 329//329 350//350 368//368
f 368//368 481//481 385//385
f 375//375 377//377 396//396
f 67//67 284//284 340//340
f 340//340 387//387 400//400
f 799//799 806//806 778//778
f 381//381 394//394 387//387
f 638//638 687//687 634//634
f 441//441 314//314 4//4
f 411//411 498//498 649//649
f 411//411 548//548 346//346
f 649//649 441//441 676//676
f 504//504 441//441 649//649
f 504//504 411//411 441//441
f 649//649 775//775 550//550
f 550//550 536//536 458//458
f 458//458 444//444 392//392
f 392//392 550//550 458//458
f 550//550 359//359 548//548
f 536//536 550//550 775//775
f 775//775 751//751 536//536
f 630//630 751//751 659//659
f 458//458 536//536 444//444
f 751//751 780//780 686//686
f 448//448 454//454 405//405
f 536//536 580//580 560//560
f 529//529 470//470 546//546
f 630//630 659//659 580//580
f 580//580 659//659 644//644
f 644//644 653//653 580//580
f 543//543 472//472 464//464
f 448//448 464//464 454//454
f 464//464 472//472 485//485
f 450//450 417//417 462//462
f 644//644 659//659 686//686
f 546//546 450//450 477//477
f 450//450 470//470 417//417
f 495//495 564//564 503//503
f 543//543 560//560 580//580
f 495//495 417//417 437//437
f 529//529 546//546 564//564
f 470//470 495//495 437//437
f 765//765 684//684 676//676
f 765//765 676//676 777//777
f 739//739 765//765 775//775
f 780//780 775//775 741//741
f 782//782 765//765 771//771
f 765//765 777//777 771//771
f 747//747 754//754 782//782
f 754//754 747//747 782//782
f 754//754 747//747 710//710
f 765//765 754//754 763//763
f 747//747 732//732 710//710
f 765//765 739//739 684//684
f 777//777 676//676 756//756
f 756//756 759//759 803//803
f 649//649 550//550 548//548
f 789//789 791//791 780//780
f 797//797 786//786 791//791
f 780//780 724//724 686//686
f 786//786 726//726 784//784
f 791//791 732//732 786//786
f 732//732 726//726 786//786
f 780//780 791//791 724//724
f 784//784 726//726 747//747
f 784//784 782//782 786//786
f 791//791 773//773 767//767
f 686//686 728//728 682//682
f 728//728 767//767 773//773
f 791//791 786//786 769//769
f 791//791 786//786 797//797
f 799//799 777//777 803//803
f 803//803 806//806 799//799
f 799//799 769//769 786//786
f 778//778 806//806 798//798
f 676//676 441//441 756//756
f 548//548 359//359 346//346
f 346//346 359//359 304//304
f 346//346 304//304 314//314
f 232//232 314//314 304//304
f 304//304 179//179 231//231
f 204//204 236//236 275//275
f 271//271 272//272 236//236
f 232//232 236//236 204//204
f 192//192 195//195 232//232
f 195//195 143//143 211//211
f 192//192 143//143 236//236
f 204//204 195//195 211//211
f 211//211 143//143 192//192
f 192//192 231//231 23//23
f 23//23 231//231 91//91
f 23//23 91//91 127//127
f 204//204 211//211 232//232
f 168//168 192//192 177//177
f 143//143 195//195 127//127
f 168//168 127//127 195//195
f 231//231 192//192 236//236
f 232//232 231//231 236//236
f 177//177 23//23 204//204
f 195//195 204//204 232//232
f 204//204 63//63 192//192
f 168//168 204//204 127//127
f 195//195 204//204 168//168
f 23//23 177//177 192//192
f 4//4 314//314 204//204
f 354//354 357//357 325//325
f 392//392 354//354 337//337
f 392//392 337//337 359//359
f 444//444 354//354 392//392
f 337//337 304//304 359//359
f 354//354 325//325 337//337
f 304//304 337//337 242//242
f 288//288 286//286 317//317
f 308//308 282//282 300//300
f 288//288 317//317 294//294
f 282//282 317//317 260//260
f 282//282 260//260 252//252
f 294//294 317//317 300//300
f 308//308 317//317 282//282
f 444//444 448//448 354//354
f 288//288 262//262 244//244
f 149//149 242//242 185//185
f 149//149 185//185 131//131
f 325//325 248//248 234//234
f 234//234 208//208 242//242
f 199//199 208//208 234//234
f 234//234 248//248 219//219
f 217//217 215//215 240//240
f 240//240 197//197 217//217
f 142//142 248//248 256//256
f 248//248 142//142 219//219
f 252//252 238//238 227//227
f 240//240 244//244 197//197
f 203//203 210//210 213//213
f 219//219 201//201 221//221
f 174//174 183//183 206//206
f 199//199 194//194 203//203
f 242//242 167//167 185//185
f 244//244 167//167 197//197
f 163//163 203//203 194//194
f 244//244 176//176 167//167
f 244//244 131//131 176//176
f 138//138 244//244 134//134
f 151//151 163//163 157//157
f 227//227 161//161 157//157
f 244//244 138//138 131//131
f 161//161 170//170 172//172
f 161//161 170//170 153//153
f 185//185 176//176 131//131
f 163//163 194//194 191//191
f 199//199 234//234 215//215
f 238//238 203//203 191//191
f 221//221 225//225 219//219
f 352//352 357//357 405//405
f 357//357 352//352 321//321
f 298//298 313//313 290//290
f 290//290 313//313 321//321
f 335//335 352//352 365//365
f 302//302 290//290 323//323
f 325//325 298//298 266//266
f 266//266 268//268 264//264
f 256//256 264//264 290//290
f 298//298 292//292 274//274
f 298//298 292//292 296//296
f 290//290 142//142 256//256
f 142//142 290//290 302//302
f 248//248 258//258 256//256
f 248//248 266//266 258//258
f 277//277 262//262 282//282
f 244//244 114//114 134//134
f 262//262 159//159 114//114
f 262//262 271//271 236//236
f 277//277 254//254 271//271
f 277//277 250//250 254//254
f 271//271 254//254 223//223
f 246//246 189//189 116//116
f 149//149 105//105 159//159
f 105//105 107//107 114//114
f 134//134 107//107 105//105
f 105//105 107//107 134//134
f 149//149 107//107 105//105
f 179//179 114//114 159//159
f 159//159 90//90 179//179
f 90//90 159//159 88//88
f 114//114 88//88 159//159
f 179//179 90//90 114//114
f 105//105 88//88 114//114
f 179//179 90//90 50//50
f 236//236 90//90 179//179
f 50//50 62//62 122//122
f 90//90 53//53 48//48
f 53//53 90//90 46//46
f 55//55 53//53 46//46
f 90//90 55//55 46//46
f 84//84 82//82 95//95
f 39//39 69//69 74//74
f 82//82 79//79 95//95
f 79//79 82//82 69//69
f 86//86 76//76 71//71
f 69//69 71//71 76//76
f 76//76 79//79 69//69
f 95//95 79//79 76//76
f 86//86 69//69 39//39
f 39//39 20//20 37//37
f 86//86 39//39 116//116
f 39//39 41//41 20//20
f 39//39 37//37 116//116
f 20//20 22//22 31//31
f 48//48 18//18 28//28
f 55//55 50//50 90//90
f 35//35 18//18 48//48
f 50//50 28//28 90//90
f 86//86 71//71 69//69
f 55//55 28//28 18//18
f 252//252 250//250 282//282
f 227//227 140//140 252//252
f 252//252 140//140 250//250
f 250//250 140//140 223//223
f 227//227 157//157 151//151
f 151//151 142//142 124//124
f 145//145 151//151 157//157
f 145//145 155//155 151//151
f 145//145 151//151 124//124
f 121//121 126//126 119//119
f 121//121 112//112 140//140
f 119//119 112//112 121//121
f 140//140 112//112 119//119
f 112//112 121//121 124//124
f 84//84 97//97 93//93
f 101//101 97//97 119//119
f 119//119 103//103 101//101
f 140//140 86//86 147//147
f 129//129 93//93 142//142
f 103//103 99//99 95//95
f 95//95 84//84 97//97
f 95//95 97//97 101//101
f 95//95 101//101 103//103
f 95//95 99//99 84//84
f 159//159 262//262 179//179
f 227//227 145//145 140//140
f 140//140 147//147 223//223
f 179//179 262//262 236//236
f 275//275 235//235 204//204
f 229//229 235//235 275//275
f 80//80 122//122 127//127
f 42//42 91//91 122//122
f 80//80 65//65 66//66
f 80//80 66//66 122//122
f 91//91 122//122 143//143
f 91//91 42//42 80//80
f 66//66 62//62 33//33
f 235//235 6//6 60//60
f 236//236 91//91 122//122
f 235//235 229//229 57//57
f 63//63 204//204 235//235
f 24//24 91//91 59//59
f 66//66 24//24 42//42
f 33//33 26//26 29//29
f 29//29 60//60 6//6
f 24//24 6//6 60//60
f 24//24 33//33 29//29
f 23//23 63//63 5//5
f 15//15 20//20 67//67
f 67//67 5//5 15//15
f 16//16 15//15 6//6
f 50//50 26//26 33//33
f 29//29 26//26 66//66
f 91//91 24//24 122//122
f 80//80 42//42 91//91
f 66//66 65//65 58//58
f 122//122 24//24 42//42
f 235//235 5//5 24//24
f 65//65 51//51 63//63
f 42//42 63//63 51//51
f 235//235 65//65 63//63
f 42//42 24//24 63//63
f 57//57 16//16 6//6
f 5//5 67//67 23//23
f 67//67 41//41 129//129
f 129//129 284//284 67//67
f 302//302 284//284 142//142
f 142//142 284//284 129//129
f 277//277 282//282 250//250
f 229//229 271//271 116//116
f 50//50 44//44 26//26
f 31//31 22//22 57//57
f 179//179 50//50 231//231
f 63//63 91//91 127//127
f 653//653 682//682 647//647
f 365//365 405//405 415//415
f 580//580 653//653 508//508
f 477//477 472//472 508//508
f 415//415 468//468 500//500
f 462//462 417//417 419//419
f 503//503 564//564 427//427
f 427//427 489//489 417//417
f 462//462 419//419 487//487
f 477//477 508//508 556//556
f 647//647 663//663 617//617
f 508//508 617//617 556//556
f 576//576 617//617 663//663
f 534//534 532//532 576//576
f 468//468 487//487 500//500
f 500//500 487//487 506//506
f 511//511 419//419 489//489
f 511//511 489//489 527//527
f 487//487 511//511 506//506
f 647//647 617//617 653//653
f 468//468 462//462 487//487
f 582//582 541//541 584//584
f 584//584 541//541 558//558
f 398//398 500//500 481//481
f 500//500 506//506 481//481
f 481//481 413//413 396//396
f 429//429 558//558 541//541
f 409//409 479//479 394//394
f 479//479 409//409 407//407
f 479//479 407//407 413//413
f 413//413 409//409 407//407
f 413//413 407//407 409//409
f 394//394 479//479 429//429
f 413//413 407//407 390//390
f 396//396 390//390 375//375
f 405//405 462//462 415//415
f 773//773 791//791 749//749
f 749//749 791//791 769//769
f 720//720 749//749 718//718
f 735//735 773//773 749//749
f 720//720 735//735 749//749
f 720//720 718//718 682//682
f 682//682 718//718 737//737
f 737//737 749//749 758//758
f 682//682 737//737 716//716
f 769//769 799//799 778//778
f 758//758 716//716 737//737
f 706//706 695//695 712//712
f 708//708 706//706 712//712
f 761//761 708//708 712//712
f 712//712 695//695 657//657
f 761//761 778//778 708//708
f 574//574 576//576 611//611
f 541//541 582//582 429//429
f 582//582 515//515 493//493
f 582//582 584//584 611//611
f 611//611 624//624 582//582
f 589//589 599//599 605//605
f 599//599 601//601 515//515
f 599//599 613//613 601//601
f 622//622 601//601 613//613
f 597//597 582//582 624//624
f 599//599 589//589 613//613
f 615//615 607//607 601//601
f 597//597 624//624 589//589
f 607//607 569//569 520//520
f 569//569 572//572 475//475
f 520//520 569//569 475//475
f 607//607 589//589 569//569
f 572//572 569//569 589//589
f 429//429 493//493 423//423
f 394//394 429//429 387//387
f 400//400 387//387 423//423
f 493//493 515//515 423//423
f 423//423 515//515 433//433
f 582//582 597//597 605//605
f 613//613 607//607 628//628
f 429//429 582//582 493//493
f 515//515 605//605 599//599
f 589//589 605//605 597//597
f 537//537 538//538 456//456
f 706//706 708//708 695//695
f 708//708 689//689 695//695
f 708//708 704//704 702//702
f 702//702 678//678 673//673
f 693//693 680//680 700//700
f 708//708 713//713 704//704
f 665//665 651//651 655//655
f 655//655 667//667 673//673
f 655//655 619//619 640//640
f 665//665 670//670 661//661
f 655//655 651//651 619//619
f 691//691 655//655 673//673
f 655//655 691//691 673//673
f 691//691 704//704 702//702
f 693//693 700//700 680//680
f 680//680 693//693 651//651
f 713//713 744//744 729//729
f 714//714 713//713 729//729
f 729//729 722//722 687//687
f 729//729 744//744 722//722
f 638//638 671//671 687//687
f 674//674 714//714 671//671
f 687//687 671//671 729//729
f 589//589 640//640 586//586
f 446//446 475//475 421//421
f 452//452 431//431 421//421
f 431//431 421//421 435//435
f 431//431 435//435 421//421
f 402//402 421//421 431//431
f 572//572 452//452 475//475
f 538//538 595//595 587//587
f 595//595 603//603 587//587
f 562//562 513//513 591//591
f 562//562 595//595 538//538
f 587//587 425//425 538//538
f 538//538 456//456 513//513
f 619//619 651//651 609//609
f 640//640 619//619 586//586
f 562//562 538//538 513//513
f 587//587 570//570 539//539
f 587//587 539//539 425//425
f 619//619 609//609 570//570
f 637//637 626//626 638//638
f 635//635 636//636 626//626
f 636//636 635//635 637//637
f 626//626 609//609 638//638
f 637//637 634//634 632//632
f 516//516 626//626 634//634
f 496//496 516//516 501//501
f 587//587 570//570 577//577
f 577//577 570//570 586//586
f 570//570 609//609 626//626
f 539//539 570//570 530//530
f 431//431 425//425 402//402
f 440//440 425//425 431//431
f 425//425 440//440 513//513
f 466//466 483//483 460//460
f 460//460 483//483 466//466
f 460//460 483//483 440//440
f 513//513 483//483 491//491
f 442//442 530//530 455//455
f 438//438 442//442 455//455
f 706//706 708//708 667//667
f 661//661 670//670 665//665
f 400//400 433//433 446//446
f 456//456 538//538 425//425
f 647//647 698//698 663//663
f 576//576 554//554 584//584
f 634//634 687//687 722//722
f 509//509 473//473 516//516
f 438//438 473//473 509//509
f 335//335 365//365 339//339
f 339//339 365//365 344//344
f 333//333 339//339 335//335
f 335//335 339//339 333//333
f 333//333 335//335 339//339
f 344//344 365//365 342//342
f 415//415 371//371 365//365
f 302//302 342//342 329//329
f 371//371 368//368 362//362
f 371//371 362//362 348//348
f 371//371 398//398 368//368
f 329//329 368//368 381//381
f 368//368 398//398 481//481
f 368//368 385//385 381//381
f 396//396 379//379 385//385
f 377//377 381//381 385//385
f 379//379 375//375 377//377
f 383//383 377//377 385//385
f 379//379 396//396 383//383
f 379//379 383//383 385//385
f 381//381 375//375 390//390
f 381//381 377//377 375//375
f 362//362 368//368 350//350
f 284//284 302//302 319//319
f 319//319 302//302 329//329
f 340//340 284//284 319//319
f 327//327 67//67 340//340
f 319//319 329//329 387//387
f 319//319 387//387 340//340
f 509//509 327//327 340//340
f 329//329 381//381 387//387
f 405//405 454//454 462//462
f 546//546 567//567 564//564
f 454//454 485//485 462//462
f 462//462 485//485 472//472
f 448//448 357//357 354//354
f 501//501 516//516 473//473
f 634//634 565//565 516//516
f 441//441 759//759 756//756
f 411//411 504//504 498//498
f 751//751 630//630 536//536
f 765//765 782//782 754//754
f 782//782 747//747 754//754
f 529//529 495//495 470//470
f 437//437 417//417 470//470
f 485//485 454//454 464//464
f 775//775 780//780 751//751
f 710//710 741//741 763//763
f 754//754 710//710 763//763
f 232//232 195//195 177//177
f 232//232 177//177 195//195
f 676//676 684//684 649//649
f 741//741 732//732 780//780
f 732//732 791//791 789//789
f 726//726 732//732 747//747
f 767//767 728//728 724//724
f 236//236 272//272 275//275
f 168//168 177//177 195//195
f 168//168 195//195 192//192
f 236//236 211//211 192//192
f 236//236 192//192 232//232
f 195//195 177//177 204//204
f 204//204 192//192 127//127
f 63//63 127//127 192//192
f 294//294 300//300 262//262
f 317//317 308//308 300//300
f 248//248 325//325 266//266
f 208//208 174//174 242//242
f 183//183 242//242 206//206
f 203//203 213//213 210//210
f 208//208 181//181 174//174
f 197//197 183//183 206//206
f 199//199 197//197 206//206
f 183//183 199//199 206//206
f 242//242 183//183 187//187
f 174//174 206//206 242//242
f 174//174 199//199 183//183
f 208//208 199//199 181//181
f 199//199 174//174 181//181
f 165//165 242//242 187//187
f 170//170 161//161 227//227
f 170//170 227//227 203//203
f 183//183 197//197 187//187
f 187//187 197//197 242//242
f 167//167 242//242 165//165
f 167//167 187//187 242//242
f 167//167 165//165 187//187
f 197//197 167//167 242//242
f 201//201 191//191 194//194
f 167//167 176//176 185//185
f 203//203 227//227 191//191
f 151//151 161//161 153//153
f 151//151 153//153 163//163
f 203//203 163//163 170//170
f 170//170 161//161 172//172
f 217//217 199//199 203//203
f 172//172 153//153 170//170
f 199//199 215//215 194//194
f 213//213 240//240 215//215
f 197//197 199//199 217//217
f 201//201 194//194 210//210
f 213//213 215//215 217//217
f 213//213 217//217 203//203
f 234//234 225//225 221//221
f 234//234 221//221 201//201
f 238//238 240//240 225//225
f 238//238 225//225 221//221
f 221//221 225//225 240//240
f 221//221 240//240 213//213
f 213//213 215//215 234//234
f 213//213 234//234 201//201
f 264//264 258//258 266//266
f 240//240 238//238 286//286
f 290//290 264//264 268//268
f 298//298 274//274 266//266
f 274//274 290//290 268//268
f 131//131 149//149 134//134
f 131//131 134//134 107//107
f 264//264 256//256 258//258
f 298//298 296//296 292//292
f 290//290 292//292 298//298
f 296//296 290//290 298//298
f 238//238 317//317 286//286
f 262//262 114//114 244//244
f 86//86 116//116 189//189
f 138//138 134//134 149//149
f 134//134 114//114 107//107
f 131//131 138//138 149//149
f 107//107 149//149 131//131
f 35//35 48//48 53//53
f 114//114 90//90 88//88
f 105//105 114//114 159//159
f 105//105 114//114 88//88
f 122//122 90//90 236//236
f 53//53 55//55 90//90
f 53//53 90//90 48//48
f 39//39 74//74 79//79
f 46//46 35//35 53//53
f 28//28 35//35 46//46
f 86//86 95//95 76//76
f 84//84 41//41 71//71
f 142//142 151//151 157//157
f 142//142 157//157 163//163
f 71//71 39//39 76//76
f 95//95 86//86 140//140
f 50//50 18//18 35//35
f 57//57 22//22 15//15
f 41//41 39//39 86//86
f 20//20 31//31 37//37
f 90//90 62//62 50//50
f 18//18 50//50 55//55
f 62//62 90//90 122//122
f 28//28 53//53 48//48
f 28//28 55//55 90//90
f 126//126 136//136 124//124
f 142//142 151//151 155//155
f 155//155 227//227 151//151
f 142//142 155//155 151//151
f 121//121 140//140 126//126
f 124//124 121//121 126//126
f 140//140 136//136 126//126
f 145//145 136//136 140//140
f 93//93 97//97 101//101
f 93//93 101//101 110//110
f 145//145 124//124 136//136
f 124//124 93//93 112//112
f 99//99 110//110 103//103
f 119//119 126//126 110//110
f 119//119 110//110 99//99
f 103//103 119//119 99//99
f 121//121 110//110 126//126
f 119//119 97//97 84//84
f 119//119 84//84 140//140
f 93//93 110//110 112//112
f 99//99 103//103 101//101
f 99//99 101//101 84//84
f 51//51 63//63 91//91
f 51//51 91//91 42//42
f 124//124 142//142 93//93
f 84//84 95//95 140//140
f 80//80 127//127 91//91
f 63//63 80//80 91//91
f 127//127 122//122 91//91
f 127//127 91//91 143//143
f 66//66 33//33 122//122
f 33//33 62//62 122//122
f 122//122 66//66 59//59
f 59//59 66//66 122//122
f 143//143 122//122 91//91
f 66//66 42//42 24//24
f 24//24 59//59 33//33
f 24//24 66//66 58//58
f 29//29 59//59 33//33
f 58//58 65//65 235//235
f 58//58 235//235 24//24
f 6//6 5//5 60//60
f 7//7 5//5 6//6
f 24//24 29//29 6//6
f 20//20 15//15 31//31
f 16//16 7//7 15//15
f 7//7 6//6 15//15
f 66//66 26//26 62//62
f 65//65 80//80 51//51
f 65//65 51//51 58//58
f 60//60 5//5 235//235
f 29//29 66//66 60//60
f 60//60 66//66 24//24
f 51//51 65//65 58//58
f 16//16 57//57 15//15
f 24//24 5//5 63//63
f 51//51 80//80 63//63
f 157//157 161//161 145//145
f 62//62 26//26 44//44
f 20//20 31//31 22//22
f 31//31 15//15 22//22
f 532//532 556//556 576//576
f 546//546 477//477 567//567
f 576//576 556//556 617//617
f 534//534 511//511 532//532
f 511//511 527//527 532//532
f 527//527 556//556 532//532
f 552//552 554//554 576//576
f 419//419 511//511 487//487
f 584//584 558//558 576//576
f 479//479 481//481 506//506
f 558//558 479//479 506//506
f 409//409 394//394 407//407
f 413//413 390//390 396//396
f 506//506 511//511 558//558
f 720//720 728//728 773//773
f 552//552 576//576 574//574
f 601//601 628//628 615//615
f 628//628 607//607 615//615
f 574//574 554//554 552//552
f 663//663 698//698 624//624
f 716//716 712//712 657//657
f 657//657 667//667 642//642
f 584//584 554//554 574//574
f 611//611 576//576 624//624
f 622//622 613//613 628//628
f 601//601 622//622 628//628
f 438//438 509//509 340//340
f 438//438 340//340 402//402
f 589//589 624//624 642//642
f 667//667 589//589 642//642
f 515//515 475//475 433//433
f 708//708 706//706 695//695
f 708//708 695//695 689//689
f 689//689 667//667 695//695
f 655//655 640//640 667//667
f 706//706 689//689 695//695
f 706//706 667//667 689//689
f 704//704 713//713 702//702
f 702//702 713//713 700//700
f 704//704 678//678 702//702
f 673//673 708//708 702//702
f 691//691 702//702 700//700
f 691//691 700//700 693//693
f 680//680 665//665 670//670
f 655//655 680//680 670//670
f 665//665 655//655 670//670
f 673//673 678//678 655//655
f 661//661 655//655 665//665
f 665//665 655//655 661//661
f 691//691 680//680 655//655
f 655//655 678//678 691//691
f 680//680 691//691 693//693
f 713//713 674//674 651//651
f 713//713 693//693 700//700
f 691//691 678//678 704//704
f 435//435 431//431 452//452
f 435//435 452//452 460//460
f 729//729 671//671 714//714
f 713//713 714//714 674//674
f 460//460 440//440 435//435
f 595//595 586//586 603//603
f 572//572 460//460 452//452
f 591//591 586//586 595//595
f 632//632 636//636 637//637
f 586//586 595//595 603//603
f 587//587 603//603 595//595
f 586//586 587//587 595//595
f 456//456 538//538 537//537
f 483//483 513//513 491//491
f 587//587 586//586 570//570
f 587//587 577//577 570//570
f 636//636 632//632 626//626
f 626//626 637//637 635//635
f 637//637 638//638 634//634
f 634//634 626//626 632//632
f 496//496 501//501 473//473
f 466//466 440//440 483//483
f 425//425 438//438 402//402
f 473//473 438//438 455//455
f 442//442 425//425 539//539
f 348//348 362//362 350//350
f 609//609 671//671 638//638
f 323//323 335//335 333//333
f 339//339 344//344 333//333
f 375//375 379//379 383//383
f 375//375 383//383 377//377
f 383//383 396//396 377//377
f 379//379 377//377 383//383
f 580//580 508//508 472//472
f 516//516 565//565 509//509
f 544//544 631//631 522//522
f 309//309 108//108 132//132
f 592//592 366//366 369//369
f 807//807 802//802 801//801
f 108//108 1//1 2//2
f 9//9 72//72 77//77
f 311//311 330//330 326//326
f 330//330 373//373 372//372
f 730//730 743//743 742//742
f 631//631 730//730 668//668
f 544//544 522//522 521//521
f 807//807 794//794 793//793
f 309//309 355//355 366//366
f 132//132 305//305 309//309
f 311//311 280//280 279//279
f 721//721 696//696 730//730
f 592//592 745//745 752//752
f 369//369 578//578 592//592
f 801//801 805//805 807//807
f 77//77 13//13 9//9
f 279//279 77//77 72//72
f 633//633 620//620 631//631
f 326//326 315//315 311//311
f 372//372 331//331 330//330
f 742//742 733//733 730//730
f 668//668 645//645 631//631
f 752//752 795//795 802//802
f 521//521 518//518 544//544
f 752//752 745//745 755//755
f 802//802 800//800 801//801
f 807//807 805//805 804//804
f 366//366 355//355 360//360
f 309//309 305//305 306//306
f 108//108 117//117 132//132
f 9//9 11//11 10//10
f 9//9 12//12 11//11
f 1//1 3//3 2//2
f 9//9 13//13 12//12
f 279//279 278//278 269//269
f 793//793 794//794 792//792
f 793//793 792//792 787//787
f 373//373 403//403 388//388
f 631//631 645//645 633//633
f 311//311 315//315 310//310
f 730//730 696//696 668//668
f 592//592 578//578 593//593
f 592//592 593//593 608//608
f 802//802 795//795 800//800
f 366//366 360//360 363//363
f 108//108 64//64 117//117
f 730//730 733//733 721//721
f 522//522 525//525 524//524
f 522//522 524//524 523//523
f 522//522 523//523 521//521
f 373//373 388//388 372//372
f 544//544 518//518 517//517
f 279//279 280//280 278//278
f 330//330 331//331 326//326
f 592//592 608//608 625//625
f 366//366 363//363 369//369
f 9//9 10//10 8//8
f 648//648 410//410 547//547
f 648//648 504//504 497//497
f 549//549 358//358 391//391
f 658//658 685//685 750//750
f 652//652 685//685 643//643
f 356//356 404//404 447//447
f 447//447 463//463 443//443
f 559//559 443//443 463//463
f 476//476 471//471 449//449
f 471//471 579//579 542//542
f 471//471 461//461 449//449
f 494//494 563//563 528//528
f 426//426 494//494 416//416
f 426//426 502//502 494//494
f 449//449 469//469 545//545
f 542//542 559//559 463//463
f 579//579 629//629 535//535
f 535//535 443//443 559//559
f 764//764 774//774 762//762
f 740//740 762//762 774//774
f 770//770 781//781 776//776
f 799//799 776//776 781//781
f 756//756 776//776 803//803
f 785//785 799//799 781//781
f 731//731 709//709 740//740
f 788//788 731//731 779//779
f 685//685 727//727 723//723
f 723//723 766//766 790//790
f 783//783 781//781 746//746
f 738//738 683//683 648//648
f 774//774 738//738 648//648
f 410//410 314//314 345//345
f 410//410 441//441 314//314
f 303//303 232//232 230//230
f 204//204 232//232 314//314
f 91//91 127//127 23//23
f 211//211 232//232 236//236
f 63//63 91//91 23//23
f 204//204 4//4 23//23
f 336//336 241//241 324//324
f 281//281 299//299 261//261
f 241//241 233//233 324//324
f 287//287 239//239 243//243
f 233//233 224//224 218//218
f 285//285 239//239 287//287
f 209//209 200//200 212//212
f 237//237 212//212 220//220
f 212//212 237//237 202//202
f 316//316 259//259 237//237
f 251//251 237//237 259//259
f 141//141 218//218 200//200
f 261//261 293//293 287//287
f 162//162 200//200 190//190
f 152//152 162//162 171//171
f 171//171 162//162 169//169
f 193//193 209//209 212//212
f 237//237 226//226 190//190
f 193//193 212//212 214//214
f 324//324 297//297 356//356
f 297//297 312//312 356//356
f 356//356 312//312 320//320
f 351//351 364//364 404//404
f 320//320 334//334 351//351
f 322//322 334//334 320//320
f 289//289 322//322 320//320
f 267//267 273//273 265//265
f 295//295 289//289 297//297
f 273//273 289//289 291//291
f 303//303 158//158 241//241
f 158//158 148//148 241//241
f 178//178 158//158 303//303
f 115//115 245//245 270//270
f 222//222 249//249 253//253
f 188//188 222//222 245//245
f 270//270 245//245 222//222
f 146//146 188//188 85//85
f 83//83 81//81 78//78
f 73//73 78//78 81//81
f 68//68 73//73 81//81
f 83//83 75//75 70//70
f 83//83 78//78 75//75
f 38//38 75//75 78//78
f 61//61 49//49 43//43
f 45//45 27//27 52//52
f 27//27 34//34 49//49
f 85//85 40//40 70//70
f 38//38 85//85 70//70
f 226//226 144//144 154//154
f 144//144 150//150 160//160
f 83//83 96//96 100//100
f 109//109 111//111 120//120
f 109//109 102//102 100//100
f 128//128 92//92 83//83
f 128//128 83//83 40//40
f 222//222 188//188 146//146
f 276//276 261//261 270//270
f 272//272 275//275 270//270
f 270//270 275//275 228//228
f 91//91 59//59 49//49
f 91//91 49//49 230//230
f 32//32 49//49 59//59
f 6//6 56//56 235//235
f 32//32 29//29 59//59
f 56//56 115//115 228//228
f 56//56 30//30 115//115
f 19//19 67//67 40//40
f 7//7 14//14 16//16
f 5//5 14//14 7//7
f 67//67 23//23 4//4
f 61//61 122//122 49//49
f 115//115 30//30 36//36
f 91//91 143//143 236//236
f 200//200 162//162 141//141
f 563//563 476//476 566//566
f 461//461 414//414 467//467
f 426//426 488//488 563//563
f 488//488 526//526 476//476
f 416//416 418//418 488//488
f 557//557 533//533 510//510
f 397//397 499//499 370//370
f 414//414 370//370 499//499
f 526//526 555//555 476//476
f 507//507 616//616 652//652
f 563//563 488//488 476//476
f 478//478 480//480 412//412
f 428//428 557//557 478//478
f 389//389 380//380 406//406
f 380//380 393//393 406//406
f 384//384 395//395 480//480
f 557//557 575//575 533//533
f 681//681 719//719 727//727
f 719//719 734//734 772//772
f 697//697 681//681 646//646
f 697//697 715//715 681//681
f 717//717 736//736 748//748
f 748//748 757//757 768//768
f 656//656 697//697 623//623
f 757//757 778//778 768//768
f 715//715 760//760 757//757
f 656//656 715//715 697//697
f 760//760 715//715 711//711
f 757//757 760//760 778//778
f 778//778 744//744 798//798
f 778//778 713//713 744//744
f 713//713 778//778 707//707
f 583//583 610//610 573//573
f 662//662 575//575 623//623
f 514//514 604//604 581//581
f 606//606 588//588 612//612
f 519//519 606//606 600//600
f 571//571 590//590 588//588
f 519//519 600//600 514//514
f 422//422 428//428 386//386
f 399//399 432//432 422//422
f 445//445 474//474 432//432
f 474//474 519//519 514//514
f 656//656 623//623 641//641
f 401//401 399//399 340//340
f 666//666 694//694 656//656
f 672//672 707//707 666//666
f 650//650 679//679 664//664
f 650//650 713//713 692//692
f 674//674 650//650 671//671
f 590//590 585//585 588//588
f 420//420 445//445 399//399
f 451//451 474//474 420//420
f 439//439 434//434 430//430
f 401//401 420//420 399//399
f 594//594 590//590 561//561
f 590//590 571//571 459//459
f 482//482 512//512 459//459
f 459//459 512//512 590//590
f 570//570 585//585 577//577
f 650//650 609//609 671//671
f 496//496 516//516 530//530
f 496//496 530//530 473//473
f 570//570 618//618 585//585
f 530//530 516//516 626//626
f 530//530 626//626 570//570
f 439//439 482//482 465//465
f 482//482 439//439 512//512
f 438//438 442//442 424//424
f 442//442 530//530 539//539
f 473//473 530//530 455//455
f 512//512 424//424 456//456
f 588//588 639//639 666//666
f 652//652 681//681 685//685
f 322//322 343//343 332//332
f 343//343 322//322 341//341
f 341//341 347//347 364//364
f 349//349 347//347 341//341
f 328//328 349//349 341//341
f 322//322 301//301 341//341
f 347//347 370//370 364//364
f 328//328 367//367 349//349
f 367//367 384//384 480//480
f 374//374 395//395 376//376
f 67//67 340//340 283//283
f 340//340 399//399 386//386
f 799//799 778//778 806//806
f 380//380 386//386 393//393
f 638//638 634//634 687//687
f 441//441 4//4 314//314
f 410//410 648//648 497//497
f 410//410 345//345 547//547
f 648//648 675//675 441//441
f 504//504 648//648 441//441
f 504//504 441//441 410//410
f 648//648 549//549 774//774
f 549//549 457//457 535//535
f 457//457 391//391 443//443
f 391//391 457//457 549//549
f 549//549 547//547 358//358
f 535//535 774//774 549//549
f 774//774 535//535 750//750
f 629//629 658//658 750//750
f 457//457 443//443 535//535
f 750//750 685//685 779//779
f 447//447 404//404 453//453
f 535//535 559//559 579//579
f 528//528 545//545 469//469
f 629//629 579//579 658//658
f 579//579 643//643 658//658
f 643//643 579//579 652//652
f 542//542 463//463 471//471
f 447//447 453//453 463//463
f 463//463 484//484 471//471
f 449//449 461//461 416//416
f 643//643 685//685 658//658
f 545//545 476//476 449//449
f 449//449 416//416 469//469
f 494//494 502//502 563//563
f 542//542 579//579 559//559
f 494//494 436//436 416//416
f 528//528 563//563 545//545
f 469//469 436//436 494//494
f 764//764 675//675 683//683
f 764//764 776//776 675//675
f 738//738 774//774 764//764
f 779//779 740//740 774//774
f 781//781 770//770 764//764
f 764//764 770//770 776//776
f 746//746 781//781 753//753
f 753//753 781//781 746//746
f 753//753 709//709 746//746
f 764//764 762//762 753//753
f 746//746 709//709 731//731
f 764//764 683//683 738//738
f 776//776 756//756 675//675
f 756//756 803//803 759//759
f 648//648 547//547 549//549
f 788//788 779//779 790//790
f 796//796 790//790 785//785
f 779//779 685//685 723//723
f 785//785 783//783 725//725
f 790//790 785//785 731//731
f 731//731 785//785 725//725
f 779//779 723//723 790//790
f 783//783 746//746 725//725
f 783//783 785//785 781//781
f 790//790 766//766 772//772
f 685//685 681//681 727//727
f 727//727 772//772 766//766
f 790//790 768//768 785//785
f 790//790 796//796 785//785
f 799//799 803//803 776//776
f 803//803 799//799 806//806
f 799//799 785//785 768//768
f 778//778 798//798 806//806
f 675//675 756//756 441//441
f 547//547 345//345 358//358
f 345//345 303//303 358//358
f 345//345 314//314 303//303
f 232//232 303//303 314//314
f 303//303 230//230 178//178
f 204//204 275//275 236//236
f 270//270 236//236 272//272
f 232//232 204//204 236//236
f 192//192 232//232 195//195
f 195//195 211//211 143//143
f 192//192 236//236 143//143
f 204//204 211//211 195//195
f 211//211 192//192 143//143
f 192//192 23//23 230//230
f 23//23 91//91 230//230
f 23//23 127//127 91//91
f 204//204 232//232 211//211
f 168//168 177//177 192//192
f 143//143 127//127 195//195
f 168//168 195//195 127//127
f 230//230 236//236 192//192
f 232//232 236//236 230//230
f 177//177 204//204 23//23
f 195//195 232//232 204//204
f 204//204 192//192 63//63
f 168//168 127//127 204//204
f 195//195 168//168 204//204
f 23//23 192//192 177//177
f 4//4 204//204 314//314
f 353//353 324//324 356//356
f 391//391 336//336 353//353
f 391//391 358//358 336//336
f 443//443 391//391 353//353
f 336//336 358//358 303//303
f 353//353 336//336 324//324
f 303//303 241//241 336//336
f 287//287 316//316 285//285
f 307//307 299//299 281//281
f 287//287 293//293 316//316
f 281//281 259//259 316//316
f 281//281 251//251 259//259
f 293//293 299//299 316//316
f 307//307 281//281 316//316
f 443//443 353//353 447//447
f 287//287 243//243 261//261
f 148//148 184//184 241//241
f 148//148 130//130 184//184
f 324//324 233//233 247//247
f 233//233 241//241 207//207
f 198//198 233//233 207//207
f 233//233 218//218 247//247
f 216//216 239//239 214//214
f 239//239 216//216 196//196
f 141//141 255//255 247//247
f 247//247 218//218 141//141
f 251//251 226//226 237//237
f 239//239 196//196 243//243
f 202//202 212//212 209//209
f 218//218 220//220 200//200
f 173//173 205//205 182//182
f 198//198 202//202 193//193
f 241//241 184//184 166//166
f 243//243 196//196 166//166
f 162//162 193//193 202//202
f 243//243 166//166 175//175
f 243//243 175//175 130//130
f 137//137 133//133 243//243
f 150//150 156//156 162//162
f 226//226 156//156 160//160
f 243//243 130//130 137//137
f 160//160 171//171 169//169
f 160//160 152//152 169//169
f 184//184 130//130 175//175
f 162//162 190//190 193//193
f 198//198 214//214 233//233
f 237//237 190//190 202//202
f 220//220 218//218 224//224
f 351//351 404//404 356//356
f 356//356 320//320 351//351
f 297//297 289//289 312//312
f 289//289 320//320 312//312
f 334//334 364//364 351//351
f 301//301 322//322 289//289
f 324//324 265//265 297//297
f 265//265 263//263 267//267
f 255//255 289//289 263//263
f 297//297 273//273 291//291
f 297//297 295//295 291//291
f 289//289 255//255 141//141
f 141//141 301//301 289//289
f 247//247 255//255 257//257
f 247//247 257//257 265//265
f 276//276 281//281 261//261
f 243//243 133//133 113//113
f 261//261 113//113 158//158
f 261//261 236//236 270//270
f 276//276 270//270 253//253
f 276//276 253//253 249//249
f 270//270 222//222 253//253
f 245//245 115//115 188//188
f 148//148 158//158 104//104
f 104//104 113//113 106//106
f 133//133 104//104 106//106
f 104//104 133//133 106//106
f 148//148 104//104 106//106
f 178//178 158//158 113//113
f 158//158 178//178 89//89
f 89//89 87//87 158//158
f 113//113 158//158 87//87
f 178//178 113//113 89//89
f 104//104 113//113 87//87
f 178//178 49//49 89//89
f 236//236 178//178 89//89
f 49//49 122//122 61//61
f 89//89 47//47 52//52
f 52//52 45//45 89//89
f 54//54 45//45 52//52
f 89//89 45//45 54//54
f 83//83 94//94 81//81
f 38//38 73//73 68//68
f 81//81 94//94 78//78
f 78//78 68//68 81//81
f 85//85 70//70 75//75
f 68//68 75//75 70//70
f 75//75 68//68 78//78
f 94//94 75//75 78//78
f 85//85 38//38 68//68
f 38//38 36//36 19//19
f 85//85 115//115 38//38
f 38//38 19//19 40//40
f 38//38 115//115 36//36
f 19//19 30//30 21//21
f 47//47 27//27 17//17
f 54//54 89//89 49//49
f 34//34 47//47 17//17
f 49//49 89//89 27//27
f 85//85 68//68 70//70
f 54//54 17//17 27//27
f 251//251 281//281 249//249
f 226//226 251//251 139//139
f 251//251 249//249 139//139
f 249//249 222//222 139//139
f 226//226 150//150 156//156
f 150//150 123//123 141//141
f 144//144 156//156 150//150
f 144//144 150//150 154//154
f 144//144 123//123 150//150
f 120//120 118//118 125//125
f 120//120 139//139 111//111
f 118//118 120//120 111//111
f 139//139 118//118 111//111
f 111//111 123//123 120//120
f 83//83 92//92 96//96
f 100//100 118//118 96//96
f 118//118 100//100 102//102
f 139//139 146//146 85//85
f 128//128 141//141 92//92
f 102//102 94//94 98//98
f 94//94 96//96 83//83
f 94//94 100//100 96//96
f 94//94 102//102 100//100
f 94//94 83//83 98//98
f 158//158 178//178 261//261
f 226//226 139//139 144//144
f 139//139 222//222 146//146
f 178//178 236//236 261//261
f 275//275 204//204 235//235
f 228//228 275//275 235//235
f 80//80 127//127 122//122
f 42//42 122//122 91//91
f 80//80 66//66 65//65
f 80//80 122//122 66//66
f 91//91 143//143 122//122
f 91//91 80//80 42//42
f 66//66 32//32 61//61
f 235//235 60//60 6//6
f 236//236 122//122 91//91
f 235//235 56//56 228//228
f 63//63 235//235 204//204
f 24//24 59//59 91//91
f 66//66 42//42 24//24
f 32//32 29//29 25//25
f 29//29 6//6 60//60
f 24//24 60//60 6//6
f 24//24 29//29 32//32
f 23//23 5//5 63//63
f 14//14 67//67 19//19
f 67//67 14//14 5//5
f 16//16 6//6 14//14
f 49//49 32//32 25//25
f 29//29 66//66 25//25
f 91//91 122//122 24//24
f 80//80 91//91 42//42
f 66//66 58//58 65//65
f 122//122 42//42 24//24
f 235//235 24//24 5//5
f 65//65 63//63 51//51
f 42//42 51//51 63//63
f 235//235 63//63 65//65
f 42//42 63//63 24//24
f 56//56 6//6 16//16
f 5//5 23//23 67//67
f 67//67 128//128 40//40
f 128//128 67//67 283//283
f 301//301 141//141 283//283
f 141//141 128//128 283//283
f 276//276 249//249 281//281
f 228//228 115//115 270//270
f 49//49 25//25 43//43
f 30//30 56//56 21//21
f 178//178 230//230 49//49
f 63//63 127//127 91//91
f 652//652 646//646 681//681
f 364//364 414//414 404//404
f 579//579 507//507 652//652
f 476//476 507//507 471//471
f 414//414 499//499 467//467
f 461//461 418//418 416//416
f 502//502 426//426 563//563
f 426//426 416//416 488//488
f 461//461 486//486 418//418
f 476//476 555//555 507//507
f 646//646 616//616 662//662
f 507//507 555//555 616//616
f 575//575 662//662 616//616
f 533//533 575//575 531//531
f 467//467 499//499 486//486
f 499//499 505//505 486//486
f 510//510 488//488 418//418
f 510//510 526//526 488//488
f 486//486 505//505 510//510
f 646//646 652//652 616//616
f 467//467 486//486 461//461
f 581//581 583//583 540//540
f 583//583 557//557 540//540
f 397//397 480//480 499//499
f 499//499 480//480 505//505
f 480//480 395//395 412//412
f 428//428 540//540 557//557
f 408//408 393//393 478//478
f 478//478 406//406 408//408
f 478//478 412//412 406//406
f 412//412 406//406 408//408
f 412//412 408//408 406//406
f 393//393 428//428 478//478
f 412//412 389//389 406//406
f 395//395 374//374 389//389
f 404//404 414//414 461//461
f 772//772 748//748 790//790
f 748//748 768//768 790//790
f 719//719 717//717 748//748
f 734//734 748//748 772//772
f 719//719 748//748 734//734
f 719//719 681//681 717//717
f 681//681 736//736 717//717
f 736//736 757//757 748//748
f 681//681 715//715 736//736
f 768//768 778//778 799//799
f 757//757 736//736 715//715
f 705//705 711//711 694//694
f 707//707 711//711 705//705
f 760//760 711//711 707//707
f 711//711 656//656 694//694
f 760//760 707//707 778//778
f 573//573 610//610 575//575
f 540//540 428//428 581//581
f 581//581 492//492 514//514
f 581//581 610//610 583//583
f 610//610 581//581 623//623
f 588//588 604//604 598//598
f 598//598 514//514 600//600
f 598//598 600//600 612//612
f 621//621 612//612 600//600
f 596//596 623//623 581//581
f 598//598 612//612 588//588
f 614//614 600//600 606//606
f 596//596 588//588 623//623
f 606//606 519//519 568//568
f 568//568 474//474 571//571
f 519//519 474//474 568//568
f 606//606 568//568 588//588
f 571//571 588//588 568//568
f 428//428 422//422 492//492
f 393//393 386//386 428//428
f 399//399 422//422 386//386
f 492//492 422//422 514//514
f 422//422 432//432 514//514
f 581//581 604//604 596//596
f 612//612 627//627 606//606
f 428//428 492//492 581//581
f 514//514 598//598 604//604
f 588//588 596//596 604//604
f 537//537 456//456 538//538
f 705//705 694//694 707//707
f 707//707 694//694 688//688
f 707//707 701//701 703//703
f 701//701 672//672 677//677
f 692//692 699//699 679//679
f 707//707 703//703 713//713
f 664//664 654//654 650//650
f 654//654 672//672 666//666
f 654//654 639//639 618//618
f 664//664 660//660 669//669
f 654//654 618//618 650//650
f 690//690 672//672 654//654
f 654//654 672//672 690//690
f 690//690 701//701 703//703
f 692//692 679//679 699//699
f 679//679 650//650 692//692
f 713//713 729//729 744//744
f 714//714 729//729 713//713
f 729//729 687//687 722//722
f 729//729 722//722 744//744
f 638//638 687//687 671//671
f 674//674 671//671 714//714
f 687//687 729//729 671//671
f 588//588 585//585 639//639
f 445//445 420//420 474//474
f 451//451 420//420 430//430
f 430//430 434//434 420//420
f 430//430 420//420 434//434
f 401//401 430//430 420//420
f 571//571 474//474 451//451
f 538//538 587//587 594//594
f 594//594 587//587 602//602
f 561//561 590//590 512//512
f 561//561 538//538 594//594
f 587//587 538//538 424//424
f 538//538 512//512 456//456
f 618//618 609//609 650//650
f 639//639 585//585 618//618
f 561//561 512//512 538//538
f 587//587 539//539 570//570
f 587//587 424//424 539//539
f 618//618 570//570 609//609
f 637//637 638//638 626//626
f 635//635 626//626 636//636
f 636//636 637//637 635//635
f 626//626 638//638 609//609
f 637//637 632//632 634//634
f 516//516 634//634 626//626
f 496//496 501//501 516//516
f 587//587 577//577 570//570
f 577//577 585//585 570//570
f 570//570 626//626 609//609
f 539//539 530//530 570//570
f 430//430 401//401 424//424
f 439//439 430//430 424//424
f 424//424 512//512 439//439
f 465//465 459//459 482//482
f 459//459 465//465 482//482
f 459//459 439//439 482//482
f 512//512 490//490 482//482
f 442//442 455//455 530//530
f 438//438 455//455 442//442
f 705//705 666//666 707//707
f 660//660 664//664 669//669
f 399//399 445//445 432//432
f 456//456 424//424 538//538
f 646//646 662//662 697//697
f 575//575 583//583 553//553
f 634//634 722//722 687//687
f 509//509 516//516 473//473
f 438//438 509//509 473//473
f 334//334 338//338 364//364
f 338//338 343//343 364//364
f 332//332 334//334 338//338
f 334//334 332//332 338//338
f 332//332 338//338 334//334
f 343//343 341//341 364//364
f 414//414 364//364 370//370
f 301//301 328//328 341//341
f 370//370 361//361 367//367
f 370//370 347//347 361//361
f 370//370 367//367 397//397
f 328//328 380//380 367//367
f 367//367 480//480 397//397
f 367//367 380//380 384//384
f 395//395 384//384 378//378
f 376//376 384//384 380//380
f 378//378 376//376 374//374
f 382//382 384//384 376//376
f 378//378 382//382 395//395
f 378//378 384//384 382//382
f 380//380 389//389 374//374
f 380//380 374//374 376//376
f 361//361 349//349 367//367
f 283//283 318//318 301//301
f 318//318 328//328 301//301
f 340//340 318//318 283//283
f 327//327 340//340 67//67
f 318//318 386//386 328//328
f 318//318 340//340 386//386
f 509//509 340//340 327//327
f 328//328 386//386 380//380
f 404//404 461//461 453//453
f 545//545 563//563 566//566
f 453//453 461//461 484//484
f 461//461 471//471 484//484
f 447//447 353//353 356//356
f 501//501 473//473 516//516
f 634//634 516//516 565//565
f 441//441 756//756 759//759
f 410//410 497//497 504//504
f 750//750 535//535 629//629
f 764//764 753//753 781//781
f 781//781 753//753 746//746
f 528//528 469//469 494//494
f 436//436 469//469 416//416
f 484//484 463//463 453//453
f 774//774 750//750 779//779
f 709//709 762//762 740//740
f 753//753 762//762 709//709
f 232//232 177//177 195//195
f 232//232 195//195 177//177
f 675//675 648//648 683//683
f 740//740 779//779 731//731
f 731//731 788//788 790//790
f 725//725 746//746 731//731
f 766//766 723//723 727//727
f 236//236 275//275 272//272
f 168//168 195//195 177//177
f 168//168 192//192 195//195
f 236//236 192//192 211//211
f 236//236 232//232 192//192
f 195//195 204//204 177//177
f 204//204 127//127 192//192
f 63//63 192//192 127//127
f 293//293 261//261 299//299
f 316//316 299//299 307//307
f 247//247 265//265 324//324
f 207//207 241//241 173//173
f 182//182 205//205 241//241
f 202//202 209//209 212//212
f 207//207 173//173 180//180
f 196//196 205//205 182//182
f 198//198 205//205 196//196
f 182//182 205//205 198//198
f 241//241 186//186 182//182
f 173//173 241//241 205//205
f 173//173 182//182 198//198
f 207//207 180//180 198//198
f 198//198 180//180 173//173
f 164//164 186//186 241//241
f 169//169 226//226 160//160
f 169//169 202//202 226//226
f 182//182 186//186 196//196
f 186//186 241//241 196//196
f 166//166 164//164 241//241
f 166//166 241//241 186//186
f 166//166 186//186 164//164
f 196//196 241//241 166//166
f 200//200 193//193 190//190
f 166//166 184//184 175//175
f 202//202 190//190 226//226
f 150//150 152//152 160//160
f 150//150 162//162 152//152
f 202//202 169//169 162//162
f 169//169 171//171 160//160
f 216//216 202//202 198//198
f 171//171 169//169 152//152
f 198//198 193//193 214//214
f 212//212 214//214 239//239
f 196//196 216//216 198//198
f 200//200 209//209 193//193
f 212//212 216//216 214//214
f 212//212 202//202 216//216
f 233//233 220//220 224//224
f 233//233 200//200 220//220
f 237//237 224//224 239//239
f 237//237 220//220 224//224
f 220//220 239//239 224//224
f 220//220 212//212 239//239
f 212//212 233//233 214//214
f 212//212 200//200 233//233
f 263//263 265//265 257//257
f 239//239 285//285 237//237
f 289//289 267//267 263//263
f 297//297 265//265 273//273
f 273//273 267//267 289//289
f 130//130 133//133 148//148
f 130//130 106//106 133//133
f 263//263 257//257 255//255
f 297//297 291//291 295//295
f 289//289 297//297 291//291
f 295//295 297//297 289//289
f 237//237 285//285 316//316
f 261//261 243//243 113//113
f 85//85 188//188 115//115
f 137//137 148//148 133//133
f 133//133 106//106 113//113
f 130//130 148//148 137//137
f 106//106 130//130 148//148
f 34//34 52//52 47//47
f 113//113 87//87 89//89
f 104//104 158//158 113//113
f 104//104 87//87 113//113
f 122//122 236//236 89//89
f 52//52 89//89 54//54
f 52//52 47//47 89//89
f 38//38 78//78 73//73
f 45//45 52//52 34//34
f 27//27 45//45 34//34
f 85//85 75//75 94//94
f 83//83 70//70 40//40
f 141//141 156//156 150//150
f 141//141 162//162 156//156
f 70//70 75//75 38//38
f 94//94 139//139 85//85
f 49//49 34//34 17//17
f 56//56 14//14 21//21
f 40//40 85//85 38//38
f 19//19 36//36 30//30
f 89//89 49//49 61//61
f 17//17 54//54 49//49
f 61//61 122//122 89//89
f 27//27 47//47 52//52
f 27//27 89//89 54//54
f 125//125 123//123 135//135
f 141//141 154//154 150//150
f 154//154 150//150 226//226
f 141//141 150//150 154//154
f 120//120 125//125 139//139
f 123//123 125//125 120//120
f 139//139 125//125 135//135
f 144//144 139//139 135//135
f 92//92 100//100 96//96
f 92//92 109//109 100//100
f 144//144 135//135 123//123
f 123//123 111//111 92//92
f 98//98 102//102 109//109
f 118//118 109//109 125//125
f 118//118 98//98 109//109
f 102//102 98//98 118//118
f 120//120 125//125 109//109
f 118//118 83//83 96//96
f 118//118 139//139 83//83
f 92//92 111//111 109//109
f 98//98 100//100 102//102
f 98//98 83//83 100//100
f 51//51 91//91 63//63
f 51//51 42//42 91//91
f 123//123 92//92 141//141
f 83//83 139//139 94//94
f 80//80 91//91 127//127
f 63//63 91//91 80//80
f 127//127 91//91 122//122
f 127//127 143//143 91//91
f 66//66 122//122 32//32
f 32//32 122//122 61//61
f 122//122 59//59 66//66
f 59//59 122//122 66//66
f 143//143 91//91 122//122
f 66//66 24//24 42//42
f 24//24 32//32 59//59
f 24//24 58//58 66//66
f 29//29 32//32 59//59
f 58//58 235//235 65//65
f 58//58 24//24 235//235
f 6//6 60//60 5//5
f 7//7 6//6 5//5
f 24//24 6//6 29//29
f 19//19 30//30 14//14
f 16//16 14//14 7//7
f 7//7 14//14 6//6
f 66//66 61//61 25//25
f 65//65 51//51 80//80
f 65//65 58//58 51//51
f 60//60 235//235 5//5
f 29//29 60//60 66//66
f 60//60 24//24 66//66
f 51//51 58//58 65//65
f 16//16 14//14 56//56
f 24//24 63//63 5//5
f 51//51 63//63 80//80
f 156//156 144//144 160//160
f 61//61 43//43 25//25
f 19//19 21//21 30//30
f 30//30 21//21 14//14
f 531//531 575//575 555//555
f 545//545 566//566 476//476
f 575//575 616//616 555//555
f 533//533 531//531 510//510
f 510//510 531//531 526//526
f 526//526 531//531 555//555
f 551//551 575//575 553//553
f 418//418 486//486 510//510
f 583//583 575//575 557//557
f 478//478 505//505 480//480
f 557//557 505//505 478//478
f 408//408 406//406 393//393
f 412//412 395//395 389//389
f 505//505 557//557 510//510
f 719//719 772//772 727//727
f 551//551 573//573 575//575
f 600//600 614//614 627//627
f 627//627 614//614 606//606
f 573//573 551//551 553//553
f 662//662 623//623 697//697
f 715//715 656//656 711//711
f 656//656 641//641 666//666
f 583//583 573//573 553//553
f 610//610 623//623 575//575
f 621//621 627//627 612//612
f 600//600 627//627 621//621
f 438//438 340//340 509//509
f 438//438 401//401 340//340
f 588//588 641//641 623//623
f 666//666 641//641 588//588
f 514//514 432//432 474//474
f 707//707 694//694 705//705
f 707//707 688//688 694//694
f 688//688 694//694 666//666
f 654//654 666//666 639//639
f 705//705 694//694 688//688
f 705//705 688//688 666//666
f 703//703 701//701 713//713
f 701//701 699//699 713//713
f 703//703 701//701 677//677
f 672//672 701//701 707//707
f 690//690 699//699 701//701
f 690//690 692//692 699//699
f 679//679 669//669 664//664
f 654//654 669//669 679//679
f 664//664 669//669 654//654
f 672//672 654//654 677//677
f 660//660 664//664 654//654
f 664//664 660//660 654//654
f 690//690 654//654 679//679
f 654//654 690//690 677//677
f 679//679 692//692 690//690
f 713//713 650//650 674//674
f 713//713 699//699 692//692
f 690//690 703//703 677//677
f 434//434 451//451 430//430
f 434//434 459//459 451//451
f 729//729 714//714 671//671
f 713//713 674//674 714//714
f 459//459 434//434 439//439
f 594//594 602//602 585//585
f 571//571 451//451 459//459
f 590//590 594//594 585//585
f 632//632 637//637 636//636
f 585//585 602//602 594//594
f 587//587 594//594 602//602
f 585//585 594//594 587//587
f 456//456 537//537 538//538
f 482//482 490//490 512//512
f 587//587 570//570 585//585
f 587//587 570//570 577//577
f 636//636 626//626 632//632
f 626//626 635//635 637//637
f 637//637 634//634 638//638
f 634//634 632//632 626//626
f 496//496 473//473 501//501
f 465//465 482//482 439//439
f 424//424 401//401 438//438
f 473//473 455//455 438//438
f 442//442 539//539 424//424
f 347//347 349//349 361//361
f 609//609 638//638 671//671
f 322//322 332//332 334//334
f 338//338 332//332 343//343
f 374//374 382//382 378//378
f 374//374 376//376 382//382
f 382//382 376//376 395//395
f 378//378 382//382 376//376
f 579//579 471//471 507//507
f 516//516 509//509 565//565
f 544//544 522//522 631//631
f 309//309 132//132 108//108
f 592//592 369//369 366//366
f 807//807 801//801 802//802
f 108//108 2//2 1//1
f 9//9 77//77 72//72
f 311//311 326//326 330//330
f 330//330 372//372 373//373
f 730//730 742//742 743//743
f 631//631 668//668 730//730
f 544//544 521//521 522//522
f 807//807 793//793 794//794
f 309//309 366//366 355//355
f 132//132 309//309 305//305
f 311//311 279//279 280//280
f 721//721 730//730 696//696
f 592//592 752//752 745//745
f 369//369 592//592 578//578
f 801//801 807//807 805//805
f 77//77 9//9 13//13
f 279//279 72//72 77//77
f 633//633 631//631 620//620
f 326//326 311//311 315//315
f 372//372 330//330 331//331
f 742//742 730//730 733//733
f 668//668 631//631 645//645
f 752//752 802//802 795//795
f 521//521 544//544 518//518
f 752//752 755//755 745//745
f 802//802 801//801 800//800
f 807//807 804//804 805//805
f 366//366 360//360 355//355
f 309//309 306//306 305//305
f 108//108 132//132 117//117
f 9//9 10//10 11//11
f 9//9 11//11 12//12
f 1//1 2//2 3//3
f 9//9 12//12 13//13
f 279//279 269//269 278//278
f 793//793 792//792 794//794
f 793//793 787//787 792//792
f 373//373 388//388 403//403
f 631//631 633//633 645//645
f 311//311 310//310 315//315
f 730//730 668//668 696//696
f 592//592 593//593 578//578
f 592//592 608//608 593//593
f 802//802 800//800 795//795
f 366//366 363//363 360//360
f 108//108 117//117 64//64
f 730//730 721//721 733//733
f 522//522 524//524 525//525
f 522//522 523//523 524//524
f 522//522 521//521 523//523
f 373//373 372//372 388//388
f 544//544 517//517 518//518
f 279//279 278//278 280//280
f 330//330 326//326 331//331
f 592//592 625//625 608//608
f 366//366 369//369 363//363
f 9//9 8//8 10//10
