# convertido de flygym/NeuroMechFly (c_haustellum)
v -0.01350 0.00000 -0.00774
v -0.01205 0.00000 -0.00525
v -0.01059 0.00000 -0.00269
v -0.00989 0.00000 -0.00094
v -0.00950 0.00000 -0.00838
v -0.00820 0.00000 -0.01445
v -0.00727 0.00000 -0.01779
v -0.00640 0.00000 0.00733
v -0.00633 0.00000 -0.01907
v -0.00563 0.00000 0.00736
v -0.00540 0.00000 -0.02036
v -0.00515 0.00000 -0.00541
v -0.00500 0.00000 0.00689
v -0.00474 0.00000 0.00732
v -0.00471 0.00000 0.00517
v -0.00447 0.00000 -0.00666
v -0.00414 0.00000 -0.00643
v -0.00403 0.00000 -0.00604
v -0.00364 0.00000 0.00405
v -0.00361 0.00000 -0.00654
v -0.00342 0.00000 0.00413
v -0.00304 0.00000 0.00641
v -0.00292 0.00000 -0.00668
v -0.00285 0.00000 0.00370
v -0.00257 0.00000 0.00612
v -0.00243 0.00000 0.00399
v -0.00230 0.00000 0.00298
v -0.00221 0.00000 0.00669
v -0.00218 0.00000 0.00433
v -0.00215 0.00000 0.00327
v -0.00175 0.00000 -0.02834
v -0.00161 0.00000 -0.00513
v -0.00073 0.00000 -0.03661
v 0.00059 0.00000 -0.00491
v 0.00187 0.00000 -0.00456
v 0.00194 0.00000 0.01031
v 0.00211 0.00000 -0.04344
v 0.00221 0.00000 -0.04040
v 0.00301 0.00000 -0.05380
v 0.00371 0.00000 -0.05419
v 0.00397 0.00000 -0.05219
v 0.00404 0.00000 -0.00717
v 0.00443 0.00000 -0.03633
v 0.00471 0.00000 -0.05371
v 0.00664 0.00000 0.01052
v 0.00672 0.00000 0.01087
v 0.00739 0.00000 -0.04716
v 0.00753 0.00000 -0.05532
v 0.00806 0.00000 -0.11109
v 0.00884 0.00000 -0.10465
v 0.00885 0.00000 0.01402
v 0.01282 0.00000 -0.04041
v 0.01355 0.00000 -0.02348
v 0.01568 0.00000 0.00394
v 0.01978 0.00000 -0.10336
v 0.01980 0.00000 -0.05662
v 0.02020 0.00000 0.00739
v 0.02391 0.00000 -0.06036
v 0.02463 0.00000 0.01132
v 0.02470 0.00000 -0.06137
v 0.02496 0.00000 -0.04298
v 0.02516 0.00000 -0.06182
v 0.02806 0.00000 0.01215
v 0.02856 0.00000 0.01274
v 0.02899 0.00000 0.01882
v 0.02925 0.00000 -0.00178
v 0.02952 0.00000 0.01806
v 0.03225 0.00000 -0.10121
v 0.03519 0.00000 0.01621
v 0.03673 0.00000 -0.08970
v 0.03730 0.00000 -0.07215
v 0.03783 0.00000 -0.07308
v 0.03887 0.00000 -0.03228
v 0.04302 0.00000 0.01014
v 0.04622 0.00000 0.01528
v 0.04793 0.00000 -0.07929
v 0.04986 0.00000 0.02180
v 0.05068 0.00000 -0.07445
v 0.05174 0.00000 -0.08357
v 0.05329 0.00000 -0.07122
v 0.05341 0.00000 -0.08453
v 0.05356 0.00000 -0.08470
v 0.05437 0.00000 -0.08572
v 0.05458 0.00000 0.01597
v 0.05476 0.00000 -0.08267
v 0.05617 0.00000 -0.08694
v 0.05646 0.00000 0.01659
v 0.05709 0.00000 -0.03197
v 0.05727 0.00000 -0.01083
v 0.05884 0.00000 0.00714
v 0.06187 0.00000 -0.08615
v 0.06561 0.00000 -0.02182
v 0.06603 0.00000 -0.05881
v 0.06963 0.00000 -0.09789
v 0.07069 0.00000 -0.08937
v 0.07162 0.00000 -0.09945
v 0.07585 0.00000 -0.00268
v 0.07691 0.00000 -0.10494
v 0.08030 0.00000 0.02188
v 0.08060 0.00000 0.00599
v 0.08092 0.00000 -0.04651
v 0.08142 0.00000 -0.10878
v 0.08437 0.00000 -0.09440
v 0.08552 0.00000 -0.09614
v 0.08604 0.00000 -0.08878
v 0.08637 0.00000 -0.11251
v 0.08756 0.00000 0.01765
v 0.08775 0.00000 -0.16294
v 0.08829 0.00000 -0.10161
v 0.08840 0.00000 -0.16601
v 0.08913 0.00000 0.00108
v 0.08926 0.00000 -0.11519
v 0.08989 0.00000 -0.02214
v 0.08999 0.00000 -0.09693
v 0.09015 0.00000 -0.09086
v 0.09038 0.00000 0.01718
v 0.09058 0.00000 0.01716
v 0.09074 0.00000 -0.09164
v 0.09097 0.00000 -0.08695
v 0.09340 0.00000 0.01736
v 0.09508 0.00000 -0.16728
v 0.09541 0.00000 -0.09613
v 0.09636 0.00000 -0.11998
v 0.09801 0.00000 -0.15273
v 0.09950 -0.10516 -0.06755
v 0.09950 0.10516 -0.06755
v 0.09964 0.00000 -0.14797
v 0.10061 0.00000 -0.16958
v 0.10062 -0.10776 -0.04972
v 0.10062 0.10776 -0.04972
v 0.10247 0.00000 -0.12556
v 0.10289 0.00000 -0.15061
v 0.10321 0.00000 -0.12761
v 0.10376 0.00000 -0.18449
v 0.10420 0.00000 -0.14939
v 0.10441 0.00000 -0.15305
v 0.10482 0.00000 0.01218
v 0.10515 0.00000 -0.18026
v 0.10602 0.00000 -0.16431
v 0.10611 0.00000 -0.12895
v 0.10688 0.00000 -0.13220
v 0.10692 -0.10565 -0.07497
v 0.10692 0.10565 -0.07497
v 0.10698 0.00000 -0.12795
v 0.10774 0.00000 -0.13008
v 0.10800 0.00000 -0.14891
v 0.10864 0.00000 -0.14059
v 0.10942 0.00000 -0.00720
v 0.10966 0.00000 -0.13154
v 0.10985 0.00000 -0.13988
v 0.11128 0.00000 -0.17914
v 0.11130 -0.11244 -0.06211
v 0.11130 0.11244 -0.06211
v 0.11161 0.00000 -0.13407
v 0.11171 0.00000 -0.19857
v 0.11237 0.00000 -0.09846
v 0.11359 -0.10192 -0.17023
v 0.11359 0.10192 -0.17023
v 0.11440 0.00000 -0.19900
v 0.11459 -0.11398 -0.15073
v 0.11459 0.11398 -0.15073
v 0.11502 0.00000 -0.12955
v 0.11527 0.00000 -0.10983
v 0.11549 0.00000 -0.01480
v 0.11553 0.00000 -0.18974
v 0.11575 -0.10325 -0.10588
v 0.11575 0.10325 -0.10588
v 0.11646 -0.11657 -0.09979
v 0.11646 0.11657 -0.09979
v 0.11687 0.00000 -0.00750
v 0.11700 0.00000 0.01584
v 0.11700 0.00000 -0.14041
v 0.11735 0.00000 -0.13853
v 0.11822 0.00000 0.01531
v 0.11961 0.00000 -0.17617
v 0.11967 0.00000 -0.13631
v 0.11970 -0.10110 -0.13160
v 0.11970 0.10110 -0.13160
v 0.12001 0.00000 -0.17775
v 0.12011 0.00000 -0.18066
v 0.12019 0.00000 -0.03004
v 0.12045 0.00000 -0.20569
v 0.12108 -0.10541 -0.18059
v 0.12108 0.10541 -0.18059
v 0.12128 0.00000 -0.17467
v 0.12182 0.00000 -0.17211
v 0.12198 -0.12219 -0.13312
v 0.12198 0.12219 -0.13312
v 0.12218 0.00000 -0.10967
v 0.12234 0.00000 -0.16736
v 0.12241 -0.11932 -0.10530
v 0.12241 0.11932 -0.10530
v 0.12243 0.00000 -0.17506
v 0.12300 0.00000 -0.09449
v 0.12400 0.00000 -0.00936
v 0.12445 0.00000 -0.13919
v 0.12454 -0.11479 -0.09876
v 0.12454 0.11479 -0.09876
v 0.12461 0.00000 -0.18302
v 0.12555 0.00000 -0.00902
v 0.12571 0.00000 -0.18811
v 0.12671 0.00000 0.00759
v 0.12720 0.00000 -0.15778
v 0.12726 0.00000 -0.18472
v 0.12739 -0.10470 -0.09907
v 0.12739 0.10470 -0.09907
v 0.12761 0.00000 -0.19827
v 0.12841 0.00000 -0.20867
v 0.12878 0.00000 -0.13699
v 0.12886 0.00000 -0.13092
v 0.12901 0.00000 -0.11518
v 0.12951 -0.10995 -0.05523
v 0.12951 0.10995 -0.05523
v 0.12955 0.00000 -0.13775
v 0.12974 -0.10515 -0.10793
v 0.12974 0.10515 -0.10793
v 0.12986 0.00000 -0.10005
v 0.12996 0.00000 -0.18876
v 0.13017 -0.12369 -0.16176
v 0.13017 0.12369 -0.16176
v 0.13076 0.00000 0.01081
v 0.13097 0.00000 -0.10080
v 0.13253 0.00000 -0.09899
v 0.13315 0.00000 -0.10280
v 0.13465 0.00000 -0.16398
v 0.13483 0.00000 0.01246
v 0.13494 0.00000 -0.19457
v 0.13524 -0.11034 -0.18456
v 0.13524 0.11034 -0.18456
v 0.13571 -0.10079 -0.11056
v 0.13571 0.10079 -0.11056
v 0.13572 -0.13725 -0.14116
v 0.13572 0.13725 -0.14116
v 0.13579 0.00000 -0.20239
v 0.13591 0.00000 -0.10232
v 0.13607 0.00000 -0.21168
v 0.13656 0.00000 -0.11545
v 0.13660 -0.11834 -0.12184
v 0.13660 0.11834 -0.12184
v 0.13664 0.00000 -0.12935
v 0.13714 0.00000 -0.14661
v 0.13739 0.00000 -0.20176
v 0.13779 -0.10908 -0.04742
v 0.13779 0.10908 -0.04742
v 0.13809 0.00000 -0.13874
v 0.13879 0.00000 -0.14403
v 0.13885 0.00000 -0.14461
v 0.13906 0.00000 -0.09351
v 0.13926 0.00000 -0.16309
v 0.13929 0.00000 -0.16307
v 0.13931 0.00000 -0.16305
v 0.13931 0.00000 -0.16307
v 0.14017 -0.10593 -0.10744
v 0.14017 0.10593 -0.10744
v 0.14100 0.00000 -0.14209
v 0.14186 0.00000 0.01176
v 0.14210 0.00000 -0.01204
v 0.14240 -0.13084 -0.16654
v 0.14240 0.13084 -0.16654
v 0.14291 -0.11287 -0.08276
v 0.14291 0.11287 -0.08276
v 0.14370 0.00000 -0.20527
v 0.14401 0.00000 -0.20582
v 0.14463 -0.12481 -0.11330
v 0.14463 0.12481 -0.11330
v 0.14501 -0.11306 -0.04638
v 0.14501 0.11306 -0.04638
v 0.14555 0.00000 0.01368
v 0.14581 0.00000 0.01257
v 0.14599 0.00000 -0.22076
v 0.14616 0.00000 -0.14554
v 0.14678 -0.14705 -0.12518
v 0.14678 0.14705 -0.12518
v 0.14682 -0.14714 -0.13326
v 0.14682 0.14714 -0.13326
v 0.14691 0.00000 -0.20771
v 0.14696 0.00000 0.01303
v 0.14779 0.00000 -0.14527
v 0.14787 -0.10400 -0.19717
v 0.14787 0.10400 -0.19717
v 0.14838 0.00000 -0.15499
v 0.14876 0.00000 -0.14615
v 0.14897 0.00000 -0.20762
v 0.14900 0.00000 -0.15057
v 0.14953 0.00000 -0.21725
v 0.14998 0.00000 -0.14685
v 0.15019 0.00000 -0.14679
v 0.15021 0.00000 -0.14658
v 0.15041 0.00000 -0.14612
v 0.15062 0.00000 -0.14643
v 0.15077 -0.11250 -0.08070
v 0.15077 0.11250 -0.08070
v 0.15141 -0.11355 -0.05987
v 0.15141 0.11355 -0.05987
v 0.15185 0.00000 -0.15107
v 0.15207 0.00000 -0.14651
v 0.15248 0.00000 -0.20756
v 0.15248 0.00000 -0.14705
v 0.15253 0.00000 -0.14831
v 0.15259 0.00000 -0.14702
v 0.15338 -0.10445 -0.19904
v 0.15338 0.10445 -0.19904
v 0.15380 0.00000 -0.00860
v 0.15382 -0.11386 -0.08926
v 0.15382 0.11386 -0.08926
v 0.15385 0.00000 -0.15035
v 0.15495 0.00000 0.01252
v 0.15501 0.00000 -0.21220
v 0.15554 0.00000 0.00821
v 0.15605 0.00000 0.00764
v 0.15656 -0.11370 -0.19041
v 0.15656 0.11370 -0.19041
v 0.15665 -0.11805 -0.18696
v 0.15665 0.11805 -0.18696
v 0.15696 0.00000 0.00645
v 0.15793 0.00000 0.00998
v 0.15794 0.00000 -0.20572
v 0.15840 0.00000 -0.21215
v 0.15876 0.00000 0.00516
v 0.16102 -0.11141 -0.02850
v 0.16102 0.11141 -0.02850
v 0.16145 0.00000 -0.20451
v 0.16159 0.00000 -0.01578
v 0.16174 0.00000 0.00475
v 0.16186 0.00000 -0.01055
v 0.16234 -0.13760 -0.10894
v 0.16234 0.13760 -0.10894
v 0.16313 -0.10937 -0.06288
v 0.16313 0.10937 -0.06288
v 0.16351 0.00000 0.00685
v 0.16400 0.00000 -0.20296
v 0.16412 -0.13810 -0.10826
v 0.16412 0.13810 -0.10826
v 0.16455 0.00000 -0.21709
v 0.16499 0.00000 -0.21202
v 0.16621 0.00000 0.00001
v 0.16626 -0.13591 -0.17445
v 0.16626 0.13591 -0.17445
v 0.16647 0.00000 -0.21451
v 0.16671 -0.12175 -0.07552
v 0.16671 0.12175 -0.07552
v 0.16768 0.00000 0.00162
v 0.16788 0.00000 -0.01329
v 0.16805 0.00000 -0.20253
v 0.16909 -0.13244 -0.07319
v 0.16909 0.13244 -0.07319
v 0.17048 0.00000 -0.21885
v 0.17119 -0.13281 -0.18003
v 0.17119 0.13281 -0.18003
v 0.17212 0.00000 0.00099
v 0.17275 -0.13164 -0.08316
v 0.17275 0.13164 -0.08316
v 0.17291 0.00000 0.00103
v 0.17291 0.00000 -0.19858
v 0.17328 0.00000 -0.21319
v 0.17440 -0.10481 -0.05107
v 0.17440 0.10481 -0.05107
v 0.17456 0.00000 -0.19825
v 0.17457 0.00000 -0.02291
v 0.17608 0.00000 -0.00020
v 0.17661 0.00000 -0.20111
v 0.17938 0.00000 -0.00361
v 0.17990 -0.13230 -0.07339
v 0.17990 0.13230 -0.07339
v 0.18019 -0.15923 -0.11829
v 0.18019 0.15923 -0.11829
v 0.18056 -0.10711 -0.19964
v 0.18056 0.10711 -0.19964
v 0.18077 -0.10781 -0.04232
v 0.18077 0.10781 -0.04232
v 0.18153 -0.14409 -0.10833
v 0.18153 0.14409 -0.10833
v 0.18200 0.00000 -0.20261
v 0.18210 0.00000 -0.20773
v 0.18289 0.00000 -0.21245
v 0.18339 0.00000 -0.19672
v 0.18374 -0.11034 -0.03107
v 0.18374 0.11034 -0.03107
v 0.18462 -0.15492 -0.14639
v 0.18462 0.15492 -0.14639
v 0.18541 0.00000 -0.20575
v 0.18543 0.00000 -0.01340
v 0.18574 0.00000 -0.20515
v 0.18615 -0.11401 -0.04427
v 0.18615 0.11401 -0.04427
v 0.18692 0.00000 -0.20248
v 0.18732 0.00000 -0.20241
v 0.18753 0.00000 -0.19781
v 0.18772 0.00000 -0.20032
v 0.18776 0.00000 -0.20222
v 0.18786 0.00000 -0.20899
v 0.18870 0.00000 -0.03706
v 0.18939 0.00000 -0.19437
v 0.19113 0.00000 -0.19395
v 0.19262 -0.15200 -0.09820
v 0.19262 0.15200 -0.09820
v 0.19284 -0.13230 -0.18147
v 0.19284 0.13230 -0.18147
v 0.19338 0.00000 -0.02254
v 0.19393 0.00000 -0.19618
v 0.19612 0.00000 -0.20292
v 0.19617 -0.14456 -0.16608
v 0.19617 0.14456 -0.16608
v 0.19636 0.00000 -0.01748
v 0.19657 0.00000 -0.20457
v 0.19761 0.00000 -0.19431
v 0.19807 0.00000 -0.03387
v 0.19852 -0.15589 -0.10685
v 0.19852 0.15589 -0.10685
v 0.19853 -0.16355 -0.11088
v 0.19853 0.16355 -0.11088
v 0.19853 0.00000 -0.20473
v 0.19962 0.00000 -0.01988
v 0.19995 0.00000 0.00073
v 0.20069 0.00000 -0.20370
v 0.20083 -0.14016 -0.06400
v 0.20083 0.14016 -0.06400
v 0.20113 0.00000 -0.02201
v 0.20184 -0.11750 -0.18943
v 0.20184 0.11750 -0.18943
v 0.20391 0.00000 -0.20049
v 0.20397 0.00000 -0.03932
v 0.20463 0.00000 -0.18630
v 0.20471 0.00000 -0.02473
v 0.20475 0.00000 -0.19057
v 0.20480 0.00000 -0.00261
v 0.20483 0.00000 -0.18887
v 0.20544 0.00000 -0.20096
v 0.20591 -0.15022 -0.09518
v 0.20591 0.15022 -0.09518
v 0.20602 0.00000 -0.02868
v 0.20631 -0.16761 -0.12048
v 0.20631 0.16761 -0.12048
v 0.20751 -0.10960 -0.04320
v 0.20751 0.10960 -0.04320
v 0.20764 -0.15795 -0.14563
v 0.20764 0.15795 -0.14563
v 0.20777 0.00000 -0.18709
v 0.20809 0.00000 -0.01606
v 0.20908 0.00000 -0.02865
v 0.20909 0.00000 -0.18570
v 0.20931 0.00000 -0.18263
v 0.20941 -0.14194 -0.17334
v 0.20941 0.14194 -0.17334
v 0.21193 -0.10477 -0.19556
v 0.21193 0.10477 -0.19556
v 0.21225 -0.14663 -0.07338
v 0.21225 0.14663 -0.07338
v 0.21245 0.00000 -0.18197
v 0.21324 0.00000 -0.18246
v 0.21371 -0.12278 -0.05100
v 0.21371 0.12278 -0.05100
v 0.21411 0.00000 -0.19948
v 0.21448 -0.16428 -0.10346
v 0.21448 0.16428 -0.10346
v 0.21476 0.00000 -0.18215
v 0.21503 0.00000 -0.03455
v 0.21526 0.00000 -0.19637
v 0.21561 0.00000 -0.17831
v 0.21646 0.00000 -0.18040
v 0.21746 -0.12328 -0.05034
v 0.21746 0.12328 -0.05034
v 0.21800 0.00000 -0.19693
v 0.21824 0.00000 -0.03744
v 0.21877 0.00000 -0.03902
v 0.21920 0.00000 -0.04177
v 0.22002 -0.12360 -0.05232
v 0.22002 0.12360 -0.05232
v 0.22025 -0.12564 -0.18023
v 0.22025 0.12564 -0.18023
v 0.22046 -0.12551 -0.18192
v 0.22046 0.12551 -0.18192
v 0.22049 0.00000 -0.01176
v 0.22069 -0.11449 -0.18879
v 0.22069 0.11449 -0.18879
v 0.22110 -0.12164 -0.04709
v 0.22110 0.12164 -0.04709
v 0.22117 -0.13014 -0.17725
v 0.22117 0.13014 -0.17725
v 0.22119 0.00000 -0.01819
v 0.22131 -0.17359 -0.11229
v 0.22131 0.17359 -0.11229
v 0.22132 0.00000 -0.02715
v 0.22236 -0.12382 -0.05276
v 0.22236 0.12382 -0.05276
v 0.22239 -0.11356 -0.04587
v 0.22239 0.11356 -0.04587
v 0.22338 0.00000 -0.03889
v 0.22375 0.00000 -0.17112
v 0.22380 0.00000 -0.19594
v 0.22390 0.00000 -0.17102
v 0.22471 0.00000 -0.04529
v 0.22548 0.00000 -0.04331
v 0.22598 0.00000 -0.18839
v 0.22637 0.00000 -0.04480
v 0.22754 0.00000 -0.16758
v 0.22788 -0.14247 -0.06883
v 0.22788 0.14247 -0.06883
v 0.23100 0.00000 -0.19422
v 0.23131 -0.16576 -0.13642
v 0.23131 0.16576 -0.13642
v 0.23183 0.00000 -0.17869
v 0.23249 0.00000 -0.04802
v 0.23356 0.00000 -0.16414
v 0.23443 -0.17481 -0.11917
v 0.23443 0.17481 -0.11917
v 0.23458 0.00000 -0.16790
v 0.23507 0.00000 -0.16500
v 0.23632 -0.17318 -0.10529
v 0.23632 0.17318 -0.10529
v 0.23828 0.00000 -0.01783
v 0.23829 -0.16046 -0.14602
v 0.23829 0.16046 -0.14602
v 0.23874 0.00000 -0.16663
v 0.23928 0.00000 -0.02195
v 0.23943 -0.15448 -0.07043
v 0.23943 0.15448 -0.07043
v 0.23976 0.00000 -0.05297
v 0.24028 0.00000 -0.18914
v 0.24033 0.00000 -0.16590
v 0.24040 -0.14734 -0.07738
v 0.24040 0.14734 -0.07738
v 0.24079 -0.14799 -0.15835
v 0.24079 0.14799 -0.15835
v 0.24249 -0.12366 -0.17955
v 0.24249 0.12366 -0.17955
v 0.24266 -0.14640 -0.06819
v 0.24266 0.14640 -0.06819
v 0.24294 0.00000 -0.05396
v 0.24304 -0.15667 -0.06675
v 0.24304 0.15667 -0.06675
v 0.24332 -0.17176 -0.12176
v 0.24332 0.17176 -0.12176
v 0.24354 0.00000 -0.02577
v 0.24408 0.00000 -0.18249
v 0.24519 -0.15256 -0.08536
v 0.24519 0.15256 -0.08536
v 0.24530 -0.10489 -0.18476
v 0.24530 0.10489 -0.18476
v 0.24541 0.00000 -0.04676
v 0.24656 0.00000 -0.04286
v 0.24667 0.00000 -0.16186
v 0.24684 0.00000 -0.02709
v 0.24703 -0.12605 -0.17284
v 0.24703 0.12605 -0.17284
v 0.24754 0.00000 -0.16332
v 0.24767 0.00000 -0.05564
v 0.24817 0.00000 -0.18874
v 0.24909 0.00000 -0.16104
v 0.24955 0.00000 -0.04262
v 0.24957 0.00000 -0.04529
v 0.25050 0.00000 -0.05878
v 0.25145 0.00000 -0.16566
v 0.25180 -0.14214 -0.07450
v 0.25180 0.14214 -0.07450
v 0.25347 0.00000 -0.16453
v 0.25406 0.00000 -0.18391
v 0.25616 -0.13750 -0.16234
v 0.25616 0.13750 -0.16234
v 0.25640 0.00000 -0.16319
v 0.25665 0.00000 -0.17948
v 0.25687 0.00000 -0.18653
v 0.25691 0.00000 -0.16562
v 0.25752 0.00000 -0.16371
v 0.25829 0.00000 -0.17338
v 0.25832 0.00000 -0.06290
v 0.25918 -0.12498 -0.06352
v 0.25918 0.12498 -0.06352
v 0.25940 -0.17123 -0.10373
v 0.25940 0.17123 -0.10373
v 0.25956 0.00000 -0.06378
v 0.25958 0.00000 -0.05410
v 0.25968 0.00000 -0.06320
v 0.26083 -0.15724 -0.08631
v 0.26083 0.15724 -0.08631
v 0.26144 -0.11199 -0.17541
v 0.26144 0.11199 -0.17541
v 0.26183 -0.11729 -0.06066
v 0.26183 0.11729 -0.06066
v 0.26237 0.00000 -0.16558
v 0.26335 0.00000 -0.16565
v 0.26346 0.00000 -0.04933
v 0.26382 0.00000 -0.16546
v 0.26495 0.00000 -0.18042
v 0.26634 0.00000 -0.16351
v 0.26711 0.00000 -0.18332
v 0.26781 0.00000 -0.17320
v 0.26880 0.00000 -0.16151
v 0.26995 -0.15629 -0.13530
v 0.26995 0.15629 -0.13530
v 0.27033 0.00000 -0.04988
v 0.27086 -0.14156 -0.15208
v 0.27086 0.14156 -0.15208
v 0.27108 0.00000 -0.18002
v 0.27119 0.00000 -0.04348
v 0.27132 -0.11928 -0.16974
v 0.27132 0.11928 -0.16974
v 0.27337 0.00000 -0.04651
v 0.27385 0.00000 -0.15710
v 0.27431 -0.12934 -0.07132
v 0.27431 0.12934 -0.07132
v 0.27481 0.00000 -0.16021
v 0.27537 0.00000 -0.17829
v 0.27539 0.00000 -0.15912
v 0.27668 0.00000 -0.16025
v 0.27793 0.00000 -0.07605
v 0.27843 0.00000 -0.04922
v 0.27897 0.00000 -0.05391
v 0.27910 0.00000 -0.07668
v 0.27943 -0.16831 -0.11310
v 0.27943 0.16831 -0.11310
v 0.27988 0.00000 -0.07430
v 0.27999 -0.12671 -0.16142
v 0.27999 0.12671 -0.16142
v 0.28016 0.00000 -0.17785
v 0.28050 0.00000 -0.15771
v 0.28082 0.00000 -0.15923
v 0.28130 0.00000 -0.15992
v 0.28201 0.00000 -0.17364
v 0.28204 -0.16486 -0.09722
v 0.28204 0.16486 -0.09722
v 0.28237 0.00000 -0.17430
v 0.28303 0.00000 -0.09861
v 0.28411 0.00000 -0.09878
v 0.28565 -0.16221 -0.09842
v 0.28565 0.16221 -0.09842
v 0.28570 0.00000 -0.06165
v 0.28663 0.00000 -0.07377
v 0.28709 0.00000 -0.08074
v 0.28715 0.00000 -0.15971
v 0.28719 0.00000 -0.08149
v 0.28739 0.00000 -0.08085
v 0.28828 -0.12277 -0.15871
v 0.28828 0.12277 -0.15871
v 0.28861 0.00000 -0.15469
v 0.28893 0.00000 -0.15365
v 0.28900 0.00000 -0.16844
v 0.29224 0.00000 -0.08227
v 0.29228 -0.14195 -0.14425
v 0.29228 0.14195 -0.14425
v 0.29335 0.00000 -0.14573
v 0.29346 0.00000 -0.15522
v 0.29406 -0.11462 -0.07536
v 0.29406 0.11462 -0.07536
v 0.29411 0.00000 -0.14573
v 0.29437 0.00000 -0.07994
v 0.29441 0.00000 -0.14860
v 0.29480 0.00000 -0.15302
v 0.29532 -0.10309 -0.16803
v 0.29532 0.10309 -0.16803
v 0.29560 0.00000 -0.05530
v 0.29586 0.00000 -0.15314
v 0.29630 0.00000 -0.07359
v 0.29669 0.00000 -0.17321
v 0.29678 -0.15589 -0.09359
v 0.29678 0.15589 -0.09359
v 0.29692 0.00000 -0.15327
v 0.29725 0.00000 -0.07434
v 0.29837 0.00000 -0.08843
v 0.29855 0.00000 -0.08255
v 0.29870 0.00000 -0.17498
v 0.29890 0.00000 -0.06309
v 0.29929 0.00000 -0.07899
v 0.29989 0.00000 -0.08739
v 0.30034 0.00000 -0.10201
v 0.30234 0.00000 -0.14742
v 0.30267 0.00000 -0.17203
v 0.30296 -0.11092 -0.15320
v 0.30296 0.11092 -0.15320
v 0.30301 0.00000 -0.14278
v 0.30398 -0.14387 -0.09239
v 0.30398 0.14387 -0.09239
v 0.30444 0.00000 -0.07952
v 0.30481 0.00000 -0.15155
v 0.30531 0.00000 -0.07645
v 0.30714 0.00000 -0.13421
v 0.30737 0.00000 -0.16910
v 0.30753 0.00000 -0.08470
v 0.30755 0.00000 -0.08455
v 0.30768 0.00000 -0.15107
v 0.30769 0.00000 -0.14359
v 0.30784 0.00000 -0.16790
v 0.31036 -0.13811 -0.10180
v 0.31036 0.13811 -0.10180
v 0.31056 0.00000 -0.08670
v 0.31094 -0.12610 -0.08826
v 0.31094 0.12610 -0.08826
v 0.31131 0.00000 -0.10578
v 0.31167 0.00000 -0.14386
v 0.31183 0.00000 -0.14645
v 0.31191 0.00000 -0.08954
v 0.31194 0.00000 -0.09144
v 0.31198 0.00000 -0.09333
v 0.31283 0.00000 -0.08073
v 0.31322 0.00000 -0.15032
v 0.31332 0.00000 -0.11044
v 0.31402 0.00000 -0.12793
v 0.31465 -0.13081 -0.11854
v 0.31465 0.13081 -0.11854
v 0.31467 0.00000 -0.13983
v 0.31512 -0.10665 -0.08584
v 0.31512 0.10665 -0.08584
v 0.31575 0.00000 -0.09423
v 0.31581 0.00000 -0.12704
v 0.31593 0.00000 -0.12674
v 0.31611 -0.12787 -0.09653
v 0.31611 0.12787 -0.09653
v 0.31642 0.00000 -0.13600
v 0.31647 0.00000 -0.07554
v 0.31764 -0.10237 -0.15097
v 0.31764 0.10237 -0.15097
v 0.31860 0.00000 -0.11394
v 0.31882 0.00000 -0.12439
v 0.31888 0.00000 -0.08473
v 0.31901 -0.11583 -0.13105
v 0.31901 0.11583 -0.13105
v 0.31925 0.00000 -0.12450
v 0.31931 0.00000 -0.08565
v 0.31950 0.00000 -0.09866
v 0.31999 0.00000 -0.13308
v 0.32008 0.00000 -0.11793
v 0.32014 0.00000 -0.09553
v 0.32019 0.00000 -0.09674
v 0.32057 0.00000 -0.11151
v 0.32085 0.00000 -0.15486
v 0.32140 0.00000 -0.08632
v 0.32199 0.00000 -0.11969
v 0.32400 0.00000 -0.15238
v 0.32531 0.00000 -0.08402
v 0.32532 0.00000 -0.13410
v 0.32694 0.00000 -0.13093
v 0.32704 0.00000 -0.11386
v 0.32710 0.00000 -0.13281
v 0.32726 0.00000 -0.08938
v 0.33028 0.00000 -0.15422
v 0.33263 0.00000 -0.09810
v 0.33308 0.00000 -0.15168
v 0.33357 0.00000 -0.13858
v 0.33396 0.00000 -0.09251
v 0.33453 0.00000 -0.09500
v 0.33529 0.00000 -0.13790
v 0.33606 0.00000 -0.13440
v 0.33822 0.00000 -0.14345
v 0.33983 0.00000 -0.10425
v 0.34097 0.00000 -0.13288
v 0.34127 0.00000 -0.12518
vn 0.0000 0.0000 0.0000
vn 0.0000 -0.0000 0.0000
vn 0.0000 -0.0000 0.0000
vn 0.0000 0.0000 0.0000
vn 0.0000 0.0000 0.0000
vn 0.0000 0.0000 0.0000
vn 0.0000 0.0000 0.0000
vn 0.0000 0.0000 0.0000
vn 0.0000 0.0000 0.0000
vn 0.0000 0.0000 0.0000
vn 0.0000 0.0000 0.0000
vn 0.0000 0.0000 0.0000
vn 0.0000 -0.0000 0.0000
vn 0.0000 0.0000 0.0000
vn 0.0000 0.0000 0.0000
vn 0.0000 -0.0000 0.0000
vn 0.0000 0.0000 0.0000
vn 0.0000 0.0000 0.0000
vn 0.0000 -0.0000 0.0000
vn 0.0000 0.0000 0.0000
vn 0.0000 0.0000 0.0000
vn 0.0000 0.0000 0.0000
vn 0.0000 0.0000 0.0000
vn 0.0000 -0.0000 0.0000
vn 0.0000 0.0000 0.0000
vn 0.0000 0.0000 0.0000
vn 0.0000 -0.0000 0.0000
vn 0.0000 0.0000 0.0000
vn 0.0000 0.0000 0.0000
vn 0.0000 -0.0000 0.0000
vn 0.0000 0.0000 0.0000
vn 0.0000 0.0000 0.0000
vn 0.0000 0.0000 0.0000
vn 0.0000 0.0000 0.0000
vn 0.0000 0.0000 0.0000
vn 0.0000 0.0000 0.0000
vn 0.0000 0.0000 0.0000
vn 0.0000 0.0000 0.0000
vn 0.0000 0.0000 0.0000
vn 0.0000 0.0000 0.0000
vn 0.0000 0.0000 0.0000
vn 0.0000 0.0000 0.0000
vn 0.0000 -0.0000 0.0000
vn 0.0000 0.0000 0.0000
vn 0.0000 0.0000 0.0000
vn 0.0000 -0.0000 0.0000
vn 0.0000 0.0000 0.0000
vn 0.0000 0.0000 0.0000
vn 0.0000 0.0000 0.0000
vn 0.0000 0.0000 0.0000
vn 0.0000 0.0000 0.0000
vn 0.0000 0.0000 0.0000
vn 0.0000 -0.0000 0.0000
vn 0.0000 0.0000 0.0000
vn 0.0000 -0.0000 0.0000
vn 0.0000 0.0000 0.0000
vn 0.0000 0.0000 0.0000
vn 0.0000 0.0000 0.0000
vn 0.0000 -0.0000 0.0000
vn 0.0000 0.0000 0.0000
vn 0.0000 0.0000 0.0000
vn 0.0000 0.0000 0.0000
vn 0.0000 0.0000 0.0000
vn 0.0000 0.0000 0.0000
vn 0.0000 0.0000 0.0000
vn 0.0000 0.0000 0.0000
vn 0.0000 0.0000 0.0000
vn 0.0000 -0.0000 0.0000
vn 0.0000 0.0000 0.0000
vn 0.0000 0.0000 0.0000
vn 0.0000 0.0000 0.0000
vn 0.0000 0.0000 0.0000
vn 0.0000 -0.0000 0.0000
vn 0.0000 -0.0000 0.0000
vn 0.0000 0.0000 0.0000
vn 0.0000 0.0000 0.0000
vn 0.0000 0.0000 0.0000
vn 0.0000 0.0000 0.0000
vn 0.0000 0.0000 0.0000
vn 0.0000 0.0000 0.0000
vn 0.0000 0.0000 0.0000
vn 0.0000 0.0000 0.0000
vn 0.0000 -0.0000 0.0000
vn 0.0000 0.0000 0.0000
vn 0.0000 -0.0000 0.0000
vn 0.0000 0.0000 0.0000
vn 0.0000 0.0000 0.0000
vn 0.0000 0.0000 0.0000
vn 0.0000 -0.0000 0.0000
vn 0.0000 -0.0000 0.0000
vn 0.0000 -0.0000 0.0000
vn 0.0000 -0.0000 0.0000
vn -0.9700 -0.0000 -0.2432
vn 0.0000 0.0000 0.0000
vn 0.0000 -0.0000 0.0000
vn 0.0000 0.0000 0.0000
vn 0.0000 0.0000 0.0000
vn 0.0000 0.0000 0.0000
vn 0.0000 0.0000 0.0000
vn 0.0000 0.0000 0.0000
vn -0.6584 0.0000 0.7526
vn 0.0000 0.0000 0.0000
vn 0.0000 0.0000 0.0000
vn 0.0000 0.0000 0.0000
vn -0.7483 0.0000 -0.6633
vn 0.0000 0.0000 0.0000
vn 0.0000 0.0000 0.0000
vn 0.0000 0.0000 0.0000
vn 0.0000 0.0000 0.0000
vn 0.0000 0.0000 0.0000
vn 0.0000 0.0000 0.0000
vn 0.0000 0.0000 0.0000
vn 0.0000 -0.0000 0.0000
vn 0.0000 0.0000 0.0000
vn 0.0000 0.0000 0.0000
vn 0.0000 0.0000 0.0000
vn 0.0000 0.0000 0.0000
vn 0.0000 0.0000 0.0000
vn -0.6170 0.0000 -0.7870
vn 0.0000 0.0000 0.0000
vn 0.0000 0.0000 0.0000
vn -0.4739 0.0000 -0.8806
vn 0.0000 0.0000 0.0000
vn 0.0000 0.0000 0.0000
vn -0.7897 -0.3331 0.5151
vn -0.7897 0.3331 0.5151
vn 0.0000 0.0000 0.0000
vn -0.9935 -0.0000 -0.1137
vn -0.3578 -0.2298 0.9051
vn -0.3578 0.2298 0.9051
vn 0.0000 0.0000 0.0000
vn 0.0000 0.0000 0.0000
vn 0.0000 -0.0000 0.0000
vn 0.0000 0.0000 0.0000
vn 0.0000 0.0000 0.0000
vn 0.0000 0.0000 0.0000
vn 0.0000 -0.0000 0.0000
vn 0.0000 0.0000 0.0000
vn 0.0000 0.0000 0.0000
vn 0.0000 0.0000 0.0000
vn 0.0000 0.0000 0.0000
vn -0.4454 -0.2418 -0.8621
vn -0.4454 0.2418 -0.8621
vn 0.0000 0.0000 0.0000
vn 0.0000 0.0000 0.0000
vn -0.8682 0.0000 0.4962
vn 0.0000 0.0000 0.0000
vn 0.0000 -0.0000 0.0000
vn 0.0000 0.0000 0.0000
vn 0.0000 0.0000 0.0000
vn 0.0000 -0.0000 0.0000
vn -0.7274 -0.6862 -0.0052
vn -0.7274 0.6862 -0.0052
vn 0.0000 0.0000 0.0000
vn 0.0000 -0.0000 0.0000
vn -0.7941 0.0000 -0.6078
vn -0.8536 -0.1288 -0.5047
vn -0.8536 0.1288 -0.5047
vn 0.0000 0.0000 0.0000
vn -0.9608 -0.2505 0.1185
vn -0.9608 0.2505 0.1185
vn 0.0000 0.0000 0.0000
vn 0.0000 0.0000 0.0000
vn 0.0000 0.0000 0.0000
vn -0.7283 -0.0000 -0.6852
vn -0.9675 -0.0367 -0.2501
vn -0.9675 0.0367 -0.2501
vn -0.6853 -0.0750 0.7244
vn -0.6853 0.0750 0.7244
vn 0.0000 0.0000 0.0000
vn 0.0000 0.0000 0.0000
vn 0.0000 0.0000 0.0000
vn 0.0000 -0.0000 0.0000
vn 0.0000 0.0000 0.0000
vn 0.0000 -0.0000 0.0000
vn 0.0000 0.0000 0.0000
vn -0.7728 -0.0098 0.6346
vn -0.7728 0.0098 0.6346
vn 0.0000 0.0000 0.0000
vn 0.0000 0.0000 0.0000
vn -0.4128 0.0000 0.9108
vn 0.0000 -0.0000 0.0000
vn -0.5998 -0.2487 -0.7605
vn -0.5998 0.2487 -0.7605
vn 0.0000 0.0000 0.0000
vn 0.0000 0.0000 0.0000
vn -0.7992 -0.5343 0.2752
vn -0.7992 0.5343 0.2752
vn -0.2164 0.0000 -0.9763
vn 0.0000 0.0000 0.0000
vn -0.0832 -0.1350 -0.9873
vn -0.0832 0.1350 -0.9873
vn 0.0000 0.0000 0.0000
vn 0.3469 0.0000 -0.9379
vn 0.0000 0.0000 0.0000
vn 0.0000 0.0000 0.0000
vn 0.4688 -0.4769 0.7435
vn 0.4688 0.4769 0.7435
vn 0.0000 0.0000 0.0000
vn 0.0000 -0.0000 0.0000
vn 0.0000 0.0000 0.0000
vn 0.0000 -0.0000 0.0000
vn 0.0000 0.0000 0.0000
vn 0.0000 0.0000 0.0000
vn -0.0481 -0.0804 0.9956
vn -0.0481 0.0804 0.9956
vn -0.5450 -0.0000 -0.8384
vn 0.0000 0.0000 0.0000
vn 0.0000 0.0000 0.0000
vn -0.7606 -0.0000 0.6493
vn 0.0000 0.0000 0.0000
vn -0.0770 -0.4912 0.8676
vn -0.0770 0.4912 0.8676
vn 0.0000 0.0000 0.0000
vn -0.2296 -0.1093 -0.9671
vn -0.2296 0.1093 -0.9671
vn 0.4269 0.0000 0.9043
vn 0.0000 0.0000 0.0000
vn -0.5274 -0.6573 -0.5384
vn -0.5274 0.6573 -0.5384
vn 0.0000 -0.0000 0.0000
vn 0.0000 0.0000 0.0000
vn -0.3069 0.0000 -0.9517
vn 0.4717 0.0000 -0.8818
vn 0.0000 0.0000 0.0000
vn 0.0000 0.0000 0.0000
vn 0.0000 0.0000 0.0000
vn -0.5192 -0.3743 -0.7683
vn -0.5192 0.3743 -0.7683
vn -0.4063 -0.0309 -0.9132
vn -0.4063 0.0309 -0.9132
vn -0.6951 -0.6913 -0.1972
vn -0.6951 0.6913 -0.1972
vn 0.0000 0.0000 0.0000
vn -0.9656 -0.0000 -0.2600
vn 0.0000 0.0000 0.0000
vn -0.8972 -0.0000 0.4416
vn -0.6615 -0.1248 0.7395
vn -0.6615 0.1248 0.7395
vn 0.0000 0.0000 0.0000
vn 0.0000 0.0000 0.0000
vn 0.0000 0.0000 0.0000
vn -0.5168 -0.2325 0.8239
vn -0.5168 0.2325 0.8239
vn 0.0000 0.0000 0.0000
vn 0.0000 -0.0000 0.0000
vn 0.0000 0.0000 0.0000
vn -0.7778 -0.0000 0.6285
vn 0.0000 0.0000 0.0000
vn 0.0000 0.0000 0.0000
vn 0.0000 0.0000 0.0000
vn 0.0000 0.0000 0.0000
vn -0.4813 -0.1868 0.8564
vn -0.4813 0.1868 0.8564
vn 0.0000 0.0000 0.0000
vn 0.0000 0.0000 0.0000
vn 0.0000 0.0000 0.0000
vn -0.5104 -0.7594 -0.4035
vn -0.5104 0.7594 -0.4035
vn -0.1929 -0.4170 -0.8882
vn -0.1929 0.4170 -0.8882
vn 0.0000 0.0000 0.0000
vn 0.0000 0.0000 0.0000
vn -0.7515 -0.2210 0.6216
vn -0.7515 0.2210 0.6216
vn -0.5100 -0.6066 0.6098
vn -0.5100 0.6066 0.6098
vn 0.0000 0.0000 0.0000
vn 0.0000 -0.0000 0.0000
vn 0.0000 0.0000 0.0000
vn 0.0000 0.0000 0.0000
vn -0.5666 -0.6252 0.5367
vn -0.5666 0.6252 0.5367
vn -0.3321 -0.8950 -0.2977
vn -0.3321 0.8950 -0.2977
vn 0.0000 0.0000 0.0000
vn 0.0000 0.0000 0.0000
vn 0.0000 0.0000 0.0000
vn -0.5708 -0.2004 -0.7963
vn -0.5708 0.2004 -0.7963
vn 0.0000 0.0000 0.0000
vn 0.0000 0.0000 0.0000
vn 0.0000 0.0000 0.0000
vn 0.0000 -0.0000 0.0000
vn 0.0000 0.0000 0.0000
vn 0.0000 0.0000 0.0000
vn 0.0000 0.0000 0.0000
vn 0.0000 0.0000 0.0000
vn 0.0000 0.0000 0.0000
vn 0.0000 0.0000 0.0000
vn 0.0841 -0.9963 0.0160
vn 0.0841 0.9963 0.0160
vn 0.2172 -0.9759 0.0205
vn 0.2172 0.9759 0.0205
vn 0.0000 0.0000 0.0000
vn 0.0000 0.0000 0.0000
vn 0.0000 0.0000 0.0000
vn 0.0000 0.0000 0.0000
vn 0.0000 0.0000 0.0000
vn 0.0000 0.0000 0.0000
vn -0.1110 -0.1289 -0.9854
vn -0.1110 0.1289 -0.9854
vn -0.4238 -0.0000 0.9058
vn -0.8866 -0.3858 0.2554
vn -0.8866 0.3858 0.2554
vn 0.0000 0.0000 0.0000
vn 0.0000 0.0000 0.0000
vn -0.1710 0.0000 -0.9853
vn 0.0000 0.0000 0.0000
vn 0.0000 0.0000 0.0000
vn -0.1945 -0.6805 -0.7065
vn -0.1945 0.6805 -0.7065
vn -0.2695 -0.6375 -0.7217
vn -0.2695 0.6375 -0.7217
vn 0.0000 0.0000 0.0000
vn 0.0000 0.0000 0.0000
vn 0.0000 0.0000 0.0000
vn 0.0000 -0.0000 0.0000
vn 0.0000 0.0000 0.0000
vn -0.3181 -0.3253 0.8905
vn -0.3181 0.3253 0.8905
vn 0.0000 0.0000 0.0000
vn 0.0000 0.0000 0.0000
vn 0.0000 0.0000 0.0000
vn 0.3158 0.0000 0.9488
vn -0.5427 -0.5952 0.5926
vn -0.5427 0.5952 0.5926
vn -0.0840 -0.9759 0.2012
vn -0.0840 0.9759 0.2012
vn 0.0000 0.0000 0.0000
vn 0.0000 0.0000 0.0000
vn -0.2821 -0.7826 0.5549
vn -0.2821 0.7826 0.5549
vn 0.0000 0.0000 0.0000
vn 0.0000 0.0000 0.0000
vn 0.0000 -0.0000 0.0000
vn -0.2713 -0.8383 -0.4729
vn -0.2713 0.8383 -0.4729
vn 0.0000 0.0000 0.0000
vn -0.8311 -0.5253 0.1825
vn -0.8311 0.5253 0.1825
vn 0.0000 0.0000 0.0000
vn -0.1381 0.0000 0.9904
vn 0.0000 0.0000 0.0000
vn -0.6025 -0.6638 0.4430
vn -0.6025 0.6638 0.4430
vn 0.0000 0.0000 0.0000
vn -0.0930 -0.6978 -0.7102
vn -0.0930 0.6978 -0.7102
vn 0.0000 0.0000 0.0000
vn -0.5660 -0.7660 0.3048
vn -0.5660 0.7660 0.3048
vn 0.0000 -0.0000 0.0000
vn 0.0000 0.0000 0.0000
vn 0.0000 -0.0000 0.0000
vn -0.5542 -0.6461 0.5247
vn -0.5542 0.6461 0.5247
vn 0.0000 0.0000 0.0000
vn 0.0000 0.0000 0.0000
vn 0.0000 0.0000 0.0000
vn 0.0000 0.0000 0.0000
vn 0.0000 0.0000 0.0000
vn -0.4638 -0.7542 0.4648
vn -0.4638 0.7542 0.4648
vn -0.3586 -0.8955 0.2637
vn -0.3586 0.8955 0.2637
vn 0.1243 -0.1974 -0.9724
vn 0.1243 0.1974 -0.9724
vn 0.8100 -0.4709 0.3495
vn 0.8100 0.4709 0.3495
vn -0.4734 -0.7668 0.4334
vn -0.4734 0.7668 0.4334
vn 0.0000 0.0000 0.0000
vn 0.2078 0.0000 -0.9782
vn 0.0000 0.0000 0.0000
vn 0.0000 0.0000 0.0000
vn 0.6131 -0.4733 0.6326
vn 0.6131 0.4733 0.6326
vn -0.2278 -0.9086 -0.3500
vn -0.2278 0.9086 -0.3500
vn 0.0576 0.0000 -0.9983
vn 0.0000 0.0000 0.0000
vn 0.0773 0.0000 -0.9970
vn -0.0906 -0.3197 0.9432
vn -0.0906 0.3197 0.9432
vn 0.0000 0.0000 0.0000
vn 0.0000 0.0000 0.0000
vn 0.0000 0.0000 0.0000
vn 0.0000 0.0000 0.0000
vn 0.0000 -0.0000 0.0000
vn 0.0000 -0.0000 0.0000
vn 0.4957 -0.0000 0.8685
vn 0.0000 -0.0000 0.0000
vn 0.0000 -0.0000 0.0000
vn -0.4070 -0.8377 0.3641
vn -0.4070 0.8377 0.3641
vn -0.0169 -0.6404 -0.7678
vn -0.0169 0.6404 -0.7678
vn 0.0000 -0.0000 0.0000
vn 0.0000 0.0000 0.0000
vn 0.0000 0.0000 0.0000
vn -0.0571 -0.8349 -0.5474
vn -0.0571 0.8349 -0.5474
vn 0.0000 0.0000 0.0000
vn 0.0000 0.0000 0.0000
vn 0.0000 0.0000 0.0000
vn 0.5022 0.0000 -0.8648
vn -0.4110 -0.7175 0.5624
vn -0.4110 0.7175 0.5624
vn -0.2082 -0.7973 0.5665
vn -0.2082 0.7973 0.5665
vn 0.0961 -0.0000 -0.9954
vn 0.0000 0.0000 0.0000
vn 0.0687 0.0000 0.9976
vn 0.2222 0.0000 -0.9750
vn -0.2677 -0.7948 0.5447
vn -0.2677 0.7948 0.5447
vn 0.0000 0.0000 0.0000
vn 0.1364 -0.2086 -0.9684
vn 0.1364 0.2086 -0.9684
vn 0.0000 0.0000 0.0000
vn 0.2012 0.0000 0.9795
vn 0.0000 0.0000 0.0000
vn 0.0000 0.0000 0.0000
vn 0.0000 0.0000 0.0000
vn 0.0000 0.0000 0.0000
vn 0.0000 0.0000 0.0000
vn 0.0000 0.0000 0.0000
vn -0.3763 -0.8429 0.3847
vn -0.3763 0.8429 0.3847
vn 0.0000 -0.0000 0.0000
vn -0.2507 -0.9533 -0.1687
vn -0.2507 0.9533 -0.1687
vn 0.0486 -0.0684 0.9965
vn 0.0486 0.0684 0.9965
vn -0.0314 -0.8399 -0.5418
vn -0.0314 0.8399 -0.5418
vn 0.0000 0.0000 0.0000
vn 0.6652 0.0000 0.7467
vn 0.0000 -0.0000 0.0000
vn 0.0000 0.0000 0.0000
vn 0.0000 -0.0000 0.0000
vn 0.1537 -0.7391 -0.6558
vn 0.1537 0.7391 -0.6558
vn 0.2319 -0.0862 -0.9689
vn 0.2319 0.0862 -0.9689
vn -0.1371 -0.8144 0.5638
vn -0.1371 0.8144 0.5638
vn 0.0000 0.0000 0.0000
vn 0.0000 0.0000 0.0000
vn 0.0391 -0.6109 0.7907
vn 0.0391 0.6109 0.7907
vn 0.0000 0.0000 0.0000
vn -0.2308 -0.7882 0.5705
vn -0.2308 0.7882 0.5705
vn 0.0000 0.0000 0.0000
vn 0.0000 0.0000 0.0000
vn 0.0000 0.0000 0.0000
vn 0.0000 0.0000 0.0000
vn 0.0000 0.0000 0.0000
vn -0.3655 -0.4412 0.8196
vn -0.3655 0.4412 0.8196
vn 0.0000 0.0000 0.0000
vn 0.0000 0.0000 0.0000
vn 0.0000 0.0000 0.0000
vn -0.8926 0.0000 -0.4508
vn 0.0707 -0.7078 0.7028
vn 0.0707 0.7078 0.7028
vn 0.1344 -0.6924 -0.7088
vn 0.1344 0.6924 -0.7088
vn 0.2301 -0.4581 -0.8586
vn 0.2301 0.4581 -0.8586
vn 0.0000 0.0000 0.0000
vn 0.2691 -0.2091 -0.9401
vn 0.2691 0.2091 -0.9401
vn 0.3138 -0.5649 0.7632
vn 0.3138 0.5649 0.7632
vn 0.1331 -0.4594 -0.8782
vn 0.1331 0.4594 -0.8782
vn 0.8716 0.0000 -0.4902
vn -0.3516 -0.8915 0.2857
vn -0.3516 0.8915 0.2857
vn 0.0000 0.0000 0.0000
vn 0.4843 -0.5512 0.6794
vn 0.4843 0.5512 0.6794
vn 0.2697 -0.1506 0.9511
vn 0.2697 0.1506 0.9511
vn 0.2452 0.0000 0.9695
vn 0.0000 0.0000 0.0000
vn 0.0000 0.0000 0.0000
vn 0.0000 0.0000 0.0000
vn 0.0000 0.0000 0.0000
vn 0.0000 0.0000 0.0000
vn 0.0000 -0.0000 0.0000
vn 0.1478 0.0000 0.9890
vn 0.0000 0.0000 0.0000
vn 0.0857 -0.6797 0.7285
vn 0.0857 0.6797 0.7285
vn 0.3006 0.0000 -0.9537
vn -0.0777 -0.8746 -0.4786
vn -0.0777 0.8746 -0.4786
vn 0.0000 0.0000 0.0000
vn 0.0000 0.0000 0.0000
vn 0.0000 0.0000 0.0000
vn 0.0141 -0.9299 -0.3675
vn 0.0141 0.9299 -0.3675
vn 0.0000 0.0000 0.0000
vn 0.0000 0.0000 0.0000
vn -0.0655 -0.8324 0.5503
vn -0.0655 0.8324 0.5503
vn 0.0000 0.0000 0.0000
vn 0.1837 -0.7928 -0.5811
vn 0.1837 0.7928 -0.5811
vn 0.0000 0.0000 0.0000
vn 0.0000 0.0000 0.0000
vn -0.5751 -0.6803 -0.4544
vn -0.5751 0.6803 -0.4544
vn 0.0000 0.0000 0.0000
vn 0.0000 0.0000 0.0000
vn 0.0000 0.0000 0.0000
vn -0.0205 -0.8487 0.5284
vn -0.0205 0.8487 0.5284
vn 0.0528 -0.6648 -0.7452
vn 0.0528 0.6648 -0.7452
vn 0.3321 -0.4420 -0.8332
vn 0.3321 0.4420 -0.8332
vn 0.5830 0.0792 0.8086
vn 0.5830 -0.0792 0.8086
vn 0.0000 0.0000 0.0000
vn 0.4099 -0.3919 0.8236
vn 0.4099 0.3919 0.8236
vn 0.1672 -0.9400 -0.2973
vn 0.1672 0.9400 -0.2973
vn 0.0000 -0.0000 0.0000
vn 0.0000 0.0000 0.0000
vn -0.0250 -0.6977 0.7159
vn -0.0250 0.6977 0.7159
vn 0.4117 -0.1182 -0.9036
vn 0.4117 0.1182 -0.9036
vn 0.0000 0.0000 0.0000
vn 0.0000 0.0000 0.0000
vn 0.0000 0.0000 0.0000
vn 0.0000 0.0000 0.0000
vn 0.3659 -0.5616 -0.7421
vn 0.3659 0.5616 -0.7421
vn 0.0000 0.0000 0.0000
vn 0.0000 0.0000 0.0000
vn 0.3480 0.0000 -0.9375
vn 0.0000 0.0000 0.0000
vn 0.2775 0.0000 0.9607
vn 0.0000 0.0000 0.0000
vn 0.0000 0.0000 0.0000
vn 0.0000 0.0000 0.0000
vn 0.1787 -0.5748 0.7985
vn 0.1787 0.5748 0.7985
vn 0.0000 0.0000 0.0000
vn 0.4592 0.0000 -0.8883
vn 0.2837 -0.6238 -0.7283
vn 0.2837 0.6238 -0.7283
vn 0.0000 0.0000 0.0000
vn 0.0000 -0.0000 0.0000
vn 0.0000 0.0000 0.0000
vn 0.0000 0.0000 0.0000
vn 0.0000 0.0000 0.0000
vn 0.0000 0.0000 0.0000
vn 0.0000 0.0000 0.0000
vn 0.3320 -0.2392 0.9124
vn 0.3320 0.2392 0.9124
vn 0.0950 -0.9503 0.2966
vn 0.0950 0.9503 0.2966
vn 0.0000 0.0000 0.0000
vn 0.0000 -0.0000 0.0000
vn 0.0000 0.0000 0.0000
vn 0.0679 -0.6565 0.7513
vn 0.0679 0.6565 0.7513
vn 0.2514 -0.1215 -0.9602
vn 0.2514 0.1215 -0.9602
vn 0.4020 -0.1066 0.9094
vn 0.4020 0.1066 0.9094
vn 0.0000 0.0000 0.0000
vn 0.0000 0.0000 0.0000
vn 0.4011 0.0000 0.9160
vn 0.0000 0.0000 0.0000
vn 0.2552 0.0000 -0.9669
vn 0.0000 0.0000 0.0000
vn 0.0000 0.0000 0.0000
vn 0.0000 0.0000 0.0000
vn 0.0000 0.0000 0.0000
vn 0.2562 -0.7864 -0.5620
vn 0.2562 0.7864 -0.5620
vn 0.0000 0.0000 0.0000
vn 0.2836 -0.6634 -0.6924
vn 0.2836 0.6634 -0.6924
vn 0.0000 0.0000 0.0000
vn 0.0000 0.0000 0.0000
vn 0.2988 -0.4322 -0.8508
vn 0.2988 0.4322 -0.8508
vn 0.0000 0.0000 0.0000
vn 0.0000 0.0000 0.0000
vn 0.2834 -0.4760 0.8325
vn 0.2834 0.4760 0.8325
vn 0.0000 0.0000 0.0000
vn 0.2236 0.0000 -0.9747
vn 0.0000 0.0000 0.0000
vn 0.0000 0.0000 0.0000
vn 0.0000 0.0000 0.0000
vn 0.0000 0.0000 0.0000
vn 0.0000 0.0000 0.0000
vn 0.0000 0.0000 0.0000
vn 0.4873 -0.8232 -0.2914
vn 0.4873 0.8232 -0.2914
vn 0.0000 0.0000 0.0000
vn 0.3263 -0.5472 -0.7708
vn 0.3263 0.5472 -0.7708
vn 0.0000 0.0000 0.0000
vn 0.0000 0.0000 0.0000
vn 0.0000 0.0000 0.0000
vn 0.0000 0.0000 0.0000
vn 0.0000 0.0000 0.0000
vn 0.1901 -0.7021 0.6862
vn 0.1901 0.7021 0.6862
vn 0.0000 0.0000 0.0000
vn 0.0000 0.0000 0.0000
vn 0.0000 -0.0000 0.0000
vn 0.4978 -0.8609 0.1051
vn 0.4978 0.8609 0.1051
vn 0.4902 -0.0000 0.8716
vn 0.0000 0.0000 0.0000
vn 0.0000 0.0000 0.0000
vn 0.0000 0.0000 0.0000
vn 0.0000 0.0000 0.0000
vn 0.0000 0.0000 0.0000
vn 0.3705 -0.5469 -0.7508
vn 0.3705 0.5469 -0.7508
vn 0.0000 0.0000 0.0000
vn 0.0000 0.0000 0.0000
vn 0.0000 0.0000 0.0000
vn 0.0000 -0.0000 0.0000
vn 0.5640 -0.6259 -0.5386
vn 0.5640 0.6259 -0.5386
vn 0.0000 0.0000 0.0000
vn 0.0000 0.0000 0.0000
vn 0.4668 -0.1442 0.8725
vn 0.4668 0.1442 0.8725
vn 0.0000 0.0000 0.0000
vn 0.0000 0.0000 0.0000
vn 0.0000 0.0000 0.0000
vn 0.0000 0.0000 0.0000
vn 0.3883 -0.1342 -0.9117
vn 0.3883 0.1342 -0.9117
vn 0.0000 0.0000 0.0000
vn 0.0000 0.0000 0.0000
vn 0.0000 0.0000 0.0000
vn 0.5181 -0.0000 -0.8553
vn 0.6045 -0.6393 0.4752
vn 0.6045 0.6393 0.4752
vn 0.0000 0.0000 0.0000
vn 0.0000 0.0000 0.0000
vn 0.0000 -0.0000 0.0000
vn 0.0000 0.0000 0.0000
vn 0.0000 0.0000 0.0000
vn 0.0000 0.0000 0.0000
vn 0.0000 0.0000 0.0000
vn 0.0000 -0.0000 0.0000
vn 0.0000 -0.0000 0.0000
vn 0.0000 0.0000 0.0000
vn 0.0000 0.0000 0.0000
vn 0.5463 -0.4679 -0.6947
vn 0.5463 0.4679 -0.6947
vn 0.0000 0.0000 0.0000
vn 0.5110 -0.3808 0.7706
vn 0.5110 0.3808 0.7706
vn 0.0000 0.0000 0.0000
vn 0.0000 0.0000 0.0000
vn 0.0000 0.0000 0.0000
vn 0.0000 0.0000 0.0000
vn 0.0000 0.0000 0.0000
vn 0.0000 0.0000 0.0000
vn 0.0000 0.0000 0.0000
vn 0.0000 0.0000 0.0000
vn 0.0000 0.0000 0.0000
vn 0.0000 0.0000 0.0000
vn 0.8239 -0.5663 0.0210
vn 0.8239 0.5663 0.0210
vn 0.0000 0.0000 0.0000
vn 0.4985 -0.1441 0.8548
vn 0.4985 0.1441 0.8548
vn 0.0000 -0.0000 0.0000
vn 0.0000 0.0000 0.0000
vn 0.0000 0.0000 0.0000
vn 0.0000 0.0000 0.0000
vn 0.0000 0.0000 0.0000
vn 0.0000 0.0000 0.0000
vn 0.0000 -0.0000 0.0000
vn 0.0000 0.0000 0.0000
vn 0.0000 0.0000 0.0000
vn 0.0000 0.0000 0.0000
vn 0.9472 -0.3184 0.0381
vn 0.9472 0.3184 0.0381
vn 0.0000 0.0000 0.0000
vn 0.6070 -0.0715 0.7915
vn 0.6070 0.0715 0.7915
vn 0.0000 -0.0000 0.0000
vn 0.0000 0.0000 0.0000
vn 0.0000 -0.0000 0.0000
vn 0.9926 -0.1106 -0.0499
vn 0.9926 0.1106 -0.0499
vn 0.0000 0.0000 0.0000
vn 0.0000 -0.0000 0.0000
vn 0.7392 -0.1693 -0.6518
vn 0.7392 0.1693 -0.6518
vn 0.0000 0.0000 0.0000
vn 0.0000 0.0000 0.0000
vn 0.0000 0.0000 0.0000
vn 0.9687 -0.1248 -0.2147
vn 0.9687 0.1248 -0.2147
vn 0.0000 0.0000 0.0000
vn 0.0000 0.0000 0.0000
vn 0.0000 0.0000 0.0000
vn 0.0000 0.0000 0.0000
vn 0.0000 0.0000 0.0000
vn 0.0000 0.0000 0.0000
vn 0.0000 0.0000 0.0000
vn 0.9995 0.0000 -0.0307
vn 0.0000 0.0000 0.0000
vn 0.0000 0.0000 0.0000
vn 0.0000 0.0000 0.0000
vn 0.8122 0.0000 -0.5834
vn 0.0000 -0.0000 0.0000
vn 0.0000 0.0000 0.0000
vn 0.0000 0.0000 0.0000
vn 0.8752 0.0000 0.4837
vn 0.0000 0.0000 0.0000
vn 0.8715 0.0000 0.4904
vn 0.0000 0.0000 0.0000
vn 0.0000 -0.0000 0.0000
vn 0.0000 -0.0000 0.0000
vn 0.8491 0.0000 -0.5282
vn 0.0000 0.0000 0.0000
vn 0.0000 -0.0000 0.0000
vn 0.0000 0.0000 0.0000
vn 0.0000 0.0000 0.0000
vn 0.9668 0.0000 0.2556
vn 0.0000 0.0000 0.0000
vn 0.0000 0.0000 0.0000
vn 0.0000 -0.0000 0.0000
f 635//635 599//599 616//616
f 323//323 359//359 353//353
f 431//431 330//330 464//464
f 51//51 77//77 69//69
f 130//130 101//101 181//181
f 221//221 77//77 256//256
f 257//257 202//202 269//269
f 257//257 353//353 336//336
f 200//200 170//170 257//257
f 143//143 119//119 105//105
f 67//67 69//69 74//74
f 74//74 66//66 67//67
f 88//88 92//92 113//113
f 61//61 80//80 56//56
f 73//73 88//88 61//61
f 83//83 95//95 85//85
f 95//95 133//133 85//85
f 55//55 68//68 83//83
f 608//608 606//606 628//628
f 627//627 598//598 608//608
f 709//709 638//638 660//660
f 691//691 740//740 709//709
f 691//691 693//693 740//740
f 709//709 729//729 703//703
f 739//739 740//740 736//736
f 693//693 688//688 740//740
f 709//709 665//665 624//624
f 675//675 709//709 659//659
f 498//498 485//485 487//487
f 455//455 448//448 498//498
f 464//464 518//518 547//547
f 518//518 606//606 547//547
f 726//726 736//736 734//734
f 741//741 695//695 737//737
f 677//677 737//737 725//725
f 738//738 728//728 716//716
f 743//743 745//745 735//735
f 728//728 677//677 682//682
f 601//601 555//555 568//568
f 601//601 575//575 555//555
f 555//555 575//575 537//537
f 555//555 537//537 522//522
f 611//611 699//699 640//640
f 611//611 640//640 590//590
f 570//570 611//611 533//533
f 590//590 559//559 513//513
f 590//590 593//593 559//559
f 716//716 728//728 711//711
f 711//711 654//654 650//650
f 669//669 650//650 640//640
f 654//654 603//603 650//650
f 615//615 603//603 667//667
f 603//603 594//594 586//586
f 661//661 603//603 654//654
f 614//614 559//559 593//593
f 577//577 557//557 526//526
f 577//577 584//584 557//557
f 526//526 557//557 539//539
f 594//594 557//557 586//586
f 557//557 594//594 548//548
f 548//548 519//519 499//499
f 741//741 705//705 695//695
f 695//695 647//647 667//667
f 542//542 602//602 564//564
f 602//602 565//565 587//587
f 565//565 602//602 542//542
f 602//602 587//587 619//619
f 647//647 602//602 637//637
f 622//622 587//587 594//594
f 423//423 394//394 456//456
f 647//647 636//636 602//602
f 667//667 647//647 637//637
f 378//378 329//329 321//321
f 267//267 181//181 321//321
f 292//292 294//294 329//329
f 267//267 261//261 213//213
f 292//292 261//261 267//267
f 352//352 346//346 364//364
f 430//430 396//396 364//364
f 273//273 265//265 327//327
f 104//104 103//103 105//105
f 122//122 118//118 119//119
f 119//119 143//143 122//122
f 261//261 248//248 223//223
f 224//224 211//211 189//189
f 211//211 156//156 189//189
f 156//156 133//133 122//122
f 211//211 240//240 163//163
f 162//162 240//240 209//209
f 163//163 133//133 156//156
f 144//144 162//162 145//145
f 327//327 265//265 305//305
f 206//206 216//216 192//192
f 206//206 192//192 198//198
f 305//305 265//265 254//254
f 178//178 237//237 265//265
f 239//239 178//178 265//265
f 254//254 265//265 231//231
f 265//265 188//188 239//239
f 188//188 265//265 273//273
f 210//210 196//196 240//240
f 245//245 240//240 214//214
f 248//248 206//206 223//223
f 237//237 210//210 211//211
f 103//103 122//122 109//109
f 103//103 104//104 122//122
f 433//433 411//411 409//409
f 366//366 409//409 411//411
f 455//455 482//482 409//409
f 437//437 380//380 433//433
f 366//366 275//275 273//273
f 366//366 380//380 275//275
f 403//403 349//349 338//338
f 275//275 259//259 233//233
f 158//158 161//161 184//184
f 184//184 161//161 229//229
f 165//165 207//207 208//208
f 368//368 302//302 312//312
f 312//312 302//302 280//280
f 302//302 374//374 308//308
f 229//229 220//220 314//314
f 229//229 314//314 312//312
f 312//312 280//280 229//229
f 437//437 526//526 444//444
f 444//444 472//472 475//475
f 526//526 479//479 444//444
f 437//437 444//444 398//398
f 499//499 463//463 415//415
f 412//412 383//383 368//368
f 398//398 368//368 314//314
f 314//314 349//349 398//398
f 158//158 184//184 207//207
f 158//158 207//207 165//165
f 188//188 233//233 259//259
f 153//153 261//261 143//143
f 144//144 154//154 133//133
f 240//240 245//245 209//209
f 282//282 149//149 133//133
f 288//288 282//282 290//290
f 282//282 209//209 290//290
f 288//288 306//306 284//284
f 136//136 203//203 246//246
f 139//139 203//203 136//136
f 175//175 151//151 201//201
f 285//285 276//276 201//201
f 245//245 255//255 209//209
f 173//173 135//135 121//121
f 138//138 128//128 134//134
f 138//138 134//134 155//155
f 394//394 347//347 391//391
f 463//463 401//401 412//412
f 355//355 442//442 389//389
f 355//355 405//405 442//442
f 390//390 374//374 412//412
f 401//401 334//334 339//339
f 394//394 373//373 361//361
f 208//208 182//182 155//155
f 347//347 285//285 270//270
f 318//318 285//285 347//347
f 236//236 207//207 308//308
f 270//270 285//285 236//236
f 355//355 347//347 334//334
f 269//269 330//330 257//257
f 257//257 323//323 353//353
f 214//214 136//136 246//246
f 165//165 208//208 159//159
f 602//602 617//617 604//604
f 685//685 691//691 709//709
f 585//585 616//616 599//599
f 616//616 585//585 635//635
f 393//393 427//427 459//459
f 670//670 641//641 635//635
f 393//393 386//386 427//427
f 704//704 670//670 697//697
f 414//414 426//426 511//511
f 325//325 303//303 414//414
f 414//414 303//303 336//336
f 353//353 414//414 336//336
f 414//414 353//353 426//426
f 414//414 480//480 439//439
f 414//414 378//378 343//343
f 414//414 343//343 325//325
f 378//378 321//321 343//343
f 307//307 256//256 316//316
f 316//316 256//256 310//310
f 316//316 310//310 342//342
f 342//342 330//330 316//316
f 330//330 307//307 316//316
f 268//268 277//277 269//269
f 269//269 256//256 268//268
f 277//277 269//269 256//256
f 307//307 277//277 256//256
f 330//330 269//269 307//307
f 473//473 483//483 534//534
f 473//473 511//511 426//426
f 399//399 431//431 473//473
f 473//473 431//431 483//483
f 431//431 464//464 492//492
f 382//382 431//431 399//399
f 330//330 382//382 399//399
f 382//382 330//330 431//431
f 323//323 257//257 330//330
f 399//399 359//359 323//323
f 353//353 359//359 426//426
f 77//77 84//84 117//117
f 69//69 77//77 99//99
f 69//69 65//65 51//51
f 65//65 67//67 51//51
f 45//45 36//36 51//51
f 36//36 45//45 30//30
f 28//28 29//29 77//77
f 13//13 28//28 14//14
f 28//28 29//29 25//25
f 22//22 28//28 25//25
f 51//51 46//46 77//77
f 46//46 51//51 30//30
f 51//51 36//36 30//30
f 46//46 15//15 13//13
f 46//46 21//21 15//15
f 30//30 24//24 21//21
f 26//26 24//24 30//30
f 30//30 21//21 46//46
f 15//15 21//21 24//24
f 27//27 30//30 42//42
f 28//28 77//77 46//46
f 46//46 13//13 28//28
f 13//13 42//42 28//28
f 42//42 13//13 8//8
f 32//32 29//29 28//28
f 28//28 42//42 53//53
f 14//14 28//28 13//13
f 8//8 15//15 42//42
f 29//29 32//32 77//77
f 16//16 3//3 20//20
f 16//16 43//43 1//1
f 32//32 16//16 77//77
f 32//32 28//28 43//43
f 1//1 43//43 39//39
f 15//15 21//21 19//19
f 24//24 21//21 19//19
f 202//202 111//111 137//137
f 170//170 148//148 111//111
f 111//111 202//202 170//170
f 137//137 90//90 69//69
f 137//137 100//100 90//90
f 137//137 111//111 100//100
f 111//111 148//148 113//113
f 111//111 113//113 97//97
f 97//97 89//89 90//90
f 97//97 113//113 89//89
f 303//303 200//200 336//336
f 200//200 195//195 170//170
f 303//303 181//181 200//200
f 200//200 181//181 195//195
f 170//170 195//195 164//164
f 343//343 321//321 325//325
f 170//170 113//113 148//148
f 113//113 170//170 164//164
f 93//93 113//113 101//101
f 113//113 181//181 101//101
f 257//257 170//170 202//202
f 181//181 113//113 164//164
f 256//256 77//77 310//310
f 77//77 137//137 99//99
f 221//221 137//137 77//77
f 256//256 269//269 221//221
f 221//221 202//202 137//137
f 137//137 69//69 99//99
f 257//257 336//336 200//200
f 143//143 93//93 126//126
f 93//93 101//101 126//126
f 93//93 143//143 105//105
f 69//69 90//90 74//74
f 51//51 67//67 66//66
f 66//66 45//45 51//51
f 45//45 66//66 53//53
f 90//90 89//89 74//74
f 74//74 89//89 66//66
f 92//92 88//88 89//89
f 66//66 89//89 73//73
f 53//53 66//66 73//73
f 89//89 88//88 73//73
f 45//45 53//53 42//42
f 43//43 28//28 53//53
f 53//53 52//52 47//47
f 73//73 61//61 53//53
f 52//52 53//53 61//61
f 61//61 47//47 52//52
f 43//43 47//47 56//56
f 43//43 56//56 39//39
f 62//62 56//56 72//72
f 72//72 56//56 85//85
f 47//47 61//61 56//56
f 62//62 39//39 56//56
f 80//80 88//88 93//93
f 61//61 88//88 80//80
f 88//88 113//113 93//93
f 85//85 56//56 78//78
f 85//85 78//78 83//83
f 56//56 80//80 78//78
f 85//85 82//82 72//72
f 91//91 80//80 93//93
f 93//93 105//105 95//95
f 95//95 91//91 93//93
f 68//68 91//91 83//83
f 80//80 91//91 76//76
f 91//91 70//70 76//76
f 83//83 76//76 55//55
f 76//76 70//70 55//55
f 70//70 91//91 68//68
f 49//49 55//55 68//68
f 49//49 68//68 55//55
f 50//50 55//55 49//49
f 67//67 65//65 69//69
f 30//30 45//45 42//42
f 85//85 123//123 82//82
f 595//595 534//534 591//591
f 598//598 595//595 608//608
f 607//607 595//595 591//591
f 591//591 608//608 607//607
f 608//608 595//595 607//607
f 591//591 572//572 608//608
f 547//547 606//606 572//572
f 572//572 606//606 608//608
f 709//709 740//740 729//729
f 739//739 729//729 740//740
f 739//739 736//736 729//729
f 551//551 598//598 627//627
f 608//608 662//662 651//651
f 627//627 651//651 662//662
f 662//662 653//653 658//658
f 608//608 658//658 653//653
f 734//734 662//662 726//726
f 662//662 694//694 726//726
f 694//694 703//703 736//736
f 703//703 664//664 665//665
f 694//694 658//658 703//703
f 726//726 694//694 736//736
f 658//658 664//664 703//703
f 664//664 623//623 665//665
f 662//662 658//658 694//694
f 709//709 660//660 678//678
f 675//675 658//658 709//709
f 709//709 628//628 638//638
f 678//678 685//685 709//709
f 729//729 736//736 703//703
f 740//740 688//688 721//721
f 709//709 624//624 659//659
f 659//659 623//623 664//664
f 709//709 703//703 665//665
f 623//623 624//624 665//665
f 675//675 659//659 658//658
f 608//608 628//628 658//658
f 606//606 638//638 628//628
f 664//664 658//658 659//659
f 511//511 515//515 480//480
f 515//515 543//543 480//480
f 480//480 543//543 422//422
f 495//495 422//422 543//543
f 550//550 551//551 582//582
f 551//551 550//550 541//541
f 598//598 540//540 495//495
f 495//495 551//551 550//550
f 551//551 540//540 598//598
f 414//414 439//439 378//378
f 439//439 480//480 378//378
f 422//422 392//392 407//407
f 422//422 435//435 392//392
f 370//370 392//392 385//385
f 378//378 407//407 392//392
f 477//477 462//462 487//487
f 488//488 435//435 466//466
f 435//435 488//488 487//487
f 466//466 495//495 488//488
f 422//422 495//495 435//435
f 466//466 435//435 495//495
f 488//488 495//495 487//487
f 392//392 435//435 385//385
f 487//487 452//452 435//435
f 452//452 385//385 435//435
f 462//462 452//452 487//487
f 407//407 378//378 480//480
f 627//627 582//582 551//551
f 582//582 579//579 568//568
f 627//627 579//579 582//582
f 498//498 568//568 555//555
f 550//550 568//568 487//487
f 582//582 568//568 550//550
f 627//627 644//644 579//579
f 644//644 601//601 579//579
f 601//601 568//568 579//579
f 468//468 498//498 452//452
f 462//462 468//468 452//452
f 477//477 468//468 462//462
f 487//487 568//568 498//498
f 498//498 448//448 452//452
f 417//417 448//448 430//430
f 448//448 417//417 452//452
f 498//498 555//555 528//528
f 528//528 531//531 498//498
f 498//498 517//517 522//522
f 522//522 531//531 528//528
f 498//498 531//531 517//517
f 550//550 487//487 495//495
f 531//531 522//522 517//517
f 515//515 511//511 543//543
f 511//511 595//595 543//543
f 572//572 534//534 547//547
f 492//492 547//547 534//534
f 483//483 492//492 534//534
f 543//543 595//595 598//598
f 543//543 598//598 495//495
f 662//662 734//734 627//627
f 627//627 734//734 702//702
f 687//687 627//627 702//702
f 702//702 734//734 707//707
f 734//734 724//724 707//707
f 724//724 699//699 707//707
f 707//707 699//699 684//684
f 702//702 707//707 687//687
f 746//746 740//740 721//721
f 740//740 746//746 736//736
f 736//736 746//746 745//745
f 744//744 745//745 734//734
f 732//732 742//742 743//743
f 745//745 742//742 732//732
f 734//734 732//732 724//724
f 724//724 732//732 699//699
f 734//734 745//745 732//732
f 721//721 741//741 746//746
f 745//745 743//743 742//742
f 746//746 741//741 745//745
f 737//737 695//695 725//725
f 745//745 741//741 737//737
f 677//677 725//725 667//667
f 699//699 738//738 716//716
f 745//745 737//737 735//735
f 738//738 743//743 728//728
f 728//728 743//743 677//677
f 677//677 743//743 735//735
f 677//677 735//735 737//737
f 732//732 743//743 699//699
f 644//644 627//627 687//687
f 601//601 644//644 656//656
f 656//656 621//621 601//601
f 601//601 621//621 575//575
f 644//644 672//672 656//656
f 672//672 707//707 656//656
f 707//707 684//684 656//656
f 626//626 611//611 621//621
f 621//621 656//656 626//626
f 626//626 656//656 611//611
f 621//621 611//611 570//570
f 522//522 537//537 510//510
f 575//575 510//510 537//537
f 498//498 522//522 455//455
f 455//455 430//430 448//448
f 575//575 570//570 510//510
f 570//570 533//533 510//510
f 506//506 510//510 533//533
f 510//510 506//506 482//482
f 656//656 684//684 699//699
f 640//640 699//699 711//711
f 711//711 699//699 716//716
f 656//656 699//699 611//611
f 611//611 590//590 533//533
f 590//590 640//640 593//593
f 533//533 590//590 506//506
f 513//513 506//506 590//590
f 513//513 501//501 506//506
f 570//570 575//575 621//621
f 562//562 561//561 519//519
f 640//640 711//711 669//669
f 669//669 711//711 650//650
f 640//640 650//650 634//634
f 614//614 593//593 634//634
f 593//593 640//640 634//634
f 577//577 597//597 650//650
f 597//597 614//614 650//650
f 650//650 614//614 634//634
f 654//654 682//682 661//661
f 677//677 667//667 661//661
f 661//661 682//682 677//677
f 650//650 603//603 577//577
f 577//577 603//603 584//584
f 615//615 622//622 594//594
f 615//615 667//667 622//622
f 577//577 559//559 614//614
f 577//577 526//526 545//545
f 513//513 559//559 524//524
f 559//559 545//545 524//524
f 524//524 545//545 526//526
f 577//577 614//614 597//597
f 594//594 562//562 548//548
f 562//562 519//519 548//548
f 584//584 586//586 557//557
f 539//539 472//472 526//526
f 539//539 557//557 548//548
f 539//539 548//548 475//475
f 539//539 475//475 472//472
f 446//446 548//548 499//499
f 475//475 548//548 446//446
f 499//499 490//490 463//463
f 584//584 603//603 586//586
f 528//528 555//555 522//522
f 534//534 572//572 591//591
f 654//654 711//711 728//728
f 676//676 681//681 695//695
f 695//695 705//705 676//676
f 645//645 647//647 666//666
f 695//695 681//681 647//647
f 647//647 681//681 666//666
f 667//667 725//725 695//695
f 604//604 588//588 602//602
f 535//535 565//565 542//542
f 602//602 588//588 556//556
f 564//564 602//602 556//556
f 542//542 564//564 556//556
f 622//622 667//667 637//637
f 619//619 622//622 637//637
f 619//619 587//587 622//622
f 619//619 637//637 602//602
f 587//587 565//565 561//561
f 561//561 565//565 535//535
f 594//594 561//561 562//562
f 594//594 587//587 561//561
f 535//535 542//542 502//502
f 542//542 504//504 502//502
f 491//491 507//507 449//449
f 502//502 504//504 491//491
f 502//502 442//442 494//494
f 442//442 502//502 491//491
f 442//442 491//491 456//456
f 491//491 449//449 423//423
f 491//491 423//423 456//456
f 394//394 423//423 449//449
f 394//394 449//449 387//387
f 391//391 456//456 394//394
f 391//391 442//442 456//456
f 494//494 535//535 502//502
f 494//494 519//519 535//535
f 494//494 442//442 458//458
f 442//442 421//421 458//458
f 499//499 519//519 490//490
f 453//453 490//490 494//494
f 453//453 494//494 458//458
f 329//329 370//370 357//357
f 378//378 370//370 329//329
f 267//267 321//321 329//329
f 181//181 267//267 244//244
f 244//244 267//267 213//213
f 370//370 385//385 364//364
f 370//370 364//364 357//357
f 364//364 329//329 357//357
f 267//267 294//294 292//292
f 329//329 341//341 305//305
f 213//213 153//153 130//130
f 130//130 153//153 101//101
f 213//213 261//261 153//153
f 417//417 385//385 452//452
f 417//417 364//364 385//385
f 364//364 346//346 329//329
f 329//329 346//346 341//341
f 352//352 305//305 341//341
f 352//352 327//327 305//305
f 430//430 409//409 396//396
f 417//417 430//430 364//364
f 372//372 333//333 352//352
f 364//364 372//372 352//352
f 352//352 333//333 327//327
f 396//396 372//372 364//364
f 372//372 366//366 333//333
f 333//333 366//366 327//327
f 126//126 153//153 143//143
f 105//105 115//115 118//118
f 122//122 143//143 156//156
f 118//118 122//122 114//114
f 143//143 223//223 194//194
f 143//143 261//261 223//223
f 211//211 224//224 235//235
f 235//235 237//237 211//211
f 194//194 217//217 206//206
f 224//224 223//223 222//222
f 198//198 169//169 206//206
f 206//206 169//169 167//167
f 143//143 194//194 156//156
f 206//206 167//167 156//156
f 156//156 167//167 189//189
f 206//206 156//156 194//194
f 206//206 217//217 223//223
f 109//109 105//105 103//103
f 95//95 105//105 109//109
f 95//95 109//109 133//133
f 109//109 122//122 133//133
f 133//133 162//162 144//144
f 156//156 211//211 163//163
f 133//133 163//163 162//162
f 163//163 240//240 162//162
f 162//162 173//173 150//150
f 127//127 162//162 150//150
f 127//127 141//141 162//162
f 162//162 141//141 145//145
f 248//248 261//261 305//305
f 305//305 254//254 248//248
f 248//248 254//254 206//206
f 206//206 231//231 216//216
f 231//231 235//235 224//224
f 237//237 235//235 231//231
f 216//216 231//231 189//189
f 231//231 224//224 189//189
f 189//189 192//192 216//216
f 237//237 178//178 210//210
f 265//265 237//237 231//231
f 167//167 169//169 192//192
f 189//189 167//167 192//192
f 239//239 188//188 178//178
f 188//188 161//161 178//178
f 178//178 161//161 146//146
f 161//161 188//188 259//259
f 240//240 211//211 210//210
f 245//245 214//214 246//246
f 196//196 214//214 240//240
f 196//196 172//172 214//214
f 146//146 147//147 196//196
f 210//210 146//146 196//196
f 147//147 136//136 172//172
f 138//138 139//139 128//128
f 136//136 128//128 139//139
f 173//173 127//127 150//150
f 210//210 178//178 146//146
f 146//146 128//128 136//136
f 128//128 146//146 161//161
f 161//161 158//158 128//128
f 128//128 165//165 134//134
f 430//430 455//455 409//409
f 411//411 433//433 366//366
f 372//372 409//409 366//366
f 510//510 482//482 455//455
f 433//433 482//482 506//506
f 437//437 433//433 506//506
f 366//366 433//433 380//380
f 380//380 437//437 403//403
f 396//396 409//409 372//372
f 437//437 506//506 501//501
f 366//366 273//273 327//327
f 437//437 513//513 524//524
f 161//161 259//259 220//220
f 380//380 338//338 275//275
f 338//338 380//380 403//403
f 338//338 314//314 259//259
f 220//220 259//259 314//314
f 275//275 338//338 259//259
f 368//368 312//312 314//314
f 207//207 229//229 280//280
f 280//280 302//302 207//207
f 207//207 302//302 308//308
f 207//207 184//184 229//229
f 524//524 526//526 437//437
f 479//479 526//526 470//470
f 444//444 479//479 472//472
f 479//479 470//470 472//472
f 398//398 403//403 437//437
f 398//398 444//444 475//475
f 420//420 475//475 446//446
f 463//463 428//428 415//415
f 415//415 428//428 412//412
f 499//499 415//415 446//446
f 415//415 420//420 446//446
f 368//368 420//420 415//415
f 368//368 415//415 412//412
f 383//383 381//381 368//368
f 412//412 381//381 383//383
f 302//302 368//368 381//381
f 381//381 374//374 302//302
f 349//349 403//403 398//398
f 273//273 275//275 233//233
f 114//114 122//122 104//104
f 146//146 136//136 147//147
f 101//101 153//153 126//126
f 282//282 133//133 209//209
f 149//149 123//123 133//133
f 154//154 173//173 209//209
f 133//133 154//154 209//209
f 173//173 154//154 135//135
f 141//141 127//127 145//145
f 145//145 124//124 135//135
f 154//154 145//145 135//135
f 241//241 255//255 246//246
f 306//306 290//290 241//241
f 241//241 225//225 306//306
f 209//209 255//255 290//290
f 306//306 225//225 284//284
f 288//288 290//290 306//306
f 203//203 241//241 246//246
f 175//175 225//225 203//203
f 175//175 190//190 225//225
f 203//203 139//139 151//151
f 203//203 151//151 175//175
f 201//201 276//276 234//234
f 138//138 155//155 151//151
f 151//151 155//155 201//201
f 138//138 151//151 139//139
f 234//234 193//193 201//201
f 276//276 297//297 234//234
f 282//282 288//288 284//284
f 135//135 132//132 124//124
f 124//124 127//127 108//108
f 108//108 127//127 110//110
f 127//127 121//121 110//110
f 121//121 124//124 108//108
f 108//108 110//110 121//121
f 134//134 165//165 155//155
f 442//442 375//375 389//389
f 375//375 391//391 347//347
f 442//442 391//391 375//375
f 318//318 394//394 276//276
f 401//401 421//421 405//405
f 412//412 428//428 463//463
f 401//401 463//463 453//453
f 463//463 490//490 453//453
f 401//401 390//390 412//412
f 355//355 401//401 405//405
f 421//421 442//442 405//405
f 339//339 390//390 401//401
f 335//335 390//390 339//339
f 401//401 355//355 334//334
f 355//355 389//389 375//375
f 355//355 375//375 347//347
f 373//373 394//394 387//387
f 394//394 361//361 344//344
f 394//394 344//344 297//297
f 394//394 297//297 276//276
f 276//276 285//285 318//318
f 155//155 159//159 208//208
f 182//182 208//208 236//236
f 285//285 201//201 182//182
f 308//308 335//335 339//339
f 334//334 236//236 308//308
f 308//308 339//339 334//334
f 334//334 347//347 270//270
f 208//208 207//207 236//236
f 285//285 182//182 236//236
f 236//236 334//334 270//270
f 155//155 165//165 159//159
f 155//155 182//182 201//201
f 303//303 321//321 181//181
f 392//392 370//370 378//378
f 526//526 472//472 470//470
f 458//458 401//401 453//453
f 85//85 133//133 123//123
f 721//721 713//713 705//705
f 162//162 209//209 173//173
f 374//374 335//335 308//308
f 721//721 688//688 713//713
f 77//77 117//117 310//310
f 16//16 1//1 3//3
f 225//225 190//190 284//284
f 84//84 77//77 20//20
f 330//330 342//342 464//464
f 676//676 705//705 713//713
f 278//278 287//287 286//286
f 480//480 414//414 511//511
f 393//393 354//354 386//386
f 269//269 277//277 268//268
f 256//256 269//269 268//268
f 269//269 277//277 307//307
f 511//511 473//473 534//534
f 431//431 492//492 483//483
f 323//323 330//330 399//399
f 399//399 473//473 426//426
f 399//399 426//426 359//359
f 24//24 27//27 42//42
f 24//24 42//42 15//15
f 28//28 25//25 29//29
f 22//22 25//25 28//28
f 21//21 24//24 19//19
f 8//8 13//13 10//10
f 8//8 10//10 15//15
f 10//10 13//13 15//15
f 20//20 77//77 16//16
f 32//32 43//43 16//16
f 26//26 30//30 27//27
f 26//26 27//27 24//24
f 477//477 485//485 468//468
f 15//15 19//19 21//21
f 90//90 100//100 97//97
f 97//97 100//100 111//111
f 164//164 195//195 181//181
f 321//321 303//303 325//325
f 181//181 213//213 130//130
f 202//202 221//221 269//269
f 113//113 92//92 89//89
f 53//53 47//47 43//43
f 76//76 78//78 80//80
f 83//83 78//78 76//76
f 83//83 91//91 95//95
f 55//55 70//70 68//68
f 55//55 50//50 49//49
f 608//608 651//651 627//627
f 653//653 662//662 608//608
f 628//628 709//709 658//658
f 623//623 659//659 624//624
f 551//551 541//541 550//550
f 540//540 551//551 495//495
f 422//422 407//407 480//480
f 477//477 487//487 485//485
f 468//468 485//485 498//498
f 595//595 511//511 534//534
f 492//492 464//464 547//547
f 736//736 745//745 744//744
f 734//734 736//736 744//744
f 721//721 705//705 741//741
f 699//699 743//743 738//738
f 672//672 644//644 687//687
f 455//455 522//522 510//510
f 594//594 603//603 615//615
f 603//603 661//661 667//667
f 577//577 545//545 559//559
f 672//672 687//687 707//707
f 654//654 728//728 682//682
f 507//507 491//491 504//504
f 647//647 645//645 636//636
f 617//617 602//602 636//636
f 556//556 507//507 542//542
f 507//507 504//504 542//542
f 519//519 561//561 535//535
f 494//494 490//490 519//519
f 294//294 267//267 329//329
f 292//292 329//329 305//305
f 292//292 305//305 261//261
f 213//213 181//181 244//244
f 341//341 346//346 352//352
f 115//115 105//105 118//118
f 118//118 105//105 119//119
f 115//115 119//119 105//105
f 104//104 105//105 118//118
f 104//104 118//118 115//115
f 223//223 222//222 217//217
f 105//105 119//119 115//115
f 104//104 118//118 114//114
f 104//104 115//115 118//118
f 224//224 235//235 223//223
f 223//223 235//235 224//224
f 217//217 194//194 223//223
f 224//224 222//222 223//223
f 217//217 222//222 223//223
f 420//420 368//368 398//398
f 420//420 398//398 475//475
f 231//231 206//206 254//254
f 233//233 188//188 273//273
f 147//147 172//172 196//196
f 136//136 214//214 172//172
f 192//192 169//169 198//198
f 165//165 128//128 158//158
f 409//409 482//482 433//433
f 513//513 437//437 501//501
f 314//314 338//338 349//349
f 412//412 374//374 381//381
f 220//220 229//229 161//161
f 145//145 154//154 144//144
f 124//124 132//132 135//135
f 124//124 145//145 127//127
f 246//246 255//255 245//245
f 241//241 290//290 255//255
f 203//203 225//225 241//241
f 193//193 190//190 175//175
f 201//201 193//193 175//175
f 121//121 127//127 173//173
f 121//121 135//135 124//124
f 394//394 318//318 347//347
f 458//458 421//421 401//401
f 390//390 335//335 374//374
f 440//440 324//324 362//362
f 4//4 2//2 5//5
f 670//670 704//704 708//708
f 635//635 641//641 648//648
f 549//549 560//560 553//553
f 98//98 140//140 131//131
f 186//186 262//262 218//218
f 17//17 2//2 18//18
f 631//631 609//609 612//612
f 692//692 679//679 714//714
f 717//717 696//696 712//712
f 679//679 631//631 673//673
f 571//571 503//503 529//529
f 704//704 717//717 720//720
f 641//641 670//670 652//652
f 599//599 635//635 605//605
f 560//560 585//585 563//563
f 459//459 508//508 496//496
f 393//393 459//459 425//425
f 278//278 286//286 298//298
f 287//287 252//252 281//281
f 252//252 186//186 249//249
f 354//354 393//393 358//358
f 262//262 354//354 331//331
f 2//2 33//33 9//9
f 696//696 692//692 719//719
f 424//424 457//457 440//440
f 440//440 493//493 503//503
f 362//362 404//404 440//440
f 63//63 107//107 116//116
f 17//17 54//54 63//63
f 4//4 12//12 2//2
f 7//7 6//6 2//2
f 60//60 48//48 40//40
f 102//102 96//96 98//98
f 632//632 646//646 631//631
f 722//722 723//723 692//692
f 730//730 720//720 717//717
f 708//708 700//700 670//670
f 648//648 642//642 635//635
f 553//553 546//546 549//549
f 460//460 450//450 459//459
f 271//271 247//247 278//278
f 131//131 112//112 98//98
f 218//218 204//204 186//186
f 171//171 309//309 324//324
f 319//319 350//350 324//324
f 40//40 37//37 33//33
f 79//79 71//71 60//60
f 612//612 629//629 631//631
f 714//714 718//718 692//692
f 712//712 727//727 717//717
f 552//552 566//566 571//571
f 529//529 552//552 571//571
f 680//680 674//674 670//670
f 496//496 489//489 459//459
f 425//425 406//406 393//393
f 549//549 520//520 508//508
f 298//298 296//296 278//278
f 287//287 298//298 286//286
f 281//281 295//295 287//287
f 242//242 227//227 262//262
f 283//283 263//263 262//262
f 204//204 199//199 186//186
f 322//322 317//317 262//262
f 331//331 322//322 262//262
f 406//406 400//400 393//393
f 309//309 315//315 324//324
f 23//23 34//34 17//17
f 64//64 75//75 63//63
f 689//689 690//690 670//670
f 299//299 300//300 287//287
f 324//324 350//350 360//360
f 440//440 457//457 465//465
f 440//440 404//404 413//413
f 116//116 107//107 120//120
f 63//63 75//75 87//87
f 2//2 6//6 5//5
f 63//63 54//54 57//57
f 171//171 174//174 226//226
f 60//60 71//71 58//58
f 692//692 718//718 722//722
f 670//670 674//674 657//657
f 585//585 583//583 581//581
f 508//508 520//520 514//514
f 459//459 450//450 441//441
f 459//459 438//438 425//425
f 98//98 106//106 102//102
f 98//98 112//112 106//106
f 278//278 296//296 289//289
f 287//287 295//295 299//299
f 252//252 250//250 251//251
f 262//262 263//263 242//242
f 393//393 388//388 376//376
f 324//324 360//360 362//362
f 324//324 315//315 319//319
f 440//440 413//413 418//418
f 17//17 34//34 35//35
f 33//33 31//31 11//11
f 63//63 57//57 59//59
f 63//63 59//59 64//64
f 33//33 37//37 38//38
f 40//40 44//44 41//41
f 79//79 86//86 81//81
f 631//631 646//646 663//663
f 571//571 566//566 573//573
f 717//717 733//733 730//730
f 717//717 731//731 733//733
f 670//670 690//690 680//680
f 635//635 642//642 630//630
f 635//635 630//630 618//618
f 585//585 581//581 580//580
f 459//459 489//489 460//460
f 459//459 441//441 438//438
f 278//278 247//247 176//176
f 186//186 179//179 185//185
f 262//262 227//227 218//218
f 186//186 199//199 180//180
f 186//186 180//180 179//179
f 278//278 289//289 271//271
f 393//393 400//400 388//388
f 262//262 317//317 283//283
f 98//98 96//96 94//94
f 440//440 418//418 424//424
f 631//631 629//629 632//632
f 670//670 700//700 689//689
f 252//252 249//249 250//250
f 635//635 616//616 599//599
f 323//323 353//353 359//359
f 431//431 464//464 330//330
f 51//51 69//69 77//77
f 129//129 181//181 101//101
f 221//221 256//256 77//77
f 257//257 269//269 202//202
f 257//257 336//336 353//353
f 200//200 257//257 170//170
f 142//142 105//105 119//119
f 67//67 74//74 69//69
f 74//74 67//67 66//66
f 88//88 113//113 92//92
f 61//61 56//56 80//80
f 73//73 61//61 88//88
f 83//83 85//85 95//95
f 95//95 85//85 133//133
f 55//55 83//83 68//68
f 608//608 628//628 606//606
f 627//627 608//608 598//598
f 709//709 660//660 638//638
f 691//691 709//709 740//740
f 691//691 740//740 693//693
f 709//709 703//703 729//729
f 739//739 736//736 740//740
f 693//693 740//740 688//688
f 709//709 624//624 665//665
f 675//675 659//659 709//709
f 497//497 486//486 484//484
f 454//454 497//497 447//447
f 464//464 547//547 518//518
f 518//518 547//547 606//606
f 726//726 734//734 736//736
f 741//741 737//737 695//695
f 677//677 725//725 737//737
f 738//738 715//715 728//728
f 743//743 735//735 745//745
f 728//728 682//682 677//677
f 600//600 567//567 554//554
f 600//600 554//554 574//574
f 554//554 536//536 574//574
f 554//554 521//521 536//536
f 610//610 639//639 698//698
f 610//610 589//589 639//639
f 569//569 532//532 610//610
f 589//589 512//512 558//558
f 589//589 558//558 592//592
f 715//715 710//710 728//728
f 710//710 649//649 654//654
f 668//668 639//639 649//649
f 654//654 649//649 603//603
f 615//615 667//667 603//603
f 603//603 586//586 594//594
f 661//661 654//654 603//603
f 613//613 592//592 558//558
f 576//576 525//525 557//557
f 576//576 557//557 584//584
f 525//525 538//538 557//557
f 594//594 586//586 557//557
f 557//557 548//548 594//594
f 548//548 499//499 519//519
f 741//741 695//695 705//705
f 695//695 667//667 647//647
f 542//542 564//564 602//602
f 602//602 587//587 565//565
f 565//565 542//542 602//602
f 602//602 619//619 587//587
f 647//647 637//637 602//602
f 622//622 594//594 587//587
f 423//423 456//456 394//394
f 647//647 602//602 636//636
f 667//667 637//637 647//647
f 377//377 320//320 328//328
f 266//266 320//320 181//181
f 291//291 328//328 293//293
f 266//266 212//212 260//260
f 291//291 266//266 260//260
f 351//351 363//363 345//345
f 429//429 363//363 395//395
f 272//272 326//326 264//264
f 104//104 105//105 103//103
f 122//122 119//119 118//118
f 119//119 122//122 142//142
f 260//260 223//223 248//248
f 224//224 189//189 211//211
f 211//211 189//189 156//156
f 156//156 122//122 133//133
f 211//211 163//163 240//240
f 162//162 209//209 240//240
f 163//163 156//156 133//133
f 144//144 145//145 162//162
f 326//326 304//304 264//264
f 205//205 191//191 215//215
f 205//205 197//197 191//191
f 304//304 253//253 264//264
f 177//177 264//264 237//237
f 238//238 264//264 177//177
f 253//253 230//230 264//264
f 264//264 238//238 187//187
f 187//187 272//272 264//264
f 210//210 240//240 196//196
f 245//245 214//214 240//240
f 248//248 223//223 205//205
f 237//237 211//211 210//210
f 103//103 109//109 122//122
f 103//103 122//122 104//104
f 432//432 408//408 410//410
f 365//365 410//410 408//408
f 454//454 408//408 481//481
f 436//436 432//432 379//379
f 365//365 272//272 274//274
f 365//365 274//274 379//379
f 402//402 337//337 348//348
f 274//274 232//232 258//258
f 157//157 183//183 160//160
f 183//183 228//228 160//160
f 165//165 208//208 207//207
f 367//367 311//311 301//301
f 311//311 279//279 301//301
f 301//301 308//308 374//374
f 228//228 313//313 219//219
f 228//228 311//311 313//313
f 311//311 228//228 279//279
f 436//436 443//443 525//525
f 443//443 474//474 471//471
f 525//525 443//443 478//478
f 436//436 397//397 443//443
f 499//499 415//415 463//463
f 412//412 367//367 383//383
f 397//397 313//313 367//367
f 313//313 397//397 348//348
f 157//157 207//207 183//183
f 157//157 165//165 207//207
f 187//187 258//258 232//232
f 152//152 142//142 260//260
f 144//144 133//133 154//154
f 240//240 209//209 245//245
f 282//282 133//133 149//149
f 288//288 290//290 282//282
f 282//282 290//290 209//209
f 288//288 284//284 306//306
f 136//136 246//246 203//203
f 139//139 136//136 203//203
f 175//175 201//201 151//151
f 285//285 201//201 276//276
f 245//245 209//209 255//255
f 173//173 121//121 135//135
f 138//138 134//134 128//128
f 138//138 155//155 134//134
f 394//394 391//391 347//347
f 463//463 412//412 401//401
f 355//355 389//389 442//442
f 355//355 442//442 405//405
f 390//390 412//412 374//374
f 401//401 339//339 334//334
f 394//394 361//361 373//373
f 208//208 155//155 182//182
f 347//347 270//270 285//285
f 318//318 347//347 285//285
f 236//236 308//308 207//207
f 270//270 236//236 285//285
f 355//355 334//334 347//347
f 269//269 257//257 330//330
f 257//257 353//353 323//323
f 214//214 246//246 136//136
f 165//165 159//159 208//208
f 602//602 604//604 617//617
f 685//685 709//709 691//691
f 585//585 599//599 616//616
f 616//616 635//635 585//585
f 393//393 459//459 427//427
f 670//670 635//635 641//641
f 393//393 427//427 386//386
f 704//704 697//697 670//670
f 414//414 511//511 426//426
f 325//325 414//414 303//303
f 414//414 336//336 303//303
f 353//353 336//336 414//414
f 414//414 426//426 353//353
f 414//414 439//439 480//480
f 414//414 343//343 377//377
f 414//414 325//325 343//343
f 377//377 343//343 320//320
f 307//307 316//316 256//256
f 316//316 310//310 256//256
f 316//316 342//342 310//310
f 342//342 316//316 330//330
f 330//330 316//316 307//307
f 268//268 269//269 277//277
f 269//269 268//268 256//256
f 277//277 256//256 269//269
f 307//307 256//256 277//277
f 330//330 307//307 269//269
f 473//473 534//534 483//483
f 473//473 426//426 511//511
f 399//399 473//473 431//431
f 473//473 483//483 431//431
f 431//431 492//492 464//464
f 382//382 399//399 431//431
f 330//330 399//399 382//382
f 382//382 431//431 330//330
f 323//323 330//330 257//257
f 399//399 323//323 359//359
f 353//353 426//426 359//359
f 77//77 117//117 84//84
f 69//69 99//99 77//77
f 69//69 51//51 65//65
f 65//65 51//51 67//67
f 45//45 51//51 36//36
f 36//36 30//30 45//45
f 28//28 77//77 29//29
f 13//13 14//14 28//28
f 28//28 25//25 29//29
f 22//22 25//25 28//28
f 51//51 77//77 46//46
f 46//46 30//30 51//51
f 51//51 30//30 36//36
f 46//46 13//13 15//15
f 46//46 15//15 21//21
f 30//30 21//21 24//24
f 26//26 30//30 24//24
f 30//30 46//46 21//21
f 15//15 24//24 21//21
f 27//27 42//42 30//30
f 28//28 46//46 77//77
f 46//46 28//28 13//13
f 13//13 28//28 42//42
f 42//42 8//8 13//13
f 32//32 28//28 29//29
f 28//28 53//53 42//42
f 14//14 13//13 28//28
f 8//8 42//42 15//15
f 29//29 77//77 32//32
f 16//16 20//20 3//3
f 16//16 1//1 43//43
f 32//32 77//77 16//16
f 32//32 43//43 28//28
f 1//1 39//39 43//43
f 15//15 19//19 21//21
f 24//24 19//19 21//21
f 202//202 137//137 111//111
f 170//170 111//111 148//148
f 111//111 170//170 202//202
f 137//137 69//69 90//90
f 137//137 90//90 100//100
f 137//137 100//100 111//111
f 111//111 113//113 148//148
f 111//111 97//97 113//113
f 97//97 90//90 89//89
f 97//97 89//89 113//113
f 303//303 336//336 200//200
f 200//200 170//170 195//195
f 303//303 200//200 181//181
f 200//200 195//195 181//181
f 170//170 164//164 195//195
f 343//343 325//325 320//320
f 170//170 148//148 113//113
f 113//113 164//164 170//170
f 93//93 101//101 113//113
f 113//113 101//101 181//181
f 257//257 202//202 170//170
f 181//181 164//164 113//113
f 256//256 310//310 77//77
f 77//77 99//99 137//137
f 221//221 77//77 137//137
f 256//256 221//221 269//269
f 221//221 137//137 202//202
f 137//137 99//99 69//69
f 257//257 200//200 336//336
f 142//142 125//125 93//93
f 93//93 125//125 101//101
f 93//93 105//105 142//142
f 69//69 74//74 90//90
f 51//51 66//66 67//67
f 66//66 51//51 45//45
f 45//45 53//53 66//66
f 90//90 74//74 89//89
f 74//74 66//66 89//89
f 92//92 89//89 88//88
f 66//66 73//73 89//89
f 53//53 73//73 66//66
f 89//89 73//73 88//88
f 45//45 42//42 53//53
f 43//43 53//53 28//28
f 53//53 47//47 52//52
f 73//73 53//53 61//61
f 52//52 61//61 53//53
f 61//61 52//52 47//47
f 43//43 56//56 47//47
f 43//43 39//39 56//56
f 62//62 72//72 56//56
f 72//72 85//85 56//56
f 47//47 56//56 61//61
f 62//62 56//56 39//39
f 80//80 93//93 88//88
f 61//61 80//80 88//88
f 88//88 93//93 113//113
f 85//85 78//78 56//56
f 85//85 83//83 78//78
f 56//56 78//78 80//80
f 85//85 72//72 82//82
f 91//91 93//93 80//80
f 93//93 95//95 105//105
f 95//95 93//93 91//91
f 68//68 83//83 91//91
f 80//80 76//76 91//91
f 91//91 76//76 70//70
f 83//83 55//55 76//76
f 76//76 55//55 70//70
f 70//70 68//68 91//91
f 49//49 68//68 55//55
f 49//49 55//55 68//68
f 50//50 49//49 55//55
f 67//67 69//69 65//65
f 30//30 42//42 45//45
f 85//85 82//82 123//123
f 595//595 591//591 534//534
f 598//598 608//608 595//595
f 607//607 591//591 595//595
f 591//591 607//607 608//608
f 608//608 607//607 595//595
f 591//591 608//608 572//572
f 547//547 572//572 606//606
f 572//572 608//608 606//606
f 709//709 729//729 740//740
f 739//739 740//740 729//729
f 739//739 729//729 736//736
f 551//551 627//627 598//598
f 608//608 651//651 662//662
f 627//627 662//662 651//651
f 662//662 658//658 653//653
f 608//608 653//653 658//658
f 734//734 726//726 662//662
f 662//662 726//726 694//694
f 694//694 736//736 703//703
f 703//703 665//665 664//664
f 694//694 703//703 658//658
f 726//726 736//736 694//694
f 658//658 703//703 664//664
f 664//664 665//665 623//623
f 662//662 694//694 658//658
f 709//709 678//678 660//660
f 675//675 709//709 658//658
f 709//709 638//638 628//628
f 678//678 709//709 685//685
f 729//729 703//703 736//736
f 740//740 721//721 688//688
f 709//709 659//659 624//624
f 659//659 664//664 623//623
f 709//709 665//665 703//703
f 623//623 665//665 624//624
f 675//675 658//658 659//659
f 608//608 658//658 628//628
f 606//606 628//628 638//638
f 664//664 659//659 658//658
f 511//511 480//480 515//515
f 515//515 480//480 543//543
f 480//480 422//422 543//543
f 495//495 543//543 422//422
f 550//550 582//582 551//551
f 551//551 541//541 550//550
f 598//598 495//495 540//540
f 495//495 550//550 551//551
f 551//551 598//598 540//540
f 414//414 377//377 439//439
f 439//439 377//377 480//480
f 422//422 407//407 392//392
f 422//422 392//392 434//434
f 369//369 384//384 392//392
f 377//377 392//392 407//407
f 476//476 486//486 461//461
f 488//488 466//466 434//434
f 434//434 486//486 488//488
f 466//466 488//488 495//495
f 422//422 434//434 495//495
f 466//466 495//495 434//434
f 488//488 486//486 495//495
f 392//392 384//384 434//434
f 486//486 434//434 451//451
f 451//451 434//434 384//384
f 461//461 486//486 451//451
f 407//407 480//480 377//377
f 627//627 551//551 582//582
f 582//582 567//567 578//578
f 627//627 582//582 578//578
f 497//497 554//554 567//567
f 550//550 486//486 567//567
f 582//582 550//550 567//567
f 627//627 578//578 643//643
f 643//643 578//578 600//600
f 600//600 578//578 567//567
f 467//467 451//451 497//497
f 461//461 451//451 467//467
f 476//476 461//461 467//467
f 486//486 497//497 567//567
f 497//497 451//451 447//447
f 416//416 429//429 447//447
f 447//447 451//451 416//416
f 497//497 527//527 554//554
f 527//527 497//497 530//530
f 497//497 521//521 516//516
f 521//521 527//527 530//530
f 497//497 516//516 530//530
f 550//550 495//495 486//486
f 530//530 516//516 521//521
f 515//515 543//543 511//511
f 511//511 543//543 595//595
f 572//572 547//547 534//534
f 492//492 534//534 547//547
f 483//483 534//534 492//492
f 543//543 598//598 595//595
f 543//543 495//495 598//598
f 662//662 627//627 734//734
f 627//627 701//701 734//734
f 686//686 701//701 627//627
f 701//701 706//706 734//734
f 734//734 706//706 724//724
f 724//724 706//706 698//698
f 706//706 683//683 698//698
f 701//701 686//686 706//706
f 746//746 721//721 740//740
f 740//740 736//736 746//746
f 736//736 745//745 746//746
f 744//744 734//734 745//745
f 732//732 743//743 742//742
f 745//745 732//732 742//742
f 734//734 724//724 732//732
f 724//724 698//698 732//732
f 734//734 732//732 745//745
f 721//721 746//746 741//741
f 745//745 742//742 743//743
f 746//746 745//745 741//741
f 737//737 725//725 695//695
f 745//745 737//737 741//741
f 677//677 667//667 725//725
f 698//698 715//715 738//738
f 745//745 735//735 737//737
f 738//738 728//728 743//743
f 728//728 677//677 743//743
f 677//677 735//735 743//743
f 677//677 737//737 735//735
f 732//732 698//698 743//743
f 643//643 686//686 627//627
f 600//600 655//655 643//643
f 655//655 600//600 620//620
f 600//600 574//574 620//620
f 643//643 655//655 671//671
f 671//671 655//655 706//706
f 706//706 655//655 683//683
f 625//625 620//620 610//610
f 620//620 625//625 655//655
f 625//625 610//610 655//655
f 620//620 569//569 610//610
f 521//521 509//509 536//536
f 574//574 536//536 509//509
f 497//497 454//454 521//521
f 454//454 447//447 429//429
f 574//574 509//509 569//569
f 569//569 509//509 532//532
f 505//505 532//532 509//509
f 509//509 481//481 505//505
f 655//655 698//698 683//683
f 639//639 710//710 698//698
f 710//710 715//715 698//698
f 655//655 610//610 698//698
f 610//610 532//532 589//589
f 589//589 592//592 639//639
f 532//532 505//505 589//589
f 512//512 589//589 505//505
f 512//512 505//505 500//500
f 569//569 620//620 574//574
f 562//562 519//519 561//561
f 639//639 668//668 710//710
f 668//668 649//649 710//710
f 639//639 633//633 649//649
f 613//613 633//633 592//592
f 592//592 633//633 639//639
f 576//576 649//649 596//596
f 596//596 649//649 613//613
f 649//649 633//633 613//613
f 654//654 661//661 682//682
f 677//677 661//661 667//667
f 661//661 677//677 682//682
f 649//649 576//576 603//603
f 576//576 584//584 603//603
f 615//615 594//594 622//622
f 615//615 622//622 667//667
f 576//576 613//613 558//558
f 576//576 544//544 525//525
f 512//512 523//523 558//558
f 558//558 523//523 544//544
f 523//523 525//525 544//544
f 576//576 596//596 613//613
f 594//594 548//548 562//562
f 562//562 548//548 519//519
f 584//584 557//557 586//586
f 538//538 525//525 471//471
f 538//538 548//548 557//557
f 538//538 474//474 548//548
f 538//538 471//471 474//474
f 445//445 499//499 548//548
f 474//474 445//445 548//548
f 499//499 463//463 490//490
f 584//584 586//586 603//603
f 527//527 521//521 554//554
f 534//534 591//591 572//572
f 654//654 728//728 710//710
f 676//676 695//695 681//681
f 695//695 676//676 705//705
f 645//645 666//666 647//647
f 695//695 647//647 681//681
f 647//647 666//666 681//681
f 667//667 695//695 725//725
f 604//604 602//602 588//588
f 535//535 542//542 565//565
f 602//602 556//556 588//588
f 564//564 556//556 602//602
f 542//542 556//556 564//564
f 622//622 637//637 667//667
f 619//619 637//637 622//622
f 619//619 622//622 587//587
f 619//619 602//602 637//637
f 587//587 561//561 565//565
f 561//561 535//535 565//565
f 594//594 562//562 561//561
f 594//594 561//561 587//587
f 535//535 502//502 542//542
f 542//542 502//502 504//504
f 491//491 449//449 507//507
f 502//502 491//491 504//504
f 502//502 494//494 442//442
f 442//442 491//491 502//502
f 442//442 456//456 491//491
f 491//491 423//423 449//449
f 491//491 456//456 423//423
f 394//394 449//449 423//423
f 394//394 387//387 449//449
f 391//391 394//394 456//456
f 391//391 456//456 442//442
f 494//494 502//502 535//535
f 494//494 535//535 519//519
f 494//494 458//458 442//442
f 442//442 458//458 421//421
f 499//499 490//490 519//519
f 453//453 494//494 490//490
f 453//453 458//458 494//494
f 328//328 356//356 369//369
f 377//377 328//328 369//369
f 266//266 328//328 320//320
f 181//181 243//243 266//266
f 243//243 212//212 266//266
f 369//369 363//363 384//384
f 369//369 356//356 363//363
f 363//363 356//356 328//328
f 266//266 291//291 293//293
f 328//328 304//304 340//340
f 212//212 129//129 152//152
f 129//129 101//101 152//152
f 212//212 152//152 260//260
f 416//416 451//451 384//384
f 416//416 384//384 363//363
f 363//363 328//328 345//345
f 328//328 340//340 345//345
f 351//351 340//340 304//304
f 351//351 304//304 326//326
f 429//429 395//395 408//408
f 416//416 363//363 429//429
f 371//371 351//351 332//332
f 363//363 351//351 371//371
f 351//351 326//326 332//332
f 395//395 363//363 371//371
f 371//371 332//332 365//365
f 332//332 326//326 365//365
f 125//125 142//142 152//152
f 105//105 118//118 115//115
f 122//122 156//156 142//142
f 118//118 114//114 122//122
f 142//142 194//194 223//223
f 142//142 223//223 260//260
f 211//211 235//235 224//224
f 235//235 211//211 237//237
f 194//194 205//205 217//217
f 224//224 222//222 223//223
f 197//197 205//205 168//168
f 205//205 166//166 168//168
f 142//142 156//156 194//194
f 205//205 156//156 166//166
f 156//156 189//189 166//166
f 205//205 194//194 156//156
f 205//205 223//223 217//217
f 109//109 103//103 105//105
f 95//95 109//109 105//105
f 95//95 133//133 109//109
f 109//109 133//133 122//122
f 133//133 144//144 162//162
f 156//156 163//163 211//211
f 133//133 162//162 163//163
f 163//163 162//162 240//240
f 162//162 150//150 173//173
f 127//127 150//150 162//162
f 127//127 162//162 141//141
f 162//162 145//145 141//141
f 248//248 304//304 260//260
f 304//304 248//248 253//253
f 248//248 205//205 253//253
f 205//205 215//215 230//230
f 230//230 224//224 235//235
f 237//237 230//230 235//235
f 215//215 189//189 230//230
f 230//230 189//189 224//224
f 189//189 215//215 191//191
f 237//237 210//210 177//177
f 264//264 230//230 237//237
f 166//166 191//191 168//168
f 189//189 191//191 166//166
f 238//238 177//177 187//187
f 187//187 177//177 160//160
f 177//177 146//146 160//160
f 160//160 258//258 187//187
f 240//240 210//210 211//211
f 245//245 246//246 214//214
f 196//196 240//240 214//214
f 196//196 214//214 172//172
f 146//146 196//196 147//147
f 210//210 196//196 146//146
f 147//147 172//172 136//136
f 138//138 128//128 139//139
f 136//136 139//139 128//128
f 173//173 150//150 127//127
f 210//210 146//146 177//177
f 146//146 136//136 128//128
f 128//128 160//160 146//146
f 160//160 128//128 157//157
f 128//128 134//134 165//165
f 429//429 408//408 454//454
f 410//410 365//365 432//432
f 371//371 365//365 408//408
f 509//509 454//454 481//481
f 432//432 505//505 481//481
f 436//436 505//505 432//432
f 365//365 379//379 432//432
f 379//379 402//402 436//436
f 395//395 371//371 408//408
f 436//436 500//500 505//505
f 365//365 326//326 272//272
f 436//436 523//523 512//512
f 160//160 219//219 258//258
f 379//379 274//274 337//337
f 337//337 402//402 379//379
f 337//337 258//258 313//313
f 219//219 313//313 258//258
f 274//274 258//258 337//337
f 367//367 313//313 311//311
f 207//207 279//279 228//228
f 279//279 207//207 301//301
f 207//207 308//308 301//301
f 207//207 228//228 183//183
f 523//523 436//436 525//525
f 478//478 469//469 525//525
f 443//443 471//471 478//478
f 478//478 471//471 469//469
f 397//397 436//436 402//402
f 397//397 474//474 443//443
f 419//419 445//445 474//474
f 463//463 415//415 428//428
f 415//415 412//412 428//428
f 499//499 445//445 415//415
f 415//415 445//445 419//419
f 367//367 415//415 419//419
f 367//367 412//412 415//415
f 383//383 367//367 381//381
f 412//412 383//383 381//381
f 301//301 381//381 367//367
f 381//381 301//301 374//374
f 348//348 397//397 402//402
f 272//272 232//232 274//274
f 114//114 104//104 122//122
f 146//146 147//147 136//136
f 101//101 125//125 152//152
f 282//282 209//209 133//133
f 149//149 133//133 123//123
f 154//154 209//209 173//173
f 133//133 209//209 154//154
f 173//173 135//135 154//154
f 141//141 145//145 127//127
f 145//145 135//135 124//124
f 154//154 135//135 145//145
f 241//241 246//246 255//255
f 306//306 241//241 290//290
f 241//241 306//306 225//225
f 209//209 290//290 255//255
f 306//306 284//284 225//225
f 288//288 306//306 290//290
f 203//203 246//246 241//241
f 175//175 203//203 225//225
f 175//175 225//225 190//190
f 203//203 151//151 139//139
f 203//203 175//175 151//151
f 201//201 234//234 276//276
f 138//138 151//151 155//155
f 151//151 201//201 155//155
f 138//138 139//139 151//151
f 234//234 201//201 193//193
f 276//276 234//234 297//297
f 282//282 284//284 288//288
f 135//135 124//124 132//132
f 124//124 108//108 127//127
f 108//108 110//110 127//127
f 127//127 110//110 121//121
f 121//121 108//108 124//124
f 108//108 121//121 110//110
f 134//134 155//155 165//165
f 442//442 389//389 375//375
f 375//375 347//347 391//391
f 442//442 375//375 391//391
f 318//318 276//276 394//394
f 401//401 405//405 421//421
f 412//412 463//463 428//428
f 401//401 453//453 463//463
f 463//463 453//453 490//490
f 401//401 412//412 390//390
f 355//355 405//405 401//401
f 421//421 405//405 442//442
f 339//339 401//401 390//390
f 335//335 339//339 390//390
f 401//401 334//334 355//355
f 355//355 375//375 389//389
f 355//355 347//347 375//375
f 373//373 387//387 394//394
f 394//394 344//344 361//361
f 394//394 297//297 344//344
f 394//394 276//276 297//297
f 276//276 318//318 285//285
f 155//155 208//208 159//159
f 182//182 236//236 208//208
f 285//285 182//182 201//201
f 308//308 339//339 335//335
f 334//334 308//308 236//236
f 308//308 334//334 339//339
f 334//334 270//270 347//347
f 208//208 236//236 207//207
f 285//285 236//236 182//182
f 236//236 270//270 334//334
f 155//155 159//159 165//165
f 155//155 201//201 182//182
f 303//303 181//181 320//320
f 392//392 377//377 369//369
f 525//525 469//469 471//471
f 458//458 453//453 401//401
f 85//85 123//123 133//133
f 721//721 705//705 713//713
f 162//162 173//173 209//209
f 374//374 308//308 335//335
f 721//721 713//713 688//688
f 77//77 310//310 117//117
f 16//16 3//3 1//1
f 225//225 284//284 190//190
f 84//84 20//20 77//77
f 330//330 464//464 342//342
f 676//676 713//713 705//705
f 278//278 286//286 287//287
f 480//480 511//511 414//414
f 393//393 386//386 354//354
f 269//269 268//268 277//277
f 256//256 268//268 269//269
f 269//269 307//307 277//277
f 511//511 534//534 473//473
f 431//431 483//483 492//492
f 323//323 399//399 330//330
f 399//399 426//426 473//473
f 399//399 359//359 426//426
f 24//24 42//42 27//27
f 24//24 15//15 42//42
f 28//28 29//29 25//25
f 22//22 28//28 25//25
f 21//21 19//19 24//24
f 8//8 10//10 13//13
f 8//8 15//15 10//10
f 10//10 15//15 13//13
f 20//20 16//16 77//77
f 32//32 16//16 43//43
f 26//26 27//27 30//30
f 26//26 24//24 27//27
f 476//476 467//467 484//484
f 15//15 21//21 19//19
f 90//90 97//97 100//100
f 97//97 111//111 100//100
f 164//164 181//181 195//195
f 320//320 325//325 303//303
f 181//181 129//129 212//212
f 202//202 269//269 221//221
f 113//113 89//89 92//92
f 53//53 43//43 47//47
f 76//76 80//80 78//78
f 83//83 76//76 78//78
f 83//83 95//95 91//91
f 55//55 68//68 70//70
f 55//55 49//49 50//50
f 608//608 627//627 651//651
f 653//653 608//608 662//662
f 628//628 658//658 709//709
f 623//623 624//624 659//659
f 551//551 550//550 541//541
f 540//540 495//495 551//551
f 422//422 480//480 407//407
f 476//476 484//484 486//486
f 467//467 497//497 484//484
f 595//595 534//534 511//511
f 492//492 547//547 464//464
f 736//736 744//744 745//745
f 734//734 744//744 736//736
f 721//721 741//741 705//705
f 698//698 738//738 743//743
f 671//671 686//686 643//643
f 454//454 509//509 521//521
f 594//594 615//615 603//603
f 603//603 667//667 661//661
f 576//576 558//558 544//544
f 671//671 706//706 686//686
f 654//654 682//682 728//728
f 507//507 504//504 491//491
f 647//647 636//636 645//645
f 617//617 636//636 602//602
f 556//556 542//542 507//507
f 507//507 542//542 504//504
f 519//519 535//535 561//561
f 494//494 519//519 490//490
f 293//293 328//328 266//266
f 291//291 304//304 328//328
f 291//291 260//260 304//304
f 212//212 243//243 181//181
f 340//340 351//351 345//345
f 115//115 118//118 105//105
f 118//118 119//119 105//105
f 115//115 105//105 119//119
f 104//104 118//118 105//105
f 104//104 115//115 118//118
f 223//223 217//217 222//222
f 105//105 115//115 119//119
f 104//104 114//114 118//118
f 104//104 118//118 115//115
f 224//224 223//223 235//235
f 223//223 224//224 235//235
f 217//217 223//223 194//194
f 224//224 223//223 222//222
f 217//217 223//223 222//222
f 419//419 397//397 367//367
f 419//419 474//474 397//397
f 230//230 253//253 205//205
f 232//232 272//272 187//187
f 147//147 196//196 172//172
f 136//136 172//172 214//214
f 191//191 197//197 168//168
f 165//165 157//157 128//128
f 408//408 432//432 481//481
f 512//512 500//500 436//436
f 313//313 348//348 337//337
f 412//412 381//381 374//374
f 219//219 160//160 228//228
f 145//145 144//144 154//154
f 124//124 135//135 132//132
f 124//124 127//127 145//145
f 246//246 245//245 255//255
f 241//241 255//255 290//290
f 203//203 241//241 225//225
f 193//193 175//175 190//190
f 201//201 175//175 193//193
f 121//121 173//173 127//127
f 121//121 124//124 135//135
f 394//394 347//347 318//318
f 458//458 401//401 421//421
f 390//390 374//374 335//335
f 440//440 362//362 324//324
f 4//4 5//5 2//2
f 670//670 708//708 704//704
f 635//635 648//648 641//641
f 549//549 553//553 560//560
f 98//98 131//131 140//140
f 186//186 218//218 262//262
f 17//17 18//18 2//2
f 631//631 612//612 609//609
f 692//692 714//714 679//679
f 717//717 712//712 696//696
f 679//679 673//673 631//631
f 571//571 529//529 503//503
f 704//704 720//720 717//717
f 641//641 652//652 670//670
f 599//599 605//605 635//635
f 560//560 563//563 585//585
f 459//459 496//496 508//508
f 393//393 425//425 459//459
f 278//278 298//298 286//286
f 287//287 281//281 252//252
f 252//252 249//249 186//186
f 354//354 358//358 393//393
f 262//262 331//331 354//354
f 2//2 9//9 33//33
f 696//696 719//719 692//692
f 424//424 440//440 457//457
f 440//440 503//503 493//493
f 362//362 440//440 404//404
f 63//63 116//116 107//107
f 17//17 63//63 54//54
f 4//4 2//2 12//12
f 7//7 2//2 6//6
f 60//60 40//40 48//48
f 102//102 98//98 96//96
f 632//632 631//631 646//646
f 722//722 692//692 723//723
f 730//730 717//717 720//720
f 708//708 670//670 700//700
f 648//648 635//635 642//642
f 553//553 549//549 546//546
f 460//460 459//459 450//450
f 271//271 278//278 247//247
f 131//131 98//98 112//112
f 218//218 186//186 204//204
f 171//171 324//324 309//309
f 319//319 324//324 350//350
f 40//40 33//33 37//37
f 79//79 60//60 71//71
f 612//612 631//631 629//629
f 714//714 692//692 718//718
f 712//712 717//717 727//727
f 552//552 571//571 566//566
f 529//529 571//571 552//552
f 680//680 670//670 674//674
f 496//496 459//459 489//489
f 425//425 393//393 406//406
f 549//549 508//508 520//520
f 298//298 278//278 296//296
f 287//287 286//286 298//298
f 281//281 287//287 295//295
f 242//242 262//262 227//227
f 283//283 262//262 263//263
f 204//204 186//186 199//199
f 322//322 262//262 317//317
f 331//331 262//262 322//322
f 406//406 393//393 400//400
f 309//309 324//324 315//315
f 23//23 17//17 34//34
f 64//64 63//63 75//75
f 689//689 670//670 690//690
f 299//299 287//287 300//300
f 324//324 360//360 350//350
f 440//440 465//465 457//457
f 440//440 413//413 404//404
f 116//116 120//120 107//107
f 63//63 87//87 75//75
f 2//2 5//5 6//6
f 63//63 57//57 54//54
f 171//171 226//226 174//174
f 60//60 58//58 71//71
f 692//692 722//722 718//718
f 670//670 657//657 674//674
f 585//585 581//581 583//583
f 508//508 514//514 520//520
f 459//459 441//441 450//450
f 459//459 425//425 438//438
f 98//98 102//102 106//106
f 98//98 106//106 112//112
f 278//278 289//289 296//296
f 287//287 299//299 295//295
f 252//252 251//251 250//250
f 262//262 242//242 263//263
f 393//393 376//376 388//388
f 324//324 362//362 360//360
f 324//324 319//319 315//315
f 440//440 418//418 413//413
f 17//17 35//35 34//34
f 33//33 11//11 31//31
f 63//63 59//59 57//57
f 63//63 64//64 59//59
f 33//33 38//38 37//37
f 40//40 41//41 44//44
f 79//79 81//81 86//86
f 631//631 663//663 646//646
f 571//571 573//573 566//566
f 717//717 730//730 733//733
f 717//717 733//733 731//731
f 670//670 680//680 690//690
f 635//635 630//630 642//642
f 635//635 618//618 630//630
f 585//585 580//580 581//581
f 459//459 460//460 489//489
f 459//459 438//438 441//441
f 278//278 176//176 247//247
f 186//186 185//185 179//179
f 262//262 218//218 227//227
f 186//186 180//180 199//199
f 186//186 179//179 180//180
f 278//278 271//271 289//289
f 393//393 388//388 400//400
f 262//262 283//283 317//317
f 98//98 94//94 96//96
f 440//440 424//424 418//418
f 631//631 632//632 629//629
f 670//670 689//689 700//700
f 252//252 250//250 249//249
