# convertido de flygym/NeuroMechFly (c_rostrum)
v -0.37793 0.00000 -0.04260
v -0.37782 0.00000 -0.04884
v -0.37668 0.00000 -0.03042
v -0.37562 0.00000 -0.03358
v -0.37544 0.00000 -0.04012
v -0.37399 0.00000 -0.03903
v -0.37370 0.00000 -0.04865
v -0.37267 0.00000 -0.02480
v -0.37244 0.00000 -0.03716
v -0.37171 0.00000 -0.02741
v -0.37093 0.00000 -0.04284
v -0.37055 0.00000 -0.05360
v -0.36891 0.00000 -0.06992
v -0.36788 0.00000 -0.01612
v -0.36770 0.00000 -0.07131
v -0.36694 0.00000 -0.07321
v -0.36294 0.00000 -0.05060
v -0.36266 0.00000 -0.00060
v -0.36151 0.00000 -0.00928
v -0.36140 0.00000 -0.00439
v -0.35914 0.00000 0.00180
v -0.35670 0.00000 -0.01932
v -0.35499 0.00000 -0.00534
v -0.35350 0.00000 0.00155
v -0.35165 0.00000 0.00980
v -0.35162 0.00000 -0.10263
v -0.35100 0.00000 0.00798
v -0.35060 0.00000 -0.09724
v -0.35006 0.00000 -0.00254
v -0.34998 0.00000 -0.01933
v -0.34936 0.00000 -0.07784
v -0.34930 0.00000 0.01388
v -0.34799 0.00000 -0.10971
v -0.34237 -0.10219 -0.06632
v -0.34237 0.10219 -0.06632
v -0.34117 -0.12022 -0.07054
v -0.34117 0.12022 -0.07054
v -0.34039 0.00000 0.03264
v -0.33920 0.00000 0.03380
v -0.33675 0.00000 0.01886
v -0.33340 -0.12091 -0.08339
v -0.33340 0.12091 -0.08339
v -0.33336 0.00000 -0.11691
v -0.33255 0.00000 -0.12885
v -0.33096 0.00000 0.02265
v -0.33069 -0.10905 -0.04996
v -0.33069 0.10905 -0.04996
v -0.33025 0.00000 0.02246
v -0.32943 0.00000 -0.12110
v -0.32792 0.00000 0.05103
v -0.32699 0.00000 -0.12302
v -0.32533 0.00000 0.05564
v -0.32478 -0.14628 -0.08597
v -0.32478 0.14628 -0.08597
v -0.32341 -0.14985 -0.06817
v -0.32341 0.14985 -0.06817
v -0.32146 0.00000 0.03341
v -0.32117 0.00000 0.06206
v -0.32116 0.00000 -0.11746
v -0.31854 0.00000 0.01969
v -0.31514 -0.12979 -0.04297
v -0.31514 0.12979 -0.04297
v -0.31298 0.00000 0.00619
v -0.31285 0.00000 -0.14319
v -0.31211 -0.10834 -0.02672
v -0.31211 0.10834 -0.02672
v -0.30974 0.00000 0.07749
v -0.30903 0.00000 0.05614
v -0.30725 0.00000 0.06741
v -0.30714 0.00000 0.08022
v -0.30698 0.00000 0.07849
v -0.30604 0.00000 -0.12540
v -0.30521 0.00000 0.06882
v -0.30508 0.00000 0.02018
v -0.30435 0.00000 0.08206
v -0.30266 0.00000 0.06168
v -0.30091 0.00000 0.08440
v -0.30054 0.00000 -0.14318
v -0.29734 0.00000 -0.14556
v -0.29721 0.00000 -0.14565
v -0.29340 0.00000 0.07519
v -0.29295 -0.13274 -0.01081
v -0.29295 0.13274 -0.01081
v -0.29188 0.00000 -0.14949
v -0.28978 0.00000 0.06619
v -0.28949 -0.15248 -0.11868
v -0.28949 0.15248 -0.11868
v -0.28907 0.00000 0.05105
v -0.28873 0.00000 -0.14569
v -0.28830 -0.15964 -0.07456
v -0.28830 0.15964 -0.07456
v -0.28815 0.00000 0.09518
v -0.28552 0.00000 0.09752
v -0.28476 -0.12015 0.02058
v -0.28476 0.12015 0.02058
v -0.28426 -0.14914 -0.04512
v -0.28426 0.14914 -0.04512
v -0.28312 0.00000 -0.15538
v -0.28245 0.00000 0.10108
v -0.28003 0.00000 0.07752
v -0.27840 0.00000 0.10625
v -0.27816 0.00000 0.09120
v -0.27728 0.00000 0.09776
v -0.27711 0.00000 -0.16285
v -0.27465 -0.10172 0.06777
v -0.27465 0.10172 0.06777
v -0.27464 0.00000 0.11059
v -0.27388 -0.10860 0.08442
v -0.27388 0.10860 0.08442
v -0.27325 0.00000 -0.12306
v -0.27290 0.00000 0.11190
v -0.27224 -0.13576 0.00921
v -0.27224 0.13576 0.00921
v -0.27088 -0.12361 0.04544
v -0.27088 0.12361 0.04544
v -0.27044 0.00000 0.11506
v -0.27006 0.00000 0.11544
v -0.26999 -0.10819 0.09956
v -0.26999 0.10819 0.09956
v -0.26986 0.00000 0.11548
v -0.26963 -0.13046 0.11769
v -0.26963 0.13046 0.11769
v -0.26963 -0.13707 0.07580
v -0.26963 0.13707 0.07580
v -0.26892 0.00000 -0.16647
v -0.26889 0.00000 0.09799
v -0.26888 -0.15976 -0.09291
v -0.26888 0.15976 -0.09291
v -0.26800 0.00000 -0.16705
v -0.26762 0.00000 -0.16825
v -0.26703 0.00000 0.12047
v -0.26701 0.00000 -0.16855
v -0.26701 -0.12259 0.12892
v -0.26701 0.12259 0.12892
v -0.26636 -0.13578 0.09643
v -0.26636 0.13578 0.09643
v -0.26589 0.00000 -0.16325
v -0.26550 0.00000 -0.14906
v -0.26518 -0.11527 0.14271
v -0.26518 0.11527 0.14271
v -0.26490 -0.13917 0.06730
v -0.26490 0.13917 0.06730
v -0.26478 0.00000 0.11418
v -0.26432 0.00000 -0.17171
v -0.26409 0.00000 0.12000
v -0.26242 -0.14538 0.01272
v -0.26242 0.14538 0.01272
v -0.26208 0.00000 -0.16924
v -0.25999 0.00000 -0.17405
v -0.25951 -0.15467 -0.08161
v -0.25951 0.15467 -0.08161
v -0.25927 -0.14214 0.05327
v -0.25927 0.14214 0.05327
v -0.25842 0.00000 -0.17456
v -0.25838 -0.11586 0.14460
v -0.25838 0.11586 0.14460
v -0.25789 0.00000 0.13129
v -0.25752 0.00000 -0.17540
v -0.25728 0.00000 0.13984
v -0.25723 0.00000 -0.17545
v -0.25684 0.00000 0.14173
v -0.25682 0.00000 -0.17389
v -0.25600 -0.15087 -0.13306
v -0.25600 0.15087 -0.13306
v -0.25581 -0.14382 -0.00478
v -0.25581 0.14382 -0.00478
v -0.25512 0.00000 0.11193
v -0.25509 0.00000 0.13395
v -0.25470 -0.13977 -0.04188
v -0.25470 0.13977 -0.04188
v -0.25454 0.00000 0.14128
v -0.25420 0.00000 0.11389
v -0.25387 0.00000 0.11047
v -0.25292 0.00000 0.14312
v -0.25185 0.00000 0.11006
v -0.25180 -0.13735 -0.04811
v -0.25180 0.13735 -0.04811
v -0.25144 0.00000 -0.15990
v -0.25066 0.00000 -0.16836
v -0.25063 -0.11160 0.16808
v -0.25063 0.11160 0.16808
v -0.25017 -0.14511 0.02275
v -0.25017 0.14511 0.02275
v -0.24911 -0.14628 -0.14335
v -0.24911 0.14628 -0.14335
v -0.24884 0.00000 0.11232
v -0.24878 -0.12580 0.15994
v -0.24878 0.12580 0.15994
v -0.24859 0.00000 -0.15077
v -0.24833 -0.13767 -0.06067
v -0.24833 0.13767 -0.06067
v -0.24799 0.00000 0.16133
v -0.24648 -0.11549 0.17572
v -0.24648 0.11549 0.17572
v -0.24615 0.00000 -0.16589
v -0.24584 0.00000 -0.16831
v -0.24533 0.00000 0.15929
v -0.24457 -0.11870 -0.14398
v -0.24457 0.11870 -0.14398
v -0.24253 -0.13949 -0.03431
v -0.24253 0.13949 -0.03431
v -0.24178 0.00000 0.11489
v -0.24152 0.00000 0.16888
v -0.24143 -0.10066 0.15828
v -0.24143 0.10066 0.15828
v -0.24052 -0.13663 -0.14943
v -0.24052 0.13663 -0.14943
v -0.23913 -0.13130 0.17325
v -0.23913 0.13130 0.17325
v -0.23898 0.00000 0.17131
v -0.23880 0.00000 0.17164
v -0.23860 -0.14960 -0.10689
v -0.23860 0.14960 -0.10689
v -0.23834 -0.15947 -0.13524
v -0.23834 0.15947 -0.13524
v -0.23817 -0.13173 -0.09020
v -0.23817 0.13173 -0.09020
v -0.23794 0.00000 0.13443
v -0.23784 0.00000 0.14222
v -0.23708 -0.12734 0.19795
v -0.23708 0.12734 0.19795
v -0.23542 0.00000 -0.15580
v -0.23474 -0.13752 -0.10141
v -0.23474 0.13752 -0.10141
v -0.23420 0.00000 0.13036
v -0.23391 0.00000 0.15567
v -0.23370 -0.12399 0.09580
v -0.23370 0.12399 0.09580
v -0.23369 -0.13097 0.03676
v -0.23369 0.13097 0.03676
v -0.23324 -0.12713 0.19487
v -0.23324 0.12713 0.19487
v -0.23250 0.00000 0.13908
v -0.23239 0.00000 -0.15901
v -0.23115 0.00000 -0.14588
v -0.23114 -0.12405 -0.10467
v -0.23114 0.12405 -0.10467
v -0.23099 0.00000 0.17732
v -0.22976 0.00000 -0.13600
v -0.22969 0.00000 -0.15228
v -0.22968 -0.11087 0.15812
v -0.22968 0.11087 0.15812
v -0.22841 0.00000 -0.15141
v -0.22837 0.00000 -0.15134
v -0.22765 -0.11583 0.20016
v -0.22765 0.11583 0.20016
v -0.22756 0.00000 0.12990
v -0.22731 0.00000 -0.16117
v -0.22673 -0.12912 -0.01604
v -0.22673 0.12912 -0.01604
v -0.22576 -0.13345 0.13908
v -0.22576 0.13345 0.13908
v -0.22544 -0.12289 -0.09954
v -0.22544 0.12289 -0.09954
v -0.22539 0.00000 0.18220
v -0.22408 -0.13121 -0.04755
v -0.22408 0.13121 -0.04755
v -0.22370 0.00000 0.18389
v -0.22335 -0.17481 -0.15267
v -0.22335 0.17481 -0.15267
v -0.22260 0.00000 -0.15823
v -0.22248 0.00000 0.18604
v -0.22230 0.00000 0.18738
v -0.22218 0.00000 0.16187
v -0.21836 0.00000 0.19252
v -0.21750 -0.16002 -0.18496
v -0.21750 0.16002 -0.18496
v -0.21672 0.00000 -0.16184
v -0.21602 -0.18034 -0.16333
v -0.21602 0.18034 -0.16333
v -0.21574 0.00000 -0.14505
v -0.21570 -0.18004 -0.15480
v -0.21570 0.18004 -0.15480
v -0.21512 -0.18411 -0.16431
v -0.21512 0.18411 -0.16431
v -0.21501 -0.18690 -0.16520
v -0.21501 0.18690 -0.16520
v -0.21492 -0.18856 -0.16628
v -0.21492 0.18856 -0.16628
v -0.21482 0.00000 0.20013
v -0.21461 0.00000 0.19977
v -0.21410 -0.18398 -0.16213
v -0.21410 0.18398 -0.16213
v -0.21298 -0.11413 -0.16647
v -0.21298 0.11413 -0.16647
v -0.21208 -0.12799 -0.01313
v -0.21208 0.12799 -0.01313
v -0.21186 0.00000 0.20292
v -0.21146 0.00000 0.14761
v -0.21082 -0.11781 0.00726
v -0.21082 0.11781 0.00726
v -0.20993 0.00000 0.13748
v -0.20936 -0.18909 -0.16211
v -0.20936 0.18909 -0.16211
v -0.20808 -0.12439 0.04099
v -0.20808 0.12439 0.04099
v -0.20567 -0.10359 -0.15357
v -0.20567 0.10359 -0.15357
v -0.20566 -0.11150 -0.12291
v -0.20566 0.11150 -0.12291
v -0.20530 -0.14949 0.19931
v -0.20530 0.14949 0.19931
v -0.20476 0.00000 0.20999
v -0.20428 -0.11217 0.01950
v -0.20428 0.11217 0.01950
v -0.20426 0.00000 0.18046
v -0.20389 -0.12255 0.19441
v -0.20389 0.12255 0.19441
v -0.20248 -0.10850 -0.09928
v -0.20248 0.10850 -0.09928
v -0.20155 -0.12786 0.08783
v -0.20155 0.12786 0.08783
v -0.20141 -0.15279 0.17602
v -0.20141 0.15279 0.17602
v -0.20095 -0.19076 -0.18385
v -0.20095 0.19076 -0.18385
v -0.20069 0.00000 -0.16892
v -0.20066 -0.14407 0.22500
v -0.20066 0.14407 0.22500
v -0.20044 -0.12624 0.05460
v -0.20044 0.12624 0.05460
v -0.19987 0.00000 0.21545
v -0.19921 -0.12338 -0.07578
v -0.19921 0.12338 -0.07578
v -0.19906 -0.18696 -0.19446
v -0.19906 0.18696 -0.19446
v -0.19865 0.00000 -0.17161
v -0.19790 -0.19658 -0.18161
v -0.19790 0.19658 -0.18161
v -0.19784 -0.12581 -0.12860
v -0.19784 0.12581 -0.12860
v -0.19729 -0.16802 -0.13605
v -0.19729 0.16802 -0.13605
v -0.19701 -0.15450 0.22437
v -0.19701 0.15450 0.22437
v -0.19689 -0.20681 -0.19054
v -0.19689 0.20681 -0.19054
v -0.19689 -0.20564 -0.18669
v -0.19689 0.20564 -0.18669
v -0.19639 0.00000 -0.16873
v -0.19590 0.00000 -0.12167
v -0.19586 0.00000 0.21664
v -0.19557 -0.16032 0.20937
v -0.19557 0.16032 0.20937
v -0.19556 -0.15787 0.22173
v -0.19556 0.15787 0.22173
v -0.19554 -0.13221 -0.02236
v -0.19554 0.13221 -0.02236
v -0.19552 0.00000 -0.11403
v -0.19486 -0.15118 -0.20572
v -0.19486 0.15118 -0.20572
v -0.19456 -0.15956 0.21567
v -0.19456 0.15956 0.21567
v -0.19421 0.00000 0.21626
v -0.19412 -0.15438 0.17190
v -0.19412 0.15438 0.17190
v -0.19396 -0.16126 0.21000
v -0.19396 0.16126 0.21000
v -0.19391 0.00000 -0.16763
v -0.19376 -0.14002 0.22405
v -0.19376 0.14002 0.22405
v -0.19344 -0.13713 0.22400
v -0.19344 0.13713 0.22400
v -0.19331 -0.15505 0.17518
v -0.19331 0.15505 0.17518
v -0.19320 -0.15697 0.20661
v -0.19320 0.15697 0.20661
v -0.19316 -0.16137 0.20721
v -0.19316 0.16137 0.20721
v -0.19306 -0.19634 -0.17717
v -0.19306 0.19634 -0.17717
v -0.19299 -0.15724 0.18038
v -0.19299 0.15724 0.18038
v -0.19289 0.00000 0.21797
v -0.19285 -0.15462 0.16996
v -0.19285 0.15462 0.16996
v -0.19254 -0.16100 0.20400
v -0.19254 0.16100 0.20400
v -0.19226 -0.16246 0.20524
v -0.19226 0.16246 0.20524
v -0.19221 -0.15916 0.18697
v -0.19221 0.15916 0.18697
v -0.19219 -0.15814 0.18176
v -0.19219 0.15814 0.18176
v -0.19219 -0.15721 0.18019
v -0.19219 0.15721 0.18019
v -0.19213 -0.15844 0.19827
v -0.19213 0.15844 0.19827
v -0.19206 -0.15911 0.19759
v -0.19206 0.15911 0.19759
v -0.19197 0.00000 0.21770
v -0.19186 -0.16143 0.20143
v -0.19186 0.16143 0.20143
v -0.19171 -0.15964 0.18851
v -0.19171 0.15964 0.18851
v -0.19155 0.00000 -0.13642
v -0.19111 -0.15995 0.19555
v -0.19111 0.15995 0.19555
v -0.19090 -0.16040 0.19156
v -0.19090 0.16040 0.19156
v -0.19082 -0.15882 0.19604
v -0.19082 0.15882 0.19604
v -0.19080 -0.11702 0.18237
v -0.19080 0.11702 0.18237
v -0.19074 0.00000 -0.13176
v -0.19067 -0.14840 0.19101
v -0.19067 0.14840 0.19101
v -0.19041 0.00000 -0.16525
v -0.18957 0.00000 -0.16464
v -0.18938 0.00000 -0.15198
v -0.18930 -0.12984 -0.01825
v -0.18930 0.12984 -0.01825
v -0.18918 -0.14161 -0.13593
v -0.18918 0.14161 -0.13593
v -0.18917 -0.14663 -0.13560
v -0.18917 0.14663 -0.13560
v -0.18793 -0.11537 0.02354
v -0.18793 0.11537 0.02354
v -0.18793 0.00000 0.21727
v -0.18785 -0.12316 -0.19300
v -0.18785 0.12316 -0.19300
v -0.18705 -0.14816 0.16606
v -0.18705 0.14816 0.16606
v -0.18607 -0.12654 0.11503
v -0.18607 0.12654 0.11503
v -0.18591 0.00000 -0.15088
v -0.18508 -0.11502 -0.10157
v -0.18508 0.11502 -0.10157
v -0.18503 -0.13014 0.19168
v -0.18503 0.13014 0.19168
v -0.18481 0.00000 0.21288
v -0.18414 -0.11413 -0.14652
v -0.18414 0.11413 -0.14652
v -0.18298 -0.11840 -0.09967
v -0.18298 0.11840 -0.09967
v -0.18292 -0.12975 0.19200
v -0.18292 0.12975 0.19200
v -0.18268 0.00000 -0.16158
v -0.18257 -0.19506 -0.18595
v -0.18257 0.19506 -0.18595
v -0.18251 -0.12340 0.18396
v -0.18251 0.12340 0.18396
v -0.18217 -0.12556 0.19035
v -0.18217 0.12556 0.19035
v -0.18206 0.00000 0.20486
v -0.18202 -0.12491 0.18341
v -0.18202 0.12491 0.18341
v -0.18185 -0.13072 0.19341
v -0.18185 0.13072 0.19341
v -0.18163 -0.12931 0.19133
v -0.18163 0.12931 0.19133
v -0.18121 0.00000 -0.14802
v -0.18113 -0.12627 0.18609
v -0.18113 0.12627 0.18609
v -0.18112 0.00000 -0.14775
v -0.18082 0.00000 -0.15638
v -0.18059 -0.13669 0.20579
v -0.18059 0.13669 0.20579
v -0.18052 -0.13618 0.20249
v -0.18052 0.13618 0.20249
v -0.18040 -0.13699 0.20330
v -0.18040 0.13699 0.20330
v -0.18019 -0.13784 0.20550
v -0.18019 0.13784 0.20550
v -0.17977 -0.11288 0.18476
v -0.17977 0.11288 0.18476
v -0.17975 -0.14574 0.15605
v -0.17975 0.14574 0.15605
v -0.17969 0.00000 -0.14892
v -0.17966 -0.13543 0.13933
v -0.17966 0.13543 0.13933
v -0.17946 0.00000 -0.15099
v -0.17897 -0.13043 0.19500
v -0.17897 0.13043 0.19500
v -0.17882 -0.12279 0.18522
v -0.17882 0.12279 0.18522
v -0.17868 -0.13785 0.20523
v -0.17868 0.13785 0.20523
v -0.17841 -0.13191 0.19549
v -0.17841 0.13191 0.19549
v -0.17831 -0.11506 0.18119
v -0.17831 0.11506 0.18119
v -0.17831 -0.12575 0.03960
v -0.17831 0.12575 0.03960
v -0.17791 0.00000 -0.15350
v -0.17774 -0.12837 -0.04076
v -0.17774 0.12837 -0.04076
v -0.17758 -0.13089 0.19355
v -0.17758 0.13089 0.19355
v -0.17679 -0.14324 0.15033
v -0.17679 0.14324 0.15033
v -0.17637 -0.14410 0.14507
v -0.17637 0.14410 0.14507
v -0.17615 -0.13677 -0.02919
v -0.17615 0.13677 -0.02919
v -0.17561 -0.10696 0.17734
v -0.17561 0.10696 0.17734
v -0.17515 -0.12787 0.18945
v -0.17515 0.12787 0.18945
v -0.17514 -0.13085 0.19417
v -0.17514 0.13085 0.19417
v -0.17472 -0.13308 -0.21539
v -0.17472 0.13308 -0.21539
v -0.17464 -0.16672 -0.21975
v -0.17464 0.16672 -0.21975
v -0.17443 -0.12185 0.18905
v -0.17443 0.12185 0.18905
v -0.17430 -0.10072 0.18026
v -0.17430 0.10072 0.18026
v -0.17416 -0.11300 0.18376
v -0.17416 0.11300 0.18376
v -0.17344 -0.12665 0.19135
v -0.17344 0.12665 0.19135
v -0.17329 0.00000 0.19526
v -0.17319 -0.11247 0.18337
v -0.17319 0.11247 0.18337
v -0.17306 -0.10429 0.17659
v -0.17306 0.10429 0.17659
v -0.17250 -0.14580 0.14106
v -0.17250 0.14580 0.14106
v -0.17240 -0.12297 0.18918
v -0.17240 0.12297 0.18918
v -0.17231 -0.10379 0.16497
v -0.17231 0.10379 0.16497
v -0.17179 -0.10260 0.18233
v -0.17179 0.10260 0.18233
v -0.17094 -0.14704 0.13814
v -0.17094 0.14704 0.13814
v -0.17048 -0.10443 0.17260
v -0.17048 0.10443 0.17260
v -0.17047 -0.13933 -0.02317
v -0.17047 0.13933 -0.02317
v -0.16984 0.00000 0.19506
v -0.16936 0.00000 0.19396
v -0.16929 0.00000 -0.14827
v -0.16915 -0.10458 0.17096
v -0.16915 0.10458 0.17096
v -0.16905 -0.10146 0.17924
v -0.16905 0.10146 0.17924
v -0.16833 -0.10714 0.18318
v -0.16833 0.10714 0.18318
v -0.16826 0.00000 0.17425
v -0.16817 -0.12553 0.10293
v -0.16817 0.12553 0.10293
v -0.16783 0.00000 0.18987
v -0.16780 -0.10384 0.18280
v -0.16780 0.10384 0.18280
v -0.16766 0.00000 0.17263
v -0.16707 0.00000 0.18674
v -0.16703 0.00000 0.18308
v -0.16678 -0.10654 0.18328
v -0.16678 0.10654 0.18328
v -0.16651 -0.11710 0.02853
v -0.16651 0.11710 0.02853
v -0.16648 0.00000 0.18624
v -0.16634 0.00000 0.18617
v -0.16631 -0.19036 -0.21586
v -0.16631 0.19036 -0.21586
v -0.16629 0.00000 0.19410
v -0.16561 0.00000 0.18987
v -0.16509 -0.19507 -0.22377
v -0.16509 0.19507 -0.22377
v -0.16500 -0.10170 0.18343
v -0.16500 0.10170 0.18343
v -0.16392 -0.12926 0.06397
v -0.16392 0.12926 0.06397
v -0.16385 0.00000 0.18263
v -0.16324 -0.10105 0.18281
v -0.16324 0.10105 0.18281
v -0.16316 -0.13401 -0.00356
v -0.16316 0.13401 -0.00356
v -0.16310 -0.19171 -0.22073
v -0.16310 0.19171 -0.22073
v -0.16248 0.00000 -0.14660
v -0.16212 -0.10428 0.18391
v -0.16212 0.10428 0.18391
v -0.16137 0.00000 0.18219
v -0.16098 -0.11907 -0.16449
v -0.16098 0.11907 -0.16449
v -0.16049 -0.19208 -0.20650
v -0.16049 0.19208 -0.20650
v -0.15953 -0.20136 -0.23158
v -0.15953 0.20136 -0.23158
v -0.15939 -0.12262 0.03677
v -0.15939 0.12262 0.03677
v -0.15868 -0.13647 0.12184
v -0.15868 0.13647 0.12184
v -0.15716 -0.13139 -0.06921
v -0.15716 0.13139 -0.06921
v -0.15622 -0.13712 0.11293
v -0.15622 0.13712 0.11293
v -0.15621 0.00000 -0.14661
v -0.15613 -0.20019 -0.17819
v -0.15613 0.20019 -0.17819
v -0.15576 0.00000 -0.14609
v -0.15574 -0.11518 0.02456
v -0.15574 0.11518 0.02456
v -0.15540 -0.13674 0.10969
v -0.15540 0.13674 0.10969
v -0.15537 -0.13072 0.07963
v -0.15537 0.13072 0.07963
v -0.15516 0.00000 0.17615
v -0.15496 -0.10020 0.15478
v -0.15496 0.10020 0.15478
v -0.15478 -0.18280 -0.22283
v -0.15478 0.18280 -0.22283
v -0.15396 0.00000 -0.11873
v -0.15286 -0.13726 0.10288
v -0.15286 0.13726 0.10288
v -0.14760 -0.13430 0.08737
v -0.14760 0.13430 0.08737
v -0.14714 0.00000 -0.14414
v -0.14436 -0.13613 -0.16055
v -0.14436 0.13613 -0.16055
v -0.14397 -0.11522 -0.20897
v -0.14397 0.11522 -0.20897
v -0.14379 0.00000 0.16564
v -0.14270 0.00000 0.16428
v -0.14171 0.00000 0.16368
v -0.14050 -0.16214 -0.15868
v -0.14050 0.16214 -0.15868
v -0.13477 -0.12954 0.03064
v -0.13477 0.12954 0.03064
v -0.13275 0.00000 -0.14497
v -0.13190 0.00000 -0.14181
v -0.13156 0.00000 0.14872
v -0.13019 0.00000 0.14670
v -0.12984 0.00000 0.14711
v -0.12814 0.00000 0.14513
v -0.12716 -0.16984 -0.23512
v -0.12716 0.16984 -0.23512
v -0.12646 -0.15710 -0.23916
v -0.12646 0.15710 -0.23916
v -0.12527 -0.11755 -0.19475
v -0.12527 0.11755 -0.19475
v -0.12209 -0.18578 -0.20322
v -0.12209 0.18578 -0.20322
v -0.12183 0.00000 -0.14166
v -0.12083 -0.12102 -0.11331
v -0.12083 0.12102 -0.11331
v -0.12072 -0.16056 -0.24408
v -0.12072 0.16056 -0.24408
v -0.11973 -0.12561 -0.03070
v -0.11973 0.12561 -0.03070
v -0.11970 -0.13431 -0.02074
v -0.11970 0.13431 -0.02074
v -0.11599 -0.17909 -0.23077
v -0.11599 0.17909 -0.23077
v -0.11290 -0.17502 -0.18459
v -0.11290 0.17502 -0.18459
v -0.11217 -0.13382 -0.06412
v -0.11217 0.13382 -0.06412
v -0.11167 -0.13063 0.05677
v -0.11167 0.13063 0.05677
v -0.10908 -0.12425 0.02566
v -0.10908 0.12425 0.02566
v -0.10840 -0.12104 -0.20413
v -0.10840 0.12104 -0.20413
v -0.10817 -0.16147 -0.24319
v -0.10817 0.16147 -0.24319
v -0.10681 -0.12969 -0.23192
v -0.10681 0.12969 -0.23192
v -0.10642 0.00000 0.12051
v -0.10394 0.00000 0.12149
v -0.10306 -0.17979 -0.24658
v -0.10306 0.17979 -0.24658
v -0.10199 -0.13488 -0.01503
v -0.10199 0.13488 -0.01503
v -0.10137 -0.12504 0.00375
v -0.10137 0.12504 0.00375
v -0.10135 0.00000 0.11581
v -0.10094 0.00000 0.11547
v -0.10009 0.00000 -0.13351
v -0.09917 0.00000 0.11360
v -0.09901 -0.12946 0.05372
v -0.09901 0.12946 0.05372
v -0.09538 -0.15758 -0.19453
v -0.09538 0.15758 -0.19453
v -0.09306 -0.19978 -0.26625
v -0.09306 0.19978 -0.26625
v -0.09281 0.00000 -0.13215
v -0.09234 -0.16175 -0.24676
v -0.09234 0.16175 -0.24676
v -0.09117 -0.16716 -0.22741
v -0.09117 0.16716 -0.22741
v -0.09046 -0.12781 -0.10633
v -0.09046 0.12781 -0.10633
v -0.08972 0.00000 -0.13453
v -0.08933 -0.17151 -0.23684
v -0.08933 0.17151 -0.23684
v -0.08926 -0.19832 -0.26543
v -0.08926 0.19832 -0.26543
v -0.08904 -0.19226 -0.26260
v -0.08904 0.19226 -0.26260
v -0.08827 0.00000 -0.13173
v -0.08776 -0.13294 -0.22131
v -0.08776 0.13294 -0.22131
v -0.08415 -0.15235 -0.24413
v -0.08415 0.15235 -0.24413
v -0.08365 -0.12606 -0.02831
v -0.08365 0.12606 -0.02831
v -0.08192 0.00000 -0.12872
v -0.07986 0.00000 -0.12722
v -0.07856 0.00000 -0.13719
v -0.07662 0.00000 -0.13572
v -0.07642 -0.13897 -0.22169
v -0.07642 0.13897 -0.22169
v -0.07565 -0.13396 -0.06923
v -0.07565 0.13396 -0.06923
v -0.07499 0.00000 0.09065
v -0.07307 -0.13076 -0.04722
v -0.07307 0.13076 -0.04722
v -0.07212 -0.15767 -0.25803
v -0.07212 0.15767 -0.25803
v -0.07129 -0.12005 0.05406
v -0.07129 0.12005 0.05406
v -0.06967 0.00000 -0.12478
v -0.06536 -0.12381 0.04562
v -0.06536 0.12381 0.04562
v -0.06424 -0.12393 0.04223
v -0.06424 0.12393 0.04223
v -0.06227 -0.17163 -0.27716
v -0.06227 0.17163 -0.27716
v -0.05850 -0.16794 -0.27023
v -0.05850 0.16794 -0.27023
v -0.05708 0.00000 0.07787
v -0.05594 0.00000 -0.12974
v -0.05547 -0.17271 -0.27804
v -0.05547 0.17271 -0.27804
v -0.05541 0.00000 0.07684
v -0.05522 0.00000 0.07679
v -0.05362 0.00000 -0.12116
v -0.05311 0.00000 0.07543
v -0.05104 -0.13133 -0.01971
v -0.05104 0.13133 -0.01971
v -0.04949 -0.11073 -0.11932
v -0.04949 0.11073 -0.11932
v -0.04691 -0.12637 0.02938
v -0.04691 0.12637 0.02938
v -0.04553 -0.12580 -0.05099
v -0.04553 0.12580 -0.05099
v -0.04430 -0.12281 0.03300
v -0.04430 0.12281 0.03300
v -0.04138 -0.12639 0.02402
v -0.04138 0.12639 0.02402
v -0.04118 0.00000 0.06599
v -0.04050 0.00000 -0.11932
v -0.03932 -0.12673 0.02180
v -0.03932 0.12673 0.02180
v -0.03900 -0.12720 0.01841
v -0.03900 0.12720 0.01841
v -0.03749 0.00000 -0.12093
v -0.03404 0.00000 0.06478
v -0.03378 -0.11739 -0.08674
v -0.03378 0.11739 -0.08674
v -0.03155 0.00000 -0.11897
v -0.03134 0.00000 -0.11943
v -0.03121 0.00000 -0.11975
v -0.03030 0.00000 -0.11840
v -0.02884 0.00000 -0.11847
v -0.02681 0.00000 -0.11720
v -0.02652 0.00000 0.05388
v -0.02588 0.00000 0.05290
v -0.02437 0.00000 0.05100
v -0.02180 0.00000 -0.12094
v -0.02168 -0.12471 -0.02550
v -0.02168 0.12471 -0.02550
v -0.01337 0.00000 -0.11264
v -0.01204 0.00000 -0.11088
v -0.01200 -0.10800 -0.06044
v -0.01200 0.10800 -0.06044
v -0.01072 0.00000 -0.11744
v -0.00837 -0.12781 -0.00329
v -0.00837 0.12781 -0.00329
v -0.00685 0.00000 -0.08393
v -0.00528 -0.12172 -0.01260
v -0.00528 0.12172 -0.01260
v -0.00149 0.00000 -0.10932
v -0.00069 -0.12247 -0.00785
v -0.00069 0.12247 -0.00785
v 0.00002 -0.11798 -0.00586
v 0.00002 0.11798 -0.00586
v 0.00199 0.00000 -0.10917
v 0.00326 0.00000 0.02027
v 0.00425 0.00000 -0.10904
v 0.00586 0.00000 -0.10832
v 0.00707 0.00000 -0.10758
v 0.00834 -0.11328 -0.01106
v 0.00834 0.11328 -0.01106
v 0.00951 0.00000 -0.10638
v 0.00971 -0.11233 -0.01114
v 0.00971 0.11233 -0.01114
v 0.01015 0.00000 0.01418
v 0.01033 0.00000 -0.10605
v 0.01222 0.00000 0.01227
v 0.01282 0.00000 0.01154
v 0.01370 0.00000 0.01023
v 0.01917 0.00000 -0.08916
v 0.02026 0.00000 -0.01686
v 0.02051 0.00000 -0.06589
v 0.02180 0.00000 -0.08408
v 0.02416 0.00000 -0.08042
v 0.02423 0.00000 -0.07860
v 0.02980 0.00000 -0.01831
v 0.03052 0.00000 -0.05291
v 0.03054 0.00000 -0.01789
v 0.03096 0.00000 -0.04672
v 0.03122 0.00000 -0.04764
v 0.03173 0.00000 -0.04410
v 0.03420 0.00000 -0.03852
v 0.03731 0.00000 -0.02023
v 0.03756 0.00000 -0.02042
v 0.03806 0.00000 -0.02056
v 0.03846 0.00000 -0.02147
v 0.03875 0.00000 -0.01874
v 0.03913 0.00000 -0.02458
v 0.03978 0.00000 -0.02029
vn 0.0000 0.0000 0.0000
vn 0.0000 0.0000 0.0000
vn 0.0000 0.0000 0.0000
vn 0.0000 0.0000 0.0000
vn 0.0000 0.0000 0.0000
vn 0.0000 -0.0000 0.0000
vn 0.0000 0.0000 0.0000
vn 0.0000 0.0000 0.0000
vn 0.0000 0.0000 0.0000
vn 0.0000 0.0000 0.0000
vn -0.8638 0.0000 0.5038
vn 0.0000 0.0000 0.0000
vn 0.0000 0.0000 0.0000
vn 0.0000 -0.0000 0.0000
vn 0.0000 0.0000 0.0000
vn 0.0000 0.0000 0.0000
vn -0.9760 0.0000 -0.2176
vn 0.0000 0.0000 0.0000
vn 0.0000 -0.0000 0.0000
vn 0.0000 0.0000 0.0000
vn 0.0000 -0.0000 0.0000
vn 0.0000 -0.0000 0.0000
vn 0.0000 -0.0000 0.0000
vn 0.0000 0.0000 0.0000
vn 0.0000 0.0000 0.0000
vn 0.0000 0.0000 0.0000
vn 0.0000 0.0000 0.0000
vn 0.0000 0.0000 0.0000
vn 0.0000 0.0000 0.0000
vn -0.6459 -0.0000 0.7634
vn -0.8638 0.0000 -0.5039
vn 0.0000 0.0000 0.0000
vn 0.0000 0.0000 0.0000
vn -0.9844 -0.1745 -0.0231
vn -0.9844 0.1745 -0.0231
vn -0.9054 -0.1541 -0.3957
vn -0.9054 0.1541 -0.3957
vn 0.0000 0.0000 0.0000
vn 0.0000 0.0000 0.0000
vn 0.0000 0.0000 0.0000
vn -0.7722 -0.1154 -0.6249
vn -0.7722 0.1154 -0.6249
vn 0.0000 0.0000 0.0000
vn 0.0000 0.0000 0.0000
vn 0.0000 -0.0000 0.0000
vn -0.8368 -0.3246 0.4409
vn -0.8368 0.3246 0.4409
vn 0.0000 0.0000 0.0000
vn 0.0000 0.0000 0.0000
vn 0.0000 0.0000 0.0000
vn 0.0000 0.0000 0.0000
vn 0.0000 0.0000 0.0000
vn -0.7058 -0.2277 -0.6708
vn -0.7058 0.2277 -0.6708
vn -0.5097 -0.8108 0.2877
vn -0.5097 0.8108 0.2877
vn 0.0000 -0.0000 0.0000
vn 0.0000 0.0000 0.0000
vn -0.5919 -0.0000 -0.8060
vn 0.0000 -0.0000 0.0000
vn -0.5241 -0.5261 0.6698
vn -0.5241 0.5261 0.6698
vn -0.7945 0.0000 0.6073
vn 0.0000 0.0000 0.0000
vn -0.6889 -0.3119 0.6543
vn -0.6889 0.3119 0.6543
vn 0.0000 0.0000 0.0000
vn 0.0000 0.0000 0.0000
vn -0.7401 0.0000 -0.6725
vn 0.0000 0.0000 0.0000
vn 0.0000 0.0000 0.0000
vn 0.0000 0.0000 0.0000
vn -0.3482 0.0000 0.9374
vn -0.8825 -0.0000 0.4704
vn 0.0000 0.0000 0.0000
vn 0.0000 0.0000 0.0000
vn 0.0000 0.0000 0.0000
vn 0.0000 0.0000 0.0000
vn 0.0000 0.0000 0.0000
vn 0.0000 0.0000 0.0000
vn -0.9870 0.0000 0.1609
vn -0.7596 -0.4954 0.4214
vn -0.7596 0.4954 0.4214
vn 0.0000 0.0000 0.0000
vn 0.0000 0.0000 0.0000
vn -0.4485 -0.2600 -0.8551
vn -0.4485 0.2600 -0.8551
vn -0.9890 -0.0000 0.1479
vn 0.0000 0.0000 0.0000
vn -0.1539 -0.9865 0.0558
vn -0.1539 0.9865 0.0558
vn 0.0000 0.0000 0.0000
vn 0.0000 0.0000 0.0000
vn -0.8817 -0.2106 0.4221
vn -0.8817 0.2106 0.4221
vn -0.1500 -0.8821 0.4465
vn -0.1500 0.8821 0.4465
vn 0.0000 0.0000 0.0000
vn 0.0000 0.0000 0.0000
vn -0.9011 0.0000 0.4337
vn 0.0000 0.0000 0.0000
vn 0.0000 0.0000 0.0000
vn 0.0000 0.0000 0.0000
vn 0.0000 0.0000 0.0000
vn -0.9751 -0.2072 0.0786
vn -0.9751 0.2072 0.0786
vn -0.8369 -0.0000 0.5474
vn -0.9701 -0.0928 0.2244
vn -0.9701 0.0928 0.2244
vn -0.4357 0.0000 -0.9001
vn 0.0000 0.0000 0.0000
vn -0.5598 -0.8204 0.1168
vn -0.5598 0.8204 0.1168
vn -0.9301 -0.2580 0.2613
vn -0.9301 0.2580 0.2613
vn 0.0000 -0.0000 0.0000
vn 0.0000 0.0000 0.0000
vn -0.9683 0.0054 0.2499
vn -0.9683 -0.0054 0.2499
vn 0.0000 0.0000 0.0000
vn -0.8719 -0.4596 0.1690
vn -0.8719 0.4596 0.1690
vn -0.7402 -0.6706 -0.0480
vn -0.7402 0.6706 -0.0480
vn 0.0000 0.0000 0.0000
vn 0.0000 0.0000 0.0000
vn 0.1776 -0.9836 0.0321
vn 0.1776 0.9836 0.0321
vn 0.0000 0.0000 0.0000
vn 0.0000 0.0000 0.0000
vn 0.0000 0.0000 0.0000
vn 0.0000 0.0000 0.0000
vn -0.9363 0.2267 0.2684
vn -0.9363 -0.2267 0.2684
vn -0.2156 -0.9661 0.1419
vn -0.2156 0.9661 0.1419
vn 0.0000 0.0000 0.0000
vn 0.0000 0.0000 0.0000
vn 0.0000 0.0000 0.0000
vn 0.0000 0.0000 0.0000
vn 0.1786 -0.9392 0.2934
vn 0.1786 0.9392 0.2934
vn 0.0000 0.0000 0.0000
vn 0.0000 0.0000 0.0000
vn -0.9219 0.0000 0.3875
vn -0.3916 -0.9201 0.0034
vn -0.3916 0.9201 0.0034
vn 0.0000 -0.0000 0.0000
vn 0.0000 0.0000 0.0000
vn 0.3056 -0.9445 0.1204
vn 0.3056 0.9445 0.1204
vn -0.2791 -0.9505 0.1366
vn -0.2791 0.9505 0.1366
vn 0.0000 0.0000 0.0000
vn -0.8676 0.0209 0.4968
vn -0.8676 -0.0209 0.4968
vn 0.0000 0.0000 0.0000
vn 0.0000 0.0000 0.0000
vn 0.0000 0.0000 0.0000
vn 0.0000 0.0000 0.0000
vn 0.0000 0.0000 0.0000
vn 0.0000 0.0000 0.0000
vn 0.0778 -0.9895 -0.1214
vn 0.0778 0.9895 -0.1214
vn 0.2524 -0.9656 -0.0633
vn 0.2524 0.9656 -0.0633
vn 0.0000 -0.0000 0.0000
vn -0.7634 0.0000 0.6459
vn 0.0878 -0.9800 0.1785
vn 0.0878 0.9800 0.1785
vn 0.0000 -0.0000 0.0000
vn 0.0000 0.0000 0.0000
vn 0.0000 0.0000 0.0000
vn 0.0000 0.0000 0.0000
vn 0.0000 0.0000 0.0000
vn 0.0754 -0.9935 -0.0850
vn 0.0754 0.9935 -0.0850
vn 0.0000 -0.0000 0.0000
vn 0.0000 0.0000 0.0000
vn -0.3819 0.7558 0.5319
vn -0.3819 -0.7558 0.5319
vn 0.4566 -0.8892 0.0268
vn 0.4566 0.8892 0.0268
vn -0.5569 -0.1330 -0.8199
vn -0.5569 0.1330 -0.8199
vn 0.0000 -0.0000 0.0000
vn -0.3409 -0.9395 0.0344
vn -0.3409 0.9395 0.0344
vn -0.3571 0.0000 -0.9341
vn 0.5862 -0.8065 0.0767
vn 0.5862 0.8065 0.0767
vn 0.0000 0.0000 0.0000
vn -0.5118 0.7546 0.4107
vn -0.5118 -0.7546 0.4107
vn 0.0000 0.0000 0.0000
vn 0.0000 0.0000 0.0000
vn 0.0000 0.0000 0.0000
vn -0.4008 -0.0222 -0.9159
vn -0.4008 0.0222 -0.9159
vn 0.3595 -0.9331 -0.0037
vn 0.3595 0.9331 -0.0037
vn 0.0000 0.0000 0.0000
vn 0.0000 0.0000 0.0000
vn -0.4436 0.1644 0.8810
vn -0.4436 -0.1644 0.8810
vn -0.6793 0.1395 -0.7205
vn -0.6793 -0.1395 -0.7205
vn -0.6188 -0.7458 0.2466
vn -0.6188 0.7458 0.2466
vn 0.0000 0.0000 0.0000
vn 0.0000 0.0000 0.0000
vn 0.3278 -0.7016 0.6326
vn 0.3278 0.7016 0.6326
vn -0.4249 -0.9044 0.0401
vn -0.4249 0.9044 0.0401
vn 0.5796 -0.8094 0.0941
vn 0.5796 0.8094 0.0941
vn 0.0000 0.0000 0.0000
vn 0.0000 -0.0000 0.0000
vn -0.7870 0.1047 0.6080
vn -0.7870 -0.1047 0.6080
vn 0.0000 0.0000 0.0000
vn 0.6208 -0.1796 0.7631
vn 0.6208 0.1796 0.7631
vn 0.0000 0.0000 0.0000
vn -0.2290 -0.0000 0.9734
vn 0.1119 -0.9936 -0.0127
vn 0.1119 0.9936 -0.0127
vn 0.4326 -0.8993 0.0648
vn 0.4326 0.8993 0.0648
vn -0.6543 -0.6893 0.3110
vn -0.6543 0.6893 0.3110
vn 0.0000 0.0000 0.0000
vn 0.0000 0.0000 0.0000
vn 0.0000 0.0000 0.0000
vn 0.7568 -0.5301 0.3824
vn 0.7568 0.5301 0.3824
vn 0.0000 0.0000 0.0000
vn 0.0000 0.0000 0.0000
vn 0.0000 0.0000 0.0000
vn 0.0832 0.3769 0.9225
vn 0.0832 -0.3769 0.9225
vn 0.0000 0.0000 0.0000
vn 0.0000 0.0000 0.0000
vn -0.1657 0.8058 0.5686
vn -0.1657 -0.8058 0.5686
vn 0.0000 -0.0000 0.0000
vn 0.0000 0.0000 0.0000
vn 0.1093 -0.9793 0.1703
vn 0.1093 0.9793 0.1703
vn -0.2077 -0.9443 -0.2554
vn -0.2077 0.9443 -0.2554
vn 0.4003 -0.8977 -0.1842
vn 0.4003 0.8977 -0.1842
vn 0.0000 0.0000 0.0000
vn 0.2115 -0.9728 -0.0942
vn 0.2115 0.9728 -0.0942
vn 0.0000 0.0000 0.0000
vn -0.6925 -0.7174 -0.0756
vn -0.6925 0.7174 -0.0756
vn 0.0000 0.0000 0.0000
vn 0.0000 0.0000 0.0000
vn 0.0000 0.0000 0.0000
vn 0.0000 0.0000 0.0000
vn 0.0000 0.0000 0.0000
vn -0.8102 -0.0373 -0.5850
vn -0.8102 0.0373 -0.5850
vn 0.0000 0.0000 0.0000
vn -0.9025 -0.2514 -0.3496
vn -0.9025 0.2514 -0.3496
vn 0.4675 0.0000 -0.8840
vn -0.3518 -0.7278 0.5887
vn -0.3518 0.7278 0.5887
vn -0.7020 -0.4126 0.5805
vn -0.7020 0.4126 0.5805
vn -0.5830 -0.3503 0.7330
vn -0.5830 0.3503 0.7330
vn -0.7098 -0.5938 -0.3789
vn -0.7098 0.5938 -0.3789
vn 0.0000 0.0000 0.0000
vn 0.0000 0.0000 0.0000
vn -0.7935 -0.5756 0.1978
vn -0.7935 0.5756 0.1978
vn -0.4049 0.4231 -0.8106
vn -0.4049 -0.4231 -0.8106
vn -0.0006 -0.8994 0.4371
vn -0.0006 0.8994 0.4371
vn 0.0000 0.0000 0.0000
vn -0.6616 0.0000 0.7498
vn 0.2782 -0.9439 0.1778
vn 0.2782 0.9439 0.1778
vn 0.0069 0.0000 1.0000
vn -0.1174 -0.8939 0.4327
vn -0.1174 0.8939 0.4327
vn 0.0451 -0.9837 -0.1739
vn 0.0451 0.9837 -0.1739
vn 0.4420 0.6297 -0.6388
vn 0.4420 -0.6297 -0.6388
vn 0.9949 -0.0320 0.0959
vn 0.9949 0.0320 0.0959
vn -0.6581 -0.7450 0.1089
vn -0.6581 0.7450 0.1089
vn 0.0000 -0.0000 0.0000
vn 0.2622 -0.9429 -0.2054
vn 0.2622 0.9429 -0.2054
vn 0.0000 -0.0000 0.0000
vn 0.1975 0.9418 0.2721
vn 0.1975 -0.9418 0.2721
vn 0.2552 -0.3088 -0.9163
vn 0.2552 0.3088 -0.9163
vn -0.0575 -0.9983 0.0134
vn -0.0575 0.9983 0.0134
vn -0.3721 -0.9126 -0.1692
vn -0.3721 0.9126 -0.1692
vn -0.8492 -0.5204 -0.0898
vn -0.8492 0.5204 -0.0898
vn 0.0000 0.0000 0.0000
vn -0.6060 -0.3714 0.7034
vn -0.6060 0.3714 0.7034
vn -0.0377 -0.9943 -0.0998
vn -0.0377 0.9943 -0.0998
vn 0.0000 0.0000 0.0000
vn -0.0114 -0.9694 -0.2451
vn -0.0114 0.9694 -0.2451
vn -0.6027 -0.5102 -0.6135
vn -0.6027 0.5102 -0.6135
vn 0.0000 -0.0000 0.0000
vn -0.7329 -0.3150 0.6030
vn -0.7329 0.3150 0.6030
vn 0.6564 0.0333 0.7537
vn 0.6564 -0.0333 0.7537
vn 0.2117 -0.6117 0.7623
vn 0.2117 0.6117 0.7623
vn 0.7342 -0.3464 0.5840
vn 0.7342 0.3464 0.5840
vn -0.1954 -0.3960 -0.8972
vn -0.1954 0.3960 -0.8972
vn -0.0291 -0.8124 0.5824
vn -0.0291 0.8124 0.5824
vn 0.0000 0.0000 0.0000
vn 0.0000 -0.0000 0.0000
vn 0.0000 0.0000 0.0000
vn -0.8236 -0.5414 0.1691
vn -0.8236 0.5414 0.1691
vn -0.7091 -0.6776 0.1951
vn -0.7091 0.6776 0.1951
vn -0.0366 -0.9992 -0.0172
vn -0.0366 0.9992 -0.0172
vn 0.6170 -0.0000 -0.7870
vn -0.6316 -0.0159 -0.7751
vn -0.6316 0.0159 -0.7751
vn 0.9804 -0.1331 0.1452
vn 0.9804 0.1331 0.1452
vn 0.0000 0.0000 0.0000
vn 0.0555 -0.9816 -0.1830
vn 0.0555 0.9816 -0.1830
vn 0.6890 0.1030 0.7174
vn 0.6890 -0.1030 0.7174
vn 0.0000 0.0000 0.0000
vn 0.0000 0.0000 0.0000
vn 0.0000 0.0000 0.0000
vn 0.2899 0.7970 0.5299
vn 0.2899 -0.7970 0.5299
vn 0.8579 -0.5138 -0.0095
vn 0.8579 0.5138 -0.0095
vn 0.9050 -0.4112 0.1090
vn 0.9050 0.4112 0.1090
vn -0.6285 -0.7480 -0.2134
vn -0.6285 0.7480 -0.2134
vn -0.0445 -0.8711 0.4890
vn -0.0445 0.8711 0.4890
vn -0.0034 -0.9489 -0.3157
vn -0.0034 0.9489 -0.3157
vn 0.0000 0.0000 0.0000
vn -0.5151 -0.1967 -0.8342
vn -0.5151 0.1967 -0.8342
vn -0.3028 -0.8700 -0.3892
vn -0.3028 0.8700 -0.3892
vn -0.2572 -0.9658 0.0329
vn -0.2572 0.9658 0.0329
vn -0.4040 -0.9140 -0.0369
vn -0.4040 0.9140 -0.0369
vn 0.6714 -0.6864 -0.2794
vn 0.6714 0.6864 -0.2794
vn 0.9859 -0.1243 -0.1117
vn 0.9859 0.1243 -0.1117
vn 0.5125 -0.8187 0.2589
vn 0.5125 0.8187 0.2589
vn -0.5132 -0.8550 -0.0750
vn -0.5132 0.8550 -0.0750
vn 0.0000 0.0000 0.0000
vn 0.0000 0.0000 0.0000
vn 0.0000 0.0000 0.0000
vn 0.0000 0.0000 0.0000
vn 0.0000 0.0000 0.0000
vn 0.0000 0.0000 0.0000
vn 0.5266 -0.8051 0.2728
vn 0.5266 0.8051 0.2728
vn 0.9663 -0.2046 -0.1564
vn 0.9663 0.2046 -0.1564
vn 0.9879 -0.0123 0.1548
vn 0.9879 0.0123 0.1548
vn -0.0844 0.8614 0.5008
vn -0.0844 -0.8614 0.5008
vn 0.0000 -0.0000 0.0000
vn 0.9433 -0.3254 -0.0657
vn 0.9433 0.3254 -0.0657
vn 0.0000 0.0000 0.0000
vn 0.0000 0.0000 0.0000
vn 0.0000 0.0000 0.0000
vn -0.2578 -0.9355 0.2416
vn -0.2578 0.9355 0.2416
vn 0.5653 0.1264 0.8152
vn 0.5653 -0.1264 0.8152
vn 0.4643 -0.2148 0.8593
vn 0.4643 0.2148 0.8593
vn -0.1517 -0.9661 0.2088
vn -0.1517 0.9661 0.2088
vn 0.0000 0.0000 0.0000
vn -0.3287 0.7652 -0.5535
vn -0.3287 -0.7652 -0.5535
vn 0.8415 -0.5272 0.1177
vn 0.8415 0.5272 0.1177
vn -0.0614 -0.9823 -0.1771
vn -0.0614 0.9823 -0.1771
vn 0.0000 0.0000 0.0000
vn -0.0893 -0.1369 -0.9866
vn -0.0893 0.1369 -0.9866
vn 0.9465 0.1582 0.2813
vn 0.9465 -0.1582 0.2813
vn 0.0000 0.0000 0.0000
vn 0.7640 0.4875 0.4227
vn 0.7640 -0.4875 0.4227
vn -0.2067 -0.4493 -0.8691
vn -0.2067 0.4493 -0.8691
vn -0.9531 -0.1964 -0.2302
vn -0.9531 0.1964 -0.2302
vn 0.0000 0.0000 0.0000
vn 0.1675 -0.9704 -0.1742
vn 0.1675 0.9704 -0.1742
vn 0.1687 0.6168 0.7688
vn 0.1687 -0.6168 0.7688
vn -0.2961 0.6132 0.7323
vn -0.2961 -0.6132 0.7323
vn 0.0000 0.0000 0.0000
vn 0.9405 -0.2742 0.2007
vn 0.9405 0.2742 0.2007
vn -0.3084 -0.8977 0.3145
vn -0.3084 0.8977 0.3145
vn 0.0314 -0.9810 -0.1916
vn 0.0314 0.9810 -0.1916
vn 0.0000 0.0000 0.0000
vn 0.1835 -0.7512 -0.6340
vn 0.1835 0.7512 -0.6340
vn 0.0000 0.0000 0.0000
vn 0.0000 0.0000 0.0000
vn 0.7624 0.3909 0.5156
vn 0.7624 -0.3909 0.5156
vn 0.8810 -0.2575 -0.3970
vn 0.8810 0.2575 -0.3970
vn 0.8244 -0.5209 -0.2216
vn 0.8244 0.5209 -0.2216
vn 0.5466 -0.4654 -0.6962
vn 0.5466 0.4654 -0.6962
vn -0.4588 0.4579 0.7614
vn -0.4588 -0.4579 0.7614
vn -0.3494 -0.8047 -0.4800
vn -0.3494 0.8047 -0.4800
vn 0.0000 0.0000 0.0000
vn -0.0976 -0.9260 -0.3647
vn -0.0976 0.9260 -0.3647
vn 0.0000 0.0000 0.0000
vn -0.0751 0.5160 0.8533
vn -0.0751 -0.5160 0.8533
vn 0.3822 -0.3382 -0.8599
vn 0.3822 0.3382 -0.8599
vn 0.3926 -0.1003 0.9142
vn 0.3926 0.1003 0.9142
vn 0.0000 0.0000 0.0000
vn 0.0000 0.0000 0.0000
vn -0.2864 -0.1915 -0.9388
vn -0.2864 0.1915 -0.9388
vn 0.0063 -0.9461 -0.3237
vn 0.0063 0.9461 -0.3237
vn 0.0000 0.0000 0.0000
vn 0.0864 -0.9849 -0.1498
vn 0.0864 0.9849 -0.1498
vn -0.0553 -0.9302 -0.3629
vn -0.0553 0.9302 -0.3629
vn 0.7742 -0.4366 0.4583
vn 0.7742 0.4366 0.4583
vn -0.7895 -0.5786 -0.2049
vn -0.7895 0.5786 -0.2049
vn -0.2735 -0.9405 -0.2018
vn -0.2735 0.9405 -0.2018
vn 0.8185 -0.2059 0.5363
vn 0.8185 0.2059 0.5363
vn 0.4057 -0.6002 -0.6893
vn 0.4057 0.6002 -0.6893
vn 0.7535 -0.6140 0.2348
vn 0.7535 0.6140 0.2348
vn -0.5055 0.3964 -0.7664
vn -0.5055 -0.3964 -0.7664
vn -0.4660 -0.0938 -0.8798
vn -0.4660 0.0938 -0.8798
vn 0.0564 0.4356 0.8984
vn 0.0564 -0.4356 0.8984
vn -0.9604 0.0740 0.2685
vn -0.9604 -0.0740 0.2685
vn 0.9228 -0.0356 0.3837
vn 0.9228 0.0356 0.3837
vn 0.2509 0.5396 0.8037
vn 0.2509 -0.5396 0.8037
vn 0.0000 0.0000 0.0000
vn 0.5936 -0.2405 -0.7680
vn 0.5936 0.2405 -0.7680
vn -0.8676 -0.0432 -0.4954
vn -0.8676 0.0432 -0.4954
vn 0.5633 -0.7221 0.4016
vn 0.5633 0.7221 0.4016
vn 0.8990 -0.1480 -0.4122
vn 0.8990 0.1480 -0.4122
vn -0.4250 0.1503 0.8926
vn -0.4250 -0.1503 0.8926
vn -0.2180 -0.0449 0.9749
vn -0.2180 0.0449 0.9749
vn -0.5687 -0.5010 -0.6524
vn -0.5687 0.5010 -0.6524
vn 0.7713 -0.0162 -0.6363
vn 0.7713 0.0162 -0.6363
vn 0.0122 -0.9947 0.1021
vn 0.0122 0.9947 0.1021
vn 0.0000 0.0000 0.0000
vn 0.0000 0.0000 0.0000
vn 0.0000 0.0000 0.0000
vn 0.6211 -0.1876 0.7609
vn 0.6211 0.1876 0.7609
vn 0.8204 -0.1035 -0.5623
vn 0.8204 0.1035 -0.5623
vn 0.2660 -0.0691 -0.9615
vn 0.2660 0.0691 -0.9615
vn -0.6207 -0.0000 0.7840
vn -0.1724 -0.9837 -0.0519
vn -0.1724 0.9837 -0.0519
vn 0.0000 0.0000 0.0000
vn -0.1358 0.0027 0.9907
vn -0.1358 -0.0027 0.9907
vn 0.2589 -0.0000 0.9659
vn 0.0000 0.0000 0.0000
vn -0.5763 -0.0000 0.8173
vn -0.3292 0.1605 0.9305
vn -0.3292 -0.1605 0.9305
vn -0.0079 -1.0000 0.0048
vn -0.0079 1.0000 0.0048
vn 0.0000 0.0000 0.0000
vn 0.0000 0.0000 0.0000
vn -0.3900 -0.8001 -0.4557
vn -0.3900 0.8001 -0.4557
vn 0.0000 0.0000 0.0000
vn 0.0000 0.0000 0.0000
vn 0.0000 0.0000 0.0000
vn 0.0000 0.0000 0.0000
vn -0.1513 0.0049 0.9885
vn -0.1513 -0.0049 0.9885
vn -0.0458 -0.9973 -0.0583
vn -0.0458 0.9973 -0.0583
vn -0.1511 0.0000 0.9885
vn 0.5503 -0.0298 -0.8344
vn 0.5503 0.0298 -0.8344
vn -0.5829 -0.6383 0.5028
vn -0.5829 0.6383 0.5028
vn 0.1231 -0.8261 -0.5499
vn 0.1231 0.8261 -0.5499
vn 0.0000 0.0000 0.0000
vn 0.2636 -0.0502 0.9633
vn 0.2636 0.0502 0.9633
vn 0.8714 0.0000 -0.4906
vn 0.4055 0.7268 0.5544
vn 0.4055 -0.7268 0.5544
vn 0.1621 -0.9623 -0.2184
vn 0.1621 0.9623 -0.2184
vn 0.0000 0.0000 0.0000
vn 0.0000 0.0000 0.0000
vn -0.0142 -0.9632 -0.2683
vn -0.0142 0.9632 -0.2683
vn 0.5591 -0.7516 0.3500
vn 0.5591 0.7516 0.3500
vn -0.0659 -0.9917 -0.1108
vn -0.0659 0.9917 -0.1108
vn 0.0000 0.0000 0.0000
vn 0.0000 0.0000 0.0000
vn 0.0000 0.0000 0.0000
vn 0.2134 -0.8813 0.4216
vn 0.2134 0.8813 0.4216
vn 0.0000 0.0000 0.0000
vn -0.3357 -0.9047 0.2622
vn -0.3357 0.9047 0.2622
vn -0.1298 -0.9861 -0.1037
vn -0.1298 0.9861 -0.1037
vn -0.3594 -0.9318 0.0501
vn -0.3594 0.9318 0.0501
vn 0.6986 -0.0000 0.7155
vn 0.7569 -0.2660 0.5970
vn 0.7569 0.2660 0.5970
vn -0.3126 -0.1074 -0.9438
vn -0.3126 0.1074 -0.9438
vn -0.1897 -0.0000 -0.9818
vn 0.0000 0.0000 0.0000
vn 0.0000 0.0000 0.0000
vn -0.1098 -0.9792 -0.1705
vn -0.1098 0.9792 -0.1705
vn 0.0000 0.0000 0.0000
vn 0.5597 0.3782 0.7374
vn 0.5597 -0.3782 0.7374
vn -0.0619 0.9023 -0.4266
vn -0.0619 -0.9023 -0.4266
vn 0.0000 0.0000 0.0000
vn 0.0000 0.0000 0.0000
vn 0.0000 0.0000 0.0000
vn 0.4949 -0.1500 0.8559
vn 0.4949 0.1500 0.8559
vn -0.1376 -0.9646 0.2249
vn -0.1376 0.9646 0.2249
vn 0.0000 0.0000 0.0000
vn 0.0000 0.0000 0.0000
vn 0.0000 0.0000 0.0000
vn 0.0000 0.0000 0.0000
vn 0.0000 0.0000 0.0000
vn 0.0000 0.0000 0.0000
vn -0.2739 -0.6788 -0.6814
vn -0.2739 0.6788 -0.6814
vn -0.3110 0.3147 -0.8968
vn -0.3110 -0.3147 -0.8968
vn 0.1413 0.9802 0.1388
vn 0.1413 -0.9802 0.1388
vn 0.3413 -0.9282 -0.1481
vn 0.3413 0.9282 -0.1481
vn 0.0000 0.0000 0.0000
vn -0.1518 -0.3702 -0.9165
vn -0.1518 0.3702 -0.9165
vn -0.2076 0.3346 -0.9192
vn -0.2076 -0.3346 -0.9192
vn 0.0260 -0.9984 -0.0504
vn 0.0260 0.9984 -0.0504
vn 0.0670 -0.9976 -0.0193
vn 0.0670 0.9976 -0.0193
vn 0.0941 -0.9910 -0.0955
vn 0.0941 0.9910 -0.0955
vn 0.5960 -0.6326 0.4945
vn 0.5960 0.6326 0.4945
vn -0.0541 -0.9968 -0.0587
vn -0.0541 0.9968 -0.0587
vn -0.0660 -0.9846 -0.1617
vn -0.0660 0.9846 -0.1617
vn 0.1295 -0.9916 -0.0066
vn 0.1295 0.9916 -0.0066
vn 0.5497 0.7036 0.4502
vn 0.5497 -0.7036 0.4502
vn 0.1569 -0.1478 -0.9765
vn 0.1569 0.1478 -0.9765
vn -0.0148 0.7028 -0.7112
vn -0.0148 -0.7028 -0.7112
vn 0.7088 0.0000 0.7054
vn 0.7523 -0.0000 0.6589
vn 0.7195 -0.6815 0.1337
vn 0.7195 0.6815 0.1337
vn -0.0067 -0.9998 0.0194
vn -0.0067 0.9998 0.0194
vn 0.0269 -0.9862 0.1634
vn 0.0269 0.9862 0.1634
vn 0.0000 0.0000 0.0000
vn 0.0000 0.0000 0.0000
vn 0.0000 0.0000 0.0000
vn 0.0000 0.0000 0.0000
vn 0.6689 -0.4873 0.5614
vn 0.6689 0.4873 0.5614
vn 0.7370 0.0622 0.6730
vn 0.7370 -0.0622 0.6730
vn -0.6756 -0.5577 -0.4822
vn -0.6756 0.5577 -0.4822
vn 0.0000 0.0000 0.0000
vn 0.0501 -0.6911 -0.7210
vn 0.0501 0.6911 -0.7210
vn 0.7306 -0.6735 0.1122
vn 0.7306 0.6735 0.1122
vn -0.0169 -0.5435 -0.8392
vn -0.0169 0.5435 -0.8392
vn -0.1362 -0.0000 -0.9907
vn 0.3322 -0.9029 -0.2727
vn 0.3322 0.9029 -0.2727
vn 0.0000 0.0000 0.0000
vn 0.0000 0.0000 0.0000
vn 0.6738 0.6614 -0.3295
vn 0.6738 -0.6614 -0.3295
vn 0.0000 0.0000 0.0000
vn 0.3897 0.8249 -0.4095
vn 0.3897 -0.8249 -0.4095
vn 0.4877 0.3408 -0.8037
vn 0.4877 -0.3408 -0.8037
vn -0.0552 -0.9953 -0.0792
vn -0.0552 0.9953 -0.0792
vn 0.0000 0.0000 0.0000
vn 0.0000 0.0000 0.0000
vn 0.0000 0.0000 0.0000
vn 0.1962 0.0000 -0.9806
vn 0.9292 0.0693 0.3630
vn 0.9292 -0.0693 0.3630
vn 0.1496 -0.9860 -0.0738
vn 0.1496 0.9860 -0.0738
vn 0.0000 0.0000 0.0000
vn 0.0296 -0.9988 0.0383
vn 0.0296 0.9988 0.0383
vn -0.1224 0.9019 -0.4142
vn -0.1224 -0.9019 -0.4142
vn 0.5149 -0.3829 0.7670
vn 0.5149 0.3829 0.7670
vn 0.0000 0.0000 0.0000
vn 0.2691 -0.8352 0.4796
vn 0.2691 0.8352 0.4796
vn -0.0986 -0.9894 0.1067
vn -0.0986 0.9894 0.1067
vn -0.5098 0.2877 -0.8108
vn -0.5098 -0.2877 -0.8108
vn 0.4849 -0.5688 0.6644
vn 0.4849 0.5688 0.6644
vn 0.0000 0.0000 0.0000
vn 0.0000 0.0000 0.0000
vn 0.0000 0.0000 0.0000
vn 0.0000 0.0000 0.0000
vn 0.0000 0.0000 0.0000
vn 0.0000 0.0000 0.0000
vn 0.0000 0.0000 0.0000
vn 0.0000 0.0000 0.0000
vn 0.0929 -0.9931 -0.0718
vn 0.0929 0.9931 -0.0718
vn 0.3082 -0.3355 -0.8902
vn 0.3082 0.3355 -0.8902
vn 0.1572 -0.9435 0.2918
vn 0.1572 0.9435 0.2918
vn 0.2532 -0.9645 -0.0747
vn 0.2532 0.9645 -0.0747
vn 0.6357 -0.2483 0.7309
vn 0.6357 0.2483 0.7309
vn 0.3415 -0.8584 0.3828
vn 0.3415 0.8584 0.3828
vn 0.6898 0.0000 0.7240
vn 0.0000 0.0000 0.0000
vn 0.2636 -0.8930 0.3649
vn 0.2636 0.8930 0.3649
vn -0.0099 -0.9870 0.1603
vn -0.0099 0.9870 0.1603
vn 0.4968 0.0000 -0.8679
vn 0.0000 0.0000 0.0000
vn 0.7600 -0.5636 -0.3236
vn 0.7600 0.5636 -0.3236
vn 0.0000 0.0000 0.0000
vn 0.0000 0.0000 0.0000
vn 0.0000 0.0000 0.0000
vn 0.0000 0.0000 0.0000
vn 0.0000 0.0000 0.0000
vn 0.0000 0.0000 0.0000
vn 0.0000 0.0000 0.0000
vn 0.0000 0.0000 0.0000
vn 0.0000 0.0000 0.0000
vn 0.3535 -0.0000 -0.9354
vn 0.7386 -0.5639 -0.3694
vn 0.7386 0.5639 -0.3694
vn 0.0000 0.0000 0.0000
vn 0.0000 0.0000 0.0000
vn 0.9223 -0.2484 -0.2960
vn 0.9223 0.2484 -0.2960
vn 0.0000 -0.0000 0.0000
vn 0.6146 -0.4853 0.6219
vn 0.6146 0.4853 0.6219
vn 0.9449 0.0000 -0.3274
vn 0.4987 -0.7776 -0.3830
vn 0.4987 0.7776 -0.3830
vn 0.8261 0.0000 -0.5635
vn 0.7198 -0.6660 -0.1958
vn 0.7198 0.6660 -0.1958
vn 0.7218 -0.1460 0.6765
vn 0.7218 0.1460 0.6765
vn 0.0000 0.0000 0.0000
vn 0.0000 -0.0000 0.0000
vn 0.0000 0.0000 0.0000
vn 0.0000 0.0000 0.0000
vn 0.0000 -0.0000 0.0000
vn 0.5263 -0.8483 0.0576
vn 0.5263 0.8483 0.0576
vn 0.0000 -0.0000 0.0000
vn 0.5151 -0.1382 -0.8459
vn 0.5151 0.1382 -0.8459
vn 0.0000 0.0000 0.0000
vn 0.0000 -0.0000 0.0000
vn 0.0000 0.0000 0.0000
vn 0.0000 0.0000 0.0000
vn 0.0000 0.0000 0.0000
vn 0.0000 0.0000 0.0000
vn 0.8859 -0.0000 -0.4639
vn 0.0000 -0.0000 0.0000
vn 0.0000 0.0000 0.0000
vn 0.0000 0.0000 0.0000
vn 0.0000 0.0000 0.0000
vn 0.0000 0.0000 0.0000
vn 0.0000 0.0000 0.0000
vn 0.7805 -0.0000 0.6252
vn 0.0000 0.0000 0.0000
vn 0.0000 0.0000 0.0000
vn 0.0000 0.0000 0.0000
vn 0.0000 0.0000 0.0000
vn 0.0000 0.0000 0.0000
vn 0.0000 0.0000 0.0000
vn 0.0000 0.0000 0.0000
vn 0.0000 0.0000 0.0000
vn 0.0000 0.0000 0.0000
vn 0.0000 0.0000 0.0000
vn 0.0000 0.0000 0.0000
f 777//777 782//782 789//789
f 782//782 792//792 789//789
f 749//749 774//774 751//751
f 745//745 751//751 739//739
f 745//745 739//739 743//743
f 774//774 767//767 735//735
f 815//815 806//806 804//804
f 775//775 799//799 800//800
f 753//753 784//784 746//746
f 800//800 815//815 802//802
f 507//507 444//444 466//466
f 407//407 367//367 462//462
f 501//501 489//489 480//480
f 302//302 319//319 344//344
f 363//363 458//458 319//319
f 549//549 545//545 550//550
f 303//303 431//431 445//445
f 281//281 303//303 262//262
f 391//391 303//303 281//281
f 587//587 544//544 425//425
f 719//719 743//743 739//739
f 670//670 676//676 716//716
f 719//719 739//739 721//721
f 532//532 656//656 670//670
f 611//611 566//566 601//601
f 611//611 544//544 599//599
f 585//585 566//566 611//611
f 716//716 663//663 746//746
f 604//604 663//663 676//676
f 604//604 602//602 664//664
f 716//716 746//746 743//743
f 753//753 710//710 664//664
f 654//654 623//623 597//597
f 566//566 312//312 544//544
f 585//585 484//484 321//321
f 430//430 423//423 407//407
f 430//430 404//404 444//444
f 423//423 447//447 497//497
f 447//447 430//430 444//444
f 314//314 423//423 471//471
f 232//232 314//314 209//209
f 530//530 539//539 577//577
f 524//524 530//530 497//497
f 542//542 289//289 550//550
f 289//289 264//264 306//306
f 314//314 252//252 188//188
f 314//314 471//471 252//252
f 226//226 218//218 247//247
f 548//548 550//550 604//604
f 306//306 264//264 233//233
f 192//192 171//171 161//161
f 194//194 308//308 246//246
f 194//194 209//209 188//188
f 181//181 156//156 205//205
f 312//312 425//425 544//544
f 188//188 252//252 228//228
f 202//202 172//172 219//219
f 202//202 173//173 172//172
f 230//230 228//228 296//296
f 103//103 126//126 76//76
f 219//219 126//126 143//143
f 126//126 102//102 76//76
f 76//76 71//71 103//103
f 140//140 156//156 134//134
f 226//226 156//156 168//168
f 156//156 109//109 119//119
f 134//134 156//156 140//140
f 308//308 242//242 404//404
f 482//482 476//476 511//511
f 526//526 482//482 516//516
f 120//120 143//143 99//99
f 778//778 772//772 765//765
f 709//709 652//652 644//644
f 755//755 709//709 741//741
f 765//765 752//752 778//778
f 772//772 727//727 765//765
f 757//757 756//756 704//704
f 737//737 705//705 688//688
f 640//640 687//687 688//688
f 688//688 705//705 624//624
f 678//678 707//707 685//685
f 685//685 650//650 678//678
f 680//680 694//694 692//692
f 683//683 699//699 714//714
f 714//714 699//699 683//683
f 683//683 699//699 660//660
f 692//692 694//694 680//680
f 685//685 690//690 660//660
f 573//573 562//562 558//558
f 594//594 558//558 326//326
f 581//581 558//558 594//594
f 685//685 648//648 637//637
f 614//614 579//579 658//658
f 614//614 621//621 579//579
f 579//579 621//621 433//433
f 662//662 642//642 699//699
f 616//616 421//421 503//503
f 697//697 699//699 707//707
f 660//660 699//699 642//642
f 505//505 351//351 326//326
f 409//409 327//327 485//485
f 327//327 409//409 244//244
f 670//670 668//668 646//646
f 644//644 532//532 646//646
f 644//644 487//487 532//532
f 412//412 291//291 532//532
f 435//435 428//428 310//310
f 310//310 254//254 324//324
f 201//201 177//177 170//170
f 217//217 191//191 201//201
f 177//177 191//191 170//170
f 115//115 106//106 153//153
f 183//183 147//147 153//153
f 291//291 201//201 166//166
f 153//153 147//147 113//113
f 115//115 113//113 95//95
f 106//106 69//69 73//73
f 97//97 83//83 170//170
f 83//83 95//95 113//113
f 62//62 66//66 97//97
f 63//63 66//66 30//30
f 48//48 45//45 40//40
f 40//40 63//63 30//30
f 100//100 106//106 73//73
f 333//333 273//273 260//260
f 326//326 260//260 270//270
f 326//326 316//316 337//337
f 279//279 294//294 326//326
f 279//279 326//326 270//270
f 294//294 275//275 283//283
f 300//300 310//310 349//349
f 213//213 260//260 215//215
f 271//271 189//189 199//199
f 285//285 271//271 207//207
f 410//410 248//248 271//271
f 239//239 271//271 248//248
f 239//239 189//189 271//271
f 189//189 234//234 178//178
f 235//235 189//189 239//239
f 87//87 128//128 151//151
f 128//128 91//91 97//97
f 215//215 151//151 213//213
f 151//151 164//164 87//87
f 44//44 64//64 89//89
f 33//33 44//44 89//89
f 44//44 59//59 64//64
f 326//326 351//351 267//267
f 207//207 260//260 267//267
f 59//59 33//33 28//28
f 42//42 37//37 54//54
f 291//291 230//230 305//305
f 29//29 23//23 22//22
f 22//22 10//10 9//9
f 244//244 148//148 248//248
f 98//98 26//26 89//89
f 104//104 98//98 89//89
f 26//26 33//33 89//89
f 124//124 106//106 109//109
f 230//230 153//153 228//228
f 100//100 73//73 81//81
f 26//26 130//130 7//7
f 816//816 817//817 784//784
f 817//817 802//802 815//815
f 816//816 794//794 817//817
f 802//802 817//817 794//794
f 800//800 802//802 778//778
f 802//802 794//794 790//790
f 806//806 799//799 792//792
f 792//792 767//767 777//777
f 771//771 799//799 775//775
f 799//799 767//767 792//792
f 799//799 771//771 767//767
f 771//771 755//755 767//767
f 774//774 749//749 743//743
f 749//749 751//751 745//745
f 739//739 751//751 721//721
f 739//739 743//743 745//745
f 749//749 745//745 743//743
f 743//743 739//739 745//745
f 774//774 777//777 767//767
f 751//751 774//774 735//735
f 735//735 755//755 741//741
f 755//755 735//735 767//767
f 668//668 670//670 751//751
f 746//746 784//784 815//815
f 815//815 804//804 806//806
f 806//806 746//746 815//815
f 806//806 815//815 800//800
f 806//806 782//782 746//746
f 800//800 799//799 806//806
f 782//782 774//774 746//746
f 774//774 743//743 746//746
f 753//753 664//664 784//784
f 602//602 604//604 550//550
f 474//474 489//489 480//480
f 454//454 449//449 489//489
f 444//444 489//489 449//449
f 476//476 444//444 513//513
f 458//458 462//462 460//460
f 462//462 458//458 460//460
f 335//335 458//458 367//367
f 462//462 458//458 407//407
f 458//458 363//363 308//308
f 430//430 458//458 308//308
f 335//335 367//367 353//353
f 335//335 353//353 346//346
f 344//344 353//353 358//358
f 344//344 367//367 358//358
f 344//344 353//353 367//367
f 361//361 363//363 319//319
f 458//458 335//335 319//319
f 319//319 335//335 344//344
f 246//246 363//363 319//319
f 559//559 560//560 534//534
f 534//534 545//545 533//533
f 564//564 577//577 569//569
f 564//564 576//576 547//547
f 577//577 569//569 576//576
f 576//576 564//564 539//539
f 576//576 552//552 564//564
f 552//552 564//564 541//541
f 549//549 550//550 534//534
f 550//550 560//560 549//549
f 577//577 576//576 567//567
f 545//545 533//533 550//550
f 289//289 306//306 533//533
f 533//533 306//306 303//303
f 511//511 507//507 466//466
f 533//533 534//534 289//289
f 545//545 534//534 533//533
f 602//602 445//445 431//431
f 391//391 602//602 431//431
f 445//445 602//602 550//550
f 303//303 306//306 262//262
f 255//255 281//281 262//262
f 676//676 587//587 604//604
f 599//599 587//587 676//676
f 676//676 611//611 599//599
f 599//599 587//587 591//591
f 587//587 599//599 544//544
f 599//599 611//611 609//609
f 716//716 721//721 670//670
f 719//719 721//721 716//716
f 654//654 676//676 656//656
f 676//676 670//670 656//656
f 656//656 623//623 654//654
f 611//611 654//654 585//585
f 544//544 611//611 601//601
f 544//544 601//601 566//566
f 611//611 599//599 609//609
f 716//716 676//676 663//663
f 663//663 664//664 710//710
f 491//491 537//537 604//604
f 587//587 491//491 604//604
f 663//663 604//604 664//664
f 753//753 746//746 710//710
f 654//654 597//597 585//585
f 585//585 597//597 554//554
f 554//554 296//296 484//484
f 585//585 554//554 484//484
f 321//321 566//566 585//585
f 566//566 321//321 312//312
f 491//491 468//468 423//423
f 497//497 491//491 423//423
f 390//390 367//367 393//393
f 402//402 390//390 388//388
f 402//402 398//398 390//390
f 402//402 390//390 398//398
f 388//388 367//367 402//402
f 407//407 382//382 400//400
f 382//382 390//390 400//400
f 482//482 444//444 476//476
f 447//447 476//476 482//482
f 447//447 423//423 430//430
f 444//444 442//442 476//476
f 447//447 454//454 444//444
f 367//367 407//407 402//402
f 423//423 365//365 407//407
f 423//423 314//314 376//376
f 386//386 373//373 407//407
f 302//302 382//382 314//314
f 356//356 376//376 314//314
f 356//356 365//365 373//373
f 373//373 365//365 356//356
f 365//365 423//423 356//356
f 373//373 356//356 314//314
f 430//430 308//308 404//404
f 587//587 471//471 528//528
f 491//491 587//587 520//520
f 471//471 520//520 528//528
f 423//423 468//468 471//471
f 471//471 587//587 425//425
f 493//493 520//520 471//471
f 395//395 407//407 382//382
f 373//373 314//314 384//384
f 390//390 382//382 302//302
f 373//373 386//386 384//384
f 390//390 302//302 378//378
f 319//319 302//302 232//232
f 302//302 314//314 232//232
f 378//378 367//367 380//380
f 378//378 393//393 367//367
f 378//378 367//367 393//393
f 378//378 367//367 390//390
f 548//548 604//604 537//537
f 509//509 518//518 482//482
f 497//497 530//530 518//518
f 530//530 497//497 518//518
f 518//518 497//497 530//530
f 509//509 548//548 542//542
f 542//542 567//567 550//550
f 537//537 491//491 497//497
f 548//548 542//542 550//550
f 548//548 518//518 530//530
f 548//548 539//539 518//518
f 509//509 518//518 548//548
f 548//548 518//518 539//539
f 404//404 242//242 524//524
f 289//289 233//233 264//264
f 292//292 524//524 242//242
f 289//289 292//292 247//247
f 289//289 247//247 233//233
f 205//205 226//226 242//242
f 202//202 225//225 247//247
f 292//292 226//226 247//247
f 292//292 289//289 524//524
f 292//292 242//242 226//226
f 306//306 233//233 219//219
f 262//262 306//306 219//219
f 192//192 255//255 262//262
f 210//210 255//255 192//192
f 192//192 262//262 219//219
f 171//171 219//219 143//143
f 192//192 219//219 171//171
f 192//192 159//159 210//210
f 159//159 171//171 143//143
f 194//194 246//246 221//221
f 194//194 221//221 232//232
f 308//308 194//194 242//242
f 242//242 194//194 181//181
f 194//194 232//232 209//209
f 209//209 314//314 188//188
f 188//188 156//156 194//194
f 205//205 156//156 226//226
f 425//425 312//312 228//228
f 471//471 228//228 252//252
f 228//228 136//136 188//188
f 218//218 167//167 186//186
f 126//126 173//173 167//167
f 186//186 175//175 202//202
f 202//202 247//247 186//186
f 247//247 218//218 186//186
f 296//296 312//312 321//321
f 312//312 296//296 228//228
f 228//228 124//124 136//136
f 425//425 228//228 471//471
f 126//126 219//219 172//172
f 126//126 103//103 143//143
f 76//76 102//102 85//85
f 102//102 81//81 85//85
f 188//188 136//136 156//156
f 156//156 136//136 122//122
f 156//156 134//134 109//109
f 156//156 122//122 134//134
f 168//168 156//156 145//145
f 218//218 226//226 157//157
f 107//107 116//116 145//145
f 226//226 168//168 157//157
f 109//109 134//134 122//122
f 109//109 122//122 136//136
f 145//145 156//156 119//119
f 107//107 109//109 81//81
f 109//109 145//145 119//119
f 109//109 100//100 81//81
f 102//102 116//116 107//107
f 102//102 107//107 81//81
f 157//157 116//116 218//218
f 444//444 482//482 466//466
f 526//526 518//518 482//482
f 539//539 518//518 526//526
f 550//550 289//289 534//534
f 497//497 447//447 404//404
f 246//246 319//319 232//232
f 120//120 210//210 159//159
f 120//120 159//159 143//143
f 103//103 77//77 99//99
f 99//99 143//143 103//103
f 802//802 790//790 778//778
f 790//790 772//772 778//778
f 772//772 768//768 757//757
f 772//772 790//790 794//794
f 794//794 769//769 772//772
f 768//768 756//756 757//757
f 756//756 768//768 769//769
f 768//768 772//772 769//769
f 778//778 737//737 755//755
f 755//755 737//737 709//709
f 775//775 778//778 755//755
f 775//775 755//755 771//771
f 741//741 712//712 735//735
f 709//709 712//712 741//741
f 735//735 701//701 668//668
f 701//701 644//644 668//668
f 712//712 709//709 701//701
f 701//701 709//709 644//644
f 709//709 687//687 652//652
f 735//735 712//712 701//701
f 652//652 687//687 640//640
f 737//737 687//687 709//709
f 800//800 778//778 775//775
f 752//752 737//737 778//778
f 772//772 757//757 704//704
f 765//765 705//705 737//737
f 765//765 727//727 705//705
f 705//705 727//727 704//704
f 705//705 638//638 624//624
f 704//704 638//638 705//705
f 638//638 704//704 756//756
f 638//638 756//756 574//574
f 687//687 737//737 688//688
f 640//640 688//688 607//607
f 688//688 624//624 607//607
f 310//310 428//428 607//607
f 624//624 638//638 485//485
f 624//624 485//485 592//592
f 574//574 485//485 638//638
f 607//607 592//592 405//405
f 405//405 341//341 607//607
f 426//426 405//405 485//485
f 592//592 485//485 405//405
f 574//574 472//472 485//485
f 607//607 624//624 592//592
f 752//752 765//765 737//737
f 723//723 725//725 729//729
f 685//685 707//707 699//699
f 650//650 685//685 637//637
f 650//650 621//621 678//678
f 621//621 333//333 416//416
f 637//637 594//594 650//650
f 621//621 650//650 594//594
f 694//694 680//680 666//666
f 714//714 725//725 683//683
f 690//690 683//683 660//660
f 642//642 694//694 666//666
f 666//666 685//685 660//660
f 685//685 666//666 648//648
f 637//637 648//648 631//631
f 666//666 660//660 642//642
f 648//648 666//666 631//631
f 637//637 573//573 581//581
f 631//631 573//573 637//637
f 573//573 606//606 505//505
f 606//606 631//631 505//505
f 631//631 606//606 573//573
f 581//581 594//594 637//637
f 440//440 594//594 326//326
f 581//581 573//573 558//558
f 562//562 573//573 558//558
f 505//505 558//558 573//573
f 505//505 326//326 558//558
f 562//562 583//583 573//573
f 697//697 662//662 699//699
f 707//707 658//658 697//697
f 658//658 662//662 697//697
f 662//662 658//658 616//616
f 616//616 658//658 635//635
f 678//678 614//614 658//658
f 616//616 635//635 579//579
f 579//579 433//433 616//616
f 433//433 298//298 616//616
f 426//426 327//327 248//248
f 485//485 327//327 426//426
f 633//633 642//642 662//662
f 633//633 662//662 616//616
f 633//633 616//616 503//503
f 505//505 633//633 503//503
f 631//631 633//633 505//505
f 505//505 503//503 351//351
f 723//723 725//725 714//714
f 678//678 658//658 707//707
f 472//472 409//409 485//485
f 644//644 646//646 668//668
f 623//623 532//532 571//571
f 532//532 487//487 495//495
f 348//348 495//495 487//487
f 597//597 532//532 554//554
f 554//554 418//418 296//296
f 597//597 571//571 532//532
f 418//418 532//532 291//291
f 305//305 418//418 291//291
f 554//554 532//532 418//418
f 412//412 348//348 291//291
f 291//291 348//348 287//287
f 412//412 495//495 348//348
f 348//348 250//250 287//287
f 640//640 435//435 589//589
f 487//487 589//589 348//348
f 589//589 435//435 324//324
f 348//348 589//589 324//324
f 640//640 607//607 435//435
f 435//435 607//607 428//428
f 607//607 349//349 310//310
f 324//324 435//435 310//310
f 254//254 310//310 300//300
f 341//341 349//349 607//607
f 348//348 324//324 257//257
f 324//324 254//254 257//257
f 170//170 166//166 201//201
f 257//257 217//217 201//201
f 300//300 237//237 254//254
f 201//201 191//191 177//177
f 191//191 151//151 170//170
f 191//191 217//217 151//151
f 305//305 230//230 296//296
f 153//153 142//142 228//228
f 124//124 228//228 142//142
f 124//124 142//142 153//153
f 124//124 153//153 106//106
f 106//106 100//100 109//109
f 88//88 106//106 115//115
f 230//230 291//291 183//183
f 166//166 147//147 183//183
f 183//183 291//291 166//166
f 115//115 153//153 113//113
f 115//115 95//95 88//88
f 57//57 76//76 85//85
f 69//69 106//106 88//88
f 76//76 57//57 68//68
f 68//68 71//71 76//76
f 68//68 57//57 48//48
f 88//88 95//95 74//74
f 57//57 88//88 60//60
f 74//74 60//60 88//88
f 74//74 95//95 63//63
f 57//57 81//81 73//73
f 57//57 60//60 45//45
f 48//48 57//57 45//45
f 113//113 147//147 166//166
f 113//113 166//166 170//170
f 113//113 170//170 83//83
f 95//95 83//83 63//63
f 66//66 63//63 83//83
f 151//151 97//97 170//170
f 83//83 97//97 66//66
f 60//60 74//74 63//63
f 66//66 62//62 47//47
f 66//66 47//47 11//11
f 11//11 30//30 66//66
f 40//40 45//45 63//63
f 63//63 45//45 60//60
f 48//48 40//40 29//29
f 23//23 40//40 30//30
f 69//69 88//88 57//57
f 594//594 333//333 621//621
f 333//333 594//594 294//294
f 440//440 371//371 294//294
f 270//270 273//273 283//283
f 273//273 270//270 260//260
f 294//294 273//273 333//333
f 440//440 339//339 371//371
f 440//440 337//337 339//339
f 294//294 316//316 326//326
f 294//294 277//277 275//275
f 275//275 277//277 279//279
f 270//270 275//275 279//279
f 270//270 283//283 275//275
f 621//621 414//414 433//433
f 433//433 331//331 300//300
f 271//271 349//349 410//410
f 300//300 349//349 271//271
f 271//271 298//298 433//433
f 331//331 433//433 414//414
f 300//300 271//271 433//433
f 331//331 224//224 300//300
f 333//333 213//213 416//416
f 224//224 416//416 213//213
f 300//300 224//224 237//237
f 616//616 298//298 285//285
f 298//298 271//271 285//285
f 421//421 285//285 503//503
f 503//503 285//285 207//207
f 333//333 260//260 213//213
f 215//215 260//260 185//185
f 185//185 260//260 207//207
f 207//207 271//271 199//199
f 414//414 416//416 224//224
f 349//349 341//341 405//405
f 410//410 405//405 396//396
f 405//405 410//410 349//349
f 405//405 426//426 396//396
f 248//248 235//235 239//239
f 178//178 138//138 189//189
f 178//178 137//137 138//138
f 235//235 234//234 189//189
f 217//217 224//224 213//213
f 217//217 213//213 151//151
f 224//224 254//254 237//237
f 224//224 217//217 254//254
f 128//128 87//87 91//91
f 151//151 185//185 164//164
f 185//185 151//151 215//215
f 185//185 199//199 110//110
f 185//185 87//87 164//164
f 185//185 110//110 87//87
f 110//110 138//138 89//89
f 138//138 137//137 89//89
f 89//89 137//137 104//104
f 110//110 89//89 72//72
f 110//110 59//59 87//87
f 72//72 59//59 110//110
f 89//89 64//64 72//72
f 64//64 59//59 72//72
f 351//351 503//503 267//267
f 267//267 503//503 207//207
f 207//207 199//199 185//185
f 189//189 110//110 199//199
f 110//110 189//189 138//138
f 56//56 62//62 97//97
f 91//91 56//56 97//97
f 56//56 54//54 37//37
f 54//54 56//56 87//87
f 42//42 54//54 59//59
f 47//47 62//62 56//56
f 47//47 56//56 37//37
f 17//17 47//47 35//35
f 35//35 47//47 37//37
f 31//31 33//33 12//12
f 17//17 12//12 11//11
f 37//37 59//59 31//31
f 37//37 42//42 59//59
f 31//31 59//59 28//28
f 59//59 44//44 33//33
f 17//17 35//35 31//31
f 91//91 87//87 56//56
f 54//54 87//87 59//59
f 623//623 571//571 597//597
f 644//644 652//652 589//589
f 260//260 326//326 267//267
f 68//68 29//29 71//71
f 71//71 29//29 77//77
f 29//29 68//68 48//48
f 77//77 29//29 25//25
f 9//9 6//6 22//22
f 26//26 7//7 1//1
f 1//1 7//7 6//6
f 1//1 6//6 9//9
f 25//25 29//29 18//18
f 18//18 29//29 22//22
f 23//23 30//30 22//22
f 10//10 11//11 2//2
f 1//1 10//10 2//2
f 9//9 10//10 1//1
f 22//22 30//30 11//11
f 10//10 22//22 11//11
f 18//18 6//6 7//7
f 327//327 244//244 248//248
f 234//234 248//248 148//148
f 148//148 196//196 160//160
f 178//178 234//234 148//148
f 144//144 130//130 98//98
f 148//148 137//137 178//178
f 104//104 137//137 148//148
f 160//160 144//144 148//148
f 98//98 104//104 148//148
f 148//148 144//144 98//98
f 130//130 144//144 160//160
f 98//98 130//130 26//26
f 33//33 26//26 1//1
f 33//33 1//1 12//12
f 12//12 1//1 2//2
f 594//594 440//440 294//294
f 652//652 640//640 589//589
f 416//416 414//414 621//621
f 285//285 421//421 616//616
f 426//426 248//248 410//410
f 472//472 574//574 455//455
f 472//472 455//455 409//409
f 196//196 148//148 244//244
f 782//782 789//789 780//780
f 782//782 780//780 789//789
f 777//777 780//780 782//782
f 522//522 476//476 499//499
f 522//522 499//499 513//513
f 782//782 780//780 774//774
f 774//774 780//780 777//777
f 782//782 806//806 792//792
f 777//777 789//789 792//792
f 721//721 751//751 670//670
f 668//668 751//751 735//735
f 784//784 817//817 815//815
f 499//499 489//489 501//501
f 499//499 501//501 513//513
f 513//513 474//474 444//444
f 513//513 444//444 476//476
f 513//513 501//501 474//474
f 489//489 449//449 474//474
f 507//507 511//511 522//522
f 476//476 522//522 511//511
f 507//507 522//522 476//476
f 489//489 474//474 501//501
f 480//480 489//489 501//501
f 451//451 437//437 430//430
f 451//451 430//430 444//444
f 444//444 449//449 437//437
f 444//444 437//437 451//451
f 454//454 451//451 449//449
f 489//489 474//474 480//480
f 451//451 437//437 449//449
f 489//489 444//444 474//474
f 522//522 513//513 444//444
f 522//522 444//444 507//507
f 474//474 449//449 489//489
f 454//454 489//489 499//499
f 507//507 476//476 522//522
f 478//478 464//464 367//367
f 346//346 353//353 344//344
f 346//346 344//344 335//335
f 464//464 478//478 462//462
f 430//430 460//460 458//458
f 464//464 478//478 458//458
f 458//458 478//478 367//367
f 367//367 464//464 462//462
f 458//458 478//478 464//464
f 462//462 478//478 458//458
f 407//407 460//460 430//430
f 458//458 460//460 407//407
f 380//380 369//369 344//344
f 380//380 344//344 367//367
f 367//367 369//369 358//358
f 369//369 344//344 358//358
f 344//344 369//369 367//367
f 344//344 358//358 353//353
f 363//363 361//361 319//319
f 246//246 308//308 363//363
f 533//533 545//545 559//559
f 559//559 534//534 533//533
f 564//564 547//547 541//541
f 539//539 569//569 577//577
f 576//576 539//539 526//526
f 576//576 526//526 547//547
f 567//567 564//564 526//526
f 577//577 564//564 569//569
f 564//564 576//576 569//569
f 564//564 569//569 539//539
f 526//526 516//516 511//511
f 509//509 567//567 526//526
f 547//547 526//526 564//564
f 576//576 569//569 564//564
f 576//576 564//564 567//567
f 576//576 564//564 569//569
f 552//552 541//541 547//547
f 552//552 547//547 564//564
f 576//576 564//564 552//552
f 550//550 549//549 560//560
f 560//560 559//559 545//545
f 534//534 560//560 549//549
f 545//545 549//549 560//560
f 550//550 567//567 509//509
f 466//466 509//509 526//526
f 466//466 526//526 511//511
f 550//550 533//533 445//445
f 445//445 533//533 303//303
f 400//400 402//402 407//407
f 391//391 431//431 303//303
f 599//599 591//591 587//587
f 743//743 719//719 716//716
f 623//623 656//656 532//532
f 676//676 654//654 611//611
f 663//663 710//710 746//746
f 388//388 390//390 367//367
f 390//390 393//393 367//367
f 407//407 384//384 382//382
f 407//407 400//400 395//395
f 407//407 395//395 382//382
f 402//402 398//398 390//390
f 398//398 400//400 390//390
f 400//400 398//398 402//402
f 400//400 407//407 395//395
f 454//454 476//476 442//442
f 454//454 442//442 447//447
f 373//373 384//384 386//386
f 314//314 382//382 384//384
f 476//476 447//447 442//442
f 482//482 476//476 442//442
f 482//482 442//442 404//404
f 404//404 447//447 482//482
f 454//454 447//447 430//430
f 386//386 365//365 373//373
f 404//404 442//442 444//444
f 447//447 444//444 454//454
f 365//365 386//386 407//407
f 356//356 423//423 376//376
f 356//356 373//373 365//365
f 384//384 407//407 373//373
f 528//528 520//520 587//587
f 493//493 491//491 520//520
f 491//491 493//493 471//471
f 471//471 468//468 491//491
f 380//380 378//378 302//302
f 530//530 518//518 539//539
f 378//378 380//380 367//367
f 537//537 530//530 524//524
f 518//518 509//509 482//482
f 577//577 567//567 548//548
f 577//577 548//548 530//530
f 497//497 530//530 537//537
f 509//509 482//482 518//518
f 518//518 530//530 497//497
f 548//548 524//524 542//542
f 509//509 567//567 542//542
f 509//509 542//542 550//550
f 567//567 542//542 548//548
f 509//509 542//542 567//567
f 537//537 524//524 548//548
f 524//524 289//289 542//542
f 247//247 225//225 233//233
f 404//404 524//524 497//497
f 225//225 202//202 233//233
f 202//202 219//219 233//233
f 159//159 192//192 161//161
f 159//159 161//161 171//171
f 466//466 482//482 509//509
f 171//171 161//161 159//159
f 167//167 173//173 175//175
f 159//159 161//161 171//171
f 221//221 246//246 232//232
f 205//205 242//242 181//181
f 194//194 156//156 181//181
f 175//175 173//173 202//202
f 167//167 218//218 116//116
f 167//167 116//116 126//126
f 167//167 175//175 186//186
f 168//168 145//145 157//157
f 145//145 116//116 157//157
f 173//173 126//126 172//172
f 109//109 136//136 124//124
f 107//107 145//145 109//109
f 116//116 102//102 126//126
f 476//476 454//454 499//499
f 451//451 454//454 430//430
f 451//451 430//430 437//437
f 380//380 367//367 378//378
f 430//430 447//447 444//444
f 369//369 380//380 302//302
f 369//369 302//302 344//344
f 316//316 329//329 339//339
f 511//511 516//516 482//482
f 77//77 103//103 71//71
f 704//704 727//727 772//772
f 723//723 683//683 725//725
f 723//723 729//729 725//725
f 690//690 685//685 699//699
f 614//614 678//678 621//621
f 631//631 680//680 642//642
f 690//690 699//699 683//683
f 683//683 723//723 714//714
f 666//666 680//680 631//631
f 633//633 631//631 642//642
f 694//694 642//642 680//680
f 562//562 573//573 583//583
f 635//635 658//658 579//579
f 646//646 532//532 670//670
f 644//644 589//589 487//487
f 484//484 296//296 321//321
f 296//296 418//418 305//305
f 412//412 532//532 495//495
f 250//250 291//291 287//287
f 201//201 291//291 250//250
f 250//250 348//348 257//257
f 257//257 254//254 217//217
f 250//250 257//257 201//201
f 230//230 183//183 153//153
f 57//57 85//85 81//81
f 57//57 73//73 69//69
f 23//23 29//29 40//40
f 294//294 283//283 273//273
f 440//440 326//326 337//337
f 371//371 329//329 316//316
f 339//339 329//329 371//371
f 371//371 316//316 294//294
f 337//337 316//316 339//339
f 294//294 279//279 277//277
f 128//128 97//97 151//151
f 331//331 414//414 224//224
f 426//426 410//410 396//396
f 234//234 235//235 248//248
f 47//47 17//17 11//11
f 31//31 12//12 17//17
f 31//31 35//35 37//37
f 33//33 31//31 28//28
f 2//2 11//11 12//12
f 22//22 6//6 18//18
f 265//265 211//211 203//203
f 211//211 101//101 131//131
f 243//243 408//408 317//317
f 807//807 812//812 814//814
f 795//795 763//763 764//764
f 628//628 619//619 618//618
f 555//555 374//374 419//419
f 374//374 265//265 288//288
f 730//730 672//672 674//674
f 101//101 70//70 75//75
f 612//612 703//703 673//673
f 452//452 612//612 535//535
f 408//408 452//452 469//469
f 21//21 3//3 8//8
f 786//786 801//801 798//798
f 125//125 158//158 149//149
f 703//703 759//759 747//747
f 158//158 243//243 222//222
f 52//52 38//38 39//39
f 38//38 21//21 32//32
f 3//3 15//15 13//13
f 807//807 803//803 801//801
f 263//263 280//280 265//265
f 628//628 671//671 672//672
f 203//203 238//238 265//265
f 174//174 197//197 211//211
f 131//131 174//174 211//211
f 786//786 761//761 759//759
f 717//717 702//702 703//703
f 438//438 359//359 408//408
f 317//317 268//268 243//243
f 125//125 84//84 79//79
f 79//79 51//51 49//49
f 814//814 810//810 807//807
f 795//795 811//811 812//812
f 764//764 793//793 795//795
f 730//730 762//762 763//763
f 618//618 626//626 628//628
f 555//555 617//617 619//619
f 419//419 514//514 555//555
f 354//354 419//419 374//374
f 288//288 322//322 374//374
f 674//674 726//726 730//730
f 93//93 111//111 101//101
f 75//75 92//92 101//101
f 673//673 625//625 612//612
f 625//625 595//595 612//612
f 469//469 456//456 408//408
f 52//52 67//67 70//70
f 20//20 24//24 21//21
f 4//4 8//8 3//3
f 8//8 14//14 21//21
f 261//261 240//240 243//243
f 195//195 179//179 158//158
f 49//49 16//16 15//15
f 798//798 787//787 786//786
f 149//149 132//132 125//125
f 747//747 732//732 703//703
f 222//222 195//195 158//158
f 39//39 50//50 52//52
f 13//13 5//5 3//3
f 807//807 809//809 808//808
f 807//807 808//808 805//805
f 812//812 811//811 813//813
f 795//795 793//793 796//796
f 730//730 731//731 733//733
f 555//555 514//514 556//556
f 265//265 280//280 288//288
f 628//628 627//627 629//629
f 730//730 726//726 731//731
f 211//211 197//197 203//203
f 786//786 785//785 783//783
f 786//786 787//787 785//785
f 759//759 758//758 747//747
f 703//703 732//732 717//717
f 703//703 681//681 673//673
f 612//612 595//595 535//535
f 408//408 359//359 340//340
f 408//408 340//340 317//317
f 21//21 24//24 27//27
f 243//243 268//268 261//261
f 243//243 240//240 222//222
f 158//158 179//179 162//162
f 158//158 154//154 149//149
f 158//158 162//162 154//154
f 49//49 51//51 43//43
f 79//79 84//84 80//80
f 807//807 810//810 809//809
f 795//795 796//796 797//797
f 374//374 322//322 342//342
f 374//374 342//342 354//354
f 628//628 626//626 627//627
f 265//265 238//238 258//258
f 101//101 117//117 131//131
f 101//101 111//111 117//117
f 759//759 760//760 758//758
f 703//703 702//702 695//695
f 703//703 695//695 681//681
f 408//408 456//456 438//438
f 52//52 50//50 58//58
f 21//21 27//27 32//32
f 3//3 5//5 4//4
f 21//21 14//14 19//19
f 21//21 19//19 20//20
f 125//125 132//132 129//129
f 79//79 80//80 78//78
f 101//101 92//92 93//93
f 265//265 258//258 263//263
f 776//776 788//788 781//781
f 781//781 788//788 791//791
f 748//748 750//750 773//773
f 744//744 738//738 750//750
f 744//744 742//742 738//738
f 773//773 734//734 766//766
f 815//815 804//804 806//806
f 775//775 800//800 799//799
f 753//753 746//746 784//784
f 800//800 802//802 815//815
f 506//506 465//465 443//443
f 406//406 461//461 366//366
f 500//500 479//479 488//488
f 301//301 343//343 318//318
f 362//362 318//318 457//457
f 549//549 550//550 545//545
f 303//303 445//445 431//431
f 281//281 262//262 303//303
f 391//391 281//281 303//303
f 586//586 424//424 543//543
f 718//718 738//738 742//742
f 669//669 715//715 675//675
f 718//718 720//720 738//738
f 531//531 669//669 655//655
f 610//610 600//600 565//565
f 610//610 598//598 543//543
f 584//584 610//610 565//565
f 715//715 746//746 663//663
f 603//603 675//675 663//663
f 603//603 664//664 602//602
f 715//715 742//742 746//746
f 753//753 664//664 710//710
f 653//653 596//596 622//622
f 565//565 543//543 311//311
f 584//584 320//320 483//483
f 429//429 406//406 422//422
f 429//429 443//443 403//403
f 422//422 496//496 446//446
f 446//446 443//443 429//429
f 313//313 470//470 422//422
f 231//231 208//208 313//313
f 529//529 577//577 538//538
f 523//523 496//496 529//529
f 542//542 550//550 289//289
f 289//289 306//306 264//264
f 313//313 187//187 251//251
f 313//313 251//251 470//470
f 226//226 247//247 218//218
f 548//548 603//603 550//550
f 306//306 233//233 264//264
f 192//192 161//161 171//171
f 193//193 245//245 307//307
f 193//193 187//187 208//208
f 180//180 204//204 155//155
f 311//311 543//543 424//424
f 187//187 227//227 251//251
f 202//202 219//219 172//172
f 202//202 172//172 173//173
f 229//229 295//295 227//227
f 103//103 76//76 126//126
f 219//219 143//143 126//126
f 126//126 76//76 102//102
f 76//76 103//103 71//71
f 139//139 133//133 155//155
f 226//226 168//168 155//155
f 155//155 118//118 108//108
f 133//133 139//139 155//155
f 307//307 403//403 241//241
f 481//481 510//510 475//475
f 525//525 515//515 481//481
f 120//120 99//99 143//143
f 778//778 765//765 772//772
f 708//708 643//643 651//651
f 754//754 740//740 708//708
f 765//765 778//778 752//752
f 772//772 765//765 727//727
f 757//757 704//704 756//756
f 736//736 688//688 705//705
f 639//639 688//688 686//686
f 688//688 624//624 705//705
f 677//677 684//684 706//706
f 684//684 677//677 649//649
f 679//679 691//691 693//693
f 682//682 713//713 698//698
f 713//713 682//682 698//698
f 682//682 659//659 698//698
f 691//691 679//679 693//693
f 684//684 659//659 689//689
f 572//572 557//557 561//561
f 593//593 325//325 557//557
f 580//580 593//593 557//557
f 684//684 636//636 647//647
f 613//613 657//657 578//578
f 613//613 578//578 620//620
f 578//578 432//432 620//620
f 661//661 698//698 641//641
f 615//615 502//502 420//420
f 696//696 706//706 698//698
f 659//659 641//641 698//698
f 504//504 325//325 350//350
f 409//409 485//485 327//327
f 327//327 244//244 409//409
f 669//669 645//645 667//667
f 643//643 645//645 531//531
f 643//643 531//531 486//486
f 411//411 531//531 290//290
f 434//434 309//309 427//427
f 309//309 323//323 253//253
f 200//200 169//169 176//176
f 216//216 200//200 190//190
f 176//176 169//169 190//190
f 114//114 152//152 105//105
f 182//182 152//152 146//146
f 290//290 165//165 200//200
f 152//152 112//112 146//146
f 114//114 94//94 112//112
f 105//105 73//73 69//69
f 96//96 169//169 82//82
f 82//82 112//112 94//94
f 61//61 96//96 65//65
f 63//63 30//30 65//65
f 48//48 40//40 45//45
f 40//40 30//30 63//63
f 100//100 73//73 105//105
f 332//332 259//259 272//272
f 325//325 269//269 259//259
f 325//325 336//336 315//315
f 278//278 325//325 293//293
f 278//278 269//269 325//325
f 293//293 282//282 274//274
f 299//299 349//349 309//309
f 212//212 214//214 259//259
f 271//271 198//198 189//189
f 284//284 206//206 271//271
f 410//410 271//271 248//248
f 239//239 248//248 271//271
f 239//239 271//271 189//189
f 189//189 178//178 234//234
f 235//235 239//239 189//189
f 86//86 150//150 127//127
f 127//127 96//96 90//90
f 214//214 212//212 150//150
f 150//150 86//86 163//163
f 44//44 89//89 64//64
f 33//33 89//89 44//44
f 44//44 64//64 59//59
f 325//325 266//266 350//350
f 206//206 266//266 259//259
f 59//59 28//28 33//33
f 41//41 53//53 36//36
f 290//290 304//304 229//229
f 29//29 22//22 23//23
f 22//22 9//9 10//10
f 244//244 248//248 148//148
f 98//98 89//89 26//26
f 104//104 89//89 98//98
f 26//26 89//89 33//33
f 123//123 108//108 105//105
f 229//229 227//227 152//152
f 100//100 81//81 73//73
f 26//26 7//7 130//130
f 816//816 784//784 817//817
f 817//817 815//815 802//802
f 816//816 817//817 794//794
f 802//802 794//794 817//817
f 800//800 778//778 802//802
f 802//802 790//790 794//794
f 806//806 791//791 799//799
f 791//791 776//776 766//766
f 770//770 775//775 799//799
f 799//799 791//791 766//766
f 799//799 766//766 770//770
f 770//770 766//766 754//754
f 773//773 742//742 748//748
f 748//748 744//744 750//750
f 738//738 720//720 750//750
f 738//738 744//744 742//742
f 748//748 742//742 744//744
f 742//742 744//744 738//738
f 773//773 766//766 776//776
f 750//750 734//734 773//773
f 734//734 740//740 754//754
f 754//754 766//766 734//734
f 667//667 750//750 669//669
f 746//746 815//815 784//784
f 815//815 806//806 804//804
f 806//806 815//815 746//746
f 806//806 800//800 815//815
f 806//806 746//746 781//781
f 800//800 806//806 799//799
f 781//781 746//746 773//773
f 773//773 746//746 742//742
f 753//753 784//784 664//664
f 602//602 550//550 603//603
f 473//473 479//479 488//488
f 453//453 488//488 448//448
f 443//443 448//448 488//488
f 475//475 512//512 443//443
f 457//457 459//459 461//461
f 461//461 459//459 457//457
f 334//334 366//366 457//457
f 461//461 406//406 457//457
f 457//457 307//307 362//362
f 429//429 307//307 457//457
f 334//334 352//352 366//366
f 334//334 345//345 352//352
f 343//343 357//357 352//352
f 343//343 357//357 366//366
f 343//343 366//366 352//352
f 360//360 318//318 362//362
f 457//457 318//318 334//334
f 318//318 343//343 334//334
f 245//245 318//318 362//362
f 559//559 534//534 560//560
f 534//534 533//533 545//545
f 563//563 568//568 577//577
f 563//563 546//546 575//575
f 577//577 575//575 568//568
f 575//575 538//538 563//563
f 575//575 563//563 551//551
f 551//551 540//540 563//563
f 549//549 534//534 550//550
f 550//550 549//549 560//560
f 577//577 567//567 575//575
f 545//545 550//550 533//533
f 289//289 533//533 306//306
f 533//533 303//303 306//306
f 510//510 465//465 506//506
f 533//533 289//289 534//534
f 545//545 533//533 534//534
f 602//602 431//431 445//445
f 391//391 431//431 602//602
f 445//445 550//550 602//602
f 303//303 262//262 306//306
f 255//255 262//262 281//281
f 675//675 603//603 586//586
f 598//598 675//675 586//586
f 675//675 598//598 610//610
f 598//598 590//590 586//586
f 586//586 543//543 598//598
f 598//598 608//608 610//610
f 715//715 669//669 720//720
f 718//718 715//715 720//720
f 653//653 655//655 675//675
f 675//675 655//655 669//669
f 655//655 653//653 622//622
f 610//610 584//584 653//653
f 543//543 600//600 610//610
f 543//543 565//565 600//600
f 610//610 608//608 598//598
f 715//715 663//663 675//675
f 663//663 710//710 664//664
f 490//490 603//603 536//536
f 586//586 603//603 490//490
f 663//663 664//664 603//603
f 753//753 710//710 746//746
f 653//653 584//584 596//596
f 584//584 553//553 596//596
f 553//553 483//483 295//295
f 584//584 483//483 553//553
f 320//320 584//584 565//565
f 565//565 311//311 320//320
f 490//490 422//422 467//467
f 496//496 422//422 490//490
f 389//389 392//392 366//366
f 401//401 387//387 389//389
f 401//401 389//389 397//397
f 401//401 397//397 389//389
f 387//387 401//401 366//366
f 406//406 399//399 381//381
f 381//381 399//399 389//389
f 481//481 475//475 443//443
f 446//446 481//481 475//475
f 446//446 429//429 422//422
f 443//443 475//475 441//441
f 446//446 443//443 453//453
f 366//366 401//401 406//406
f 422//422 406//406 364//364
f 422//422 375//375 313//313
f 385//385 406//406 372//372
f 301//301 313//313 381//381
f 355//355 313//313 375//375
f 355//355 372//372 364//364
f 372//372 355//355 364//364
f 364//364 355//355 422//422
f 372//372 313//313 355//355
f 429//429 403//403 307//307
f 586//586 527//527 470//470
f 490//490 519//519 586//586
f 470//470 527//527 519//519
f 422//422 470//470 467//467
f 470//470 424//424 586//586
f 492//492 470//470 519//519
f 394//394 381//381 406//406
f 372//372 383//383 313//313
f 389//389 301//301 381//381
f 372//372 383//383 385//385
f 389//389 377//377 301//301
f 318//318 231//231 301//301
f 301//301 231//231 313//313
f 377//377 379//379 366//366
f 377//377 366//366 392//392
f 377//377 392//392 366//366
f 377//377 389//389 366//366
f 548//548 536//536 603//603
f 508//508 481//481 517//517
f 496//496 517//517 529//529
f 529//529 517//517 496//496
f 517//517 529//529 496//496
f 508//508 542//542 548//548
f 542//542 550//550 567//567
f 536//536 496//496 490//490
f 548//548 550//550 542//542
f 548//548 529//529 517//517
f 548//548 517//517 538//538
f 508//508 548//548 517//517
f 548//548 538//538 517//517
f 403//403 523//523 241//241
f 289//289 264//264 233//233
f 292//292 241//241 523//523
f 289//289 247//247 292//292
f 289//289 233//233 247//247
f 204//204 241//241 226//226
f 202//202 247//247 225//225
f 292//292 247//247 226//226
f 292//292 523//523 289//289
f 292//292 226//226 241//241
f 306//306 219//219 233//233
f 262//262 219//219 306//306
f 192//192 262//262 255//255
f 210//210 192//192 255//255
f 192//192 219//219 262//262
f 171//171 143//143 219//219
f 192//192 171//171 219//219
f 192//192 210//210 159//159
f 159//159 143//143 171//171
f 193//193 220//220 245//245
f 193//193 231//231 220//220
f 307//307 241//241 193//193
f 241//241 180//180 193//193
f 193//193 208//208 231//231
f 208//208 187//187 313//313
f 187//187 193//193 155//155
f 204//204 226//226 155//155
f 424//424 227//227 311//311
f 470//470 251//251 227//227
f 227//227 187//187 135//135
f 218//218 186//186 167//167
f 126//126 167//167 173//173
f 186//186 202//202 175//175
f 202//202 186//186 247//247
f 247//247 186//186 218//218
f 295//295 320//320 311//311
f 311//311 227//227 295//295
f 227//227 135//135 123//123
f 424//424 470//470 227//227
f 126//126 172//172 219//219
f 126//126 143//143 103//103
f 76//76 85//85 102//102
f 102//102 85//85 81//81
f 187//187 155//155 135//135
f 155//155 121//121 135//135
f 155//155 108//108 133//133
f 155//155 133//133 121//121
f 168//168 145//145 155//155
f 218//218 157//157 226//226
f 107//107 145//145 116//116
f 226//226 157//157 168//168
f 108//108 121//121 133//133
f 108//108 135//135 121//121
f 145//145 118//118 155//155
f 107//107 81//81 108//108
f 108//108 118//118 145//145
f 108//108 81//81 100//100
f 102//102 107//107 116//116
f 102//102 81//81 107//107
f 157//157 218//218 116//116
f 443//443 465//465 481//481
f 525//525 481//481 517//517
f 538//538 525//525 517//517
f 550//550 534//534 289//289
f 496//496 403//403 446//446
f 245//245 231//231 318//318
f 120//120 159//159 210//210
f 120//120 143//143 159//159
f 103//103 99//99 77//77
f 99//99 103//103 143//143
f 802//802 778//778 790//790
f 790//790 778//778 772//772
f 772//772 757//757 768//768
f 772//772 794//794 790//790
f 794//794 772//772 769//769
f 768//768 757//757 756//756
f 756//756 769//769 768//768
f 768//768 769//769 772//772
f 778//778 754//754 736//736
f 754//754 708//708 736//736
f 775//775 754//754 778//778
f 775//775 770//770 754//754
f 740//740 734//734 711//711
f 708//708 740//740 711//711
f 734//734 667//667 700//700
f 700//700 667//667 643//643
f 711//711 700//700 708//708
f 700//700 643//643 708//708
f 708//708 651//651 686//686
f 734//734 700//700 711//711
f 651//651 639//639 686//686
f 736//736 708//708 686//686
f 800//800 775//775 778//778
f 752//752 778//778 736//736
f 772//772 704//704 757//757
f 765//765 736//736 705//705
f 765//765 705//705 727//727
f 705//705 704//704 727//727
f 705//705 624//624 638//638
f 704//704 705//705 638//638
f 638//638 756//756 704//704
f 638//638 574//574 756//756
f 686//686 688//688 736//736
f 639//639 607//607 688//688
f 688//688 607//607 624//624
f 309//309 607//607 427//427
f 624//624 485//485 638//638
f 624//624 592//592 485//485
f 574//574 638//638 485//485
f 607//607 405//405 592//592
f 405//405 607//607 341//341
f 426//426 485//485 405//405
f 592//592 405//405 485//485
f 574//574 485//485 472//472
f 607//607 592//592 624//624
f 752//752 736//736 765//765
f 722//722 728//728 724//724
f 684//684 698//698 706//706
f 649//649 636//636 684//684
f 649//649 677//677 620//620
f 620//620 415//415 332//332
f 636//636 649//649 593//593
f 620//620 593//593 649//649
f 693//693 665//665 679//679
f 713//713 682//682 724//724
f 689//689 659//659 682//682
f 641//641 665//665 693//693
f 665//665 659//659 684//684
f 684//684 647//647 665//665
f 636//636 630//630 647//647
f 665//665 641//641 659//659
f 647//647 630//630 665//665
f 636//636 580//580 572//572
f 630//630 636//636 572//572
f 572//572 504//504 605//605
f 605//605 504//504 630//630
f 630//630 572//572 605//605
f 580//580 636//636 593//593
f 439//439 325//325 593//593
f 580//580 557//557 572//572
f 561//561 557//557 572//572
f 504//504 572//572 557//557
f 504//504 557//557 325//325
f 561//561 572//572 582//582
f 696//696 698//698 661//661
f 706//706 696//696 657//657
f 657//657 696//696 661//661
f 661//661 615//615 657//657
f 615//615 634//634 657//657
f 677//677 657//657 613//613
f 615//615 578//578 634//634
f 578//578 615//615 432//432
f 432//432 615//615 297//297
f 426//426 248//248 327//327
f 485//485 426//426 327//327
f 632//632 661//661 641//641
f 632//632 615//615 661//661
f 632//632 502//502 615//615
f 504//504 502//502 632//632
f 630//630 504//504 632//632
f 504//504 350//350 502//502
f 722//722 713//713 724//724
f 677//677 706//706 657//657
f 472//472 485//485 409//409
f 643//643 667//667 645//645
f 622//622 570//570 531//531
f 531//531 494//494 486//486
f 347//347 486//486 494//494
f 596//596 553//553 531//531
f 553//553 295//295 417//417
f 596//596 531//531 570//570
f 417//417 290//290 531//531
f 304//304 290//290 417//417
f 553//553 417//417 531//531
f 411//411 290//290 347//347
f 290//290 286//286 347//347
f 411//411 347//347 494//494
f 347//347 286//286 249//249
f 639//639 588//588 434//434
f 486//486 347//347 588//588
f 588//588 323//323 434//434
f 347//347 323//323 588//588
f 639//639 434//434 607//607
f 434//434 427//427 607//607
f 607//607 309//309 349//349
f 323//323 309//309 434//434
f 253//253 299//299 309//309
f 341//341 607//607 349//349
f 347//347 256//256 323//323
f 323//323 256//256 253//253
f 169//169 200//200 165//165
f 256//256 200//200 216//216
f 299//299 253//253 236//236
f 200//200 176//176 190//190
f 190//190 169//169 150//150
f 190//190 150//150 216//216
f 304//304 295//295 229//229
f 152//152 227//227 141//141
f 123//123 141//141 227//227
f 123//123 152//152 141//141
f 123//123 105//105 152//152
f 105//105 108//108 100//100
f 88//88 114//114 105//105
f 229//229 182//182 290//290
f 165//165 182//182 146//146
f 182//182 165//165 290//290
f 114//114 112//112 152//152
f 114//114 88//88 94//94
f 57//57 85//85 76//76
f 69//69 88//88 105//105
f 76//76 68//68 57//57
f 68//68 76//76 71//71
f 68//68 48//48 57//57
f 88//88 74//74 94//94
f 57//57 60//60 88//88
f 74//74 88//88 60//60
f 74//74 63//63 94//94
f 57//57 73//73 81//81
f 57//57 45//45 60//60
f 48//48 45//45 57//57
f 112//112 165//165 146//146
f 112//112 169//169 165//165
f 112//112 82//82 169//169
f 94//94 63//63 82//82
f 65//65 82//82 63//63
f 150//150 169//169 96//96
f 82//82 65//65 96//96
f 60//60 63//63 74//74
f 65//65 46//46 61//61
f 65//65 11//11 46//46
f 11//11 65//65 30//30
f 40//40 63//63 45//45
f 63//63 60//60 45//45
f 48//48 29//29 40//40
f 23//23 30//30 40//40
f 69//69 57//57 88//88
f 593//593 620//620 332//332
f 332//332 293//293 593//593
f 439//439 293//293 370//370
f 269//269 282//282 272//272
f 272//272 259//259 269//269
f 293//293 332//332 272//272
f 439//439 370//370 338//338
f 439//439 338//338 336//336
f 293//293 325//325 315//315
f 293//293 274//274 276//276
f 274//274 278//278 276//276
f 269//269 278//278 274//274
f 269//269 274//274 282//282
f 620//620 432//432 413//413
f 432//432 299//299 330//330
f 271//271 410//410 349//349
f 299//299 271//271 349//349
f 271//271 432//432 297//297
f 330//330 413//413 432//432
f 299//299 432//432 271//271
f 330//330 299//299 223//223
f 332//332 415//415 212//212
f 223//223 212//212 415//415
f 299//299 236//236 223//223
f 615//615 284//284 297//297
f 297//297 284//284 271//271
f 420//420 502//502 284//284
f 502//502 206//206 284//284
f 332//332 212//212 259//259
f 214//214 184//184 259//259
f 184//184 206//206 259//259
f 206//206 198//198 271//271
f 413//413 223//223 415//415
f 349//349 405//405 341//341
f 410//410 396//396 405//405
f 405//405 349//349 410//410
f 405//405 396//396 426//426
f 248//248 239//239 235//235
f 178//178 189//189 138//138
f 178//178 138//138 137//137
f 235//235 189//189 234//234
f 216//216 212//212 223//223
f 216//216 150//150 212//212
f 223//223 236//236 253//253
f 223//223 253//253 216//216
f 127//127 90//90 86//86
f 150//150 163//163 184//184
f 184//184 214//214 150//150
f 184//184 110//110 198//198
f 184//184 163//163 86//86
f 184//184 86//86 110//110
f 110//110 89//89 138//138
f 138//138 89//89 137//137
f 89//89 104//104 137//137
f 110//110 72//72 89//89
f 110//110 86//86 59//59
f 72//72 110//110 59//59
f 89//89 72//72 64//64
f 64//64 72//72 59//59
f 350//350 266//266 502//502
f 266//266 206//206 502//502
f 206//206 184//184 198//198
f 189//189 198//198 110//110
f 110//110 138//138 189//189
f 55//55 96//96 61//61
f 90//90 96//96 55//55
f 55//55 36//36 53//53
f 53//53 86//86 55//55
f 41//41 59//59 53//53
f 46//46 55//55 61//61
f 46//46 36//36 55//55
f 17//17 34//34 46//46
f 34//34 36//36 46//46
f 31//31 12//12 33//33
f 17//17 11//11 12//12
f 36//36 31//31 59//59
f 36//36 59//59 41//41
f 31//31 28//28 59//59
f 59//59 33//33 44//44
f 17//17 31//31 34//34
f 90//90 55//55 86//86
f 53//53 59//59 86//86
f 622//622 596//596 570//570
f 643//643 588//588 651//651
f 259//259 266//266 325//325
f 68//68 71//71 29//29
f 71//71 77//77 29//29
f 29//29 48//48 68//68
f 77//77 25//25 29//29
f 9//9 22//22 6//6
f 26//26 1//1 7//7
f 1//1 6//6 7//7
f 1//1 9//9 6//6
f 25//25 18//18 29//29
f 18//18 22//22 29//29
f 23//23 22//22 30//30
f 10//10 2//2 11//11
f 1//1 2//2 10//10
f 9//9 1//1 10//10
f 22//22 11//11 30//30
f 10//10 11//11 22//22
f 18//18 7//7 6//6
f 327//327 248//248 244//244
f 234//234 148//148 248//248
f 148//148 160//160 196//196
f 178//178 148//148 234//234
f 144//144 98//98 130//130
f 148//148 178//178 137//137
f 104//104 148//148 137//137
f 160//160 148//148 144//144
f 98//98 148//148 104//104
f 148//148 98//98 144//144
f 130//130 160//160 144//144
f 98//98 26//26 130//130
f 33//33 1//1 26//26
f 33//33 12//12 1//1
f 12//12 2//2 1//1
f 593//593 293//293 439//439
f 651//651 588//588 639//639
f 415//415 620//620 413//413
f 284//284 615//615 420//420
f 426//426 410//410 248//248
f 472//472 455//455 574//574
f 472//472 409//409 455//455
f 196//196 244//244 148//148
f 781//781 779//779 788//788
f 781//781 788//788 779//779
f 776//776 781//781 779//779
f 521//521 498//498 475//475
f 521//521 512//512 498//498
f 781//781 773//773 779//779
f 773//773 776//776 779//779
f 781//781 791//791 806//806
f 776//776 791//791 788//788
f 720//720 669//669 750//750
f 667//667 734//734 750//750
f 784//784 815//815 817//817
f 498//498 500//500 488//488
f 498//498 512//512 500//500
f 512//512 443//443 473//473
f 512//512 475//475 443//443
f 512//512 473//473 500//500
f 488//488 473//473 448//448
f 506//506 521//521 510//510
f 475//475 510//510 521//521
f 506//506 475//475 521//521
f 488//488 500//500 473//473
f 479//479 500//500 488//488
f 450//450 429//429 436//436
f 450//450 443//443 429//429
f 443//443 436//436 448//448
f 443//443 450//450 436//436
f 453//453 448//448 450//450
f 488//488 479//479 473//473
f 450//450 448//448 436//436
f 488//488 473//473 443//443
f 521//521 443//443 512//512
f 521//521 506//506 443//443
f 473//473 488//488 448//448
f 453//453 498//498 488//488
f 506//506 521//521 475//475
f 477//477 366//366 463//463
f 345//345 343//343 352//352
f 345//345 334//334 343//343
f 463//463 461//461 477//477
f 429//429 457//457 459//459
f 463//463 457//457 477//477
f 457//457 366//366 477//477
f 366//366 461//461 463//463
f 457//457 463//463 477//477
f 461//461 457//457 477//477
f 406//406 429//429 459//459
f 457//457 406//406 459//459
f 379//379 343//343 368//368
f 379//379 366//366 343//343
f 366//366 357//357 368//368
f 368//368 357//357 343//343
f 343//343 366//366 368//368
f 343//343 352//352 357//357
f 362//362 318//318 360//360
f 245//245 362//362 307//307
f 533//533 559//559 545//545
f 559//559 533//533 534//534
f 563//563 540//540 546//546
f 538//538 577//577 568//568
f 575//575 525//525 538//538
f 575//575 546//546 525//525
f 567//567 525//525 563//563
f 577//577 568//568 563//563
f 563//563 568//568 575//575
f 563//563 538//538 568//568
f 525//525 510//510 515//515
f 508//508 525//525 567//567
f 546//546 563//563 525//525
f 575//575 563//563 568//568
f 575//575 567//567 563//563
f 575//575 568//568 563//563
f 551//551 546//546 540//540
f 551//551 563//563 546//546
f 575//575 551//551 563//563
f 550//550 560//560 549//549
f 560//560 545//545 559//559
f 534//534 549//549 560//560
f 545//545 560//560 549//549
f 550//550 508//508 567//567
f 465//465 525//525 508//508
f 465//465 510//510 525//525
f 550//550 445//445 533//533
f 445//445 303//303 533//533
f 399//399 406//406 401//401
f 391//391 303//303 431//431
f 598//598 586//586 590//590
f 742//742 715//715 718//718
f 622//622 531//531 655//655
f 675//675 610//610 653//653
f 663//663 746//746 710//710
f 387//387 366//366 389//389
f 389//389 366//366 392//392
f 406//406 381//381 383//383
f 406//406 394//394 399//399
f 406//406 381//381 394//394
f 401//401 389//389 397//397
f 397//397 389//389 399//399
f 399//399 401//401 397//397
f 399//399 394//394 406//406
f 453//453 441//441 475//475
f 453//453 446//446 441//441
f 372//372 385//385 383//383
f 313//313 383//383 381//381
f 475//475 441//441 446//446
f 481//481 441//441 475//475
f 481//481 403//403 441//441
f 403//403 481//481 446//446
f 453//453 429//429 446//446
f 385//385 372//372 364//364
f 403//403 443//443 441//441
f 446//446 453//453 443//443
f 364//364 406//406 385//385
f 355//355 375//375 422//422
f 355//355 364//364 372//372
f 383//383 372//372 406//406
f 527//527 586//586 519//519
f 492//492 519//519 490//490
f 490//490 470//470 492//492
f 470//470 490//490 467//467
f 379//379 301//301 377//377
f 529//529 538//538 517//517
f 377//377 366//366 379//379
f 536//536 523//523 529//529
f 517//517 481//481 508//508
f 577//577 548//548 567//567
f 577//577 529//529 548//548
f 496//496 536//536 529//529
f 508//508 517//517 481//481
f 517//517 496//496 529//529
f 548//548 542//542 523//523
f 508//508 542//542 567//567
f 508//508 550//550 542//542
f 567//567 548//548 542//542
f 508//508 567//567 542//542
f 536//536 548//548 523//523
f 523//523 542//542 289//289
f 247//247 233//233 225//225
f 403//403 496//496 523//523
f 225//225 233//233 202//202
f 202//202 233//233 219//219
f 159//159 161//161 192//192
f 159//159 171//171 161//161
f 465//465 508//508 481//481
f 171//171 159//159 161//161
f 167//167 175//175 173//173
f 159//159 171//171 161//161
f 220//220 231//231 245//245
f 204//204 180//180 241//241
f 193//193 180//180 155//155
f 175//175 202//202 173//173
f 167//167 116//116 218//218
f 167//167 126//126 116//116
f 167//167 186//186 175//175
f 168//168 157//157 145//145
f 145//145 157//157 116//116
f 173//173 172//172 126//126
f 108//108 123//123 135//135
f 107//107 108//108 145//145
f 116//116 126//126 102//102
f 475//475 498//498 453//453
f 450//450 429//429 453//453
f 450//450 436//436 429//429
f 379//379 377//377 366//366
f 429//429 443//443 446//446
f 368//368 301//301 379//379
f 368//368 343//343 301//301
f 315//315 338//338 328//328
f 510//510 481//481 515//515
f 77//77 71//71 103//103
f 704//704 772//772 727//727
f 722//722 724//724 682//682
f 722//722 724//724 728//728
f 689//689 698//698 684//684
f 613//613 620//620 677//677
f 630//630 641//641 679//679
f 689//689 682//682 698//698
f 682//682 713//713 722//722
f 665//665 630//630 679//679
f 632//632 641//641 630//630
f 693//693 679//679 641//641
f 561//561 582//582 572//572
f 634//634 578//578 657//657
f 645//645 669//669 531//531
f 643//643 486//486 588//588
f 483//483 320//320 295//295
f 295//295 304//304 417//417
f 411//411 494//494 531//531
f 249//249 286//286 290//290
f 200//200 249//249 290//290
f 249//249 256//256 347//347
f 256//256 216//216 253//253
f 249//249 200//200 256//256
f 229//229 152//152 182//182
f 57//57 81//81 85//85
f 57//57 69//69 73//73
f 23//23 40//40 29//29
f 293//293 272//272 282//282
f 439//439 336//336 325//325
f 370//370 315//315 328//328
f 338//338 370//370 328//328
f 370//370 293//293 315//315
f 336//336 338//338 315//315
f 293//293 276//276 278//278
f 127//127 150//150 96//96
f 330//330 223//223 413//413
f 426//426 396//396 410//410
f 234//234 248//248 235//235
f 46//46 11//11 17//17
f 31//31 17//17 12//12
f 31//31 36//36 34//34
f 33//33 28//28 31//31
f 2//2 12//12 11//11
f 22//22 18//18 6//6
f 265//265 203//203 211//211
f 211//211 131//131 101//101
f 243//243 317//317 408//408
f 807//807 814//814 812//812
f 795//795 764//764 763//763
f 628//628 618//618 619//619
f 555//555 419//419 374//374
f 374//374 288//288 265//265
f 730//730 674//674 672//672
f 101//101 75//75 70//70
f 612//612 673//673 703//703
f 452//452 535//535 612//612
f 408//408 469//469 452//452
f 21//21 8//8 3//3
f 786//786 798//798 801//801
f 125//125 149//149 158//158
f 703//703 747//747 759//759
f 158//158 222//222 243//243
f 52//52 39//39 38//38
f 38//38 32//32 21//21
f 3//3 13//13 15//15
f 807//807 801//801 803//803
f 263//263 265//265 280//280
f 628//628 672//672 671//671
f 203//203 265//265 238//238
f 174//174 211//211 197//197
f 131//131 211//211 174//174
f 786//786 759//759 761//761
f 717//717 703//703 702//702
f 438//438 408//408 359//359
f 317//317 243//243 268//268
f 125//125 79//79 84//84
f 79//79 49//49 51//51
f 814//814 807//807 810//810
f 795//795 812//812 811//811
f 764//764 795//795 793//793
f 730//730 763//763 762//762
f 618//618 628//628 626//626
f 555//555 619//619 617//617
f 419//419 555//555 514//514
f 354//354 374//374 419//419
f 288//288 374//374 322//322
f 674//674 730//730 726//726
f 93//93 101//101 111//111
f 75//75 101//101 92//92
f 673//673 612//612 625//625
f 625//625 612//612 595//595
f 469//469 408//408 456//456
f 52//52 70//70 67//67
f 20//20 21//21 24//24
f 4//4 3//3 8//8
f 8//8 21//21 14//14
f 261//261 243//243 240//240
f 195//195 158//158 179//179
f 49//49 15//15 16//16
f 798//798 786//786 787//787
f 149//149 125//125 132//132
f 747//747 703//703 732//732
f 222//222 158//158 195//195
f 39//39 52//52 50//50
f 13//13 3//3 5//5
f 807//807 808//808 809//809
f 807//807 805//805 808//808
f 812//812 813//813 811//811
f 795//795 796//796 793//793
f 730//730 733//733 731//731
f 555//555 556//556 514//514
f 265//265 288//288 280//280
f 628//628 629//629 627//627
f 730//730 731//731 726//726
f 211//211 203//203 197//197
f 786//786 783//783 785//785
f 786//786 785//785 787//787
f 759//759 747//747 758//758
f 703//703 717//717 732//732
f 703//703 673//673 681//681
f 612//612 535//535 595//595
f 408//408 340//340 359//359
f 408//408 317//317 340//340
f 21//21 27//27 24//24
f 243//243 261//261 268//268
f 243//243 222//222 240//240
f 158//158 162//162 179//179
f 158//158 149//149 154//154
f 158//158 154//154 162//162
f 49//49 43//43 51//51
f 79//79 80//80 84//84
f 807//807 809//809 810//810
f 795//795 797//797 796//796
f 374//374 342//342 322//322
f 374//374 354//354 342//342
f 628//628 627//627 626//626
f 265//265 258//258 238//238
f 101//101 131//131 117//117
f 101//101 117//117 111//111
f 759//759 758//758 760//760
f 703//703 695//695 702//702
f 703//703 681//681 695//695
f 408//408 438//438 456//456
f 52//52 58//58 50//50
f 21//21 32//32 27//27
f 3//3 4//4 5//5
f 21//21 19//19 14//14
f 21//21 20//20 19//19
f 125//125 129//129 132//132
f 79//79 78//78 80//80
f 101//101 93//93 92//92
f 265//265 263//263 258//258
