# convertido de flygym/NeuroMechFly (l_funiculus)
v -0.05026 -0.02493 -0.06276
v -0.04952 -0.01072 -0.05479
v -0.04910 -0.01683 -0.09621
v -0.04888 -0.03000 -0.08853
v -0.04815 -0.03557 -0.07108
v -0.04784 -0.00401 -0.03999
v -0.04773 -0.03156 -0.04057
v -0.04738 -0.01337 -0.08555
v -0.04672 -0.00414 -0.08106
v -0.04425 -0.04175 -0.04587
v -0.04310 -0.02118 -0.10622
v -0.04279 -0.00239 -0.03244
v -0.04161 -0.03988 -0.10300
v -0.04153 0.00824 -0.05429
v -0.04129 -0.00348 -0.09291
v -0.04074 -0.03303 -0.11381
v -0.03764 -0.02291 -0.01756
v -0.03732 0.01136 -0.08031
v -0.03728 -0.01376 -0.12086
v -0.03722 -0.03597 -0.12929
v -0.03686 -0.00011 -0.01980
v -0.03599 -0.00997 -0.10532
v -0.03373 -0.05242 -0.09198
v -0.03371 -0.04974 -0.11092
v -0.03329 -0.03909 -0.02014
v -0.03193 -0.05142 -0.03224
v -0.03123 0.00768 -0.09073
v -0.03103 -0.01455 -0.14195
v -0.03097 -0.05332 -0.08083
v -0.03042 -0.00259 -0.11234
v -0.02948 -0.05018 -0.12454
v -0.02941 -0.05771 -0.04764
v -0.02915 -0.00629 -0.00945
v -0.02906 0.02184 -0.06859
v -0.02863 0.01701 -0.03409
v -0.02756 -0.02930 -0.15360
v -0.02734 -0.00074 -0.00991
v -0.02732 0.00370 -0.10384
v -0.02694 -0.01240 -0.00828
v -0.02621 -0.02806 -0.00780
v -0.02466 -0.04639 -0.14864
v -0.02461 -0.02147 -0.16425
v -0.02403 0.00076 -0.12773
v -0.02375 -0.01218 -0.15385
v -0.02285 0.00395 -0.01141
v -0.01997 0.02562 -0.08408
v -0.01986 -0.05888 -0.03135
v -0.01914 -0.01692 -0.17101
v -0.01888 -0.04781 -0.15442
v -0.01786 -0.04292 -0.16279
v -0.01764 0.00407 -0.14378
v -0.01736 0.00946 -0.11831
v -0.01716 -0.00425 -0.15898
v -0.01662 0.01818 -0.01865
v -0.01622 -0.04353 -0.01172
v -0.01568 -0.03044 -0.00631
v -0.01542 -0.06449 -0.12100
v -0.01537 0.01222 -0.01194
v -0.01515 -0.06224 -0.04211
v -0.01397 -0.03372 -0.00514
v -0.01365 0.02184 -0.01535
v -0.01261 0.03236 -0.05939
v -0.01258 -0.06038 -0.14285
v -0.01106 -0.07071 -0.08614
v -0.01031 -0.02315 -0.17918
v -0.00811 0.01279 -0.01401
v -0.00787 -0.04446 -0.17609
v -0.00727 -0.00925 -0.17907
v -0.00712 -0.05388 -0.16594
v -0.00687 0.01225 -0.14000
v -0.00685 0.03175 -0.04437
v -0.00642 -0.06875 -0.06691
v -0.00629 0.00211 -0.16494
v -0.00565 -0.03815 -0.00740
v -0.00565 -0.03815 -0.00735
v -0.00559 0.03105 -0.08757
v -0.00553 0.02107 -0.10930
v -0.00545 0.02602 -0.01672
v -0.00440 0.02675 -0.02430
v -0.00232 -0.07106 -0.06087
v -0.00153 0.04355 -0.05944
v -0.00145 0.03764 -0.08206
v -0.00140 0.04436 -0.06091
v -0.00084 0.03787 -0.07443
v 0.00118 -0.06808 -0.13136
v 0.00126 -0.05431 -0.01732
v 0.00136 -0.07185 -0.12057
v 0.00194 -0.00781 -0.01394
v 0.00207 0.04353 -0.05646
v 0.00207 0.04356 -0.05646
v 0.00221 0.02707 -0.12347
v 0.00311 -0.06252 -0.16345
v 0.00409 0.00841 -0.17055
v 0.00439 0.02963 -0.02067
v 0.00500 -0.06731 -0.03631
v 0.00554 0.04312 -0.05557
v 0.00594 -0.05396 -0.01489
v 0.00629 -0.04473 -0.00988
v 0.00649 0.04224 -0.07285
v 0.00685 -0.01168 -0.19318
v 0.00698 -0.04448 -0.18541
v 0.00833 0.02256 -0.15175
v 0.00836 0.04256 -0.04684
v 0.00863 0.03643 -0.10777
v 0.00933 -0.02841 -0.01211
v 0.01267 -0.04023 -0.00886
v 0.01273 0.04080 -0.09147
v 0.01278 0.00365 -0.18703
v 0.01383 0.03965 -0.07678
v 0.01395 -0.03975 -0.00910
v 0.01395 -0.03975 -0.00899
v 0.01414 0.03175 -0.02832
v 0.01423 0.01836 -0.16797
v 0.01456 -0.06690 -0.15241
v 0.01460 -0.02490 -0.19991
v 0.01486 -0.07325 -0.07402
v 0.01498 -0.07419 -0.10691
v 0.01504 0.02986 -0.02023
v 0.01545 -0.03833 -0.00858
v 0.01568 0.03279 -0.13287
v 0.01677 -0.01520 -0.01530
v 0.01699 -0.07179 -0.08695
v 0.01710 -0.06996 -0.13334
v 0.01764 -0.06583 -0.03918
v 0.01803 0.02683 -0.15941
v 0.01874 -0.05538 -0.01969
v 0.01931 0.01501 -0.02052
v 0.02006 0.04577 -0.10496
v 0.02071 -0.02796 -0.20066
v 0.02083 0.01419 -0.18167
v 0.02238 0.04396 -0.04338
v 0.02279 0.03653 -0.15000
v 0.02351 -0.06936 -0.12252
v 0.02447 -0.03737 -0.00951
v 0.02494 0.02866 -0.02360
v 0.02629 0.04388 -0.11331
v 0.02650 -0.03477 -0.19646
v 0.02744 -0.05794 -0.17133
v 0.02879 0.04848 -0.10625
v 0.02993 -0.03949 -0.19407
v 0.03002 -0.06914 -0.10711
v 0.03043 0.00014 -0.19622
v 0.03146 0.04589 -0.12238
v 0.03162 0.04670 -0.09902
v 0.03185 -0.06045 -0.04161
v 0.03207 -0.03646 -0.01060
v 0.03220 -0.06410 -0.14448
v 0.03272 -0.06852 -0.09906
v 0.03283 0.04695 -0.09674
v 0.03283 0.04699 -0.09674
v 0.03300 0.04453 -0.13223
v 0.03334 -0.06756 -0.07740
v 0.03365 0.01020 -0.18797
v 0.03379 -0.06134 -0.12214
v 0.03387 0.02785 -0.02563
v 0.03389 -0.05945 -0.16159
v 0.03435 0.04168 -0.08072
v 0.03456 0.03669 -0.03502
v 0.03467 0.04464 -0.07371
v 0.03525 0.02796 -0.02913
v 0.03564 0.04680 -0.09213
v 0.03718 0.02237 -0.17424
v 0.03731 -0.02641 -0.19530
v 0.03749 0.03274 -0.16238
v 0.03779 0.00999 -0.02275
v 0.03838 -0.05105 -0.02925
v 0.03844 0.03851 -0.15635
v 0.03963 -0.06798 -0.09471
v 0.03969 0.04646 -0.06023
v 0.03978 -0.04475 -0.18002
v 0.04008 -0.01429 -0.01974
v 0.04083 0.04727 -0.05359
v 0.04098 0.04788 -0.09158
v 0.04162 -0.05884 -0.11157
v 0.04177 -0.06104 -0.07340
v 0.04179 -0.04943 -0.13065
v 0.04191 -0.02380 -0.01725
v 0.04205 -0.00852 -0.19667
v 0.04285 0.04041 -0.15146
v 0.04300 -0.04982 -0.15996
v 0.04326 -0.01533 -0.19656
v 0.04333 0.02374 -0.02342
v 0.04376 0.00520 -0.18512
v 0.04453 -0.06168 -0.08607
v 0.04459 -0.02534 -0.02032
v 0.04490 -0.03721 -0.14111
v 0.04524 -0.04767 -0.12744
v 0.04578 -0.02398 -0.18625
v 0.04582 -0.05040 -0.10811
v 0.04592 0.01477 -0.17849
v 0.04625 -0.03261 -0.02029
v 0.04634 0.04824 -0.10674
v 0.04661 -0.05308 -0.05709
v 0.04667 0.04314 -0.13175
v 0.04679 0.01542 -0.02259
v 0.04704 0.00389 -0.02273
v 0.04769 0.04826 -0.12067
v 0.04770 -0.02783 -0.01754
v 0.04781 0.04085 -0.04714
v 0.04786 -0.03660 -0.15539
v 0.04811 0.01565 -0.16968
v 0.04847 0.00005 -0.02394
v 0.04856 -0.05432 -0.10445
v 0.04886 -0.03832 -0.11966
v 0.04947 0.01941 -0.03161
v 0.04997 -0.02412 -0.15583
v 0.05044 0.00262 -0.17585
v 0.05062 0.02450 -0.15924
v 0.05071 -0.03948 -0.03395
v 0.05077 -0.02245 -0.13964
v 0.05081 -0.04943 -0.09969
v 0.05093 -0.02871 -0.15106
v 0.05116 -0.02184 -0.14445
v 0.05118 -0.02440 -0.14543
v 0.05121 -0.02492 -0.14570
v 0.05123 -0.02440 -0.14543
v 0.05152 -0.01778 -0.16828
v 0.05167 -0.01985 -0.13867
v 0.05215 -0.03402 -0.11324
v 0.05227 0.04143 -0.07653
v 0.05264 -0.01634 -0.02275
v 0.05268 0.02635 -0.14803
v 0.05297 -0.00231 -0.15807
v 0.05348 -0.03589 -0.09864
v 0.05420 0.03568 -0.12850
v 0.05455 -0.02270 -0.11040
v 0.05500 0.03639 -0.13567
v 0.05511 0.01897 -0.13519
v 0.05541 -0.00093 -0.02826
v 0.05561 0.04541 -0.08762
v 0.05572 -0.03853 -0.08422
v 0.05611 0.03847 -0.05608
v 0.05622 0.03884 -0.11139
v 0.05635 -0.01190 -0.02317
v 0.05666 -0.02913 -0.04376
v 0.05742 0.00176 -0.12082
v 0.05835 -0.02169 -0.03327
v 0.05848 0.00780 -0.13696
v 0.05887 0.01317 -0.13000
v 0.05890 0.01313 -0.13045
v 0.05891 0.01317 -0.13000
v 0.05892 -0.01180 -0.02879
v 0.05892 0.01379 -0.12974
v 0.05924 -0.02426 -0.10060
v 0.05927 -0.00954 -0.10262
v 0.05952 0.02288 -0.11843
v 0.05974 -0.00182 -0.11045
v 0.05986 0.00649 -0.03716
v 0.05992 -0.03272 -0.06430
v 0.06062 -0.01414 -0.05195
v 0.06097 0.02013 -0.04465
v 0.06165 0.03311 -0.06684
v 0.06357 -0.01858 -0.08227
v 0.06381 0.01965 -0.09558
v 0.06434 0.02862 -0.08603
v 0.06500 0.00004 -0.09197
v 0.06584 -0.01449 -0.06670
v 0.06599 0.01376 -0.06251
v 0.06635 0.00441 -0.07152
v 0.06636 -0.00985 -0.09346
v 0.06714 0.01280 -0.08617
vn -0.9991 -0.0420 0.0114
vn -0.9436 0.3288 -0.0395
vn -0.9443 0.0994 -0.3138
vn -0.9566 -0.2738 -0.0998
vn -0.8393 -0.5431 -0.0236
vn -0.9417 0.2240 0.2511
vn -0.9256 -0.2108 0.3143
vn -0.9823 0.1729 -0.0721
vn -0.9196 0.3570 -0.1638
vn -0.8105 -0.5844 0.0392
vn -0.9247 0.2044 -0.3210
vn -0.8486 0.3542 0.3930
vn -0.9023 -0.3689 -0.2233
vn -0.8102 0.5853 0.0323
vn -0.7276 0.5396 -0.4235
vn -0.9189 -0.3350 -0.2085
vn -0.8390 -0.0535 0.5415
vn -0.8059 0.5628 -0.1841
vn -0.8392 0.5099 -0.1888
vn -0.9381 -0.1596 -0.3074
vn -0.7320 0.4482 0.5131
vn -0.7566 0.5178 -0.3993
vn -0.7392 -0.6720 -0.0451
vn -0.7109 -0.6907 -0.1323
vn -0.6900 -0.4540 0.5637
vn -0.6480 -0.6335 0.4229
vn -0.6718 0.5913 -0.4462
vn -0.8886 0.3371 -0.3112
vn -0.6471 -0.7624 0.0064
vn -0.7571 0.6293 -0.1755
vn -0.7725 -0.5969 -0.2168
vn -0.5640 -0.8254 0.0239
vn -0.6965 0.1787 0.6950
vn -0.6178 0.7863 -0.0016
vn -0.6138 0.7539 0.2343
vn -0.9034 -0.0850 -0.4204
vn 0.0015 0.1873 0.9823
vn -0.6754 0.6393 -0.3676
vn 0.0247 0.1355 0.9905
vn -0.5142 -0.2636 0.8162
vn -0.7615 -0.5592 -0.3277
vn -0.8576 -0.1461 -0.4932
vn -0.7281 0.6678 -0.1547
vn -0.8772 0.3294 -0.3492
vn -0.0119 0.2070 0.9783
vn -0.5756 0.7365 -0.3552
vn -0.3191 -0.8252 0.4661
vn -0.7576 0.3709 -0.5371
vn -0.7169 -0.5605 -0.4147
vn -0.7750 -0.3315 -0.5381
vn -0.6835 0.6767 -0.2736
vn -0.6859 0.7022 -0.1910
vn -0.7216 0.5649 -0.4002
vn -0.5916 0.7018 0.3968
vn -0.3277 -0.6231 0.7101
vn 0.1664 0.1676 0.9717
vn -0.5668 -0.8076 -0.1627
vn -0.4311 0.4709 0.7696
vn -0.3440 -0.9257 0.1570
vn -0.1994 -0.3687 0.9079
vn -0.3771 0.6596 0.6501
vn -0.5851 0.8077 0.0731
vn -0.4666 -0.8454 -0.2600
vn -0.4071 -0.9132 0.0185
vn -0.6917 -0.1011 -0.7151
vn 0.2272 0.1160 0.9669
vn -0.6346 -0.3344 -0.6967
vn -0.6436 0.4946 -0.5841
vn -0.5426 -0.6714 -0.5048
vn -0.6433 0.7179 -0.2661
vn -0.4235 0.8494 0.3148
vn -0.4003 -0.9154 0.0414
vn -0.5917 0.7079 -0.3858
vn 0.0404 -0.3703 0.9280
vn -0.0152 -0.3862 0.9223
vn -0.5769 0.7531 -0.3163
vn -0.6349 0.7151 -0.2924
vn -0.0208 0.5965 0.8023
vn -0.3862 0.8996 0.2037
vn -0.2260 -0.9708 0.0809
vn -0.5100 0.7358 0.4456
vn -0.3270 0.9432 -0.0583
vn -0.4446 0.8582 -0.2564
vn -0.4715 0.8619 -0.1864
vn -0.2705 -0.9334 -0.2358
vn -0.2004 -0.7484 0.6323
vn -0.1798 -0.9746 -0.1337
vn 0.1787 0.1441 0.9733
vn -0.0658 0.9827 0.1729
vn 0.0198 0.9936 0.1111
vn -0.6413 0.7385 -0.2082
vn -0.2458 -0.8315 -0.4981
vn -0.6025 0.6824 -0.4138
vn 0.1484 0.3128 0.9382
vn -0.0617 -0.9396 0.3367
vn 0.2112 0.9772 -0.0212
vn 0.0410 -0.7608 0.6477
vn 0.0864 -0.3165 0.9446
vn -0.0888 0.9764 -0.1967
vn -0.5051 0.2925 -0.8120
vn -0.2777 -0.6319 -0.7236
vn -0.6432 0.7120 -0.2816
vn -0.1712 0.9797 0.1046
vn -0.5718 0.7836 -0.2429
vn 0.1384 0.1703 0.9756
vn -0.2465 0.1604 0.9558
vn -0.2905 0.9492 0.1213
vn -0.4554 0.5877 -0.6688
vn -0.2028 0.6157 -0.7614
vn 0.1326 -0.3656 0.9213
vn 0.1995 -0.5229 0.8287
vn -0.1894 0.8561 0.4809
vn -0.4728 0.7389 -0.4801
vn -0.0271 -0.9714 -0.2357
vn -0.4691 -0.1366 -0.8725
vn 0.1501 -0.9815 0.1185
vn 0.0450 -0.9989 -0.0162
vn 0.1647 0.6072 0.7773
vn -0.0167 0.2508 0.9679
vn -0.5594 0.8052 -0.1969
vn 0.1321 0.2552 0.9578
vn 0.0528 -0.9981 0.0324
vn 0.0815 -0.9853 -0.1504
vn 0.3120 -0.9083 0.2788
vn -0.6113 0.6831 -0.3995
vn 0.2925 -0.7225 0.6264
vn 0.1648 0.1406 0.9762
vn -0.4000 0.9159 -0.0333
vn 0.1183 -0.0067 -0.9930
vn -0.3418 0.7506 -0.5654
vn -0.0312 0.8660 0.4991
vn -0.4620 0.8305 -0.3110
vn 0.3311 -0.9362 -0.1180
vn 0.1726 -0.0192 0.9848
vn 0.2915 0.2542 0.9222
vn -0.5168 0.8280 -0.2178
vn 0.0047 -0.4554 -0.8903
vn 0.1541 -0.8409 -0.5188
vn -0.1504 0.9871 -0.0548
vn 0.1934 -0.6898 -0.6977
vn 0.4050 -0.9116 -0.0709
vn -0.0433 0.3681 -0.9288
vn -0.2580 0.9481 -0.1859
vn -0.0884 0.9894 0.1152
vn 0.5087 -0.8290 0.2324
vn 0.4524 -0.4630 0.7622
vn 0.5952 -0.8005 -0.0701
vn 0.3392 -0.9351 -0.1024
vn -0.1578 0.9831 0.0925
vn -0.1326 0.9900 0.0471
vn -0.1835 0.9550 -0.2332
vn 0.3551 -0.9248 0.1366
vn 0.0451 0.6524 -0.7565
vn 0.6828 -0.7168 -0.1415
vn 0.1187 0.2582 0.9588
vn 0.4869 -0.8279 -0.2784
vn -0.0764 0.9957 0.0534
vn 0.1751 0.7412 0.6481
vn -0.0998 0.9905 -0.0944
vn 0.3742 0.7252 0.5779
vn -0.2302 0.9287 0.2909
vn 0.0911 0.7902 -0.6061
vn 0.7074 -0.4467 -0.5478
vn -0.0406 0.7467 -0.6640
vn 0.1015 0.1236 0.9871
vn 0.5574 -0.6958 0.4529
vn -0.1998 0.8453 -0.4956
vn 0.7079 -0.7056 -0.0319
vn 0.3340 0.9398 -0.0717
vn 0.7670 -0.5090 -0.3908
vn 0.1979 0.1573 0.9675
vn 0.0039 0.9860 0.1667
vn -0.0044 0.9778 0.2093
vn 0.7369 -0.6233 -0.2618
vn 0.7467 -0.6551 0.1152
vn 0.8778 -0.4790 0.0085
vn 0.2121 0.3252 0.9216
vn 0.6430 0.3610 -0.6754
vn 0.3638 0.8493 -0.3825
vn 0.8598 -0.5050 -0.0765
vn 0.6687 -0.0783 -0.7394
vn 0.3104 0.5458 0.7783
vn 0.5893 0.4305 -0.6836
vn 0.8634 -0.4988 0.0759
vn 0.4727 0.1833 0.8620
vn 0.9462 -0.3197 -0.0493
vn 0.8513 -0.4730 -0.2269
vn 0.8892 -0.3217 -0.3254
vn 0.9093 -0.3085 -0.2793
vn 0.6170 0.5366 -0.5756
vn 0.7042 -0.4250 0.5688
vn 0.2851 0.9585 0.0003
vn 0.7534 -0.6354 0.1692
vn 0.3872 0.8904 -0.2392
vn 0.5317 0.1283 0.8371
vn 0.5835 0.1168 0.8037
vn 0.3108 0.9333 -0.1801
vn 0.6014 0.0207 0.7987
vn 0.5457 0.6258 0.5572
vn 0.9554 -0.2808 -0.0910
vn 0.7272 0.5245 -0.4427
vn 0.2575 0.1411 0.9559
vn 0.8603 -0.5014 -0.0923
vn 0.9519 -0.2634 -0.1565
vn 0.6670 0.4431 0.5989
vn 0.9782 -0.1885 -0.0869
vn 0.9533 0.0931 -0.2875
vn 0.8502 0.3650 -0.3795
vn 0.8243 -0.4998 0.2660
vn 0.9136 -0.3546 0.1988
vn 0.9375 -0.1518 -0.3132
vn 0.9503 -0.3023 0.0745
vn 0.9970 0.0184 -0.0753
vn 0.9975 0.0360 -0.0610
vn 0.9471 -0.2740 0.1670
vn 0.9987 -0.0030 0.0508
vn 0.9768 -0.1128 -0.1821
vn 0.9691 -0.2292 -0.0911
vn 0.9138 -0.3398 -0.2227
vn 0.4557 0.8889 0.0466
vn 0.4996 -0.0767 0.8628
vn 0.9501 0.1911 -0.2467
vn 0.9901 -0.0173 -0.1395
vn 0.9194 -0.3474 -0.1843
vn 0.9254 0.3332 -0.1808
vn 0.9381 -0.1599 -0.3072
vn 0.8752 0.4223 -0.2361
vn 0.9638 0.1479 -0.2218
vn 0.7000 0.2901 0.6525
vn 0.5587 0.8197 0.1263
vn 0.9014 -0.4319 -0.0320
vn 0.6570 0.7255 0.2050
vn 0.8248 0.5503 -0.1301
vn 0.5758 0.1813 0.7973
vn 0.9616 -0.2397 0.1336
vn 0.9799 -0.1595 -0.1197
vn 0.8699 -0.3104 0.3833
vn 0.9869 -0.1069 -0.1211
vn -0.9720 -0.1520 0.1793
vn 0.8941 0.3216 -0.3118
vn 0.9925 -0.1161 0.0383
vn 0.9779 -0.0751 0.1951
vn 0.9990 -0.0351 -0.0263
vn 0.9136 -0.3045 -0.2693
vn 0.9032 -0.1207 -0.4119
vn 0.9814 0.0845 -0.1723
vn 0.9589 -0.1434 -0.2448
vn 0.9373 0.1143 0.3292
vn 0.9063 -0.4158 0.0759
vn 0.9759 -0.0971 0.1956
vn 0.8992 0.2351 0.3689
vn 0.9246 0.3729 0.0773
vn 0.9624 -0.2609 -0.0761
vn 0.9731 0.0073 -0.2304
vn 0.9468 0.3201 -0.0341
vn 0.9848 -0.0580 -0.1637
vn 0.9821 -0.1475 0.1172
vn 0.9836 0.0344 0.1769
vn 0.9982 0.0136 0.0580
vn 0.9559 -0.1335 -0.2615
vn 0.9960 0.0396 -0.0802
f 87//87 57//57 85//85
f 87//87 85//85 123//123
f 65//65 42//42 48//48
f 36//36 44//44 42//42
f 44//44 48//48 42//42
f 69//69 50//50 67//67
f 50//50 69//69 49//49
f 92//92 69//69 101//101
f 49//49 69//69 92//92
f 101//101 69//69 67//67
f 115//115 67//67 65//65
f 65//65 50//50 42//42
f 67//67 50//50 65//65
f 48//48 53//53 68//68
f 65//65 48//48 68//68
f 49//49 42//42 50//50
f 41//41 57//57 31//31
f 41//41 36//36 49//49
f 24//24 16//16 31//31
f 13//13 24//24 23//23
f 16//16 24//24 13//13
f 31//31 57//57 24//24
f 41//41 31//31 20//20
f 36//36 20//20 28//28
f 41//41 20//20 36//36
f 36//36 42//42 49//49
f 20//20 31//31 16//16
f 16//16 13//13 11//11
f 20//20 11//11 28//28
f 28//28 11//11 19//19
f 11//11 30//30 19//19
f 11//11 22//22 30//30
f 11//11 15//15 22//22
f 16//16 11//11 20//20
f 11//11 13//13 3//3
f 92//92 63//63 49//49
f 63//63 57//57 41//41
f 41//41 49//49 63//63
f 85//85 57//57 63//63
f 114//114 85//85 63//63
f 4//4 23//23 5//5
f 4//4 5//5 1//1
f 8//8 4//4 1//1
f 4//4 8//8 3//3
f 5//5 10//10 1//1
f 1//1 10//10 7//7
f 1//1 6//6 2//2
f 7//7 6//6 1//1
f 7//7 17//17 6//6
f 87//87 117//117 64//64
f 72//72 122//122 80//80
f 64//64 122//122 72//72
f 72//72 29//29 64//64
f 80//80 116//116 95//95
f 23//23 29//29 5//5
f 57//57 64//64 24//24
f 23//23 64//64 29//29
f 24//24 64//64 23//23
f 29//29 32//32 10//10
f 3//3 13//13 4//4
f 13//13 23//23 4//4
f 72//72 59//59 32//32
f 80//80 59//59 72//72
f 59//59 80//80 95//95
f 29//29 10//10 5//5
f 29//29 72//72 32//32
f 10//10 26//26 7//7
f 10//10 32//32 26//26
f 59//59 47//47 32//32
f 47//47 55//55 26//26
f 25//25 26//26 55//55
f 47//47 26//26 32//32
f 26//26 25//25 7//7
f 7//7 25//25 17//17
f 40//40 39//39 17//17
f 25//25 55//55 40//40
f 25//25 40//40 17//17
f 56//56 39//39 40//40
f 59//59 95//95 47//47
f 47//47 86//86 55//55
f 95//95 116//116 124//124
f 97//97 86//86 95//95
f 47//47 95//95 86//86
f 86//86 98//98 55//55
f 97//97 98//98 86//86
f 56//56 60//60 75//75
f 56//56 75//75 74//74
f 60//60 74//74 75//75
f 55//55 75//75 74//74
f 55//55 74//74 60//60
f 105//105 39//39 56//56
f 60//60 56//56 40//40
f 98//98 105//105 56//56
f 75//75 98//98 74//74
f 98//98 56//56 74//74
f 98//98 75//75 55//55
f 55//55 60//60 40//40
f 68//68 108//108 100//100
f 48//48 44//44 53//53
f 53//53 51//51 73//73
f 65//65 68//68 100//100
f 73//73 93//93 68//68
f 93//93 73//73 70//70
f 68//68 53//53 73//73
f 44//44 28//28 53//53
f 28//28 51//51 53//53
f 43//43 51//51 28//28
f 30//30 43//43 28//28
f 19//19 30//30 28//28
f 22//22 38//38 30//30
f 22//22 15//15 38//38
f 30//30 38//38 52//52
f 51//51 70//70 73//73
f 30//30 52//52 70//70
f 91//91 120//120 102//102
f 70//70 91//91 102//102
f 38//38 77//77 52//52
f 77//77 91//91 52//52
f 70//70 52//52 91//91
f 91//91 77//77 104//104
f 104//104 77//77 76//76
f 43//43 70//70 51//51
f 43//43 30//30 70//70
f 2//2 18//18 9//9
f 3//3 8//8 15//15
f 9//9 27//27 15//15
f 8//8 9//9 15//15
f 9//9 18//18 27//27
f 34//34 46//46 18//18
f 15//15 27//27 38//38
f 27//27 46//46 38//38
f 18//18 14//14 34//34
f 2//2 6//6 14//14
f 6//6 35//35 14//14
f 18//18 2//2 14//14
f 18//18 46//46 27//27
f 34//34 35//35 62//62
f 46//46 77//77 38//38
f 46//46 76//76 77//77
f 76//76 84//84 82//82
f 76//76 82//82 104//104
f 84//84 157//157 82//82
f 84//84 109//109 157//157
f 82//82 107//107 104//104
f 157//157 107//107 82//82
f 46//46 84//84 76//76
f 62//62 84//84 34//34
f 62//62 83//83 84//84
f 62//62 81//81 83//83
f 62//62 71//71 81//81
f 84//84 83//83 99//99
f 84//84 99//99 109//109
f 112//112 103//103 81//81
f 46//46 34//34 84//84
f 6//6 17//17 12//12
f 17//17 21//21 12//12
f 21//21 35//35 12//12
f 6//6 12//12 35//35
f 17//17 33//33 21//21
f 39//39 33//33 17//17
f 45//45 21//21 33//33
f 33//33 37//37 45//45
f 39//39 45//45 37//37
f 39//39 37//37 33//33
f 21//21 54//54 35//35
f 45//45 58//58 21//21
f 35//35 34//34 14//14
f 35//35 71//71 62//62
f 39//39 105//105 88//88
f 88//88 66//66 45//45
f 66//66 58//58 45//45
f 39//39 88//88 45//45
f 54//54 79//79 35//35
f 79//79 61//61 78//78
f 35//35 79//79 71//71
f 79//79 78//78 94//94
f 79//79 112//112 71//71
f 79//79 94//94 112//112
f 71//71 112//112 81//81
f 58//58 54//54 21//21
f 54//54 58//58 61//61
f 58//58 66//66 61//61
f 54//54 61//61 79//79
f 66//66 78//78 61//61
f 94//94 78//78 66//66
f 66//66 88//88 94//94
f 83//83 96//96 99//99
f 89//89 96//96 83//83
f 83//83 90//90 89//89
f 89//89 90//90 96//96
f 103//103 96//96 90//90
f 89//89 103//103 90//90
f 81//81 90//90 83//83
f 81//81 103//103 89//89
f 89//89 90//90 81//81
f 147//147 133//133 123//123
f 117//117 133//133 141//141
f 87//87 133//133 117//117
f 133//133 154//154 141//141
f 87//87 123//123 133//133
f 101//101 140//140 92//92
f 101//101 137//137 140//140
f 92//92 138//138 114//114
f 180//180 147//147 156//156
f 140//140 170//170 138//138
f 92//92 140//140 138//138
f 115//115 129//129 137//137
f 101//101 115//115 137//137
f 115//115 65//65 100//100
f 129//129 181//181 137//137
f 140//140 181//181 163//163
f 137//137 181//181 140//140
f 170//170 156//156 138//138
f 156//156 170//170 180//180
f 200//200 180//180 170//170
f 163//163 188//188 140//140
f 188//188 170//170 140//140
f 163//163 181//181 188//188
f 181//181 178//178 207//207
f 181//181 217//217 188//188
f 188//188 200//200 170//170
f 206//206 200//200 188//188
f 188//188 217//217 206//206
f 217//217 223//223 206//206
f 207//207 223//223 217//217
f 114//114 156//156 147//147
f 138//138 156//156 114//114
f 147//147 154//154 133//133
f 176//176 154//154 147//147
f 141//141 154//154 148//148
f 180//180 176//176 147//147
f 180//180 200//200 176//176
f 200//200 186//186 176//176
f 176//176 186//186 187//187
f 154//154 174//174 148//148
f 187//187 174//174 154//154
f 189//189 203//203 174//174
f 186//186 204//204 187//187
f 187//187 204//204 174//174
f 204//204 189//189 174//174
f 203//203 189//189 211//211
f 176//176 187//187 154//154
f 212//212 186//186 200//200
f 212//212 210//210 186//186
f 210//210 218//218 186//186
f 206//206 212//212 200//200
f 206//206 213//213 212//212
f 212//212 215//215 210//210
f 213//213 214//214 212//212
f 214//214 216//216 212//212
f 214//214 213//213 216//216
f 212//212 216//216 215//215
f 213//213 210//210 216//216
f 214//214 210//210 215//215
f 214//214 216//216 210//210
f 215//215 216//216 214//214
f 206//206 218//218 213//213
f 213//213 218//218 210//210
f 186//186 218//218 204//204
f 204//204 226//226 219//219
f 219//219 189//189 204//204
f 189//189 219//219 224//224
f 226//226 244//244 219//219
f 218//218 236//236 204//204
f 204//204 236//236 247//247
f 247//247 245//245 226//226
f 226//226 245//245 244//244
f 247//247 226//226 204//204
f 85//85 114//114 123//123
f 114//114 147//147 123//123
f 64//64 117//117 122//122
f 116//116 80//80 122//122
f 122//122 152//152 116//116
f 117//117 141//141 122//122
f 152//152 148//148 168//168
f 148//148 152//152 122//122
f 141//141 148//148 122//122
f 116//116 152//152 124//124
f 168//168 175//175 152//152
f 152//152 175//175 145//145
f 148//148 174//174 168//168
f 203//203 231//231 168//168
f 168//168 231//231 184//184
f 184//184 175//175 168//168
f 175//175 184//184 231//231
f 189//189 224//224 211//211
f 203//203 211//211 231//231
f 249//249 193//193 175//175
f 175//175 193//193 145//145
f 224//224 231//231 211//211
f 231//231 253//253 249//249
f 175//175 231//231 249//249
f 219//219 244//244 224//224
f 244//244 253//253 224//224
f 244//244 245//245 260//260
f 224//224 253//253 231//231
f 257//257 249//249 253//253
f 249//249 257//257 250//250
f 249//249 250//250 235//235
f 250//250 242//242 235//235
f 124//124 126//126 95//95
f 152//152 145//145 124//124
f 166//166 126//126 124//124
f 97//97 126//126 98//98
f 126//126 146//146 134//134
f 166//166 146//146 126//126
f 126//126 134//134 98//98
f 110//110 111//111 119//119
f 110//110 134//134 111//111
f 134//134 119//119 111//111
f 106//106 111//111 110//110
f 110//110 119//119 106//106
f 119//119 105//105 106//106
f 106//106 105//105 98//98
f 105//105 119//119 121//121
f 177//177 134//134 146//146
f 177//177 121//121 134//134
f 121//121 177//177 171//171
f 121//121 119//119 134//134
f 193//193 166//166 145//145
f 145//145 166//166 124//124
f 209//209 191//191 166//166
f 166//166 191//191 146//146
f 193//193 209//209 166//166
f 249//249 209//209 193//193
f 235//235 209//209 249//249
f 237//237 191//191 209//209
f 242//242 221//221 237//237
f 234//234 221//221 242//242
f 235//235 242//242 237//237
f 237//237 221//221 191//191
f 191//191 221//221 185//185
f 221//221 171//171 185//185
f 209//209 235//235 237//237
f 198//198 177//177 146//146
f 146//146 191//191 198//198
f 185//185 198//198 191//191
f 177//177 198//198 185//185
f 110//110 111//111 98//98
f 110//110 98//98 134//134
f 98//98 111//111 106//106
f 171//171 177//177 185//185
f 260//260 253//253 244//244
f 259//259 257//257 253//253
f 108//108 142//142 100//100
f 115//115 100//100 142//142
f 108//108 153//153 142//142
f 115//115 142//142 129//129
f 178//178 142//142 183//183
f 181//181 142//142 178//178
f 142//142 181//181 129//129
f 142//142 153//153 183//183
f 108//108 93//93 130//130
f 68//68 93//93 108//108
f 93//93 113//113 130//130
f 108//108 130//130 153//153
f 93//93 70//70 113//113
f 102//102 125//125 113//113
f 113//113 70//70 102//102
f 125//125 132//132 113//113
f 113//113 162//162 130//130
f 183//183 207//207 178//178
f 153//153 190//190 183//183
f 183//183 190//190 207//207
f 162//162 190//190 153//153
f 201//201 207//207 190//190
f 162//162 201//201 190//190
f 162//162 208//208 201//201
f 164//164 208//208 162//162
f 162//162 113//113 164//164
f 132//132 167//167 164//164
f 208//208 207//207 201//201
f 207//207 208//208 223//223
f 208//208 164//164 179//179
f 113//113 132//132 164//164
f 130//130 162//162 153//153
f 102//102 132//132 125//125
f 102//102 120//120 132//132
f 91//91 104//104 120//120
f 120//120 104//104 136//136
f 104//104 128//128 136//136
f 120//120 136//136 132//132
f 223//223 218//218 206//206
f 228//228 238//238 223//223
f 238//238 236//236 218//218
f 239//239 241//241 240//240
f 239//239 240//240 243//243
f 239//239 243//243 241//241
f 228//228 240//240 238//238
f 240//240 241//241 238//238
f 238//238 241//241 239//239
f 238//238 218//218 223//223
f 238//238 246//246 236//236
f 167//167 179//179 164//164
f 132//132 179//179 167//167
f 179//179 227//227 222//222
f 208//208 179//179 222//222
f 208//208 222//222 223//223
f 222//222 228//228 223//223
f 227//227 228//228 222//222
f 228//228 227//227 225//225
f 194//194 225//225 227//227
f 246//246 240//240 228//228
f 236//236 254//254 247//247
f 236//236 246//246 254//254
f 246//246 225//225 255//255
f 246//246 255//255 254//254
f 225//225 246//246 228//228
f 233//233 255//255 225//225
f 243//243 246//246 241//241
f 239//239 241//241 246//246
f 239//239 246//246 238//238
f 240//240 246//246 243//243
f 132//132 136//136 151//151
f 136//136 143//143 151//151
f 143//143 197//197 151//151
f 128//128 139//139 136//136
f 128//128 144//144 139//139
f 139//139 197//197 143//143
f 139//139 144//144 192//192
f 136//136 139//139 143//143
f 151//151 197//197 194//194
f 151//151 194//194 179//179
f 132//132 151//151 179//179
f 194//194 197//197 225//225
f 197//197 233//233 225//225
f 139//139 192//192 197//197
f 197//197 192//192 233//233
f 179//179 194//194 227//227
f 157//157 161//161 107//107
f 220//220 252//252 255//255
f 255//255 230//230 220//220
f 220//220 169//169 232//232
f 220//220 232//232 252//252
f 232//232 251//251 252//252
f 88//88 121//121 171//171
f 88//88 171//171 127//127
f 135//135 118//118 127//127
f 112//112 131//131 103//103
f 94//94 118//118 112//112
f 165//165 127//127 171//171
f 155//155 127//127 165//165
f 155//155 135//135 127//127
f 160//160 158//158 112//112
f 135//135 160//160 118//118
f 135//135 155//155 160//160
f 158//158 131//131 112//112
f 118//118 160//160 112//112
f 127//127 94//94 88//88
f 127//127 118//118 94//94
f 221//221 202//202 171//171
f 202//202 165//165 171//171
f 229//229 196//196 202//202
f 205//205 195//195 196//196
f 202//202 196//196 165//165
f 196//196 195//195 165//165
f 221//221 234//234 202//202
f 229//229 202//202 234//234
f 229//229 234//234 242//242
f 242//242 248//248 229//229
f 250//250 251//251 248//248
f 248//248 205//205 229//229
f 251//251 205//205 248//248
f 229//229 205//205 196//196
f 250//250 248//248 242//242
f 160//160 205//205 199//199
f 155//155 182//182 160//160
f 160//160 182//182 205//205
f 195//195 182//182 165//165
f 182//182 155//155 165//165
f 182//182 195//195 205//205
f 160//160 199//199 158//158
f 199//199 251//251 232//232
f 205//205 251//251 199//199
f 104//104 107//107 128//128
f 161//161 173//173 150//150
f 149//149 128//128 161//161
f 149//149 161//161 150//150
f 149//149 150//150 173//173
f 144//144 150//150 149//149
f 144//144 149//149 173//173
f 128//128 150//150 144//144
f 149//149 150//150 128//128
f 161//161 128//128 107//107
f 157//157 99//99 159//159
f 99//99 103//103 159//159
f 131//131 172//172 103//103
f 172//172 169//169 159//159
f 172//172 159//159 103//103
f 144//144 173//173 192//192
f 173//173 230//230 192//192
f 157//157 230//230 173//173
f 192//192 230//230 233//233
f 230//230 255//255 233//233
f 157//157 220//220 230//230
f 157//157 173//173 161//161
f 159//159 169//169 157//157
f 169//169 220//220 157//157
f 169//169 172//172 199//199
f 232//232 169//169 199//199
f 199//199 172//172 158//158
f 99//99 157//157 109//109
f 158//158 172//172 131//131
f 256//256 260//260 245//245
f 260//260 256//256 253//253
f 247//247 254//254 256//256
f 254//254 261//261 256//256
f 261//261 259//259 256//256
f 257//257 259//259 250//250
f 259//259 258//258 250//250
f 254//254 255//255 261//261
f 255//255 259//259 261//261
f 252//252 259//259 255//255
f 259//259 252//252 258//258
f 258//258 251//251 250//250
f 251//251 258//258 252//252
f 67//67 115//115 101//101
f 92//92 114//114 63//63
f 95//95 126//126 97//97
f 96//96 103//103 99//99
f 36//36 28//28 44//44
f 207//207 217//217 181//181
f 8//8 1//1 9//9
f 1//1 2//2 9//9
f 11//11 3//3 15//15
f 256//256 259//259 253//253
f 121//121 88//88 105//105
f 64//64 57//57 87//87
f 174//174 203//203 168//168
f 247//247 256//256 245//245
