# convertido de flygym/NeuroMechFly (lf_tarsus1)
v -0.03090 0.00694 -0.08033
v -0.03002 0.00994 -0.08264
v -0.02927 0.00889 -0.07540
v -0.02877 0.00781 -0.08367
v -0.02855 0.00429 -0.08206
v -0.02844 0.00587 -0.07287
v -0.02791 0.01143 -0.07902
v -0.02790 -0.00404 -0.04118
v -0.02757 -0.00630 -0.04603
v -0.02699 0.00496 -0.08318
v -0.02697 0.00117 -0.07792
v -0.02658 -0.00152 -0.03552
v -0.02633 -0.00016 -0.04044
v -0.02629 -0.00170 -0.03455
v -0.02626 0.01015 -0.06918
v -0.02620 -0.00147 -0.03229
v -0.02615 -0.00175 -0.03407
v -0.02612 -0.00702 -0.05156
v -0.02606 0.00158 -0.08085
v -0.02587 -0.00510 -0.07684
v -0.02585 -0.00343 -0.05250
v -0.02584 0.00803 -0.08306
v -0.02572 -0.00023 -0.03249
v -0.02571 -0.00347 -0.07054
v -0.02537 0.00891 -0.06445
v -0.02495 -0.01116 -0.04742
v -0.02495 -0.00280 -0.03010
v -0.02491 -0.00780 -0.07425
v -0.02476 0.01081 -0.08108
v -0.02434 -0.00971 -0.04316
v -0.02346 0.01308 -0.07496
v -0.02344 -0.00130 -0.05996
v -0.02339 -0.00589 -0.06729
v -0.02334 -0.00166 -0.06303
v -0.02328 0.01292 -0.06174
v -0.02321 -0.00089 -0.02514
v -0.02316 0.00147 -0.05894
v -0.02287 -0.00435 -0.02806
v -0.02281 0.01401 -0.06460
v -0.02259 0.00154 -0.05093
v -0.02251 -0.00075 -0.02355
v -0.02238 0.00414 -0.08112
v -0.02200 -0.00097 -0.02391
v -0.02189 0.00540 -0.04539
v -0.02184 -0.01650 -0.04589
v -0.02178 -0.00721 -0.05931
v -0.02174 0.00622 -0.05260
v -0.02159 -0.00814 -0.08449
v -0.02141 -0.01038 -0.08218
v -0.02100 0.00063 -0.08271
v -0.02091 -0.00419 -0.08561
v -0.02089 -0.01157 -0.13515
v -0.02084 0.00186 -0.02292
v -0.02073 0.00208 -0.02303
v -0.02071 0.00703 -0.03786
v -0.02064 -0.01196 -0.13277
v -0.02061 0.00251 -0.02254
v -0.02051 -0.00663 -0.13466
v -0.02041 -0.00344 -0.15493
v -0.02040 -0.00279 -0.02484
v -0.02037 -0.00877 -0.12849
v -0.02032 0.00410 -0.02369
v -0.02022 -0.00630 -0.12695
v -0.02014 0.01002 -0.07877
v -0.02009 -0.00421 -0.13144
v -0.02008 -0.00939 -0.09001
v -0.02006 0.01189 -0.05185
v -0.02002 -0.01482 -0.08782
v -0.02001 -0.01871 -0.04825
v -0.01997 -0.01183 -0.06807
v -0.01994 0.01146 -0.24651
v -0.01985 -0.00120 -0.15213
v -0.01985 -0.00606 -0.15058
v -0.01982 -0.01387 -0.09214
v -0.01976 -0.00732 -0.15730
v -0.01972 0.00416 -0.02225
v -0.01971 -0.00112 -0.08522
v -0.01957 0.00996 -0.24358
v -0.01951 0.00511 -0.02218
v -0.01950 0.00445 -0.02228
v -0.01940 -0.00297 -0.09545
v -0.01940 0.01212 -0.24777
v -0.01939 0.01522 -0.07347
v -0.01924 -0.00197 -0.15702
v -0.01918 0.00985 -0.24661
v -0.01909 0.00991 -0.24656
v -0.01896 0.00986 -0.10302
v -0.01895 0.00568 -0.02169
v -0.01891 -0.00769 -0.02990
v -0.01887 -0.00385 -0.10436
v -0.01881 -0.01998 -0.04566
v -0.01875 0.00545 -0.02189
v -0.01865 0.01037 -0.09733
v -0.01863 0.00590 -0.02197
v -0.01861 -0.00415 -0.09971
v -0.01853 0.01383 -0.04300
v -0.01851 -0.00630 -0.13822
v -0.01846 -0.01344 -0.07832
v -0.01842 0.01244 -0.23988
v -0.01840 0.00837 -0.24647
v -0.01840 -0.00552 -0.16087
v -0.01835 -0.01112 -0.03385
v -0.01829 0.01412 -0.24641
v -0.01822 -0.01824 -0.08725
v -0.01820 0.00513 -0.02155
v -0.01815 0.00641 -0.02152
v -0.01811 0.00694 -0.07855
v -0.01806 -0.02085 -0.04568
v -0.01806 -0.02088 -0.04564
v -0.01802 0.00688 -0.02160
v -0.01801 0.00768 -0.02184
v -0.01791 -0.01741 -0.09263
v -0.01791 -0.00566 -0.14183
v -0.01777 -0.01021 -0.09624
v -0.01774 0.00270 -0.09358
v -0.01767 0.01051 -0.07904
v -0.01765 0.01091 -0.10592
v -0.01765 -0.01607 -0.05638
v -0.01758 -0.00065 -0.10083
v -0.01756 -0.01049 -0.14304
v -0.01755 0.00826 -0.02133
v -0.01747 -0.01734 -0.03818
v -0.01739 0.00404 -0.10028
v -0.01735 0.01331 -0.09953
v -0.01729 0.00792 -0.02083
v -0.01726 0.00737 -0.02090
v -0.01722 -0.00191 -0.12755
v -0.01718 -0.01005 -0.22032
v -0.01705 -0.00345 -0.11874
v -0.01695 -0.01006 -0.22435
v -0.01681 0.01083 -0.03327
v -0.01681 0.00397 -0.08899
v -0.01668 0.00822 -0.12172
v -0.01661 -0.00702 -0.22515
v -0.01658 -0.01965 -0.06302
v -0.01654 0.01408 -0.23769
v -0.01652 -0.01259 -0.09804
v -0.01652 -0.01305 -0.12538
v -0.01651 0.00597 -0.07985
v -0.01649 0.01034 -0.02077
v -0.01646 0.00047 -0.14613
v -0.01645 0.00614 -0.12562
v -0.01643 -0.00401 -0.11198
v -0.01638 -0.00120 -0.13489
v -0.01627 0.01486 -0.24324
v -0.01622 0.01708 -0.05142
v -0.01615 0.01142 -0.12537
v -0.01613 -0.01398 -0.15687
v -0.01612 0.01543 -0.07809
v -0.01611 -0.02162 -0.04191
v -0.01607 0.01163 -0.24791
v -0.01604 0.01102 -0.23398
v -0.01588 -0.00849 -0.16478
v -0.01587 0.00870 -0.10954
v -0.01580 -0.01034 -0.11610
v -0.01578 0.01356 -0.08331
v -0.01576 0.01065 -0.14264
v -0.01576 0.01812 -0.04240
v -0.01572 -0.01248 -0.16290
v -0.01561 -0.00598 -0.21936
v -0.01556 0.00110 -0.13977
v -0.01553 -0.01401 -0.10017
v -0.01547 0.00128 -0.12489
v -0.01547 0.00883 -0.14643
v -0.01546 -0.01386 -0.24700
v -0.01543 0.00940 -0.20375
v -0.01539 0.00789 -0.23582
v -0.01538 0.01410 -0.09291
v -0.01536 0.01348 -0.02306
v -0.01513 -0.01455 -0.17236
v -0.01512 0.00235 -0.11992
v -0.01510 0.01068 -0.20516
v -0.01509 0.00930 -0.13237
v -0.01509 0.00914 -0.11374
v -0.01507 -0.01826 -0.10780
v -0.01505 0.01049 -0.02014
v -0.01501 -0.02028 -0.24038
v -0.01501 0.00840 -0.19905
v -0.01496 0.00219 -0.14987
v -0.01494 -0.01198 -0.17457
v -0.01492 0.01276 -0.14259
v -0.01489 0.00903 -0.13498
v -0.01486 -0.01807 -0.25143
v -0.01476 -0.00939 -0.19290
v -0.01475 -0.01296 -0.19495
v -0.01472 -0.01278 -0.19702
v -0.01469 -0.01922 -0.15894
v -0.01462 -0.00608 -0.24397
v -0.01461 -0.01360 -0.15111
v -0.01460 0.01317 -0.11005
v -0.01458 -0.01184 -0.03121
v -0.01456 -0.00903 -0.24755
v -0.01453 -0.00995 -0.16781
v -0.01449 0.00146 -0.10758
v -0.01448 0.00618 -0.24122
v -0.01443 0.01319 -0.02099
v -0.01443 0.00702 -0.22892
v -0.01442 0.00089 -0.13035
v -0.01436 -0.00834 -0.19672
v -0.01435 0.00440 -0.14817
v -0.01435 -0.01337 -0.23706
v -0.01433 0.01247 -0.20380
v -0.01427 -0.01465 -0.12090
v -0.01423 0.01170 -0.19849
v -0.01422 0.01366 -0.02129
v -0.01404 -0.02193 -0.25130
v -0.01402 0.00891 -0.24633
v -0.01399 0.01455 -0.02178
v -0.01385 0.01417 -0.02104
v -0.01378 -0.01617 -0.16682
v -0.01374 0.01277 -0.14895
v -0.01373 0.01412 -0.02129
v -0.01373 0.01702 -0.08236
v -0.01371 0.01320 -0.11812
v -0.01370 -0.01972 -0.10598
v -0.01359 -0.02203 -0.16466
v -0.01356 -0.00511 -0.22634
v -0.01354 -0.00384 -0.02467
v -0.01353 0.01469 -0.02179
v -0.01346 -0.01954 -0.14439
v -0.01346 -0.02383 -0.24126
v -0.01341 -0.01437 -0.21283
v -0.01340 0.01267 -0.15503
v -0.01339 -0.02228 -0.09126
v -0.01339 0.01194 -0.16088
v -0.01337 -0.02560 -0.04663
v -0.01335 -0.01913 -0.11345
v -0.01332 0.01134 -0.24661
v -0.01324 0.01881 -0.08782
v -0.01317 0.00444 -0.02003
v -0.01316 0.00668 -0.17813
v -0.01314 -0.01994 -0.11703
v -0.01312 0.02052 -0.07017
v -0.01306 0.00985 -0.22525
v -0.01302 0.01512 -0.02182
v -0.01296 -0.01545 -0.21894
v -0.01291 -0.02101 -0.05854
v -0.01290 -0.00973 -0.22817
v -0.01284 0.01043 -0.17676
v -0.01283 0.01554 -0.02232
v -0.01280 -0.01089 -0.23167
v -0.01279 -0.00809 -0.25074
v -0.01275 -0.00010 -0.24155
v -0.01273 0.01627 -0.02316
v -0.01266 0.00314 -0.24146
v -0.01259 0.00788 -0.24723
v -0.01253 -0.01192 -0.18058
v -0.01245 0.00090 -0.15541
v -0.01244 -0.01946 -0.15102
v -0.01222 -0.00173 -0.16075
v -0.01220 -0.02717 -0.24685
v -0.01219 -0.01175 -0.18488
v -0.01217 0.01648 -0.02240
v -0.01216 0.01458 -0.24105
v -0.01215 -0.00835 -0.20889
v -0.01214 -0.02328 -0.14094
v -0.01205 -0.01338 -0.20078
v -0.01205 0.00826 -0.16726
v -0.01195 0.00235 -0.15216
v -0.01194 0.01584 -0.15989
v -0.01181 -0.02244 -0.25386
v -0.01180 0.01832 -0.09548
v -0.01179 -0.00232 -0.23649
v -0.01177 0.00111 -0.23309
v -0.01176 0.00205 -0.17748
v -0.01175 -0.01417 -0.25460
v -0.01174 -0.00772 -0.20117
v -0.01173 0.00041 -0.25228
v -0.01162 0.01924 -0.07648
v -0.01158 0.00916 -0.18420
v -0.01157 0.00334 -0.15684
v -0.01151 0.00024 -0.15742
v -0.01149 -0.00460 -0.19659
v -0.01148 0.00617 -0.24933
v -0.01145 0.01410 -0.02063
v -0.01139 -0.02538 -0.25259
v -0.01136 0.00328 -0.19292
v -0.01135 -0.02103 -0.07729
v -0.01126 0.01000 -0.01928
v -0.01126 0.00233 -0.19757
v -0.01123 -0.00810 -0.20540
v -0.01121 -0.00186 -0.22909
v -0.01108 -0.00113 -0.22445
v -0.01107 -0.00091 -0.21970
v -0.01106 0.00812 -0.18829
v -0.01103 -0.02257 -0.05418
v -0.01099 0.01305 -0.17736
v -0.01099 -0.02454 -0.14518
v -0.01098 -0.02157 -0.07079
v -0.01095 -0.01395 -0.22618
v -0.01094 0.01891 -0.03338
v -0.01088 -0.01389 -0.20368
v -0.01083 -0.02150 -0.21754
v -0.01075 0.00056 -0.22021
v -0.01074 -0.01727 -0.18198
v -0.01070 -0.02076 -0.21307
v -0.01066 -0.00166 -0.19188
v -0.01066 -0.02408 -0.13826
v -0.01064 0.01296 -0.16866
v -0.01064 0.00077 -0.16230
v -0.01061 0.01093 -0.18843
v -0.01052 -0.02253 -0.11178
v -0.01048 -0.00317 -0.16445
v -0.01042 0.01241 -0.24675
v -0.01035 -0.00517 -0.17767
v -0.01033 0.00507 -0.20718
v -0.01032 -0.02393 -0.08802
v -0.01029 -0.00410 -0.17255
v -0.01026 -0.02101 -0.16942
v -0.01013 -0.00134 -0.19618
v -0.01011 -0.01909 -0.09749
v -0.01002 0.00197 -0.25452
v -0.01000 0.01063 -0.20840
v -0.00996 0.00748 -0.20956
v -0.00985 0.01019 -0.24894
v -0.00979 0.01457 -0.22664
v -0.00978 -0.00125 -0.18514
v -0.00977 0.00895 -0.21690
v -0.00966 -0.02267 -0.23061
v -0.00947 0.01741 -0.12548
v -0.00940 0.01703 -0.16244
v -0.00929 -0.02862 -0.25062
v -0.00925 0.01212 -0.25038
v -0.00920 0.01032 -0.21188
v -0.00919 0.01752 -0.10328
v -0.00916 0.01419 -0.17022
v -0.00913 0.00304 -0.21132
v -0.00912 -0.02285 -0.15180
v -0.00905 0.02273 -0.05269
v -0.00903 -0.00096 -0.16893
v -0.00893 0.00153 -0.20378
v -0.00880 -0.02942 -0.04508
v -0.00878 0.01621 -0.13432
v -0.00865 -0.02012 -0.19992
v -0.00857 0.02017 -0.02546
v -0.00856 -0.02283 -0.19097
v -0.00851 0.01516 -0.20041
v -0.00847 -0.02577 -0.14416
v -0.00833 -0.02212 -0.17794
v -0.00832 -0.02375 -0.12190
v -0.00830 -0.00133 -0.20784
v -0.00825 0.01808 -0.11848
v -0.00814 0.01464 -0.21959
v -0.00807 0.02338 -0.08310
v -0.00786 0.01391 -0.20693
v -0.00768 -0.02360 -0.12877
v -0.00763 -0.00746 -0.25654
v -0.00759 0.01646 -0.15088
v -0.00751 -0.02196 -0.22372
v -0.00751 -0.02445 -0.20622
v -0.00745 0.01497 -0.18325
v -0.00734 -0.02158 -0.03721
v -0.00734 0.00459 -0.02043
v -0.00731 0.01528 -0.19052
v -0.00729 0.01709 -0.13786
v -0.00719 -0.01723 -0.25775
v -0.00717 0.02416 -0.08933
v -0.00704 -0.02247 -0.09495
v -0.00704 0.02151 -0.02587
v -0.00699 -0.02748 -0.04142
v -0.00698 -0.02998 -0.04898
v -0.00696 -0.00005 -0.25722
v -0.00691 -0.02658 -0.16400
v -0.00688 0.01407 -0.25055
v -0.00684 0.01547 -0.23068
v -0.00626 -0.03026 -0.24457
v -0.00617 -0.02331 -0.19910
v -0.00610 0.01391 -0.24107
v -0.00582 -0.02379 -0.18599
v -0.00568 0.01227 -0.25075
v -0.00544 0.01801 -0.21151
v -0.00497 0.01798 -0.16462
v -0.00466 -0.02690 -0.20790
v -0.00463 0.01734 -0.02262
v -0.00460 -0.00091 -0.02149
v -0.00460 0.02576 -0.04145
v -0.00451 -0.02611 -0.15076
v -0.00446 -0.01154 -0.25871
v -0.00444 -0.02556 -0.25583
v -0.00443 -0.02598 -0.11719
v -0.00436 -0.02539 -0.21640
v -0.00427 -0.02459 -0.10454
v -0.00427 -0.03182 -0.04624
v -0.00424 -0.02688 -0.13316
v -0.00414 0.02308 -0.02613
v -0.00407 0.00959 -0.02030
v -0.00396 -0.02441 -0.08158
v -0.00391 0.01821 -0.21810
v -0.00389 -0.02655 -0.15600
v -0.00381 0.02533 -0.08024
v -0.00378 0.02370 -0.06983
v -0.00365 -0.02636 -0.17324
v -0.00364 -0.02589 -0.22311
v -0.00363 -0.00895 -0.02491
v -0.00341 0.02366 -0.03297
v -0.00334 0.02556 -0.08718
v -0.00326 0.01884 -0.19820
v -0.00322 -0.03095 -0.24937
v -0.00298 -0.02646 -0.12698
v -0.00285 -0.02597 -0.20248
v -0.00267 -0.02619 -0.14307
v -0.00264 0.01893 -0.15791
v -0.00254 -0.02460 -0.08984
v -0.00250 0.01568 -0.23466
v -0.00229 -0.02622 -0.05619
v -0.00215 0.01877 -0.18685
v -0.00203 0.02329 -0.09327
v -0.00188 0.01894 -0.20373
v -0.00174 -0.02650 -0.07478
v -0.00146 0.01615 -0.24913
v -0.00112 -0.00554 -0.26038
v -0.00108 -0.03043 -0.23284
v -0.00107 -0.02648 -0.10871
v -0.00107 0.02124 -0.13795
v -0.00079 -0.01519 -0.03086
v -0.00074 0.00293 -0.02051
v -0.00059 0.02338 -0.11076
v -0.00053 0.01678 -0.24838
v -0.00046 0.02425 -0.10597
v -0.00025 0.02070 -0.21101
v -0.00020 -0.02711 -0.10098
v -0.00001 0.02467 -0.02652
v 0.00011 0.02038 -0.02354
v 0.00015 0.02247 -0.11903
v 0.00017 0.02642 -0.05391
v 0.00020 0.02059 -0.22281
v 0.00025 0.01672 -0.24907
v 0.00030 0.01689 -0.24935
v 0.00034 -0.00583 -0.02306
v 0.00038 0.02369 -0.09662
v 0.00049 0.02211 -0.14836
v 0.00059 0.02146 -0.16945
v 0.00060 -0.03229 -0.04571
v 0.00074 0.02267 -0.12833
v 0.00082 0.02700 -0.04433
v 0.00100 0.01689 -0.24951
v 0.00147 0.01755 -0.24916
v 0.00194 0.02475 -0.03302
v 0.00198 0.02537 -0.06836
v 0.00200 -0.03188 -0.04455
v 0.00215 0.01755 -0.24928
v 0.00217 0.01762 -0.24938
v 0.00251 -0.02892 -0.13503
v 0.00265 -0.02888 -0.16784
v 0.00267 0.02483 -0.09063
v 0.00272 -0.03209 -0.04497
v 0.00274 -0.03208 -0.04470
v 0.00277 0.02101 -0.21417
v 0.00281 0.00748 -0.25580
v 0.00298 0.01811 -0.24895
v 0.00314 -0.03156 -0.04995
v 0.00326 0.01770 -0.24962
v 0.00335 -0.02952 -0.25632
v 0.00344 -0.03190 -0.04447
v 0.00348 0.02167 -0.15809
v 0.00353 0.02199 -0.13693
v 0.00360 0.02193 -0.17227
v 0.00371 -0.03223 -0.04519
v 0.00376 -0.02783 -0.05603
v 0.00381 0.01945 -0.22973
v 0.00384 0.02558 -0.02713
v 0.00386 0.02082 -0.18255
v 0.00398 0.02499 -0.10507
v 0.00398 -0.02931 -0.14483
v 0.00402 0.01816 -0.23933
v 0.00406 -0.03206 -0.04496
v 0.00408 -0.03205 -0.04470
v 0.00410 -0.02370 -0.26015
v 0.00420 0.02644 -0.05543
v 0.00429 -0.02791 -0.18414
v 0.00445 -0.01418 -0.03021
v 0.00449 0.02237 -0.15213
v 0.00454 0.02335 -0.11545
v 0.00477 -0.03028 -0.21988
v 0.00479 -0.00259 -0.26007
v 0.00486 -0.02749 -0.08954
v 0.00507 -0.03148 -0.04438
v 0.00523 0.02152 -0.19964
v 0.00532 -0.02741 -0.08314
v 0.00543 0.02116 -0.22286
v 0.00560 -0.02858 -0.12695
v 0.00565 -0.03191 -0.23031
v 0.00604 0.02216 -0.02349
v 0.00607 -0.03213 -0.04568
v 0.00635 -0.02945 -0.15649
v 0.00643 -0.01696 -0.26020
v 0.00668 -0.02998 -0.20469
v 0.00678 -0.00881 -0.26099
v 0.00681 0.01047 -0.02101
v 0.00684 -0.03210 -0.25284
v 0.00744 0.02509 -0.02633
v 0.00767 0.02670 -0.04428
v 0.00788 -0.02931 -0.25642
v 0.00790 0.01877 -0.24945
v 0.00804 0.02439 -0.03379
v 0.00836 -0.02078 -0.26066
v 0.00871 -0.02867 -0.10899
v 0.00877 0.02089 -0.18793
v 0.00890 -0.02834 -0.06846
v 0.00893 -0.03042 -0.18926
v 0.00931 -0.02942 -0.11946
v 0.00956 -0.01395 -0.03098
v 0.00969 0.00349 -0.25659
v 0.00969 0.02141 -0.16151
v 0.00970 0.00029 -0.02267
v 0.00975 -0.00745 -0.02791
v 0.00976 0.02423 -0.02794
v 0.00980 -0.03102 -0.21757
v 0.00994 0.02492 -0.02697
v 0.01031 0.01823 -0.02147
v 0.01056 0.01909 -0.24896
v 0.01068 0.01884 -0.24942
v 0.01080 0.02432 -0.02637
v 0.01090 0.02436 -0.02676
v 0.01123 -0.03111 -0.25038
v 0.01124 0.02505 -0.05222
v 0.01133 -0.02486 -0.03888
v 0.01137 0.02461 -0.02721
v 0.01153 0.01885 -0.24910
v 0.01154 0.01896 -0.24926
v 0.01157 -0.02528 -0.25739
v 0.01163 -0.03083 -0.20078
v 0.01211 0.01857 -0.24926
v 0.01214 -0.03095 -0.04620
v 0.01218 0.02402 -0.07799
v 0.01264 0.01891 -0.24884
v 0.01265 -0.02850 -0.05355
v 0.01266 0.02181 -0.02392
v 0.01272 -0.03026 -0.18832
v 0.01287 -0.01665 -0.25951
v 0.01310 0.02125 -0.22890
v 0.01315 0.02191 -0.15223
v 0.01324 -0.02737 -0.09610
v 0.01332 0.02133 -0.21765
v 0.01335 0.01037 -0.02071
v 0.01376 0.02520 -0.09055
v 0.01380 0.02422 -0.02872
v 0.01383 0.02320 -0.03328
v 0.01396 -0.02928 -0.12483
v 0.01430 0.02070 -0.20589
v 0.01434 0.02346 -0.04039
v 0.01441 -0.02941 -0.18313
v 0.01505 0.02132 -0.22339
v 0.01515 0.01859 -0.24247
v 0.01528 -0.03267 -0.23883
v 0.01544 0.02047 -0.16439
v 0.01545 -0.02947 -0.04509
v 0.01577 -0.03073 -0.15971
v 0.01599 0.02400 -0.06583
v 0.01628 0.01736 -0.02217
v 0.01638 -0.02915 -0.07782
v 0.01662 0.02237 -0.15872
v 0.01674 0.02151 -0.12764
v 0.01674 -0.02783 -0.08651
v 0.01699 0.01939 -0.19001
v 0.01700 0.02264 -0.02862
v 0.01707 -0.02137 -0.25788
v 0.01711 0.02203 -0.09886
v 0.01720 0.02140 -0.02908
v 0.01722 -0.00387 -0.25775
v 0.01729 -0.02738 -0.05364
v 0.01748 0.02234 -0.07984
v 0.01750 0.01392 -0.25061
v 0.01782 0.01933 -0.21894
v 0.01784 -0.02733 -0.06771
v 0.01803 0.02327 -0.05729
v 0.01810 0.02099 -0.03785
v 0.01815 0.00655 -0.25500
v 0.01823 0.01959 -0.20285
v 0.01831 -0.03062 -0.24425
v 0.01837 -0.03042 -0.14984
v 0.01838 -0.02934 -0.13816
v 0.01839 -0.02966 -0.17083
v 0.01852 -0.00731 -0.02633
v 0.01852 0.02088 -0.04526
v 0.01853 0.02403 -0.09014
v 0.01872 -0.03044 -0.20569
v 0.01901 -0.00996 -0.25788
v 0.01926 -0.02635 -0.04759
v 0.01931 0.01666 -0.24877
v 0.01934 0.02071 -0.02730
v 0.01935 0.01702 -0.02595
v 0.01937 -0.02952 -0.15420
v 0.01941 0.01939 -0.20758
v 0.01948 0.02089 -0.12001
v 0.01950 0.01923 -0.16325
v 0.01959 0.01314 -0.02175
v 0.01962 0.02162 -0.06834
v 0.01974 -0.02850 -0.11509
v 0.01981 0.01767 -0.02375
v 0.01982 0.01943 -0.17655
v 0.02024 0.01501 -0.02731
v 0.02028 -0.02791 -0.12313
v 0.02029 0.01936 -0.02623
v 0.02043 0.01835 -0.02554
v 0.02066 0.02098 -0.10469
v 0.02071 0.01881 -0.02528
v 0.02081 -0.02465 -0.04102
v 0.02088 0.01761 -0.23794
v 0.02093 0.01898 -0.15367
v 0.02099 0.01943 -0.02587
v 0.02106 -0.00325 -0.02302
v 0.02111 0.01894 -0.02550
v 0.02118 -0.03009 -0.22378
v 0.02124 0.02104 -0.13622
v 0.02131 0.02098 -0.05274
v 0.02136 -0.02666 -0.08282
v 0.02136 -0.02424 -0.25209
v 0.02141 0.01855 -0.18155
v 0.02165 0.01623 -0.19068
v 0.02172 0.01955 -0.09640
v 0.02184 0.02013 -0.08906
v 0.02188 -0.02633 -0.10426
v 0.02205 0.01509 -0.24721
v 0.02226 -0.02661 -0.07507
v 0.02251 0.01594 -0.02413
v 0.02257 0.01622 -0.02360
v 0.02273 0.01962 -0.12852
v 0.02301 -0.02086 -0.03689
v 0.02309 0.00442 -0.25381
v 0.02311 0.01494 -0.02311
v 0.02344 -0.01984 -0.04556
v 0.02352 0.00899 -0.02112
v 0.02356 0.01513 -0.02326
v 0.02365 -0.02032 -0.25467
v 0.02371 -0.02789 -0.20249
v 0.02379 0.01571 -0.04730
v 0.02393 -0.02132 -0.03720
v 0.02395 -0.02083 -0.03724
v 0.02404 -0.01630 -0.03257
v 0.02405 -0.02107 -0.03764
v 0.02413 0.01734 -0.11641
v 0.02426 0.00999 -0.24848
v 0.02432 -0.02047 -0.03698
v 0.02434 0.01391 -0.02323
v 0.02436 -0.02632 -0.09299
v 0.02442 -0.01863 -0.03503
v 0.02446 -0.02089 -0.03722
v 0.02477 0.01373 -0.02218
v 0.02480 -0.01819 -0.03570
v 0.02493 0.01273 -0.02163
v 0.02503 -0.02660 -0.18307
v 0.02510 0.01224 -0.24769
v 0.02521 -0.02661 -0.11448
v 0.02521 0.01783 -0.10371
v 0.02523 -0.01814 -0.03507
v 0.02535 0.01779 -0.14539
v 0.02540 0.01133 -0.03400
v 0.02550 -0.02595 -0.23963
v 0.02562 0.00421 -0.02153
v 0.02584 0.01543 -0.06609
v 0.02587 0.01326 -0.02178
v 0.02588 0.01266 -0.02145
v 0.02590 -0.00852 -0.25504
v 0.02591 -0.02179 -0.05681
v 0.02593 0.01212 -0.02208
v 0.02618 0.01282 -0.02142
v 0.02619 0.01108 -0.24622
v 0.02625 -0.02699 -0.17137
v 0.02637 0.01157 -0.02108
v 0.02653 0.01222 -0.02100
v 0.02664 0.01247 -0.18447
v 0.02674 0.01180 -0.02102
v 0.02683 -0.01256 -0.03079
v 0.02689 0.01047 -0.02081
v 0.02695 0.01105 -0.02125
v 0.02701 0.01132 -0.02068
v 0.02702 -0.02565 -0.18586
v 0.02709 -0.02570 -0.12605
v 0.02714 0.01632 -0.15362
v 0.02714 0.01213 -0.22178
v 0.02717 -0.01359 -0.03203
v 0.02724 0.01072 -0.02074
v 0.02738 0.01030 -0.02046
v 0.02741 0.00942 -0.02062
v 0.02742 0.00968 -0.02152
v 0.02745 -0.02503 -0.09395
v 0.02748 -0.01418 -0.03243
v 0.02751 -0.01060 -0.02909
v 0.02753 -0.02119 -0.06792
v 0.02754 0.00991 -0.02106
v 0.02756 0.00817 -0.04509
v 0.02761 -0.01328 -0.03189
v 0.02762 -0.02288 -0.10320
v 0.02764 -0.01338 -0.03157
v 0.02766 -0.00046 -0.25180
v 0.02769 0.00960 -0.02057
v 0.02774 -0.00713 -0.02570
v 0.02775 -0.02392 -0.08834
v 0.02777 0.01399 -0.08092
v 0.02782 -0.00669 -0.04427
v 0.02792 0.00834 -0.02040
v 0.02797 0.00901 -0.02022
v 0.02800 0.00526 -0.24858
v 0.02802 -0.00359 -0.02366
v 0.02805 0.00876 -0.02753
v 0.02816 0.00641 -0.03528
v 0.02820 0.00856 -0.02030
v 0.02823 -0.01238 -0.03161
v 0.02825 -0.00403 -0.02814
v 0.02826 0.00774 -0.02000
v 0.02828 -0.01179 -0.03083
v 0.02828 -0.01193 -0.03061
v 0.02831 0.01623 -0.13613
v 0.02847 0.00721 -0.02032
v 0.02850 0.00788 -0.02049
v 0.02850 -0.02430 -0.13391
v 0.02857 -0.02425 -0.11933
v 0.02858 -0.02419 -0.15677
v 0.02860 -0.01851 -0.05988
v 0.02863 -0.01645 -0.25171
v 0.02868 -0.00951 -0.02881
v 0.02869 0.00684 -0.02008
v 0.02870 0.00756 -0.01990
v 0.02872 -0.00966 -0.02863
v 0.02878 -0.00594 -0.03319
v 0.02878 0.00759 -0.02911
v 0.02879 0.01005 -0.24088
v 0.02880 -0.00247 -0.02315
v 0.02881 0.00739 -0.24777
v 0.02890 0.00523 -0.02557
v 0.02891 0.00993 -0.19632
v 0.02904 0.01100 -0.21471
v 0.02906 -0.00890 -0.02813
v 0.02907 -0.00641 -0.02615
v 0.02909 -0.01971 -0.07452
v 0.02916 -0.01037 -0.02960
v 0.02919 0.00564 -0.02073
v 0.02923 0.00340 -0.02119
v 0.02925 0.00158 -0.02171
v 0.02926 -0.02716 -0.22199
v 0.02933 0.00884 -0.18073
v 0.02936 -0.00293 -0.02364
v 0.02937 -0.00151 -0.02265
v 0.02942 0.01103 -0.23151
v 0.02943 -0.00312 -0.02344
v 0.02949 -0.02094 -0.08025
v 0.02953 0.00144 -0.04347
v 0.02955 -0.00185 -0.02313
v 0.02962 -0.00204 -0.02292
v 0.02965 -0.00042 -0.02222
v 0.02970 0.00090 -0.02188
v 0.02970 0.00955 -0.17614
v 0.02973 0.00240 -0.02178
v 0.02974 -0.00438 -0.02413
v 0.02976 -0.00077 -0.02266
v 0.02978 -0.02347 -0.19918
v 0.02982 -0.01432 -0.25162
v 0.02985 -0.00097 -0.02244
v 0.02985 -0.00252 -0.02342
v 0.02993 0.00205 -0.02146
v 0.02997 0.00035 -0.02217
v 0.03002 0.00292 -0.02138
v 0.03004 -0.00144 -0.02279
v 0.03006 0.00049 -0.02255
v 0.03006 0.00016 -0.02196
v 0.03013 -0.00862 -0.05541
v 0.03016 0.01148 -0.16387
v 0.03025 0.00110 -0.02188
v 0.03039 -0.02448 -0.16739
v 0.03050 -0.02531 -0.20987
v 0.03050 0.01005 -0.07361
v 0.03055 0.01154 -0.15232
v 0.03056 0.01149 -0.09565
v 0.03061 0.00907 -0.18762
v 0.03068 0.01003 -0.05548
v 0.03070 -0.02297 -0.11116
v 0.03073 0.01317 -0.14489
v 0.03086 0.00340 -0.24512
v 0.03088 -0.02533 -0.14520
v 0.03104 0.00651 -0.06420
v 0.03128 -0.02546 -0.17503
v 0.03138 -0.02119 -0.13282
v 0.03145 -0.02481 -0.22068
v 0.03166 0.01064 -0.13334
v 0.03173 0.00644 -0.05442
v 0.03177 0.00899 -0.10763
v 0.03179 -0.00896 -0.25085
v 0.03184 -0.00040 -0.05817
v 0.03190 0.00681 -0.21726
v 0.03198 0.00950 -0.16830
v 0.03200 -0.01548 -0.24576
v 0.03204 -0.02367 -0.23294
v 0.03218 -0.00123 -0.24557
v 0.03239 -0.00519 -0.24880
v 0.03245 -0.02130 -0.11677
v 0.03250 -0.01043 -0.07267
v 0.03250 0.00727 -0.21054
v 0.03251 -0.01723 -0.09569
v 0.03252 -0.02031 -0.18892
v 0.03256 -0.00612 -0.06256
v 0.03265 0.00720 -0.23112
v 0.03267 -0.02416 -0.17416
v 0.03277 0.00444 -0.19463
v 0.03282 -0.01691 -0.10301
v 0.03290 -0.01902 -0.19840
v 0.03325 0.00864 -0.08902
v 0.03344 0.00580 -0.07927
v 0.03354 -0.01093 -0.24485
v 0.03379 -0.00455 -0.24180
v 0.03386 -0.01103 -0.07825
v 0.03402 -0.01659 -0.19056
v 0.03406 -0.01997 -0.12538
v 0.03407 0.00493 -0.10576
v 0.03420 -0.01644 -0.13354
v 0.03421 -0.01757 -0.11146
v 0.03424 0.00664 -0.14211
v 0.03439 0.00589 -0.12186
v 0.03448 -0.00497 -0.07909
v 0.03450 -0.02059 -0.20899
v 0.03456 -0.01981 -0.14831
v 0.03462 0.00763 -0.16073
v 0.03484 0.00415 -0.20132
v 0.03489 -0.01754 -0.17026
v 0.03493 -0.01178 -0.10175
v 0.03501 0.00714 -0.12897
v 0.03507 -0.01818 -0.23752
v 0.03517 0.00313 -0.22351
v 0.03519 -0.01646 -0.08655
v 0.03531 0.00225 -0.09204
v 0.03534 -0.01057 -0.19500
v 0.03545 -0.01572 -0.16065
v 0.03554 -0.00157 -0.18139
v 0.03574 -0.00195 -0.19312
v 0.03579 -0.00021 -0.14536
v 0.03585 -0.00220 -0.10362
v 0.03592 -0.01291 -0.08413
v 0.03598 -0.01694 -0.22444
v 0.03598 0.00141 -0.20336
v 0.03603 -0.01338 -0.11748
v 0.03607 0.00160 -0.13180
v 0.03610 -0.00950 -0.18075
v 0.03629 0.00296 -0.11134
v 0.03636 -0.01022 -0.23876
v 0.03636 -0.00104 -0.22765
v 0.03642 -0.00606 -0.14464
v 0.03642 -0.01054 -0.09483
v 0.03650 -0.00303 -0.20985
v 0.03659 -0.01018 -0.18715
v 0.03660 -0.00447 -0.13222
v 0.03663 -0.00057 -0.16015
v 0.03663 -0.00346 -0.17041
v 0.03666 0.00085 -0.13906
v 0.03667 -0.01473 -0.20551
v 0.03686 -0.01035 -0.15654
v 0.03694 -0.00944 -0.17359
v 0.03710 -0.01342 -0.22756
v 0.03712 -0.00275 -0.15045
v 0.03727 -0.00119 -0.12054
v 0.03748 -0.01120 -0.20501
v 0.03749 -0.00449 -0.21779
v 0.03758 -0.00909 -0.15188
v 0.03793 -0.00854 -0.22206
v 0.03836 -0.00728 -0.12030
vn -0.9585 -0.2836 0.0272
vn -0.5900 0.7103 -0.3839
vn -0.8926 0.3660 0.2633
vn -0.4680 -0.1390 -0.8727
vn -0.6877 -0.5682 -0.4520
vn -0.9408 -0.1987 0.2746
vn -0.4774 0.8781 0.0304
vn -0.9585 -0.2434 0.1482
vn -0.9583 -0.2850 -0.0200
vn 0.1519 -0.3413 -0.9276
vn -0.9288 -0.3706 -0.0049
vn -0.9691 0.1923 0.1543
vn -0.8411 0.5351 -0.0796
vn -0.9609 0.2769 -0.0056
vn -0.7325 0.6639 0.1506
vn -0.9482 0.0434 0.3147
vn -0.8791 -0.4507 0.1548
vn -0.8325 -0.4116 -0.3708
vn -0.6954 -0.1551 -0.7017
vn -0.9294 -0.2995 -0.2155
vn -0.9148 0.3698 -0.1623
vn 0.4138 0.2120 -0.8854
vn -0.8118 0.5590 0.1691
vn -0.9473 -0.2566 0.1918
vn -0.9500 0.0140 0.3118
vn -0.8687 -0.4940 -0.0374
vn -0.8608 -0.3957 0.3200
vn -0.7988 -0.5953 0.0865
vn 0.1971 0.8126 -0.5484
vn -0.7493 -0.5630 0.3488
vn -0.3698 0.9130 -0.1721
vn -0.9422 -0.1218 -0.3122
vn -0.8831 -0.4088 0.2300
vn -0.9443 -0.1735 0.2797
vn -0.8606 0.4215 0.2857
vn -0.7918 -0.4041 0.4580
vn -0.9871 0.1047 0.1208
vn -0.6427 -0.6736 0.3648
vn -0.5960 0.8026 0.0242
vn -0.8916 0.4442 -0.0878
vn -0.8492 0.3699 0.3768
vn 0.3329 0.1098 -0.9366
vn -0.2938 -0.5906 0.7516
vn -0.9147 0.4041 -0.0077
vn -0.8048 -0.5192 0.2878
vn -0.9015 -0.4101 -0.1386
vn -0.9649 0.1589 0.2091
vn -0.9327 -0.1491 -0.3283
vn -0.8065 -0.5911 -0.0102
vn -0.2313 0.5215 -0.8213
vn -0.8942 0.3179 -0.3151
vn -0.9306 -0.2844 -0.2302
vn -0.1790 -0.3059 0.9351
vn -0.7971 0.3781 0.4707
vn -0.8119 0.5702 0.1250
vn -0.7419 -0.6287 0.2330
vn -0.1794 -0.2695 0.9461
vn -0.9292 0.2722 -0.2502
vn -0.9899 0.0586 -0.1294
vn -0.1779 -0.5401 0.8226
vn -0.8882 -0.3696 0.2731
vn -0.8287 0.5390 0.1509
vn -0.9612 0.1657 0.2206
vn 0.2765 0.5170 -0.8101
vn -0.8098 0.5865 -0.0157
vn -0.9620 -0.0796 -0.2613
vn -0.8909 0.4325 0.1384
vn -0.9677 -0.2351 -0.0911
vn -0.7034 -0.6184 -0.3506
vn -0.8099 -0.5862 -0.0186
vn -0.9601 0.2713 0.0672
vn -0.8675 0.4718 0.1576
vn -0.9407 -0.3274 0.0886
vn -0.9275 -0.2069 -0.3114
vn -0.9133 -0.4040 -0.0509
vn -0.8193 0.3653 0.4420
vn -0.8165 0.5085 -0.2734
vn -0.8875 -0.3871 0.2500
vn -0.7028 0.5246 -0.4805
vn -0.9337 0.2729 0.2319
vn -0.9782 0.0780 -0.1926
vn -0.3312 0.0229 -0.9433
vn -0.5251 0.7902 -0.3160
vn -0.4431 0.7890 -0.4256
vn -0.8669 -0.4150 -0.2762
vn -0.8600 -0.4321 -0.2713
vn -0.9812 -0.0827 -0.1745
vn -0.6336 0.1676 0.7553
vn -0.4518 -0.7108 0.5391
vn -0.9859 -0.1325 -0.1021
vn -0.7490 -0.6413 0.1667
vn -0.5202 0.8517 0.0628
vn -0.9784 0.1066 0.1773
vn -0.7380 0.2203 0.6378
vn -0.9813 -0.1609 -0.1055
vn -0.8862 0.4362 0.1562
vn -0.8929 0.3558 -0.2758
vn -0.7502 -0.6518 0.1112
vn -0.9038 0.3413 0.2581
vn -0.4270 -0.8531 -0.2999
vn -0.7265 0.3408 -0.5967
vn -0.7046 -0.5199 0.4829
vn -0.3974 0.8904 -0.2220
vn -0.7251 -0.6704 0.1572
vn -0.2576 -0.2669 0.9286
vn 0.3964 -0.8760 0.2746
vn 0.0433 0.3410 -0.9391
vn -0.7252 -0.6884 0.0095
vn -0.6851 -0.7036 0.1888
vn -0.7371 0.1486 0.6592
vn -0.8753 0.3021 0.3776
vn -0.6496 -0.5879 -0.4821
vn -0.9647 0.2199 0.1447
vn -0.9426 -0.1290 -0.3081
vn -0.9829 0.1819 -0.0297
vn -0.7673 0.2664 -0.5833
vn -0.8440 0.4286 -0.3223
vn -0.8099 -0.5572 -0.1832
vn -0.9234 0.3225 -0.2079
vn -0.9373 -0.2741 -0.2152
vn -0.7893 0.3035 0.5338
vn -0.5742 -0.5733 0.5845
vn -0.9638 -0.1787 -0.1979
vn -0.6643 0.7402 -0.1038
vn -0.2623 -0.1032 0.9594
vn -0.3208 -0.0574 0.9454
vn -0.7916 0.6085 0.0551
vn -0.9629 -0.1300 0.2366
vn -0.9617 0.2342 0.1426
vn -0.6937 -0.5972 -0.4028
vn -0.8231 0.5461 0.1557
vn -0.9684 0.2383 0.0735
vn -0.9916 -0.0389 0.1232
vn -0.8534 0.3932 -0.3424
vn -0.7421 -0.6642 -0.0900
vn -0.6652 0.6822 0.3035
vn -0.7728 -0.4513 -0.4461
vn -0.7310 -0.6358 0.2477
vn -0.9140 0.3071 -0.2651
vn -0.8031 0.4418 0.3998
vn -0.8614 0.4813 0.1623
vn -0.9878 -0.1101 -0.1105
vn -0.9892 0.0562 -0.1353
vn -0.8204 0.5650 -0.0881
vn -0.0486 0.9959 -0.0759
vn -0.6869 0.7204 0.0961
vn -0.8254 0.5590 -0.0791
vn -0.9351 -0.3489 0.0618
vn -0.6909 0.6607 -0.2933
vn -0.6160 -0.6668 0.4194
vn 0.1568 -0.0241 -0.9873
vn -0.9437 -0.0515 0.3269
vn -0.8058 0.2063 -0.5551
vn -0.9333 -0.1790 -0.3113
vn -0.9616 -0.2533 0.1060
vn -0.9714 0.2257 -0.0736
vn -0.9943 0.1059 0.0123
vn -0.6871 0.7159 0.1243
vn -0.9310 -0.2550 -0.2613
vn -0.7972 0.5715 0.1948
vn -0.9902 0.1329 0.0425
vn -0.8243 -0.5396 0.1715
vn -0.9796 0.2000 -0.0212
vn -0.9714 -0.0531 -0.2314
vn -0.9992 0.0365 0.0161
vn -0.8548 -0.4821 -0.1922
vn -0.8128 -0.5644 0.1446
vn -0.9203 0.3821 0.0841
vn -0.8330 0.5521 0.0368
vn -0.8612 -0.4950 -0.1154
vn -0.9957 0.0354 0.0859
vn -0.8191 0.0745 -0.5687
vn -0.8595 0.4578 -0.2273
vn -0.9956 0.0789 0.0504
vn -0.9539 -0.2864 -0.0902
vn -0.2469 0.1056 0.9633
vn -0.9613 -0.2048 0.1842
vn -0.9557 -0.1759 0.2359
vn -0.4942 0.8359 -0.2386
vn -0.9015 0.3951 -0.1767
vn -0.6720 0.7345 0.0952
vn -0.9778 0.1939 0.0795
vn -0.9409 -0.0133 -0.3383
vn -0.9481 0.2491 0.1974
vn -0.8912 -0.4537 -0.0040
vn -0.9506 -0.0367 -0.3082
vn -0.8884 -0.4317 0.1560
vn -0.9864 0.1643 -0.0077
vn -0.8851 -0.4654 0.0030
vn -0.7055 0.6985 -0.1196
vn -0.2785 -0.6367 0.7190
vn -0.9182 0.1700 -0.3577
vn -0.9190 0.3761 -0.1185
vn -0.9898 0.1031 -0.0986
vn -0.6103 -0.7660 -0.2018
vn -0.4509 0.4124 0.7916
vn -0.9462 -0.2675 0.1819
vn -0.9914 0.1209 -0.0504
vn -0.8944 0.3385 -0.2923
vn -0.9563 0.1819 -0.2291
vn -0.9743 0.1237 0.1881
vn -0.5008 0.8531 -0.1462
vn -0.8641 -0.5011 -0.0476
vn -0.8041 0.5461 0.2352
vn -0.4959 0.5011 0.7092
vn -0.9257 -0.3394 -0.1668
vn -0.0497 -0.6806 -0.7310
vn -0.5752 -0.2773 -0.7696
vn -0.5081 0.6618 0.5512
vn -0.9397 -0.2689 -0.2114
vn -0.6296 0.7736 -0.0722
vn -0.4522 0.6138 0.6471
vn -0.7552 0.6552 0.0169
vn -0.7620 0.6473 0.0198
vn -0.5497 -0.7686 0.3272
vn -0.7606 -0.6481 -0.0394
vn -0.7808 0.5650 -0.2668
vn -0.1847 -0.5130 0.8382
vn -0.4478 0.6470 0.6172
vn -0.8843 -0.4015 -0.2385
vn -0.7677 -0.5766 0.2797
vn -0.9439 -0.2551 0.2096
vn -0.9795 0.1851 -0.0801
vn -0.4983 -0.7969 -0.3415
vn -0.9921 0.0028 -0.1252
vn -0.6526 -0.7201 -0.2356
vn -0.9165 -0.3872 -0.1009
vn 0.0567 0.6973 -0.7145
vn -0.7772 0.6282 -0.0378
vn -0.1139 -0.3290 0.9374
vn -0.9916 -0.1244 -0.0348
vn -0.8031 -0.5726 -0.1647
vn -0.4356 0.8959 -0.0874
vn -0.8444 0.4049 0.3508
vn -0.1785 0.6202 0.7639
vn -0.7973 -0.5476 -0.2539
vn -0.4749 -0.8800 0.0068
vn -0.8654 -0.3383 -0.3697
vn -0.9487 0.3161 0.0042
vn -0.5266 0.6124 0.5896
vn -0.9648 -0.0827 0.2497
vn -0.7965 0.0957 -0.5971
vn -0.9471 0.1695 0.2724
vn -0.6864 0.7213 0.0925
vn -0.9787 -0.2046 -0.0163
vn -0.8144 -0.2438 -0.5266
vn -0.9598 0.0491 -0.2762
vn -0.3970 0.8368 -0.3771
vn -0.8513 -0.5216 0.0575
vn -0.4697 0.7199 -0.5110
vn -0.6760 -0.7189 0.1618
vn -0.9789 0.0910 0.1828
vn -0.2885 0.6872 0.6667
vn 0.1037 0.9551 -0.2776
vn -0.8807 0.3444 0.3253
vn -0.8068 -0.5888 -0.0492
vn -0.8724 -0.2586 -0.4148
vn -0.9895 -0.1431 0.0211
vn -0.9494 -0.0341 -0.3123
vn -0.6213 0.7835 0.0084
vn -0.5455 -0.2212 -0.8084
vn -0.5367 0.8100 -0.2362
vn -0.9811 0.1194 0.1521
vn -0.9536 -0.2968 0.0503
vn -0.9754 -0.2203 0.0064
vn -0.6907 0.1113 -0.7145
vn -0.9340 0.2637 -0.2412
vn -0.8795 0.0793 -0.4693
vn -0.5728 0.8184 -0.0464
vn -0.9719 0.1343 -0.1931
vn -0.9927 -0.1193 -0.0149
vn -0.9904 -0.0232 -0.1366
vn -0.8221 0.5157 -0.2411
vn -0.9081 0.2474 -0.3380
vn -0.0569 0.4823 0.8742
vn -0.5974 -0.5652 -0.5688
vn -0.9470 -0.2807 0.1563
vn -0.5663 -0.8160 0.1155
vn 0.0622 0.1101 0.9920
vn -0.8481 -0.5195 -0.1045
vn -0.9820 0.1490 0.1161
vn -0.9905 0.1319 -0.0396
vn -0.8804 0.4729 -0.0340
vn -0.8216 0.5413 0.1789
vn -0.9810 -0.1005 0.1658
vn -0.5577 -0.7252 -0.4038
vn -0.6397 0.7664 -0.0588
vn -0.6816 -0.7043 -0.1983
vn -0.5707 -0.8187 -0.0629
vn -0.8288 -0.4733 -0.2986
vn -0.6609 0.7349 0.1517
vn -0.9878 -0.1277 0.0891
vn -0.7706 -0.6297 -0.0981
vn -0.9754 -0.0942 0.1991
vn -0.8894 -0.4571 -0.0042
vn -0.8072 -0.5872 0.0608
vn -0.9756 0.2147 0.0451
vn -0.6344 -0.7420 0.2167
vn -0.8949 0.4446 -0.0373
vn -0.9746 -0.1440 -0.1713
vn -0.8578 0.4704 0.2069
vn -0.5507 -0.8335 0.0461
vn -0.7203 0.5381 -0.4377
vn -0.3479 0.9231 -0.1637
vn -0.9770 0.1913 -0.0948
vn -0.8241 -0.4478 -0.3469
vn -0.3471 -0.9366 0.0473
vn -0.9439 0.3300 -0.0113
vn -0.7039 -0.6346 -0.3189
vn -0.9825 0.1035 -0.1551
vn -0.6216 -0.7126 -0.3253
vn -0.6202 0.4032 -0.6729
vn -0.6145 0.5041 -0.6069
vn -0.8547 -0.0737 -0.5139
vn -0.5656 0.1790 -0.8050
vn -0.5200 0.8461 0.1174
vn -0.9967 0.0652 0.0493
vn -0.9629 0.0809 0.2573
vn -0.8231 -0.4473 0.3499
vn -0.5570 0.8289 -0.0518
vn -0.3818 0.9122 -0.1490
vn -0.3837 -0.8386 -0.3867
vn -0.6327 0.1683 -0.7559
vn -0.9765 0.2138 -0.0267
vn -0.5543 0.8287 -0.0772
vn -0.6344 0.7601 -0.1409
vn -0.9841 -0.1616 -0.0737
vn -0.5976 -0.8018 -0.0044
vn -0.5129 0.8584 -0.0015
vn -0.9998 -0.0006 0.0218
vn -0.8832 -0.4274 -0.1931
vn -0.5393 -0.7872 0.2990
vn -0.6453 0.7608 -0.0691
vn -0.9022 -0.4254 0.0710
vn -0.6115 0.7892 0.0566
vn -0.6684 -0.7438 0.0028
vn -0.4996 0.8632 -0.0721
vn -0.2524 -0.9676 -0.0105
vn -0.7527 -0.6546 -0.0707
vn -0.6652 -0.7384 -0.1106
vn -0.9708 0.2295 0.0701
vn -0.5735 0.8187 -0.0284
vn -0.8399 0.5308 0.1130
vn -0.6226 0.7758 0.1023
vn -0.7233 0.6850 -0.0871
vn -0.7110 -0.6916 0.1271
vn -0.6433 0.0500 -0.7640
vn -0.5262 0.8503 0.0094
vn -0.8945 -0.4465 -0.0212
vn -0.7270 -0.6669 0.1636
vn -0.7293 0.6808 -0.0687
vn -0.1503 -0.6315 0.7607
vn -0.0162 -0.2474 0.9688
vn -0.6062 0.7894 0.0963
vn -0.5357 0.8439 -0.0282
vn -0.3956 -0.1630 -0.9038
vn -0.4360 0.8688 -0.2344
vn -0.4587 -0.8782 -0.1355
vn -0.1089 0.6008 0.7920
vn -0.1819 -0.6470 0.7404
vn -0.4010 -0.7752 -0.4881
vn -0.3287 0.3198 -0.8886
vn -0.3798 -0.9231 -0.0606
vn -0.3532 0.8223 -0.4461
vn -0.2014 0.9661 -0.1618
vn -0.1896 -0.9814 0.0313
vn -0.5258 -0.8505 0.0148
vn -0.2392 0.9692 -0.0591
vn -0.5561 -0.8302 -0.0391
vn -0.3246 0.4522 -0.8308
vn -0.6007 0.7962 0.0719
vn -0.4455 0.8942 -0.0440
vn -0.4399 -0.8980 0.0082
vn 0.0050 0.4155 0.9096
vn -0.1347 -0.3346 0.9327
vn -0.4334 0.8956 0.1003
vn -0.3824 -0.9230 -0.0439
vn -0.2983 -0.0148 -0.9543
vn -0.3501 -0.5299 -0.7724
vn -0.3186 -0.9470 0.0408
vn -0.5381 -0.8405 -0.0630
vn -0.5370 -0.8317 0.1410
vn -0.2389 -0.9654 0.1044
vn -0.3357 -0.9420 0.0055
vn -0.3867 0.8895 0.2433
vn 0.0657 0.1532 0.9860
vn -0.3081 -0.9513 -0.0131
vn -0.5017 0.8649 -0.0186
vn -0.4015 -0.9132 0.0697
vn -0.3295 0.9399 0.0892
vn -0.4467 0.8921 0.0681
vn -0.5786 -0.8059 -0.1255
vn -0.5884 -0.7887 0.1784
vn -0.1446 -0.5964 0.7895
vn -0.4116 0.8956 0.1690
vn 0.0504 0.9980 -0.0375
vn -0.4204 0.9073 0.0132
vn -0.2767 -0.8833 -0.3784
vn -0.3435 -0.9371 0.0618
vn -0.3744 -0.8793 0.2943
vn -0.2748 -0.9608 -0.0378
vn -0.3860 0.9219 -0.0326
vn -0.3153 -0.9489 0.0113
vn -0.3475 0.9258 -0.1485
vn -0.3847 -0.9035 -0.1889
vn -0.4815 0.8759 -0.0320
vn -0.2837 0.8925 -0.3506
vn -0.5146 0.8573 -0.0146
vn -0.2917 -0.9558 -0.0361
vn -0.2529 0.6757 -0.6925
vn -0.2446 0.0222 -0.9694
vn -0.4541 -0.8676 0.2024
vn -0.2965 -0.9550 0.0108
vn -0.4111 0.9114 -0.0204
vn -0.0908 -0.6642 0.7420
vn 0.0923 -0.1436 0.9853
vn -0.4877 0.8693 -0.0800
vn -0.3895 0.9203 0.0356
vn -0.4923 0.8703 0.0141
vn -0.3428 0.9394 0.0015
vn -0.3342 -0.9416 0.0419
vn -0.1412 0.6293 0.7642
vn -0.0778 0.3168 0.9453
vn -0.3587 0.9311 -0.0653
vn -0.2585 0.9634 -0.0712
vn -0.3560 0.9271 -0.1176
vn -0.4160 0.7583 -0.5019
vn -0.3545 0.8113 -0.4649
vn 0.1835 -0.4531 0.8724
vn -0.4327 0.8995 -0.0598
vn -0.4271 0.9030 -0.0466
vn -0.4991 0.8664 -0.0174
vn -0.1008 -0.9664 0.2366
vn -0.2125 0.9750 -0.0645
vn -0.0284 0.9935 0.1100
vn -0.1749 0.5172 -0.8378
vn -0.3832 0.8373 -0.3899
vn -0.0714 0.9928 0.0960
vn -0.0336 0.9984 -0.0446
vn -0.0334 -0.6438 0.7645
vn -0.2332 0.6583 -0.7157
vn -0.2313 0.6840 -0.6918
vn -0.1066 -0.9935 0.0406
vn -0.1689 -0.9847 -0.0422
vn -0.0542 0.9982 -0.0273
vn -0.0253 -0.9447 0.3270
vn -0.0402 -0.9220 0.3850
vn -0.0720 0.9974 -0.0046
vn -0.0701 0.4524 -0.8890
vn -0.2294 0.9732 -0.0147
vn -0.0210 -0.9071 -0.4204
vn -0.1411 0.5970 -0.7897
vn -0.2599 -0.7153 -0.6487
vn 0.0526 -0.7538 0.6550
vn -0.1781 0.9840 -0.0004
vn 0.0277 0.9996 -0.0017
vn 0.0324 0.9988 -0.0380
vn 0.0270 -0.9809 0.1926
vn -0.1388 -0.9832 -0.1182
vn -0.2611 0.9418 -0.2117
vn -0.0784 0.9915 0.1041
vn -0.2190 0.9757 -0.0106
vn 0.0652 0.9924 -0.1040
vn -0.1809 -0.9834 0.0145
vn -0.2212 0.9734 -0.0602
vn 0.1095 -0.8879 0.4468
vn 0.1586 -0.8367 0.5242
vn -0.1211 -0.2756 -0.9536
vn 0.1215 0.9904 -0.0664
vn -0.3308 -0.9436 -0.0160
vn 0.1459 -0.5799 0.8015
vn -0.0725 0.9963 -0.0459
vn 0.1306 0.9898 -0.0572
vn -0.3563 -0.9320 0.0664
vn 0.0381 0.3274 -0.9441
vn -0.1079 -0.9941 0.0145
vn 0.1505 -0.7088 0.6892
vn -0.1253 0.9920 0.0161
vn -0.2448 -0.9689 -0.0346
vn -0.0714 0.9953 -0.0647
vn -0.1692 -0.9847 0.0423
vn -0.1257 -0.9909 0.0483
vn -0.0434 0.5744 0.8174
vn 0.1705 -0.8431 0.5100
vn -0.1361 -0.9907 -0.0073
vn -0.0913 -0.0487 -0.9946
vn -0.2820 -0.9576 0.0596
vn 0.1370 0.0466 -0.9895
vn 0.0133 0.0521 0.9986
vn -0.0489 -0.9929 -0.1081
vn 0.0808 0.8113 0.5790
vn 0.1976 0.9791 0.0471
vn 0.2916 -0.6375 -0.7131
vn 0.0169 0.6179 -0.7861
vn 0.1564 0.9783 0.1356
vn 0.1654 -0.1164 -0.9793
vn -0.0363 -0.9975 0.0611
vn 0.1222 0.9925 -0.0014
vn -0.0519 -0.9986 0.0023
vn -0.2308 -0.9706 0.0684
vn -0.1270 -0.9915 0.0298
vn 0.0214 -0.5460 0.8375
vn 0.1313 0.3278 -0.9356
vn 0.0693 0.9965 -0.0460
vn 0.0497 -0.3334 0.9415
vn 0.1188 -0.5178 0.8472
vn 0.1183 0.9848 -0.1272
vn 0.0170 -0.9977 0.0661
vn 0.1653 0.9700 -0.1784
vn -0.0300 0.2337 0.9718
vn -0.0269 0.9982 0.0535
vn 0.0398 0.5716 -0.8196
vn 0.3011 0.7857 0.5404
vn 0.3229 0.9451 -0.0505
vn 0.4056 -0.8029 -0.4368
vn 0.3356 0.9416 0.0288
vn 0.0208 -0.6368 0.7708
vn 0.0185 0.9967 -0.0786
vn 0.1315 0.8526 -0.5057
vn 0.1446 0.7945 -0.5897
vn 0.3800 -0.6215 -0.6851
vn -0.0196 -0.9998 -0.0099
vn 0.1379 0.4208 -0.8966
vn 0.2489 -0.9419 -0.2255
vn 0.1258 0.9919 0.0146
vn 0.2689 0.9558 -0.1189
vn 0.1224 -0.9821 -0.1435
vn 0.2699 0.6664 0.6951
vn 0.0450 -0.9922 0.1166
vn 0.3378 -0.0700 -0.9386
vn 0.0047 0.9882 -0.1529
vn 0.1449 0.9893 -0.0140
vn 0.0921 -0.9957 0.0021
vn 0.1203 0.9925 0.0230
vn 0.0027 -0.0678 0.9977
vn 0.1109 0.9930 -0.0404
vn 0.3608 0.9301 0.0685
vn 0.3397 0.9403 -0.0225
vn 0.0899 -0.9958 0.0178
vn 0.1125 0.9934 0.0209
vn 0.4224 0.9047 0.0561
vn 0.0789 -0.9969 0.0004
vn 0.4675 0.8839 0.0136
vn 0.1270 0.9856 -0.1115
vn 0.1718 -0.9848 -0.0269
vn 0.1938 0.9730 -0.1257
vn 0.4306 -0.8957 0.1113
vn 0.1099 -0.9936 -0.0280
vn 0.2177 0.9748 -0.0487
vn 0.2465 0.4054 0.8803
vn 0.0175 -0.9998 -0.0107
vn 0.2630 0.9631 -0.0571
vn 0.1288 0.9914 -0.0253
vn 0.0959 -0.9921 -0.0805
vn 0.3008 0.9537 -0.0075
vn 0.4447 0.8344 0.3255
vn 0.3864 -0.2916 -0.8750
vn 0.3019 0.9420 -0.1467
vn 0.8028 0.5821 -0.1294
vn 0.2538 0.2098 -0.9442
vn 0.4580 -0.8887 -0.0205
vn 0.5568 0.8301 0.0295
vn 0.3371 0.4794 -0.8103
vn 0.5438 0.8379 -0.0475
vn 0.3301 -0.9414 0.0690
vn 0.4314 0.9016 0.0323
vn 0.7263 0.6794 0.1042
vn 0.1453 0.3990 -0.9054
vn 0.5160 0.8551 0.0511
vn 0.5078 -0.8132 -0.2843
vn 0.0909 -0.9950 0.0403
vn 0.1739 -0.9828 0.0617
vn 0.0779 -0.9951 -0.0604
vn -0.0679 -0.5819 0.8105
vn 0.5634 0.8205 0.0972
vn 0.4879 0.8729 0.0054
vn 0.2262 -0.9729 0.0477
vn 0.2964 0.0305 -0.9546
vn 0.6649 -0.7446 0.0588
vn 0.3999 0.8295 -0.3899
vn 0.4303 0.7043 0.5646
vn 0.7682 0.2805 -0.5755
vn 0.4447 -0.8954 -0.0234
vn 0.6149 0.7886 0.0073
vn 0.5181 0.8550 -0.0235
vn 0.5705 0.8202 -0.0417
vn 0.1049 0.2750 0.9557
vn 0.6469 0.7618 -0.0357
vn 0.1531 -0.9851 0.0777
vn 0.1918 0.5283 0.8271
vn 0.3573 0.9336 -0.0267
vn 0.7602 0.6495 0.0146
vn 0.3334 -0.9418 -0.0428
vn 0.4944 -0.3921 -0.7758
vn 0.8262 0.4323 -0.3612
vn 0.2648 0.9643 -0.0108
vn 0.6270 0.6729 0.3924
vn 0.5473 -0.7766 0.3121
vn 0.5309 0.8426 -0.0905
vn 0.4777 0.8759 -0.0676
vn 0.2115 0.7920 0.5728
vn -0.0322 -0.3193 0.9471
vn 0.8785 0.1571 -0.4512
vn 0.2040 -0.9779 0.0445
vn 0.2368 0.9714 -0.0181
vn 0.6724 0.7361 0.0777
vn 0.4470 -0.8941 0.0280
vn 0.5883 -0.6851 -0.4295
vn 0.6693 0.7396 -0.0708
vn 0.6361 0.7706 -0.0409
vn 0.6340 0.7734 -0.0034
vn 0.6960 0.7172 0.0345
vn 0.2646 -0.9621 0.0658
vn 0.5424 0.7710 -0.3338
vn 0.5385 -0.8388 0.0807
vn 0.6203 0.0810 -0.7801
vn 0.2900 0.5037 0.8138
vn 0.6285 0.7740 0.0768
vn 0.1580 -0.7278 0.6674
vn 0.4791 0.3266 -0.8147
vn 0.1566 0.5980 0.7861
vn 0.9030 -0.4092 0.1308
vn -0.0477 0.0532 0.9974
vn 0.6293 0.7676 -0.1218
vn 0.5635 -0.4932 -0.6627
vn 0.4979 -0.8655 0.0548
vn 0.7952 0.5827 0.1677
vn 0.7534 -0.6571 -0.0267
vn 0.3681 -0.2037 0.9072
vn 0.0610 -0.5952 0.8013
vn 0.9693 -0.1987 -0.1447
vn 0.7280 0.6853 0.0195
vn 0.5284 0.4615 -0.7126
vn 0.3242 -0.6573 0.6803
vn 0.7041 0.4445 -0.5538
vn 0.2220 -0.9750 -0.0092
vn -0.7637 -0.3442 0.5461
vn 0.9396 -0.0620 -0.3365
vn 0.0779 0.6225 0.7788
vn 0.9333 -0.3360 -0.1266
vn -0.0384 0.2614 0.9645
vn 0.3055 -0.9520 0.0199
vn 0.5773 0.4239 -0.6979
vn 0.4275 -0.9032 0.0394
vn 0.7047 0.7091 -0.0230
vn 0.6471 -0.6365 0.4197
vn 0.4355 0.8960 -0.0866
vn 0.7965 0.5987 0.0845
vn 0.6129 -0.7423 -0.2706
vn -0.0388 -0.1901 0.9810
vn 0.7744 0.6326 -0.0052
vn 0.5083 -0.0466 -0.8599
vn 0.0530 0.5751 0.8163
vn 0.4646 0.0049 -0.8855
vn 0.7592 -0.6264 0.1769
vn 0.7457 0.3368 -0.5749
vn 0.4572 0.8234 0.3362
vn 0.6798 0.6824 -0.2689
vn 0.3337 -0.9424 -0.0203
vn 0.5362 0.6093 0.5841
vn 0.3475 0.4809 0.8049
vn 0.7094 0.7044 -0.0244
vn 0.8451 0.1850 -0.5015
vn 0.0375 -0.5952 0.8027
vn -0.0576 0.2141 0.9751
vn 0.8460 0.4740 -0.2441
vn -0.1578 0.1998 0.9670
vn 0.5893 -0.8058 -0.0591
vn 0.4401 -0.8977 0.0209
vn 0.6351 0.7661 -0.0988
vn 0.6370 0.7707 -0.0149
vn 0.2863 -0.5096 0.8114
vn 0.8924 0.3859 -0.2337
vn -0.0596 0.1435 0.9879
vn -0.1046 0.1238 0.9868
vn 0.7677 0.6269 -0.1328
vn 0.6946 -0.7170 -0.0583
vn 0.4760 -0.6590 0.5823
vn 0.3262 -0.6674 0.6695
vn 0.6129 -0.7871 0.0696
vn 0.8840 0.3453 -0.3150
vn 0.8918 0.4243 0.1572
vn 0.5335 -0.8311 -0.1569
vn 0.6498 -0.7594 0.0321
vn 0.3099 -0.4930 0.8130
vn 0.6706 0.2718 -0.6902
vn 0.7854 0.5406 0.3014
vn 0.0332 -0.6312 0.7749
vn 0.6550 -0.7533 0.0588
vn 0.7136 0.6997 0.0336
vn 0.9559 -0.2823 0.0810
vn 0.0102 0.2254 0.9742
vn 0.0130 0.2095 0.9777
vn 0.6786 0.3442 -0.6489
vn 0.0489 -0.4862 0.8725
vn 0.7799 0.6251 -0.0314
vn 0.9719 0.2354 -0.0022
vn 0.9326 0.2811 -0.2263
vn 0.9483 -0.2730 -0.1617
vn 0.9921 0.0275 -0.1224
vn -0.2305 -0.1529 0.9610
vn 0.4003 -0.6928 0.5999
vn 0.3299 -0.7293 0.5994
vn 0.7531 0.6563 0.0462
vn 0.1363 -0.1197 0.9834
vn 0.9151 0.3896 -0.1038
vn 0.5299 -0.8466 0.0507
vn 0.4962 -0.8682 -0.0065
vn 0.6402 -0.7669 -0.0435
vn 0.9217 -0.3396 0.1875
vn 0.5654 -0.2661 -0.7807
vn 0.2904 -0.6761 0.6771
vn -0.1063 -0.3051 0.9464
vn 0.7570 0.3223 0.5683
vn 0.2048 -0.6790 0.7050
vn 0.9993 -0.0366 -0.0115
vn 0.9949 0.0751 -0.0672
vn 0.8528 0.4850 -0.1939
vn -0.0196 -0.2764 0.9609
vn 0.8189 0.4459 -0.3613
vn 0.9971 0.0160 -0.0744
vn 0.6921 0.7210 0.0341
vn 0.6997 0.7139 -0.0254
vn 0.9867 -0.0971 0.1304
vn 0.9876 -0.1568 0.0097
vn 0.9100 -0.3967 0.1207
vn 0.9990 -0.0429 0.0116
vn 0.9228 0.2686 0.2762
vn -0.1252 -0.2719 0.9541
vn -0.7065 -0.2562 0.6597
vn 0.4555 -0.8901 -0.0136
vn 0.8152 0.5788 0.0195
vn 0.1787 -0.3954 0.9010
vn 0.1713 -0.4756 0.8628
vn 0.6546 0.7559 0.0114
vn 0.1382 -0.3572 0.9237
vn 0.7228 -0.6700 0.1691
vn 0.9882 0.0010 0.1531
vn 0.8564 -0.3436 0.3853
vn 0.2278 -0.4736 0.8508
vn 0.1337 -0.3481 0.9279
vn -0.0396 -0.2755 0.9605
vn 0.8263 0.5514 -0.1147
vn 0.0442 -0.2542 0.9661
vn 0.9104 -0.3305 0.2489
vn 0.5867 -0.2086 0.7825
vn 0.6824 -0.7266 0.0806
vn 0.7768 -0.2353 -0.5841
vn 0.6368 -0.1952 0.7459
vn 0.9798 -0.0101 -0.1999
vn 0.0452 -0.2326 0.9715
vn 0.6494 -0.3545 0.6728
vn 0.9770 0.2118 -0.0258
vn 0.9544 -0.2613 0.1445
vn 0.9497 0.0185 -0.3128
vn 0.5943 -0.4883 0.6391
vn 0.9537 -0.2000 0.2246
vn 0.5820 0.8021 -0.1341
vn 0.9955 0.0706 -0.0625
vn 0.6724 -0.7296 0.1249
vn 0.5622 -0.8206 0.1031
vn 0.8336 0.5464 0.0813
vn 0.8959 0.4438 0.0210
vn 0.7934 0.6086 -0.0127
vn 0.8167 0.5769 0.0155
vn 0.8427 0.5251 0.1191
vn 0.6453 -0.7486 0.1522
vn 0.8307 0.5549 -0.0458
vn 0.9295 0.3065 -0.2054
vn 0.6046 -0.7966 0.0041
vn 0.9574 0.2848 0.0482
vn 0.4867 -0.8684 -0.0952
vn 0.8087 -0.5875 0.0288
vn 0.8205 -0.5716 -0.0077
vn 0.8039 0.5947 0.0027
vn 0.9919 0.0866 0.0933
vn 0.7886 0.6145 -0.0231
vn 0.7512 0.0288 -0.6595
vn 0.9915 -0.0487 0.1208
vn 0.8530 0.5218 0.0087
vn 0.7581 0.6390 -0.1300
vn 0.8034 -0.4403 -0.4009
vn 0.6710 -0.7283 -0.1394
vn 0.8511 0.3079 -0.4252
vn 0.9019 0.2033 -0.3811
vn 0.7153 -0.6980 0.0330
vn 0.9484 -0.2925 0.1223
vn 0.7383 0.6743 0.0161
vn 0.8176 -0.5717 -0.0688
vn 0.7671 -0.6345 -0.0953
vn 0.9890 -0.0448 0.1407
vn 0.8534 0.5152 -0.0789
vn 0.9199 -0.3913 -0.0254
vn 0.8547 0.5131 0.0793
vn 0.8283 -0.5541 0.0831
vn 0.8931 -0.4351 0.1143
vn 0.8093 0.5869 0.0254
vn 0.9604 0.2521 0.1188
vn 0.9370 -0.0707 -0.3421
vn 0.9322 0.2795 -0.2301
vn 0.9020 -0.3177 0.2923
vn 0.9386 -0.3349 -0.0828
vn 0.8389 -0.5431 -0.0348
vn 0.9171 0.3970 0.0361
vn 0.9532 -0.3023 0.0093
vn 0.9038 -0.4139 0.1088
vn 0.9058 0.4227 -0.0285
vn 0.8134 0.5800 0.0437
vn 0.9897 0.0342 0.1393
vn 0.8679 -0.4930 0.0602
vn 0.9571 -0.2855 0.0500
vn 0.8945 0.4470 -0.0074
vn 0.8245 0.5548 0.1117
vn 0.9475 -0.3190 0.0223
vn 0.9615 -0.2747 -0.0083
vn 0.8099 0.5853 0.0381
vn 0.8147 -0.5093 -0.2773
vn 0.8981 0.4361 0.0562
vn 0.8271 -0.5617 -0.0218
vn 0.9804 0.1931 0.0387
vn 0.9936 -0.0956 0.0601
vn 0.8876 -0.4595 -0.0315
vn 0.9460 0.3241 -0.0029
vn 0.9727 0.2316 0.0161
vn 0.9528 0.2935 -0.0783
vn 0.9975 0.0088 0.0697
vn 0.9799 -0.0745 0.1851
vn 0.8880 -0.4595 -0.0177
vn 0.9839 0.1775 -0.0214
vn 0.9729 -0.2309 0.0160
vn 0.9533 0.2991 -0.0412
vn 0.9981 -0.0565 -0.0227
vn 0.9435 0.3236 0.0718
vn 0.9765 0.0219 -0.2145
vn 0.9466 0.2689 -0.1779
vn 0.9953 -0.0745 0.0625
vn 0.9990 -0.0392 -0.0211
vn 0.9711 0.2346 0.0429
vn 0.9867 -0.1577 -0.0397
vn 0.9882 -0.1496 -0.0326
vn 0.9943 0.1021 -0.0297
vn 0.9416 0.3152 -0.1183
vn 0.9879 0.1502 -0.0384
vn 0.9494 -0.3026 0.0843
vn 0.9967 -0.0764 -0.0280
vn 0.9963 -0.0781 -0.0356
vn 0.9715 -0.2351 -0.0319
vn 0.9512 0.2911 0.1020
vn 0.9641 0.2652 -0.0108
vn 0.9939 0.0449 0.1011
vn 0.9594 0.2760 0.0578
vn 0.9910 -0.1298 0.0343
vn 0.9991 -0.0149 -0.0393
vn 0.9986 -0.0462 0.0255
f 509//509 514//514 507//507
f 461//461 491//491 507//507
f 435//435 438//438 495//495
f 435//435 495//495 492//492
f 492//492 495//495 541//541
f 121//121 176//176 125//125
f 126//126 176//176 121//121
f 57//57 105//105 88//88
f 43//43 57//57 54//54
f 80//80 79//79 62//62
f 41//41 54//54 62//62
f 205//205 196//196 208//208
f 105//105 230//230 126//126
f 230//230 279//279 176//176
f 205//205 169//169 140//140
f 60//60 230//230 105//105
f 62//62 131//131 55//55
f 353//353 279//279 230//230
f 218//218 230//230 60//60
f 111//111 121//121 140//140
f 110//110 111//111 62//62
f 353//353 230//230 218//218
f 16//16 41//41 23//23
f 27//27 36//36 16//16
f 12//12 17//17 23//23
f 27//27 38//38 36//36
f 8//8 27//27 12//12
f 374//374 385//385 359//359
f 438//438 385//385 461//461
f 376//376 395//395 438//438
f 423//423 374//374 386//386
f 291//291 395//395 376//376
f 158//158 291//291 376//376
f 55//55 131//131 96//96
f 96//96 131//131 158//158
f 67//67 158//158 146//146
f 96//96 158//158 67//67
f 469//469 425//425 492//492
f 329//329 376//376 425//425
f 158//158 329//329 146//146
f 55//55 44//44 13//13
f 21//21 13//13 40//40
f 21//21 40//40 37//37
f 37//37 47//47 25//25
f 39//39 329//329 233//233
f 25//25 35//35 15//15
f 15//15 39//39 31//31
f 6//6 25//25 3//3
f 67//67 146//146 35//35
f 55//55 13//13 23//23
f 38//38 43//43 36//36
f 44//44 96//96 67//67
f 39//39 233//233 83//83
f 623//623 667//667 641//641
f 667//667 660//660 641//641
f 660//660 661//661 641//641
f 595//595 616//616 582//582
f 597//597 601//601 590//590
f 535//535 550//550 510//510
f 535//535 623//623 587//587
f 729//729 719//719 742//742
f 745//745 695//695 688//688
f 696//696 753//753 721//721
f 692//692 693//693 623//623
f 656//656 681//681 676//676
f 592//592 676//676 696//696
f 753//753 759//759 721//721
f 602//602 650//650 535//535
f 602//602 535//535 505//505
f 648//648 592//592 696//696
f 696//696 717//717 697//697
f 648//648 696//696 697//697
f 700//700 721//721 755//755
f 721//721 716//716 717//717
f 697//697 717//717 716//716
f 602//602 719//719 650//650
f 755//755 750//750 700//700
f 550//550 528//528 510//510
f 538//538 537//537 559//559
f 595//595 582//582 559//559
f 567//567 627//627 575//575
f 535//535 510//510 489//489
f 516//516 541//541 575//575
f 566//566 516//516 606//606
f 648//648 682//682 627//627
f 575//575 627//627 606//606
f 606//606 627//627 766//766
f 627//627 682//682 766//766
f 699//699 703//703 664//664
f 691//691 716//716 699//699
f 664//664 679//679 688//688
f 699//699 672//672 678//678
f 766//766 776//776 771//771
f 771//771 776//776 779//779
f 505//505 489//489 416//416
f 505//505 416//416 429//429
f 394//394 218//218 191//191
f 506//506 505//505 429//429
f 574//574 502//502 664//664
f 471//471 429//429 394//394
f 517//517 471//471 415//415
f 89//89 30//30 102//102
f 191//191 89//89 102//102
f 30//30 26//26 45//45
f 191//191 102//102 122//122
f 102//102 30//30 122//122
f 69//69 45//45 26//26
f 118//118 18//18 46//46
f 69//69 26//26 18//18
f 360//360 122//122 150//150
f 108//108 109//109 69//69
f 361//361 226//226 286//286
f 226//226 332//332 150//150
f 405//405 286//286 237//237
f 32//32 18//18 21//21
f 34//34 37//37 25//25
f 33//33 46//46 34//34
f 33//33 70//70 46//46
f 34//34 6//6 24//24
f 24//24 33//33 34//34
f 1//1 11//11 6//6
f 11//11 24//24 6//6
f 28//28 24//24 20//20
f 49//49 28//28 20//20
f 19//19 20//20 11//11
f 19//19 48//48 20//20
f 20//20 24//24 11//11
f 70//70 135//135 118//118
f 289//289 98//98 278//278
f 70//70 28//28 49//49
f 637//637 640//640 619//619
f 646//646 637//637 619//619
f 619//619 630//630 517//517
f 598//598 628//628 619//619
f 598//598 619//619 484//484
f 579//579 598//598 547//547
f 484//484 524//524 547//547
f 691//691 640//640 622//622
f 622//622 631//631 628//628
f 622//622 598//598 579//579
f 517//517 630//630 502//502
f 517//517 502//502 471//471
f 477//477 517//517 440//440
f 655//655 710//710 622//622
f 710//710 691//691 622//622
f 547//547 527//527 561//561
f 466//466 467//467 458//458
f 458//458 447//447 446//446
f 484//484 467//467 466//466
f 451//451 361//361 405//405
f 524//524 484//484 451//451
f 565//565 527//527 499//499
f 499//499 527//527 459//459
f 458//458 446//446 433//433
f 484//484 466//466 458//458
f 791//791 779//779 757//757
f 771//771 779//779 791//791
f 757//757 691//691 710//710
f 791//791 757//757 710//710
f 655//655 680//680 710//710
f 565//565 680//680 561//561
f 565//565 615//615 680//680
f 787//787 726//726 801//801
f 499//499 459//459 409//409
f 409//409 405//405 289//289
f 409//409 278//278 387//387
f 403//403 387//387 307//307
f 551//551 565//565 499//499
f 664//664 502//502 630//630
f 517//517 360//360 440//440
f 561//561 527//527 565//565
f 439//439 549//549 525//525
f 344//344 391//391 390//390
f 396//396 439//439 525//525
f 407//407 357//357 445//445
f 396//396 525//525 445//445
f 525//525 549//549 562//562
f 536//536 525//525 576//576
f 116//116 83//83 149//149
f 116//116 156//156 139//139
f 233//233 391//391 269//269
f 22//22 29//29 64//64
f 11//11 5//5 19//19
f 50//50 139//139 77//77
f 132//132 156//156 168//168
f 42//42 64//64 107//107
f 19//19 10//10 42//42
f 213//213 344//344 229//229
f 213//213 229//229 156//156
f 229//229 168//168 156//156
f 262//262 325//325 124//124
f 132//132 168//168 93//93
f 87//87 93//93 124//124
f 51//51 115//115 81//81
f 132//132 93//93 115//115
f 123//123 93//93 87//87
f 154//154 123//123 87//87
f 430//430 262//262 407//407
f 430//430 445//445 463//463
f 473//473 463//463 558//558
f 325//325 430//430 419//419
f 419//419 417//417 325//325
f 124//124 190//190 117//117
f 174//174 194//194 154//154
f 190//190 342//342 214//214
f 417//417 424//424 342//342
f 214//214 320//320 147//147
f 320//320 424//424 434//434
f 147//147 320//320 333//333
f 651//651 762//762 690//690
f 690//690 762//762 798//798
f 690//690 798//798 797//797
f 612//612 690//690 797//797
f 612//612 764//764 611//611
f 797//797 798//798 820//820
f 764//764 797//797 820//820
f 777//777 764//764 804//804
f 476//476 421//421 497//497
f 596//596 611//611 645//645
f 585//585 596//596 645//645
f 645//645 777//777 632//632
f 808//808 632//632 777//777
f 424//424 473//473 434//434
f 473//473 596//596 553//553
f 612//612 562//562 690//690
f 645//645 611//611 764//764
f 154//154 87//87 117//117
f 390//390 396//396 357//357
f 439//439 425//425 469//469
f 32//32 21//21 37//37
f 549//549 566//566 588//588
f 31//31 39//39 83//83
f 48//48 19//19 51//51
f 385//385 422//422 461//461
f 104//104 278//278 98//98
f 48//48 68//68 49//49
f 112//112 104//104 74//74
f 48//48 51//51 81//81
f 119//119 194//194 143//143
f 119//119 143//143 90//90
f 311//311 112//112 137//137
f 162//162 311//311 137//137
f 227//227 175//175 155//155
f 380//380 382//382 302//302
f 421//421 358//358 382//382
f 421//421 382//382 413//413
f 203//203 232//232 227//227
f 175//175 162//162 90//90
f 227//227 232//232 302//302
f 138//138 61//61 56//56
f 63//63 127//127 65//65
f 52//52 63//63 58//58
f 56//56 61//61 52//52
f 182//182 142//142 173//173
f 161//161 198//198 182//182
f 182//182 157//157 161//161
f 182//182 173//173 333//333
f 58//58 144//144 97//97
f 52//52 58//58 120//120
f 161//161 200//200 141//141
f 256//256 56//56 52//52
f 346//346 138//138 298//298
f 256//256 298//298 56//56
f 120//120 113//113 73//73
f 189//189 220//220 120//120
f 120//120 58//58 97//97
f 120//120 220//220 52//52
f 129//129 127//127 63//63
f 127//127 144//144 65//65
f 137//137 74//74 114//114
f 90//90 162//162 95//95
f 143//143 194//194 129//129
f 68//68 48//48 66//66
f 333//333 434//434 355//355
f 553//553 618//618 605//605
f 605//605 618//618 704//704
f 605//605 704//704 647//647
f 647//647 532//532 605//605
f 552//552 532//532 600//600
f 532//532 456//456 605//605
f 504//504 546//546 591//591
f 157//157 182//182 181//181
f 157//157 181//181 211//211
f 211//211 355//355 348//348
f 200//200 161//161 164//164
f 200//200 164//164 259//259
f 141//141 200//200 179//179
f 260//260 348//348 402//402
f 225//225 260//260 326//326
f 248//248 272//272 250//250
f 272//272 300//300 250//250
f 101//101 250//250 303//303
f 248//248 179//179 259//259
f 432//432 372//372 455//455
f 225//225 326//326 299//299
f 258//258 300//300 225//225
f 330//330 258//258 265//265
f 231//231 265//265 258//258
f 372//372 432//432 326//326
f 406//406 432//432 457//457
f 239//239 299//299 287//287
f 287//287 351//351 270//270
f 406//406 457//457 462//462
f 301//301 351//351 354//354
f 326//326 432//432 287//287
f 265//265 231//231 270//270
f 737//737 801//801 726//726
f 680//680 737//737 726//726
f 827//827 801//801 737//737
f 819//819 737//737 689//689
f 615//615 551//551 607//607
f 554//554 551//551 476//476
f 820//820 809//809 827//827
f 837//837 827//827 819//819
f 677//677 789//789 689//689
f 789//789 795//795 815//815
f 820//820 837//837 826//826
f 826//826 837//837 815//815
f 830//830 826//826 815//815
f 795//795 677//677 684//684
f 613//613 677//677 636//636
f 613//613 497//497 589//589
f 533//533 497//497 613//613
f 644//644 613//613 589//589
f 786//786 806//806 767//767
f 767//767 806//806 795//795
f 708//708 786//786 767//767
f 708//708 767//767 644//644
f 644//644 589//589 593//593
f 593//593 589//589 539//539
f 767//767 795//795 684//684
f 636//636 533//533 613//613
f 833//833 808//808 777//777
f 833//833 849//849 808//808
f 775//775 618//618 816//816
f 808//808 849//849 816//816
f 775//775 816//816 831//831
f 807//807 831//831 843//843
f 854//854 830//830 840//840
f 803//803 830//830 806//806
f 803//803 786//786 669//669
f 805//805 830//830 803//803
f 773//773 803//803 707//707
f 770//770 805//805 773//773
f 770//770 811//811 805//805
f 770//770 707//707 572//572
f 822//822 770//770 709//709
f 815//815 795//795 806//806
f 831//831 854//854 840//840
f 501//501 380//380 399//399
f 399//399 346//346 298//298
f 338//338 298//298 288//288
f 443//443 384//384 464//464
f 464//464 384//384 401//401
f 288//288 220//220 249//249
f 338//338 288//288 377//377
f 572//572 443//443 464//464
f 464//464 401//401 377//377
f 464//464 377//377 389//389
f 571//571 464//464 485//485
f 328//328 216//216 389//389
f 328//328 249//249 216//216
f 187//187 216//216 249//249
f 389//389 377//377 328//328
f 770//770 571//571 583//583
f 770//770 572//572 571//571
f 583//583 709//709 770//770
f 775//775 831//831 704//704
f 768//768 807//807 763//763
f 758//758 600//600 670//670
f 670//670 768//768 763//763
f 552//552 600//600 586//586
f 807//807 843//843 825//825
f 812//812 763//763 848//848
f 586//586 781//781 591//591
f 609//609 732//732 662//662
f 841//841 852//852 845//845
f 846//846 845//845 822//822
f 812//812 841//841 842//842
f 814//814 846//846 822//822
f 823//823 842//842 846//846
f 743//743 823//823 732//732
f 765//765 823//823 824//824
f 823//823 839//839 824//824
f 848//848 852//852 841//841
f 823//823 846//846 832//832
f 308//308 330//330 265//265
f 159//159 216//216 148//148
f 216//216 187//187 148//148
f 193//193 210//210 153//153
f 363//363 216//216 309//309
f 303//303 330//330 193//193
f 193//193 330//330 308//308
f 193//193 308//308 180//180
f 339//339 170//170 295//295
f 470//470 363//363 392//392
f 354//354 406//406 397//397
f 337//337 354//354 397//397
f 569//569 555//555 610//610
f 722//722 610//610 765//765
f 569//569 610//610 722//722
f 317//317 305//305 265//265
f 277//277 297//297 285//285
f 184//184 317//317 297//297
f 184//184 297//297 199//199
f 297//297 310//310 273//273
f 185//185 252//252 184//184
f 277//277 285//285 178//178
f 178//178 280//280 277//277
f 354//354 337//337 202//202
f 166//166 280//280 178//178
f 306//306 331//331 166//166
f 334//334 185//185 257//257
f 341//341 267//267 310//310
f 281//281 267//267 341//341
f 255//255 341//341 284//284
f 128//128 222//222 255//255
f 222//222 281//281 255//255
f 186//186 184//184 199//199
f 659//659 760//760 583//583
f 548//548 485//485 573//573
f 485//485 444//444 542//542
f 659//659 548//548 573//573
f 772//772 659//659 642//642
f 802//802 793//793 790//790
f 668//668 772//772 642//642
f 470//470 367//367 487//487
f 470//470 336//336 367//367
f 529//529 500//500 522//522
f 500//500 487//487 522//522
f 824//824 829//829 813//813
f 824//824 839//839 821//821
f 821//821 839//839 802//802
f 668//668 747//747 790//790
f 824//824 821//821 829//829
f 838//838 850//850 851//851
f 400//400 350//350 373//373
f 381//381 296//296 293//293
f 577//577 522//522 487//487
f 487//487 474//474 508//508
f 487//487 373//373 474//474
f 474//474 381//381 393//393
f 577//577 542//542 529//529
f 349//349 236//236 290//290
f 319//319 393//393 349//349
f 474//474 393//393 412//412
f 478//478 498//498 540//540
f 420//420 478//478 448//448
f 371//371 478//478 420//420
f 408//408 397//397 478//478
f 540//540 569//569 534//534
f 426//426 448//448 480//480
f 202//202 337//337 345//345
f 337//337 408//408 345//345
f 306//306 172//172 314//314
f 314//314 313//313 324//324
f 324//324 343//343 318//318
f 152//152 234//234 136//136
f 318//318 341//341 327//327
f 284//284 341//341 294//294
f 255//255 284//284 160//160
f 197//197 318//318 234//234
f 282//282 283//283 294//294
f 460//460 426//426 480//480
f 167//167 197//197 152//152
f 167//167 152//152 78//78
f 167//167 245//245 197//197
f 152//152 197//197 234//234
f 294//294 197//197 264//264
f 404//404 460//460 465//465
f 368//368 404//404 465//465
f 418//418 465//465 450//450
f 368//368 365//365 404//404
f 368//368 254//254 365//365
f 304//304 368//368 418//418
f 246//246 228//228 315//315
f 315//315 304//304 323//323
f 564//564 584//584 671//671
f 671//671 723//723 780//780
f 543//543 564//564 671//671
f 829//829 838//838 780//780
f 531//531 543//543 599//599
f 544//544 531//531 599//599
f 580//580 544//544 614//614
f 735//735 599//599 543//543
f 735//735 718//718 599//599
f 633//633 614//614 643//643
f 450//450 465//465 494//494
f 449//449 436//436 494//494
f 503//503 449//449 568//568
f 563//563 568//568 494//494
f 449//449 410//410 436//436
f 449//449 370//370 410//410
f 312//312 370//370 362//362
f 452//452 442//442 450//450
f 580//580 526//526 544//544
f 494//494 512//512 523//523
f 620//620 568//568 563//563
f 563//563 614//614 633//633
f 560//560 620//620 654//654
f 560//560 568//568 620//620
f 654//654 620//620 686//686
f 578//578 488//488 560//560
f 560//560 503//503 568//568
f 238//238 236//236 130//130
f 134//134 217//217 238//238
f 243//243 263//263 245//245
f 100//100 167//167 78//78
f 246//246 195//195 207//207
f 195//195 100//100 207//207
f 71//71 99//99 103//103
f 349//349 238//238 241//241
f 319//319 241//241 177//177
f 201//201 177//177 241//241
f 201//201 241//241 263//263
f 165//165 201//201 188//188
f 177//177 201//201 165//165
f 183//183 192//192 266//266
f 266//266 192//192 242//242
f 393//393 319//319 251//251
f 251//251 366//366 412//412
f 468//468 378//378 486//486
f 379//379 356//356 468//468
f 468//468 356//356 378//378
f 206//206 251//251 177//177
f 206//206 177//177 183//183
f 276//276 261//261 379//379
f 322//322 366//366 251//251
f 221//221 319//319 177//177
f 188//188 245//245 274//274
f 362//362 268//268 312//312
f 411//411 347//347 362//362
f 241//241 282//282 263//263
f 810//810 844//844 796//796
f 731//731 774//774 761//761
f 828//828 847//847 810//810
f 847//847 844//844 810//810
f 761//761 810//810 747//747
f 604//604 508//508 545//545
f 508//508 482//482 545//545
f 851//851 850//850 853//853
f 853//853 850//850 844//844
f 835//835 853//853 834//834
f 835//835 834//834 800//800
f 853//853 847//847 834//834
f 834//834 847//847 817//817
f 800//800 834//834 799//799
f 817//817 828//828 783//783
f 649//649 783//783 545//545
f 649//649 608//608 817//817
f 799//799 834//834 782//782
f 711//711 530//530 654//654
f 521//521 557//557 608//608
f 557//557 625//625 608//608
f 608//608 649//649 570//570
f 718//718 800//800 769//769
f 778//778 654//654 686//686
f 711//711 654//654 748//748
f 784//784 800//800 785//785
f 496//496 486//486 530//530
f 521//521 515//515 493//493
f 490//490 453//453 493//493
f 784//784 694//694 769//769
f 478//478 462//462 498//498
f 397//397 462//462 478//478
f 246//246 207//207 228//228
f 189//189 249//249 220//220
f 455//455 402//402 472//472
f 760//760 814//814 822//822
f 422//422 483//483 461//461
f 507//507 514//514 518//518
f 509//509 518//518 514//514
f 491//491 461//461 483//483
f 483//483 423//423 510//510
f 483//483 422//422 423//423
f 438//438 461//461 507//507
f 335//335 253//253 359//359
f 240//240 253//253 235//235
f 240//240 275//275 253//253
f 275//275 240//240 235//235
f 374//374 275//275 279//279
f 253//253 209//209 235//235
f 125//125 88//88 106//106
f 110//110 105//105 126//126
f 105//105 110//110 106//106
f 121//121 125//125 126//126
f 140//140 121//121 88//88
f 57//57 62//62 53//53
f 88//88 76//76 80//80
f 80//80 57//57 88//88
f 57//57 80//80 76//76
f 57//57 53//53 54//54
f 105//105 94//94 92//92
f 62//62 23//23 41//41
f 43//43 38//38 60//60
f 43//43 54//54 53//53
f 212//212 205//205 208//208
f 176//176 205//205 196//196
f 196//196 209//209 208//208
f 140//140 169//169 62//62
f 169//169 131//131 62//62
f 275//275 176//176 279//279
f 126//126 230//230 176//176
f 212//212 275//275 219//219
f 62//62 55//55 23//23
f 89//89 218//218 60//60
f 106//106 94//94 79//79
f 41//41 36//36 43//43
f 244//244 169//169 240//240
f 386//386 279//279 353//353
f 16//16 14//14 17//17
f 17//17 14//14 23//23
f 12//12 23//23 13//13
f 38//38 27//27 8//8
f 38//38 30//30 89//89
f 12//12 13//13 8//8
f 30//30 8//8 9//9
f 8//8 21//21 9//9
f 27//27 16//16 17//17
f 385//385 423//423 422//422
f 423//423 385//385 374//374
f 385//385 438//438 395//395
f 376//376 438//438 435//435
f 489//489 423//423 386//386
f 385//385 335//335 359//359
f 385//385 395//395 291//291
f 131//131 291//291 158//158
f 376//376 329//329 158//158
f 425//425 435//435 492//492
f 376//376 435//435 425//425
f 146//146 329//329 39//39
f 329//329 425//425 233//233
f 67//67 47//47 44//44
f 40//40 44//44 47//47
f 44//44 40//40 13//13
f 40//40 47//47 37//37
f 146//146 39//39 35//35
f 39//39 15//15 35//35
f 25//25 15//15 3//3
f 3//3 1//1 6//6
f 374//374 279//279 386//386
f 244//244 291//291 169//169
f 36//36 41//41 16//16
f 60//60 38//38 89//89
f 96//96 44//44 55//55
f 7//7 2//2 3//3
f 7//7 31//31 29//29
f 7//7 29//29 2//2
f 639//639 653//653 657//657
f 660//660 663//663 661//661
f 656//656 652//652 653//653
f 666//666 656//656 660//660
f 667//667 623//623 665//665
f 665//665 623//623 674//674
f 621//621 624//624 617//617
f 621//621 617//617 587//587
f 616//616 603//603 617//617
f 617//617 590//590 587//587
f 639//639 587//587 641//641
f 635//635 616//616 621//621
f 635//635 624//624 639//639
f 635//635 582//582 616//616
f 601//601 597//597 603//603
f 656//656 635//635 641//641
f 641//641 587//587 623//623
f 550//550 535//535 587//587
f 550//550 587//587 590//590
f 535//535 650//650 623//623
f 535//535 489//489 505//505
f 753//753 751//751 744//744
f 729//729 751//751 753//753
f 742//742 741//741 752//752
f 754//754 755//755 746//746
f 755//755 749//749 746//746
f 754//754 746//746 749//749
f 742//742 756//756 759//759
f 759//759 752//752 755//755
f 759//759 756//756 752//752
f 755//755 752//752 756//756
f 759//759 744//744 751//751
f 729//729 742//742 755//755
f 719//719 739//739 734//734
f 745//745 750//750 733//733
f 750//750 736//736 733//733
f 750//750 755//755 739//739
f 695//695 733//733 719//719
f 750//750 739//739 740//740
f 745//745 688//688 725//725
f 692//692 698//698 693//693
f 728//728 705//705 713//713
f 728//728 676//676 706//706
f 701//701 713//713 714//714
f 706//706 676//676 692//692
f 728//728 706//706 705//705
f 706//706 698//698 714//714
f 701//701 623//623 650//650
f 728//728 650//650 729//729
f 729//729 753//753 728//728
f 728//728 753//753 696//696
f 729//729 650//650 719//719
f 721//721 717//717 696//696
f 687//687 675//675 681//681
f 676//676 681//681 675//675
f 692//692 623//623 701//701
f 701//701 650//650 705//705
f 728//728 696//696 676//676
f 721//721 759//759 755//755
f 505//505 574//574 602//602
f 695//695 719//719 602//602
f 688//688 602//602 574//574
f 721//721 700//700 716//716
f 674//674 675//675 687//687
f 681//681 666//666 665//665
f 681//681 656//656 666//666
f 674//674 623//623 675//675
f 656//656 676//676 592//592
f 759//759 753//753 744//744
f 750//750 745//745 700//700
f 741//741 742//742 719//719
f 754//754 739//739 755//755
f 754//754 740//740 739//739
f 734//734 746//746 741//741
f 556//556 537//537 528//528
f 528//528 550//550 581//581
f 559//559 556//556 581//581
f 556//556 559//559 537//537
f 528//528 581//581 556//556
f 510//510 423//423 489//489
f 559//559 567//567 538//538
f 582//582 592//592 559//559
f 592//592 648//648 567//567
f 541//541 567//567 575//575
f 492//492 541//541 516//516
f 575//575 606//606 516//516
f 648//648 697//697 682//682
f 697//697 738//738 682//682
f 588//588 606//606 651//651
f 566//566 606//606 588//588
f 606//606 766//766 651//651
f 567//567 648//648 627//627
f 594//594 559//559 581//581
f 688//688 724//724 725//725
f 688//688 712//712 715//715
f 688//688 679//679 712//712
f 727//727 703//703 702//702
f 679//679 703//703 727//727
f 699//699 664//664 685//685
f 664//664 630//630 672//672
f 672//672 683//683 664//664
f 679//679 664//664 702//702
f 724//724 715//715 712//712
f 688//688 715//715 724//724
f 727//727 716//716 700//700
f 716//716 691//691 738//738
f 724//724 727//727 700//700
f 699//699 727//727 702//702
f 683//683 672//672 699//699
f 727//727 724//724 712//712
f 738//738 691//691 757//757
f 682//682 738//738 766//766
f 776//776 738//738 779//779
f 766//766 738//738 776//776
f 766//766 771//771 651//651
f 688//688 574//574 664//664
f 738//738 697//697 716//716
f 581//581 590//590 601//601
f 595//595 594//594 597//597
f 590//590 581//581 595//595
f 386//386 416//416 489//489
f 416//416 375//375 429//429
f 375//375 218//218 394//394
f 218//218 89//89 191//191
f 375//375 394//394 429//429
f 191//191 415//415 394//394
f 574//574 505//505 506//506
f 506//506 471//471 502//502
f 429//429 471//471 506//506
f 506//506 502//502 574//574
f 394//394 415//415 471//471
f 416//416 353//353 375//375
f 150//150 45//45 91//91
f 122//122 45//45 150//150
f 45//45 122//122 30//30
f 26//26 9//9 18//18
f 69//69 18//18 118//118
f 352//352 122//122 360//360
f 108//108 69//69 226//226
f 109//109 150//150 108//108
f 517//517 352//352 360//360
f 360//360 332//332 383//383
f 226//226 361//361 332//332
f 360//360 150//150 332//332
f 69//69 286//286 226//226
f 69//69 118//118 286//286
f 237//237 118//118 135//135
f 237//237 286//286 118//118
f 191//191 122//122 352//352
f 191//191 352//352 415//415
f 91//91 69//69 109//109
f 91//91 108//108 150//150
f 45//45 69//69 91//91
f 469//469 492//492 516//516
f 549//549 516//516 566//566
f 469//469 516//516 549//549
f 46//46 18//18 32//32
f 32//32 37//37 34//34
f 70//70 118//118 46//46
f 46//46 32//32 34//34
f 34//34 25//25 6//6
f 33//33 24//24 28//28
f 289//289 237//237 135//135
f 49//49 98//98 70//70
f 289//289 70//70 98//98
f 637//637 630//630 640//640
f 619//619 634//634 646//646
f 638//638 634//634 628//628
f 630//630 619//619 640//640
f 630//630 637//637 646//646
f 628//628 629//629 619//619
f 634//634 629//629 631//631
f 619//619 629//629 634//634
f 638//638 628//628 631//631
f 619//619 517//517 484//484
f 598//598 484//484 547//547
f 691//691 699//699 640//640
f 640//640 699//699 646//646
f 628//628 598//598 622//622
f 640//640 631//631 622//622
f 484//484 517//517 477//477
f 547//547 524//524 527//527
f 680//680 579//579 561//561
f 699//699 678//678 646//646
f 655//655 622//622 579//579
f 446//446 447//447 454//454
f 446//446 454//454 440//440
f 466//466 467//467 477//477
f 433//433 447//447 440//440
f 383//383 433//433 360//360
f 433//433 383//383 451//451
f 433//433 440//440 360//360
f 451//451 405//405 459//459
f 451//451 459//459 527//527
f 433//433 484//484 458//458
f 451//451 383//383 361//361
f 655//655 579//579 680//680
f 726//726 710//710 680//680
f 771//771 791//791 798//798
f 809//809 791//791 787//787
f 809//809 798//798 791//791
f 791//791 710//710 787//787
f 710//710 726//726 787//787
f 405//405 409//409 459//459
f 405//405 237//237 289//289
f 409//409 289//289 278//278
f 565//565 551//551 615//615
f 499//499 409//409 551//551
f 403//403 358//358 421//421
f 403//403 421//421 476//476
f 387//387 403//403 479//479
f 479//479 403//403 476//476
f 551//551 409//409 479//479
f 479//479 409//409 387//387
f 479//479 476//476 551//551
f 286//286 405//405 361//361
f 524//524 451//451 527//527
f 233//233 425//425 439//439
f 233//233 439//439 391//391
f 390//390 439//439 396//396
f 396//396 445//445 357//357
f 588//588 651//651 690//690
f 612//612 576//576 562//562
f 525//525 562//562 576//576
f 525//525 536//536 445//445
f 233//233 269//269 149//149
f 269//269 213//213 149//149
f 116//116 149//149 156//156
f 213//213 156//156 149//149
f 83//83 233//233 149//149
f 31//31 64//64 29//29
f 116//116 107//107 64//64
f 22//22 64//64 42//42
f 11//11 1//1 5//5
f 1//1 2//2 4//4
f 19//19 5//5 10//10
f 42//42 10//10 22//22
f 5//5 4//4 10//10
f 29//29 22//22 2//2
f 2//2 22//22 4//4
f 50//50 107//107 139//139
f 107//107 116//116 139//139
f 42//42 50//50 19//19
f 50//50 77//77 51//51
f 19//19 50//50 51//51
f 132//132 139//139 156//156
f 139//139 132//132 77//77
f 344//344 357//357 229//229
f 262//262 357//357 407//407
f 357//357 262//262 229//229
f 229//229 262//262 168//168
f 168//168 124//124 93//93
f 168//168 262//262 124//124
f 132//132 115//115 51//51
f 115//115 119//119 81//81
f 115//115 93//93 123//123
f 124//124 117//117 87//87
f 123//123 154//154 194//194
f 119//119 123//123 194//194
f 77//77 132//132 51//51
f 64//64 83//83 116//116
f 463//463 445//445 536//536
f 536//536 576//576 558//558
f 536//536 558//558 463//463
f 262//262 430//430 325//325
f 419//419 463//463 417//417
f 325//325 417//417 342//342
f 174//174 190//190 214//214
f 154//154 190//190 174//174
f 424//424 463//463 473//473
f 214//214 342//342 320//320
f 342//342 424//424 320//320
f 417//417 463//463 424//424
f 576//576 612//612 611//611
f 612//612 797//797 764//764
f 820//820 798//798 809//809
f 764//764 820//820 804//804
f 820//820 826//826 804//804
f 588//588 690//690 562//562
f 558//558 576//576 611//611
f 558//558 611//611 596//596
f 473//473 558//558 596//596
f 553//553 585//585 618//618
f 764//764 777//777 645//645
f 618//618 632//632 816//816
f 816//816 632//632 808//808
f 585//585 632//632 618//618
f 645//645 632//632 585//585
f 473//473 553//553 434//434
f 434//434 333//333 320//320
f 407//407 445//445 430//430
f 124//124 325//325 190//190
f 390//390 357//357 344//344
f 430//430 463//463 419//419
f 596//596 585//585 553//553
f 513//513 491//491 528//528
f 495//495 538//538 541//541
f 30//30 9//9 26//26
f 353//353 416//416 386//386
f 31//31 7//7 15//15
f 771//771 798//798 762//762
f 49//49 20//20 48//48
f 68//68 104//104 49//49
f 104//104 68//68 74//74
f 307//307 278//278 104//104
f 307//307 104//104 224//224
f 358//358 307//307 224//224
f 66//66 48//48 81//81
f 74//74 66//66 114//114
f 114//114 66//66 81//81
f 114//114 81//81 95//95
f 81//81 119//119 95//95
f 90//90 95//95 119//119
f 194//194 174//174 171//171
f 174//174 214//214 147//147
f 142//142 133//133 147//147
f 112//112 74//74 137//137
f 224//224 112//112 311//311
f 162//162 137//137 95//95
f 382//382 162//162 215//215
f 227//227 155//155 203//203
f 155//155 175//175 143//143
f 358//358 311//311 382//382
f 215//215 175//175 302//302
f 382//382 215//215 302//302
f 413//413 382//382 380//380
f 311//311 162//162 382//382
f 302//302 340//340 380//380
f 232//232 340//340 302//302
f 232//232 203//203 340//340
f 203//203 346//346 340//340
f 302//302 175//175 227//227
f 171//171 133//133 142//142
f 163//163 171//171 142//142
f 127//127 129//129 163//163
f 163//163 198//198 127//127
f 129//129 63//63 155//155
f 171//171 163//163 129//129
f 203//203 155//155 138//138
f 155//155 61//61 138//138
f 52//52 61//61 63//63
f 63//63 65//65 58//58
f 198//198 163//163 142//142
f 198//198 142//142 182//182
f 144//144 198//198 161//161
f 144//144 113//113 97//97
f 161//161 141//141 113//113
f 161//161 113//113 144//144
f 113//113 141//141 72//72
f 346//346 203//203 138//138
f 298//298 138//138 56//56
f 256//256 52//52 220//220
f 256//256 220//220 288//288
f 189//189 120//120 73//73
f 198//198 144//144 127//127
f 249//249 189//189 148//148
f 147//147 333//333 173//173
f 68//68 66//66 74//74
f 358//358 224//224 311//311
f 553//553 605//605 456//456
f 414//414 434//434 456//456
f 434//434 414//414 355//355
f 414//414 456//456 431//431
f 414//414 431//431 355//355
f 431//431 456//456 472//472
f 402//402 431//431 472//472
f 600//600 532//532 647//647
f 472//472 456//456 532//532
f 532//532 552//552 504//504
f 455//455 504//504 457//457
f 504//504 552//552 546//546
f 333//333 355//355 181//181
f 333//333 181//181 182//182
f 181//181 355//355 211//211
f 164//164 211//211 223//223
f 164//164 223//223 259//259
f 141//141 179//179 72//72
f 348//348 431//431 402//402
f 260//260 223//223 348//348
f 260//260 402//402 321//321
f 223//223 260//260 225//225
f 321//321 326//326 260//260
f 200//200 259//259 179//179
f 73//73 72//72 59//59
f 179//179 84//84 72//72
f 84//84 59//59 72//72
f 259//259 223//223 271//271
f 259//259 271//271 248//248
f 84//84 179//179 248//248
f 248//248 250//250 84//84
f 84//84 250//250 101//101
f 372//372 402//402 455//455
f 402//402 372//372 321//321
f 272//272 225//225 300//300
f 225//225 299//299 258//258
f 330//330 300//300 258//258
f 272//272 271//271 225//225
f 250//250 300//300 303//303
f 73//73 59//59 75//75
f 148//148 189//189 75//75
f 148//148 75//75 159//159
f 153//153 159//159 101//101
f 75//75 101//101 159//159
f 432//432 455//455 457//457
f 321//321 372//372 326//326
f 299//299 239//239 258//258
f 231//231 239//239 270//270
f 406//406 287//287 432//432
f 287//287 406//406 351//351
f 287//287 270//270 239//239
f 270//270 351//351 301//301
f 299//299 326//326 287//287
f 462//462 457//457 498//498
f 301//301 285//285 270//270
f 301//301 354//354 204//204
f 101//101 303//303 153//153
f 737//737 607//607 689//689
f 827//827 737//737 819//819
f 607//607 551//551 554//554
f 554//554 533//533 636//636
f 677//677 689//689 636//636
f 636//636 607//607 554//554
f 554//554 476//476 533//533
f 615//615 607//607 737//737
f 827//827 837//837 820//820
f 815//815 819//819 789//789
f 789//789 677//677 795//795
f 837//837 819//819 815//815
f 789//789 819//819 689//689
f 854//854 826//826 830//830
f 815//815 806//806 830//830
f 684//684 677//677 613//613
f 476//476 497//497 533//533
f 767//767 684//684 613//613
f 644//644 767//767 613//613
f 803//803 806//806 786//786
f 786//786 708//708 669//669
f 708//708 593//593 669//669
f 593//593 539//539 669//669
f 708//708 644//644 593//593
f 589//589 497//497 501//501
f 826//826 833//833 804//804
f 833//833 826//826 854//854
f 833//833 854//854 849//849
f 849//849 831//831 816//816
f 854//854 831//831 849//849
f 803//803 669//669 707//707
f 840//840 830//830 805//805
f 539//539 572//572 669//669
f 707//707 669//669 572//572
f 840//840 836//836 843//843
f 831//831 840//840 843//843
f 840//840 811//811 836//836
f 770//770 773//773 707//707
f 836//836 811//811 852//852
f 497//497 421//421 413//413
f 497//497 413//413 380//380
f 380//380 340//340 399//399
f 497//497 380//380 501//501
f 501//501 399//399 481//481
f 539//539 481//481 443//443
f 501//501 481//481 539//539
f 399//399 443//443 481//481
f 399//399 298//298 384//384
f 298//298 338//338 384//384
f 298//298 256//256 288//288
f 443//443 399//399 384//384
f 384//384 338//338 401//401
f 377//377 288//288 328//328
f 401//401 338//338 377//377
f 572//572 464//464 571//571
f 539//539 443//443 572//572
f 464//464 389//389 485//485
f 389//389 363//363 485//485
f 485//485 363//363 444//444
f 288//288 249//249 328//328
f 249//249 148//148 187//187
f 389//389 216//216 363//363
f 571//571 548//548 583//583
f 571//571 485//485 548//548
f 659//659 583//583 548//548
f 704//704 670//670 647//647
f 704//704 768//768 670//670
f 704//704 831//831 807//807
f 704//704 807//807 768//768
f 807//807 825//825 763//763
f 600//600 647//647 670//670
f 763//763 812//812 670//670
f 763//763 825//825 848//848
f 843//843 836//836 825//825
f 825//825 836//836 848//848
f 848//848 841//841 812//812
f 781//781 812//812 842//842
f 457//457 591//591 498//498
f 586//586 758//758 781//781
f 546//546 586//586 591//591
f 732//732 609//609 743//743
f 842//842 743//743 781//781
f 609//609 662//662 610//610
f 662//662 765//765 610//610
f 852//852 822//822 845//845
f 846//846 842//842 841//841
f 845//845 846//846 841//841
f 846//846 814//814 832//832
f 743//743 842//842 823//823
f 732//732 823//823 765//765
f 824//824 794//794 765//765
f 832//832 839//839 823//823
f 159//159 153//153 210//210
f 153//153 303//303 193//193
f 170//170 210//210 193//193
f 309//309 216//216 210//210
f 180//180 170//170 193//193
f 308//308 265//265 305//305
f 170//170 247//247 295//295
f 247//247 252//252 295//295
f 305//305 252//252 247//247
f 305//305 180//180 308//308
f 247//247 170//170 180//180
f 180//180 305//305 247//247
f 392//392 363//363 309//309
f 309//309 170//170 392//392
f 392//392 170//170 339//339
f 444//444 363//363 470//470
f 369//369 339//339 295//295
f 369//369 295//295 336//336
f 336//336 295//295 185//185
f 185//185 295//295 252//252
f 498//498 591//591 555//555
f 540//540 498//498 555//555
f 406//406 462//462 397//397
f 569//569 722//722 584//584
f 609//609 610//610 555//555
f 265//265 270//270 317//317
f 297//297 317//317 285//285
f 252//252 317//317 184//184
f 199//199 297//297 273//273
f 317//317 270//270 285//285
f 285//285 301//301 178//178
f 166//166 178//178 204//204
f 310//310 280//280 331//331
f 178//178 301//301 204//204
f 267//267 199//199 273//273
f 257//257 199//199 267//267
f 186//186 199//199 257//257
f 336//336 185//185 367//367
f 367//367 185//185 334//334
f 334//334 257//257 292//292
f 341//341 331//331 327//327
f 267//267 281//281 292//292
f 255//255 281//281 341//341
f 292//292 281//281 222//222
f 222//222 334//334 292//292
f 185//185 184//184 186//186
f 273//273 310//310 267//267
f 310//310 331//331 341//341
f 297//297 277//277 310//310
f 292//292 257//257 267//267
f 709//709 583//583 760//760
f 760//760 822//822 709//709
f 485//485 542//542 573//573
f 772//772 760//760 659//659
f 642//642 659//659 542//542
f 542//542 659//659 573//573
f 832//832 814//814 839//839
f 839//839 793//793 802//802
f 772//772 668//668 790//790
f 839//839 814//814 793//793
f 626//626 668//668 642//642
f 760//760 793//793 814//814
f 642//642 542//542 577//577
f 392//392 369//369 470//470
f 369//369 336//336 470//470
f 470//470 500//500 529//529
f 529//529 542//542 470//470
f 500//500 470//470 487//487
f 794//794 813//813 722//722
f 794//794 824//824 813//813
f 790//790 747//747 796//796
f 747//747 668//668 626//626
f 821//821 838//838 829//829
f 850//850 821//821 844//844
f 821//821 850//850 838//838
f 350//350 334//334 296//296
f 367//367 400//400 487//487
f 350//350 367//367 334//334
f 367//367 350//350 400//400
f 577//577 487//487 508//508
f 474//474 373//373 381//381
f 508//508 474//474 482//482
f 400//400 373//373 487//487
f 296//296 334//334 222//222
f 577//577 626//626 642//642
f 222//222 128//128 236//236
f 293//293 222//222 236//236
f 349//349 293//293 236//236
f 296//296 222//222 293//293
f 381//381 293//293 393//393
f 393//393 251//251 412//412
f 412//412 482//482 474//474
f 397//397 408//408 337//337
f 478//478 371//371 408//408
f 448//448 478//478 540//540
f 540//540 555//555 569//569
f 534//534 569//569 584//584
f 534//534 584//584 564//564
f 448//448 540//540 534//534
f 448//448 534//534 480//480
f 480//480 531//531 460//460
f 543//543 534//534 564//564
f 480//480 534//534 543//543
f 480//480 543//543 531//531
f 202//202 345//345 313//313
f 202//202 313//313 172//172
f 345//345 324//324 313//313
f 306//306 314//314 327//327
f 314//314 172//172 313//313
f 371//371 343//343 345//345
f 324//324 345//345 343//343
f 306//306 166//166 172//172
f 324//324 318//318 327//327
f 420//420 388//388 371//371
f 388//388 343//343 371//371
f 343//343 388//388 316//316
f 388//388 426//426 316//316
f 136//136 99//99 152//152
f 234//234 316//316 136//136
f 341//341 318//318 294//294
f 294//294 318//318 197//197
f 284//284 283//283 217//217
f 283//283 282//282 217//217
f 160//160 284//284 217//217
f 282//282 294//294 264//264
f 294//294 283//283 284//284
f 365//365 426//426 460//460
f 264//264 197//197 245//245
f 245//245 167//167 195//195
f 282//282 264//264 263//263
f 316//316 426//426 365//365
f 234//234 318//318 343//343
f 136//136 316//316 145//145
f 404//404 365//365 460//460
f 465//465 460//460 531//531
f 368//368 465//465 418//418
f 316//316 365//365 145//145
f 145//145 365//365 254//254
f 152//152 99//99 78//78
f 418//418 437//437 427//427
f 304//304 418//418 410//410
f 304//304 410//410 364//364
f 304//304 315//315 228//228
f 246//246 315//315 274//274
f 370//370 315//315 323//323
f 274//274 315//315 370//370
f 418//418 428//428 410//410
f 254//254 368//368 304//304
f 437//437 428//428 427//427
f 427//427 428//428 418//418
f 418//418 450//450 437//437
f 584//584 788//788 723//723
f 722//722 813//813 788//788
f 780//780 723//723 788//788
f 584//584 723//723 671//671
f 671//671 735//735 543//543
f 788//788 829//829 780//780
f 838//838 851//851 780//780
f 780//780 851//851 818//818
f 818//818 792//792 780//780
f 780//780 792//792 735//735
f 671//671 780//780 735//735
f 835//835 792//792 818//818
f 792//792 835//835 718//718
f 813//813 829//829 788//788
f 851//851 835//835 818//818
f 544//544 599//599 614//614
f 718//718 658//658 599//599
f 735//735 792//792 718//718
f 614//614 658//658 643//643
f 718//718 769//769 720//720
f 658//658 718//718 720//720
f 599//599 658//658 614//614
f 465//465 544//544 511//511
f 563//563 523//523 580//580
f 465//465 511//511 494//494
f 449//449 494//494 568//568
f 274//274 370//370 312//312
f 494//494 523//523 563//563
f 362//362 370//370 449//449
f 362//362 475//475 411//411
f 475//475 362//362 449//449
f 475//475 449//449 503//503
f 519//519 523//523 512//512
f 511//511 520//520 512//512
f 519//519 520//520 523//523
f 526//526 520//520 519//519
f 511//511 526//526 519//519
f 519//519 520//520 511//511
f 450//450 442//442 441//441
f 441//441 442//442 452//452
f 436//436 452//452 494//494
f 494//494 511//511 512//512
f 563//563 580//580 614//614
f 620//620 563//563 633//633
f 620//620 633//633 694//694
f 694//694 686//686 620//620
f 475//475 503//503 560//560
f 411//411 475//475 488//488
f 530//530 488//488 578//578
f 488//488 475//475 560//560
f 511//511 544//544 526//526
f 580//580 523//523 526//526
f 584//584 722//722 788//788
f 441//441 442//442 437//437
f 437//437 450//450 441//441
f 427//427 428//428 436//436
f 436//436 437//437 442//442
f 345//345 408//408 371//371
f 388//388 448//448 426//426
f 388//388 420//420 448//448
f 633//633 658//658 694//694
f 160//160 134//134 128//128
f 217//217 282//282 238//238
f 130//130 134//134 238//238
f 99//99 71//71 78//78
f 167//167 100//100 195//195
f 103//103 228//228 151//151
f 207//207 151//151 228//228
f 100//100 82//82 151//151
f 86//86 85//85 82//82
f 103//103 151//151 82//82
f 71//71 85//85 86//86
f 103//103 82//82 71//71
f 151//151 207//207 100//100
f 245//245 195//195 246//246
f 245//245 246//246 274//274
f 78//78 85//85 100//100
f 71//71 86//86 78//78
f 236//236 238//238 290//290
f 349//349 241//241 319//319
f 349//349 290//290 238//238
f 243//243 245//245 188//188
f 192//192 188//188 268//268
f 188//188 192//192 165//165
f 242//242 268//268 347//347
f 165//165 192//192 183//183
f 242//242 347//347 266//266
f 201//201 263//263 243//243
f 201//201 243//243 188//188
f 177//177 165//165 183//183
f 251//251 319//319 221//221
f 482//482 412//412 366//366
f 366//366 322//322 398//398
f 378//378 347//347 411//411
f 356//356 266//266 378//378
f 347//347 378//378 266//266
f 488//488 486//486 411//411
f 411//411 486//486 378//378
f 379//379 261//261 356//356
f 251//251 276//276 322//322
f 379//379 322//322 276//276
f 206//206 261//261 276//276
f 251//251 221//221 177//177
f 188//188 274//274 268//268
f 268//268 274//274 312//312
f 347//347 268//268 362//362
f 241//241 238//238 282//282
f 810//810 796//796 747//747
f 747//747 626//626 761//761
f 774//774 810//810 761//761
f 810//810 774//774 828//828
f 761//761 626//626 577//577
f 577//577 604//604 731//731
f 577//577 508//508 604//604
f 731//731 761//761 577//577
f 844//844 847//847 853//853
f 847//847 828//828 817//817
f 828//828 774//774 783//783
f 718//718 835//835 800//800
f 731//731 783//783 774//774
f 731//731 545//545 783//783
f 731//731 604//604 545//545
f 570//570 649//649 545//545
f 570//570 545//545 515//515
f 817//817 782//782 834//834
f 782//782 608//608 711//711
f 799//799 782//782 748//748
f 782//782 711//711 748//748
f 530//530 578//578 654//654
f 515//515 608//608 570//570
f 557//557 530//530 711//711
f 711//711 608//608 625//625
f 782//782 817//817 608//608
f 817//817 783//783 649//649
f 769//769 800//800 784//784
f 785//785 799//799 778//778
f 778//778 748//748 654//654
f 799//799 785//785 800//800
f 799//799 748//748 778//778
f 366//366 398//398 490//490
f 482//482 366//366 545//545
f 545//545 366//366 490//490
f 545//545 490//490 515//515
f 398//398 379//379 453//453
f 496//496 530//530 557//557
f 468//468 521//521 493//493
f 490//490 493//493 515//515
f 453//453 490//490 398//398
f 453//453 468//468 493//493
f 608//608 515//515 521//521
f 851//851 853//853 835//835
f 686//686 694//694 784//784
f 578//578 560//560 654//654
f 255//255 160//160 128//128
f 160//160 217//217 134//134
f 136//136 103//103 99//99
f 264//264 245//245 263//263
f 777//777 804//804 833//833
f 552//552 586//586 546//546
f 434//434 553//553 456//456
f 189//189 73//73 75//75
f 537//537 518//518 514//514
f 537//537 514//514 513//513
f 403//403 307//307 358//358
f 355//355 431//431 348//348
f 504//504 591//591 457//457
f 501//501 539//539 589//589
f 765//765 794//794 722//722
f 518//518 509//509 513//513
f 507//507 518//518 537//537
f 513//513 514//514 518//518
f 513//513 528//528 537//537
f 528//528 491//491 483//483
f 528//528 483//483 510//510
f 275//275 374//374 359//359
f 275//275 359//359 253//253
f 538//538 495//495 507//507
f 495//495 438//438 507//507
f 509//509 507//507 491//491
f 491//491 513//513 509//509
f 126//126 125//125 110//110
f 125//125 106//106 110//110
f 244//244 240//240 235//235
f 244//244 209//209 253//253
f 176//176 140//140 125//125
f 111//111 88//88 121//121
f 76//76 80//80 62//62
f 76//76 62//62 57//57
f 88//88 125//125 140//140
f 111//111 110//110 106//106
f 79//79 80//80 76//76
f 79//79 76//76 88//88
f 62//62 54//54 53//53
f 92//92 94//94 62//62
f 92//92 62//62 79//79
f 60//60 105//105 57//57
f 60//60 57//57 43//43
f 105//105 92//92 88//88
f 79//79 94//94 92//92
f 205//205 212//212 209//209
f 205//205 209//209 196//196
f 54//54 41//41 53//53
f 41//41 43//43 53//53
f 275//275 212//212 205//205
f 275//275 205//205 176//176
f 212//212 219//219 169//169
f 212//212 169//169 205//205
f 140//140 196//196 205//205
f 140//140 176//176 196//196
f 291//291 131//131 169//169
f 94//94 106//106 88//88
f 94//94 88//88 92//92
f 208//208 219//219 212//212
f 79//79 88//88 111//111
f 106//106 110//110 62//62
f 106//106 62//62 94//94
f 94//94 105//105 106//106
f 235//235 240//240 169//169
f 235//235 169//169 219//219
f 106//106 79//79 111//111
f 62//62 111//111 140//140
f 208//208 244//244 235//235
f 208//208 235//235 219//219
f 219//219 235//235 209//209
f 219//219 209//209 212//212
f 219//219 275//275 235//235
f 208//208 209//209 244//244
f 47//47 67//67 35//35
f 47//47 35//35 25//25
f 23//23 14//14 16//16
f 12//12 14//14 17//17
f 13//13 21//21 8//8
f 12//12 27//27 14//14
f 27//27 17//17 14//14
f 30//30 38//38 8//8
f 21//21 18//18 9//9
f 291//291 335//335 385//385
f 335//335 291//291 244//244
f 667//667 673//673 666//666
f 667//667 666//666 663//663
f 244//244 253//253 335//335
f 7//7 3//3 15//15
f 2//2 1//1 3//3
f 653//653 652//652 657//657
f 652//652 639//639 657//657
f 660//660 667//667 663//663
f 665//665 666//666 673//673
f 667//667 665//665 673//673
f 666//666 660//660 663//663
f 661//661 663//663 656//656
f 661//661 656//656 657//657
f 656//656 653//653 657//657
f 653//653 661//661 657//657
f 660//660 656//656 663//663
f 616//616 617//617 621//621
f 617//617 624//624 621//621
f 665//665 674//674 673//673
f 641//641 653//653 639//639
f 641//641 661//661 653//653
f 652//652 656//656 641//641
f 639//639 624//624 621//621
f 639//639 621//621 587//587
f 597//597 603//603 616//616
f 597//597 616//616 595//595
f 590//590 617//617 597//597
f 597//597 617//617 603//603
f 730//730 751//751 744//744
f 730//730 744//744 729//729
f 624//624 635//635 621//621
f 592//592 635//635 656//656
f 635//635 639//639 652//652
f 641//641 635//635 652//652
f 729//729 744//744 751//751
f 755//755 756//756 741//741
f 755//755 741//741 749//749
f 755//755 742//742 730//730
f 755//755 730//730 729//729
f 752//752 741//741 756//756
f 742//742 752//752 756//756
f 741//741 746//746 749//749
f 759//759 751//751 730//730
f 759//759 730//730 742//742
f 750//750 740//740 719//719
f 750//750 719//719 736//736
f 739//739 719//719 740//740
f 734//734 739//739 740//740
f 745//745 733//733 736//736
f 695//695 745//745 736//736
f 695//695 736//736 733//733
f 693//693 698//698 676//676
f 693//693 676//676 687//687
f 719//719 733//733 736//736
f 675//675 693//693 687//687
f 692//692 676//676 698//698
f 676//676 675//675 687//687
f 705//705 706//706 714//714
f 705//705 714//714 713//713
f 714//714 698//698 692//692
f 714//714 692//692 701//701
f 701//701 705//705 713//713
f 706//706 692//692 698//698
f 674//674 687//687 681//681
f 674//674 681//681 673//673
f 623//623 693//693 675//675
f 705//705 650//650 713//713
f 650//650 728//728 713//713
f 602//602 688//688 695//695
f 681//681 665//665 673//673
f 754//754 749//749 734//734
f 754//754 734//734 740//740
f 725//725 700//700 745//745
f 592//592 582//582 635//635
f 685//685 683//683 672//672
f 685//685 672//672 630//630
f 746//746 734//734 749//749
f 734//734 741//741 719//719
f 567//567 541//541 538//538
f 595//595 559//559 594//594
f 592//592 567//567 559//559
f 550//550 595//595 581//581
f 679//679 715//715 712//712
f 679//679 702//702 703//703
f 699//699 702//702 703//703
f 699//699 685//685 683//683
f 678//678 683//683 685//685
f 664//664 683//683 685//685
f 594//594 601//601 603//603
f 594//594 603//603 597//597
f 630//630 678//678 685//685
f 678//678 672//672 683//683
f 679//679 727//727 715//715
f 727//727 712//712 715//715
f 664//664 703//703 702//702
f 699//699 716//716 727//727
f 700//700 725//725 724//724
f 757//757 779//779 738//738
f 581//581 601//601 594//594
f 629//629 634//634 638//638
f 629//629 638//638 631//631
f 550//550 590//590 595//595
f 218//218 375//375 353//353
f 352//352 517//517 415//415
f 108//108 226//226 109//109
f 226//226 150//150 109//109
f 361//361 383//383 332//332
f 108//108 91//91 109//109
f 135//135 70//70 289//289
f 33//33 28//28 70//70
f 630//630 646//646 678//678
f 634//634 631//631 646//646
f 629//629 628//628 634//634
f 454//454 447//447 458//458
f 454//454 458//458 467//467
f 579//579 547//547 561//561
f 646//646 631//631 640//640
f 455//455 472//472 532//532
f 455//455 532//532 504//504
f 466//466 454//454 467//467
f 446//446 440//440 447//447
f 466//466 477//477 454//454
f 454//454 477//477 440//440
f 433//433 446//446 447//447
f 484//484 477//477 467//467
f 433//433 451//451 484//484
f 801//801 827//827 809//809
f 801//801 809//809 787//787
f 307//307 387//387 278//278
f 469//469 549//549 439//439
f 390//390 391//391 439//439
f 344//344 269//269 391//391
f 588//588 562//562 549//549
f 344//344 213//213 269//269
f 1//1 4//4 5//5
f 4//4 22//22 10//10
f 50//50 42//42 107//107
f 119//119 115//115 123//123
f 83//83 64//64 31//31
f 190//190 154//154 117//117
f 325//325 342//342 190//190
f 762//762 651//651 771//771
f 537//537 538//538 507//507
f 49//49 104//104 98//98
f 104//104 112//112 224//224
f 114//114 95//95 137//137
f 171//171 174//174 133//133
f 174//174 147//147 133//133
f 147//147 173//173 142//142
f 162//162 175//175 215//215
f 175//175 90//90 143//143
f 143//143 129//129 155//155
f 171//171 129//129 194//194
f 155//155 63//63 61//61
f 58//58 65//65 144//144
f 113//113 120//120 97//97
f 775//775 704//704 618//618
f 204//204 202//202 172//172
f 204//204 172//172 166//166
f 161//161 157//157 164//164
f 211//211 164//164 157//157
f 271//271 272//272 248//248
f 330//330 303//303 300//300
f 223//223 225//225 271//271
f 223//223 211//211 348//348
f 75//75 59//59 101//101
f 84//84 101//101 59//59
f 239//239 231//231 258//258
f 354//354 351//351 406//406
f 615//615 737//737 680//680
f 607//607 636//636 689//689
f 773//773 805//805 803//803
f 840//840 805//805 811//811
f 770//770 822//822 811//811
f 346//346 399//399 340//340
f 758//758 586//586 600//600
f 852//852 848//848 836//836
f 781//781 758//758 812//812
f 812//812 758//758 670//670
f 743//743 591//591 781//781
f 765//765 662//662 732//732
f 743//743 609//609 591//591
f 159//159 210//210 216//216
f 210//210 170//170 309//309
f 305//305 317//317 252//252
f 339//339 369//369 392//392
f 354//354 202//202 204//204
f 796//796 821//821 802//802
f 796//796 802//802 790//790
f 277//277 280//280 310//310
f 306//306 327//327 331//331
f 166//166 331//331 280//280
f 186//186 257//257 185//185
f 772//772 793//793 760//760
f 772//772 790//790 793//793
f 444//444 470//470 542//542
f 373//373 350//350 296//296
f 373//373 296//296 381//381
f 821//821 796//796 844//844
f 261//261 183//183 266//266
f 261//261 266//266 356//356
f 522//522 577//577 529//529
f 293//293 349//349 393//393
f 314//314 324//324 327//327
f 316//316 234//234 343//343
f 531//531 544//544 465//465
f 145//145 103//103 136//136
f 145//145 254//254 228//228
f 228//228 103//103 145//145
f 254//254 304//304 228//228
f 410//410 370//370 364//364
f 370//370 323//323 364//364
f 304//304 364//364 323//323
f 427//427 410//410 428//428
f 530//530 486//486 488//488
f 633//633 643//643 658//658
f 694//694 720//720 769//769
f 658//658 720//720 694//694
f 519//519 512//512 520//520
f 526//526 523//523 520//520
f 441//441 452//452 436//436
f 494//494 452//452 450//450
f 441//441 436//436 442//442
f 436//436 410//410 427//427
f 437//437 436//436 428//428
f 130//130 128//128 134//134
f 130//130 236//236 128//128
f 82//82 100//100 86//86
f 86//86 100//100 85//85
f 71//71 82//82 85//85
f 85//85 78//78 86//86
f 268//268 242//242 192//192
f 468//468 496//496 557//557
f 468//468 557//557 521//521
f 251//251 206//206 276//276
f 261//261 206//206 183//183
f 711//711 625//625 557//557
f 784//784 785//785 686//686
f 785//785 778//778 686//686
f 486//486 496//496 468//468
f 468//468 453//453 379//379
f 398//398 322//322 379//379
f 852//852 811//811 822//822
f 72//72 73//73 113//113
f 609//609 555//555 591//591
