# convertido de flygym/NeuroMechFly (lf_tibia)
v -0.03586 -0.02713 -0.52522
v -0.03574 -0.02317 -0.51868
v -0.03516 -0.02550 -0.52821
v -0.03495 -0.02238 -0.51034
v -0.03456 -0.02553 -0.51566
v -0.03369 -0.01887 -0.50716
v -0.03345 -0.01652 -0.50052
v -0.03344 -0.02164 -0.52280
v -0.03341 -0.01308 -0.47269
v -0.03328 -0.03002 -0.52588
v -0.03320 -0.01773 -0.49200
v -0.03308 -0.01535 -0.48502
v -0.03271 -0.00999 -0.47967
v -0.03264 -0.01878 -0.51485
v -0.03219 -0.02327 -0.48828
v -0.03104 -0.01754 -0.50719
v -0.03092 -0.02391 -0.52750
v -0.03048 -0.02749 -0.51031
v -0.02999 0.00519 -0.48000
v -0.02976 -0.00722 -0.46039
v -0.02974 -0.02331 -0.47049
v -0.02939 -0.00192 -0.47857
v -0.02855 -0.02904 -0.49861
v -0.02820 -0.00256 -0.44585
v -0.02763 0.00764 -0.43921
v -0.02725 0.01667 -0.46703
v -0.02673 0.01291 -0.48742
v -0.02595 -0.01902 -0.51684
v -0.02591 0.01612 -0.47573
v -0.02562 -0.00987 -0.49254
v -0.02512 -0.02889 -0.48234
v -0.02505 -0.02487 -0.45287
v -0.02496 0.01515 -0.49794
v -0.02424 -0.00519 -0.49192
v -0.02398 0.00408 -0.41953
v -0.02389 0.00589 -0.53036
v -0.02366 -0.02509 -0.52494
v -0.02355 0.00916 -0.53282
v -0.02351 -0.02651 -0.53142
v -0.02332 -0.00189 -0.52787
v -0.02326 -0.02852 -0.53313
v -0.02323 -0.02843 -0.46338
v -0.02321 -0.02838 -0.52588
v -0.02297 0.00312 -0.40410
v -0.02290 0.01114 -0.53379
v -0.02290 0.01108 -0.53355
v -0.02283 0.01109 -0.53368
v -0.02266 -0.03493 -0.48466
v -0.02265 -0.02983 -0.53415
v -0.02257 0.01025 -0.53399
v -0.02256 -0.03581 -0.49804
v -0.02254 -0.02994 -0.53402
v -0.02241 0.01221 -0.53433
v -0.02236 -0.02013 -0.52783
v -0.02235 0.01855 -0.45136
v -0.02218 -0.01923 -0.43254
v -0.02213 -0.01098 -0.52733
v -0.02197 -0.03122 -0.53494
v -0.02181 -0.02335 -0.52480
v -0.02157 -0.01944 -0.50596
v -0.02152 0.01412 -0.53520
v -0.02146 0.01521 -0.42880
v -0.02140 0.00528 -0.52254
v -0.02140 -0.01331 -0.50071
v -0.02127 0.01434 -0.53588
v -0.02123 0.01431 -0.53585
v -0.02101 0.02308 -0.47522
v -0.02097 -0.00412 -0.50754
v -0.02093 -0.03087 -0.52318
v -0.02066 -0.03186 -0.53702
v -0.02066 0.02453 -0.02720
v -0.02055 -0.01647 -0.53389
v -0.02044 -0.03643 -0.46594
v -0.02036 0.00539 -0.51352
v -0.02004 -0.03255 -0.53717
v -0.02002 -0.03242 -0.53718
v -0.01989 -0.03265 -0.53719
v -0.01986 0.02687 -0.49237
v -0.01979 0.02058 -0.02693
v -0.01932 -0.01822 -0.41625
v -0.01899 0.00795 -0.37427
v -0.01898 0.01749 -0.53843
v -0.01895 0.02527 -0.50286
v -0.01886 -0.03325 -0.53750
v -0.01874 0.01254 -0.52112
v -0.01862 0.00893 -0.38278
v -0.01860 -0.01059 -0.51998
v -0.01842 0.01825 -0.52817
v -0.01838 0.01368 -0.54016
v -0.01827 0.02129 -0.51594
v -0.01796 -0.01227 -0.50595
v -0.01784 0.03406 -0.02930
v -0.01774 -0.03276 -0.51081
v -0.01773 0.02291 -0.42427
v -0.01743 0.01513 -0.02939
v -0.01716 -0.03328 -0.53894
v -0.01707 0.01877 -0.53911
v -0.01703 -0.00503 -0.37943
v -0.01703 0.01878 -0.53904
v -0.01684 0.01906 -0.53909
v -0.01675 0.01879 -0.53932
v -0.01660 -0.03490 -0.45310
v -0.01655 0.01354 -0.03036
v -0.01629 0.02132 -0.40231
v -0.01620 0.01302 -0.03005
v -0.01620 0.01283 -0.03019
v -0.01599 0.01149 -0.34120
v -0.01573 -0.02184 -0.51743
v -0.01563 0.01991 -0.53943
v -0.01560 0.01989 -0.53941
v -0.01559 -0.01963 -0.51180
v -0.01551 -0.00546 -0.54161
v -0.01547 -0.02720 -0.42530
v -0.01536 0.02144 -0.02177
v -0.01527 0.02026 -0.53932
v -0.01524 0.00854 -0.35887
v -0.01521 0.02791 -0.03449
v -0.01518 0.01993 -0.53973
v -0.01517 -0.01317 -0.38830
v -0.01503 0.02023 -0.53971
v -0.01497 0.02024 -0.53963
v -0.01493 0.00947 -0.02977
v -0.01492 0.02246 -0.43349
v -0.01489 -0.03534 -0.44496
v -0.01480 -0.02356 -0.54467
v -0.01471 0.03771 -0.02878
v -0.01471 0.02153 -0.53701
v -0.01464 0.02021 -0.54002
v -0.01449 -0.01756 -0.39792
v -0.01440 0.02057 -0.53992
v -0.01434 0.02058 -0.53984
v -0.01427 0.02199 -0.36904
v -0.01423 -0.03404 -0.54009
v -0.01418 -0.03419 -0.54030
v -0.01417 0.00758 -0.02868
v -0.01409 0.01477 -0.03139
v -0.01399 -0.02007 -0.52040
v -0.01399 -0.03411 -0.54034
v -0.01390 -0.03313 -0.54075
v -0.01386 0.01238 -0.32914
v -0.01383 -0.00017 -0.34896
v -0.01367 0.00701 -0.02850
v -0.01363 0.00717 -0.02828
v -0.01334 0.02680 -0.42251
v -0.01321 0.02129 -0.34641
v -0.01321 0.02140 -0.54006
v -0.01318 0.00617 -0.02808
v -0.01318 0.02065 -0.54054
v -0.01311 -0.01300 -0.37164
v -0.01311 0.01323 -0.31160
v -0.01291 0.00529 -0.02760
v -0.01290 -0.03895 -0.49184
v -0.01281 0.01343 -0.29791
v -0.01274 0.00513 -0.02753
v -0.01271 0.00541 -0.02734
v -0.01236 0.00445 -0.02721
v -0.01228 0.02816 -0.39359
v -0.01215 0.02188 -0.54036
v -0.01211 0.02190 -0.54030
v -0.01210 0.00598 -0.02817
v -0.01205 0.02264 -0.33120
v -0.01196 0.00386 -0.02693
v -0.01179 0.02185 -0.54056
v -0.01170 0.01867 -0.29192
v -0.01162 0.02235 -0.54021
v -0.01154 0.00338 -0.02685
v -0.01152 0.02226 -0.54052
v -0.01150 0.00252 -0.32561
v -0.01149 0.00353 -0.02666
v -0.01145 0.02227 -0.54044
v -0.01128 0.01435 -0.54454
v -0.01114 0.02766 -0.01809
v -0.01099 -0.01078 -0.36028
v -0.01099 0.01783 -0.26729
v -0.01090 0.02544 -0.28600
v -0.01086 0.00481 -0.02381
v -0.01065 -0.03406 -0.53025
v -0.01041 0.04160 -0.02770
v -0.01039 -0.03278 -0.41655
v -0.01003 -0.04061 -0.46043
v -0.01002 -0.03484 -0.54145
v -0.01000 0.02893 -0.37045
v -0.00988 0.01461 -0.27491
v -0.00978 0.00080 -0.02634
v -0.00969 -0.02899 -0.40954
v -0.00968 0.02360 -0.54047
v -0.00963 0.02548 -0.04638
v -0.00956 0.01960 -0.01676
v -0.00943 0.03911 -0.03984
v -0.00941 0.02685 -0.27602
v -0.00921 0.02842 -0.30213
v -0.00895 0.02833 -0.40828
v -0.00873 0.03251 -0.32580
v -0.00866 0.03129 -0.51363
v -0.00845 0.03266 -0.49388
v -0.00844 -0.03854 -0.51010
v -0.00829 0.03159 -0.36059
v -0.00819 -0.03623 -0.42890
v -0.00816 0.02479 -0.24272
v -0.00794 -0.03911 -0.43644
v -0.00758 0.01789 -0.23943
v -0.00750 0.03211 -0.05358
v -0.00741 0.00081 -0.54815
v -0.00729 -0.02029 -0.37936
v -0.00723 -0.00951 -0.33262
v -0.00708 -0.00841 -0.54959
v -0.00689 -0.00283 -0.02795
v -0.00642 0.00058 -0.02840
v -0.00635 -0.02562 -0.39202
v -0.00618 0.03215 -0.34891
v -0.00601 0.03219 -0.31358
v -0.00595 -0.01516 -0.34339
v -0.00581 0.03026 -0.45236
v -0.00552 0.04312 -0.02594
v -0.00544 -0.00899 -0.31287
v -0.00521 0.02427 -0.20609
v -0.00490 -0.00447 -0.28858
v -0.00489 0.03511 -0.24418
v -0.00489 0.04197 -0.05467
v -0.00483 0.02419 -0.54201
v -0.00471 0.00208 -0.26641
v -0.00456 0.03550 -0.26810
v -0.00445 -0.00821 -0.29910
v -0.00417 -0.04167 -0.47778
v -0.00416 0.03888 -0.29135
v -0.00403 0.03065 -0.19255
v -0.00394 -0.00438 -0.27428
v -0.00349 -0.00826 -0.03165
v -0.00333 0.01124 -0.22070
v -0.00316 0.00193 -0.25036
v -0.00307 0.03309 -0.20214
v -0.00288 -0.03337 -0.53193
v -0.00235 -0.02991 -0.54991
v -0.00219 0.03585 -0.33598
v -0.00216 0.01418 -0.04651
v -0.00203 -0.02218 -0.36110
v -0.00196 -0.00024 -0.01950
v -0.00184 0.04461 -0.02383
v -0.00183 0.03598 -0.06287
v -0.00158 0.04347 -0.26248
v -0.00155 0.03930 -0.06791
v -0.00154 0.04096 -0.28932
v -0.00153 0.04193 -0.22890
v -0.00152 -0.03513 -0.54614
v -0.00125 -0.01867 -0.34565
v -0.00096 0.03782 -0.16941
v -0.00089 0.01647 -0.17808
v -0.00069 0.02802 -0.14983
v -0.00053 0.03224 -0.42664
v -0.00034 0.04176 -0.06287
v -0.00005 -0.01331 -0.03574
v -0.00005 -0.01662 -0.33013
v 0.00011 0.00882 -0.19798
v 0.00018 0.03829 -0.30562
v 0.00031 0.03596 -0.08733
v 0.00038 0.02447 -0.05391
v 0.00088 0.03290 -0.53267
v 0.00090 0.04334 -0.23988
v 0.00101 0.03922 -0.09007
v 0.00101 0.02865 -0.06644
v 0.00103 -0.04121 -0.45660
v 0.00127 -0.00593 -0.26476
v 0.00139 0.04449 -0.19714
v 0.00146 0.04710 -0.21902
v 0.00161 0.02862 -0.13626
v 0.00171 0.03512 -0.52212
v 0.00173 0.03822 -0.48559
v 0.00177 0.02004 -0.14163
v 0.00178 0.03469 -0.11934
v 0.00200 0.03767 -0.10592
v 0.00224 0.03713 -0.13317
v 0.00243 0.02737 -0.09617
v 0.00247 0.04523 -0.02250
v 0.00264 0.04817 -0.18507
v 0.00275 0.02826 -0.07858
v 0.00277 -0.04369 -0.48808
v 0.00281 -0.01632 -0.03651
v 0.00292 0.04606 -0.07916
v 0.00294 -0.03967 -0.42582
v 0.00303 -0.03430 -0.53607
v 0.00304 -0.03498 -0.54783
v 0.00308 -0.03860 -0.40671
v 0.00313 0.03611 -0.44329
v 0.00317 0.03574 -0.51170
v 0.00329 -0.00355 -0.22813
v 0.00363 -0.01632 -0.30641
v 0.00368 0.01184 -0.15646
v 0.00386 0.04658 -0.16692
v 0.00397 -0.02904 -0.37371
v 0.00407 -0.03325 -0.37876
v 0.00412 0.03670 -0.46927
v 0.00418 0.00075 -0.04606
v 0.00428 0.04350 -0.27419
v 0.00433 0.04487 -0.08863
v 0.00458 -0.01750 -0.03706
v 0.00458 0.02031 -0.11297
v 0.00466 0.00678 -0.18033
v 0.00474 -0.03529 -0.39799
v 0.00489 -0.01767 -0.03728
v 0.00494 -0.01754 -0.03713
v 0.00505 -0.04354 -0.50519
v 0.00524 -0.01765 -0.03757
v 0.00526 -0.01782 -0.03719
v 0.00529 0.04767 -0.04513
v 0.00540 0.04601 -0.15089
v 0.00553 -0.01797 -0.03738
v 0.00556 -0.01788 -0.03721
v 0.00559 -0.04405 -0.47272
v 0.00560 0.02227 -0.01194
v 0.00563 0.01834 -0.10650
v 0.00568 0.04389 -0.12707
v 0.00586 0.01755 -0.06303
v 0.00611 0.03945 -0.37053
v 0.00627 -0.00194 -0.21467
v 0.00638 -0.01338 -0.28494
v 0.00654 -0.04023 -0.51538
v 0.00655 0.03296 -0.53302
v 0.00659 -0.03534 -0.38776
v 0.00665 -0.00695 -0.24520
v 0.00668 -0.04085 -0.41163
v 0.00711 0.02268 -0.07365
v 0.00715 0.04497 -0.02063
v 0.00722 0.04707 -0.11209
v 0.00755 0.04387 -0.30197
v 0.00761 -0.04050 -0.45312
v 0.00762 -0.04169 -0.44139
v 0.00781 -0.03897 -0.42024
v 0.00785 -0.01829 -0.03961
v 0.00799 0.03750 -0.49642
v 0.00828 0.03883 -0.41865
v 0.00838 0.03962 -0.40279
v 0.00860 -0.03591 -0.37593
v 0.00878 0.00876 -0.13224
v 0.00900 -0.00553 -0.05699
v 0.00915 -0.01175 -0.25503
v 0.00919 0.01359 -0.11556
v 0.00921 0.04791 -0.05905
v 0.00934 -0.02077 -0.03710
v 0.00971 -0.01395 -0.02691
v 0.00976 0.00436 -0.14372
v 0.00986 0.05230 -0.20377
v 0.00996 -0.04334 -0.48249
v 0.01010 -0.00184 -0.55456
v 0.01019 0.05000 -0.07853
v 0.01026 0.05228 -0.19032
v 0.01031 0.01421 -0.55012
v 0.01055 -0.01367 -0.55974
v 0.01056 0.00341 -0.09538
v 0.01061 -0.00356 -0.07137
v 0.01062 0.05016 -0.15419
v 0.01067 0.00724 -0.07989
v 0.01070 0.05082 -0.24960
v 0.01078 0.04398 -0.31522
v 0.01078 -0.02303 -0.33543
v 0.01087 0.04496 -0.33987
v 0.01091 0.00470 -0.05580
v 0.01099 0.02023 -0.54636
v 0.01099 0.01386 -0.07295
v 0.01102 0.03954 -0.47840
v 0.01119 0.05013 -0.13935
v 0.01124 -0.03608 -0.52642
v 0.01131 -0.00196 -0.18544
v 0.01135 0.03164 -0.01394
v 0.01147 -0.00109 -0.17143
v 0.01151 -0.03383 -0.55088
v 0.01172 -0.00720 -0.20547
v 0.01205 -0.03127 -0.55754
v 0.01207 -0.01431 -0.05298
v 0.01248 0.00588 -0.06849
v 0.01251 -0.00517 -0.19846
v 0.01274 0.04104 -0.46803
v 0.01276 0.04346 -0.35029
v 0.01276 0.00649 -0.11499
v 0.01296 -0.01973 -0.29034
v 0.01306 0.00017 -0.14845
v 0.01321 -0.00243 -0.08469
v 0.01353 -0.02411 -0.31546
v 0.01373 -0.00864 -0.21653
v 0.01378 0.04605 -0.02575
v 0.01391 -0.02352 -0.56098
v 0.01395 0.05117 -0.09492
v 0.01440 -0.03831 -0.39822
v 0.01442 -0.00500 -0.08343
v 0.01451 -0.03171 -0.54046
v 0.01484 -0.03280 -0.35862
v 0.01495 -0.04243 -0.41341
v 0.01508 0.05232 -0.23169
v 0.01510 -0.04175 -0.48974
v 0.01511 -0.03640 -0.37266
v 0.01533 0.05302 -0.10342
v 0.01544 -0.03369 -0.36951
v 0.01545 -0.00097 -0.09759
v 0.01549 -0.02191 -0.03507
v 0.01555 0.04264 -0.01981
v 0.01587 0.00479 -0.01404
v 0.01594 0.04282 -0.39576
v 0.01595 -0.02728 -0.56123
v 0.01599 -0.02232 -0.03775
v 0.01608 -0.04140 -0.51229
v 0.01618 -0.00954 -0.07337
v 0.01643 -0.02229 -0.03650
v 0.01647 -0.02218 -0.03646
v 0.01671 0.04840 -0.05052
v 0.01681 -0.04249 -0.44648
v 0.01696 0.03630 -0.51994
v 0.01706 -0.04258 -0.46828
v 0.01717 0.04979 -0.27811
v 0.01718 0.05087 -0.26066
v 0.01718 -0.01268 -0.23140
v 0.01737 -0.02873 -0.33754
v 0.01753 -0.02370 -0.56188
v 0.01758 -0.02311 -0.56204
v 0.01766 -0.02326 -0.56195
v 0.01774 -0.02325 -0.56204
v 0.01775 -0.02700 -0.56103
v 0.01817 -0.02979 -0.55512
v 0.01849 -0.04113 -0.43745
v 0.01854 -0.04123 -0.41840
v 0.01868 -0.01777 -0.56180
v 0.01871 0.05335 -0.12879
v 0.01872 0.04132 -0.43251
v 0.01882 0.02243 -0.01160
v 0.01883 0.04166 -0.45027
v 0.01889 0.02274 -0.54042
v 0.01894 0.05035 -0.29246
v 0.01898 -0.04494 -0.48140
v 0.01902 -0.02420 -0.30770
v 0.01903 -0.00401 -0.01806
v 0.01908 -0.01316 -0.56089
v 0.01915 -0.04020 -0.40709
v 0.01945 -0.01337 -0.06729
v 0.01953 0.04655 -0.33900
v 0.01974 0.01594 -0.54615
v 0.01998 -0.01625 -0.23606
v 0.02021 -0.02195 -0.03667
v 0.02022 0.03260 -0.53370
v 0.02036 0.05423 -0.14721
v 0.02037 0.04036 -0.47530
v 0.02069 0.04128 -0.41075
v 0.02088 -0.02192 -0.03847
v 0.02091 -0.00906 -0.55894
v 0.02095 0.05356 -0.11344
v 0.02096 -0.01695 -0.25679
v 0.02106 0.04300 -0.36042
v 0.02133 0.04594 -0.31971
v 0.02133 -0.02096 -0.27430
v 0.02138 -0.03919 -0.51303
v 0.02152 -0.02887 -0.33102
v 0.02153 0.04206 -0.48758
v 0.02175 -0.01476 -0.22107
v 0.02183 -0.01645 -0.05429
v 0.02200 0.05524 -0.16467
v 0.02207 0.04034 -0.01881
v 0.02239 0.05468 -0.24948
v 0.02253 -0.03937 -0.38461
v 0.02265 -0.04137 -0.45834
v 0.02268 -0.00528 -0.55598
v 0.02270 0.05228 -0.09357
v 0.02302 -0.04009 -0.43023
v 0.02322 -0.03476 -0.35287
v 0.02341 0.00438 -0.55236
v 0.02355 0.03352 -0.53161
v 0.02362 -0.02076 -0.03783
v 0.02376 0.05683 -0.20210
v 0.02390 -0.02077 -0.03773
v 0.02400 -0.03315 -0.36738
v 0.02408 0.04762 -0.30191
v 0.02442 -0.00857 -0.08346
v 0.02454 0.05426 -0.23537
v 0.02454 -0.02037 -0.03807
v 0.02463 -0.02916 -0.32351
v 0.02469 -0.00192 -0.12121
v 0.02482 0.03615 -0.49825
v 0.02503 -0.02555 -0.55116
v 0.02522 -0.04128 -0.48132
v 0.02524 -0.02567 -0.29903
v 0.02551 -0.01262 -0.06792
v 0.02560 0.05650 -0.15641
v 0.02577 -0.00395 -0.13659
v 0.02592 0.04946 -0.27275
v 0.02598 -0.03877 -0.39928
v 0.02601 -0.00805 -0.15849
v 0.02614 0.05214 -0.26169
v 0.02625 0.05575 -0.21151
v 0.02627 -0.01943 -0.03784
v 0.02642 -0.03759 -0.49820
v 0.02646 0.04626 -0.04417
v 0.02647 -0.00887 -0.55645
v 0.02666 0.05499 -0.11773
v 0.02700 -0.01067 -0.18127
v 0.02705 -0.04193 -0.43999
v 0.02705 -0.01755 -0.55378
v 0.02720 0.00506 -0.55041
v 0.02724 -0.00672 -0.15319
v 0.02786 -0.01079 -0.07742
v 0.02806 0.00609 -0.01407
v 0.02816 0.03695 -0.01803
v 0.02826 -0.03776 -0.51308
v 0.02841 0.04467 -0.36797
v 0.02848 0.05458 -0.18205
v 0.02865 0.05572 -0.22779
v 0.02873 0.04102 -0.39676
v 0.02890 0.04084 -0.47672
v 0.02902 -0.01655 -0.22866
v 0.02927 0.04795 -0.05358
v 0.02962 0.01969 -0.54232
v 0.02973 0.03436 -0.51085
v 0.02973 -0.02703 -0.30836
v 0.02981 -0.00930 -0.17235
v 0.02989 -0.03655 -0.40827
v 0.03001 -0.04114 -0.45194
v 0.03007 -0.02775 -0.53167
v 0.03036 -0.02324 -0.28864
v 0.03052 -0.00358 -0.11912
v 0.03062 -0.00529 -0.09435
v 0.03075 0.04203 -0.45353
v 0.03096 -0.04022 -0.47806
v 0.03116 0.05400 -0.09959
v 0.03138 0.00088 -0.01751
v 0.03177 -0.02302 -0.27464
v 0.03182 -0.01558 -0.03723
v 0.03204 -0.02545 -0.54027
v 0.03214 0.04422 -0.34949
v 0.03217 0.04404 -0.44438
v 0.03219 -0.03332 -0.35559
v 0.03245 0.04226 -0.47019
v 0.03271 0.03926 -0.02426
v 0.03275 -0.03325 -0.52135
v 0.03282 -0.00573 -0.08780
v 0.03283 -0.01264 -0.20121
v 0.03294 -0.03688 -0.39030
v 0.03302 0.01617 -0.01493
v 0.03322 -0.03783 -0.46058
v 0.03333 -0.00386 -0.10573
v 0.03333 0.05178 -0.10489
v 0.03342 0.05076 -0.26527
v 0.03352 -0.03124 -0.34362
v 0.03360 -0.01533 -0.21290
v 0.03371 -0.02766 -0.32215
v 0.03382 0.04261 -0.38749
v 0.03386 0.04324 -0.33935
v 0.03396 -0.00731 -0.05306
v 0.03399 0.05313 -0.13651
v 0.03403 0.05651 -0.19097
v 0.03405 -0.03354 -0.37836
v 0.03470 -0.01909 -0.26152
v 0.03487 0.04605 -0.06921
v 0.03491 -0.01977 -0.25142
v 0.03504 0.04205 -0.40995
v 0.03506 0.03313 -0.01824
v 0.03530 -0.03599 -0.41763
v 0.03537 0.05227 -0.24980
v 0.03577 -0.00243 -0.55335
v 0.03587 0.05386 -0.16289
v 0.03592 -0.03783 -0.44701
v 0.03599 0.02828 -0.52681
v 0.03611 0.03236 -0.49756
v 0.03615 0.04439 -0.30801
v 0.03620 0.00784 -0.54776
v 0.03637 -0.03020 -0.33529
v 0.03639 -0.01929 -0.54382
v 0.03651 0.02896 -0.51638
v 0.03660 -0.00631 -0.06684
v 0.03706 0.04950 -0.08954
v 0.03710 -0.03508 -0.47539
v 0.03717 0.04295 -0.05312
v 0.03720 0.02113 -0.53861
v 0.03736 -0.00532 -0.13365
v 0.03737 -0.01213 -0.03506
v 0.03813 -0.00895 -0.55032
v 0.03910 0.04565 -0.30307
v 0.03910 -0.03084 -0.50360
v 0.03929 0.04226 -0.36883
v 0.03929 -0.01731 -0.24777
v 0.03946 0.04369 -0.33784
v 0.03968 -0.03336 -0.42869
v 0.03979 0.04301 -0.40362
v 0.03979 -0.01672 -0.23352
v 0.03981 0.03458 -0.48931
v 0.04002 0.05415 -0.18379
v 0.04040 -0.01952 -0.52924
v 0.04063 0.03781 -0.03794
v 0.04068 -0.03286 -0.48487
v 0.04129 0.04261 -0.35357
v 0.04130 0.05110 -0.19224
v 0.04131 -0.01002 -0.17726
v 0.04133 -0.02780 -0.51433
v 0.04175 0.02064 -0.52528
v 0.04210 -0.02616 -0.34865
v 0.04228 0.05087 -0.20234
v 0.04236 0.00011 -0.08445
v 0.04241 -0.03161 -0.44346
v 0.04255 -0.02882 -0.49346
v 0.04271 0.04284 -0.32400
v 0.04296 0.00711 -0.54093
v 0.04312 -0.00733 -0.03568
v 0.04318 0.02823 -0.02082
v 0.04338 -0.00682 -0.15721
v 0.04358 0.04340 -0.36092
v 0.04398 -0.01510 -0.24049
v 0.04412 -0.02712 -0.49818
v 0.04412 -0.00076 -0.10367
v 0.04452 -0.00246 -0.12431
v 0.04468 0.04831 -0.25854
v 0.04473 0.05140 -0.24196
v 0.04482 0.00346 -0.53604
v 0.04486 0.03572 -0.47032
v 0.04493 0.05094 -0.16596
v 0.04496 0.03709 -0.45483
v 0.04497 0.03333 -0.04338
v 0.04528 0.02065 -0.49951
v 0.04534 0.02387 -0.02151
v 0.04552 -0.01882 -0.28110
v 0.04579 -0.00500 -0.14161
v 0.04628 -0.01911 -0.49734
v 0.04635 0.03932 -0.44560
v 0.04635 -0.02678 -0.36722
v 0.04639 0.04320 -0.28979
v 0.04650 0.03171 -0.48345
v 0.04665 0.02152 -0.02181
v 0.04666 -0.02689 -0.48268
v 0.04677 0.02122 -0.02204
v 0.04692 0.02118 -0.02203
v 0.04702 -0.01723 -0.51292
v 0.04718 -0.00892 -0.18849
v 0.04725 -0.00679 -0.14922
v 0.04734 0.00995 -0.52505
v 0.04757 0.01638 -0.51411
v 0.04783 0.03894 -0.07617
v 0.04809 -0.00182 -0.11328
v 0.04810 0.04772 -0.11775
v 0.04815 -0.02399 -0.46355
v 0.04818 0.00425 -0.04517
v 0.04820 -0.02597 -0.47096
v 0.04826 0.05176 -0.14827
v 0.04846 0.03613 -0.06169
v 0.04852 -0.01134 -0.22164
v 0.04853 0.04742 -0.17096
v 0.04872 0.01818 -0.02283
v 0.04887 -0.02484 -0.37844
v 0.04888 -0.02572 -0.41783
v 0.04895 -0.02493 -0.39292
v 0.04900 0.03956 -0.39012
v 0.04900 0.03956 -0.39012
v 0.04906 -0.00010 -0.03058
v 0.04908 0.03753 -0.42676
v 0.04919 0.01546 -0.02259
v 0.04925 -0.01517 -0.25366
v 0.04951 0.00063 -0.02930
v 0.04955 0.00080 -0.02927
v 0.04956 0.00145 -0.02847
v 0.04967 0.00059 -0.02896
v 0.04973 0.00088 -0.02864
v 0.04975 0.00103 -0.02832
v 0.04980 0.00126 -0.02855
v 0.04981 -0.00709 -0.17308
v 0.04991 -0.00941 -0.20252
v 0.04998 0.00171 -0.02866
v 0.05002 0.01029 -0.02404
v 0.05004 0.04889 -0.15654
v 0.05005 0.00283 -0.02789
v 0.05014 0.04783 -0.19031
v 0.05043 -0.02386 -0.45319
v 0.05050 -0.00941 -0.50544
v 0.05052 0.00772 -0.06006
v 0.05056 0.04304 -0.31889
v 0.05065 0.00727 -0.02574
v 0.05065 -0.01717 -0.46258
v 0.05078 0.00524 -0.02657
v 0.05078 0.03888 -0.38941
v 0.05080 0.01324 -0.02482
v 0.05081 0.00419 -0.02857
v 0.05085 0.01323 -0.02480
v 0.05086 0.04098 -0.36274
v 0.05094 0.00516 -0.02647
v 0.05118 0.02612 -0.05350
v 0.05129 0.00979 -0.02516
v 0.05132 0.01124 -0.02481
v 0.05134 0.00974 -0.02512
v 0.05139 -0.01248 -0.48761
v 0.05142 0.00823 -0.08671
v 0.05145 0.00855 -0.02607
v 0.05146 -0.01447 -0.24351
v 0.05148 0.04802 -0.13702
v 0.05156 0.00002 -0.13240
v 0.05162 0.03768 -0.40292
v 0.05165 0.04041 -0.09045
v 0.05192 -0.01804 -0.31705
v 0.05197 0.00194 -0.50928
v 0.05198 -0.00313 -0.15951
v 0.05203 -0.02438 -0.39990
v 0.05219 0.01114 -0.02915
v 0.05227 0.02713 -0.06420
v 0.05235 0.02741 -0.47441
v 0.05241 -0.01669 -0.26563
v 0.05243 0.04527 -0.26310
v 0.05251 0.00630 -0.09795
v 0.05251 0.01597 -0.49401
v 0.05255 0.02738 -0.48942
v 0.05256 0.04426 -0.12550
v 0.05273 0.00607 -0.11009
v 0.05275 -0.01731 -0.45026
v 0.05280 -0.02379 -0.35599
v 0.05299 -0.01033 -0.21070
v 0.05306 0.01673 -0.05907
v 0.05319 -0.01895 -0.29233
v 0.05323 -0.01384 -0.28416
v 0.05329 -0.01216 -0.23702
v 0.05331 -0.02116 -0.32980
v 0.05335 0.01944 -0.04393
v 0.05343 0.04283 -0.11580
v 0.05345 0.04335 -0.28270
v 0.05363 0.01244 -0.50215
v 0.05367 0.04903 -0.14492
v 0.05398 -0.01840 -0.34692
v 0.05433 0.04530 -0.24819
v 0.05472 -0.01087 -0.47606
v 0.05522 0.02989 -0.45263
v 0.05530 0.03553 -0.09023
v 0.05553 0.03044 -0.43070
v 0.05594 -0.00827 -0.23471
v 0.05606 -0.01490 -0.41519
v 0.05627 0.00774 -0.48897
v 0.05636 0.00722 -0.12637
v 0.05677 0.01862 -0.07461
v 0.05681 0.02589 -0.07699
v 0.05684 -0.01685 -0.36264
v 0.05696 0.03629 -0.37291
v 0.05701 0.00372 -0.15234
v 0.05702 -0.01158 -0.45153
v 0.05721 0.02488 -0.08550
v 0.05726 0.04752 -0.19791
v 0.05739 -0.01392 -0.29886
v 0.05747 0.03969 -0.13174
v 0.05762 0.03733 -0.32501
v 0.05766 0.04424 -0.19026
v 0.05828 0.01910 -0.46335
v 0.05829 -0.00409 -0.45355
v 0.05838 0.03312 -0.41345
v 0.05841 0.04485 -0.20384
v 0.05853 0.04172 -0.15006
v 0.05853 0.04127 -0.27219
v 0.05863 0.02139 -0.09444
v 0.05878 -0.01291 -0.33930
v 0.05896 -0.01255 -0.32540
v 0.05898 0.04627 -0.23706
v 0.05899 0.04297 -0.16849
v 0.05901 -0.01155 -0.43214
v 0.05908 0.00881 -0.47592
v 0.05909 0.02991 -0.12158
v 0.05909 -0.00475 -0.21705
v 0.05958 -0.00923 -0.27790
v 0.05977 0.00529 -0.46421
v 0.05980 0.00678 -0.14144
v 0.05985 0.03801 -0.28776
v 0.05991 0.00487 -0.16670
v 0.05996 0.02335 -0.12080
v 0.06000 0.02435 -0.10611
v 0.06026 -0.00497 -0.44042
v 0.06030 0.00895 -0.15491
v 0.06056 -0.01194 -0.38520
v 0.06061 0.02669 -0.44049
v 0.06101 0.00047 -0.20684
v 0.06112 0.01742 -0.13531
v 0.06135 -0.00967 -0.41584
v 0.06158 0.03969 -0.16100
v 0.06166 0.01681 -0.44793
v 0.06197 0.02287 -0.12829
v 0.06216 0.00559 -0.44597
v 0.06221 0.00475 -0.19045
v 0.06227 0.02419 -0.42691
v 0.06263 -0.01185 -0.36960
v 0.06278 0.04261 -0.23666
v 0.06288 0.00702 -0.45776
v 0.06291 -0.00749 -0.39649
v 0.06307 0.02057 -0.44296
v 0.06313 -0.00466 -0.25690
v 0.06314 0.02809 -0.38412
v 0.06336 0.03056 -0.13629
v 0.06386 0.00746 -0.17892
v 0.06394 -0.00773 -0.40789
v 0.06414 0.03504 -0.17982
v 0.06418 0.03042 -0.14932
v 0.06420 0.02336 -0.14014
v 0.06434 0.02492 -0.15084
v 0.06491 0.02910 -0.37185
v 0.06493 0.00184 -0.23275
v 0.06507 -0.00263 -0.26940
v 0.06516 0.00386 -0.40951
v 0.06517 0.01459 -0.42451
v 0.06555 0.03534 -0.23052
v 0.06560 -0.00502 -0.31950
v 0.06564 -0.00625 -0.35729
v 0.06575 0.02846 -0.35137
v 0.06595 0.00263 -0.21819
v 0.06618 0.02377 -0.17395
v 0.06660 -0.00632 -0.33100
v 0.06679 -0.00470 -0.31073
v 0.06679 -0.00438 -0.28994
v 0.06680 0.02133 -0.39702
v 0.06688 0.00009 -0.24474
v 0.06710 0.03148 -0.20461
v 0.06710 0.03167 -0.27482
v 0.06749 -0.00145 -0.30146
v 0.06764 0.03198 -0.19281
v 0.06765 0.03163 -0.24569
v 0.06805 0.01873 -0.37955
v 0.06816 0.02163 -0.20148
v 0.06847 0.02739 -0.28639
v 0.06858 0.02531 -0.32707
v 0.06872 0.02726 -0.30788
v 0.06895 0.00074 -0.35640
v 0.06903 0.00506 -0.27833
v 0.06928 0.02429 -0.18767
v 0.06956 0.02209 -0.21344
v 0.06972 0.01854 -0.22992
v 0.07041 0.00967 -0.37083
v 0.07103 0.00787 -0.26160
v 0.07109 0.01095 -0.34596
v 0.07135 0.01764 -0.28610
v 0.07138 0.01840 -0.33276
v 0.07153 0.01433 -0.31188
v 0.07188 0.01694 -0.24764
v 0.07198 0.01788 -0.26105
v 0.07203 0.01085 -0.33460
v 0.07240 0.01425 -0.29923
v 0.07311 0.02413 -0.29476
v 0.07328 0.01124 -0.26732
vn -0.9252 -0.3770 0.0431
vn -0.9366 0.3472 -0.0465
vn -0.3300 -0.0900 -0.9397
vn -0.9233 -0.3700 0.1034
vn -0.7737 -0.5908 0.2286
vn -0.7594 0.6440 -0.0928
vn -0.8878 0.4602 -0.0091
vn -0.2984 0.8843 -0.3591
vn -0.9893 -0.0082 0.1454
vn -0.2972 -0.9547 -0.0104
vn -0.8991 0.4376 -0.0113
vn -0.9522 0.2566 -0.1657
vn -0.8784 0.3664 -0.3070
vn -0.3691 0.9082 -0.1974
vn -0.8991 -0.4264 0.0993
vn -0.0686 0.9363 -0.3444
vn 0.1797 0.7204 -0.6699
vn -0.4111 -0.9089 0.0701
vn -0.9922 0.1110 -0.0565
vn -0.9856 -0.0418 0.1640
vn -0.8781 -0.4372 0.1946
vn -0.9707 0.2058 -0.1241
vn -0.7138 -0.7004 0.0015
vn -0.9893 -0.0205 0.1444
vn -0.9551 0.2849 0.0808
vn -0.9317 0.3476 0.1055
vn -0.9720 0.1765 -0.1552
vn 0.1428 0.9508 -0.2748
vn -0.8765 0.4690 -0.1086
vn -0.6611 0.6623 -0.3526
vn -0.8065 -0.5800 0.1149
vn -0.9131 -0.3551 0.2006
vn -0.9646 0.1536 -0.2145
vn -0.9401 -0.0005 -0.3409
vn -0.9875 0.0540 0.1480
vn -0.9989 0.0434 -0.0200
vn 0.1599 0.7095 -0.6863
vn -0.9092 0.3411 0.2388
vn -0.9483 0.1542 -0.2773
vn -0.9736 -0.0887 0.2106
vn -0.8761 -0.4815 0.0249
vn -0.7985 -0.5869 0.1340
vn -0.7227 -0.2468 -0.6456
vn -0.9895 -0.0479 0.1365
vn -0.8267 -0.0057 -0.5626
vn -0.8869 0.4358 0.1532
vn -0.7764 -0.0364 -0.6291
vn -0.4717 -0.8816 0.0158
vn -0.4796 0.3509 -0.8043
vn -0.8411 -0.0702 -0.5364
vn -0.4883 -0.8585 -0.1567
vn -0.9267 -0.3737 -0.0404
vn -0.8335 0.0318 -0.5515
vn -0.9336 0.0231 0.3575
vn -0.7565 0.6460 0.1020
vn -0.9011 -0.3805 0.2080
vn -0.9857 -0.0518 0.1601
vn -0.6453 -0.7626 0.0454
vn -0.3392 0.9376 -0.0762
vn 0.0631 0.9366 -0.3447
vn -0.8399 0.5415 0.0369
vn -0.8783 0.4654 0.1091
vn -0.9665 0.0199 0.2560
vn -0.3415 0.6843 -0.6443
vn -0.8257 0.1335 -0.5481
vn -0.8478 0.0945 -0.5219
vn -0.6797 0.7289 0.0822
vn -0.9719 -0.1461 -0.1843
vn -0.2975 -0.9536 -0.0460
vn -0.8119 0.0444 -0.5822
vn -0.9379 0.1775 0.2980
vn -0.8825 0.0003 -0.4702
vn -0.7359 -0.6649 0.1281
vn -0.9866 0.0090 -0.1631
vn -0.6708 -0.7093 -0.2165
vn -0.5914 -0.7149 -0.3730
vn -0.5506 -0.5269 -0.6475
vn -0.6592 0.7512 0.0340
vn -0.8850 -0.2928 -0.3620
vn -0.9310 -0.3161 0.1824
vn -0.9827 -0.0562 0.1764
vn -0.7706 0.6157 -0.1646
vn -0.6982 0.6985 -0.1566
vn -0.2472 -0.9655 0.0820
vn -0.9647 0.2337 0.1210
vn -0.9782 0.1868 0.0912
vn -0.9553 -0.2126 0.2056
vn -0.8962 0.4404 0.0537
vn -0.7008 0.0062 -0.7133
vn -0.8811 0.4311 -0.1943
vn -0.9516 -0.2234 -0.2113
vn -0.8899 0.4555 -0.0249
vn -0.4166 -0.8830 -0.2164
vn -0.8151 0.5792 -0.0146
vn -0.8812 -0.3652 0.3001
vn -0.5071 -0.3863 -0.7704
vn -0.4637 0.3053 -0.8318
vn -0.9623 -0.2187 0.1619
vn -0.5434 0.3343 -0.7700
vn -0.6164 0.7278 -0.3007
vn -0.4931 0.3100 -0.8129
vn -0.4915 -0.8575 0.1519
vn -0.4851 -0.0113 -0.8744
vn -0.9078 0.4131 0.0719
vn -0.7124 -0.3934 -0.5812
vn -0.4652 -0.2556 -0.8475
vn -0.9979 -0.0020 0.0643
vn 0.0184 0.9834 -0.1805
vn -0.5078 0.5083 -0.6956
vn -0.5614 0.5565 -0.6124
vn -0.8193 0.3588 -0.4472
vn -0.7331 0.0193 -0.6799
vn -0.7987 -0.5678 0.1990
vn -0.7516 -0.2255 0.6199
vn -0.5730 0.7569 -0.3142
vn -0.9967 -0.0115 0.0807
vn -0.8837 0.0225 -0.4675
vn -0.4465 0.2903 -0.8463
vn -0.9013 -0.4015 0.1628
vn -0.5882 0.7265 -0.3554
vn -0.4817 0.7730 -0.4128
vn -0.3160 -0.4023 -0.8592
vn -0.6047 0.7965 -0.0074
vn -0.7622 -0.6140 0.2052
vn -0.6697 -0.0456 -0.7413
vn -0.5539 0.5024 0.6640
vn -0.6068 0.7773 -0.1660
vn -0.4539 0.4094 -0.7914
vn -0.7748 -0.5896 0.2283
vn -0.4938 0.7130 -0.4978
vn -0.5599 0.7425 -0.3678
vn -0.9374 0.3415 0.0681
vn -0.4333 -0.2632 -0.8620
vn 0.0010 -0.8331 0.5531
vn -0.8520 -0.3089 0.4228
vn -0.7264 -0.3727 -0.5774
vn -0.9457 -0.1498 0.2886
vn -0.3446 -0.3408 -0.8747
vn -0.3802 -0.5868 -0.7149
vn -0.9953 -0.0005 0.0970
vn -0.9410 -0.3260 0.0904
vn 0.1005 -0.2981 -0.9492
vn -0.7852 -0.6107 -0.1024
vn -0.5372 0.8428 -0.0321
vn -0.9141 0.4036 0.0403
vn -0.5366 0.7432 -0.3998
vn -0.9090 -0.3624 0.2056
vn -0.4158 0.3840 -0.8244
vn -0.8112 -0.5609 0.1654
vn -0.9829 0.1827 0.0237
vn -0.8894 -0.1282 0.4389
vn -0.2979 -0.9542 -0.0278
vn -0.9446 -0.3068 0.1167
vn -0.3864 -0.3354 -0.8592
vn -0.8522 -0.5142 0.0970
vn -0.6697 -0.5609 -0.4867
vn -0.6204 0.7840 -0.0215
vn -0.4024 0.5139 -0.7577
vn -0.4447 0.5758 -0.6860
vn -0.2919 -0.4036 -0.8671
vn -0.9304 0.3642 0.0421
vn -0.7700 -0.4933 0.4046
vn -0.3303 0.4052 -0.8525
vn -0.9972 0.0419 0.0612
vn -0.5277 0.7774 -0.3424
vn -0.4884 -0.4013 -0.7748
vn -0.3254 0.4075 -0.8532
vn -0.9430 -0.3159 0.1050
vn -0.8006 -0.5855 0.1272
vn -0.3677 0.4242 -0.8276
vn -0.3099 0.2631 -0.9136
vn -0.4392 0.3601 0.8231
vn -0.9027 -0.3950 0.1704
vn -0.9978 0.0296 0.0594
vn -0.9706 0.2402 0.0168
vn -0.6743 -0.3651 0.6419
vn -0.1688 -0.9843 -0.0511
vn -0.5556 0.8155 -0.1623
vn -0.5094 -0.8447 0.1646
vn -0.2813 -0.9579 0.0577
vn -0.1022 -0.9913 -0.0834
vn -0.6506 0.7594 -0.0003
vn -0.9693 -0.2377 0.0638
vn -0.7971 -0.5452 -0.2597
vn -0.7058 -0.6568 0.2657
vn -0.4254 0.8038 -0.4159
vn -0.7563 -0.3533 -0.5506
vn -0.4350 -0.1927 0.8796
vn -0.7311 0.6484 -0.2124
vn -0.9427 0.3259 0.0719
vn -0.9024 0.4275 -0.0547
vn -0.5464 0.8362 -0.0476
vn -0.6844 0.7287 -0.0237
vn -0.5003 0.8585 -0.1127
vn -0.4360 0.8999 0.0058
vn -0.3127 -0.9274 -0.2054
vn -0.6521 0.7580 0.0126
vn -0.4907 -0.8510 0.1871
vn -0.9749 0.2126 0.0668
vn -0.2919 -0.9541 0.0671
vn -0.9640 -0.2430 0.1082
vn -0.9069 -0.0661 -0.4161
vn -0.4567 0.1486 -0.8771
vn -0.6912 -0.6984 0.1858
vn -0.8625 -0.4896 0.1278
vn -0.5346 -0.0207 -0.8448
vn -0.6761 -0.6284 0.3847
vn -0.7521 -0.3601 -0.5520
vn -0.7049 -0.6788 0.2059
vn -0.6466 0.7623 0.0282
vn -0.9098 0.4097 0.0667
vn -0.7038 -0.7003 0.1194
vn -0.5264 0.8470 0.0734
vn -0.4634 0.8850 -0.0449
vn -0.8159 -0.5695 0.0996
vn -0.9879 -0.1237 0.0935
vn -0.8985 -0.4233 0.1163
vn -0.9214 0.3882 0.0161
vn -0.6841 0.6999 -0.2053
vn -0.0788 0.6345 -0.7689
vn -0.8540 -0.4992 0.1464
vn -0.8817 0.4716 0.0128
vn -0.8050 -0.5778 0.1345
vn -0.2655 -0.9631 0.0432
vn -0.8310 0.5562 -0.0117
vn -0.9925 0.1094 0.0543
vn -0.8220 -0.5545 0.1301
vn -0.9255 -0.2746 -0.2608
vn -0.9094 -0.3970 0.1243
vn -0.8846 -0.4572 0.0919
vn -0.9486 0.3126 0.0503
vn -0.0241 -0.9760 -0.2164
vn -0.4814 -0.2606 -0.8368
vn -0.7016 0.7059 -0.0971
vn -0.7499 -0.4216 -0.5098
vn -0.6161 -0.7674 0.1776
vn -0.3341 -0.4578 0.8239
vn -0.3194 0.8701 0.3753
vn -0.9099 0.0561 -0.4109
vn -0.7068 0.7057 -0.0485
vn -0.9918 0.0970 -0.0835
vn -0.4578 0.8872 -0.0581
vn -0.8598 0.5106 -0.0034
vn -0.3417 -0.6433 -0.6851
vn -0.6102 -0.7679 0.1951
vn -0.9428 0.3196 0.0946
vn -0.9546 -0.2812 0.0985
vn -0.9953 0.0009 0.0965
vn -0.5061 0.8622 -0.0211
vn -0.6878 0.7216 -0.0789
vn -0.7464 -0.4685 -0.4726
vn -0.6530 -0.7402 0.1603
vn -0.8888 -0.4471 0.1005
vn -0.5867 0.8085 -0.0458
vn -0.9800 -0.1883 -0.0647
vn -0.7665 -0.4362 -0.4713
vn -0.1824 0.7919 -0.5827
vn -0.6476 0.7609 0.0414
vn -0.9085 0.4057 -0.1000
vn -0.8825 -0.4200 -0.2117
vn -0.1743 -0.9812 0.0823
vn -0.6990 -0.6944 0.1707
vn -0.8235 0.5673 0.0093
vn -0.7226 0.6908 -0.0246
vn -0.9760 -0.1973 0.0924
vn -0.3345 0.9293 -0.1565
vn -0.2671 0.9630 -0.0358
vn -0.9250 -0.3471 0.1548
vn -0.9993 0.0080 0.0373
vn -0.9931 0.1022 -0.0568
vn -0.9580 0.2849 0.0330
vn -0.9541 -0.2963 0.0440
vn -0.2469 0.4542 0.8560
vn -0.7891 0.6137 0.0251
vn -0.8810 -0.4726 -0.0215
vn -0.1649 -0.9859 -0.0280
vn -0.5057 -0.7169 0.4799
vn -0.6898 0.7238 -0.0198
vn -0.2506 -0.9547 0.1608
vn 0.0741 -0.9972 0.0028
vn -0.0733 -0.9717 -0.2247
vn -0.4084 -0.8877 0.2128
vn -0.4427 0.8954 0.0482
vn -0.1053 0.9938 -0.0344
vn -0.7110 -0.6921 0.1245
vn -0.5395 -0.8323 0.1270
vn -0.8756 -0.4738 0.0934
vn -0.7850 0.6110 0.1018
vn -0.5922 -0.7191 0.3636
vn -0.6797 -0.7030 0.2094
vn -0.4421 0.8929 0.0854
vn -0.8385 -0.1623 -0.5201
vn -0.4901 0.8677 -0.0834
vn -0.6499 0.7586 -0.0474
vn -0.5494 -0.8028 -0.2317
vn -0.9388 -0.3385 0.0634
vn -0.7987 -0.5919 0.1079
vn -0.4253 -0.8853 0.1884
vn -0.3971 -0.1039 -0.9119
vn -0.5629 -0.5396 -0.6261
vn -0.0450 -0.9936 -0.1039
vn -0.5226 -0.7454 -0.4139
vn -0.3395 -0.5381 -0.7715
vn -0.2171 0.9757 0.0289
vn -0.8697 0.4870 0.0806
vn -0.5479 -0.7365 -0.3967
vn -0.5500 -0.7655 -0.3340
vn -0.1372 -0.9896 0.0432
vn -0.2088 0.0361 0.9773
vn -0.9512 -0.3036 -0.0543
vn -0.7871 0.6167 0.0151
vn -0.8898 -0.2938 -0.3492
vn -0.4815 0.8760 -0.0260
vn -0.7673 -0.6274 0.1327
vn -0.5674 -0.8097 0.1497
vn -0.2095 -0.9468 -0.2442
vn -0.0248 0.9697 -0.2430
vn -0.5889 -0.7952 0.1443
vn -0.6708 -0.7331 0.1123
vn -0.3551 -0.9296 -0.0988
vn -0.8660 -0.4942 -0.0757
vn -0.0323 0.6369 0.7703
vn -0.6769 0.7342 -0.0530
vn -0.3791 0.9116 -0.1591
vn -0.0445 -0.9974 0.0566
vn -0.0919 -0.9924 0.0821
vn -0.1990 -0.9799 0.0136
vn -0.6734 -0.5790 -0.4597
vn -0.1795 0.9753 -0.1286
vn -0.3475 0.9353 -0.0676
vn -0.4547 0.8887 -0.0584
vn -0.3253 -0.9296 0.1731
vn -0.8322 -0.5425 0.1141
vn -0.9166 -0.1546 -0.3686
vn -0.5398 -0.8356 0.1018
vn -0.8615 -0.5074 -0.0159
vn -0.3816 0.9243 -0.0024
vn -0.3620 -0.9266 -0.1020
vn -0.2533 -0.6871 0.6810
vn -0.7140 -0.6842 0.1487
vn -0.4060 0.9134 -0.0297
vn -0.0851 -0.9917 -0.0959
vn -0.1646 0.2929 -0.9419
vn -0.3243 0.9458 0.0179
vn -0.4006 0.9160 0.0238
vn -0.0841 0.3686 -0.9258
vn -0.2799 0.2408 -0.9293
vn -0.8747 -0.4790 -0.0736
vn -0.9521 -0.2684 -0.1467
vn -0.4109 0.9105 0.0461
vn -0.9731 -0.2084 0.0984
vn -0.4074 0.9121 -0.0451
vn -0.3095 0.9507 -0.0180
vn -0.4748 -0.8730 0.1112
vn -0.4315 0.9018 -0.0252
vn -0.8615 -0.3181 -0.3959
vn 0.1136 0.6943 -0.7106
vn -0.9177 -0.3842 -0.1010
vn -0.2251 0.9742 -0.0152
vn -0.5343 0.8430 0.0627
vn 0.1758 -0.9270 -0.3312
vn -0.5799 -0.8080 0.1039
vn -0.0763 0.3671 0.9271
vn -0.6607 -0.7447 0.0944
vn 0.2778 -0.9602 -0.0270
vn -0.4042 -0.9011 0.1569
vn -0.2448 -0.6640 -0.7065
vn -0.5958 -0.7394 -0.3137
vn -0.9976 0.0687 -0.0133
vn -0.4678 -0.8763 0.1152
vn -0.3368 0.9416 0.0015
vn -0.3312 0.9410 -0.0694
vn -0.7663 -0.6404 -0.0516
vn -0.3978 -0.9059 0.1450
vn -0.5902 -0.7997 0.1102
vn -0.9210 -0.3713 -0.1177
vn -0.4762 -0.8722 0.1119
vn -0.4894 -0.8548 0.1724
vn 0.1253 0.9772 0.1714
vn -0.4888 -0.1093 -0.8655
vn -0.1103 0.9905 0.0827
vn -0.1658 -0.9786 0.1216
vn -0.5237 -0.8079 -0.2701
vn 0.2987 -0.9489 -0.1022
vn -0.4624 -0.8745 0.1465
vn -0.0740 -0.9928 0.0943
vn -0.3817 0.9227 -0.0535
vn 0.2293 -0.9694 -0.0875
vn -0.0215 -0.9391 0.3429
vn -0.4031 0.9152 0.0050
vn -0.2983 -0.8972 0.3256
vn -0.3720 -0.9085 -0.1904
vn 0.2182 -0.7278 0.6501
vn 0.1456 0.5808 0.8009
vn -0.0961 -0.2573 0.9615
vn -0.1168 0.9922 -0.0430
vn -0.0015 -0.6133 -0.7898
vn -0.1370 -0.9366 -0.3225
vn 0.1307 -0.9671 -0.2183
vn -0.5009 -0.8097 -0.3058
vn 0.0301 -0.9990 0.0328
vn 0.0910 -0.9852 0.1450
vn 0.0399 0.9962 0.0776
vn -0.0131 -0.9998 0.0169
vn 0.1083 0.9880 -0.1098
vn 0.0846 -0.9915 0.0985
vn -0.3155 0.9488 -0.0178
vn -0.2649 0.9529 -0.1478
vn -0.5089 -0.8550 0.1000
vn -0.5047 -0.8313 0.2329
vn -0.2524 -0.0535 -0.9661
vn -0.0029 0.0299 -0.9995
vn -0.2235 -0.2354 -0.9459
vn 0.1528 -0.2416 -0.9583
vn 0.7121 -0.3698 -0.5968
vn 0.4214 -0.8910 -0.1689
vn -0.0154 -0.9978 0.0638
vn 0.1884 -0.9820 -0.0153
vn 0.3221 0.0797 -0.9433
vn -0.3198 0.9475 0.0031
vn -0.2372 0.9710 0.0297
vn 0.1174 0.1302 0.9845
vn -0.0826 0.9956 -0.0447
vn 0.0801 0.6489 -0.7567
vn -0.1108 0.9894 -0.0944
vn 0.1359 -0.9899 -0.0399
vn -0.3629 -0.9159 0.1714
vn 0.0238 -0.5898 0.8072
vn 0.1415 0.2758 -0.9507
vn 0.2424 -0.9652 0.0981
vn -0.1923 -0.9434 -0.2702
vn 0.0504 0.9971 -0.0576
vn 0.3187 0.5532 -0.7697
vn -0.3705 -0.9222 0.1110
vn 0.2823 -0.7975 0.5331
vn 0.1817 0.6793 -0.7110
vn -0.2331 0.9708 0.0572
vn -0.0982 0.9946 -0.0339
vn -0.0989 0.9941 -0.0453
vn 0.1997 -0.9419 -0.2700
vn 0.2809 0.4124 -0.8666
vn -0.1796 0.9831 0.0362
vn -0.3176 -0.9420 0.1086
vn -0.0292 0.9986 -0.0441
vn -0.0349 0.9988 -0.0346
vn -0.3656 -0.9198 0.1424
vn 0.2799 -0.9420 -0.1850
vn -0.0577 -0.9829 0.1747
vn 0.1176 0.9674 -0.2242
vn -0.4015 -0.9032 0.1520
vn 0.2090 -0.9360 -0.2832
vn -0.1524 0.9883 0.0022
vn 0.2920 0.8078 0.5121
vn -0.0705 0.9940 -0.0838
vn 0.0553 -0.9895 0.1338
vn 0.1772 -0.9842 -0.0010
vn 0.0333 0.4030 -0.9146
vn 0.0876 0.9900 0.1106
vn 0.3453 -0.9286 0.1355
vn -0.0721 -0.9883 0.1342
vn 0.1307 0.3794 -0.9160
vn 0.2525 0.9528 -0.1684
vn 0.4454 -0.8132 0.3745
vn -0.1304 0.9914 -0.0062
vn 0.3726 -0.9183 0.1339
vn 0.1165 -0.9832 0.1405
vn -0.0015 0.9931 -0.1171
vn -0.1676 -0.9328 -0.3191
vn -0.0762 0.9961 -0.0454
vn 0.5527 -0.7780 -0.2987
vn -0.2279 -0.9650 0.1298
vn -0.5552 -0.8317 -0.0008
vn 0.1110 0.9826 -0.1491
vn 0.6581 -0.5276 -0.5373
vn 0.3617 -0.9208 -0.1461
vn -0.3040 -0.9417 0.1443
vn 0.4565 -0.8873 -0.0661
vn 0.0898 0.9951 0.0418
vn -0.3492 -0.9286 0.1255
vn 0.1545 0.9848 -0.0800
vn 0.1529 -0.9882 -0.0069
vn -0.2195 -0.9700 0.1042
vn 0.0266 0.9815 -0.1897
vn 0.0935 0.9955 -0.0153
vn 0.3453 -0.5612 0.7522
vn 0.4012 -0.9143 -0.0566
vn 0.2144 0.9656 0.1470
vn 0.3944 0.0624 -0.9168
vn 0.1708 0.9848 0.0327
vn -0.2878 -0.9514 0.1092
vn 0.1697 -0.9816 0.0879
vn 0.6362 -0.2585 -0.7269
vn 0.1451 0.4664 -0.8726
vn -0.2344 -0.9653 0.1148
vn 0.3298 -0.9234 -0.1965
vn 0.2359 -0.2095 0.9489
vn 0.1601 0.4433 0.8820
vn 0.4765 -0.8773 -0.0575
vn 0.0217 0.9989 -0.0414
vn 0.0795 0.9946 0.0661
vn 0.2261 0.9741 -0.0018
vn -0.0164 0.9995 -0.0253
vn 0.2884 0.9459 -0.1488
vn 0.0235 -0.9919 0.1252
vn 0.1555 0.9811 0.1148
vn 0.1172 0.5344 -0.8371
vn 0.3527 0.9253 -0.1391
vn 0.0991 -0.9833 0.1527
vn -0.2829 -0.9542 0.0974
vn 0.4587 -0.8881 0.0289
vn 0.3271 -0.9408 -0.0892
vn 0.3941 -0.8828 -0.2556
vn 0.0032 -0.9927 0.1210
vn -0.1132 -0.9936 0.0045
vn -0.1342 -0.9778 -0.1608
vn 0.0975 0.9911 -0.0905
vn 0.4594 -0.8882 0.0043
vn 0.1596 0.9814 0.1067
vn 0.3595 -0.6203 0.6971
vn 0.0915 -0.9867 0.1341
vn 0.5563 -0.8221 -0.1210
vn 0.6078 -0.7622 -0.2230
vn 0.0597 0.9970 -0.0499
vn 0.0552 0.9985 -0.0033
vn 0.3371 -0.9396 0.0596
vn 0.2345 0.9695 -0.0718
vn 0.4299 0.8514 0.3006
vn 0.4272 -0.8076 -0.4065
vn 0.3772 -0.9222 -0.0849
vn -0.0801 -0.9904 0.1124
vn 0.4631 -0.8832 0.0746
vn 0.3587 0.0240 0.9332
vn 0.4317 -0.9014 -0.0331
vn 0.1803 -0.9836 -0.0108
vn 0.3694 0.9247 0.0917
vn 0.2390 0.9611 -0.1386
vn 0.3031 -0.9485 0.0921
vn -0.0123 -0.9895 0.1442
vn 0.3520 -0.9289 0.1155
vn -0.0810 0.9946 -0.0649
vn 0.1425 0.9898 -0.0056
vn 0.6479 -0.7486 -0.1409
vn 0.1710 0.9827 0.0714
vn 0.2492 0.9678 -0.0339
vn 0.4040 -0.9123 0.0663
vn 0.0904 -0.9851 0.1460
vn 0.4355 0.8897 0.1373
vn -0.0540 -0.9968 0.0594
vn 0.1335 0.9910 0.0102
vn 0.3434 0.2948 0.8918
vn 0.4526 -0.8906 0.0439
vn 0.2360 0.9643 -0.1201
vn 0.3997 0.2978 -0.8669
vn 0.1777 0.9837 -0.0261
vn 0.6008 -0.7988 0.0305
vn 0.5813 0.7537 -0.3068
vn 0.5410 0.8073 -0.2356
vn 0.1595 0.9848 -0.0690
vn 0.4929 0.4397 -0.7508
vn 0.2237 -0.9651 0.1361
vn 0.8547 -0.4062 -0.3233
vn 0.6098 0.7835 -0.1195
vn 0.5836 -0.8115 -0.0304
vn 0.3898 0.9077 0.1551
vn 0.6569 -0.7539 0.0024
vn 0.5615 0.8133 0.1528
vn 0.5915 0.6063 -0.5315
vn 0.0045 -0.9920 0.1262
vn 0.4564 -0.7696 0.4465
vn 0.7795 -0.2611 -0.5694
vn 0.2132 0.9756 -0.0530
vn 0.6958 -0.7174 -0.0355
vn 0.2216 0.9745 -0.0344
vn 0.2317 -0.9676 0.1000
vn 0.2004 0.9795 -0.0206
vn 0.4747 -0.8789 0.0467
vn 0.1622 0.9859 -0.0404
vn 0.2205 -0.9649 0.1427
vn 0.4253 0.8484 -0.3151
vn 0.3641 0.9312 0.0155
vn 0.8402 -0.4440 -0.3114
vn 0.5986 0.7762 0.1982
vn 0.5818 -0.8024 -0.1328
vn 0.1233 0.9922 -0.0168
vn 0.4753 0.8745 -0.0966
vn 0.1226 -0.9875 0.0990
vn 0.7511 -0.6303 -0.1964
vn 0.8194 0.5352 -0.2054
vn 0.4860 -0.8714 0.0664
vn 0.3186 0.9477 -0.0181
vn 0.6389 -0.7691 0.0162
vn 0.7352 -0.6778 -0.0130
vn 0.6012 -0.7853 -0.1478
vn 0.2352 0.9663 -0.1046
vn 0.8535 0.2840 -0.4369
vn 0.7159 -0.6419 -0.2749
vn 0.7105 0.4645 0.5286
vn 0.1651 -0.9798 0.1130
vn 0.1301 0.9907 -0.0401
vn 0.2575 -0.9631 0.0778
vn 0.8798 -0.4240 -0.2147
vn 0.5031 -0.8599 0.0867
vn 0.3107 -0.9475 0.0755
vn 0.2876 0.9515 -0.1097
vn 0.2520 0.9607 -0.1169
vn 0.9416 -0.1890 -0.2786
vn 0.5034 0.8508 -0.1511
vn 0.4402 0.8955 -0.0661
vn 0.4514 0.8866 -0.1008
vn 0.8154 0.5465 0.1913
vn 0.7048 0.6472 -0.2904
vn 0.5038 0.1274 0.8543
vn 0.3011 -0.9486 0.0978
vn 0.5137 -0.8442 0.1533
vn 0.8933 -0.4292 -0.1331
vn 0.4559 0.8878 -0.0630
vn 0.4624 -0.8855 0.0448
vn 0.2624 0.9619 -0.0765
vn 0.6272 0.7673 -0.1334
vn 0.5657 0.1450 0.8118
vn 0.9079 -0.4043 -0.1107
vn 0.8360 0.3445 0.4272
vn 0.6441 0.2140 0.7344
vn 0.9236 -0.3217 -0.2087
vn 0.6256 -0.7757 0.0831
vn 0.2709 -0.9579 0.0955
vn 0.9283 0.2696 -0.2561
vn 0.8635 0.4544 -0.2190
vn 0.5838 0.7970 0.1549
vn 0.5307 -0.8434 0.0842
vn 0.3859 0.9179 0.0927
vn 0.7621 -0.6461 -0.0415
vn 0.8518 -0.5046 -0.1404
vn 0.6681 -0.7412 0.0647
vn 0.2713 0.9617 0.0395
vn 0.7878 0.5821 0.2011
vn 0.3601 -0.9289 0.0865
vn 0.4913 0.8710 0.0051
vn 0.8791 0.4284 0.2089
vn 0.7231 -0.6898 -0.0365
vn 0.7513 -0.6575 -0.0573
vn 0.6509 -0.7585 0.0314
vn 0.3224 0.9464 0.0193
vn 0.3984 0.9167 -0.0298
vn 0.7037 -0.6051 0.3724
vn 0.4868 0.8729 -0.0322
vn 0.4555 0.0071 0.8902
vn 0.5424 -0.8352 0.0906
vn -0.9413 -0.0641 0.3313
vn 0.6980 0.0007 -0.7161
vn 0.8890 -0.4427 -0.1167
vn 0.7302 -0.6771 0.0915
vn 0.8756 -0.3405 0.3425
vn -0.2583 -0.3398 0.9043
vn 0.8690 -0.3706 0.3278
vn 0.6109 -0.7886 0.0696
vn 0.3553 -0.9218 0.1553
vn 0.9687 -0.0116 -0.2479
vn 0.4464 -0.2127 0.8692
vn 0.5955 0.7997 -0.0766
vn -0.3515 -0.4271 0.8331
vn 0.4093 0.9106 0.0572
vn 0.8506 -0.5250 -0.0302
vn 0.9437 -0.3139 -0.1042
vn 0.7933 -0.6085 0.0200
vn 0.4521 0.8903 -0.0540
vn 0.4546 -0.4964 0.7395
vn 0.8828 -0.4621 -0.0839
vn 0.8522 -0.3261 0.4092
vn 0.3659 0.9306 0.0076
vn 0.9219 0.2163 0.3214
vn 0.9684 -0.2436 -0.0529
vn 0.8793 0.2142 0.4254
vn 0.4877 0.8725 -0.0292
vn 0.8363 -0.3443 0.4267
vn 0.9257 0.3563 0.1271
vn 0.6358 -0.2971 0.7124
vn 0.9328 0.0540 0.3563
vn 0.6786 -0.2605 0.6867
vn 0.9365 -0.3255 -0.1303
vn 0.8462 -0.5294 0.0610
vn 0.9717 -0.1605 0.1732
vn 0.5672 -0.8214 0.0603
vn 0.4409 0.8842 0.1543
vn 0.6395 -0.7572 0.1327
vn 0.5073 0.8596 -0.0618
vn 0.5535 0.8212 0.1385
vn 0.5971 -0.8015 0.0328
vn 0.9719 -0.0933 -0.2163
vn 0.6482 -0.7571 0.0821
vn 0.6401 -0.7662 0.0571
vn 0.9924 -0.1219 -0.0157
vn 0.9487 0.2203 0.2268
vn 0.8006 0.5910 -0.0985
vn 0.4498 -0.8885 0.0912
vn 0.5982 0.8008 -0.0299
vn 0.8452 -0.5301 0.0683
vn 0.8338 0.3919 -0.3889
vn 0.8491 0.4392 -0.2937
vn 0.8201 0.5577 0.1284
vn 0.8734 -0.4666 0.1394
vn 0.8056 -0.5914 -0.0351
vn 0.6209 -0.7795 0.0835
vn 0.4744 -0.8741 0.1042
vn 0.9932 -0.0086 0.1162
vn 0.4293 -0.8992 0.0841
vn 0.6343 -0.7686 0.0833
vn 0.4306 -0.8899 0.1509
vn 0.5640 -0.8228 0.0700
vn 0.9903 0.1011 0.0953
vn 0.7692 0.6309 0.1014
vn 0.4227 0.8979 -0.1229
vn 0.9001 0.3704 -0.2293
vn 0.7291 0.6836 0.0332
vn 0.6984 -0.7148 0.0360
vn 0.5108 0.8382 -0.1911
vn 0.9382 -0.3178 -0.1371
vn 0.7713 0.6112 -0.1775
vn 0.9020 0.4148 0.1194
vn 0.7064 0.6996 -0.1077
vn 0.6818 -0.7240 0.1044
vn 0.7918 -0.6065 -0.0720
vn 0.9766 -0.0802 -0.1996
vn 0.8638 -0.4766 0.1635
vn 0.9698 -0.2280 0.0863
vn 0.9363 0.2881 0.2006
vn 0.7585 -0.6516 0.0048
vn 0.5349 0.8413 -0.0778
vn 0.7313 -0.6763 0.0884
vn 0.7737 -0.6261 -0.0970
vn 0.9914 -0.1219 0.0470
vn 0.3777 0.9255 0.0273
vn 0.7248 -0.6879 0.0384
vn 0.8451 0.5076 0.1678
vn 0.5677 0.8227 -0.0293
vn 0.6670 0.7426 0.0597
vn 0.9378 0.3172 -0.1412
vn 0.9568 -0.2671 -0.1147
vn 0.7319 0.6769 -0.0782
vn 0.7008 0.7132 0.0134
vn 0.8055 0.5894 0.0608
vn 0.5503 0.8337 -0.0471
vn 0.9736 -0.1808 0.1396
vn 0.7451 -0.6669 0.0085
vn 0.7295 -0.6769 0.0983
vn 0.4256 0.9047 0.0192
vn 0.6214 0.7834 -0.0134
vn 0.9557 -0.2807 -0.0882
vn 0.9878 0.0391 -0.1509
vn 0.9286 0.3376 0.1543
vn 0.6791 -0.7329 0.0417
vn 0.6720 -0.7402 0.0228
vn 0.9766 -0.1555 -0.1489
vn 0.8775 -0.4686 0.1023
vn 0.6245 0.7791 -0.0540
vn 0.7705 -0.6288 0.1044
vn 0.9560 -0.2740 0.1054
vn 0.9959 0.0741 0.0514
vn 0.9664 -0.2309 -0.1127
vn 0.9443 -0.3137 0.0992
vn 0.7315 -0.6804 -0.0447
vn 0.7830 0.6205 -0.0425
vn 0.8095 -0.5610 0.1735
vn 0.9636 -0.2453 0.1067
vn 0.8557 -0.5097 -0.0892
vn 0.8846 0.4620 0.0632
vn 0.9742 0.1641 -0.1547
vn 0.9706 -0.1457 0.1917
vn 0.9853 -0.1598 -0.0606
vn 0.8363 -0.5477 0.0249
vn 0.8789 0.4664 -0.0996
vn 0.8879 -0.4583 -0.0411
vn 0.7961 0.5777 -0.1802
vn 0.9875 -0.0368 -0.1531
vn 0.9135 -0.4050 -0.0389
vn 0.9474 0.2505 -0.1991
vn 0.7160 -0.6978 0.0219
vn 0.7682 0.6378 -0.0559
vn 0.9596 0.2156 0.1809
vn 0.9191 -0.3802 0.1033
vn 0.8638 -0.5034 -0.0209
vn 0.9143 0.4022 0.0469
vn 0.9535 0.2936 0.0676
vn 0.9875 -0.1134 0.1098
vn 0.9722 -0.2143 0.0945
vn 0.8824 0.4691 -0.0369
vn 0.8582 -0.5095 0.0623
vn 0.7914 -0.6065 0.0762
vn 0.9736 -0.2024 -0.1053
vn 0.9947 -0.0256 -0.0993
vn 0.9146 0.4034 0.0292
vn 0.8459 -0.5321 0.0351
vn 0.8623 -0.5063 -0.0098
vn 0.8063 0.5898 -0.0440
vn 0.9313 -0.3489 0.1044
vn 0.9923 0.0290 0.1208
vn 0.8852 -0.4647 0.0188
vn 0.8569 -0.5148 -0.0270
vn 0.8363 -0.5458 0.0518
vn 0.9383 0.3383 -0.0722
vn 0.8843 -0.4514 0.1199
vn 0.9296 0.3685 -0.0069
vn 0.8663 0.4975 -0.0452
vn 0.8827 -0.4699 0.0070
vn 0.8745 0.4796 0.0722
vn 0.8649 0.5016 -0.0171
vn 0.9383 0.3441 -0.0358
vn 0.9665 -0.2423 0.0849
vn 0.8691 0.4945 0.0148
vn 0.8540 0.5198 -0.0230
vn 0.7741 0.6300 -0.0624
vn 0.9553 -0.2953 -0.0109
vn 0.9536 -0.3009 0.0049
vn 0.9889 -0.1442 0.0369
vn 0.9985 0.0438 0.0319
vn 0.9972 -0.0370 0.0655
vn 0.9921 -0.1050 -0.0683
vn 0.9266 -0.3718 0.0566
vn 0.9987 0.0198 -0.0477
vn 0.9990 -0.0214 0.0399
vn 0.9643 0.2589 -0.0560
vn 0.9977 -0.0652 -0.0185
vn 0.9952 -0.0344 0.0912
vn 0.9753 0.2209 0.0030
vn 0.9819 -0.1894 0.0059
vn 0.9759 -0.2178 0.0159
vn 0.9639 0.2661 -0.0130
vn 0.9993 -0.0135 -0.0344
f 238//238 126//126 172//172
f 79//79 71//71 117//117
f 117//117 71//71 92//92
f 453//453 527//527 394//394
f 394//394 527//527 379//379
f 422//422 497//497 394//394
f 422//422 394//394 363//363
f 550//550 597//597 527//527
f 597//597 647//647 612//612
f 532//532 597//597 550//550
f 647//647 597//597 532//532
f 487//487 527//527 582//582
f 519//519 659//659 496//496
f 496//496 532//532 422//422
f 422//422 309//309 395//395
f 339//339 428//428 237//237
f 428//428 496//496 395//395
f 322//322 379//379 273//273
f 322//322 394//394 379//379
f 363//363 322//322 273//273
f 178//178 214//214 189//189
f 219//219 189//189 304//304
f 304//304 487//487 403//403
f 403//403 337//337 304//304
f 250//250 219//219 337//337
f 309//309 172//172 188//188
f 237//237 309//309 188//188
f 237//237 188//188 176//176
f 188//188 114//114 176//176
f 237//237 207//207 228//228
f 207//207 237//237 176//176
f 202//202 117//117 189//189
f 135//135 114//114 95//95
f 176//176 114//114 135//135
f 136//136 160//160 122//122
f 103//103 95//95 136//136
f 160//160 136//136 208//208
f 235//235 208//208 136//136
f 292//292 228//228 208//208
f 235//235 256//256 312//312
f 260//260 256//256 202//202
f 358//358 356//356 235//235
f 710//710 639//639 692//692
f 692//692 678//678 682//682
f 661//661 651//651 654//654
f 566//566 487//487 582//582
f 566//566 582//582 610//610
f 636//636 676//676 693//693
f 667//667 659//659 519//519
f 645//645 667//667 519//519
f 596//596 633//633 645//645
f 596//596 645//645 569//569
f 542//542 569//569 521//521
f 633//633 596//596 542//542
f 710//710 692//692 633//633
f 647//647 639//639 623//623
f 647//647 623//623 622//622
f 563//563 477//477 495//495
f 344//344 337//337 403//403
f 381//381 505//505 458//458
f 566//566 629//629 547//547
f 458//458 547//547 564//564
f 334//334 356//356 369//369
f 358//358 235//235 312//312
f 351//351 369//369 358//358
f 349//349 351//351 376//376
f 636//636 693//693 726//726
f 725//725 693//693 705//705
f 636//636 719//719 629//629
f 547//547 687//687 564//564
f 719//719 731//731 743//743
f 535//535 687//687 711//711
f 495//495 591//591 563//563
f 591//591 495//495 529//529
f 468//468 529//529 495//495
f 529//529 468//468 515//515
f 743//743 681//681 697//697
f 591//591 529//529 602//602
f 514//514 534//534 515//515
f 534//534 529//529 515//515
f 665//665 591//591 681//681
f 239//239 219//219 250//250
f 294//294 390//390 323//323
f 270//270 255//255 259//259
f 270//270 259//259 323//323
f 321//321 260//260 275//275
f 358//358 272//272 351//351
f 321//321 275//275 272//272
f 272//272 270//270 310//310
f 535//535 458//458 518//518
f 458//458 535//535 442//442
f 489//489 535//535 631//631
f 442//442 535//535 489//489
f 420//420 442//442 489//489
f 420//420 489//489 543//543
f 390//390 458//458 442//442
f 472//472 392//392 348//348
f 310//310 296//296 336//336
f 310//310 269//269 296//296
f 373//373 310//310 336//336
f 472//472 514//514 392//392
f 373//373 296//296 333//333
f 311//311 270//270 323//323
f 269//269 270//270 311//311
f 311//311 420//420 360//360
f 296//296 269//269 265//265
f 265//265 248//248 268//268
f 757//757 758//758 697//697
f 687//687 719//719 711//711
f 711//711 719//719 758//758
f 711//711 758//758 750//750
f 768//768 750//750 757//757
f 779//779 734//734 750//750
f 697//697 758//758 743//743
f 630//630 534//534 603//603
f 757//757 701//701 724//724
f 764//764 768//768 724//724
f 724//724 603//603 685//685
f 701//701 602//602 630//630
f 630//630 603//603 724//724
f 754//754 724//724 685//685
f 700//700 631//631 711//711
f 684//684 631//631 700//700
f 684//684 700//700 734//734
f 741//741 714//714 734//734
f 614//614 603//603 568//568
f 437//437 420//420 543//543
f 350//350 360//360 437//437
f 305//305 246//246 248//248
f 246//246 305//305 288//288
f 543//543 635//635 478//478
f 340//340 333//333 268//268
f 287//287 268//268 248//248
f 226//226 247//247 248//248
f 287//287 364//364 375//375
f 364//364 287//287 297//297
f 734//734 779//779 783//783
f 741//741 734//734 783//783
f 714//714 741//741 660//660
f 635//635 714//714 660//660
f 796//796 783//783 785//785
f 741//741 766//766 747//747
f 782//782 747//747 766//766
f 796//796 785//785 780//780
f 754//754 729//729 760//760
f 729//729 685//685 614//614
f 729//729 614//614 626//626
f 614//614 568//568 626//626
f 494//494 626//626 568//568
f 598//598 626//626 494//494
f 586//586 598//598 482//482
f 729//729 756//756 760//760
f 756//756 729//729 690//690
f 586//586 656//656 598//598
f 635//635 660//660 608//608
f 580//580 500//500 554//554
f 544//544 500//500 580//580
f 747//747 736//736 638//638
f 590//590 544//544 585//585
f 580//580 662//662 585//585
f 660//660 747//747 608//608
f 764//764 760//760 785//785
f 288//288 305//305 350//350
f 274//274 246//246 288//288
f 274//274 345//345 263//263
f 464//464 500//500 544//544
f 341//341 464//464 484//484
f 387//387 341//341 484//484
f 297//297 247//247 253//253
f 247//247 226//226 216//216
f 216//216 226//226 231//231
f 253//253 247//247 216//216
f 264//264 231//231 263//263
f 387//387 264//264 341//341
f 263//263 341//341 264//264
f 756//756 656//656 780//780
f 770//770 780//780 656//656
f 814//814 780//780 770//770
f 590//590 662//662 732//732
f 740//740 805//805 802//802
f 590//590 740//740 746//746
f 746//746 740//740 791//791
f 751//751 763//763 704//704
f 815//815 808//808 795//795
f 791//791 815//815 816//816
f 806//806 791//791 816//816
f 751//751 795//795 763//763
f 751//751 637//637 721//721
f 751//751 721//721 787//787
f 801//801 816//816 787//787
f 795//795 751//751 787//787
f 484//484 464//464 590//590
f 469//469 387//387 484//484
f 469//469 484//484 501//501
f 387//387 469//469 352//352
f 258//258 387//387 352//352
f 243//243 387//387 258//258
f 352//352 469//469 454//454
f 352//352 454//454 408//408
f 258//258 352//352 240//240
f 201//201 174//174 230//230
f 773//773 746//746 791//791
f 605//605 746//746 716//716
f 552//552 469//469 605//605
f 605//605 716//716 552//552
f 552//552 716//716 536//536
f 483//483 552//552 536//536
f 604//604 716//716 696//696
f 536//536 604//604 742//742
f 483//483 536//536 480//480
f 536//536 742//742 712//712
f 536//536 716//716 604//604
f 240//240 218//218 258//258
f 625//625 656//656 586//586
f 758//758 719//719 743//743
f 360//360 420//420 437//437
f 392//392 514//514 515//515
f 338//338 398//398 393//393
f 277//277 228//228 251//251
f 334//334 251//251 228//228
f 303//303 338//338 295//295
f 302//302 277//277 328//328
f 295//295 338//338 277//277
f 521//521 485//485 470//470
f 470//470 463//463 440//440
f 368//368 338//338 328//328
f 542//542 521//521 470//470
f 451//451 470//470 440//440
f 451//451 440//440 398//398
f 400//400 368//368 349//349
f 431//431 368//368 400//400
f 495//495 477//477 431//431
f 495//495 431//431 400//400
f 431//431 451//451 368//368
f 364//364 494//494 375//375
f 586//586 482//482 509//509
f 362//362 509//509 482//482
f 370//370 490//490 362//362
f 370//370 530//530 490//490
f 362//362 364//364 297//297
f 314//314 362//362 297//297
f 229//229 314//314 253//253
f 530//530 586//586 490//490
f 657//657 625//625 586//586
f 704//704 657//657 538//538
f 704//704 538//538 637//637
f 637//637 538//538 504//504
f 366//366 530//530 370//370
f 285//285 319//319 409//409
f 319//319 434//434 409//409
f 578//578 637//637 504//504
f 548//548 574//574 504//504
f 443//443 548//548 434//434
f 683//683 600//600 648//648
f 546//546 574//574 548//548
f 546//546 548//548 443//443
f 262//262 319//319 221//221
f 262//262 335//335 319//319
f 315//315 262//262 227//227
f 520//520 443//443 446//446
f 374//374 446//446 315//315
f 222//222 218//218 240//240
f 480//480 425//425 407//407
f 425//425 242//242 407//407
f 293//293 407//407 242//242
f 242//242 425//425 324//324
f 190//190 175//175 183//183
f 164//164 183//183 175//175
f 191//191 254//254 211//211
f 153//153 164//164 150//150
f 293//293 352//352 408//408
f 240//240 352//352 293//293
f 222//222 240//240 293//293
f 221//221 230//230 183//183
f 315//315 227//227 217//217
f 217//217 153//153 223//223
f 824//824 803//803 806//806
f 828//828 803//803 824//824
f 809//809 828//828 820//820
f 809//809 803//803 828//828
f 823//823 801//801 818//818
f 824//824 823//823 818//818
f 818//818 828//828 824//824
f 828//828 818//818 788//788
f 813//813 828//828 788//788
f 818//818 777//777 788//788
f 820//820 828//828 813//813
f 799//799 788//788 752//752
f 712//712 618//618 536//536
f 712//712 803//803 755//755
f 712//712 742//742 803//803
f 827//827 809//809 820//820
f 820//820 813//813 826//826
f 827//827 820//820 826//826
f 804//804 826//826 799//799
f 799//799 813//813 788//788
f 799//799 707//707 733//733
f 813//813 799//799 826//826
f 755//755 809//809 811//811
f 811//811 809//809 827//827
f 822//822 811//811 827//827
f 666//666 811//811 735//735
f 798//798 826//826 804//804
f 825//825 821//821 822//822
f 825//825 822//822 797//797
f 819//819 825//825 797//797
f 797//797 793//793 819//819
f 822//822 792//792 797//797
f 648//648 777//777 683//683
f 574//574 546//546 695//695
f 707//707 752//752 695//695
f 695//695 613//613 707//707
f 706//706 613//613 508//508
f 706//706 707//707 613//613
f 476//476 508//508 513//513
f 427//427 508//508 476//476
f 733//733 707//707 706//706
f 688//688 733//733 706//706
f 706//706 508//508 539//539
f 792//792 688//688 745//745
f 797//797 792//792 745//745
f 560//560 709//709 539//539
f 745//745 744//744 797//797
f 744//744 745//745 709//709
f 425//425 571//571 467//467
f 467//467 324//324 425//425
f 324//324 467//467 353//353
f 571//571 558//558 467//467
f 558//558 571//571 666//666
f 467//467 575//575 445//445
f 558//558 575//575 467//467
f 193//193 254//254 355//355
f 193//193 211//211 254//254
f 211//211 193//193 161//161
f 355//355 254//254 353//353
f 666//666 735//735 594//594
f 558//558 594//594 575//575
f 575//575 594//594 735//735
f 735//735 794//794 674//674
f 584//584 575//575 674//674
f 372//372 432//432 523//523
f 234//234 355//355 372//372
f 197//197 145//145 210//210
f 372//372 444//444 396//396
f 197//197 372//372 313//313
f 132//132 197//197 182//182
f 132//132 182//182 157//157
f 104//104 132//132 157//157
f 810//810 821//821 794//794
f 674//674 794//794 786//786
f 728//728 674//674 786//786
f 819//819 794//794 821//821
f 793//793 812//812 819//819
f 817//817 786//786 819//819
f 674//674 728//728 573//573
f 599//599 674//674 573//573
f 444//444 499//499 540//540
f 499//499 573//573 540//540
f 817//817 819//819 812//812
f 817//817 812//812 793//793
f 807//807 786//786 817//817
f 772//772 817//817 793//793
f 686//686 728//728 778//778
f 728//728 686//686 670//670
f 644//644 643//643 686//686
f 643//643 644//644 577//577
f 739//739 800//800 771//771
f 778//778 807//807 800//800
f 817//817 800//800 807//807
f 789//789 817//817 775//775
f 790//790 817//817 789//789
f 396//396 502//502 439//439
f 157//157 313//313 331//331
f 192//192 104//104 157//157
f 144//144 94//94 104//104
f 249//249 331//331 330//330
f 249//249 192//192 331//331
f 502//502 540//540 577//577
f 549//549 686//686 646//646
f 421//421 330//330 439//439
f 421//421 249//249 330//330
f 283//283 249//249 421//421
f 213//213 249//249 283//283
f 213//213 123//123 249//249
f 283//283 421//421 371//371
f 371//371 421//421 423//423
f 523//523 584//584 573//573
f 55//55 123//123 213//213
f 790//790 771//771 800//800
f 790//790 789//789 748//748
f 769//769 790//790 748//748
f 739//739 771//771 720//720
f 762//762 646//646 720//720
f 616//616 646//646 762//762
f 609//609 616//616 718//718
f 720//720 771//771 762//762
f 767//767 718//718 776//776
f 759//759 769//769 748//748
f 524//524 616//616 516//516
f 516//516 616//616 609//609
f 423//423 524//524 516//516
f 526//526 609//609 607//607
f 516//516 609//609 526//526
f 438//438 423//423 516//516
f 438//438 516//516 526//526
f 438//438 526//526 503//503
f 718//718 767//767 737//737
f 767//767 774//774 737//737
f 753//753 737//737 774//774
f 738//738 753//753 774//774
f 753//753 749//749 737//737
f 717//717 749//749 753//753
f 607//607 718//718 619//619
f 699//699 737//737 749//749
f 699//699 619//619 694//694
f 579//579 699//699 611//611
f 713//713 723//723 689//689
f 698//698 713//713 611//611
f 689//689 628//628 713//713
f 213//213 371//371 291//291
f 359//359 371//371 438//438
f 291//291 371//371 359//359
f 213//213 291//291 195//195
f 438//438 503//503 449//449
f 267//267 438//438 329//329
f 194//194 329//329 284//284
f 195//195 267//267 329//329
f 503//503 579//579 449//449
f 579//579 557//557 449//449
f 449//449 557//557 473//473
f 284//284 473//473 405//405
f 562//562 557//557 611//611
f 507//507 562//562 405//405
f 90//90 83//83 194//194
f 127//127 90//90 194//194
f 266//266 405//405 317//317
f 127//127 266//266 257//257
f 257//257 186//186 127//127
f 317//317 436//436 257//257
f 127//127 194//194 266//266
f 713//713 628//628 611//611
f 628//628 588//588 611//611
f 462//462 562//562 556//556
f 606//606 627//627 689//689
f 627//627 606//606 595//595
f 559//559 567//567 595//595
f 357//357 424//424 433//433
f 357//357 220//220 424//424
f 506//506 567//567 559//559
f 436//436 424//424 257//257
f 789//789 775//775 781//781
f 286//286 374//374 315//315
f 286//286 315//315 223//223
f 286//286 223//223 215//215
f 223//223 153//153 215//215
f 377//377 508//508 427//427
f 168//168 150//150 140//140
f 153//153 168//168 215//215
f 140//140 107//107 168//168
f 215//215 168//168 205//205
f 168//168 107//107 141//141
f 205//205 168//168 141//141
f 205//205 141//141 212//212
f 539//539 508//508 471//471
f 212//212 354//354 377//377
f 537//537 560//560 448//448
f 537//537 448//448 460//460
f 354//354 212//212 245//245
f 236//236 245//245 173//173
f 236//236 385//385 410//410
f 204//204 385//385 236//236
f 107//107 116//116 141//141
f 141//141 116//116 173//173
f 116//116 132//132 81//81
f 81//81 132//132 86//86
f 98//98 81//81 86//86
f 236//236 173//173 149//149
f 149//149 204//204 236//236
f 709//709 537//537 589//589
f 703//703 715//715 589//589
f 537//537 525//525 589//589
f 715//715 793//793 797//797
f 772//772 793//793 727//727
f 793//793 715//715 727//727
f 703//703 589//589 617//617
f 525//525 537//537 460//460
f 466//466 525//525 460//460
f 466//466 391//391 389//389
f 460//460 385//385 466//466
f 289//289 385//385 204//204
f 332//332 389//389 391//391
f 332//332 391//391 289//289
f 531//531 545//545 466//466
f 455//455 531//531 466//466
f 382//382 332//332 298//298
f 298//298 332//332 318//318
f 382//382 455//455 332//332
f 772//772 727//727 761//761
f 761//761 727//727 640//640
f 727//727 703//703 640//640
f 640//640 703//703 617//617
f 642//642 640//640 617//617
f 761//761 775//775 772//772
f 642//642 617//617 545//545
f 642//642 761//761 640//640
f 775//775 761//761 642//642
f 781//781 642//642 691//691
f 545//545 531//531 642//642
f 510//510 531//531 481//481
f 290//290 289//289 204//204
f 290//290 204//204 209//209
f 318//318 290//290 209//209
f 129//129 209//209 204//204
f 298//298 318//318 185//185
f 129//129 185//185 209//209
f 185//185 129//129 80//80
f 185//185 282//282 298//298
f 179//179 282//282 185//185
f 44//44 104//104 35//35
f 119//119 44//44 80//80
f 129//129 119//119 80//80
f 104//104 94//94 62//62
f 62//62 94//94 123//123
f 80//80 56//56 113//113
f 320//320 386//386 282//282
f 320//320 327//327 386//386
f 576//576 418//418 459//459
f 430//430 386//386 418//418
f 326//326 417//417 327//327
f 459//459 418//418 417//417
f 200//200 326//326 198//198
f 73//73 180//180 102//102
f 200//200 198//198 124//124
f 709//709 560//560 537//537
f 25//25 62//62 55//55
f 19//19 24//24 26//26
f 20//20 24//24 19//19
f 32//32 24//24 20//20
f 42//42 124//124 32//32
f 20//20 21//21 32//32
f 20//20 9//9 21//21
f 9//9 13//13 12//12
f 702//702 765//765 722//722
f 702//702 722//722 641//641
f 748//748 702//702 730//730
f 702//702 641//641 592//592
f 491//491 459//459 417//417
f 404//404 417//417 326//326
f 456//456 491//491 417//417
f 576//576 555//555 592//592
f 555//555 491//491 511//511
f 533//533 511//511 456//456
f 404//404 456//456 417//417
f 325//325 326//326 261//261
f 308//308 325//325 261//261
f 475//475 456//456 406//406
f 426//426 406//406 308//308
f 406//406 404//404 325//325
f 717//717 748//748 730//730
f 632//632 663//663 592//592
f 632//632 555//555 565//565
f 632//632 565//565 634//634
f 680//680 717//717 668//668
f 680//680 723//723 717//717
f 680//680 668//668 621//621
f 615//615 664//664 680//680
f 615//615 621//621 593//593
f 517//517 565//565 533//533
f 475//475 406//406 426//426
f 342//342 426//426 308//308
f 426//426 388//388 475//475
f 634//634 565//565 517//517
f 593//593 583//583 475//475
f 486//486 593//593 475//475
f 572//572 593//593 486//486
f 447//447 486//486 388//388
f 533//533 456//456 517//517
f 723//723 680//680 689//689
f 624//624 664//664 615//615
f 572//572 587//587 624//624
f 601//601 593//593 572//572
f 498//498 572//572 486//486
f 587//587 572//572 498//498
f 498//498 486//486 447//447
f 73//73 42//42 31//31
f 73//73 31//31 48//48
f 48//48 180//180 73//73
f 224//224 308//308 48//48
f 152//152 276//276 224//224
f 27//27 67//67 78//78
f 29//29 67//67 27//27
f 33//33 27//27 78//78
f 27//27 33//33 68//68
f 33//33 83//83 90//90
f 12//12 13//13 30//30
f 11//11 12//12 30//30
f 15//15 12//12 11//11
f 23//23 31//31 15//15
f 30//30 34//34 91//91
f 30//30 64//64 16//16
f 68//68 91//91 34//34
f 23//23 15//15 4//4
f 93//93 51//51 23//23
f 18//18 93//93 23//23
f 4//4 6//6 2//2
f 18//18 4//4 5//5
f 342//342 224//224 276//276
f 447//447 388//388 399//399
f 399//399 301//301 316//316
f 85//85 74//74 90//90
f 46//46 88//88 61//61
f 87//87 68//68 74//74
f 220//220 171//171 148//148
f 203//203 112//112 89//89
f 112//112 72//72 89//89
f 82//82 88//88 127//127
f 111//111 91//91 137//137
f 91//91 68//68 87//87
f 91//91 87//87 137//137
f 57//57 87//87 40//40
f 40//40 72//72 57//57
f 8//8 14//14 28//28
f 8//8 2//2 14//14
f 10//10 5//5 1//1
f 5//5 2//2 1//1
f 28//28 59//59 37//37
f 17//17 8//8 28//28
f 10//10 69//69 18//18
f 39//39 54//54 72//72
f 69//69 43//43 41//41
f 70//70 52//52 39//39
f 72//72 125//125 70//70
f 134//134 181//181 96//96
f 43//43 39//39 41//41
f 16//16 60//60 28//28
f 48//48 23//23 51//51
f 46//46 61//61 53//53
f 148//148 163//163 220//220
f 82//82 127//127 100//100
f 624//624 689//689 664//664
f 581//581 606//606 624//624
f 512//512 528//528 361//361
f 581//581 512//512 522//522
f 357//357 433//433 346//346
f 220//220 357//357 346//346
f 343//343 171//171 346//346
f 347//347 206//206 203//203
f 461//461 346//346 433//433
f 347//347 343//343 457//457
f 343//343 347//347 203//203
f 365//365 280//280 281//281
f 281//281 244//244 233//233
f 206//206 233//233 125//125
f 233//233 96//96 125//125
f 181//181 139//139 233//233
f 367//367 281//281 233//233
f 416//416 384//384 365//365
f 380//380 347//347 419//419
f 367//367 416//416 365//365
f 397//397 367//367 380//380
f 367//367 365//365 281//281
f 365//365 384//384 280//280
f 595//595 606//606 570//570
f 559//559 595//595 553//553
f 561//561 570//570 606//606
f 474//474 570//570 561//561
f 553//553 506//506 559//559
f 488//488 570//570 492//492
f 457//457 488//488 441//441
f 419//419 457//457 429//429
f 488//488 553//553 570//570
f 415//415 492//492 474//474
f 415//415 474//474 416//416
f 415//415 416//416 397//397
f 384//384 361//361 280//280
f 232//232 399//399 316//316
f 36//36 38//38 50//50
f 388//388 342//342 276//276
f 388//388 301//301 399//399
f 482//482 598//598 494//494
f 749//749 717//717 723//723
f 214//214 126//126 238//238
f 92//92 126//126 178//178
f 189//189 92//92 178//178
f 172//172 92//92 71//71
f 71//71 79//79 114//114
f 363//363 309//309 422//422
f 497//497 453//453 394//394
f 527//527 597//597 582//582
f 612//612 623//623 622//622
f 612//612 620//620 623//623
f 550//550 527//527 497//497
f 550//550 497//497 422//422
f 532//532 550//550 422//422
f 532//532 496//496 659//659
f 647//647 532//532 659//659
f 393//393 519//519 428//428
f 496//496 422//422 395//395
f 428//428 395//395 237//237
f 393//393 428//428 339//339
f 238//238 379//379 304//304
f 487//487 304//304 379//379
f 309//309 363//363 273//273
f 309//309 273//273 172//172
f 273//273 238//238 172//172
f 363//363 394//394 322//322
f 214//214 238//238 304//304
f 214//214 304//304 189//189
f 304//304 337//337 219//219
f 188//188 172//172 114//114
f 395//395 309//309 237//237
f 169//169 166//166 156//156
f 162//162 166//166 169//169
f 169//169 156//156 208//208
f 162//162 169//169 176//176
f 156//156 160//160 208//208
f 184//184 166//166 208//208
f 184//184 208//208 207//207
f 176//176 184//184 207//207
f 71//71 114//114 172//172
f 117//117 187//187 136//136
f 235//235 136//136 187//187
f 187//187 117//117 202//202
f 95//95 122//122 135//135
f 79//79 136//136 95//95
f 105//105 103//103 136//136
f 95//95 106//106 105//105
f 143//143 142//142 122//122
f 143//143 122//122 160//160
f 135//135 142//142 143//143
f 135//135 143//143 176//176
f 292//292 235//235 356//356
f 228//228 292//292 334//334
f 334//334 292//292 356//356
f 187//187 202//202 256//256
f 187//187 256//256 235//235
f 147//147 151//151 176//176
f 155//155 147//147 160//160
f 79//79 95//95 114//114
f 639//639 673//673 671//671
f 647//647 673//673 639//639
f 659//659 679//679 678//678
f 678//678 679//679 677//677
f 667//667 675//675 682//682
f 667//667 669//669 675//675
f 682//682 675//675 669//669
f 661//661 653//653 655//655
f 651//651 661//661 650//650
f 658//658 645//645 651//651
f 651//651 649//649 652//652
f 650//650 649//649 651//651
f 652//652 649//649 650//650
f 682//682 672//672 692//692
f 654//654 653//653 661//661
f 597//597 639//639 610//610
f 639//639 710//710 610//610
f 566//566 610//610 636//636
f 710//710 705//705 676//676
f 610//610 676//676 636//636
f 566//566 636//636 629//629
f 693//693 676//676 705//705
f 676//676 610//610 710//710
f 672//672 645//645 692//692
f 645//645 633//633 692//692
f 569//569 645//645 519//519
f 519//519 393//393 569//569
f 521//521 569//569 393//393
f 596//596 569//569 542//542
f 710//710 665//665 705//705
f 710//710 633//633 665//665
f 542//542 477//477 563//563
f 487//487 566//566 505//505
f 505//505 566//566 547//547
f 487//487 381//381 403//403
f 487//487 505//505 381//381
f 369//369 349//349 334//334
f 256//256 260//260 312//312
f 312//312 260//260 321//321
f 358//358 312//312 321//321
f 356//356 358//358 369//369
f 349//349 369//369 351//351
f 726//726 693//693 725//725
f 705//705 665//665 725//725
f 726//726 725//725 731//731
f 665//665 633//633 542//542
f 725//725 665//665 681//681
f 665//665 542//542 591//591
f 542//542 563//563 591//591
f 719//719 636//636 726//726
f 629//629 719//719 687//687
f 629//629 687//687 547//547
f 726//726 731//731 719//719
f 687//687 535//535 564//564
f 383//383 376//376 392//392
f 515//515 468//468 392//392
f 697//697 591//591 602//602
f 681//681 591//591 697//697
f 602//602 529//529 534//534
f 731//731 725//725 681//681
f 610//610 582//582 597//597
f 612//612 639//639 597//597
f 202//202 219//219 239//239
f 239//239 250//250 241//241
f 202//202 239//239 260//260
f 337//337 344//344 278//278
f 403//403 381//381 344//344
f 250//250 337//337 278//278
f 250//250 278//278 241//241
f 260//260 241//241 255//255
f 294//294 278//278 344//344
f 259//259 278//278 294//294
f 255//255 241//241 259//259
f 294//294 344//344 381//381
f 294//294 381//381 390//390
f 259//259 294//294 323//323
f 260//260 255//255 275//275
f 358//358 321//321 272//272
f 376//376 351//351 348//348
f 351//351 272//272 348//348
f 272//272 255//255 270//270
f 458//458 564//564 518//518
f 323//323 390//390 442//442
f 711//711 631//631 535//535
f 376//376 348//348 392//392
f 373//373 348//348 310//310
f 373//373 472//472 348//348
f 373//373 336//336 296//296
f 472//472 373//373 333//333
f 272//272 310//310 348//348
f 323//323 442//442 420//420
f 311//311 323//323 420//420
f 305//305 271//271 311//311
f 311//311 271//271 269//269
f 311//311 360//360 305//305
f 305//305 248//248 271//271
f 269//269 271//271 265//265
f 265//265 268//268 333//333
f 296//296 265//265 333//333
f 265//265 271//271 248//248
f 239//239 241//241 260//260
f 757//757 697//697 701//701
f 700//700 711//711 750//750
f 750//750 758//758 757//757
f 700//700 750//750 734//734
f 779//779 750//750 768//768
f 764//764 779//779 768//768
f 602//602 534//534 630//630
f 603//603 534//534 514//514
f 757//757 724//724 768//768
f 685//685 603//603 614//614
f 724//724 701//701 630//630
f 697//697 602//602 701//701
f 784//784 779//779 764//764
f 724//724 754//754 764//764
f 764//764 754//754 760//760
f 734//734 714//714 684//684
f 543//543 684//684 635//635
f 489//489 631//631 543//543
f 684//684 543//543 631//631
f 514//514 472//472 479//479
f 514//514 479//479 568//568
f 479//479 472//472 340//340
f 472//472 333//333 340//340
f 340//340 375//375 479//479
f 603//603 514//514 568//568
f 494//494 568//568 479//479
f 437//437 543//543 478//478
f 437//437 452//452 350//350
f 305//305 360//360 350//350
f 478//478 635//635 554//554
f 437//437 478//478 452//452
f 478//478 554//554 452//452
f 350//350 452//452 464//464
f 340//340 268//268 287//287
f 340//340 287//287 375//375
f 246//246 226//226 248//248
f 248//248 247//247 287//287
f 287//287 247//247 297//297
f 766//766 741//741 783//783
f 779//779 784//784 783//783
f 785//785 784//784 764//764
f 785//785 783//783 784//784
f 741//741 747//747 660//660
f 760//760 780//780 785//785
f 766//766 783//783 782//782
f 783//783 796//796 782//782
f 754//754 685//685 729//729
f 598//598 690//690 626//626
f 760//760 756//756 780//780
f 729//729 626//626 690//690
f 690//690 598//598 656//656
f 690//690 656//656 756//756
f 554//554 635//635 608//608
f 747//747 638//638 608//608
f 554//554 500//500 452//452
f 500//500 464//464 452//452
f 608//608 580//580 554//554
f 608//608 638//638 580//580
f 638//638 736//736 662//662
f 638//638 662//662 580//580
f 580//580 585//585 544//544
f 288//288 350//350 274//274
f 350//350 345//345 274//274
f 246//246 274//274 226//226
f 350//350 464//464 345//345
f 341//341 345//345 464//464
f 263//263 345//345 341//341
f 226//226 274//274 263//263
f 231//231 226//226 263//263
f 544//544 590//590 464//464
f 253//253 314//314 297//297
f 231//231 264//264 243//243
f 253//253 216//216 229//229
f 216//216 231//231 199//199
f 805//805 796//796 814//814
f 805//805 782//782 796//796
f 814//814 796//796 780//780
f 656//656 625//625 770//770
f 747//747 782//782 736//736
f 782//782 805//805 736//736
f 732//732 736//736 740//740
f 736//736 805//805 740//740
f 585//585 662//662 590//590
f 740//740 590//590 732//732
f 805//805 814//814 802//802
f 808//808 802//802 814//814
f 814//814 770//770 808//808
f 808//808 770//770 763//763
f 770//770 625//625 763//763
f 625//625 657//657 763//763
f 763//763 657//657 704//704
f 802//802 815//815 791//791
f 808//808 763//763 795//795
f 704//704 637//637 751//751
f 816//816 795//795 787//787
f 816//816 801//801 823//823
f 787//787 721//721 801//801
f 815//815 795//795 816//816
f 746//746 484//484 590//590
f 746//746 501//501 484//484
f 501//501 746//746 605//605
f 605//605 469//469 501//501
f 264//264 387//387 243//243
f 469//469 552//552 454//454
f 218//218 243//243 258//258
f 216//216 199//199 201//201
f 229//229 216//216 201//201
f 201//201 199//199 174//174
f 773//773 791//791 806//806
f 746//746 773//773 716//716
f 773//773 806//806 716//716
f 823//823 806//806 816//816
f 716//716 806//806 696//696
f 454//454 483//483 408//408
f 483//483 480//480 408//408
f 696//696 742//742 604//604
f 536//536 618//618 480//480
f 231//231 243//243 199//199
f 564//564 535//535 518//518
f 339//339 277//277 338//338
f 393//393 402//402 435//435
f 402//402 401//401 435//435
f 339//339 338//338 393//393
f 277//277 237//237 228//228
f 277//277 339//339 237//237
f 328//328 251//251 334//334
f 295//295 300//300 303//303
f 251//251 328//328 277//277
f 300//300 277//277 302//302
f 300//300 299//299 277//277
f 307//307 306//306 302//302
f 303//303 307//307 338//338
f 338//338 306//306 328//328
f 307//307 306//306 338//338
f 393//393 435//435 485//485
f 485//485 521//521 393//393
f 465//465 463//463 470//470
f 398//398 338//338 451//451
f 542//542 470//470 451//451
f 451//451 431//431 477//477
f 485//485 465//465 470//470
f 485//485 463//463 465//465
f 435//435 463//463 485//485
f 542//542 451//451 477//477
f 368//368 328//328 334//334
f 334//334 349//349 368//368
f 468//468 495//495 400//400
f 349//349 376//376 383//383
f 468//468 400//400 383//383
f 468//468 383//383 392//392
f 402//402 398//398 440//440
f 494//494 479//479 375//375
f 482//482 494//494 364//364
f 362//362 482//482 364//364
f 586//586 509//509 490//490
f 490//490 509//509 362//362
f 314//314 370//370 362//362
f 370//370 314//314 366//366
f 657//657 586//586 530//530
f 657//657 530//530 538//538
f 721//721 637//637 708//708
f 637//637 578//578 708//708
f 538//538 366//366 378//378
f 378//378 366//366 314//314
f 314//314 229//229 285//285
f 378//378 314//314 285//285
f 450//450 378//378 285//285
f 538//538 378//378 450//450
f 450//450 504//504 538//538
f 504//504 450//450 409//409
f 450//450 285//285 409//409
f 434//434 504//504 409//409
f 434//434 319//319 335//335
f 229//229 201//201 230//230
f 319//319 285//285 230//230
f 319//319 230//230 221//221
f 285//285 229//229 230//230
f 578//578 600//600 708//708
f 574//574 578//578 504//504
f 578//578 574//574 600//600
f 504//504 434//434 548//548
f 434//434 335//335 443//443
f 708//708 600//600 683//683
f 721//721 708//708 683//683
f 648//648 600//600 574//574
f 443//443 520//520 546//546
f 221//221 227//227 262//262
f 335//335 262//262 315//315
f 315//315 443//443 335//335
f 446//446 443//443 315//315
f 174//174 222//222 190//190
f 218//218 222//222 174//174
f 199//199 218//218 174//174
f 230//230 174//174 183//183
f 407//407 293//293 408//408
f 408//408 480//480 407//407
f 480//480 571//571 425//425
f 222//222 293//293 225//225
f 183//183 174//174 190//190
f 293//293 242//242 225//225
f 190//190 222//222 225//225
f 242//242 254//254 225//225
f 254//254 242//242 324//324
f 164//164 175//175 225//225
f 190//190 225//225 175//175
f 191//191 225//225 254//254
f 164//164 225//225 191//191
f 191//191 150//150 164//164
f 150//150 191//191 211//211
f 221//221 183//183 227//227
f 183//183 217//217 227//227
f 217//217 183//183 164//164
f 315//315 217//217 223//223
f 153//153 217//217 164//164
f 824//824 806//806 823//823
f 806//806 803//803 742//742
f 801//801 721//721 777//777
f 818//818 801//801 777//777
f 788//788 777//777 648//648
f 752//752 707//707 799//799
f 788//788 695//695 752//752
f 618//618 571//571 480//480
f 755//755 803//803 809//809
f 618//618 755//755 666//666
f 799//799 733//733 804//804
f 755//755 811//811 666//666
f 811//811 822//822 810//810
f 735//735 811//811 810//810
f 822//822 827//827 826//826
f 822//822 826//826 798//798
f 804//804 733//733 798//798
f 822//822 798//798 792//792
f 798//798 688//688 792//792
f 821//821 810//810 822//822
f 788//788 648//648 695//695
f 648//648 574//574 695//695
f 695//695 546//546 520//520
f 695//695 520//520 613//613
f 613//613 520//520 513//513
f 520//520 446//446 513//513
f 374//374 513//513 446//446
f 513//513 374//374 476//476
f 476//476 286//286 427//427
f 798//798 733//733 688//688
f 688//688 709//709 745//745
f 688//688 706//706 539//539
f 688//688 539//539 709//709
f 467//467 445//445 353//353
f 571//571 618//618 666//666
f 353//353 445//445 355//355
f 211//211 161//161 150//150
f 234//234 193//193 355//355
f 145//145 161//161 234//234
f 210//210 145//145 234//234
f 161//161 193//193 234//234
f 558//558 666//666 594//594
f 575//575 541//541 445//445
f 794//794 735//735 810//810
f 735//735 674//674 575//575
f 445//445 541//541 432//432
f 355//355 445//445 432//432
f 541//541 523//523 432//432
f 432//432 372//372 355//355
f 541//541 575//575 523//523
f 575//575 584//584 523//523
f 523//523 444//444 372//372
f 523//523 499//499 444//444
f 210//210 234//234 372//372
f 210//210 372//372 197//197
f 254//254 324//324 353//353
f 182//182 197//197 313//313
f 197//197 132//132 145//145
f 372//372 396//396 313//313
f 157//157 182//182 313//313
f 786//786 794//794 819//819
f 584//584 599//599 573//573
f 573//573 499//499 523//523
f 728//728 670//670 573//573
f 540//540 573//573 577//577
f 778//778 786//786 807//807
f 772//772 775//775 817//817
f 778//778 739//739 686//686
f 644//644 670//670 643//643
f 644//644 686//686 577//577
f 670//670 686//686 643//643
f 643//643 573//573 644//644
f 739//739 778//778 800//800
f 800//800 817//817 790//790
f 728//728 786//786 778//778
f 444//444 502//502 396//396
f 444//444 540//540 502//502
f 331//331 313//313 396//396
f 439//439 331//331 396//396
f 157//157 331//331 192//192
f 104//104 192//192 144//144
f 249//249 144//144 192//192
f 94//94 144//144 123//123
f 577//577 549//549 502//502
f 577//577 686//686 549//549
f 549//549 421//421 502//502
f 502//502 421//421 439//439
f 686//686 739//739 646//646
f 549//549 646//646 616//616
f 421//421 549//549 524//524
f 123//123 144//144 249//249
f 213//213 283//283 371//371
f 331//331 439//439 330//330
f 765//765 789//789 781//781
f 739//739 720//720 646//646
f 524//524 549//549 616//616
f 762//762 718//718 616//616
f 762//762 771//771 790//790
f 776//776 762//762 790//790
f 776//776 790//790 767//767
f 767//767 790//790 769//769
f 738//738 769//769 759//759
f 421//421 524//524 423//423
f 607//607 503//503 526//526
f 607//607 609//609 718//718
f 767//767 769//769 774//774
f 718//718 737//737 694//694
f 694//694 737//737 699//699
f 718//718 694//694 619//619
f 607//607 579//579 503//503
f 607//607 619//619 579//579
f 723//723 699//699 749//749
f 699//699 723//723 698//698
f 619//619 699//699 579//579
f 699//699 698//698 611//611
f 698//698 723//723 713//713
f 423//423 438//438 371//371
f 267//267 291//291 359//359
f 195//195 291//291 267//267
f 78//78 213//213 195//195
f 359//359 438//438 267//267
f 438//438 449//449 329//329
f 78//78 195//195 83//83
f 195//195 329//329 194//194
f 83//83 195//195 194//194
f 449//449 473//473 329//329
f 284//284 329//329 473//473
f 473//473 557//557 507//507
f 507//507 557//557 562//562
f 266//266 194//194 284//284
f 266//266 284//284 405//405
f 405//405 462//462 317//317
f 266//266 317//317 257//257
f 257//257 220//220 186//186
f 562//562 611//611 588//588
f 556//556 562//562 588//588
f 628//628 689//689 627//627
f 562//562 462//462 405//405
f 588//588 628//628 627//627
f 556//556 588//588 567//567
f 567//567 588//588 595//595
f 595//595 588//588 627//627
f 317//317 462//462 436//436
f 462//462 556//556 436//436
f 424//424 436//436 506//506
f 257//257 424//424 220//220
f 556//556 567//567 436//436
f 567//567 506//506 436//436
f 427//427 286//286 377//377
f 377//377 215//215 252//252
f 476//476 374//374 286//286
f 150//150 168//168 153//153
f 252//252 215//215 205//205
f 252//252 205//205 212//212
f 161//161 107//107 140//140
f 161//161 145//145 107//107
f 150//150 161//161 140//140
f 508//508 377//377 471//471
f 471//471 377//377 354//354
f 539//539 471//471 560//560
f 560//560 471//471 448//448
f 471//471 410//410 448//448
f 471//471 354//354 410//410
f 354//354 245//245 410//410
f 460//460 448//448 410//410
f 212//212 141//141 173//173
f 460//460 410//410 385//385
f 116//116 145//145 132//132
f 116//116 81//81 173//173
f 173//173 81//81 98//98
f 173//173 98//98 149//149
f 149//149 98//98 119//119
f 44//44 98//98 86//86
f 119//119 98//98 44//44
f 119//119 204//204 149//149
f 132//132 104//104 86//86
f 715//715 797//797 744//744
f 715//715 709//709 589//589
f 715//715 703//703 727//727
f 617//617 589//589 525//525
f 391//391 466//466 385//385
f 391//391 385//385 289//289
f 332//332 289//289 290//290
f 318//318 332//332 290//290
f 455//455 466//466 389//389
f 455//455 389//389 332//332
f 775//775 642//642 781//781
f 641//641 781//781 691//691
f 642//642 531//531 510//510
f 531//531 455//455 481//481
f 481//481 455//455 382//382
f 481//481 430//430 510//510
f 481//481 382//382 430//430
f 551//551 510//510 430//430
f 617//617 525//525 545//545
f 204//204 119//119 129//129
f 185//185 318//318 209//209
f 382//382 298//298 282//282
f 86//86 104//104 44//44
f 104//104 62//62 35//35
f 44//44 35//35 80//80
f 35//35 24//24 80//80
f 35//35 62//62 25//25
f 185//185 113//113 179//179
f 56//56 80//80 24//24
f 382//382 282//282 386//386
f 430//430 382//382 386//386
f 386//386 327//327 418//418
f 320//320 282//282 327//327
f 327//327 282//282 179//179
f 327//327 179//179 279//279
f 551//551 430//430 418//418
f 551//551 418//418 576//576
f 327//327 279//279 326//326
f 179//179 113//113 198//198
f 279//279 198//198 326//326
f 198//198 113//113 124//124
f 56//56 24//24 32//32
f 56//56 32//32 124//124
f 200//200 261//261 326//326
f 102//102 200//200 124//124
f 261//261 200//200 102//102
f 113//113 56//56 124//124
f 62//62 123//123 55//55
f 24//24 25//25 55//55
f 55//55 26//26 24//24
f 35//35 25//25 24//24
f 55//55 213//213 67//67
f 26//26 55//55 67//67
f 29//29 26//26 67//67
f 20//20 19//19 22//22
f 32//32 21//21 42//42
f 42//42 102//102 124//124
f 22//22 13//13 9//9
f 22//22 9//9 20//20
f 722//722 781//781 641//641
f 722//722 765//765 781//781
f 765//765 702//702 748//748
f 691//691 551//551 641//641
f 641//641 551//551 576//576
f 592//592 663//663 702//702
f 576//576 459//459 555//555
f 459//459 491//491 555//555
f 491//491 456//456 511//511
f 325//325 404//404 326//326
f 180//180 261//261 102//102
f 308//308 261//261 180//180
f 48//48 308//308 180//180
f 325//325 308//308 406//406
f 456//456 404//404 406//406
f 342//342 308//308 224//224
f 717//717 759//759 748//748
f 717//717 738//738 759//759
f 668//668 702//702 663//663
f 730//730 668//668 717//717
f 753//753 738//738 717//717
f 663//663 632//632 668//668
f 632//632 621//621 668//668
f 634//634 621//621 632//632
f 632//632 592//592 555//555
f 555//555 533//533 565//565
f 615//615 680//680 621//621
f 517//517 456//456 475//475
f 388//388 426//426 342//342
f 634//634 517//517 583//583
f 621//621 634//634 583//583
f 583//583 517//517 475//475
f 583//583 593//593 621//621
f 475//475 388//388 486//486
f 680//680 664//664 689//689
f 601//601 615//615 593//593
f 624//624 615//615 572//572
f 498//498 528//528 587//587
f 587//587 528//528 581//581
f 31//31 21//21 15//15
f 9//9 12//12 15//15
f 224//224 48//48 152//152
f 31//31 23//23 48//48
f 152//152 48//48 51//51
f 19//19 29//29 27//27
f 33//33 78//78 83//83
f 34//34 19//19 27//27
f 33//33 74//74 68//68
f 27//27 68//68 34//34
f 74//74 33//33 90//90
f 34//34 13//13 22//22
f 11//11 7//7 15//15
f 30//30 16//16 7//7
f 91//91 64//64 30//30
f 4//4 7//7 6//6
f 23//23 4//4 18//18
f 6//6 16//16 14//14
f 16//16 28//28 14//14
f 6//6 7//7 16//16
f 301//301 388//388 276//276
f 301//301 276//276 196//196
f 152//152 51//51 196//196
f 276//276 152//152 196//196
f 316//316 301//301 196//196
f 316//316 196//196 93//93
f 90//90 127//127 88//88
f 61//61 88//88 82//82
f 85//85 90//90 88//88
f 85//85 63//63 74//74
f 74//74 63//63 87//87
f 88//88 38//38 85//85
f 38//38 88//88 46//46
f 63//63 40//40 87//87
f 63//63 36//36 40//40
f 72//72 36//36 50//50
f 36//36 72//72 40//40
f 72//72 50//50 89//89
f 171//171 203//203 89//89
f 206//206 112//112 203//203
f 64//64 91//91 111//111
f 108//108 111//111 137//137
f 196//196 51//51 93//93
f 108//108 28//28 60//60
f 108//108 59//59 28//28
f 108//108 137//137 59//59
f 93//93 18//18 69//69
f 87//87 57//57 54//54
f 10//10 18//18 5//5
f 2//2 8//8 3//3
f 59//59 137//137 54//54
f 59//59 43//43 37//37
f 3//3 43//43 69//69
f 43//43 3//3 17//17
f 8//8 17//17 3//3
f 1//1 3//3 10//10
f 17//17 37//37 43//43
f 93//93 69//69 316//316
f 316//316 69//69 177//177
f 177//177 69//69 84//84
f 177//177 84//84 181//181
f 54//54 57//57 72//72
f 54//54 39//39 43//43
f 39//39 72//72 70//70
f 39//39 52//52 49//49
f 39//39 49//49 41//41
f 41//41 49//49 52//52
f 70//70 49//49 52//52
f 69//69 41//41 52//52
f 84//84 69//69 58//58
f 70//70 125//125 96//96
f 96//96 84//84 77//77
f 58//58 75//75 76//76
f 181//181 84//84 96//96
f 54//54 43//43 59//59
f 22//22 19//19 34//34
f 46//46 45//45 38//38
f 47//47 45//45 46//46
f 127//127 165//165 146//146
f 100//100 115//115 110//110
f 100//100 127//127 115//115
f 121//121 128//128 118//118
f 148//148 118//118 128//128
f 115//115 127//127 121//121
f 115//115 109//109 110//110
f 110//110 109//109 100//100
f 146//146 130//130 131//131
f 131//131 130//130 127//127
f 127//127 120//120 121//121
f 121//121 120//120 115//115
f 110//110 109//109 118//118
f 61//61 82//82 66//66
f 65//65 66//66 82//82
f 66//66 65//65 61//61
f 66//66 65//65 89//89
f 100//100 99//99 82//82
f 99//99 97//97 82//82
f 100//100 97//97 99//99
f 127//127 186//186 165//165
f 170//170 220//220 163//163
f 165//165 158//158 159//159
f 170//170 167//167 165//165
f 159//159 158//158 163//163
f 170//170 167//167 220//220
f 146//146 165//165 159//159
f 146//146 158//158 148//148
f 159//159 158//158 146//146
f 110//110 118//118 101//101
f 89//89 50//50 53//53
f 689//689 624//624 606//606
f 606//606 581//581 561//561
f 361//361 528//528 447//447
f 528//528 498//498 447//447
f 280//280 361//361 232//232
f 447//447 399//399 361//361
f 512//512 581//581 528//528
f 512//512 361//361 384//384
f 581//581 522//522 561//561
f 522//522 474//474 561//561
f 512//512 416//416 522//522
f 512//512 384//384 416//416
f 522//522 416//416 474//474
f 220//220 346//346 171//171
f 203//203 171//171 343//343
f 506//506 493//493 424//424
f 424//424 493//493 433//433
f 433//433 493//493 461//461
f 461//461 493//493 457//457
f 346//346 461//461 343//343
f 343//343 461//461 457//457
f 280//280 232//232 181//181
f 232//232 177//177 181//181
f 280//280 181//181 281//281
f 244//244 281//281 181//181
f 206//206 125//125 112//112
f 96//96 233//233 139//139
f 181//181 133//133 138//138
f 206//206 347//347 380//380
f 233//233 206//206 380//380
f 367//367 233//233 380//380
f 595//595 570//570 553//553
f 492//492 570//570 474//474
f 506//506 553//553 493//493
f 492//492 419//419 488//488
f 493//493 488//488 457//457
f 457//457 441//441 429//429
f 493//493 553//553 488//488
f 419//419 492//492 415//415
f 397//397 380//380 411//411
f 414//414 412//412 413//413
f 380//380 413//413 411//411
f 414//414 415//415 397//397
f 412//412 414//414 397//397
f 181//181 134//134 133//133
f 31//31 42//42 21//21
f 21//21 9//9 15//15
f 819//819 821//821 825//825
f 744//744 709//709 715//715
f 721//721 683//683 777//777
f 748//748 789//789 765//765
f 213//213 78//78 67//67
f 126//126 214//214 178//178
f 92//92 172//172 126//126
f 620//620 622//622 623//623
f 639//639 612//612 622//622
f 647//647 620//620 612//612
f 620//620 647//647 622//622
f 527//527 487//487 379//379
f 527//527 453//453 497//497
f 379//379 238//238 273//273
f 155//155 176//176 151//151
f 166//166 169//169 208//208
f 162//162 156//156 166//166
f 160//160 154//154 155//155
f 162//162 176//176 156//156
f 189//189 117//117 92//92
f 79//79 117//117 136//136
f 189//189 219//219 202//202
f 122//122 95//95 105//105
f 136//136 106//106 105//105
f 95//95 103//103 106//106
f 136//136 122//122 106//106
f 160//160 142//142 143//143
f 135//135 122//122 142//142
f 292//292 208//208 235//235
f 151//151 147//147 154//154
f 671//671 673//673 647//647
f 692//692 639//639 671//671
f 692//692 671//671 673//673
f 667//667 682//682 679//679
f 667//667 679//679 677//677
f 667//667 677//677 659//659
f 678//678 677//677 682//682
f 682//682 677//677 679//679
f 672//672 675//675 661//661
f 659//659 677//677 679//679
f 667//667 661//661 669//669
f 672//672 682//682 669//669
f 669//669 661//661 675//675
f 672//672 669//669 675//675
f 672//672 661//661 658//658
f 645//645 672//672 651//651
f 653//653 655//655 651//651
f 650//650 645//645 658//658
f 655//655 658//658 661//661
f 649//649 650//650 661//661
f 651//651 652//652 653//653
f 645//645 650//650 649//649
f 678//678 692//692 673//673
f 661//661 667//667 645//645
f 547//547 458//458 505//505
f 681//681 743//743 731//731
f 259//259 241//241 278//278
f 390//390 381//381 458//458
f 255//255 272//272 275//275
f 269//269 310//310 270//270
f 714//714 635//635 684//684
f 732//732 662//662 736//736
f 802//802 791//791 740//740
f 243//243 218//218 199//199
f 742//742 696//696 806//806
f 454//454 552//552 483//483
f 398//398 402//402 401//401
f 277//277 299//299 295//295
f 302//302 328//328 307//307
f 328//328 306//306 307//307
f 302//302 299//299 300//300
f 208//208 228//228 207//207
f 435//435 465//465 463//463
f 440//440 463//463 465//465
f 440//440 465//465 435//435
f 368//368 451//451 338//338
f 402//402 440//440 401//401
f 366//366 538//538 530//530
f 618//618 712//712 755//755
f 613//613 513//513 508//508
f 674//674 599//599 584//584
f 577//577 573//573 643//643
f 762//762 776//776 718//718
f 738//738 774//774 769//769
f 557//557 579//579 611//611
f 507//507 405//405 473//473
f 286//286 215//215 377//377
f 377//377 252//252 212//212
f 245//245 212//212 173//173
f 245//245 236//236 410//410
f 145//145 116//116 107//107
f 525//525 466//466 545//545
f 510//510 551//551 691//691
f 510//510 691//691 642//642
f 113//113 185//185 80//80
f 327//327 417//417 418//418
f 179//179 198//198 279//279
f 26//26 29//29 19//19
f 42//42 73//73 102//102
f 641//641 576//576 592//592
f 533//533 555//555 511//511
f 702//702 668//668 730//730
f 601//601 572//572 615//615
f 34//34 30//30 13//13
f 7//7 11//11 30//30
f 16//16 64//64 60//60
f 15//15 7//7 4//4
f 6//6 14//14 2//2
f 38//38 36//36 85//85
f 85//85 36//36 63//63
f 89//89 148//148 171//171
f 64//64 111//111 60//60
f 111//111 108//108 60//60
f 87//87 54//54 137//137
f 3//3 1//1 2//2
f 37//37 17//17 28//28
f 69//69 10//10 3//3
f 316//316 177//177 232//232
f 112//112 125//125 72//72
f 58//58 52//52 49//49
f 58//58 69//69 52//52
f 70//70 58//58 49//49
f 77//77 84//84 76//76
f 96//96 77//77 76//76
f 76//76 77//77 75//75
f 70//70 75//75 58//58
f 38//38 45//45 47//47
f 47//47 46//46 53//53
f 47//47 50//50 38//38
f 45//45 50//50 47//47
f 53//53 50//50 45//45
f 131//131 148//148 128//128
f 146//146 148//148 130//130
f 146//146 131//131 127//127
f 118//118 120//120 121//121
f 130//130 131//131 128//128
f 66//66 89//89 53//53
f 82//82 89//89 65//65
f 66//66 53//53 65//65
f 89//89 99//99 101//101
f 101//101 97//97 100//100
f 97//97 99//99 89//89
f 163//163 148//148 159//159
f 158//158 159//159 148//148
f 163//163 167//167 170//170
f 170//170 165//165 186//186
f 186//186 220//220 167//167
f 457//457 419//419 347//347
f 233//233 244//244 181//181
f 139//139 138//138 133//133
f 139//139 181//181 138//138
f 96//96 133//133 138//138
f 138//138 134//134 96//96
f 416//416 367//367 397//397
f 488//488 419//419 429//429
f 412//412 419//419 415//415
f 429//429 441//441 488//488
f 419//419 412//412 380//380
f 380//380 412//412 413//413
f 415//415 411//411 413//413
f 623//623 639//639 622//622
f 155//155 154//154 156//156
f 155//155 156//156 176//176
f 428//428 519//519 496//496
f 169//169 166//166 184//184
f 169//169 184//184 176//176
f 155//155 151//151 154//154
f 160//160 156//156 154//154
f 143//143 142//142 147//147
f 143//143 147//147 176//176
f 103//103 105//105 106//106
f 122//122 105//105 106//106
f 655//655 653//653 652//652
f 655//655 652//652 658//658
f 160//160 147//147 142//142
f 147//147 155//155 154//154
f 671//671 647//647 659//659
f 655//655 653//653 654//654
f 655//655 654//654 651//651
f 672//672 658//658 651//651
f 650//650 658//658 652//652
f 649//649 661//661 645//645
f 659//659 678//678 673//673
f 659//659 673//673 671//671
f 303//303 299//299 302//302
f 303//303 302//302 306//306
f 802//802 808//808 815//815
f 402//402 393//393 401//401
f 398//398 401//401 393//393
f 120//120 127//127 130//130
f 120//120 130//130 128//128
f 303//303 300//300 299//299
f 300//300 295//295 299//299
f 307//307 303//303 306//306
f 383//383 400//400 349//349
f 440//440 435//435 401//401
f 644//644 573//573 670//670
f 587//587 581//581 624//624
f 2//2 5//5 4//4
f 96//96 76//76 70//70
f 84//84 58//58 76//76
f 70//70 76//76 75//75
f 47//47 53//53 45//45
f 115//115 120//120 118//118
f 115//115 118//118 109//109
f 89//89 101//101 118//118
f 89//89 118//118 148//148
f 128//128 121//121 120//120
f 148//148 131//131 130//130
f 53//53 61//61 65//65
f 165//165 167//167 163//163
f 165//165 163//163 158//158
f 97//97 89//89 82//82
f 101//101 99//99 97//97
f 101//101 100//100 109//109
f 101//101 109//109 110//110
f 170//170 186//186 167//167
f 412//412 397//397 411//411
f 412//412 411//411 413//413
f 232//232 361//361 399//399
f 96//96 139//139 133//133
f 133//133 134//134 138//138
f 412//412 415//415 413//413
f 411//411 415//415 414//414
f 411//411 414//414 413//413
