# convertido de flygym/NeuroMechFly (lf_tarsus2)
v -0.02374 -0.00870 -0.16953
v -0.02348 -0.00771 -0.17213
v -0.02341 -0.00776 -0.16895
v -0.02332 -0.00992 -0.17136
v -0.02277 -0.00788 -0.17307
v -0.02271 0.01436 -0.16693
v -0.02235 0.01291 -0.16879
v -0.02215 -0.01185 -0.16982
v -0.02191 0.01607 -0.17070
v -0.02173 -0.01170 -0.17083
v -0.02170 -0.01055 -0.16685
v -0.02170 0.01525 -0.17193
v -0.02164 -0.00603 -0.17197
v -0.02154 0.01620 -0.16692
v -0.02148 0.01392 -0.17142
v -0.02121 0.01153 -0.16712
v -0.02118 -0.01004 -0.17301
v -0.02104 -0.00695 -0.16619
v -0.02099 0.01368 -0.16488
v -0.02080 -0.00825 -0.16482
v -0.02063 0.01608 -0.17130
v -0.02007 -0.01255 -0.16939
v -0.01999 0.01213 -0.17044
v -0.01973 0.01252 -0.16391
v -0.01955 -0.01237 -0.16504
v -0.01948 0.01347 -0.17104
v -0.01937 0.01689 -0.17023
v -0.01935 -0.00639 -0.17224
v -0.01927 -0.00517 -0.17123
v -0.01913 0.01758 -0.16757
v -0.01896 0.01594 -0.16391
v -0.01869 -0.01325 -0.16761
v -0.01868 0.01350 -0.16263
v -0.01866 0.01110 -0.16632
v -0.01863 -0.01037 -0.16105
v -0.01834 -0.00863 -0.16037
v -0.01809 0.01741 -0.16517
v -0.01794 0.01049 -0.16361
v -0.01792 -0.00503 -0.16676
v -0.01787 0.01099 -0.16159
v -0.01748 -0.00544 -0.16239
v -0.01742 -0.01402 -0.16473
v -0.01728 0.01205 -0.16889
v -0.01716 0.01197 -0.15998
v -0.01707 -0.01235 -0.16910
v -0.01703 -0.01378 -0.16663
v -0.01695 0.01776 -0.16807
v -0.01692 0.01074 -0.16689
v -0.01671 0.01321 -0.16953
v -0.01664 -0.00606 -0.15895
v -0.01650 0.01484 -0.16962
v -0.01627 0.01442 -0.16077
v -0.01625 -0.00500 -0.16955
v -0.01621 -0.01401 -0.16121
v -0.01610 -0.00763 -0.15636
v -0.01604 0.00820 -0.16269
v -0.01580 0.01011 -0.15699
v -0.01559 -0.00924 -0.15508
v -0.01553 -0.00616 -0.17108
v -0.01550 0.01128 -0.16818
v -0.01522 0.00785 -0.16439
v -0.01506 -0.00335 -0.16493
v -0.01504 -0.00730 -0.17095
v -0.01479 -0.01482 -0.16323
v -0.01460 0.00729 -0.15541
v -0.01459 0.01251 -0.15586
v -0.01458 -0.00544 -0.17094
v -0.01451 -0.00401 -0.15578
v -0.01443 -0.00350 -0.16795
v -0.01433 -0.00802 -0.15107
v -0.01424 0.01696 -0.16404
v -0.01420 -0.00245 -0.16282
v -0.01416 0.01605 -0.16158
v -0.01406 0.01281 -0.16889
v -0.01404 -0.01391 -0.16562
v -0.01402 -0.01113 -0.15216
v -0.01401 -0.00395 -0.15255
v -0.01395 -0.01260 -0.15437
v -0.01392 -0.00348 -0.11693
v -0.01389 -0.00272 -0.11764
v -0.01385 -0.00497 -0.17183
v -0.01383 0.01580 -0.16803
v -0.01377 -0.01196 -0.16795
v -0.01374 -0.00689 -0.14783
v -0.01372 -0.00676 -0.17178
v -0.01348 0.00394 -0.16358
v -0.01346 0.01416 -0.15631
v -0.01341 0.01045 -0.12884
v -0.01330 -0.00949 -0.13857
v -0.01328 -0.01201 -0.14631
v -0.01324 -0.00448 -0.17415
v -0.01322 0.00946 -0.12805
v -0.01321 0.01667 -0.16648
v -0.01315 0.01119 -0.15161
v -0.01314 -0.00043 -0.16120
v -0.01313 -0.00451 -0.13919
v -0.01303 -0.00235 -0.12109
v -0.01302 -0.00622 -0.12061
v -0.01300 0.00188 -0.16236
v -0.01298 0.00370 -0.15168
v -0.01293 -0.00120 -0.11932
v -0.01292 -0.00269 -0.17389
v -0.01281 -0.00441 -0.11280
v -0.01262 0.00175 -0.15904
v -0.01261 -0.01694 -0.15905
v -0.01261 0.00069 -0.15120
v -0.01257 -0.00062 -0.17303
v -0.01254 0.00918 -0.16799
v -0.01252 -0.00807 -0.17198
v -0.01249 0.00174 -0.15550
v -0.01249 0.00436 -0.14977
v -0.01247 -0.00947 -0.13423
v -0.01247 0.00741 -0.16696
v -0.01242 0.00033 -0.14708
v -0.01235 -0.00866 -0.11301
v -0.01233 0.01176 -0.16873
v -0.01226 0.01309 -0.12923
v -0.01226 -0.00717 -0.17532
v -0.01215 0.01276 -0.15148
v -0.01208 0.01194 -0.13441
v -0.01208 -0.00987 -0.11690
v -0.01204 0.01086 -0.12447
v -0.01189 -0.01273 -0.13790
v -0.01187 0.00989 -0.14814
v -0.01184 -0.01257 -0.16754
v -0.01184 0.00090 -0.16870
v -0.01178 0.00270 -0.16683
v -0.01172 -0.00861 -0.13043
v -0.01171 0.00257 -0.17243
v -0.01151 -0.00737 -0.12438
v -0.01148 -0.00709 -0.10863
v -0.01147 -0.00216 -0.12472
v -0.01145 -0.00496 -0.13050
v -0.01138 -0.01668 -0.14558
v -0.01133 0.00680 -0.16850
v -0.01124 0.00461 -0.17154
v -0.01121 -0.00495 -0.09257
v -0.01114 0.01137 -0.16917
v -0.01114 -0.01742 -0.16189
v -0.01112 0.01658 -0.16404
v -0.01103 0.00558 -0.13276
v -0.01102 -0.01156 -0.16924
v -0.01099 -0.00820 -0.12637
v -0.01091 0.00061 -0.12208
v -0.01083 0.00558 -0.14381
v -0.01081 0.00809 -0.12213
v -0.01079 0.00918 -0.10460
v -0.01076 -0.00568 -0.07464
v -0.01073 0.01442 -0.13194
v -0.01069 0.00940 -0.10149
v -0.01068 0.01441 -0.15314
v -0.01068 -0.00323 -0.06283
v -0.01068 -0.00389 -0.05733
v -0.01061 -0.01163 -0.11289
v -0.01057 -0.00863 -0.09206
v -0.01053 -0.00980 -0.17689
v -0.01052 0.00919 -0.13660
v -0.01044 0.00186 -0.02858
v -0.01042 0.00240 -0.02838
v -0.01042 0.00032 -0.02930
v -0.01042 0.00764 -0.17030
v -0.01039 0.00182 -0.02953
v -0.01038 0.01053 -0.13679
v -0.01036 0.00196 -0.02882
v -0.01033 -0.00665 -0.17675
v -0.01030 0.00133 -0.02911
v -0.01028 -0.00253 -0.10597
v -0.01027 0.00057 -0.13392
v -0.01026 -0.00374 -0.07031
v -0.01026 0.00301 -0.12496
v -0.01024 0.00210 -0.02918
v -0.01024 0.01378 -0.16801
v -0.01023 0.00283 -0.02864
v -0.01023 0.00329 -0.02854
v -0.01020 0.00284 -0.02990
v -0.01019 0.00003 -0.12984
v -0.01013 0.00153 -0.09464
v -0.01012 0.00308 -0.11983
v -0.01012 -0.00478 -0.10419
v -0.01010 -0.00062 -0.03025
v -0.01010 0.00298 -0.02900
v -0.01009 -0.00073 -0.17537
v -0.01008 0.00506 -0.12035
v -0.01007 0.01178 -0.14425
v -0.01007 0.00577 -0.09726
v -0.01006 0.00959 -0.09733
v -0.01005 -0.00165 -0.02989
v -0.01003 0.00324 -0.02864
v -0.01000 0.00910 -0.14040
v -0.01000 0.00312 -0.02934
v -0.00997 0.00443 -0.02872
v -0.00997 0.00387 -0.02884
v -0.00996 -0.00717 -0.06842
v -0.00995 -0.00050 -0.02982
v -0.00994 -0.00041 -0.03006
v -0.00989 -0.00431 -0.10053
v -0.00988 0.00400 -0.02918
v -0.00986 -0.01436 -0.13074
v -0.00979 -0.00732 -0.06401
v -0.00977 -0.00214 -0.10188
v -0.00975 -0.00874 -0.07447
v -0.00975 0.00532 -0.03000
v -0.00974 0.00274 -0.02905
v -0.00967 0.00491 -0.02904
v -0.00966 0.00551 -0.02894
v -0.00965 0.00011 -0.02955
v -0.00960 0.00504 -0.02939
v -0.00952 0.01067 -0.13915
v -0.00949 -0.00685 -0.05191
v -0.00946 0.00430 -0.02904
v -0.00945 0.01133 -0.17096
v -0.00944 0.00919 -0.10897
v -0.00940 -0.00823 -0.05300
v -0.00940 0.00649 -0.02915
v -0.00937 0.00596 -0.02928
v -0.00935 0.01450 -0.12318
v -0.00932 0.00609 -0.02966
v -0.00928 0.00532 -0.02911
v -0.00926 0.00699 -0.03087
v -0.00919 0.00763 -0.02927
v -0.00918 -0.01920 -0.16038
v -0.00917 0.01152 -0.10766
v -0.00915 -0.00234 -0.08470
v -0.00912 -0.00051 -0.03634
v -0.00912 0.01190 -0.09813
v -0.00909 0.00703 -0.02958
v -0.00904 0.00717 -0.02996
v -0.00904 0.01283 -0.10485
v -0.00903 0.01002 -0.08139
v -0.00901 -0.00515 -0.08482
v -0.00898 0.00635 -0.02937
v -0.00898 -0.01299 -0.12387
v -0.00896 -0.01532 -0.16680
v -0.00896 0.01093 -0.08092
v -0.00893 0.01297 -0.16906
v -0.00893 0.01437 -0.16691
v -0.00890 0.01606 -0.16345
v -0.00889 -0.00521 -0.03031
v -0.00888 0.00886 -0.02986
v -0.00888 0.00499 -0.05846
v -0.00887 0.00846 -0.02987
v -0.00882 0.00235 -0.10584
v -0.00881 0.00872 -0.03116
v -0.00879 0.00861 -0.03024
v -0.00878 0.01333 -0.14318
v -0.00874 -0.01942 -0.14441
v -0.00872 -0.01927 -0.15510
v -0.00868 0.00753 -0.02970
v -0.00860 0.00231 -0.11018
v -0.00859 0.00892 -0.03010
v -0.00858 0.00485 -0.08987
v -0.00857 -0.00943 -0.10114
v -0.00856 0.00372 -0.06348
v -0.00855 -0.00755 -0.04745
v -0.00854 0.00949 -0.06156
v -0.00850 -0.01264 -0.17853
v -0.00848 -0.01277 -0.10626
v -0.00846 0.01066 -0.03125
v -0.00843 0.01152 -0.08547
v -0.00842 -0.00032 -0.05042
v -0.00840 0.01006 -0.03110
v -0.00838 -0.00403 -0.04179
v -0.00835 -0.00097 -0.04558
v -0.00833 0.00583 -0.02962
v -0.00832 0.01021 -0.03147
v -0.00831 0.00431 -0.11231
v -0.00830 0.00038 -0.07429
v -0.00829 0.01041 -0.03251
v -0.00826 0.01017 -0.09095
v -0.00822 0.01046 -0.03126
v -0.00817 0.01278 -0.08212
v -0.00813 0.00980 -0.08724
v -0.00813 0.00992 -0.07727
v -0.00809 0.00123 -0.08121
v -0.00807 0.01599 -0.15635
v -0.00801 0.01385 -0.13716
v -0.00800 -0.00954 -0.08505
v -0.00797 0.00908 -0.11254
v -0.00796 0.00897 -0.11681
v -0.00789 -0.00795 -0.03101
v -0.00788 0.01358 -0.13933
v -0.00787 0.00235 -0.07797
v -0.00780 0.00354 -0.02929
v -0.00775 -0.00982 -0.08325
v -0.00771 0.01086 -0.08856
v -0.00766 0.00824 -0.03050
v -0.00763 0.01121 -0.07707
v -0.00758 0.01380 -0.16839
v -0.00756 -0.00422 -0.02899
v -0.00753 -0.01444 -0.17891
v -0.00753 0.00986 -0.03137
v -0.00753 0.01256 -0.03457
v -0.00751 0.01016 -0.07117
v -0.00750 -0.01001 -0.03020
v -0.00744 0.00439 -0.07452
v -0.00742 -0.00706 -0.03962
v -0.00739 0.00409 -0.06857
v -0.00736 0.00309 -0.07208
v -0.00732 0.01030 -0.05224
v -0.00720 0.01170 -0.07222
v -0.00717 -0.01173 -0.05727
v -0.00716 -0.00833 -0.03553
v -0.00715 0.01241 -0.03383
v -0.00711 -0.01437 -0.09031
v -0.00702 0.01239 -0.11636
v -0.00702 0.01361 -0.06062
v -0.00700 0.01348 -0.17197
v -0.00694 0.00603 -0.17414
v -0.00693 0.01200 -0.11434
v -0.00689 0.01283 -0.11117
v -0.00681 0.01370 -0.03516
v -0.00681 -0.01928 -0.13883
v -0.00672 0.01299 -0.03773
v -0.00664 0.01561 -0.16279
v -0.00650 0.01425 -0.03642
v -0.00650 -0.00878 -0.02985
v -0.00649 0.01009 -0.04501
v -0.00649 0.01631 -0.15843
v -0.00648 -0.01570 -0.17303
v -0.00647 -0.01602 -0.11767
v -0.00644 -0.01229 -0.04693
v -0.00641 0.01499 -0.10373
v -0.00630 -0.01200 -0.03024
v -0.00628 0.01043 -0.03181
v -0.00626 0.01314 -0.08909
v -0.00601 0.01204 -0.17302
v -0.00594 0.01225 -0.04369
v -0.00586 0.01386 -0.09152
v -0.00583 -0.01410 -0.07057
v -0.00575 0.01380 -0.08724
v -0.00575 -0.01479 -0.10091
v -0.00574 0.01437 -0.16690
v -0.00571 -0.01697 -0.09259
v -0.00571 0.01720 -0.12436
v -0.00564 -0.01282 -0.03102
v -0.00539 0.00034 -0.17789
v -0.00535 -0.01624 -0.17957
v -0.00534 -0.01795 -0.16603
v -0.00527 0.01344 -0.04776
v -0.00514 -0.01152 -0.18022
v -0.00510 0.01475 -0.07887
v -0.00501 -0.01687 -0.11095
v -0.00501 -0.02144 -0.13098
v -0.00473 0.00122 -0.02804
v -0.00466 0.00707 -0.02898
v -0.00463 0.01031 -0.17493
v -0.00461 0.01474 -0.05088
v -0.00460 0.01483 -0.17040
v -0.00459 -0.02252 -0.15643
v -0.00455 -0.01676 -0.18043
v -0.00447 -0.01130 -0.02991
v -0.00427 -0.02041 -0.16307
v -0.00425 -0.01744 -0.06116
v -0.00424 0.01662 -0.03835
v -0.00417 0.01459 -0.17189
v -0.00414 0.01479 -0.04508
v -0.00412 -0.01305 -0.03823
v -0.00408 0.01646 -0.11778
v -0.00401 -0.01664 -0.08181
v -0.00371 -0.01567 -0.18047
v -0.00362 -0.02391 -0.15117
v -0.00351 -0.01787 -0.17878
v -0.00342 0.01730 -0.03749
v -0.00338 -0.01933 -0.09314
v -0.00337 -0.01605 -0.03201
v -0.00327 0.01605 -0.11263
v -0.00326 -0.02220 -0.14360
v -0.00324 -0.01754 -0.18047
v -0.00294 0.01871 -0.12778
v -0.00286 -0.02230 -0.12649
v -0.00284 0.00448 -0.17733
v -0.00283 0.01555 -0.17209
v -0.00281 -0.01519 -0.04074
v -0.00249 -0.01348 -0.18095
v -0.00248 -0.02069 -0.11970
v -0.00242 0.01833 -0.07229
v -0.00230 -0.01912 -0.06371
v -0.00224 -0.01790 -0.07659
v -0.00216 0.01702 -0.03462
v -0.00215 -0.00192 -0.17952
v -0.00211 -0.02459 -0.15315
v -0.00203 0.01819 -0.14998
v -0.00199 -0.01887 -0.07993
v -0.00196 0.01690 -0.11225
v -0.00192 -0.01745 -0.05383
v -0.00181 0.01449 -0.03132
v -0.00171 -0.01333 -0.02948
v -0.00170 -0.02200 -0.11258
v -0.00168 -0.01774 -0.07122
v -0.00143 -0.02049 -0.09604
v -0.00136 -0.01828 -0.17986
v -0.00130 0.01878 -0.12210
v -0.00129 -0.01755 -0.03133
v -0.00122 -0.01690 -0.03852
v -0.00115 0.01052 -0.17688
v -0.00097 0.01261 -0.17591
v -0.00091 0.01952 -0.03818
v -0.00080 0.01699 -0.08160
v -0.00080 0.01460 -0.17389
v -0.00077 -0.02120 -0.08558
v -0.00073 -0.01977 -0.17001
v -0.00057 0.01825 -0.14153
v -0.00057 0.01598 -0.16044
v -0.00051 0.01802 -0.13701
v -0.00051 0.01968 -0.04004
v -0.00047 -0.02006 -0.10600
v -0.00045 -0.01817 -0.04748
v -0.00032 0.01894 -0.07397
v -0.00024 -0.01906 -0.17381
v -0.00022 -0.02361 -0.16021
v -0.00018 0.01815 -0.10381
v -0.00015 -0.01836 -0.03156
v -0.00013 0.01746 -0.04717
v -0.00002 -0.02398 -0.12971
v 0.00029 0.01835 -0.13642
v 0.00038 -0.01547 -0.18092
v 0.00045 0.01791 -0.15286
v 0.00048 -0.02338 -0.12262
v 0.00069 -0.01872 -0.04145
v 0.00070 -0.02403 -0.11358
v 0.00076 -0.02557 -0.14798
v 0.00087 0.00194 -0.02697
v 0.00127 -0.02586 -0.13987
v 0.00129 -0.01919 -0.17921
v 0.00138 0.00153 -0.17884
v 0.00141 0.01952 -0.12500
v 0.00154 -0.00540 -0.02708
v 0.00166 -0.00624 -0.18087
v 0.00168 -0.01929 -0.03201
v 0.00169 -0.02140 -0.06332
v 0.00183 -0.01837 -0.03644
v 0.00196 -0.01014 -0.18125
v 0.00196 0.02052 -0.04159
v 0.00201 0.02097 -0.03849
v 0.00228 0.01911 -0.03464
v 0.00229 0.01541 -0.16558
v 0.00230 0.01645 -0.16964
v 0.00239 -0.01754 -0.03037
v 0.00249 -0.02011 -0.07434
v 0.00260 -0.01900 -0.03192
v 0.00262 0.01798 -0.11229
v 0.00279 0.00738 -0.17859
v 0.00284 0.01938 -0.12587
v 0.00284 -0.02305 -0.10617
v 0.00301 -0.02046 -0.17370
v 0.00309 0.01915 -0.04725
v 0.00322 -0.02270 -0.09760
v 0.00345 0.01861 -0.07898
v 0.00346 -0.02312 -0.08775
v 0.00349 0.00765 -0.02631
v 0.00365 -0.01951 -0.03284
v 0.00369 -0.02014 -0.17883
v 0.00407 0.02072 -0.06258
v 0.00409 0.01380 -0.17553
v 0.00415 0.01098 -0.02679
v 0.00424 0.01814 -0.14396
v 0.00444 -0.02114 -0.04904
v 0.00459 0.01419 -0.02868
v 0.00468 0.02070 -0.05529
v 0.00479 0.01748 -0.14922
v 0.00487 0.01949 -0.09707
v 0.00491 0.01948 -0.04773
v 0.00492 -0.02438 -0.10739
v 0.00493 -0.00179 -0.02597
v 0.00507 0.02004 -0.06889
v 0.00522 0.01902 -0.08829
v 0.00528 -0.01947 -0.03322
v 0.00580 0.01689 -0.15182
v 0.00588 0.02045 -0.03606
v 0.00593 -0.02541 -0.11711
v 0.00605 0.01083 -0.17803
v 0.00605 0.01824 -0.13506
v 0.00611 0.02143 -0.03873
v 0.00620 0.00202 -0.17949
v 0.00641 -0.02279 -0.05499
v 0.00642 0.01252 -0.02745
v 0.00654 0.02129 -0.04085
v 0.00660 -0.00497 -0.18111
v 0.00677 -0.02121 -0.17831
v 0.00688 -0.02784 -0.14269
v 0.00693 0.01639 -0.16950
v 0.00713 -0.01631 -0.02777
v 0.00716 0.01555 -0.16605
v 0.00722 -0.01601 -0.18000
v 0.00738 0.01544 -0.02987
v 0.00750 0.01777 -0.14887
v 0.00759 -0.01867 -0.03024
v 0.00763 -0.02534 -0.12525
v 0.00764 -0.02388 -0.07203
v 0.00783 -0.02429 -0.08012
v 0.00785 -0.02385 -0.06862
v 0.00807 -0.00923 -0.18090
v 0.00810 0.00487 -0.02566
v 0.00820 0.01896 -0.12019
v 0.00822 -0.02021 -0.03316
v 0.00852 -0.02537 -0.10844
v 0.00868 -0.02497 -0.16280
v 0.00879 0.01925 -0.04689
v 0.00880 -0.02227 -0.17236
v 0.00896 0.02103 -0.03877
v 0.00899 0.01509 -0.16418
v 0.00901 0.01976 -0.06694
v 0.00902 0.01912 -0.07571
v 0.00916 -0.00329 -0.18038
v 0.00917 0.01926 -0.10056
v 0.00918 0.01507 -0.17363
v 0.00940 0.00843 -0.17891
v 0.00958 0.01536 -0.16116
v 0.00968 -0.02164 -0.17750
v 0.00974 0.01086 -0.17820
v 0.00983 0.01868 -0.11097
v 0.00985 0.01989 -0.09232
v 0.00996 -0.01291 -0.02566
v 0.00999 -0.02043 -0.03200
v 0.01001 -0.02505 -0.09986
v 0.01004 0.02092 -0.05730
v 0.01008 0.00384 -0.17902
v 0.01014 -0.02679 -0.13349
v 0.01040 0.02023 -0.08530
v 0.01045 -0.02828 -0.14154
v 0.01047 0.01256 -0.17696
v 0.01048 -0.02207 -0.04322
v 0.01072 0.01969 -0.14264
v 0.01084 0.01832 -0.13717
v 0.01091 0.01703 -0.12853
v 0.01096 -0.02437 -0.05550
v 0.01103 0.01951 -0.14557
v 0.01106 0.01508 -0.16863
v 0.01113 0.01965 -0.06690
v 0.01114 0.02056 -0.03974
v 0.01116 -0.02454 -0.08730
v 0.01119 0.00865 -0.02659
v 0.01120 -0.02019 -0.03711
v 0.01154 -0.02614 -0.15918
v 0.01162 0.01389 -0.17434
v 0.01171 0.01566 -0.15259
v 0.01177 0.01907 -0.10638
v 0.01183 0.01747 -0.12419
v 0.01184 -0.02561 -0.16130
v 0.01194 -0.02112 -0.17711
v 0.01201 0.01647 -0.15045
v 0.01201 0.01928 -0.14694
v 0.01203 -0.00836 -0.17918
v 0.01215 -0.02551 -0.07895
v 0.01242 -0.02723 -0.15042
v 0.01253 -0.02578 -0.11929
v 0.01272 0.01742 -0.03392
v 0.01283 -0.02519 -0.11417
v 0.01283 -0.00125 -0.02422
v 0.01289 -0.00122 -0.17976
v 0.01290 0.01876 -0.14665
v 0.01293 0.01821 -0.11206
v 0.01298 0.00934 -0.17783
v 0.01313 0.01457 -0.17033
v 0.01321 0.01985 -0.07796
v 0.01341 0.01862 -0.03604
v 0.01351 -0.02105 -0.03174
v 0.01355 0.01088 -0.17663
v 0.01355 -0.01690 -0.02743
v 0.01355 0.01795 -0.11901
v 0.01357 0.01267 -0.02932
v 0.01366 0.01359 -0.17169
v 0.01366 0.02009 -0.06974
v 0.01377 -0.02181 -0.17132
v 0.01378 0.01989 -0.04008
v 0.01378 -0.00696 -0.02474
v 0.01394 -0.02078 -0.03121
v 0.01405 -0.02400 -0.04816
v 0.01408 -0.01631 -0.17757
v 0.01414 -0.01002 -0.02473
v 0.01423 -0.01066 -0.17774
v 0.01429 -0.02086 -0.03121
v 0.01431 0.00486 -0.17767
v 0.01431 -0.02092 -0.17636
v 0.01432 -0.02083 -0.03132
v 0.01432 0.00654 -0.02549
v 0.01434 -0.02071 -0.03521
v 0.01459 0.01968 -0.08144
v 0.01461 0.01680 -0.13878
v 0.01471 -0.02462 -0.06243
v 0.01473 -0.02594 -0.09374
v 0.01479 0.01544 -0.15005
v 0.01482 -0.02103 -0.03139
v 0.01506 -0.00031 -0.02413
v 0.01518 -0.02585 -0.10143
v 0.01525 -0.02036 -0.03068
v 0.01533 0.01780 -0.09655
v 0.01544 0.01864 -0.10495
v 0.01549 -0.00039 -0.17874
v 0.01566 -0.02360 -0.16497
v 0.01570 0.01572 -0.12348
v 0.01578 -0.02724 -0.11738
v 0.01591 -0.02070 -0.03703
v 0.01592 0.01108 -0.17375
v 0.01598 -0.02712 -0.12426
v 0.01601 -0.02812 -0.15550
v 0.01610 0.01533 -0.12637
v 0.01618 0.01932 -0.07788
v 0.01622 0.01408 -0.15312
v 0.01635 0.00884 -0.17522
v 0.01657 -0.02474 -0.05282
v 0.01667 -0.02795 -0.14394
v 0.01673 0.01933 -0.06047
v 0.01675 0.01931 -0.04066
v 0.01701 -0.00692 -0.17788
v 0.01707 0.01266 -0.16907
v 0.01708 0.01476 -0.14705
v 0.01716 0.01938 -0.05196
v 0.01717 0.01622 -0.11300
v 0.01743 -0.01742 -0.17649
v 0.01751 0.01257 -0.16576
v 0.01755 0.01935 -0.07359
v 0.01758 0.01987 -0.07026
v 0.01760 -0.02748 -0.12397
v 0.01764 0.01796 -0.04597
v 0.01776 -0.02598 -0.11359
v 0.01780 0.02002 -0.06682
v 0.01784 -0.02730 -0.15943
v 0.01791 -0.02117 -0.03939
v 0.01801 0.01862 -0.03789
v 0.01803 0.01726 -0.10503
v 0.01815 0.01310 -0.16112
v 0.01816 -0.02555 -0.08377
v 0.01821 0.01730 -0.09079
v 0.01833 -0.00072 -0.17673
v 0.01839 -0.02648 -0.09465
v 0.01843 -0.01860 -0.17503
v 0.01853 -0.01983 -0.16988
v 0.01853 -0.02552 -0.10977
v 0.01854 -0.02743 -0.11844
v 0.01855 -0.02526 -0.06892
v 0.01857 0.01925 -0.03861
v 0.01866 -0.01224 -0.17607
v 0.01868 -0.02064 -0.03086
v 0.01870 0.01699 -0.10244
v 0.01877 -0.02811 -0.14721
v 0.01877 0.00951 -0.17147
v 0.01878 0.01874 -0.06091
v 0.01885 -0.02157 -0.16647
v 0.01891 -0.02653 -0.13499
v 0.01892 -0.02820 -0.15349
v 0.01895 -0.02533 -0.07677
v 0.01900 -0.01350 -0.02620
v 0.01903 0.01963 -0.06710
v 0.01906 0.01668 -0.03443
v 0.01909 0.01417 -0.12541
v 0.01915 0.01899 -0.05574
v 0.01938 -0.02435 -0.05841
v 0.01956 -0.02678 -0.14072
v 0.01958 0.01032 -0.02867
v 0.01974 0.01149 -0.16422
v 0.01977 -0.02623 -0.08959
v 0.01984 -0.00454 -0.17584
v 0.01986 0.00195 -0.02504
v 0.01987 0.01713 -0.04597
v 0.01987 0.00611 -0.17214
v 0.01996 0.00994 -0.17019
v 0.02014 -0.02047 -0.03028
v 0.02028 -0.02622 -0.09482
v 0.02037 -0.01619 -0.17501
v 0.02039 -0.02723 -0.15692
v 0.02047 0.01628 -0.07666
v 0.02060 -0.02273 -0.04818
v 0.02068 -0.01999 -0.03504
v 0.02069 0.01853 -0.03970
v 0.02085 -0.02659 -0.12636
v 0.02088 -0.02792 -0.14985
v 0.02129 0.01569 -0.09924
v 0.02132 0.01717 -0.06127
v 0.02154 -0.02424 -0.06135
v 0.02170 -0.01552 -0.17464
v 0.02174 0.00883 -0.16555
v 0.02177 0.01357 -0.13118
v 0.02188 -0.02528 -0.08110
v 0.02201 -0.02443 -0.11557
v 0.02203 -0.02555 -0.13289
v 0.02205 0.01182 -0.11974
v 0.02222 0.01766 -0.03688
v 0.02222 -0.02694 -0.14785
v 0.02226 -0.01608 -0.02768
v 0.02228 -0.02022 -0.03022
v 0.02229 -0.01998 -0.04026
v 0.02230 -0.02526 -0.12541
v 0.02232 0.01238 -0.11259
v 0.02240 0.00317 -0.17159
v 0.02243 -0.02438 -0.06555
v 0.02247 -0.01686 -0.16933
v 0.02259 -0.02390 -0.07788
v 0.02269 -0.02135 -0.16299
v 0.02277 -0.02647 -0.15190
v 0.02280 -0.00803 -0.17445
v 0.02281 -0.01945 -0.03564
v 0.02286 -0.00431 -0.02536
v 0.02290 0.01071 -0.14834
v 0.02292 0.01547 -0.07072
v 0.02304 -0.02494 -0.14239
v 0.02307 0.01502 -0.08916
v 0.02314 -0.02352 -0.11619
v 0.02324 -0.01350 -0.17309
v 0.02324 -0.02218 -0.05589
v 0.02346 -0.01283 -0.02646
v 0.02350 -0.02389 -0.10842
v 0.02356 -0.00086 -0.17175
v 0.02357 -0.00457 -0.17340
v 0.02358 0.01408 -0.09854
v 0.02361 0.01633 -0.05200
v 0.02373 0.00387 -0.17045
v 0.02379 -0.02459 -0.13071
v 0.02386 0.01088 -0.10483
v 0.02402 -0.02497 -0.08522
v 0.02403 0.01455 -0.04349
v 0.02416 0.01120 -0.12916
v 0.02416 -0.02363 -0.08091
v 0.02416 0.01439 -0.04606
v 0.02432 0.01624 -0.03810
v 0.02439 -0.02413 -0.09980
v 0.02445 0.01215 -0.03057
v 0.02445 -0.02275 -0.07767
v 0.02471 0.00870 -0.15594
v 0.02480 -0.01884 -0.02859
v 0.02483 -0.01139 -0.16818
v 0.02490 0.00723 -0.16124
v 0.02499 -0.00956 -0.17242
v 0.02519 0.00115 -0.16956
v 0.02524 0.00320 -0.16594
v 0.02532 0.01525 -0.03506
v 0.02541 -0.02227 -0.06117
v 0.02548 -0.02416 -0.09212
v 0.02557 -0.00081 -0.16889
v 0.02565 -0.02196 -0.15312
v 0.02573 -0.00769 -0.17167
v 0.02600 -0.00336 -0.17050
v 0.02602 -0.00527 -0.17128
v 0.02604 -0.01963 -0.15825
v 0.02611 -0.01783 -0.04289
v 0.02619 -0.00673 -0.16587
v 0.02624 -0.02231 -0.14715
v 0.02625 -0.01949 -0.04814
v 0.02634 0.01064 -0.08128
v 0.02636 -0.01739 -0.02797
v 0.02637 0.01153 -0.06561
v 0.02638 -0.00004 -0.02498
v 0.02638 -0.00261 -0.16600
v 0.02639 0.01187 -0.04412
v 0.02646 0.00715 -0.12161
v 0.02653 0.00177 -0.02510
v 0.02667 -0.01596 -0.02814
v 0.02672 0.01198 -0.09072
v 0.02682 0.00736 -0.15515
v 0.02687 -0.02078 -0.10731
v 0.02691 0.01219 -0.07456
v 0.02699 -0.01683 -0.16036
v 0.02706 0.00817 -0.14443
v 0.02711 0.01387 -0.03391
v 0.02713 -0.02035 -0.06798
v 0.02738 -0.01532 -0.16105
v 0.02763 -0.00877 -0.02665
v 0.02763 -0.01610 -0.03437
v 0.02763 -0.00373 -0.16195
v 0.02771 -0.01114 -0.16217
v 0.02796 -0.01854 -0.12334
v 0.02798 -0.01830 -0.12860
v 0.02800 -0.01909 -0.10785
v 0.02809 0.00380 -0.15648
v 0.02815 -0.01182 -0.02704
v 0.02819 -0.02097 -0.13577
v 0.02820 0.00695 -0.10871
v 0.02825 0.01283 -0.03260
v 0.02829 -0.01451 -0.02828
v 0.02831 -0.00391 -0.16051
v 0.02832 0.00566 -0.12806
v 0.02833 0.00764 -0.15142
v 0.02835 0.01266 -0.03600
v 0.02838 0.00526 -0.11472
v 0.02845 -0.02152 -0.08934
v 0.02849 0.00877 -0.09716
v 0.02869 0.00592 -0.02693
v 0.02883 0.00648 -0.08129
v 0.02892 -0.01791 -0.06057
v 0.02900 0.00661 -0.15265
v 0.02905 -0.01300 -0.02774
v 0.02909 0.00860 -0.07645
v 0.02921 0.00610 -0.14521
v 0.02922 0.00904 -0.07369
v 0.02945 0.00951 -0.04053
v 0.02949 -0.00016 -0.15250
v 0.02956 0.00682 -0.10367
v 0.02965 0.00178 -0.12451
v 0.02976 -0.01745 -0.08459
v 0.02977 0.00624 -0.14938
v 0.02982 0.00582 -0.13560
v 0.02982 0.00613 -0.14039
v 0.02984 -0.00352 -0.15413
v 0.02985 -0.01123 -0.02838
v 0.02998 0.00581 -0.09392
v 0.03008 0.00593 -0.08927
v 0.03011 0.00607 -0.06591
v 0.03013 -0.00342 -0.14807
v 0.03023 0.00406 -0.15072
v 0.03024 -0.01647 -0.05097
v 0.03024 -0.01621 -0.13241
v 0.03024 0.00192 -0.11508
v 0.03029 -0.01416 -0.04582
v 0.03032 0.00893 -0.05930
v 0.03040 -0.01920 -0.09691
v 0.03048 -0.01442 -0.10808
v 0.03049 -0.00738 -0.02754
v 0.03054 0.00192 -0.14361
v 0.03057 0.00759 -0.02887
v 0.03059 0.00210 -0.11045
v 0.03065 -0.01269 -0.03768
v 0.03069 -0.01425 -0.07719
v 0.03079 -0.01690 -0.11767
v 0.03083 -0.01758 -0.15527
v 0.03090 -0.01653 -0.11561
v 0.03092 0.00978 -0.03191
v 0.03108 -0.00419 -0.13988
v 0.03110 0.00231 -0.07100
v 0.03110 -0.00473 -0.02713
v 0.03110 -0.01427 -0.11180
v 0.03115 -0.00365 -0.12704
v 0.03116 -0.00034 -0.02613
v 0.03124 -0.01332 -0.12300
v 0.03130 -0.00771 -0.14410
v 0.03130 0.00357 -0.13747
v 0.03130 -0.00921 -0.03283
v 0.03138 -0.00903 -0.12461
v 0.03141 -0.00824 -0.15546
v 0.03151 -0.00272 -0.02666
v 0.03156 -0.01368 -0.06951
v 0.03159 -0.00428 -0.11509
v 0.03160 0.00151 -0.10637
v 0.03163 0.00538 -0.03883
v 0.03168 -0.00434 -0.13342
v 0.03169 -0.00278 -0.07707
v 0.03178 0.00871 -0.03101
v 0.03182 -0.00452 -0.12052
v 0.03182 0.00206 -0.06471
v 0.03183 -0.01301 -0.15597
v 0.03193 -0.01314 -0.14099
v 0.03199 -0.00903 -0.11015
v 0.03200 -0.01148 -0.13481
v 0.03201 -0.00065 -0.02629
v 0.03202 -0.01697 -0.15216
v 0.03205 0.00190 -0.13886
v 0.03206 0.00648 -0.05202
v 0.03214 -0.00949 -0.12169
v 0.03216 -0.01161 -0.04684
v 0.03219 -0.01181 -0.12973
v 0.03223 0.00566 -0.05943
v 0.03227 -0.00782 -0.07728
v 0.03234 -0.00862 -0.10616
v 0.03241 -0.01005 -0.11207
v 0.03250 -0.00084 -0.09127
v 0.03251 -0.00588 -0.07472
v 0.03268 0.00212 -0.02674
v 0.03269 0.00200 -0.10233
v 0.03280 -0.00283 -0.03325
v 0.03280 0.00693 -0.03152
v 0.03285 -0.01364 -0.10074
v 0.03286 -0.01346 -0.06218
v 0.03301 -0.01432 -0.14828
v 0.03304 0.00327 -0.02745
v 0.03313 -0.01280 -0.09659
v 0.03319 0.00554 -0.04758
v 0.03319 0.00568 -0.02989
v 0.03320 -0.00306 -0.08523
v 0.03322 0.00023 -0.03614
v 0.03326 0.00059 -0.03000
v 0.03328 -0.00975 -0.06756
v 0.03329 -0.01101 -0.15164
v 0.03338 -0.00447 -0.03653
v 0.03340 -0.01245 -0.15227
v 0.03341 0.00114 -0.04039
v 0.03358 -0.01130 -0.05520
v 0.03361 -0.00008 -0.09938
v 0.03363 0.00315 -0.03118
v 0.03372 -0.00635 -0.09046
v 0.03392 -0.00110 -0.10134
v 0.03392 -0.00991 -0.06156
v 0.03405 0.00076 -0.05279
v 0.03406 -0.00167 -0.04231
v 0.03415 -0.00641 -0.05597
v 0.03421 -0.01155 -0.11718
v 0.03422 -0.01203 -0.11549
v 0.03435 -0.00329 -0.04861
v 0.03443 -0.00449 -0.09784
v 0.03485 0.00225 -0.04912
vn -0.9379 -0.2719 0.2156
vn -0.9027 0.3887 -0.1846
vn -0.8114 0.4610 0.3592
vn -0.7864 -0.4684 -0.4028
vn -0.2436 0.1026 -0.9644
vn -0.9300 0.1103 0.3507
vn -0.8725 -0.4191 -0.2513
vn -0.7149 -0.6764 0.1773
vn -0.7602 0.6323 -0.1490
vn -0.3079 -0.7840 -0.5391
vn -0.8180 -0.3182 0.4792
vn -0.1415 0.0483 -0.9888
vn -0.4748 0.8799 -0.0204
vn -0.6189 0.7310 0.2872
vn -0.4355 -0.5706 -0.6963
vn -0.5757 -0.7992 0.1726
vn 0.2272 -0.4055 -0.8854
vn -0.5748 0.7757 0.2606
vn -0.7605 -0.0575 0.6468
vn -0.8664 0.1132 0.4863
vn 0.2751 0.4740 -0.8365
vn -0.1191 -0.9370 -0.3283
vn -0.0773 -0.8676 -0.4912
vn -0.7118 -0.5675 0.4139
vn -0.7359 -0.5883 0.3351
vn 0.3526 -0.1981 -0.9146
vn 0.2063 0.7177 -0.6651
vn 0.1872 0.2873 -0.9394
vn -0.0396 0.9521 -0.3033
vn -0.3200 0.9474 -0.0110
vn -0.5930 0.4755 0.6499
vn -0.3193 -0.9322 -0.1707
vn -0.7282 0.1915 0.6581
vn -0.2460 -0.9638 -0.1028
vn -0.8413 -0.3287 0.4291
vn -0.8664 0.1722 0.4688
vn -0.2203 0.8851 0.4099
vn -0.7033 -0.7076 -0.0688
vn -0.4263 0.9018 0.0712
vn -0.8940 -0.4175 0.1626
vn -0.6775 0.7093 0.1947
vn -0.4562 -0.8880 0.0584
vn 0.0687 -0.7996 -0.5965
vn -0.8306 0.2464 0.4995
vn 0.3088 -0.6414 -0.7023
vn -0.0038 -0.9325 -0.3610
vn 0.2102 0.9540 -0.2139
vn -0.4992 -0.7390 -0.4525
vn 0.3392 -0.3609 -0.8687
vn -0.8312 0.4134 0.3718
vn 0.4137 0.1566 -0.8968
vn -0.5688 0.6138 0.5475
vn -0.2034 0.9420 -0.2671
vn -0.7050 -0.6428 0.2996
vn -0.9163 0.1983 0.3480
vn -0.8174 -0.5572 -0.1461
vn -0.9222 -0.0008 0.3868
vn -0.8939 -0.2015 0.4003
vn 0.1399 0.4116 -0.9006
vn -0.2356 -0.5293 -0.8151
vn -0.6836 -0.5910 -0.4283
vn -0.5429 0.8373 -0.0647
vn 0.3137 -0.4270 -0.8481
vn -0.4313 -0.8825 -0.1875
vn -0.9114 -0.3807 0.1564
vn -0.7988 0.4178 0.4328
vn -0.6285 0.5311 -0.5682
vn -0.8712 0.4729 0.1321
vn -0.7879 0.5844 -0.1941
vn -0.9601 0.0238 0.2786
vn 0.1225 0.9801 0.1564
vn -0.7572 0.6514 0.0481
vn -0.2286 0.9222 0.3120
vn 0.1524 -0.1337 -0.9792
vn -0.0404 -0.8313 -0.5543
vn -0.9117 -0.4045 0.0718
vn -0.9595 0.2482 0.1335
vn -0.7598 -0.5316 0.3742
vn -0.9873 -0.1145 0.1097
vn -0.8834 0.4449 0.1471
vn -0.9570 0.1943 -0.2155
vn 0.3504 0.4672 -0.8118
vn 0.1203 -0.6094 -0.7837
vn -0.9953 0.0586 0.0771
vn -0.3661 -0.5280 -0.7662
vn -0.8735 -0.4090 -0.2641
vn -0.5592 0.7374 0.3788
vn -0.9925 0.0144 -0.1211
vn -0.9813 -0.1652 0.0989
vn -0.9732 -0.2163 0.0779
vn -0.8482 0.1089 -0.5184
vn -0.9386 -0.3206 0.1277
vn 0.3372 0.8855 -0.3196
vn -0.8760 0.3031 0.3753
vn -0.9371 0.3437 -0.0606
vn -0.9708 0.2046 0.1250
vn -0.9326 0.1391 -0.3332
vn -0.9334 -0.2994 -0.1981
vn -0.9819 -0.1438 -0.1236
vn -0.9635 -0.2377 0.1228
vn -0.8247 0.5631 0.0524
vn -0.5933 0.2507 -0.7650
vn -0.9594 -0.0007 0.2822
vn -0.9796 -0.1893 0.0671
vn -0.6686 -0.7209 0.1824
vn -0.9902 0.1293 0.0528
vn -0.9271 0.3074 -0.2146
vn -0.3747 -0.2944 -0.8792
vn -0.8159 -0.5576 -0.1534
vn -0.9980 -0.0548 0.0323
vn -0.9560 0.0070 0.2934
vn -0.9628 -0.1861 0.1961
vn -0.6898 -0.4250 -0.5861
vn -0.9676 0.2210 0.1222
vn -0.9432 -0.2834 0.1736
vn 0.0157 0.1298 -0.9914
vn -0.8107 0.5779 0.0940
vn -0.8710 -0.2369 -0.4303
vn -0.7148 0.6284 0.3069
vn -0.9130 0.1765 -0.3678
vn -0.8541 -0.5176 -0.0513
vn -0.8760 0.2709 0.3991
vn -0.8322 -0.5276 0.1704
vn -0.9430 0.0644 0.3265
vn -0.1986 -0.7052 -0.6806
vn -0.9378 0.3401 -0.0700
vn -0.9667 -0.0315 -0.2541
vn -0.9817 0.0802 0.1727
vn -0.7641 0.3677 -0.5300
vn -0.9388 -0.2037 -0.2776
vn -0.9364 -0.2168 0.2760
vn -0.9766 0.1372 -0.1654
vn -0.9820 0.1539 0.1095
vn -0.8450 -0.5285 0.0813
vn -0.9108 0.0069 -0.4127
vn -0.8901 0.2889 -0.3526
vn -0.9984 0.0534 0.0205
vn -0.6327 0.1851 -0.7519
vn -0.4018 -0.7573 -0.5148
vn 0.0248 0.9978 0.0623
vn -0.9674 -0.2176 -0.1294
vn -0.6750 -0.6196 -0.4006
vn -0.9816 -0.1679 0.0906
vn -0.9260 0.3412 -0.1615
vn -0.9757 0.1183 0.1843
vn -0.9302 -0.1260 0.3448
vn -0.9897 -0.0800 -0.1191
vn -0.9964 0.0149 -0.0829
vn -0.4966 0.8577 -0.1334
vn -0.9604 0.2682 0.0757
vn -0.4686 0.8691 0.1584
vn -0.9903 0.1300 -0.0498
vn -0.9904 0.0505 0.1288
vn -0.7933 -0.5957 0.1255
vn -0.9278 -0.3731 -0.0066
vn -0.8471 -0.3267 -0.4190
vn -0.9570 -0.0480 -0.2860
vn 0.0771 -0.6595 0.7477
vn -0.9019 0.1457 0.4066
vn -0.9917 -0.1048 -0.0746
vn -0.6928 0.2078 -0.6906
vn -0.9845 0.0450 -0.1696
vn -0.7778 0.3570 -0.5173
vn -0.9090 -0.3691 -0.1936
vn -0.4955 0.1646 -0.8529
vn 0.1277 -0.1728 0.9767
vn -0.9221 0.3092 0.2326
vn -0.9783 0.1848 0.0934
vn -0.9710 0.2280 -0.0718
vn -0.9820 -0.1771 0.0655
vn -0.6799 -0.0389 0.7323
vn 0.0304 0.5180 -0.8548
vn -0.5764 0.6590 0.4833
vn -0.9816 0.1737 0.0797
vn -0.9653 0.1485 -0.2147
vn -0.9947 0.0970 -0.0328
vn -0.9895 0.1352 0.0514
vn -0.9199 0.3679 0.1357
vn -0.9716 -0.0865 0.2203
vn -0.9536 -0.2556 -0.1594
vn -0.4967 0.8487 0.1817
vn -0.5423 0.3123 -0.7800
vn -0.9613 -0.0064 0.2754
vn -0.8801 0.3799 0.2846
vn -0.9957 -0.0502 0.0777
vn -0.9614 0.1794 0.2086
vn -0.3979 -0.0328 0.9168
vn 0.6281 -0.3733 0.6827
vn -0.9914 0.1124 0.0669
vn -0.6488 -0.6720 0.3570
vn -0.8493 0.3183 0.4211
vn 0.7526 -0.0163 0.6583
vn -0.9858 -0.1546 0.0656
vn -0.3078 -0.5231 0.7948
vn -0.7143 -0.3439 0.6095
vn -0.9810 -0.1629 -0.1054
vn -0.6727 0.1813 0.7173
vn -0.8314 -0.5343 0.1524
vn -0.9052 -0.4248 0.0093
vn -0.9861 0.1590 -0.0483
vn -0.8615 -0.5069 -0.0275
vn -0.9643 0.2647 0.0057
vn 0.2813 -0.0730 0.9569
vn 0.4600 0.1110 0.8809
vn -0.8733 0.2552 0.4150
vn 0.1976 -0.2322 0.9524
vn -0.8196 0.3008 0.4876
vn -0.8736 0.4388 -0.2102
vn -0.9786 -0.1230 0.1652
vn 0.2105 0.0691 0.9752
vn -0.6346 0.2742 -0.7226
vn -0.9648 -0.0541 -0.2574
vn -0.9045 -0.4237 0.0492
vn -0.9223 0.3045 0.2382
vn -0.2468 0.6200 0.7448
vn -0.6747 0.6894 0.2636
vn -0.9415 0.2264 0.2497
vn 0.3214 0.0709 0.9443
vn -0.9643 0.1604 -0.2109
vn -0.9590 0.2189 0.1802
vn -0.4991 -0.8477 -0.1797
vn -0.8619 0.4064 -0.3034
vn -0.9748 0.2066 0.0841
vn -0.9890 0.0505 -0.1391
vn -0.8099 0.5676 0.1480
vn 0.6235 0.2547 0.7392
vn -0.7614 0.2112 0.6129
vn -0.7387 0.6741 -0.0063
vn -0.9943 -0.1038 0.0238
vn -0.9799 -0.1876 0.0686
vn 0.4490 -0.1386 0.8827
vn -0.8600 -0.5065 0.0621
vn -0.5741 -0.7561 -0.3141
vn -0.9398 0.3194 0.1216
vn -0.4982 0.7245 -0.4763
vn 0.1809 0.8994 -0.3980
vn 0.3166 0.8997 -0.3005
vn -0.7493 -0.3339 0.5720
vn -0.7960 0.5159 0.3165
vn -0.9815 0.1743 0.0796
vn -0.2162 0.6594 0.7201
vn -0.9924 -0.0473 -0.1138
vn -0.9678 0.2465 -0.0501
vn -0.7674 0.1614 0.6205
vn -0.6206 0.7624 0.1834
vn -0.6192 -0.7791 0.0981
vn -0.7265 -0.6864 0.0339
vn 0.4718 0.1889 0.8612
vn -0.8741 0.4608 0.1539
vn 0.5892 0.1706 0.7898
vn -0.9815 0.1273 0.1434
vn -0.9388 -0.3397 0.0568
vn -0.9771 0.1692 -0.1292
vn -0.9825 -0.1054 0.1533
vn -0.9829 0.1836 -0.0102
vn -0.5114 0.0548 -0.8576
vn -0.7702 -0.6204 0.1478
vn -0.7980 0.5704 0.1945
vn -0.8918 0.4081 -0.1955
vn -0.9806 0.1382 0.1388
vn -0.2853 0.7546 0.5910
vn -0.9918 -0.1250 0.0281
vn -0.9924 0.1190 -0.0302
vn 0.3461 0.1922 0.9183
vn -0.9090 -0.0257 0.4161
vn -0.9928 0.1192 -0.0077
vn -0.9390 0.3432 -0.0231
vn -0.9703 0.2176 -0.1056
vn -0.9420 0.2801 0.1848
vn 0.5380 0.4771 0.6949
vn -0.6309 0.7758 0.0049
vn -0.9998 -0.0161 -0.0119
vn -0.9916 0.0122 0.1289
vn -0.9897 0.1261 0.0684
vn -0.2431 0.9628 0.1185
vn -0.5768 0.7429 -0.3397
vn -0.8982 -0.3749 0.2294
vn -0.9112 0.2237 -0.3459
vn -0.9300 0.1688 0.3265
vn -0.9635 -0.2660 -0.0307
vn -0.7137 0.6983 0.0548
vn -0.9996 -0.0249 0.0164
vn -0.1912 0.0999 0.9764
vn -0.9067 -0.4014 -0.1292
vn -0.8496 0.5135 -0.1202
vn -0.1228 0.3793 0.9171
vn -0.8402 0.5202 0.1532
vn -0.1987 0.9332 -0.2994
vn -0.2840 -0.1310 0.9498
vn -0.7726 -0.5873 -0.2412
vn 0.3042 0.5366 0.7871
vn -0.9679 0.1741 -0.1811
vn -0.9987 0.0176 -0.0486
vn -0.8973 -0.4324 -0.0889
vn -0.9888 -0.0476 0.1415
vn -0.9131 -0.3947 0.1024
vn -0.9717 0.1832 -0.1491
vn -0.9908 0.1354 0.0055
vn -0.9674 0.2222 0.1216
vn -0.9123 0.4074 -0.0424
vn -0.8183 -0.5716 0.0595
vn -0.9359 -0.3283 -0.1275
vn 0.0297 0.7391 0.6730
vn -0.8550 -0.4845 0.1850
vn -0.7991 0.4795 0.3628
vn -0.8210 0.5705 0.0223
vn -0.4744 0.7980 -0.3716
vn -0.5681 0.3292 -0.7542
vn -0.9219 0.3870 -0.0171
vn -0.7360 0.6439 -0.2090
vn -0.5484 0.6354 0.5436
vn -0.7146 -0.6947 0.0822
vn -0.8770 0.4417 -0.1894
vn 0.1002 0.9633 -0.2490
vn -0.7787 0.6261 -0.0400
vn -0.2962 -0.2204 0.9294
vn -0.9778 0.1915 0.0845
vn -0.0414 0.9882 -0.1474
vn -0.6543 -0.7478 -0.1127
vn -0.7590 -0.6489 0.0543
vn -0.7880 -0.6075 0.0999
vn -0.5415 0.8407 -0.0054
vn -0.2214 -0.3151 0.9229
vn -0.4182 0.5309 0.7371
vn -0.8366 0.5470 0.0296
vn -0.5618 0.3363 -0.7558
vn -0.9699 0.2143 -0.1156
vn -0.5257 0.8446 0.1017
vn -0.7909 -0.6119 -0.0093
vn -0.5056 0.8589 -0.0815
vn -0.8090 -0.5839 -0.0672
vn -0.1328 0.9849 -0.1112
vn -0.8038 -0.5949 0.0032
vn -0.4932 0.8628 0.1112
vn -0.7888 -0.5900 0.1723
vn -0.4313 0.2480 -0.8674
vn -0.6666 -0.4921 -0.5599
vn -0.4966 -0.7619 -0.4158
vn -0.8748 0.4753 0.0937
vn -0.3422 0.1198 -0.9320
vn -0.7428 0.6679 -0.0470
vn -0.7423 -0.6518 0.1555
vn -0.6981 -0.7143 0.0483
vn -0.2415 0.0253 0.9701
vn -0.3364 0.2627 0.9044
vn -0.5449 0.2541 -0.7991
vn -0.6088 0.7899 0.0730
vn -0.2588 0.9603 0.1038
vn -0.5235 -0.8408 -0.1380
vn -0.5877 -0.5264 -0.6144
vn -0.2482 -0.2198 0.9435
vn -0.4599 -0.8038 -0.3773
vn -0.7787 -0.6231 0.0734
vn -0.7056 0.7043 -0.0782
vn -0.3788 0.7266 -0.5731
vn -0.7227 0.6756 -0.1458
vn -0.8444 -0.5191 -0.1321
vn -0.5898 0.7709 0.2407
vn -0.8319 -0.5538 0.0341
vn -0.2776 -0.0726 -0.9580
vn -0.5664 -0.8215 0.0660
vn -0.4761 -0.8791 -0.0205
vn -0.6388 0.7169 0.2793
vn -0.6981 -0.7099 -0.0933
vn -0.7414 -0.6673 0.0711
vn -0.6990 0.7147 -0.0251
vn -0.5452 -0.8294 0.1223
vn -0.1176 -0.4391 -0.8907
vn -0.3426 0.9361 -0.0798
vn -0.6907 -0.7060 0.1564
vn -0.3627 0.2490 -0.8980
vn -0.3047 0.8345 -0.4591
vn -0.8412 -0.5096 0.1805
vn -0.1401 0.0242 -0.9898
vn -0.6933 -0.7186 0.0553
vn -0.5575 0.8300 0.0190
vn -0.5800 -0.8144 -0.0176
vn -0.5424 -0.8249 0.1593
vn -0.4827 0.7571 0.4403
vn -0.2053 0.2113 -0.9556
vn -0.2179 -0.9652 -0.1444
vn -0.2288 0.9735 -0.0030
vn -0.7704 -0.6239 0.1313
vn -0.3791 0.9249 0.0285
vn -0.6915 -0.7146 0.1057
vn -0.3974 0.5555 0.7304
vn -0.3124 -0.2848 0.9063
vn -0.7306 -0.6663 0.1494
vn -0.5740 -0.8135 -0.0939
vn -0.4630 -0.8863 0.0082
vn -0.0138 -0.5416 -0.8405
vn -0.3011 0.9433 0.1399
vn -0.3495 -0.4486 0.8226
vn -0.6559 -0.7542 -0.0320
vn -0.3277 0.2009 -0.9232
vn -0.2611 0.5224 -0.8118
vn -0.5322 0.8199 0.2110
vn -0.4306 0.8941 -0.1230
vn -0.0353 0.8927 -0.4492
vn -0.5182 -0.8503 0.0916
vn -0.4918 -0.8313 -0.2590
vn -0.2115 0.9771 0.0245
vn 0.0365 0.9822 -0.1842
vn -0.5123 0.8587 0.0164
vn -0.5935 0.7755 -0.2155
vn -0.7133 -0.6990 0.0514
vn -0.6241 -0.7797 0.0513
vn -0.1911 0.9721 -0.1363
vn -0.4116 -0.9086 -0.0705
vn -0.2707 -0.9359 -0.2256
vn -0.3293 0.9440 0.0178
vn -0.4697 -0.8828 -0.0015
vn -0.5213 0.8533 0.0075
vn -0.2531 -0.9581 0.1340
vn -0.1731 0.9776 -0.1201
vn 0.0623 -0.2050 -0.9768
vn 0.0768 0.9806 -0.1802
vn -0.3831 -0.9234 0.0220
vn -0.4285 -0.8928 0.1386
vn -0.4468 -0.8934 0.0480
vn -0.3279 -0.9433 -0.0505
vn -0.2254 0.0223 0.9740
vn -0.5074 -0.8613 0.0275
vn -0.3258 -0.9417 -0.0838
vn -0.1737 0.1925 -0.9658
vn -0.0640 0.9969 0.0450
vn -0.2490 -0.1240 0.9605
vn -0.1154 0.1510 -0.9818
vn -0.2776 -0.9551 0.1030
vn -0.4691 -0.8829 -0.0207
vn -0.2659 -0.9635 -0.0316
vn 0.0032 0.0042 -1.0000
vn -0.3059 0.9198 -0.2459
vn -0.2650 0.9372 0.2267
vn -0.1983 0.7722 0.6037
vn -0.0712 0.9972 0.0225
vn -0.0849 0.9961 0.0245
vn -0.2459 -0.5313 0.8107
vn -0.5434 -0.8391 -0.0227
vn -0.1310 -0.7691 0.6255
vn -0.1124 0.9921 0.0564
vn -0.1552 0.1912 -0.9692
vn 0.1775 0.9797 -0.0927
vn -0.6016 -0.7930 0.0954
vn -0.3201 -0.9236 -0.2111
vn -0.2229 0.9634 -0.1490
vn -0.3722 -0.9279 0.0211
vn -0.1293 0.9898 -0.0590
vn -0.2816 -0.9595 0.0082
vn -0.2401 0.0686 0.9683
vn -0.0688 -0.9968 0.0411
vn -0.3271 -0.9381 -0.1140
vn -0.1526 0.9874 -0.0420
vn -0.0463 0.7323 -0.6794
vn -0.2164 0.3379 0.9160
vn -0.0691 0.9963 -0.0518
vn -0.4374 -0.8905 0.1255
vn -0.1871 0.6608 0.7268
vn -0.2968 0.9509 0.0871
vn 0.0980 0.9856 -0.1380
vn -0.1250 0.9914 -0.0390
vn -0.0287 0.9825 0.1842
vn -0.3124 -0.9452 0.0946
vn -0.2095 -0.0334 0.9772
vn 0.0284 0.9914 -0.1280
vn -0.3633 0.9313 0.0258
vn -0.1752 -0.9835 -0.0446
vn 0.1321 0.9742 -0.1832
vn 0.1000 0.8498 0.5175
vn -0.1584 -0.9873 0.0075
vn -0.1065 0.4469 -0.8882
vn 0.0419 0.9990 0.0176
vn -0.0013 0.9847 0.1741
vn -0.0414 0.1689 -0.9848
vn -0.3554 -0.9323 0.0672
vn 0.1420 0.4926 0.8586
vn 0.0452 0.9714 -0.2330
vn 0.0151 0.1267 -0.9918
vn -0.0339 -0.7013 -0.7121
vn -0.2144 -0.9762 0.0322
vn 0.0832 0.9829 -0.1642
vn -0.1936 -0.5863 0.7866
vn 0.0775 0.9863 0.1458
vn 0.2579 -0.1949 -0.9463
vn 0.1158 0.7321 0.6713
vn -0.0854 0.9378 -0.3365
vn -0.1534 -0.8418 0.5175
vn -0.2130 -0.9753 0.0582
vn -0.4732 -0.8805 -0.0282
vn -0.3983 -0.9130 0.0881
vn -0.2123 -0.9763 0.0430
vn 0.2115 -0.0807 -0.9740
vn -0.1237 0.1155 0.9856
vn 0.0751 0.9972 0.0046
vn -0.2049 -0.9781 0.0371
vn -0.0816 -0.9967 0.0056
vn -0.1802 -0.9534 -0.2419
vn 0.0972 0.9952 0.0147
vn -0.1031 -0.9655 -0.2391
vn 0.2050 0.9585 0.1980
vn 0.2919 0.9563 -0.0198
vn 0.1329 0.9828 -0.1281
vn -0.1362 0.9902 0.0303
vn 0.2098 0.0705 -0.9752
vn 0.1084 0.9938 -0.0248
vn 0.1009 0.9213 -0.3756
vn 0.0761 0.1302 -0.9886
vn 0.1381 0.9856 -0.0976
vn 0.0844 -0.9797 -0.1817
vn 0.1133 0.4017 -0.9088
vn -0.0449 0.9976 -0.0521
vn 0.1496 0.9864 -0.0677
vn -0.1885 -0.2014 0.9612
vn -0.1694 -0.7860 0.5945
vn -0.2362 -0.9706 0.0461
vn 0.1052 0.9944 0.0074
vn 0.1671 0.1457 -0.9751
vn -0.1258 -0.9869 0.1011
vn -0.1089 0.9937 0.0272
vn 0.0126 -0.9978 0.0649
vn 0.1306 0.6971 -0.7050
vn -0.2193 -0.9485 0.2287
vn 0.0804 0.9921 0.0960
vn 0.2867 0.9508 0.1174
vn 0.2313 0.9729 0.0071
vn -0.2187 -0.9725 0.0808
vn -0.1633 0.9717 -0.1709
vn 0.2939 0.9548 -0.0441
vn -0.0567 0.9984 0.0060
vn 0.2463 0.9319 0.2661
vn -0.1838 -0.9828 0.0166
vn 0.0714 0.3640 0.9287
vn -0.1889 -0.9766 0.1032
vn -0.2237 -0.9668 -0.1238
vn 0.4369 0.8254 -0.3576
vn 0.2518 0.9599 -0.1230
vn 0.0628 0.9967 -0.0512
vn 0.2907 0.9439 -0.1569
vn 0.0113 -0.9390 -0.3438
vn 0.2699 -0.2635 -0.9261
vn 0.1937 0.8527 -0.4851
vn 0.0564 0.8523 -0.5200
vn 0.3141 -0.1115 -0.9428
vn -0.1247 -0.9920 0.0190
vn -0.1596 -0.9803 -0.1165
vn -0.1885 -0.9805 0.0560
vn 0.1813 0.7365 0.6517
vn -0.0808 -0.9939 0.0745
vn -0.1533 0.0413 0.9873
vn 0.2105 0.0749 -0.9747
vn 0.6063 0.7886 -0.1025
vn 0.2633 0.9627 -0.0618
vn 0.4266 0.2391 -0.8723
vn 0.3764 0.9252 0.0487
vn 0.0080 1.0000 -0.0058
vn 0.1773 0.8919 0.4159
vn -0.1100 -0.9925 -0.0536
vn 0.5296 0.5926 -0.6069
vn -0.0062 -0.5424 0.8401
vn 0.4421 0.8912 -0.1017
vn 0.1825 0.5988 0.7798
vn 0.4981 0.7941 -0.3482
vn -0.0824 0.9966 -0.0060
vn 0.2948 -0.9130 -0.2820
vn 0.1862 0.9764 -0.1091
vn -0.0740 -0.0725 0.9946
vn -0.1832 -0.6600 0.7286
vn -0.0724 -0.9718 0.2244
vn 0.3161 -0.1034 -0.9431
vn 0.0805 -0.1560 0.9845
vn 0.3567 -0.1339 -0.9246
vn -0.1121 -0.7545 0.6467
vn 0.4972 0.2137 -0.8409
vn 0.3223 -0.9052 -0.2770
vn -0.1272 -0.7756 0.6182
vn 0.0653 0.3451 0.9363
vn 0.0351 -0.9972 -0.0653
vn 0.2781 0.9571 -0.0814
vn 0.5267 0.8497 -0.0243
vn -0.0620 -0.9980 0.0121
vn -0.1852 -0.9814 0.0513
vn 0.4912 0.8278 -0.2710
vn 0.0962 -0.9950 -0.0283
vn 0.0845 0.0237 0.9961
vn -0.0887 -0.9958 -0.0225
vn -0.1054 -0.7204 0.6855
vn 0.2920 0.9564 -0.0031
vn 0.2698 0.9624 -0.0333
vn 0.4973 0.1066 -0.8610
vn 0.1646 -0.8726 -0.4600
vn 0.4949 0.8657 -0.0755
vn -0.2478 -0.9596 0.1333
vn -0.0199 -0.9795 0.2005
vn 0.6064 0.6715 -0.4259
vn -0.2469 -0.9658 0.0788
vn -0.1779 -0.9799 -0.0898
vn 0.3263 0.9447 0.0336
vn 0.4684 0.8823 -0.0464
vn 0.4809 0.8743 -0.0656
vn 0.6901 0.2656 -0.6733
vn 0.1071 -0.9877 0.1138
vn 0.0726 -0.9968 0.0331
vn 0.1724 0.9847 -0.0255
vn 0.1785 0.9764 -0.1213
vn 0.3942 -0.1120 -0.9122
vn 0.4656 0.8760 -0.1257
vn 0.6164 0.7829 -0.0842
vn 0.2192 0.9640 0.1505
vn 0.5310 0.8388 -0.1206
vn 0.3735 -0.1864 -0.9087
vn 0.3164 0.9438 -0.0951
vn 0.5425 0.8242 -0.1623
vn 0.1435 0.9871 -0.0716
vn 0.0388 -0.9981 -0.0474
vn 0.1914 0.9801 -0.0530
vn 0.1220 -0.9594 0.2543
vn 0.0134 0.9971 0.0754
vn 0.2139 -0.8600 -0.4632
vn 0.1407 -0.9612 0.2374
vn 0.1024 0.9387 0.3291
vn 0.6552 0.7413 -0.1458
vn 0.3912 0.9174 -0.0730
vn -0.0401 -0.9991 0.0112
vn 0.3655 0.9277 -0.0762
vn 0.6336 0.2640 -0.7272
vn -0.0337 -0.9990 -0.0277
vn 0.5665 -0.7721 -0.2881
vn 0.5221 -0.7978 -0.3016
vn 0.1072 -0.9935 -0.0389
vn 0.3705 -0.9191 0.1345
vn -0.0195 -0.9982 0.0570
vn 0.1614 0.9686 0.1891
vn 0.4237 -0.0991 -0.9004
vn 0.0228 -0.9320 0.3617
vn 0.3957 0.9159 0.0678
vn -0.0136 -0.9983 0.0570
vn 0.6404 0.5792 -0.5043
vn 0.4452 0.8745 0.1925
vn 0.4434 -0.7543 -0.4842
vn 0.1224 -0.9918 0.0374
vn 0.1294 -0.9882 -0.0821
vn 0.2579 -0.9657 0.0304
vn 0.1032 -0.2513 0.9624
vn 0.6495 0.7603 -0.0102
vn 0.1437 0.7407 0.6562
vn 0.4405 0.8934 0.0880
vn 0.3556 0.9344 -0.0218
vn 0.2173 -0.9726 0.0829
vn 0.3750 -0.9203 0.1112
vn 0.1170 0.5498 0.8271
vn 0.6517 0.7421 -0.1569
vn -0.0212 -0.9966 0.0792
vn 0.6341 0.1924 -0.7489
vn 0.0853 0.2586 0.9622
vn 0.4922 0.8701 0.0257
vn 0.6446 0.2998 -0.7033
vn 0.7162 0.5787 -0.3901
vn 0.0132 -0.7068 0.7073
vn 0.3239 -0.9447 -0.0521
vn 0.4964 -0.0543 -0.8664
vn 0.5778 -0.7624 -0.2914
vn 0.6307 0.7741 -0.0548
vn 0.3860 -0.9073 0.1668
vn 0.1341 -0.9909 -0.0108
vn 0.4684 0.8595 -0.2046
vn 0.4740 -0.8804 0.0135
vn 0.3756 -0.9264 0.0257
vn 0.4291 0.9028 -0.0284
vn 0.6529 0.7540 -0.0713
vn 0.3097 -0.9409 0.1373
vn 0.7452 -0.5719 -0.3430
vn 0.7924 0.5593 -0.2434
vn 0.5352 0.8442 -0.0311
vn 0.2323 -0.9645 0.1253
vn 0.4944 -0.8646 0.0893
vn 0.4191 -0.9078 -0.0152
vn 0.6443 0.7644 -0.0237
vn 0.2802 0.8802 0.3831
vn 0.6424 -0.7563 0.1239
vn 0.0412 -0.4316 0.9011
vn 0.3082 -0.9509 -0.0261
vn 0.4399 -0.8791 0.1835
vn 0.7551 -0.6527 0.0616
vn 0.6917 0.7176 -0.0815
vn 0.6224 0.2587 -0.7387
vn 0.4150 -0.9098 0.0071
vn 0.7783 -0.5070 -0.3704
vn 0.4419 -0.8957 0.0486
vn 0.6910 -0.6131 -0.3830
vn 0.7579 -0.6272 -0.1793
vn 0.5566 -0.0370 -0.8300
vn 0.4813 -0.8766 0.0038
vn 0.1319 -0.1061 0.9856
vn 0.5225 0.8471 -0.0964
vn 0.6614 0.7479 -0.0568
vn 0.5986 -0.8005 0.0304
vn 0.5882 0.8086 0.0166
vn 0.6788 -0.7341 -0.0191
vn 0.7863 -0.2612 -0.5600
vn 0.5593 -0.8216 0.1104
vn 0.1257 -0.2460 0.9611
vn 0.4711 -0.8796 -0.0660
vn 0.6503 0.2546 -0.7158
vn 0.6142 0.2080 -0.7612
vn 0.6799 0.7135 -0.1694
vn 0.6577 0.7521 0.0426
vn 0.8063 0.4518 -0.3817
vn 0.7064 -0.7004 0.1019
vn 0.6817 0.7155 -0.1530
vn 0.4691 -0.8809 0.0637
vn 0.6653 0.7175 -0.2062
vn 0.7083 0.6992 0.0975
vn 0.7260 -0.6560 0.2063
vn 0.6959 0.7089 0.1147
vn 0.6763 0.7127 -0.1863
vn 0.5824 -0.8080 -0.0897
vn 0.1950 0.6736 0.7129
vn 0.6655 -0.7464 0.0026
vn 0.5530 0.8278 -0.0944
vn 0.4559 -0.8499 0.2641
vn 0.9300 -0.2706 -0.2486
vn 0.7773 0.5671 -0.2724
vn 0.8657 -0.2668 -0.4236
vn 0.8891 0.2133 -0.4050
vn 0.9068 0.3187 -0.2758
vn 0.3079 0.8043 0.5082
vn 0.6523 -0.7544 0.0736
vn 0.5612 -0.8264 -0.0456
vn 0.9373 0.2214 -0.2692
vn 0.6972 -0.6888 -0.1988
vn 0.9326 -0.1410 -0.3321
vn 0.9246 0.1878 -0.3313
vn 0.9464 0.0270 -0.3219
vn 0.6490 -0.6723 -0.3561
vn 0.6413 -0.7551 0.1365
vn 0.9713 -0.0744 -0.2259
vn 0.6874 -0.7258 -0.0254
vn 0.5674 -0.8100 0.1484
vn 0.7389 0.6735 -0.0206
vn 0.6837 -0.6014 0.4133
vn 0.7545 0.6560 -0.0194
vn 0.1331 -0.1078 0.9852
vn 0.9718 0.0971 -0.2149
vn 0.6952 0.7182 -0.0289
vn 0.8068 0.5898 0.0342
vn 0.1233 0.2640 0.9566
vn 0.1676 -0.2827 0.9445
vn 0.7892 0.6134 0.0287
vn 0.7399 0.5909 -0.3217
vn 0.6910 -0.7195 -0.0693
vn 0.6839 0.7255 -0.0777
vn 0.6997 -0.5297 -0.4794
vn 0.6071 0.7934 -0.0434
vn 0.4834 0.8343 0.2651
vn 0.7995 -0.6007 -0.0011
vn 0.8043 -0.3360 -0.4901
vn 0.1998 -0.1160 0.9729
vn 0.7475 -0.6622 0.0527
vn 0.8926 0.0185 -0.4505
vn 0.8703 -0.1131 -0.4793
vn 0.7624 -0.6464 -0.0301
vn 0.7773 -0.6249 0.0729
vn 0.8603 -0.5046 -0.0727
vn 0.9256 0.2309 -0.2998
vn 0.2766 -0.1939 0.9412
vn 0.7627 -0.6442 0.0573
vn 0.6809 0.7254 -0.1009
vn 0.5337 0.7162 0.4496
vn 0.8405 -0.5230 0.1415
vn 0.9382 0.1886 -0.2902
vn 0.8219 0.5508 0.1451
vn 0.5290 0.8456 -0.0720
vn 0.7600 0.6326 -0.1490
vn 0.7993 0.5907 -0.1106
vn 0.8225 -0.5561 0.1192
vn 0.8296 0.5578 -0.0258
vn 0.1214 0.4514 0.8840
vn 0.9352 0.3540 -0.0084
vn 0.7391 -0.6733 0.0217
vn 0.8470 0.4026 -0.3471
vn 0.8698 -0.4613 0.1749
vn 0.9084 0.3830 -0.1678
vn 0.8742 0.4856 0.0011
vn 0.8894 0.4556 0.0368
vn 0.7897 0.6013 -0.1215
vn 0.9832 0.0521 -0.1752
vn 0.7680 0.6176 -0.1696
vn 0.9316 0.3569 0.0682
vn 0.8427 -0.5314 0.0863
vn 0.8738 0.4844 0.0426
vn 0.8137 0.5654 0.1349
vn 0.7545 0.6546 -0.0467
vn 0.9347 0.3252 -0.1434
vn 0.8576 -0.2275 0.4612
vn 0.9155 0.3987 0.0539
vn 0.9110 0.4045 0.0805
vn 0.8892 0.4458 -0.1028
vn 0.9780 0.2018 -0.0521
vn 0.9818 0.0399 -0.1858
vn 0.7472 -0.6578 0.0946
vn 0.8833 -0.4564 0.1072
vn 0.9435 0.3290 -0.0400
vn 0.7520 -0.6457 0.1327
vn 0.7473 0.6572 -0.0979
vn 0.7883 -0.6102 -0.0782
vn 0.9357 -0.3327 -0.1177
vn 0.4096 -0.2479 0.8779
vn 0.9890 0.0794 -0.1251
vn 0.4277 0.6200 0.6578
vn 0.9695 0.1996 -0.1420
vn 0.8982 -0.4209 0.1269
vn 0.9420 -0.3337 0.0347
vn 0.7354 -0.6705 -0.0976
vn 0.7095 -0.5739 -0.4090
vn 0.8297 -0.5247 0.1904
vn 0.7925 0.6038 0.0857
vn 0.9933 0.0240 -0.1126
vn 0.9662 0.2386 -0.0977
vn 0.6469 -0.2311 0.7267
vn 0.8851 -0.3811 0.2670
vn 0.9897 0.1304 0.0599
vn 0.2104 -0.1036 0.9721
vn 0.9152 -0.3890 -0.1056
vn 0.9810 0.1913 0.0324
vn 0.9026 0.4126 0.1226
vn 0.9257 -0.3405 0.1650
vn 0.9986 0.0528 0.0048
vn 0.9144 0.2528 -0.3163
vn 0.9149 -0.2663 0.3034
vn 0.8436 -0.5322 -0.0714
vn 0.9583 0.2650 0.1074
vn 0.9448 0.2302 -0.2333
vn 0.9223 0.3856 -0.0250
vn 0.9995 0.0319 0.0064
vn 0.9436 0.3051 0.1285
vn 0.7083 0.5311 0.4650
vn 0.9709 0.2245 -0.0832
vn 0.9793 0.1687 -0.1123
vn 0.8674 -0.0696 -0.4928
vn 0.9946 0.0114 0.1032
vn 0.9984 0.0458 -0.0342
vn 0.9990 -0.0307 -0.0327
vn 0.9211 -0.2502 0.2984
vn 0.7784 -0.6254 -0.0553
vn 0.9937 0.1117 0.0037
vn 0.8000 0.5998 0.0125
vn 0.9382 0.0358 -0.3444
vn 0.9317 -0.3475 0.1057
vn 0.9941 -0.1005 0.0412
vn 0.9568 0.2478 -0.1518
vn 0.9936 -0.1109 0.0207
vn 0.9714 -0.0739 -0.2257
vn 0.9339 0.0700 0.3506
vn 0.9470 0.3044 0.1026
vn 0.9810 0.1749 -0.0841
vn 0.2753 0.2013 0.9400
vn 0.8769 0.4741 -0.0790
vn 0.9677 -0.1930 0.1621
vn 0.9366 0.3254 -0.1298
vn 0.9339 -0.3133 -0.1721
vn 0.8526 -0.5211 -0.0390
vn 0.9384 -0.3301 0.1022
vn 0.8172 0.2352 0.5262
vn 0.9506 -0.2998 0.0803
vn 0.8218 0.5663 0.0631
vn 0.8485 0.4176 0.3251
vn 0.9658 0.2449 0.0853
vn 0.9924 0.1221 -0.0178
vn 0.9657 -0.1983 0.1677
vn 0.9936 -0.0585 -0.0968
vn 0.9598 0.2778 0.0399
vn 0.9689 -0.2233 0.1068
vn 0.9660 -0.0957 -0.2400
vn 0.9459 0.2813 0.1618
vn 0.9495 -0.3019 0.0858
vn 0.9124 0.3956 0.1045
vn 0.9998 0.0045 -0.0171
vn 0.9910 -0.1000 0.0890
vn 0.9608 0.0691 -0.2685
vn 0.9960 0.0230 -0.0859
vn 0.9798 0.1466 -0.1361
vn 0.9909 -0.1053 0.0835
vn 0.9927 0.0598 -0.1045
vn 0.9783 -0.0247 -0.2056
vn 0.9458 -0.1747 0.2738
vn 0.9884 -0.1410 0.0566
vn 0.9995 -0.0160 -0.0257
vn 0.9842 0.1771 0.0025
f 742//742 856//856 746//746
f 742//742 746//746 654//654
f 632//632 620//620 678//678
f 665//665 678//678 715//715
f 717//717 754//754 726//726
f 717//717 768//768 754//754
f 715//715 726//726 754//754
f 717//717 645//645 650//650
f 645//645 717//717 726//726
f 655//655 665//665 711//711
f 655//655 714//714 706//706
f 714//714 711//711 744//744
f 654//654 777//777 650//650
f 833//833 859//859 868//868
f 846//846 714//714 744//744
f 604//604 632//632 665//665
f 654//654 746//746 777//777
f 386//386 345//345 455//455
f 202//202 217//217 219//219
f 248//248 264//264 286//286
f 243//243 244//244 239//239
f 243//243 219//219 220//220
f 219//219 268//268 292//292
f 174//174 197//197 202//202
f 283//283 264//264 210//210
f 180//180 160//160 224//224
f 219//219 243//243 268//268
f 500//500 473//473 469//469
f 530//530 556//556 565//565
f 530//530 500//500 469//469
f 435//435 434//434 379//379
f 315//315 311//311 379//379
f 379//379 397//397 363//363
f 379//379 311//311 386//386
f 405//405 434//434 433//433
f 356//356 354//354 405//405
f 458//458 485//485 435//435
f 386//386 458//458 435//435
f 354//354 397//397 405//405
f 459//459 498//498 516//516
f 498//498 615//615 608//608
f 413//413 433//433 446//446
f 347//347 356//356 413//413
f 446//446 462//462 459//459
f 413//413 459//459 376//376
f 356//356 405//405 413//413
f 485//485 469//469 435//435
f 327//327 313//313 356//356
f 263//263 224//224 327//327
f 263//263 317//317 260//260
f 306//306 339//339 347//347
f 240//240 299//299 255//255
f 240//240 260//260 299//299
f 339//339 356//356 347//347
f 450//450 345//345 422//422
f 493//493 455//455 450//450
f 450//450 422//422 493//493
f 576//576 493//493 549//549
f 654//654 576//576 584//584
f 584//584 576//576 549//549
f 570//570 693//693 566//566
f 693//693 654//654 584//584
f 464//464 427//427 513//513
f 570//570 566//566 513//513
f 476//476 455//455 532//532
f 532//532 455//455 493//493
f 316//316 238//238 280//280
f 316//316 294//294 323//323
f 302//302 180//180 224//224
f 427//427 344//344 289//289
f 289//289 344//344 187//187
f 387//387 351//351 335//335
f 438//438 393//393 412//412
f 335//335 294//294 357//357
f 365//365 335//335 357//357
f 438//438 387//387 393//393
f 394//394 365//365 357//357
f 373//373 357//357 296//296
f 394//394 357//357 373//373
f 321//321 419//419 394//394
f 373//373 321//321 394//394
f 302//302 357//357 294//294
f 547//547 485//485 561//561
f 547//547 645//645 556//556
f 561//561 576//576 650//650
f 650//650 547//547 561//561
f 561//561 532//532 576//576
f 254//254 262//262 263//263
f 321//321 254//254 213//213
f 254//254 260//260 153//153
f 153//153 260//260 240//240
f 213//213 209//209 153//153
f 199//199 153//153 152//152
f 321//321 301//301 385//385
f 153//153 209//209 254//254
f 345//345 283//283 344//344
f 654//654 650//650 576//576
f 373//373 296//296 321//321
f 804//804 846//846 850//850
f 804//804 706//706 846//846
f 516//516 608//608 647//647
f 603//603 516//516 647//647
f 529//529 617//617 563//563
f 563//563 617//617 613//613
f 502//502 603//603 529//529
f 448//448 502//502 529//529
f 453//453 516//516 465//465
f 293//293 253//253 255//255
f 376//376 453//453 408//408
f 408//408 465//465 448//448
f 306//306 341//341 300//300
f 300//300 341//341 287//287
f 298//298 293//293 273//273
f 519//519 555//555 578//578
f 398//398 408//408 448//448
f 376//376 398//398 341//341
f 398//398 466//466 330//330
f 341//341 398//398 271//271
f 229//229 234//234 259//259
f 271//271 330//330 259//259
f 259//259 330//330 285//285
f 282//282 229//229 272//272
f 272//272 229//229 259//259
f 448//448 519//519 466//466
f 519//519 512//512 466//466
f 587//587 512//512 624//624
f 669//669 647//647 706//706
f 612//612 644//644 695//695
f 751//751 695//695 741//741
f 741//741 804//804 797//797
f 741//741 797//797 784//784
f 298//298 169//169 297//297
f 282//282 298//298 295//295
f 598//598 662//662 697//697
f 662//662 739//739 697//697
f 624//624 578//578 598//598
f 784//784 818//818 782//782
f 751//751 784//784 782//782
f 748//748 739//739 778//778
f 748//748 778//778 796//796
f 748//748 697//697 739//739
f 617//617 603//603 644//644
f 448//448 529//529 503//503
f 714//714 846//846 706//706
f 225//225 269//269 328//328
f 225//225 328//328 228//228
f 199//199 152//152 169//169
f 148//148 193//193 169//169
f 201//201 193//193 148//148
f 267//267 282//282 274//274
f 148//148 169//169 267//267
f 267//267 223//223 148//148
f 267//267 274//274 223//223
f 284//284 148//148 230//230
f 199//199 193//193 201//201
f 201//201 359//359 329//329
f 272//272 274//274 282//282
f 230//230 223//223 137//137
f 177//177 223//223 251//251
f 242//242 137//137 177//177
f 242//242 177//177 185//185
f 196//196 155//155 137//137
f 196//196 137//137 200//200
f 333//333 155//155 331//331
f 277//277 155//155 304//304
f 252//252 155//155 196//196
f 252//252 196//196 179//179
f 331//331 155//155 252//252
f 353//353 199//199 329//329
f 512//512 587//587 505//505
f 461//461 512//512 505//505
f 461//461 511//511 411//411
f 466//466 461//461 411//411
f 494//494 441//441 511//511
f 392//392 441//441 426//426
f 621//621 668//668 705//705
f 709//709 705//705 787//787
f 621//621 705//705 709//709
f 787//787 705//705 776//776
f 537//537 505//505 588//588
f 588//588 635//635 621//621
f 537//537 588//588 511//511
f 609//609 621//621 684//684
f 609//609 588//588 621//621
f 560//560 552//552 609//609
f 494//494 560//560 538//538
f 538//538 443//443 494//494
f 646//646 597//597 591//591
f 525//525 443//443 538//538
f 472//472 443//443 525//525
f 597//597 525//525 538//538
f 677//677 609//609 684//684
f 646//646 677//677 712//712
f 677//677 745//745 712//712
f 646//646 712//712 673//673
f 472//472 524//524 523//523
f 551//551 523//523 579//579
f 527//527 523//523 551//551
f 541//541 542//542 551//551
f 582//582 551//551 607//607
f 694//694 673//673 753//753
f 792//792 673//673 712//712
f 607//607 579//579 694//694
f 719//719 599//599 694//694
f 599//599 582//582 694//694
f 599//599 719//719 622//622
f 228//228 322//322 310//310
f 222//222 147//147 228//228
f 212//212 242//242 147//147
f 222//222 310//310 278//278
f 310//310 366//366 309//309
f 309//309 278//278 310//310
f 358//358 366//366 384//384
f 366//366 358//358 305//305
f 358//358 384//384 392//392
f 279//279 122//122 146//146
f 279//279 305//305 122//122
f 334//334 358//358 392//392
f 216//216 358//358 334//334
f 149//149 334//334 369//369
f 369//369 392//392 426//426
f 216//216 334//334 149//149
f 216//216 149//149 117//117
f 122//122 305//305 216//216
f 122//122 216//216 117//117
f 88//88 92//92 122//122
f 92//92 170//170 146//146
f 88//88 117//117 120//120
f 120//120 117//117 149//149
f 141//141 92//92 88//88
f 149//149 369//369 415//415
f 120//120 276//276 163//163
f 163//163 157//157 120//120
f 184//184 281//281 245//245
f 157//157 163//163 208//208
f 157//157 141//141 120//120
f 103//103 167//167 79//79
f 131//131 179//179 167//167
f 178//178 266//266 279//279
f 178//178 279//279 183//183
f 178//178 183//183 170//170
f 144//144 178//178 170//170
f 132//132 144//144 176//176
f 178//178 144//144 101//101
f 170//170 183//183 146//146
f 115//115 131//131 103//103
f 98//98 121//121 79//79
f 98//98 80//80 97//97
f 79//79 115//115 103//103
f 121//121 320//320 154//154
f 232//232 320//320 121//121
f 112//112 232//232 143//143
f 112//112 198//198 232//232
f 133//133 132//132 176//176
f 145//145 189//189 124//124
f 114//114 168//168 145//145
f 128//128 143//143 133//133
f 89//89 112//112 96//96
f 112//112 133//133 96//96
f 123//123 198//198 112//112
f 123//123 112//112 89//89
f 134//134 123//123 89//89
f 84//84 89//89 96//96
f 134//134 89//89 90//90
f 90//90 89//89 84//84
f 76//76 134//134 90//90
f 96//96 114//114 84//84
f 189//189 157//157 208//208
f 133//133 143//143 132//132
f 402//402 472//472 456//456
f 382//382 456//456 417//417
f 281//281 404//404 245//245
f 184//184 245//245 119//119
f 124//124 184//184 94//94
f 57//57 94//94 66//66
f 44//44 66//66 52//52
f 140//140 318//318 237//237
f 40//40 65//65 57//57
f 19//19 16//16 24//24
f 82//82 47//47 93//93
f 37//37 71//71 47//47
f 26//26 51//51 49//49
f 37//37 47//47 30//30
f 6//6 14//14 9//9
f 23//23 7//7 15//15
f 51//51 21//21 27//27
f 60//60 108//108 113//113
f 60//60 113//113 48//48
f 74//74 108//108 60//60
f 43//43 48//48 34//34
f 9//9 27//27 21//21
f 486//486 456//456 527//527
f 456//456 523//523 527//527
f 417//417 460//460 468//468
f 110//110 106//106 100//100
f 86//86 56//56 61//61
f 95//95 104//104 99//99
f 95//95 99//99 127//127
f 126//126 95//95 127//127
f 72//72 95//95 69//69
f 77//77 70//70 84//84
f 70//70 77//77 55//55
f 55//55 68//68 50//50
f 35//35 58//58 55//55
f 55//55 50//50 36//36
f 55//55 77//77 68//68
f 41//41 72//72 62//62
f 41//41 68//68 72//72
f 436//436 483//483 437//437
f 348//348 436//436 437//437
f 399//399 481//481 506//506
f 436//436 508//508 483//483
f 332//332 436//436 348//348
f 501//501 508//508 622//622
f 501//501 622//622 611//611
f 554//554 528//528 501//501
f 606//606 501//501 611//611
f 606//606 611//611 651//651
f 657//657 651//651 672//672
f 506//506 528//528 535//535
f 442//442 471//471 507//507
f 442//442 507//507 474//474
f 562//562 528//528 554//554
f 600//600 637//637 656//656
f 594//594 562//562 637//637
f 594//594 535//535 562//562
f 521//521 535//535 558//558
f 553//553 600//600 573//573
f 326//326 355//355 372//372
f 211//211 307//307 326//326
f 396//396 372//372 399//399
f 346//346 396//396 395//395
f 308//308 326//326 346//346
f 371//371 308//308 346//346
f 135//135 161//161 136//136
f 129//129 126//126 136//136
f 346//346 395//395 371//371
f 69//69 126//126 81//81
f 102//102 182//182 165//165
f 81//81 126//126 107//107
f 336//336 165//165 182//182
f 182//182 129//129 308//308
f 113//113 61//61 48//48
f 508//508 468//468 536//536
f 16//16 19//19 6//6
f 119//119 245//245 151//151
f 314//314 403//403 236//236
f 3//3 18//18 13//13
f 54//54 78//78 35//35
f 58//58 35//35 78//78
f 35//35 36//36 20//20
f 11//11 20//20 3//3
f 25//25 20//20 11//11
f 11//11 8//8 25//25
f 11//11 3//3 1//1
f 54//54 35//35 25//25
f 46//46 64//64 42//42
f 22//22 45//45 32//32
f 32//32 45//45 46//46
f 3//3 20//20 18//18
f 28//28 29//29 59//59
f 59//59 67//67 85//85
f 59//59 69//69 67//67
f 5//5 28//28 17//17
f 124//124 189//189 184//184
f 70//70 76//76 84//84
f 843//843 856//856 822//822
f 869//869 843//843 858//858
f 822//822 742//742 819//819
f 819//819 693//693 757//757
f 826//826 819//819 794//794
f 826//826 794//794 781//781
f 872//872 868//868 858//858
f 872//872 826//826 811//811
f 872//872 858//858 826//826
f 874//874 882//882 888//888
f 848//848 872//872 811//811
f 643//643 693//693 570//570
f 680//680 701//701 643//643
f 643//643 570//570 513//513
f 514//514 482//482 487//487
f 586//586 482//482 514//514
f 634//634 559//559 586//586
f 583//583 575//575 557//557
f 567//567 572//572 575//575
f 769//769 781//781 747//747
f 681//681 720//720 658//658
f 758//758 826//826 781//781
f 692//692 720//720 681//681
f 758//758 720//720 692//692
f 664//664 634//634 583//583
f 658//658 634//634 664//664
f 619//619 682//682 692//692
f 593//593 664//664 577//577
f 429//429 438//438 412//412
f 514//514 487//487 495//495
f 467//467 487//487 451//451
f 533//533 419//419 522//522
f 495//495 467//467 533//533
f 758//758 848//848 811//811
f 735//735 692//692 682//682
f 886//886 848//848 875//875
f 803//803 735//735 800//800
f 875//875 848//848 800//800
f 648//648 700//700 663//663
f 700//700 727//727 779//779
f 800//800 738//738 700//700
f 738//738 800//800 735//735
f 385//385 457//457 407//407
f 457//457 475//475 526//526
f 475//475 457//457 430//430
f 601//601 619//619 568//568
f 601//601 648//648 663//663
f 580//580 601//601 526//526
f 526//526 491//491 580//580
f 526//526 475//475 491//491
f 619//619 593//593 522//522
f 881//881 883//883 850//850
f 818//818 838//838 855//855
f 883//883 886//886 875//875
f 880//880 875//875 861//861
f 755//755 779//779 727//727
f 838//838 880//880 870//870
f 855//855 870//870 851//851
f 812//812 851//851 870//870
f 812//812 830//830 755//755
f 861//861 800//800 779//779
f 430//430 377//377 389//389
f 430//430 389//389 439//439
f 489//489 430//430 439//439
f 631//631 580//580 491//491
f 670//670 648//648 631//631
f 631//631 648//648 580//580
f 631//631 642//642 686//686
f 489//489 439//439 490//490
f 544//544 489//489 490//490
f 544//544 631//631 491//491
f 623//623 631//631 544//544
f 623//623 642//642 631//631
f 531//531 544//544 490//490
f 491//491 489//489 544//544
f 778//778 855//855 835//835
f 854//854 867//867 878//878
f 795//795 867//867 854//854
f 864//864 812//812 789//789
f 867//867 835//835 851//851
f 854//854 878//878 887//887
f 688//688 718//718 686//686
f 718//718 789//789 755//755
f 642//642 688//688 686//686
f 710//710 713//713 674//674
f 728//728 775//775 710//710
f 775//775 864//864 789//789
f 728//728 805//805 775//775
f 716//716 750//750 805//805
f 659//659 652//652 626//626
f 652//652 531//531 581//581
f 789//789 718//718 713//713
f 881//881 886//886 883//883
f 727//727 700//700 670//670
f 389//389 377//377 329//329
f 439//439 389//389 378//378
f 378//378 329//329 359//359
f 378//378 359//359 383//383
f 490//490 439//439 378//378
f 400//400 378//378 383//383
f 531//531 490//490 449//449
f 449//449 400//400 447//447
f 400//400 383//383 333//333
f 331//331 364//364 333//333
f 390//390 400//400 364//364
f 390//390 364//364 444//444
f 581//581 531//531 515//515
f 531//531 449//449 515//515
f 515//515 447//447 463//463
f 585//585 515//515 496//496
f 447//447 390//390 463//463
f 876//876 776//776 795//795
f 857//857 776//776 876//876
f 776//776 857//857 787//787
f 795//795 854//854 876//876
f 767//767 787//787 774//774
f 774//774 832//832 810//810
f 876//876 887//887 879//879
f 857//857 879//879 832//832
f 852//852 860//860 806//806
f 820//820 841//841 806//806
f 831//831 841//841 853//853
f 831//831 853//853 885//885
f 774//774 802//802 745//745
f 788//788 745//745 802//802
f 802//802 837//837 788//788
f 712//712 745//745 771//771
f 745//745 788//788 771//771
f 791//791 712//712 771//771
f 837//837 847//847 827//827
f 847//847 823//823 827//827
f 827//827 823//823 849//849
f 827//827 849//849 834//834
f 821//821 827//827 834//834
f 834//834 842//842 817//817
f 821//821 788//788 837//837
f 750//750 763//763 805//805
f 806//806 860//860 763//763
f 659//659 702//702 716//716
f 629//629 702//702 659//659
f 806//806 763//763 820//820
f 815//815 885//885 820//820
f 813//813 885//885 815//815
f 842//842 849//849 801//801
f 840//840 842//842 801//801
f 792//792 712//712 791//791
f 783//783 792//792 808//808
f 825//825 845//845 792//792
f 719//719 772//772 749//749
f 790//790 808//808 799//799
f 780//780 799//799 764//764
f 798//798 817//817 824//824
f 842//842 840//840 824//824
f 824//824 817//817 842//842
f 786//786 798//798 793//793
f 824//824 871//871 798//798
f 770//770 793//793 828//828
f 719//719 749//749 722//722
f 722//722 764//764 725//725
f 873//873 862//862 844//844
f 828//828 839//839 770//770
f 764//764 786//786 770//770
f 406//406 257//257 342//342
f 320//320 342//342 257//257
f 629//629 585//585 496//496
f 420//420 444//444 388//388
f 444//444 420//420 463//463
f 470//470 463//463 420//420
f 418//418 420//420 375//375
f 418//418 470//470 420//420
f 388//388 320//320 375//375
f 320//320 232//232 370//370
f 370//370 232//232 198//198
f 375//375 370//370 418//418
f 414//414 418//418 370//370
f 518//518 488//488 414//414
f 312//312 343//343 198//198
f 312//312 123//123 134//134
f 312//312 246//246 367//367
f 361//361 246//246 247//247
f 343//343 312//312 423//423
f 518//518 414//414 480//480
f 367//367 423//423 312//312
f 480//480 414//414 423//423
f 421//421 480//480 423//423
f 629//629 626//626 585//585
f 592//592 616//616 548//548
f 592//592 548//548 546//546
f 698//698 675//675 666//666
f 595//595 592//592 546//546
f 614//614 592//592 595//595
f 676//676 666//666 640//640
f 640//640 666//666 614//614
f 666//666 630//630 614//614
f 708//708 801//801 762//762
f 676//676 708//708 666//666
f 766//766 801//801 708//708
f 696//696 766//766 708//708
f 696//696 708//708 676//676
f 602//602 640//640 520//520
f 649//649 602//602 636//636
f 545//545 602//602 520//520
f 545//545 480//480 421//421
f 545//545 520//520 480//480
f 520//520 518//518 480//480
f 247//247 76//76 78//78
f 221//221 247//247 105//105
f 349//349 247//247 221//221
f 338//338 139//139 233//233
f 338//338 352//352 139//139
f 410//410 545//545 381//381
f 221//221 410//410 349//349
f 410//410 381//381 349//349
f 352//352 221//221 139//139
f 401//401 410//410 352//352
f 497//497 410//410 499//499
f 445//445 410//410 401//401
f 725//725 743//743 729//729
f 724//724 725//725 729//729
f 625//625 573//573 656//656
f 653//653 625//625 685//685
f 656//656 637//637 657//657
f 707//707 725//725 724//724
f 685//685 657//657 707//707
f 759//759 736//736 743//743
f 732//732 743//743 736//736
f 704//704 703//703 732//732
f 731//731 704//704 733//733
f 759//759 770//770 839//839
f 760//760 759//759 839//839
f 731//731 736//736 721//721
f 770//770 759//759 743//743
f 721//721 736//736 760//760
f 732//732 729//729 743//743
f 691//691 653//653 704//704
f 691//691 704//704 731//731
f 605//605 589//589 691//691
f 691//691 723//723 699//699
f 731//731 721//721 723//723
f 633//633 691//691 699//699
f 605//605 543//543 550//550
f 672//672 725//725 707//707
f 724//724 729//729 703//703
f 543//543 504//504 550//550
f 492//492 428//428 478//478
f 428//428 425//425 474//474
f 109//109 319//319 142//142
f 340//340 380//380 428//428
f 165//165 336//336 340//340
f 256//256 165//165 340//340
f 374//374 428//428 432//432
f 340//340 374//374 360//360
f 340//340 428//428 374//374
f 416//416 492//492 484//484
f 540//540 484//484 569//569
f 509//509 479//479 540//540
f 391//391 424//424 362//362
f 452//452 445//445 424//424
f 445//445 409//409 424//424
f 416//416 432//432 492//492
f 844//844 766//766 737//737
f 679//679 737//737 696//696
f 730//730 844//844 737//737
f 730//730 737//737 690//690
f 636//636 667//667 649//649
f 690//690 679//679 667//667
f 667//667 636//636 641//641
f 661//661 667//667 641//641
f 734//734 814//814 730//730
f 689//689 730//730 690//690
f 689//689 734//734 730//730
f 661//661 641//641 618//618
f 534//534 545//545 410//410
f 590//590 618//618 539//539
f 639//639 618//618 590//590
f 639//639 687//687 689//689
f 671//671 687//687 627//627
f 539//539 564//564 590//590
f 574//574 610//610 627//627
f 499//499 574//574 564//564
f 571//571 543//543 605//605
f 618//618 641//641 596//596
f 75//75 139//139 64//64
f 139//139 75//75 125//125
f 865//865 833//833 874//874
f 846//846 865//865 888//888
f 431//431 412//412 394//394
f 406//406 331//331 257//257
f 622//622 719//719 651//651
f 428//428 380//380 425//425
f 64//64 46//46 75//75
f 83//83 125//125 75//75
f 876//876 854//854 887//887
f 864//864 887//887 878//878
f 328//328 322//322 228//228
f 269//269 272//272 285//285
f 169//169 298//298 267//267
f 683//683 761//761 698//698
f 873//873 844//844 839//839
f 863//863 777//777 856//856
f 777//777 746//746 856//856
f 678//678 645//645 726//726
f 620//620 556//556 678//678
f 773//773 715//715 754//754
f 678//678 726//726 715//715
f 604//604 665//665 615//615
f 665//665 715//715 711//711
f 711//711 785//785 744//744
f 809//809 836//836 816//816
f 816//816 717//717 809//809
f 717//717 777//777 809//809
f 777//777 717//717 650//650
f 768//768 816//816 773//773
f 773//773 816//816 785//785
f 809//809 777//777 863//863
f 866//866 863//863 877//877
f 809//809 863//863 866//866
f 859//859 866//866 877//877
f 816//816 859//859 833//833
f 785//785 865//865 744//744
f 833//833 865//865 785//785
f 744//744 865//865 846//846
f 754//754 768//768 773//773
f 678//678 665//665 632//632
f 324//324 311//311 303//303
f 386//386 311//311 324//324
f 324//324 345//345 386//386
f 188//188 173//173 181//181
f 203//203 181//181 173//173
f 174//174 173//173 188//188
f 188//188 192//192 174//174
f 203//203 173//173 159//159
f 191//191 192//192 210//210
f 206//206 166//166 160//160
f 160//160 194//194 206//206
f 166//166 171//171 164//164
f 166//166 164//164 158//158
f 159//159 158//158 203//203
f 203//203 164//164 171//171
f 203//203 158//158 164//164
f 270//270 261//261 265//265
f 258//258 261//261 270//270
f 248//248 241//241 220//220
f 248//248 226//226 227//227
f 227//227 264//264 248//248
f 220//220 226//226 248//248
f 220//220 219//219 227//227
f 231//231 226//226 214//214
f 286//286 291//291 248//248
f 248//248 291//291 250//250
f 244//244 248//248 250//250
f 239//239 241//241 250//250
f 261//261 291//291 265//265
f 243//243 239//239 268//268
f 248//248 244//244 241//241
f 250//250 241//241 244//244
f 214//214 215//215 231//231
f 231//231 215//215 217//217
f 324//324 291//291 286//286
f 292//292 258//258 303//303
f 218//218 204//204 207//207
f 268//268 258//258 292//292
f 207//207 210//210 218//218
f 210//210 207//207 204//204
f 174//174 202//202 175//175
f 218//218 210//210 264//264
f 203//203 283//283 210//210
f 197//197 203//203 210//210
f 264//264 283//283 286//286
f 283//283 166//166 206//206
f 283//283 203//203 166//166
f 219//219 175//175 202//202
f 224//224 162//162 175//175
f 345//345 324//324 286//286
f 219//219 292//292 224//224
f 205//205 204//204 218//218
f 218//218 215//215 205//205
f 217//217 264//264 231//231
f 210//210 204//204 191//191
f 175//175 219//219 224//224
f 188//188 181//181 190//190
f 203//203 190//190 181//181
f 210//210 192//192 197//197
f 206//206 194//194 195//195
f 556//556 530//530 469//469
f 547//547 469//469 485//485
f 379//379 363//363 354//354
f 315//315 354//354 356//356
f 379//379 354//354 315//315
f 434//434 397//397 379//379
f 477//477 433//433 434//434
f 435//435 469//469 434//434
f 434//434 405//405 397//397
f 458//458 386//386 455//455
f 363//363 397//397 354//354
f 498//498 446//446 477//477
f 498//498 462//462 446//446
f 530//530 565//565 477//477
f 565//565 615//615 498//498
f 446//446 459//459 413//413
f 530//530 477//477 500//500
f 405//405 433//433 413//413
f 462//462 498//498 459//459
f 292//292 313//313 327//327
f 327//327 356//356 339//339
f 317//317 327//327 339//339
f 327//327 317//317 263//263
f 317//317 339//339 299//299
f 339//339 306//306 299//299
f 299//299 306//306 255//255
f 240//240 253//253 152//152
f 260//260 317//317 299//299
f 532//532 493//493 576//576
f 455//455 345//345 450//450
f 464//464 422//422 427//427
f 493//493 422//422 464//464
f 344//344 422//422 345//345
f 584//584 549//549 566//566
f 584//584 566//566 693//693
f 427//427 351//351 387//387
f 513//513 427//427 387//387
f 493//493 464//464 549//549
f 464//464 566//566 549//549
f 566//566 464//464 513//513
f 289//289 187//187 238//238
f 289//289 238//238 316//316
f 344//344 283//283 187//187
f 280//280 180//180 302//302
f 238//238 187//187 180//180
f 280//280 238//238 180//180
f 296//296 302//302 224//224
f 262//262 224//224 263//263
f 422//422 344//344 427//427
f 296//296 224//224 262//262
f 323//323 294//294 335//335
f 387//387 335//335 365//365
f 365//365 412//412 393//393
f 365//365 393//393 387//387
f 438//438 482//482 387//387
f 412//412 365//365 394//394
f 357//357 302//302 296//296
f 316//316 351//351 427//427
f 302//302 294//294 280//280
f 485//485 476//476 561//561
f 565//565 556//556 620//620
f 547//547 650//650 645//645
f 476//476 458//458 455//455
f 458//458 476//476 485//485
f 254//254 263//263 260//260
f 296//296 262//262 254//254
f 321//321 296//296 254//254
f 213//213 254//254 209//209
f 153//153 240//240 152//152
f 199//199 213//213 153//153
f 301//301 213//213 199//199
f 301//301 321//321 213//213
f 407//407 321//321 385//385
f 385//385 301//301 353//353
f 206//206 187//187 283//283
f 187//187 195//195 194//194
f 604//604 565//565 620//620
f 356//356 313//313 315//315
f 347//347 413//413 376//376
f 482//482 513//513 387//387
f 669//669 706//706 804//804
f 804//804 850//850 797//797
f 453//453 376//376 459//459
f 459//459 516//516 453//453
f 617//617 529//529 603//603
f 529//529 563//563 503//503
f 465//465 516//516 502//502
f 516//516 603//603 502//502
f 376//376 306//306 347//347
f 253//253 240//240 255//255
f 253//253 293//293 297//297
f 255//255 306//306 300//300
f 376//376 341//341 306//306
f 453//453 465//465 408//408
f 300//300 287//287 293//293
f 273//273 287//287 234//234
f 287//287 271//271 234//234
f 295//295 298//298 273//273
f 295//295 273//273 229//229
f 282//282 295//295 229//229
f 273//273 293//293 287//287
f 273//273 234//234 229//229
f 300//300 293//293 255//255
f 297//297 293//293 298//298
f 555//555 613//613 612//612
f 503//503 563//563 555//555
f 555//555 612//612 598//598
f 578//578 555//555 598//598
f 503//503 555//555 519//519
f 503//503 519//519 448//448
f 519//519 578//578 512//512
f 448//448 466//466 398//398
f 341//341 271//271 287//287
f 234//234 271//271 259//259
f 330//330 325//325 285//285
f 259//259 285//285 272//272
f 398//398 330//330 271//271
f 512//512 461//461 466//466
f 466//466 328//328 330//330
f 328//328 269//269 325//325
f 269//269 285//285 325//325
f 603//603 647//647 669//669
f 638//638 603//603 669//669
f 638//638 669//669 644//644
f 613//613 644//644 612//612
f 669//669 804//804 741//741
f 644//644 669//669 741//741
f 644//644 741//741 695//695
f 751//751 741//741 784//784
f 784//784 797//797 818//818
f 152//152 253//253 169//169
f 169//169 253//253 297//297
f 282//282 267//267 298//298
f 695//695 662//662 612//612
f 695//695 751//751 662//662
f 598//598 612//612 662//662
f 512//512 578//578 624//624
f 624//624 598//598 697//697
f 818//818 778//778 782//782
f 782//782 778//778 739//739
f 751//751 782//782 739//739
f 662//662 751//751 739//739
f 796//796 776//776 748//748
f 796//796 795//795 776//776
f 603//603 638//638 644//644
f 563//563 613//613 555//555
f 408//408 398//398 376//376
f 608//608 655//655 706//706
f 498//498 608//608 516//516
f 742//742 654//654 693//693
f 608//608 706//706 647//647
f 353//353 301//301 199//199
f 251//251 272//272 269//269
f 185//185 251//251 269//269
f 269//269 186//186 185//185
f 186//186 269//269 225//225
f 225//225 150//150 186//186
f 199//199 169//169 193//193
f 201//201 148//148 284//284
f 148//148 223//223 230//230
f 329//329 199//199 201//201
f 284//284 230//230 277//277
f 201//201 284//284 359//359
f 274//274 272//272 251//251
f 274//274 251//251 223//223
f 223//223 177//177 137//137
f 177//177 251//251 185//185
f 179//179 196//196 167//167
f 155//155 277//277 230//230
f 333//333 304//304 155//155
f 252//252 131//131 257//257
f 331//331 252//252 257//257
f 252//252 179//179 131//131
f 137//137 242//242 200//200
f 359//359 277//277 304//304
f 461//461 505//505 511//511
f 466//466 411//411 328//328
f 328//328 411//411 322//322
f 411//411 384//384 322//322
f 505//505 537//537 511//511
f 411//411 511//511 441//441
f 411//411 441//441 384//384
f 441//441 392//392 384//384
f 494//494 426//426 441//441
f 588//588 587//587 635//635
f 668//668 697//697 705//705
f 587//587 668//668 635//635
f 624//624 668//668 587//587
f 621//621 635//635 668//668
f 697//697 748//748 705//705
f 748//748 776//776 705//705
f 709//709 787//787 767//767
f 709//709 767//767 684//684
f 505//505 587//587 588//588
f 511//511 588//588 552//552
f 552//552 588//588 609//609
f 552//552 494//494 511//511
f 621//621 709//709 684//684
f 560//560 494//494 552//552
f 560//560 677//677 591//591
f 525//525 524//524 472//472
f 597//597 538//538 591//591
f 524//524 597//597 646//646
f 524//524 525//525 597//597
f 524//524 646//646 673//673
f 591//591 677//677 646//646
f 677//677 684//684 774//774
f 677//677 774//774 745//745
f 524//524 579//579 523//523
f 551//551 542//542 527//527
f 524//524 673//673 579//579
f 579//579 607//607 551//551
f 541//541 551//551 582//582
f 673//673 694//694 579//579
f 607//607 694//694 582//582
f 785//785 711//711 715//715
f 785//785 715//715 773//773
f 536//536 582//582 599//599
f 147//147 222//222 212//212
f 147//147 150//150 228//228
f 310//310 222//222 228//228
f 222//222 278//278 212//212
f 266//266 212//212 278//278
f 322//322 384//384 366//366
f 225//225 228//228 150//150
f 322//322 366//366 310//310
f 279//279 309//309 305//305
f 278//278 309//309 266//266
f 279//279 266//266 309//309
f 358//358 216//216 305//305
f 305//305 309//309 366//366
f 183//183 279//279 146//146
f 392//392 369//369 334//334
f 122//122 117//117 88//88
f 122//122 92//92 146//146
f 141//141 88//88 120//120
f 426//426 443//443 415//415
f 369//369 426//426 415//415
f 149//149 415//415 404//404
f 443//443 472//472 415//415
f 276//276 149//149 404//404
f 276//276 404//404 281//281
f 276//276 281//281 208//208
f 276//276 208//208 163//163
f 242//242 212//212 266//266
f 200//200 249//249 167//167
f 131//131 167//167 103//103
f 249//249 80//80 167//167
f 79//79 167//167 80//80
f 200//200 242//242 249//249
f 249//249 242//242 266//266
f 249//249 266//266 178//178
f 249//249 178//178 101//101
f 144//144 132//132 97//97
f 101//101 144//144 97//97
f 131//131 115//115 154//154
f 257//257 154//154 320//320
f 80//80 101//101 97//97
f 79//79 80//80 98//98
f 98//98 97//97 130//130
f 97//97 132//132 130//130
f 115//115 79//79 121//121
f 154//154 115//115 121//121
f 232//232 130//130 143//143
f 130//130 232//232 98//98
f 176//176 170//170 141//141
f 141//141 157//157 189//189
f 133//133 168//168 96//96
f 133//133 176//176 168//168
f 168//168 189//189 145//145
f 96//96 168//168 114//114
f 112//112 128//128 133//133
f 112//112 143//143 128//128
f 76//76 90//90 84//84
f 176//176 144//144 170//170
f 189//189 168//168 141//141
f 415//415 472//472 402//402
f 402//402 404//404 415//415
f 402//402 456//456 382//382
f 404//404 151//151 245//245
f 402//402 151//151 404//404
f 402//402 382//382 151//151
f 382//382 417//417 318//318
f 382//382 275//275 151//151
f 382//382 318//318 275//275
f 314//314 318//318 403//403
f 318//318 417//417 403//403
f 94//94 119//119 66//66
f 119//119 94//94 184//184
f 94//94 57//57 124//124
f 73//73 71//71 37//37
f 73//73 37//37 52//52
f 151//151 73//73 87//87
f 73//73 151//151 275//275
f 66//66 87//87 52//52
f 318//318 140//140 275//275
f 318//318 314//314 237//237
f 73//73 52//52 87//87
f 73//73 140//140 71//71
f 33//33 31//31 19//19
f 33//33 19//19 24//24
f 57//57 44//44 40//40
f 40//40 24//24 38//38
f 34//34 48//48 38//38
f 56//56 38//38 61//61
f 56//56 40//40 38//38
f 61//61 38//38 48//48
f 44//44 33//33 40//40
f 38//38 24//24 34//34
f 24//24 16//16 34//34
f 31//31 33//33 52//52
f 119//119 151//151 87//87
f 52//52 33//33 44//44
f 93//93 71//71 140//140
f 47//47 71//71 93//93
f 236//236 237//237 314//314
f 93//93 237//237 236//236
f 172//172 138//138 116//116
f 172//172 235//235 138//138
f 82//82 93//93 236//236
f 93//93 140//140 237//237
f 30//30 14//14 37//37
f 30//30 47//47 27//27
f 30//30 27//27 9//9
f 27//27 47//47 82//82
f 51//51 27//27 82//82
f 49//49 23//23 26//26
f 30//30 9//9 14//14
f 7//7 12//12 15//15
f 16//16 7//7 23//23
f 6//6 9//9 7//7
f 21//21 12//12 9//9
f 12//12 21//21 51//51
f 12//12 26//26 15//15
f 74//74 116//116 108//108
f 43//43 74//74 60//60
f 49//49 74//74 43//43
f 48//48 43//43 60//60
f 16//16 23//23 34//34
f 472//472 523//523 456//456
f 486//486 460//460 456//456
f 460//460 486//486 468//468
f 468//468 541//541 536//536
f 486//486 541//541 468//468
f 541//541 582//582 536//536
f 403//403 417//417 468//468
f 403//403 468//468 508//508
f 145//145 124//124 111//111
f 111//111 57//57 100//100
f 111//111 124//124 57//57
f 100//100 65//65 110//110
f 100//100 57//57 65//65
f 106//106 111//111 100//100
f 106//106 114//114 111//111
f 145//145 111//111 114//114
f 84//84 114//114 77//77
f 77//77 110//110 104//104
f 77//77 104//104 68//68
f 77//77 106//106 110//110
f 86//86 104//104 40//40
f 65//65 40//40 104//104
f 86//86 40//40 56//56
f 99//99 104//104 86//86
f 127//127 99//99 86//86
f 95//95 126//126 69//69
f 58//58 70//70 55//55
f 68//68 41//41 50//50
f 76//76 70//70 58//58
f 72//72 69//69 62//62
f 39//39 62//62 53//53
f 104//104 110//110 65//65
f 95//95 72//72 68//68
f 95//95 68//68 104//104
f 77//77 114//114 106//106
f 483//483 501//501 528//528
f 403//403 508//508 436//436
f 236//236 403//403 332//332
f 403//403 436//436 332//332
f 348//348 437//437 372//372
f 372//372 437//437 399//399
f 481//481 483//483 528//528
f 437//437 481//481 399//399
f 399//399 454//454 396//396
f 437//437 483//483 481//481
f 508//508 501//501 483//483
f 622//622 651//651 611//611
f 501//501 606//606 554//554
f 528//528 506//506 481//481
f 506//506 521//521 454//454
f 535//535 521//521 506//506
f 454//454 521//521 471//471
f 454//454 471//471 396//396
f 521//521 553//553 510//510
f 553//553 507//507 510//510
f 507//507 517//517 474//474
f 606//606 562//562 554//554
f 562//562 606//606 637//637
f 594//594 637//637 600//600
f 637//637 606//606 657//657
f 507//507 573//573 517//517
f 558//558 600//600 553//553
f 507//507 553//553 573//573
f 558//558 553//553 521//521
f 528//528 562//562 535//535
f 535//535 594//594 558//558
f 138//138 211//211 161//161
f 108//108 138//138 135//135
f 135//135 138//138 161//161
f 348//348 307//307 332//332
f 372//372 355//355 348//348
f 307//307 355//355 326//326
f 355//355 307//307 348//348
f 235//235 288//288 307//307
f 161//161 211//211 326//326
f 326//326 396//396 346//346
f 161//161 326//326 308//308
f 161//161 308//308 136//136
f 372//372 396//396 326//326
f 126//126 129//129 107//107
f 308//308 371//371 336//336
f 395//395 425//425 371//371
f 425//425 395//395 442//442
f 336//336 371//371 380//380
f 425//425 442//442 474//474
f 380//380 371//371 425//425
f 81//81 91//91 118//118
f 102//102 91//91 107//107
f 69//69 81//81 67//67
f 102//102 165//165 91//91
f 109//109 81//81 118//118
f 165//165 118//118 91//91
f 85//85 81//81 109//109
f 336//336 380//380 340//340
f 118//118 165//165 156//156
f 107//107 182//182 102//102
f 107//107 129//129 182//182
f 108//108 116//116 138//138
f 288//288 236//236 332//332
f 37//37 14//14 31//31
f 13//13 2//2 3//3
f 54//54 105//105 78//78
f 50//50 41//41 20//20
f 50//50 20//20 36//36
f 41//41 18//18 20//20
f 41//41 39//39 18//18
f 25//25 35//35 20//20
f 53//53 29//29 39//39
f 1//1 4//4 8//8
f 10//10 4//4 17//17
f 25//25 42//42 54//54
f 64//64 54//54 42//42
f 25//25 32//32 42//42
f 42//42 32//32 46//46
f 46//46 45//45 75//75
f 83//83 75//75 45//45
f 142//142 125//125 85//85
f 125//125 83//83 85//85
f 22//22 10//10 17//17
f 10//10 22//22 8//8
f 25//25 8//8 22//22
f 25//25 22//22 32//32
f 18//18 39//39 13//13
f 17//17 63//63 45//45
f 59//59 63//63 17//17
f 13//13 28//28 5//5
f 28//28 59//59 17//17
f 156//156 109//109 118//118
f 45//45 63//63 83//83
f 13//13 5//5 2//2
f 53//53 69//69 59//59
f 4//4 5//5 17//17
f 62//62 39//39 41//41
f 843//843 822//822 829//829
f 829//829 858//858 843//843
f 742//742 693//693 819//819
f 757//757 794//794 807//807
f 829//829 819//819 858//858
f 807//807 819//819 757//757
f 877//877 858//858 868//868
f 877//877 869//869 858//858
f 868//868 872//872 882//882
f 833//833 868//868 874//874
f 888//888 886//886 881//881
f 872//872 848//848 882//882
f 886//886 882//882 848//848
f 888//888 882//882 886//886
f 693//693 643//643 757//757
f 765//765 757//757 701//701
f 765//765 701//701 747//747
f 680//680 643//643 559//559
f 701//701 680//680 747//747
f 643//643 513//513 559//559
f 559//559 513//513 482//482
f 559//559 482//482 586//586
f 680//680 559//559 658//658
f 658//658 559//559 634//634
f 557//557 572//572 567//567
f 583//583 557//557 577//577
f 586//586 567//567 575//575
f 514//514 557//557 567//567
f 575//575 572//572 586//586
f 593//593 577//577 533//533
f 740//740 680//680 720//720
f 680//680 658//658 720//720
f 781//781 769//769 758//758
f 758//758 769//769 740//740
f 758//758 740//740 720//720
f 681//681 658//658 664//664
f 681//681 664//664 692//692
f 619//619 692//692 664//664
f 664//664 593//593 619//619
f 664//664 583//583 577//577
f 634//634 586//586 583//583
f 438//438 440//440 482//482
f 482//482 440//440 487//487
f 467//467 431//431 533//533
f 487//487 440//440 451//451
f 429//429 451//451 440//440
f 451//451 429//429 431//431
f 429//429 412//412 431//431
f 467//467 451//451 431//431
f 431//431 419//419 533//533
f 394//394 419//419 431//431
f 593//593 533//533 522//522
f 438//438 429//429 440//440
f 758//758 811//811 826//826
f 758//758 735//735 803//803
f 758//758 692//692 735//735
f 848//848 758//758 803//803
f 738//738 682//682 663//663
f 682//682 619//619 663//663
f 738//738 735//735 682//682
f 800//800 848//848 803//803
f 800//800 700//700 779//779
f 522//522 419//419 457//457
f 522//522 457//457 526//526
f 457//457 419//419 407//407
f 353//353 377//377 457//457
f 385//385 353//353 457//457
f 430//430 489//489 491//491
f 457//457 377//377 430//430
f 491//491 475//475 430//430
f 619//619 522//522 568//568
f 522//522 526//526 568//568
f 670//670 700//700 648//648
f 601//601 580//580 648//648
f 601//601 568//568 526//526
f 888//888 881//881 846//846
f 663//663 619//619 601//601
f 846//846 881//881 850//850
f 883//883 880//880 838//838
f 883//883 838//838 850//850
f 797//797 838//838 818//818
f 855//855 838//838 870//870
f 870//870 880//880 861//861
f 875//875 800//800 861//861
f 883//883 875//875 880//880
f 861//861 779//779 830//830
f 755//755 727//727 718//718
f 830//830 779//779 755//755
f 870//870 830//830 812//812
f 686//686 727//727 670//670
f 623//623 544//544 531//531
f 818//818 855//855 778//778
f 835//835 796//796 778//778
f 796//796 835//835 867//867
f 796//796 867//867 795//795
f 851//851 835//835 855//855
f 812//812 755//755 789//789
f 851//851 812//812 878//878
f 851//851 878//878 867//867
f 812//812 864//864 878//878
f 623//623 531//531 652//652
f 727//727 686//686 718//718
f 688//688 642//642 674//674
f 674//674 642//642 623//623
f 775//775 789//789 713//713
f 710//710 674//674 652//652
f 674//674 623//623 652//652
f 864//864 775//775 805//805
f 860//860 864//864 805//805
f 805//805 728//728 716//716
f 659//659 626//626 629//629
f 716//716 728//728 659//659
f 659//659 728//728 710//710
f 757//757 765//765 794//794
f 378//378 400//400 490//490
f 400//400 390//390 447//447
f 400//400 333//333 364//364
f 364//364 331//331 406//406
f 444//444 364//364 406//406
f 444//444 463//463 390//390
f 581//581 515//515 585//585
f 515//515 463//463 496//496
f 449//449 447//447 515//515
f 626//626 581//581 585//585
f 857//857 876//876 879//879
f 787//787 832//832 774//774
f 832//832 841//841 810//810
f 857//857 832//832 787//787
f 810//810 802//802 774//774
f 887//887 864//864 860//860
f 887//887 860//860 852//852
f 879//879 852//852 832//832
f 879//879 887//887 852//852
f 841//841 802//802 810//810
f 802//802 841//841 831//831
f 852//852 806//806 841//841
f 820//820 853//853 841//841
f 853//853 820//820 885//885
f 825//825 788//788 845//845
f 771//771 788//788 791//791
f 884//884 837//837 831//831
f 884//884 847//847 837//837
f 847//847 884//884 823//823
f 837//837 827//827 821//821
f 845//845 821//821 834//834
f 849//849 842//842 834//834
f 845//845 788//788 821//821
f 860//860 805//805 763//763
f 750//750 716//716 702//702
f 702//702 698//698 750//750
f 675//675 698//698 702//702
f 820//820 763//763 815//815
f 813//813 763//763 750//750
f 815//815 763//763 813//813
f 813//813 750//750 698//698
f 761//761 813//813 698//698
f 884//884 813//813 823//823
f 823//823 813//813 761//761
f 801//801 823//823 761//761
f 761//761 683//683 762//762
f 801//801 862//862 840//840
f 862//862 801//801 766//766
f 849//849 823//823 801//801
f 885//885 884//884 831//831
f 885//885 813//813 884//884
f 753//753 792//792 783//783
f 792//792 845//845 808//808
f 753//753 673//673 792//792
f 694//694 753//753 772//772
f 753//753 783//783 790//790
f 772//772 790//790 780//780
f 772//772 780//780 749//749
f 808//808 790//790 783//783
f 799//799 780//780 790//790
f 808//808 786//786 799//799
f 764//764 799//799 786//786
f 845//845 817//817 808//808
f 817//817 798//798 808//808
f 786//786 793//793 770//770
f 798//798 871//871 793//793
f 793//793 871//871 828//828
f 808//808 798//798 786//786
f 845//845 834//834 817//817
f 651//651 719//719 722//722
f 722//722 749//749 764//764
f 722//722 725//725 672//672
f 764//764 749//749 780//780
f 725//725 764//764 770//770
f 840//840 862//862 871//871
f 862//862 873//873 871//871
f 828//828 873//873 839//839
f 871//871 873//873 828//828
f 840//840 871//871 824//824
f 342//342 320//320 388//388
f 406//406 388//388 444//444
f 406//406 342//342 388//388
f 629//629 496//496 548//548
f 496//496 463//463 470//470
f 496//496 470//470 548//548
f 546//546 548//548 470//470
f 470//470 418//418 488//488
f 546//546 470//470 488//488
f 420//420 388//388 375//375
f 375//375 320//320 370//370
f 198//198 123//123 312//312
f 312//312 134//134 246//246
f 134//134 76//76 247//247
f 246//246 361//361 367//367
f 134//134 247//247 246//246
f 414//414 370//370 423//423
f 343//343 423//423 370//370
f 423//423 367//367 421//421
f 367//367 361//361 421//421
f 629//629 548//548 616//616
f 675//675 629//629 616//616
f 630//630 592//592 614//614
f 666//666 675//675 630//630
f 698//698 666//666 683//683
f 595//595 546//546 488//488
f 595//595 488//488 518//518
f 708//708 762//762 683//683
f 683//683 666//666 708//708
f 614//614 595//595 518//518
f 696//696 676//676 649//649
f 640//640 518//518 520//520
f 679//679 696//696 649//649
f 649//649 676//676 640//640
f 370//370 198//198 343//343
f 418//418 414//414 488//488
f 247//247 78//78 105//105
f 233//233 139//139 142//142
f 233//233 142//142 319//319
f 338//338 233//233 401//401
f 545//545 421//421 381//381
f 361//361 349//349 381//381
f 534//534 410//410 497//497
f 410//410 221//221 352//352
f 352//352 338//338 401//401
f 410//410 445//445 499//499
f 770//770 743//743 725//725
f 589//589 573//573 625//625
f 550//550 573//573 589//589
f 589//589 625//625 653//653
f 625//625 656//656 685//685
f 656//656 657//657 685//685
f 707//707 703//703 685//685
f 707//707 724//724 703//703
f 732//732 736//736 733//733
f 759//759 760//760 736//736
f 736//736 731//731 733//733
f 653//653 703//703 704//704
f 605//605 633//633 571//571
f 605//605 691//691 633//633
f 723//723 721//721 699//699
f 633//633 699//699 660//660
f 691//691 731//731 723//723
f 691//691 589//589 653//653
f 573//573 600//600 656//656
f 474//474 550//550 504//504
f 492//492 504//504 543//543
f 428//428 492//492 432//432
f 428//428 474//474 478//478
f 319//319 109//109 290//290
f 156//156 165//165 256//256
f 319//319 290//290 362//362
f 362//362 290//290 337//337
f 290//290 340//340 360//360
f 362//362 350//350 368//368
f 350//350 337//337 360//360
f 360//360 416//416 368//368
f 492//492 543//543 571//571
f 492//492 571//571 484//484
f 571//571 633//633 569//569
f 569//569 633//633 610//610
f 484//484 540//540 479//479
f 540//540 569//569 610//610
f 571//571 569//569 484//484
f 445//445 401//401 409//409
f 409//409 401//401 319//319
f 391//391 416//416 479//479
f 368//368 416//416 391//391
f 391//391 479//479 424//424
f 424//424 409//409 362//362
f 452//452 479//479 445//445
f 509//509 499//499 479//479
f 479//479 499//499 445//445
f 319//319 362//362 409//409
f 766//766 696//696 737//737
f 602//602 545//545 636//636
f 545//545 596//596 636//636
f 636//636 596//596 641//641
f 690//690 667//667 661//661
f 839//839 814//814 756//756
f 760//760 839//839 756//756
f 839//839 844//844 814//814
f 752//752 814//814 734//734
f 756//756 814//814 752//752
f 814//814 844//844 730//730
f 689//689 690//690 661//661
f 639//639 689//689 618//618
f 545//545 534//534 596//596
f 534//534 497//497 539//539
f 539//539 497//497 499//499
f 618//618 596//596 539//539
f 721//721 760//760 687//687
f 756//756 752//752 689//689
f 687//687 756//756 689//689
f 756//756 687//687 760//760
f 687//687 639//639 628//628
f 687//687 699//699 721//721
f 699//699 687//687 671//671
f 671//671 627//627 660//660
f 627//627 687//687 628//628
f 639//639 564//564 628//628
f 564//564 539//539 499//499
f 627//627 628//628 564//564
f 627//627 564//564 574//574
f 509//509 574//574 499//499
f 540//540 574//574 509//509
f 540//540 610//610 574//574
f 401//401 233//233 319//319
f 105//105 54//54 64//64
f 125//125 142//142 139//139
f 290//290 109//109 156//156
f 156//156 256//256 290//290
f 381//381 421//421 361//361
f 822//822 856//856 742//742
f 859//859 877//877 868//868
f 865//865 874//874 888//888
f 419//419 321//321 407//407
f 389//389 329//329 378//378
f 383//383 359//359 304//304
f 383//383 304//304 333//333
f 684//684 767//767 774//774
f 651//651 722//722 672//672
f 624//624 697//697 668//668
f 185//185 147//147 242//242
f 185//185 150//150 147//147
f 527//527 542//542 486//486
f 542//542 541//541 486//486
f 675//675 702//702 629//629
f 844//844 862//862 766//766
f 556//556 645//645 678//678
f 655//655 615//615 665//665
f 711//711 714//714 655//655
f 717//717 816//816 768//768
f 859//859 816//816 836//836
f 809//809 859//859 836//836
f 809//809 866//866 859//859
f 833//833 785//785 816//816
f 158//158 164//164 162//162
f 158//158 162//162 166//166
f 632//632 604//604 620//620
f 311//311 292//292 303//303
f 174//174 181//181 173//173
f 171//171 162//162 164//164
f 175//175 171//171 164//164
f 164//164 158//158 159//159
f 164//164 159//159 175//175
f 261//261 265//265 268//268
f 261//261 268//268 239//239
f 175//175 173//173 181//181
f 175//175 159//159 173//173
f 171//171 166//166 203//203
f 258//258 265//265 261//261
f 226//226 231//231 264//264
f 226//226 264//264 227//227
f 239//239 250//250 291//291
f 239//239 291//291 261//261
f 220//220 227//227 226//226
f 202//202 205//205 215//215
f 214//214 219//219 217//217
f 217//217 202//202 215//215
f 214//214 217//217 215//215
f 265//265 291//291 270//270
f 241//241 244//244 243//243
f 241//241 243//243 220//220
f 214//214 226//226 227//227
f 214//214 227//227 219//219
f 191//191 204//204 207//207
f 191//191 207//207 202//202
f 239//239 244//244 241//241
f 303//303 258//258 270//270
f 303//303 270//270 291//291
f 191//191 202//202 197//197
f 174//174 175//175 190//190
f 207//207 204//204 205//205
f 207//207 205//205 202//202
f 286//286 283//283 345//345
f 160//160 162//162 224//224
f 160//160 180//180 195//195
f 215//215 218//218 264//264
f 215//215 264//264 217//217
f 192//192 188//188 203//203
f 192//192 203//203 197//197
f 292//292 327//327 224//224
f 258//258 268//268 265//265
f 197//197 174//174 192//192
f 191//191 197//197 192//192
f 188//188 190//190 203//203
f 116//116 74//74 82//82
f 116//116 82//82 172//172
f 174//174 190//190 181//181
f 175//175 162//162 171//171
f 166//166 162//162 160//160
f 195//195 180//180 194//194
f 160//160 195//195 194//194
f 190//190 175//175 181//181
f 473//473 477//477 434//434
f 477//477 473//473 500//500
f 469//469 547//547 556//556
f 379//379 386//386 435//435
f 565//565 498//498 477//477
f 604//604 615//615 565//565
f 477//477 446//446 433//433
f 469//469 473//473 434//434
f 294//294 316//316 280//280
f 289//289 316//316 427//427
f 323//323 335//335 351//351
f 323//323 351//351 316//316
f 561//561 476//476 532//532
f 180//180 187//187 194//194
f 187//187 206//206 195//195
f 615//615 655//655 608//608
f 291//291 324//324 303//303
f 315//315 313//313 292//292
f 315//315 292//292 311//311
f 613//613 617//617 644//644
f 465//465 502//502 448//448
f 330//330 328//328 325//325
f 353//353 329//329 377//377
f 186//186 150//150 185//185
f 284//284 277//277 359//359
f 137//137 155//155 230//230
f 196//196 200//200 167//167
f 443//443 426//426 494//494
f 591//591 538//538 560//560
f 677//677 560//560 609//609
f 120//120 149//149 276//276
f 281//281 184//184 189//189
f 281//281 189//189 208//208
f 131//131 154//154 257//257
f 101//101 80//80 249//249
f 98//98 232//232 121//121
f 132//132 143//143 130//130
f 92//92 141//141 170//170
f 141//141 168//168 176//176
f 460//460 417//417 456//456
f 87//87 66//66 119//119
f 31//31 52//52 37//37
f 44//44 57//57 66//66
f 140//140 73//73 275//275
f 6//6 19//19 31//31
f 24//24 40//40 33//33
f 236//236 288//288 172//172
f 172//172 288//288 235//235
f 127//127 86//86 113//113
f 127//127 113//113 135//135
f 172//172 82//82 236//236
f 9//9 12//12 7//7
f 26//26 23//23 15//15
f 7//7 16//16 6//6
f 51//51 26//26 12//12
f 82//82 74//74 51//51
f 74//74 49//49 51//51
f 34//34 23//23 43//43
f 43//43 23//23 49//49
f 536//536 599//599 622//622
f 61//61 113//113 86//86
f 58//58 78//78 76//76
f 62//62 69//69 53//53
f 622//622 508//508 536//536
f 651//651 657//657 606//606
f 510//510 507//507 471//471
f 471//471 442//442 396//396
f 521//521 510//510 471//471
f 594//594 600//600 558//558
f 506//506 454//454 399//399
f 307//307 288//288 332//332
f 235//235 211//211 138//138
f 211//211 235//235 307//307
f 135//135 113//113 108//108
f 135//135 136//136 127//127
f 127//127 136//136 126//126
f 136//136 308//308 129//129
f 843//843 869//869 863//863
f 843//843 863//863 856//856
f 442//442 395//395 396//396
f 107//107 91//91 81//81
f 308//308 336//336 182//182
f 14//14 6//6 31//31
f 13//13 39//39 29//29
f 36//36 35//35 55//55
f 1//1 2//2 4//4
f 11//11 1//1 8//8
f 4//4 10//10 8//8
f 22//22 17//17 45//45
f 3//3 2//2 1//1
f 53//53 59//59 29//29
f 85//85 63//63 59//59
f 85//85 109//109 142//142
f 63//63 85//85 83//83
f 29//29 28//28 13//13
f 2//2 5//5 4//4
f 81//81 85//85 67//67
f 533//533 577//577 557//557
f 533//533 557//557 495//495
f 822//822 819//819 829//829
f 807//807 794//794 819//819
f 826//826 858//858 819//819
f 781//781 794//794 765//765
f 869//869 877//877 863//863
f 882//882 874//874 868//868
f 701//701 757//757 643//643
f 514//514 495//495 557//557
f 583//583 586//586 572//572
f 557//557 575//575 572//572
f 575//575 583//583 572//572
f 567//567 586//586 514//514
f 769//769 747//747 740//740
f 680//680 740//740 747//747
f 765//765 747//747 781//781
f 487//487 467//467 495//495
f 663//663 700//700 738//738
f 830//830 870//870 861//861
f 686//686 670//670 631//631
f 688//688 674//674 713//713
f 718//718 688//688 713//713
f 713//713 710//710 775//775
f 710//710 652//652 659//659
f 581//581 626//626 652//652
f 400//400 449//449 490//490
f 852//852 841//841 832//832
f 825//825 791//791 788//788
f 762//762 801//801 761//761
f 831//831 837//837 802//802
f 825//825 792//792 791//791
f 790//790 772//772 753//753
f 694//694 772//772 719//719
f 675//675 616//616 630//630
f 592//592 630//630 616//616
f 614//614 518//518 640//640
f 602//602 649//649 640//640
f 247//247 349//349 361//361
f 573//573 550//550 517//517
f 517//517 550//550 474//474
f 685//685 703//703 653//653
f 589//589 605//605 550//550
f 707//707 657//657 672//672
f 732//732 703//703 729//729
f 732//732 733//733 704//704
f 633//633 660//660 610//610
f 474//474 504//504 478//478
f 478//478 504//504 492//492
f 340//340 290//290 256//256
f 432//432 416//416 374//374
f 374//374 416//416 360//360
f 360//360 368//368 350//350
f 337//337 350//350 362//362
f 360//360 337//337 290//290
f 484//484 479//479 416//416
f 368//368 391//391 362//362
f 479//479 452//452 424//424
f 737//737 679//679 690//690
f 649//649 667//667 679//679
f 689//689 661//661 618//618
f 734//734 689//689 752//752
f 534//534 539//539 596//596
f 590//590 564//564 639//639
f 627//627 610//610 660//660
f 699//699 671//671 660//660
f 64//64 221//221 105//105
f 64//64 139//139 221//221
f 838//838 797//797 850//850
