# convertido de flygym/NeuroMechFly (lh_tibia)
v -0.06035 -0.00785 -0.67852
v -0.05959 0.00901 -0.68075
v -0.05744 0.02805 -0.67545
v -0.05703 0.00770 -0.65756
v -0.05583 0.03368 -0.68592
v -0.05573 -0.00583 -0.69084
v -0.05481 0.04021 -0.69937
v -0.05329 -0.00110 -0.62627
v -0.05266 0.01384 -0.62397
v -0.05203 0.00447 -0.69382
v -0.05161 0.03030 -0.64946
v -0.05082 -0.01363 -0.64457
v -0.04962 0.02587 -0.70100
v -0.04888 -0.01698 -0.61657
v -0.04848 0.00943 -0.59214
v -0.04837 -0.01413 -0.58262
v -0.04766 0.04485 -0.68563
v -0.04616 -0.02648 -0.66402
v -0.04424 -0.00323 -0.55312
v -0.04395 0.03074 -0.63641
v -0.04392 0.02893 -0.61837
v -0.04179 0.04478 -0.66411
v -0.04138 0.01242 -0.56805
v -0.04104 -0.01627 -0.69814
v -0.04098 0.04953 -0.70607
v -0.04054 -0.01105 -0.52071
v -0.03916 -0.02741 -0.62195
v -0.03846 -0.02719 -0.56033
v -0.03831 -0.00261 -0.50913
v -0.03626 0.02761 -0.60040
v -0.03488 0.01246 -0.53111
v -0.03464 -0.02799 -0.68697
v -0.03430 -0.00190 -0.47743
v -0.03428 0.05282 -0.71564
v -0.03426 -0.01179 -0.46693
v -0.03411 0.05446 -0.69888
v -0.03383 -0.02956 -0.52663
v -0.03319 -0.03547 -0.57594
v -0.03222 -0.03514 -0.50332
v -0.03139 -0.01972 -0.43776
v -0.03123 -0.03350 -0.65407
v -0.03118 -0.03498 -0.60964
v -0.02996 -0.01774 -0.40968
v -0.02992 0.00214 -0.71333
v -0.02956 -0.03580 -0.47524
v -0.02926 -0.02410 -0.70500
v -0.02874 -0.01578 -0.33306
v -0.02784 0.04396 -0.64612
v -0.02754 -0.01703 -0.31959
v -0.02750 -0.04031 -0.46689
v -0.02741 0.02596 -0.56451
v -0.02734 -0.00996 -0.38796
v -0.02688 0.01696 -0.48813
v -0.02680 0.00472 -0.42259
v -0.02596 -0.00653 -0.36717
v -0.02567 0.05312 -0.68450
v -0.02533 -0.02291 -0.35394
v -0.02529 0.04533 -0.72593
v -0.02501 -0.02047 -0.30419
v -0.02498 -0.04159 -0.53766
v -0.02427 -0.01497 0.02894
v -0.02349 -0.02227 -0.29727
v -0.02293 -0.02231 -0.29963
v -0.02284 -0.01894 0.02757
v -0.02184 0.05602 -0.71032
v -0.02162 -0.02129 -0.72007
v -0.02161 -0.02305 0.01071
v -0.02160 -0.03907 -0.40595
v -0.02158 -0.02250 -0.29941
v -0.02121 -0.01021 0.02874
v -0.02115 -0.00882 0.03049
v -0.02097 0.01250 0.02201
v -0.02089 -0.00459 0.03110
v -0.02060 0.00480 0.02972
v -0.02051 -0.00249 0.02991
v -0.02028 0.03861 -0.72888
v -0.02018 -0.00548 0.03032
v -0.01994 0.01914 -0.43857
v -0.01990 -0.04455 -0.42490
v -0.01984 -0.02693 -0.28566
v -0.01961 -0.02387 0.01255
v -0.01908 -0.02721 -0.29362
v -0.01900 -0.04314 -0.43547
v -0.01883 -0.02423 -0.26538
v -0.01859 -0.02538 -0.26061
v -0.01845 -0.01678 -0.72184
v -0.01819 0.00283 0.02377
v -0.01809 -0.01768 -0.29941
v -0.01809 -0.04098 -0.37963
v -0.01797 -0.00503 0.03048
v -0.01796 -0.02720 -0.26912
v -0.01780 0.00744 0.02372
v -0.01771 -0.02549 -0.26050
v -0.01768 0.03512 -0.61333
v -0.01750 0.00901 0.02268
v -0.01749 -0.02882 -0.27850
v -0.01741 -0.02354 0.00916
v -0.01716 -0.02453 0.00814
v -0.01712 -0.03815 -0.34410
v -0.01624 -0.02746 -0.25634
v -0.01592 -0.01793 -0.72316
v -0.01590 -0.01815 -0.72348
v -0.01574 -0.02530 -0.25634
v -0.01569 -0.01112 0.01030
v -0.01458 -0.03830 -0.61684
v -0.01426 0.00819 0.02130
v -0.01384 -0.02699 -0.24964
v -0.01331 0.04079 -0.63359
v -0.01319 -0.03658 -0.30115
v -0.01284 0.02807 -0.51124
v -0.01266 -0.02941 -0.23408
v -0.01213 0.01783 0.01236
v -0.01204 0.00951 -0.35222
v -0.01203 0.02323 -0.39253
v -0.01201 -0.02515 0.00576
v -0.01180 0.03055 -0.55922
v -0.01144 0.02516 -0.42128
v -0.01136 0.01276 0.01076
v -0.01118 -0.03628 -0.68708
v -0.01114 0.02615 -0.46507
v -0.01080 0.01818 0.01235
v -0.01040 -0.03771 -0.64666
v -0.00997 0.01508 0.01228
v -0.00980 0.01810 0.01203
v -0.00971 0.01694 0.01129
v -0.00967 -0.01934 0.00158
v -0.00966 -0.01028 -0.72706
v -0.00942 -0.02756 -0.20857
v -0.00926 0.04672 -0.72695
v -0.00912 -0.02921 -0.22047
v -0.00866 0.02713 0.00976
v -0.00829 -0.02751 -0.20845
v -0.00762 -0.02890 -0.20622
v -0.00758 -0.02655 -0.20636
v -0.00738 0.01769 -0.00764
v -0.00729 -0.01919 0.01653
v -0.00720 0.01454 0.01286
v -0.00714 0.04880 -0.66272
v -0.00701 0.02848 -0.72559
v -0.00700 -0.05456 -0.47489
v -0.00694 -0.04117 -0.58524
v -0.00687 0.02619 -0.38071
v -0.00650 -0.01814 -0.21311
v -0.00619 -0.04986 -0.54192
v -0.00540 -0.02923 -0.18385
v -0.00512 -0.02138 -0.72018
v -0.00476 -0.02939 -0.19227
v -0.00460 -0.02496 -0.14616
v -0.00402 -0.02632 -0.13096
v -0.00395 -0.05111 -0.36745
v -0.00355 -0.02586 -0.00331
v -0.00316 -0.02786 -0.11482
v -0.00306 0.02912 0.00428
v -0.00298 -0.00072 -0.72338
v -0.00291 0.05056 -0.70573
v -0.00274 -0.00336 -0.03772
v -0.00270 0.02834 -0.43503
v -0.00262 -0.02730 -0.10011
v -0.00247 -0.05611 -0.49986
v -0.00191 -0.02867 -0.10221
v -0.00173 0.03104 -0.34132
v -0.00140 -0.02585 -0.09858
v -0.00136 -0.02795 -0.10076
v -0.00113 0.02971 -0.35399
v -0.00062 0.01434 -0.72506
v -0.00055 -0.03857 -0.24005
v -0.00019 -0.03029 -0.16684
v 0.00015 0.03108 -0.00361
v 0.00015 0.05167 -0.68783
v 0.00028 -0.02881 -0.09389
v 0.00054 0.03080 -0.37305
v 0.00071 -0.01542 -0.10374
v 0.00072 0.03247 -0.49279
v 0.00109 -0.05773 -0.45763
v 0.00114 0.03202 -0.32305
v 0.00129 -0.02896 -0.08212
v 0.00145 -0.05113 -0.33753
v 0.00167 -0.02974 -0.01540
v 0.00191 0.03205 -0.30030
v 0.00192 0.03192 -0.40746
v 0.00237 0.03619 -0.02054
v 0.00254 -0.02912 -0.06865
v 0.00256 0.03916 -0.71934
v 0.00276 -0.04545 -0.27172
v 0.00320 0.03669 -0.63562
v 0.00350 -0.02810 -0.04884
v 0.00352 0.03628 -0.06810
v 0.00379 -0.03130 -0.06234
v 0.00383 -0.01103 0.01076
v 0.00410 0.03438 -0.28584
v 0.00450 0.00699 -0.10612
v 0.00464 -0.03137 -0.06114
v 0.00476 0.03509 -0.02891
v 0.00479 0.03609 -0.05492
v 0.00481 -0.03058 -0.06164
v 0.00491 -0.03137 -0.05124
v 0.00508 -0.03576 -0.65825
v 0.00522 -0.03203 -0.03067
v 0.00532 0.03587 -0.21275
v 0.00548 -0.03188 -0.05425
v 0.00556 0.03588 -0.25154
v 0.00575 -0.03243 -0.04529
v 0.00583 0.03563 -0.23167
v 0.00592 -0.05815 -0.41163
v 0.00594 -0.03180 -0.05008
v 0.00597 0.03577 -0.09629
v 0.00609 0.03437 -0.27019
v 0.00612 -0.03101 -0.05081
v 0.00649 -0.05949 -0.38938
v 0.00662 -0.05657 -0.35157
v 0.00673 0.03401 -0.04304
v 0.00674 0.03450 -0.15476
v 0.00722 0.03122 -0.58145
v 0.00727 0.01559 -0.13003
v 0.00799 -0.05120 -0.31820
v 0.00810 0.03590 -0.05542
v 0.00817 -0.01986 -0.71467
v 0.00829 0.03587 -0.19432
v 0.00856 0.03198 -0.51416
v 0.00860 0.03669 -0.17962
v 0.00967 0.03331 -0.56527
v 0.00978 -0.01914 0.00066
v 0.01053 -0.03513 -0.63631
v 0.01138 -0.03970 -0.22127
v 0.01145 0.03058 -0.60976
v 0.01207 0.03500 -0.12315
v 0.01214 -0.03059 -0.06070
v 0.01289 -0.03162 -0.67395
v 0.01324 0.03542 -0.14492
v 0.01402 0.03808 -0.22009
v 0.01492 0.03743 -0.66401
v 0.01550 0.01396 -0.00708
v 0.01597 0.03341 -0.46492
v 0.01631 -0.05074 -0.30331
v 0.01635 0.01805 -0.71225
v 0.01730 0.03574 -0.27979
v 0.01746 0.03646 -0.17734
v 0.01863 -0.05731 -0.49288
v 0.01940 0.03490 -0.32188
v 0.01945 -0.03543 -0.10004
v 0.02046 -0.04250 -0.20930
v 0.02075 -0.04670 -0.25700
v 0.02086 -0.04292 -0.57857
v 0.02151 0.03621 -0.38770
v 0.02156 0.03405 -0.34959
v 0.02183 0.02997 -0.56153
v 0.02210 -0.00175 -0.00298
v 0.02210 0.03365 -0.37179
v 0.02274 -0.02482 -0.03280
v 0.02318 0.03442 -0.42415
v 0.02370 -0.03617 -0.13914
v 0.02375 0.00793 -0.70769
v 0.02384 -0.05735 -0.52429
v 0.02420 -0.03902 -0.17935
v 0.02452 0.03297 -0.29842
v 0.02460 0.03246 -0.40500
v 0.02485 -0.01516 -0.70081
v 0.02635 -0.00881 -0.01166
v 0.02655 -0.02597 -0.65850
v 0.02703 -0.01555 -0.68709
v 0.02723 0.02287 -0.08005
v 0.03146 0.00536 -0.69593
v 0.03178 0.03026 -0.63373
v 0.03208 -0.05814 -0.47214
v 0.03222 0.03156 -0.20818
v 0.03234 0.02627 -0.14366
v 0.03257 -0.05754 -0.37725
v 0.03331 -0.05659 -0.45115
v 0.03376 -0.05954 -0.41367
v 0.03406 0.00298 -0.03454
v 0.03489 -0.02475 -0.07301
v 0.03559 -0.00014 -0.68300
v 0.03610 0.02770 -0.59430
v 0.03746 0.01569 -0.07965
v 0.03766 0.02581 -0.51323
v 0.03791 -0.00395 -0.04342
v 0.03843 -0.02237 -0.09779
v 0.03874 0.02706 -0.25180
v 0.03895 0.02827 -0.56847
v 0.03905 0.02932 -0.39885
v 0.03915 -0.03262 -0.61473
v 0.03927 0.02694 -0.35197
v 0.03941 -0.04181 -0.22989
v 0.03974 -0.05387 -0.35010
v 0.04178 0.02604 -0.49635
v 0.04182 -0.05754 -0.42879
v 0.04191 -0.00454 -0.07245
v 0.04191 -0.04281 -0.56310
v 0.04202 0.01016 -0.08793
v 0.04223 0.01522 -0.14527
v 0.04257 -0.05193 -0.51697
v 0.04330 -0.01094 -0.65765
v 0.04365 0.02672 -0.37061
v 0.04373 -0.02884 -0.14003
v 0.04468 0.02162 -0.61687
v 0.04592 -0.03125 -0.18155
v 0.04617 -0.02166 -0.63697
v 0.04633 -0.02312 -0.13448
v 0.04658 -0.04527 -0.29547
v 0.04662 -0.04274 -0.26165
v 0.04683 -0.00320 -0.64980
v 0.04736 -0.04948 -0.32075
v 0.04756 0.02392 -0.47695
v 0.04779 0.00541 -0.13462
v 0.04819 0.02476 -0.32776
v 0.04830 0.02507 -0.44977
v 0.04917 0.01751 -0.52650
v 0.04966 -0.03698 -0.23968
v 0.04973 -0.02401 -0.17946
v 0.04985 0.00106 -0.15979
v 0.04988 -0.03372 -0.15752
v 0.05045 -0.04622 -0.51875
v 0.05086 0.01070 -0.18546
v 0.05172 -0.04662 -0.47869
v 0.05194 -0.04613 -0.37356
v 0.05283 -0.02993 -0.21026
v 0.05294 -0.05081 -0.40317
v 0.05368 -0.02453 -0.15596
v 0.05385 -0.02118 -0.21822
v 0.05405 0.01462 -0.35612
v 0.05413 -0.04760 -0.42994
v 0.05440 -0.03361 -0.55718
v 0.05477 0.01788 -0.30422
v 0.05528 0.00917 -0.59286
v 0.05564 -0.00889 -0.62590
v 0.05595 -0.02126 -0.59662
v 0.05631 0.01316 -0.25802
v 0.05681 0.00148 -0.20758
v 0.05713 0.01071 -0.23606
v 0.05770 -0.00469 -0.59888
v 0.05808 0.01681 -0.28364
v 0.05923 -0.00006 -0.23615
v 0.05931 -0.00097 -0.57057
v 0.05973 -0.02987 -0.27056
v 0.06054 0.00410 -0.55436
v 0.06067 -0.03002 -0.26193
v 0.06176 -0.01671 -0.55242
v 0.06276 -0.00190 -0.53430
v 0.06277 0.00712 -0.39083
v 0.06287 -0.01863 -0.27400
v 0.06301 -0.02688 -0.48712
v 0.06358 -0.03449 -0.46746
v 0.06373 -0.00364 -0.22237
v 0.06375 0.00512 -0.27810
v 0.06396 -0.02795 -0.51757
v 0.06403 0.00487 -0.48400
v 0.06527 -0.00816 -0.49585
v 0.06557 -0.02662 -0.39937
v 0.06581 0.00064 -0.44386
v 0.06628 -0.03068 -0.41914
v 0.06649 -0.01672 -0.45876
v 0.06684 -0.00608 -0.39297
v 0.06726 -0.02904 -0.37028
v 0.06750 -0.02742 -0.30062
v 0.06763 0.00174 -0.32151
v 0.06831 0.00071 -0.42759
v 0.06862 0.00447 -0.37509
v 0.06867 -0.02796 -0.33294
v 0.06942 -0.01069 -0.48074
v 0.06943 -0.00150 -0.34107
v 0.07121 -0.00198 -0.36766
v 0.07209 -0.02967 -0.35188
v 0.07288 -0.00071 -0.35561
vn -0.9041 -0.4255 -0.0388
vn -0.9815 0.1061 -0.1593
vn -0.9548 0.2956 0.0308
vn -0.9901 0.0204 0.1392
vn -0.9723 0.2256 -0.0617
vn -0.7654 -0.3975 -0.5061
vn -0.8250 0.4949 -0.2729
vn -0.9881 -0.1345 0.0750
vn -0.9638 0.2224 0.1472
vn -0.7463 -0.0988 -0.6583
vn -0.8804 0.4299 0.2002
vn -0.8678 -0.4850 0.1080
vn -0.7660 -0.0582 -0.6402
vn -0.8392 -0.5437 0.0129
vn -0.9260 0.3279 0.1870
vn -0.9682 -0.2232 0.1132
vn -0.5441 0.8233 0.1620
vn -0.6617 -0.7498 0.0015
vn -0.9856 0.0552 0.1599
vn -0.5851 0.7689 0.2578
vn -0.7839 0.5870 0.2023
vn -0.5458 0.8068 0.2261
vn -0.8104 0.5593 0.1741
vn -0.6565 -0.3675 -0.6588
vn -0.7080 0.4258 -0.5634
vn -0.9877 -0.1255 0.0935
vn -0.5918 -0.8055 -0.0295
vn -0.8952 -0.4351 0.0964
vn -0.9354 0.3390 0.1007
vn -0.5114 0.8313 0.2175
vn -0.8098 0.5739 0.1217
vn -0.4986 -0.8316 -0.2449
vn -0.8984 0.4222 0.1208
vn -0.6351 0.5151 -0.5755
vn -0.9948 0.0319 0.0969
vn -0.3740 0.9248 0.0698
vn -0.8834 -0.4676 0.0314
vn -0.5261 -0.8493 -0.0435
vn -0.7350 -0.6779 0.0106
vn -0.9740 -0.2131 0.0776
vn -0.4032 -0.9151 -0.0065
vn -0.5268 -0.8462 -0.0800
vn -0.9868 -0.1273 0.1003
vn -0.5228 -0.1588 -0.8375
vn -0.9014 -0.4282 0.0645
vn -0.5962 -0.6156 -0.5154
vn -0.9871 0.1527 0.0474
vn -0.2315 0.9362 0.2645
vn -0.9821 -0.0126 0.1878
vn -0.7989 -0.5962 0.0800
vn -0.5128 0.8487 0.1296
vn -0.9934 -0.0999 0.0558
vn -0.7661 0.6307 0.1240
vn -0.9264 0.3691 0.0748
vn -0.8997 0.4235 0.1055
vn -0.1017 0.9794 0.1747
vn -0.9558 -0.2937 -0.0138
vn -0.6129 0.0470 -0.7888
vn -0.9011 0.3024 0.3108
vn -0.6018 -0.7986 -0.0121
vn -0.9527 0.1939 -0.2339
vn -0.5349 0.5271 0.6603
vn -0.9147 0.0062 0.4041
vn 0.3223 -0.6630 0.6757
vn 0.0895 0.9847 -0.1495
vn -0.1894 -0.8782 -0.4393
vn -0.8532 0.1944 -0.4839
vn -0.7530 -0.6549 0.0634
vn -0.9591 0.2827 0.0166
vn -0.8055 0.2613 0.5319
vn 0.2367 -0.2356 0.9426
vn -0.9106 0.0295 -0.4122
vn -0.8955 -0.1162 0.4296
vn 0.5839 0.3249 0.7439
vn -0.9397 -0.0562 -0.3375
vn -0.1769 -0.2117 -0.9612
vn -0.9814 0.1677 0.0937
vn -0.8009 0.5976 0.0384
vn -0.7274 -0.6856 0.0303
vn -0.9773 0.1740 0.1208
vn -0.0310 -0.9483 0.3158
vn -0.8620 -0.5004 0.0811
vn -0.6560 -0.7525 0.0586
vn 0.1814 0.9669 -0.1795
vn -0.9521 -0.2160 0.2163
vn -0.6259 0.1007 -0.7734
vn -0.9293 0.1701 -0.3278
vn -0.8463 0.4960 0.1945
vn -0.8860 -0.4592 0.0646
vn 0.5996 -0.1408 0.7878
vn -0.8571 -0.5107 0.0672
vn 0.5948 0.7069 -0.3827
vn -0.9328 -0.3066 0.1893
vn -0.0471 0.9874 0.1508
vn 0.5029 0.8353 0.2223
vn -0.9858 0.1127 0.1248
vn -0.4995 -0.5534 -0.6665
vn -0.5340 -0.4741 -0.7000
vn -0.7486 -0.6583 0.0789
vn -0.6702 -0.7334 0.1136
vn -0.1858 -0.5486 -0.8152
vn 0.0099 -0.4555 -0.8902
vn 0.6664 0.7424 -0.0690
vn -0.9071 0.1669 -0.3863
vn -0.1314 -0.9893 -0.0638
vn 0.5412 0.4039 0.7375
vn -0.9451 0.3019 0.1253
vn 0.1244 0.9491 0.2895
vn -0.6300 -0.7711 0.0925
vn -0.4456 0.8934 0.0567
vn -0.6780 -0.7331 0.0538
vn -0.5639 0.7202 0.4041
vn -0.8224 0.5527 0.1348
vn -0.7819 0.6160 0.0958
vn -0.0132 -0.9970 0.0765
vn -0.1539 0.9869 0.0492
vn -0.6521 0.7573 0.0358
vn -0.9590 0.1907 -0.2094
vn -0.0096 -0.9756 -0.2193
vn -0.5300 0.8453 0.0673
vn 0.9208 0.3427 0.1862
vn -0.0267 -0.9993 -0.0259
vn 0.0352 0.5233 -0.8514
vn -0.4257 0.2302 0.8751
vn -0.8681 0.1730 0.4653
vn -0.8275 -0.0864 -0.5548
vn 0.2523 -0.1284 -0.9591
vn -0.9787 0.1991 0.0497
vn 0.3427 0.6495 -0.6787
vn -0.9780 0.1932 0.0786
vn 0.2650 0.4439 0.8560
vn -0.9257 -0.1500 0.3473
vn -0.7980 -0.5849 0.1452
vn -0.7235 0.4687 0.5068
vn -0.9619 0.0653 -0.2655
vn 0.4674 -0.6570 0.5914
vn 0.6038 0.2866 0.7438
vn 0.2043 0.9512 0.2313
vn 0.1715 -0.1149 -0.9785
vn -0.3823 -0.9238 -0.0181
vn -0.1417 -0.9806 -0.1353
vn -0.7357 0.6586 0.1582
vn -0.9764 0.2110 0.0451
vn -0.2049 -0.9641 -0.1688
vn -0.9976 -0.0697 0.0038
vn 0.1479 -0.8389 -0.5238
vn -0.9701 -0.2117 0.1188
vn -0.9945 0.1026 0.0203
vn -0.9786 0.1778 0.1033
vn -0.5884 -0.8076 0.0397
vn 0.1492 -0.9486 0.2790
vn -0.5629 -0.8259 0.0313
vn 0.6628 0.4547 0.5949
vn 0.1653 0.0196 -0.9861
vn 0.4962 0.8385 -0.2253
vn -0.9949 0.0087 -0.1006
vn -0.3052 0.9522 -0.0127
vn -0.9698 0.0498 0.2387
vn -0.3556 -0.9336 -0.0431
vn -0.7395 -0.6717 0.0428
vn -0.7580 0.6505 0.0481
vn -0.9070 0.3326 0.2582
vn -0.4343 -0.8931 0.1174
vn -0.4761 0.8784 -0.0418
vn 0.0468 -0.0687 -0.9965
vn -0.4518 -0.8831 0.1263
vn -0.3409 -0.9388 0.0488
vn 0.0032 0.9822 0.1881
vn 0.4512 0.8920 0.0261
vn -0.6912 -0.7172 0.0883
vn -0.4442 0.8932 0.0703
vn -0.9761 0.2058 0.0692
vn -0.2229 0.9745 0.0263
vn -0.2776 -0.9604 0.0217
vn -0.7323 0.6754 0.0871
vn -0.5533 -0.8301 0.0691
vn -0.5478 -0.8289 0.1134
vn -0.8199 -0.5651 -0.0921
vn -0.9069 0.4165 0.0641
vn -0.2783 0.9602 -0.0225
vn -0.8108 0.5574 -0.1785
vn -0.9982 -0.0286 -0.0529
vn 0.7984 0.5205 -0.3028
vn -0.4607 -0.8834 0.0861
vn 0.2531 0.9466 0.1996
vn -0.9512 -0.3056 0.0427
vn -0.9668 0.2538 -0.0296
vn -0.5509 -0.8346 0.0049
vn 0.6382 0.0664 0.7670
vn -0.8755 0.4756 0.0850
vn -0.9908 0.1314 -0.0320
vn 0.1185 -0.9712 -0.2069
vn 0.7480 0.6403 0.1747
vn -0.9338 0.3252 0.1490
vn 0.1095 -0.9488 -0.2962
vn -0.7522 -0.5922 0.2889
vn 0.2523 -0.9659 -0.0582
vn -0.6903 -0.7235 0.0082
vn -0.9353 0.3487 0.0595
vn -0.4787 -0.8769 0.0444
vn -0.9516 0.3072 -0.0128
vn 0.2238 -0.9743 0.0234
vn -0.9396 0.3422 -0.0056
vn -0.3087 -0.9511 -0.0049
vn -0.7061 -0.6907 -0.1564
vn -0.9863 0.1155 -0.1174
vn -0.8692 0.4886 0.0762
vn 0.0018 -0.9999 -0.0155
vn -0.1287 -0.9910 0.0359
vn -0.1638 -0.9795 0.1175
vn 0.2738 0.9506 0.1460
vn -0.9625 0.2646 0.0606
vn 0.0926 0.9957 0.0002
vn -0.9596 0.2656 0.0924
vn -0.1040 -0.9839 0.1452
vn 0.4852 0.8725 0.0570
vn 0.5131 -0.5830 -0.6300
vn -0.9087 0.4163 0.0308
vn 0.0671 0.9977 -0.0086
vn -0.1188 0.9925 0.0296
vn 0.0167 0.9998 -0.0117
vn 0.5714 -0.6743 0.4678
vn 0.1651 -0.9777 -0.1294
vn -0.2602 -0.9599 0.1041
vn 0.1366 0.9876 0.0774
vn -0.3603 0.9302 -0.0698
vn 0.1708 -0.9811 0.0905
vn 0.4430 -0.8671 -0.2276
vn -0.1140 0.9868 0.1154
vn 0.1897 0.9817 -0.0161
vn 0.6827 0.7261 -0.0819
vn 0.7618 0.5618 0.3224
vn -0.0130 0.9998 -0.0137
vn -0.0834 -0.9931 0.0829
vn 0.6046 0.0551 -0.7946
vn 0.1652 0.9856 -0.0359
vn 0.2789 0.9589 0.0516
vn 0.0319 -0.9995 -0.0073
vn 0.2126 0.9769 0.0238
vn 0.0171 -0.9976 0.0673
vn -0.0640 -0.9973 0.0358
vn 0.0087 -0.9938 0.1109
vn 0.0589 -0.9800 -0.1903
vn -0.0015 1.0000 -0.0089
vn 0.0511 0.9982 -0.0318
vn 0.1713 0.9852 0.0054
vn 0.7198 0.1857 0.6689
vn 0.1314 0.9900 0.0510
vn 0.6163 -0.7547 0.2250
vn 0.1360 0.9905 -0.0197
vn 0.0011 -0.9971 0.0766
vn 0.6758 -0.0795 -0.7328
vn 0.0522 -0.9846 -0.1668
vn 0.0044 -0.9966 0.0825
vn 0.3374 0.9412 -0.0185
vn 0.0801 0.9958 -0.0453
vn 0.7434 -0.5085 -0.4344
vn 0.8439 -0.3879 0.3705
vn 0.4787 -0.8466 -0.2326
vn 0.7311 -0.6275 -0.2680
vn 0.6784 0.7229 0.1310
vn 0.8370 0.4849 -0.2535
vn 0.5801 0.8081 -0.1027
vn 0.1683 -0.9854 -0.0255
vn 0.5836 0.8110 0.0417
vn 0.5901 0.8046 0.0659
vn 0.2241 -0.9714 0.0783
vn 0.2062 -0.9781 -0.0272
vn 0.2017 -0.9795 0.0012
vn 0.8008 0.5548 0.2255
vn 0.6564 -0.7373 0.1598
vn 0.9225 0.2476 -0.2962
vn 0.3309 0.9437 -0.0019
vn 0.8417 0.5042 0.1932
vn 0.4105 0.9119 0.0047
vn 0.9096 -0.3464 0.2293
vn 0.9798 -0.1579 0.1231
vn 0.4872 0.8733 0.0081
vn 0.5860 0.8103 0.0067
vn 0.3367 0.9415 0.0151
vn 0.4124 -0.8888 -0.1998
vn 0.4078 0.9131 -0.0021
vn 0.2202 -0.9691 0.1112
vn 0.3433 -0.9359 0.0794
vn 0.3860 0.9205 -0.0606
vn 0.1842 -0.9797 -0.0794
vn 0.9944 -0.0228 0.1037
vn 0.3712 -0.9049 -0.2081
vn 0.9588 0.2725 0.0802
vn 0.7854 0.6136 0.0811
vn 0.4122 -0.9062 -0.0939
vn 0.8066 -0.4706 -0.3577
vn 0.6686 0.7426 0.0396
vn 0.5044 -0.8496 0.1538
vn 0.8240 0.5326 -0.1930
vn 0.5023 -0.8617 0.0723
vn 0.7024 -0.6581 -0.2714
vn 0.9696 -0.1007 0.2230
vn 0.3864 -0.9165 0.1037
vn 0.4174 -0.9058 0.0723
vn 0.9124 0.3041 -0.2738
vn 0.4163 -0.9062 0.0737
vn 0.6246 0.7803 -0.0321
vn 0.9909 0.0416 0.1283
vn 0.5837 0.8118 -0.0153
vn 0.6475 0.7620 -0.0124
vn 0.7258 0.6847 -0.0658
vn 0.7078 -0.6947 0.1280
vn 0.9889 -0.1421 0.0440
vn 0.9881 0.1095 0.1082
vn 0.4460 -0.8922 0.0705
vn 0.7795 -0.6216 -0.0778
vn 0.7927 0.6023 0.0938
vn 0.5793 -0.8148 -0.0227
vn 0.6116 -0.7883 0.0679
vn 0.9108 -0.4038 0.0860
vn 0.6587 -0.7514 0.0394
vn 0.9972 0.0057 0.0752
vn 0.9679 -0.2233 0.1153
vn 0.6959 0.7181 -0.0041
vn 0.6563 -0.7533 -0.0428
vn 0.7634 -0.6263 -0.1582
vn 0.5381 0.8428 0.0111
vn 0.8463 0.5271 -0.0772
vn 0.9725 0.0746 -0.2206
vn 0.8721 -0.4670 -0.1459
vn 0.7926 0.5995 0.1116
vn 0.9852 0.0182 0.1703
vn 0.7591 0.6481 0.0611
vn 0.9957 0.0222 -0.0899
vn 0.6206 0.7839 0.0167
vn 0.9962 -0.0419 0.0762
vn 0.9898 0.1143 -0.0856
vn 0.9110 -0.3929 0.1255
vn 0.8268 0.5624 -0.0132
vn 0.8198 -0.5554 0.1393
vn 0.9859 -0.1328 -0.1015
vn 0.9624 0.2651 -0.0592
vn 0.7678 0.6406 0.0104
vn 0.9905 -0.0319 0.1338
vn 0.9430 -0.3283 -0.0539
vn 0.8832 -0.4657 -0.0559
vn 0.9948 -0.0534 0.0871
vn 0.9782 0.1806 0.1020
vn 0.9559 -0.2869 -0.0622
vn 0.8303 0.5548 -0.0527
vn 0.9970 0.0072 -0.0773
vn 0.9996 -0.0271 0.0042
vn 0.8908 0.4541 -0.0161
vn 0.9454 -0.3258 -0.0093
vn 0.9938 -0.1097 -0.0201
vn 0.9978 0.0272 -0.0604
vn 0.9352 -0.3463 -0.0742
vn 0.9266 -0.3599 0.1087
vn 0.9288 0.3693 0.0309
vn 0.9717 0.2363 -0.0044
vn 0.8004 0.5967 -0.0574
vn 0.8083 -0.5859 0.0583
vn 0.9992 0.0099 -0.0384
vn 0.9730 0.2058 0.1040
vn 0.9789 0.1772 -0.1014
vn 0.9407 -0.3386 0.0227
vn 0.9685 0.2465 -0.0362
f 146//146 127//127 217//217
f 129//129 65//65 155//155
f 65//65 58//58 34//34
f 44//44 10//10 58//58
f 76//76 139//139 44//44
f 36//36 34//34 25//25
f 25//25 34//34 13//13
f 13//13 34//34 58//58
f 5//5 13//13 10//10
f 235//235 165//165 139//139
f 139//139 183//183 235//235
f 262//262 235//235 183//183
f 252//252 235//235 262//262
f 217//217 235//235 252//252
f 235//235 154//154 165//165
f 139//139 129//129 183//183
f 65//65 56//56 169//169
f 48//48 138//138 56//56
f 17//17 5//5 22//22
f 169//169 56//56 138//138
f 56//56 65//65 36//36
f 231//231 183//183 169//169
f 169//169 138//138 231//231
f 262//262 231//231 263//263
f 5//5 7//7 13//13
f 101//101 102//102 146//146
f 101//101 146//146 66//66
f 86//86 102//102 66//66
f 32//32 6//6 24//24
f 1//1 6//6 32//32
f 44//44 46//46 24//24
f 32//32 24//24 46//46
f 2//2 6//6 1//1
f 18//18 1//1 32//32
f 18//18 32//32 41//41
f 197//197 119//119 228//228
f 86//86 66//66 46//46
f 5//5 10//10 3//3
f 3//3 4//4 11//11
f 4//4 1//1 12//12
f 20//20 22//22 11//11
f 48//48 22//22 20//20
f 9//9 20//20 11//11
f 4//4 12//12 8//8
f 9//9 4//4 8//8
f 41//41 27//27 12//12
f 105//105 41//41 122//122
f 122//122 223//223 105//105
f 94//94 108//108 48//48
f 21//21 30//30 20//20
f 14//14 42//42 38//38
f 51//51 30//30 23//23
f 15//15 9//9 16//16
f 16//16 8//8 14//14
f 263//263 185//185 225//225
f 225//225 94//94 213//213
f 144//144 141//141 243//243
f 144//144 60//60 38//38
f 38//38 141//141 144//144
f 41//41 12//12 18//18
f 16//16 14//14 38//38
f 31//31 51//51 23//23
f 94//94 30//30 51//51
f 221//221 219//219 246//246
f 219//219 110//110 173//173
f 26//26 28//28 37//37
f 140//140 39//39 159//159
f 53//53 31//31 29//29
f 33//33 29//29 26//26
f 120//120 53//53 33//33
f 26//26 39//39 45//45
f 35//35 26//26 45//45
f 174//174 50//50 140//140
f 40//40 50//50 83//83
f 26//26 37//37 39//39
f 120//120 33//33 78//78
f 157//157 120//120 78//78
f 117//117 78//78 54//54
f 114//114 180//180 117//117
f 117//117 54//54 114//114
f 55//55 54//54 52//52
f 114//114 54//54 55//55
f 142//142 180//180 114//114
f 233//233 173//173 120//120
f 257//257 217//217 252//252
f 204//204 79//79 83//83
f 52//52 57//57 55//55
f 55//55 57//57 47//47
f 260//260 272//272 292//292
f 260//260 292//292 259//259
f 259//259 297//297 281//281
f 292//292 301//301 325//325
f 297//297 292//292 325//325
f 272//272 263//263 295//295
f 326//326 297//297 325//325
f 281//281 297//297 326//326
f 263//263 273//273 295//295
f 337//337 326//326 330//330
f 288//288 281//281 322//322
f 281//281 326//326 322//322
f 337//337 330//330 333//333
f 243//243 281//281 288//288
f 324//324 279//279 335//335
f 337//337 335//335 338//338
f 346//346 338//338 307//307
f 307//307 285//285 346//346
f 219//219 173//173 233//233
f 219//219 233//233 285//285
f 238//238 253//253 291//291
f 140//140 159//159 238//238
f 341//341 312//312 345//345
f 314//314 312//312 342//342
f 268//268 174//174 264//264
f 342//342 312//312 341//341
f 341//341 359//359 351//351
f 314//314 342//342 321//321
f 350//350 321//321 342//342
f 286//286 268//268 321//321
f 303//303 250//250 306//306
f 233//233 157//157 250//250
f 280//280 250//250 256//256
f 250//250 285//285 233//233
f 339//339 356//356 306//306
f 349//349 306//306 356//356
f 348//348 356//356 352//352
f 350//350 356//356 348//348
f 250//250 157//157 180//180
f 256//256 250//250 180//180
f 256//256 180//180 244//244
f 280//280 244//244 248//248
f 361//361 352//352 357//357
f 353//353 352//352 361//361
f 320//320 360//360 363//363
f 357//357 320//320 361//361
f 293//293 306//306 280//280
f 272//272 262//262 263//263
f 204//204 174//174 268//268
f 89//89 68//68 150//150
f 210//210 209//209 267//267
f 150//150 68//68 204//204
f 315//315 267//267 317//317
f 267//267 269//269 317//317
f 284//284 267//267 315//315
f 315//315 317//317 353//353
f 177//177 210//210 215//215
f 177//177 99//99 210//210
f 284//284 315//315 358//358
f 362//362 353//353 363//363
f 315//315 353//353 362//362
f 284//284 210//210 267//267
f 245//245 248//248 164//164
f 282//282 248//248 245//245
f 239//239 161//161 175//175
f 245//245 164//164 161//161
f 245//245 161//161 239//239
f 320//320 282//282 305//305
f 239//239 323//323 305//305
f 323//323 239//239 255//255
f 164//164 113//113 161//161
f 175//175 161//161 88//88
f 215//215 109//109 177//177
f 234//234 109//109 215//215
f 59//59 49//49 82//82
f 80//80 88//88 82//82
f 96//96 82//82 109//109
f 96//96 80//80 82//82
f 358//358 360//360 354//354
f 355//355 354//354 360//360
f 340//340 355//355 344//344
f 234//234 302//302 299//299
f 242//242 234//234 299//299
f 242//242 299//299 300//300
f 175//175 96//96 179//179
f 190//190 179//179 107//107
f 255//255 175//175 236//236
f 207//207 190//190 107//107
f 236//236 190//190 207//207
f 255//255 236//236 278//278
f 236//236 179//179 190//190
f 103//103 107//107 96//96
f 93//93 91//91 100//100
f 103//103 85//85 100//100
f 130//130 107//107 111//111
f 323//323 255//255 331//331
f 344//344 327//327 332//332
f 327//327 344//344 331//331
f 308//308 300//300 336//336
f 308//308 336//336 319//319
f 319//319 336//336 334//334
f 91//91 96//96 100//100
f 184//184 234//234 242//242
f 332//332 340//340 344//344
f 242//242 166//166 184//184
f 283//283 242//242 300//300
f 283//283 224//224 242//242
f 241//241 224//224 283//283
f 283//283 308//308 296//296
f 207//207 201//201 230//230
f 201//201 203//203 230//230
f 207//207 130//130 201//201
f 199//199 203//203 143//143
f 230//230 203//203 199//199
f 218//218 199//199 143//143
f 218//218 143//143 212//212
f 327//327 278//278 329//329
f 278//278 230//230 265//265
f 329//329 278//278 265//265
f 328//328 343//343 329//329
f 265//265 313//313 329//329
f 218//218 237//237 230//230
f 218//218 220//220 237//237
f 265//265 237//237 266//266
f 265//265 266//266 313//313
f 236//236 230//230 278//278
f 133//133 130//130 166//166
f 147//147 143//143 133//133
f 147//147 166//166 224//224
f 212//212 143//143 147//147
f 167//167 224//224 254//254
f 311//311 296//296 309//309
f 147//147 145//145 212//212
f 212//212 148//148 149//149
f 167//167 149//149 148//148
f 318//318 309//309 310//310
f 294//294 251//251 311//311
f 240//240 160//160 152//152
f 145//145 167//167 148//148
f 309//309 328//328 310//310
f 298//298 311//311 318//318
f 214//214 229//229 212//212
f 226//226 229//229 214//214
f 229//229 226//226 266//266
f 304//304 290//290 289//289
f 277//277 298//298 304//304
f 289//289 290//290 261//261
f 206//206 226//226 191//191
f 191//191 214//214 172//172
f 240//240 163//163 160//160
f 176//176 170//170 240//240
f 271//271 294//294 277//277
f 182//182 172//172 176//176
f 182//182 176//176 227//227
f 227//227 240//240 271//271
f 266//266 216//216 261//261
f 206//206 182//182 156//156
f 194//194 187//187 156//156
f 261//261 216//216 211//211
f 270//270 261//261 211//211
f 193//193 232//232 270//270
f 261//261 270//270 274//274
f 206//206 191//191 182//182
f 181//181 156//156 135//135
f 232//232 193//193 181//181
f 232//232 168//168 153//153
f 156//156 182//182 186//186
f 186//186 202//202 198//198
f 156//156 186//186 198//198
f 249//249 227//227 271//271
f 178//178 156//156 198//198
f 198//198 202//202 249//249
f 67//67 126//126 97//97
f 118//118 87//87 106//106
f 87//87 104//104 61//61
f 178//178 249//249 222//222
f 136//136 151//151 222//222
f 247//247 189//189 222//222
f 131//131 135//135 118//118
f 118//118 104//104 87//87
f 137//137 124//124 125//125
f 247//247 153//153 131//131
f 118//118 135//135 104//104
f 189//189 74//74 90//90
f 104//104 135//135 126//126
f 106//106 189//189 137//137
f 92//92 95//95 74//74
f 67//67 98//98 81//81
f 247//247 232//232 153//153
f 204//204 83//83 174//174
f 353//353 350//350 348//348
f 86//86 154//154 127//127
f 154//154 217//217 127//127
f 76//76 129//129 139//139
f 58//58 65//65 129//129
f 76//76 44//44 58//58
f 139//139 165//165 44//44
f 165//165 154//154 44//44
f 44//44 154//154 86//86
f 7//7 25//25 13//13
f 13//13 58//58 10//10
f 154//154 235//235 217//217
f 257//257 252//252 262//262
f 272//272 257//257 262//262
f 129//129 155//155 183//183
f 25//25 7//7 36//36
f 36//36 7//7 17//17
f 56//56 36//36 17//17
f 17//17 7//7 5//5
f 5//5 3//3 22//22
f 155//155 65//65 169//169
f 56//56 22//22 48//48
f 138//138 48//48 108//108
f 155//155 169//169 183//183
f 183//183 231//231 262//262
f 231//231 138//138 185//185
f 65//65 34//34 36//36
f 127//127 146//146 102//102
f 127//127 101//101 86//86
f 101//101 102//102 86//86
f 66//66 119//119 46//46
f 44//44 24//24 10//10
f 10//10 24//24 6//6
f 44//44 86//86 46//46
f 119//119 32//32 46//46
f 6//6 2//2 10//10
f 217//217 228//228 119//119
f 257//257 228//228 217//217
f 228//228 260//260 259//259
f 228//228 259//259 197//197
f 257//257 272//272 260//260
f 228//228 257//257 260//260
f 122//122 41//41 119//119
f 122//122 119//119 197//197
f 119//119 146//146 217//217
f 10//10 2//2 3//3
f 2//2 4//4 3//3
f 11//11 4//4 9//9
f 14//14 12//12 27//27
f 8//8 12//12 14//14
f 14//14 27//27 42//42
f 197//197 259//259 223//223
f 105//105 223//223 243//243
f 105//105 243//243 141//141
f 20//20 9//9 21//21
f 48//48 20//20 30//30
f 94//94 48//48 30//30
f 16//16 9//9 8//8
f 30//30 15//15 23//23
f 15//15 19//19 23//23
f 15//15 16//16 19//19
f 185//185 94//94 225//225
f 185//185 108//108 94//94
f 213//213 273//273 225//225
f 27//27 41//41 105//105
f 21//21 9//9 15//15
f 30//30 21//21 15//15
f 38//38 28//28 16//16
f 19//19 16//16 28//28
f 38//38 105//105 141//141
f 28//28 38//38 60//60
f 38//38 42//42 105//105
f 2//2 1//1 4//4
f 122//122 197//197 223//223
f 1//1 18//18 12//12
f 23//23 19//19 31//31
f 116//116 94//94 51//51
f 116//116 221//221 213//213
f 213//213 221//221 246//246
f 116//116 110//110 219//219
f 110//110 51//51 31//31
f 116//116 51//51 110//110
f 173//173 110//110 120//120
f 19//19 28//28 26//26
f 31//31 26//26 29//29
f 31//31 19//19 26//26
f 28//28 60//60 37//37
f 39//39 37//37 60//60
f 159//159 60//60 144//144
f 45//45 39//39 140//140
f 39//39 60//60 159//159
f 31//31 53//53 110//110
f 26//26 35//35 33//33
f 33//33 35//35 78//78
f 110//110 53//53 120//120
f 33//33 53//53 29//29
f 45//45 140//140 50//50
f 35//35 45//45 50//50
f 35//35 54//54 78//78
f 35//35 50//50 40//40
f 40//40 83//83 79//79
f 233//233 120//120 157//157
f 157//157 78//78 117//117
f 54//54 40//40 43//43
f 43//43 40//40 68//68
f 180//180 157//157 117//117
f 54//54 43//43 52//52
f 142//142 55//55 113//113
f 114//114 55//55 142//142
f 35//35 40//40 54//54
f 3//3 11//11 22//22
f 263//263 231//231 185//185
f 50//50 174//174 83//83
f 43//43 89//89 52//52
f 43//43 68//68 89//89
f 52//52 89//89 57//57
f 89//89 99//99 57//57
f 113//113 55//55 47//47
f 301//301 272//272 295//295
f 297//297 259//259 292//292
f 301//301 295//295 325//325
f 223//223 259//259 281//281
f 325//325 324//324 330//330
f 295//295 273//273 324//324
f 324//324 325//325 295//295
f 322//322 326//326 337//337
f 333//333 324//324 335//335
f 333//333 335//335 337//337
f 330//330 324//324 333//333
f 322//322 291//291 288//288
f 253//253 288//288 291//291
f 292//292 272//272 301//301
f 273//273 213//213 246//246
f 335//335 279//279 275//275
f 279//279 246//246 275//275
f 335//335 275//275 307//307
f 335//335 307//307 338//338
f 219//219 285//285 275//275
f 246//246 219//219 275//275
f 307//307 275//275 285//285
f 144//144 253//253 159//159
f 159//159 253//253 238//238
f 264//264 140//140 238//238
f 291//291 264//264 238//238
f 264//264 314//314 268//268
f 322//322 337//337 345//345
f 345//345 337//337 338//338
f 345//345 338//338 347//347
f 347//347 338//338 346//346
f 341//341 345//345 347//347
f 322//322 345//345 312//312
f 291//291 312//312 314//314
f 359//359 347//347 346//346
f 341//341 347//347 359//359
f 285//285 303//303 346//346
f 346//346 303//303 349//349
f 351//351 359//359 349//349
f 314//314 321//321 268//268
f 342//342 351//351 350//350
f 291//291 314//314 264//264
f 285//285 250//250 303//303
f 250//250 280//280 306//306
f 303//303 306//306 349//349
f 170//170 162//162 158//158
f 170//170 158//158 160//160
f 306//306 293//293 339//339
f 356//356 339//339 352//352
f 256//256 244//244 280//280
f 180//180 171//171 244//244
f 248//248 244//244 171//171
f 171//171 142//142 113//113
f 293//293 280//280 282//282
f 248//248 282//282 280//280
f 293//293 282//282 320//320
f 293//293 320//320 339//339
f 320//320 363//363 361//361
f 339//339 320//320 357//357
f 350//350 351//351 356//356
f 279//279 324//324 273//273
f 291//291 322//322 312//312
f 204//204 268//268 286//286
f 204//204 286//286 269//269
f 286//286 321//321 269//269
f 209//209 204//204 269//269
f 204//204 209//209 150//150
f 209//209 269//269 267//267
f 210//210 150//150 209//209
f 269//269 321//321 317//317
f 321//321 350//350 317//317
f 317//317 350//350 353//353
f 99//99 150//150 210//210
f 215//215 210//210 284//284
f 315//315 362//362 358//358
f 358//358 362//362 360//360
f 363//363 360//360 362//362
f 284//284 358//358 302//302
f 302//302 358//358 354//354
f 215//215 284//284 302//302
f 215//215 302//302 234//234
f 113//113 47//47 49//49
f 49//49 99//99 109//109
f 47//47 99//99 49//49
f 248//248 171//171 164//164
f 245//245 239//239 282//282
f 320//320 355//355 360//360
f 320//320 305//305 355//355
f 239//239 175//175 255//255
f 175//175 88//88 96//96
f 161//161 113//113 88//88
f 109//109 99//99 177//177
f 49//49 109//109 82//82
f 59//59 82//82 69//69
f 96//96 184//184 100//100
f 96//96 109//109 184//184
f 109//109 234//234 184//184
f 344//344 355//355 331//331
f 340//340 354//354 355//355
f 354//354 299//299 302//302
f 354//354 334//334 299//299
f 334//334 354//354 340//340
f 299//299 334//334 300//300
f 96//96 107//107 179//179
f 236//236 175//175 179//179
f 84//84 96//96 91//91
f 107//107 103//103 100//100
f 103//103 96//96 84//84
f 84//84 85//85 93//93
f 91//91 85//85 84//84
f 207//207 107//107 130//130
f 100//100 166//166 107//107
f 255//255 278//278 331//331
f 278//278 327//327 331//331
f 319//319 334//334 332//332
f 332//332 327//327 329//329
f 334//334 340//340 332//332
f 323//323 331//331 355//355
f 300//300 334//334 336//336
f 111//111 107//107 166//166
f 166//166 242//242 224//224
f 111//111 166//166 130//130
f 283//283 300//300 308//308
f 236//236 207//207 230//230
f 203//203 201//201 143//143
f 130//130 143//143 201//201
f 329//329 343//343 332//332
f 332//332 343//343 319//319
f 218//218 212//212 220//220
f 265//265 230//230 237//237
f 328//328 313//313 310//310
f 329//329 313//313 328//328
f 313//313 266//266 290//290
f 134//134 133//133 143//143
f 132//132 143//143 128//128
f 130//130 133//133 132//132
f 143//143 130//130 128//128
f 145//145 147//147 224//224
f 147//147 133//133 166//166
f 145//145 224//224 167//167
f 224//224 241//241 254//254
f 241//241 283//283 254//254
f 316//316 319//319 309//309
f 251//251 167//167 254//254
f 316//316 309//309 296//296
f 254//254 283//283 296//296
f 254//254 296//296 311//311
f 311//311 298//298 294//294
f 310//310 290//290 304//304
f 318//318 310//310 298//298
f 310//310 304//304 298//298
f 254//254 311//311 251//251
f 167//167 251//251 240//240
f 152//152 167//167 240//240
f 240//240 251//251 294//294
f 298//298 277//277 294//294
f 311//311 309//309 318//318
f 152//152 149//149 167//167
f 308//308 316//316 296//296
f 166//166 100//100 184//184
f 308//308 319//319 316//316
f 309//309 319//319 328//328
f 310//310 313//313 290//290
f 237//237 229//229 266//266
f 149//149 172//172 214//214
f 149//149 152//152 172//172
f 172//172 160//160 158//158
f 214//214 191//191 226//226
f 266//266 261//261 290//290
f 172//172 162//162 170//170
f 170//170 163//163 240//240
f 277//277 304//304 289//289
f 294//294 271//271 240//240
f 191//191 172//172 182//182
f 172//172 170//170 176//176
f 227//227 176//176 240//240
f 287//287 277//277 289//289
f 277//277 287//287 271//271
f 187//187 216//216 206//206
f 187//187 206//206 156//156
f 289//289 261//261 274//274
f 216//216 187//187 194//194
f 274//274 270//270 287//287
f 289//289 274//274 287//287
f 287//287 276//276 271//271
f 194//194 211//211 216//216
f 156//156 211//211 194//194
f 270//270 211//211 193//193
f 226//226 216//216 266//266
f 158//158 162//162 163//163
f 172//172 158//158 163//163
f 211//211 156//156 181//181
f 211//211 181//181 193//193
f 135//135 168//168 181//181
f 168//168 135//135 131//131
f 227//227 192//192 195//195
f 195//195 192//192 182//182
f 188//188 192//192 195//195
f 188//188 182//182 192//192
f 182//182 200//200 186//186
f 196//196 205//205 208//208
f 196//196 208//208 186//186
f 208//208 205//205 200//200
f 200//200 205//205 196//196
f 202//202 205//205 208//208
f 227//227 202//202 208//208
f 196//196 186//186 200//200
f 202//202 227//227 249//249
f 178//178 198//198 249//249
f 249//249 276//276 258//258
f 258//258 276//276 270//270
f 200//200 188//188 195//195
f 67//67 104//104 126//126
f 97//97 98//98 67//67
f 118//118 106//106 112//112
f 67//67 61//61 104//104
f 77//77 71//71 90//90
f 61//61 70//70 87//87
f 61//61 71//71 70//70
f 61//61 81//81 64//64
f 67//67 81//81 61//61
f 156//156 178//178 135//135
f 178//178 126//126 135//135
f 126//126 178//178 151//151
f 115//115 126//126 151//151
f 151//151 178//178 222//222
f 115//115 151//151 136//136
f 189//189 136//136 222//222
f 258//258 270//270 247//247
f 222//222 258//258 247//247
f 247//247 131//131 189//189
f 125//125 124//124 131//131
f 137//137 131//131 124//124
f 131//131 118//118 125//125
f 121//121 112//112 137//137
f 106//106 137//137 112//112
f 189//189 131//131 137//137
f 123//123 125//125 118//118
f 189//189 106//106 74//74
f 90//90 64//64 136//136
f 249//249 258//258 222//222
f 81//81 115//115 136//136
f 92//92 74//74 106//106
f 87//87 74//74 72//72
f 74//74 73//73 90//90
f 74//74 87//87 75//75
f 75//75 73//73 74//74
f 72//72 74//74 95//95
f 92//92 95//95 87//87
f 115//115 98//98 126//126
f 81//81 136//136 64//64
f 70//70 64//64 90//90
f 70//70 71//71 64//64
f 212//212 229//229 237//237
f 149//149 214//214 212//212
f 225//225 273//273 263//263
f 243//243 223//223 281//281
f 243//243 253//253 144//144
f 180//180 142//142 171//171
f 68//68 79//79 204//204
f 99//99 89//89 150//150
f 62//62 82//82 88//88
f 353//353 361//361 363//363
f 355//355 305//305 323//323
f 76//76 58//58 129//129
f 17//17 22//22 56//56
f 108//108 185//185 138//138
f 101//101 127//127 102//102
f 101//101 66//66 102//102
f 119//119 41//41 32//32
f 146//146 119//119 66//66
f 105//105 42//42 27//27
f 116//116 213//213 94//94
f 116//116 219//219 221//221
f 330//330 326//326 325//325
f 253//253 243//243 288//288
f 246//246 279//279 273//273
f 264//264 174//174 140//140
f 351//351 342//342 341//341
f 349//349 359//359 346//346
f 356//356 351//351 349//349
f 348//348 352//352 353//353
f 339//339 357//357 352//352
f 49//49 88//88 113//113
f 49//49 59//59 88//88
f 82//82 62//62 63//63
f 113//113 164//164 171//171
f 239//239 305//305 282//282
f 96//96 88//88 80//80
f 93//93 100//100 85//85
f 91//91 93//93 85//85
f 103//103 93//93 85//85
f 84//84 93//93 103//103
f 343//343 328//328 319//319
f 218//218 230//230 199//199
f 212//212 237//237 220//220
f 132//132 133//133 128//128
f 133//133 134//134 128//128
f 134//134 132//132 128//128
f 134//134 143//143 132//132
f 130//130 132//132 128//128
f 148//148 212//212 145//145
f 160//160 172//172 152//152
f 216//216 226//226 206//206
f 163//163 170//170 160//160
f 162//162 172//172 163//163
f 270//270 276//276 287//287
f 186//186 208//208 205//205
f 186//186 205//205 202//202
f 168//168 131//131 153//153
f 168//168 232//232 181//181
f 182//182 188//188 200//200
f 182//182 227//227 195//195
f 77//77 87//87 70//70
f 77//77 70//70 71//71
f 227//227 208//208 200//200
f 192//192 200//200 195//195
f 227//227 200//200 192//192
f 97//97 126//126 98//98
f 121//121 123//123 125//125
f 121//121 125//125 124//124
f 70//70 90//90 71//71
f 121//121 137//137 123//123
f 123//123 137//137 125//125
f 92//92 87//87 72//72
f 92//92 72//72 95//95
f 136//136 189//189 90//90
f 92//92 106//106 95//95
f 77//77 90//90 75//75
f 77//77 75//75 73//73
f 87//87 77//77 73//73
f 87//87 73//73 75//75
f 75//75 90//90 73//73
f 106//106 87//87 95//95
f 112//112 121//121 124//124
f 112//112 124//124 125//125
f 112//112 125//125 123//123
f 112//112 123//123 118//118
f 69//69 63//63 62//62
f 69//69 62//62 88//88
f 98//98 115//115 97//97
f 97//97 81//81 98//98
f 61//61 64//64 71//71
f 115//115 81//81 97//97
f 276//276 249//249 271//271
f 232//232 247//247 270//270
f 57//57 99//99 47//47
f 69//69 82//82 63//63
f 88//88 59//59 63//63
f 88//88 63//63 69//69
f 59//59 69//69 63//63
f 68//68 40//40 79//79
