# convertido de flygym/NeuroMechFly (lm_tibia)
v -0.04825 -0.00139 -0.66606
v -0.04816 0.02191 -0.68869
v -0.04695 0.00957 -0.64920
v -0.04511 -0.00750 -0.67132
v -0.04412 0.02005 -0.70502
v -0.04396 0.01812 -0.65522
v -0.04371 -0.01382 -0.65916
v -0.04074 0.00793 -0.69954
v -0.04003 0.00703 -0.61959
v -0.03999 -0.00149 -0.61589
v -0.03892 0.01411 -0.60068
v -0.03826 0.00816 -0.67591
v -0.03584 0.02949 -0.67112
v -0.03560 0.03052 -0.66181
v -0.03442 0.00339 -0.56431
v -0.03397 0.01853 -0.63818
v -0.03281 -0.02025 -0.63044
v -0.03271 0.01348 -0.71105
v -0.03173 0.02477 -0.58414
v -0.03154 0.00476 -0.53338
v -0.03053 -0.02639 -0.65664
v -0.03024 -0.00923 -0.68097
v -0.02832 0.03952 -0.60845
v -0.02824 0.03267 -0.70973
v -0.02774 0.00614 -0.51280
v -0.02772 0.02012 -0.71939
v -0.02755 0.03340 -0.69184
v -0.02718 -0.00115 -0.48974
v -0.02703 -0.02212 -0.59291
v -0.02625 0.03225 -0.61592
v -0.02530 -0.02147 -0.54884
v -0.02502 0.00375 -0.71583
v -0.02466 -0.00117 -0.69172
v -0.02408 0.03047 -0.52110
v -0.02398 0.03226 -0.55473
v -0.02371 0.03285 -0.65557
v -0.02258 0.02424 -0.48007
v -0.02149 0.00783 -0.44044
v -0.02051 -0.00936 -0.45390
v -0.01939 0.04548 -0.57973
v -0.01765 -0.02182 -0.47121
v -0.01654 0.04850 -0.60540
v -0.01635 0.04088 -0.69880
v -0.01587 0.00997 -0.40706
v -0.01428 0.02321 -0.41405
v -0.01325 -0.03277 -0.56561
v -0.01323 0.03531 -0.71031
v -0.01322 -0.03350 -0.61556
v -0.01289 0.03733 -0.63733
v -0.01274 -0.03025 -0.67657
v -0.01236 0.04612 -0.56898
v -0.01217 0.03467 -0.44079
v -0.01211 0.02048 -0.36591
v -0.01171 0.04815 -0.60021
v -0.01090 -0.01822 -0.41604
v -0.01070 -0.00342 -0.72641
v -0.01016 -0.01137 -0.38803
v -0.00976 -0.01488 -0.70103
v -0.00972 0.02019 -0.33018
v -0.00940 0.03264 -0.38684
v -0.00891 0.01913 -0.34849
v -0.00886 0.00193 -0.06925
v -0.00772 -0.03079 -0.45921
v -0.00748 0.00434 -0.02731
v -0.00746 0.04808 -0.52028
v -0.00692 -0.00711 -0.04741
v -0.00668 -0.01303 -0.35671
v -0.00666 0.01354 -0.30346
v -0.00650 0.01968 -0.04570
v -0.00617 0.04323 -0.69916
v -0.00613 0.04321 -0.69910
v -0.00425 0.04508 -0.61684
v -0.00403 0.02510 -0.27269
v -0.00401 -0.03626 -0.47362
v -0.00386 -0.00711 -0.31629
v -0.00386 0.03506 -0.31653
v -0.00357 0.03193 -0.07943
v -0.00332 -0.03706 -0.51896
v -0.00279 0.02666 -0.71377
v -0.00272 -0.03510 -0.64184
v -0.00264 0.04378 -0.69250
v -0.00244 -0.00327 -0.08701
v -0.00176 0.04359 -0.69988
v -0.00125 -0.03552 -0.59725
v -0.00107 -0.00652 0.00606
v -0.00089 0.00885 -0.24561
v -0.00082 0.02220 -0.08590
v 0.00007 0.01028 -0.01524
v 0.00027 -0.00924 0.00823
v 0.00031 0.00468 -0.22861
v 0.00037 -0.01154 0.00910
v 0.00042 0.05045 -0.48693
v 0.00146 0.02300 -0.19675
v 0.00147 0.01473 -0.10493
v 0.00158 0.03318 -0.23056
v 0.00169 0.04254 -0.35488
v 0.00198 0.04103 -0.28689
v 0.00207 -0.01196 0.00869
v 0.00221 -0.00870 -0.27729
v 0.00259 -0.03811 -0.53749
v 0.00260 -0.00276 -0.00299
v 0.00268 0.00502 0.00157
v 0.00269 -0.03571 -0.43989
v 0.00299 0.05291 -0.51933
v 0.00313 -0.02058 -0.06699
v 0.00314 -0.01736 -0.00982
v 0.00343 -0.01257 0.00767
v 0.00351 0.04760 -0.42604
v 0.00373 -0.00843 -0.71986
v 0.00381 0.03600 -0.02198
v 0.00399 0.01368 -0.16566
v 0.00431 0.00570 0.00054
v 0.00451 0.01921 -0.12577
v 0.00485 -0.03268 -0.41036
v 0.00488 0.00667 -0.00063
v 0.00539 0.00541 -0.00005
v 0.00546 -0.00466 -0.11510
v 0.00558 -0.01541 0.00581
v 0.00627 -0.02855 -0.68071
v 0.00627 0.04510 -0.04471
v 0.00644 0.04888 -0.37226
v 0.00681 -0.02017 -0.70256
v 0.00687 0.01996 -0.13469
v 0.00692 0.03850 -0.19481
v 0.00710 0.01135 -0.14093
v 0.00713 0.00953 -0.00216
v 0.00730 0.04575 -0.05673
v 0.00738 -0.00164 -0.19309
v 0.00743 0.04316 -0.09503
v 0.00756 -0.01713 -0.02721
v 0.00766 0.04913 -0.39729
v 0.00773 -0.03125 -0.37753
v 0.00792 -0.02621 -0.33992
v 0.00823 0.02309 -0.00600
v 0.00843 0.03420 -0.15304
v 0.00855 0.02025 -0.00660
v 0.00872 0.01895 -0.00515
v 0.00882 0.04843 -0.05792
v 0.00900 0.05494 -0.58208
v 0.00933 0.03879 -0.11675
v 0.00946 0.04915 -0.05402
v 0.00958 -0.01510 0.01095
v 0.00961 -0.03668 -0.56378
v 0.00983 0.01909 -0.00541
v 0.00992 -0.02362 -0.04224
v 0.01007 0.02425 -0.00742
v 0.01013 0.04785 -0.07272
v 0.01014 0.02331 -0.00659
v 0.01031 0.04863 -0.05442
v 0.01046 0.02745 -0.00723
v 0.01051 0.05012 -0.05306
v 0.01073 -0.02332 -0.31061
v 0.01074 0.05487 -0.55313
v 0.01086 0.04600 -0.67403
v 0.01091 0.02637 -0.00652
v 0.01108 0.02178 -0.00524
v 0.01163 0.02341 -0.00701
v 0.01180 -0.01704 -0.26247
v 0.01225 0.02746 -0.00829
v 0.01278 0.04829 -0.08618
v 0.01302 0.03053 -0.00792
v 0.01321 -0.02264 -0.08208
v 0.01326 0.02814 -0.01133
v 0.01352 -0.02036 -0.00046
v 0.01365 0.03727 -0.70134
v 0.01385 0.04807 -0.02018
v 0.01410 0.05071 -0.23898
v 0.01422 0.05277 -0.31215
v 0.01463 -0.00665 -0.13634
v 0.01464 0.05285 -0.03839
v 0.01521 -0.03777 -0.44642
v 0.01526 0.05292 -0.34558
v 0.01559 0.05500 -0.45798
v 0.01560 0.00531 -0.71168
v 0.01572 0.04823 -0.66070
v 0.01602 -0.03299 -0.58334
v 0.01614 -0.02800 -0.06258
v 0.01626 -0.02940 -0.63611
v 0.01628 0.00167 0.00547
v 0.01639 -0.00767 -0.71352
v 0.01722 -0.03665 -0.54019
v 0.01751 -0.01094 -0.19440
v 0.01755 0.04777 -0.15928
v 0.01837 0.05576 -0.28743
v 0.01848 -0.00605 -0.15262
v 0.01875 0.03679 -0.01072
v 0.01888 -0.01679 -0.11531
v 0.01990 -0.03899 -0.49896
v 0.01993 -0.01485 -0.22113
v 0.02040 0.03216 -0.69233
v 0.02044 0.04901 -0.64107
v 0.02125 -0.02472 -0.62151
v 0.02166 -0.02057 -0.67166
v 0.02166 0.05686 -0.25045
v 0.02170 0.02709 -0.70107
v 0.02217 -0.01933 -0.09790
v 0.02227 -0.01205 -0.13182
v 0.02253 -0.02187 -0.26692
v 0.02261 -0.03806 -0.51781
v 0.02279 0.05237 -0.60640
v 0.02324 0.03771 -0.68422
v 0.02387 -0.02195 -0.02637
v 0.02436 -0.03888 -0.42839
v 0.02440 0.04854 -0.62497
v 0.02494 0.05352 -0.48703
v 0.02498 -0.00654 -0.70344
v 0.02524 0.05437 -0.42846
v 0.02564 0.05355 -0.38001
v 0.02717 -0.03652 -0.47168
v 0.02731 0.00649 -0.70032
v 0.02735 0.05282 -0.51872
v 0.02767 -0.03575 -0.41550
v 0.02838 -0.03829 -0.46081
v 0.02869 0.05098 -0.05602
v 0.02923 -0.00936 0.00369
v 0.02948 -0.03212 -0.36517
v 0.03020 0.01308 -0.00500
v 0.03032 -0.02544 -0.28742
v 0.03049 0.05499 -0.16722
v 0.03050 0.05248 -0.12789
v 0.03053 -0.01459 -0.11854
v 0.03060 -0.03413 -0.44429
v 0.03064 0.05060 -0.56666
v 0.03073 -0.01067 -0.16776
v 0.03110 0.03402 -0.65087
v 0.03113 -0.02820 -0.32456
v 0.03114 -0.01244 -0.12344
v 0.03114 -0.01525 -0.60976
v 0.03121 -0.01258 -0.12371
v 0.03203 0.00015 -0.68241
v 0.03275 -0.01485 -0.21315
v 0.03284 -0.00922 -0.64210
v 0.03310 -0.01830 -0.00713
v 0.03386 -0.02210 -0.25300
v 0.03400 0.01891 -0.67576
v 0.03465 0.05826 -0.23193
v 0.03493 -0.01514 -0.58007
v 0.03511 -0.02962 -0.50506
v 0.03649 0.05622 -0.32981
v 0.03666 -0.00764 -0.15515
v 0.03673 -0.02460 -0.53771
v 0.03699 -0.02575 -0.03973
v 0.03733 -0.02483 -0.05759
v 0.03735 0.04066 -0.02261
v 0.03736 0.00692 -0.64892
v 0.03861 -0.02615 -0.04722
v 0.03869 0.04354 -0.58164
v 0.03871 -0.01652 -0.01917
v 0.03900 0.05121 -0.09608
v 0.03907 0.05155 -0.41025
v 0.03987 0.03331 -0.63807
v 0.04008 0.05803 -0.28475
v 0.04016 0.04749 -0.52893
v 0.04066 -0.00687 -0.12093
v 0.04088 -0.02115 -0.07450
v 0.04102 0.04450 -0.49256
v 0.04105 -0.02445 -0.05651
v 0.04124 -0.02023 -0.02782
v 0.04134 0.02946 -0.61554
v 0.04136 -0.02218 -0.06140
v 0.04149 -0.02330 -0.06200
v 0.04155 -0.00386 -0.56532
v 0.04159 0.05305 -0.13635
v 0.04172 0.00858 -0.61899
v 0.04225 -0.00144 -0.01113
v 0.04297 0.01289 -0.60110
v 0.04320 0.05502 -0.17571
v 0.04348 -0.01724 -0.26197
v 0.04359 0.05737 -0.21130
v 0.04362 -0.01042 -0.09704
v 0.04406 -0.01202 -0.54930
v 0.04493 0.02849 -0.57768
v 0.04531 -0.02366 -0.39070
v 0.04586 -0.01008 -0.52185
v 0.04627 -0.02124 -0.43938
v 0.04693 0.05622 -0.25626
v 0.04708 0.04791 -0.35088
v 0.04715 0.04560 -0.46674
v 0.04755 0.01659 -0.63771
v 0.04797 0.04358 -0.42674
v 0.04807 0.02932 -0.55712
v 0.04814 -0.01735 -0.48864
v 0.04823 -0.01748 -0.31365
v 0.04839 0.01749 -0.02217
v 0.04930 -0.01114 -0.04051
v 0.04933 -0.00964 -0.06347
v 0.05003 -0.00656 -0.21674
v 0.05018 0.01831 -0.54840
v 0.05221 0.01494 -0.52184
v 0.05237 -0.01537 -0.29078
v 0.05276 -0.01361 -0.34741
v 0.05320 -0.00651 -0.44929
v 0.05325 0.02650 -0.48285
v 0.05327 0.02572 -0.04973
v 0.05439 0.00173 -0.12905
v 0.05444 0.04074 -0.35880
v 0.05504 0.03478 -0.07011
v 0.05506 0.03191 -0.40920
v 0.05517 0.04272 -0.09769
v 0.05627 0.04430 -0.14885
v 0.05628 -0.00751 -0.23740
v 0.05649 0.04071 -0.12440
v 0.05664 0.01435 -0.05444
v 0.05695 0.01402 -0.47214
v 0.05707 -0.00910 -0.36170
v 0.05713 0.04934 -0.33768
v 0.05788 0.04161 -0.31810
v 0.05842 0.00080 -0.40466
v 0.05923 0.03734 -0.34490
v 0.05964 0.00962 -0.15110
v 0.06017 0.01270 -0.38921
v 0.06062 0.04235 -0.21531
v 0.06089 0.04480 -0.28418
v 0.06139 0.01426 -0.10914
v 0.06160 0.00954 -0.18489
v 0.06198 0.02705 -0.12226
v 0.06225 0.02441 -0.34403
v 0.06264 0.04306 -0.19195
v 0.06277 0.01075 -0.30518
v 0.06301 0.01818 -0.08995
v 0.06319 0.03803 -0.26006
v 0.06325 0.00017 -0.33213
v 0.06335 0.00371 -0.26358
v 0.06387 0.03112 -0.16632
v 0.06499 0.01224 -0.21687
v 0.06593 0.02633 -0.19797
v 0.06595 0.01704 -0.26123
v 0.06809 0.01546 -0.23435
v 0.06926 0.01597 -0.27816
vn -0.9790 0.1139 -0.1692
vn -0.9444 0.3129 0.1012
vn -0.9795 0.1979 0.0370
vn -0.6442 -0.5392 -0.5425
vn -0.7715 0.4491 -0.4507
vn -0.7163 0.6011 0.3544
vn -0.8930 -0.4334 0.1217
vn -0.6765 -0.7116 -0.1895
vn -0.9003 0.4351 -0.0140
vn -0.9381 -0.2909 0.1883
vn -0.9943 0.0000 0.1069
vn -0.9767 -0.0895 -0.1949
vn -0.6980 0.6916 0.1856
vn -0.8210 0.5706 0.0187
vn -0.9904 0.0999 0.0957
vn -0.7045 0.6950 0.1437
vn -0.6703 -0.7365 0.0909
vn -0.6861 -0.3965 -0.6099
vn -0.9133 0.3799 0.1468
vn -0.9937 -0.0565 0.0969
vn -0.4843 -0.8727 -0.0627
vn -0.6498 -0.4331 -0.6247
vn -0.8088 0.5677 -0.1538
vn -0.5502 0.6927 -0.4664
vn -0.9772 0.1900 0.0949
vn -0.2393 0.2891 -0.9269
vn -0.4195 0.9071 0.0354
vn -0.9806 -0.1641 0.1075
vn -0.7922 -0.6048 0.0813
vn -0.6795 0.6893 -0.2514
vn -0.8565 -0.5129 0.0578
vn -0.7238 -0.6045 -0.3328
vn -0.6841 -0.6650 -0.2997
vn -0.8850 0.4602 0.0712
vn -0.8486 0.5217 0.0877
vn -0.3885 0.9184 0.0750
vn -0.9747 0.1956 0.1082
vn -0.9900 0.0564 0.1295
vn -0.9792 -0.1546 0.1314
vn -0.7554 0.6409 0.1366
vn -0.8335 -0.5424 0.1053
vn -0.3873 0.9066 -0.1679
vn -0.3621 0.9256 -0.1099
vn -0.9926 -0.0379 0.1151
vn -0.8864 0.4553 0.0840
vn -0.4322 -0.9016 -0.0143
vn 0.0304 0.6656 -0.7457
vn -0.4479 -0.8940 0.0146
vn -0.4648 0.8834 -0.0596
vn -0.3483 -0.8656 -0.3597
vn -0.4639 0.8844 0.0518
vn -0.7595 0.6427 0.1006
vn -0.9862 0.1350 0.0961
vn -0.1947 0.9765 -0.0924
vn -0.8572 -0.4944 0.1443
vn -0.0018 -0.1285 -0.9917
vn -0.9353 -0.3362 0.1102
vn -0.5237 -0.7359 -0.4292
vn -0.9974 -0.0357 0.0630
vn -0.8552 0.5176 0.0284
vn -0.9978 0.0027 0.0669
vn -0.9886 -0.1010 -0.1118
vn -0.5019 -0.8575 0.1135
vn -0.9738 -0.0872 0.2099
vn -0.6259 0.7785 0.0465
vn -0.8850 -0.4579 0.0845
vn -0.9260 -0.3654 0.0954
vn -0.9913 -0.0947 0.0919
vn -0.9638 0.2577 0.0680
vn -0.1904 0.8982 -0.3963
vn -0.1973 0.9531 -0.2296
vn -0.2788 0.9317 -0.2330
vn -0.9805 0.1794 0.0804
vn -0.4469 -0.8933 0.0489
vn -0.8894 -0.4425 0.1150
vn -0.8833 0.4669 0.0422
vn -0.9219 0.3703 -0.1138
vn -0.3520 -0.9359 0.0142
vn 0.2852 0.3593 -0.8886
vn -0.0879 -0.9953 -0.0401
vn 0.0601 0.9962 -0.0633
vn -0.8693 -0.4096 -0.2766
vn 0.1931 0.8364 -0.5130
vn -0.0075 -0.9997 -0.0221
vn -0.8676 0.1742 0.4658
vn -0.9898 -0.1135 0.0862
vn -0.9454 0.1511 -0.2888
vn -0.8458 0.2064 0.4920
vn -0.1362 0.3343 0.9326
vn -0.9503 -0.2991 0.0858
vn -0.5174 -0.7901 0.3286
vn -0.4068 0.9110 0.0684
vn -0.9960 0.0443 0.0772
vn -0.9775 0.1199 -0.1733
vn -0.9438 0.3235 0.0681
vn -0.7618 0.6465 0.0421
vn -0.7747 0.6309 0.0434
vn -0.0712 0.7288 -0.6811
vn -0.9152 -0.3903 0.1000
vn -0.0813 -0.9959 -0.0408
vn -0.9987 -0.0188 0.0483
vn -0.5338 0.5746 0.6204
vn -0.5343 -0.8389 0.1042
vn -0.1337 0.9907 0.0257
vn -0.7491 -0.6500 -0.1275
vn -0.7955 -0.5978 0.0994
vn -0.8274 -0.5309 0.1829
vn -0.4720 0.8813 0.0236
vn 0.1139 -0.6467 -0.7542
vn -0.8485 0.3886 0.3592
vn -0.9659 -0.2469 0.0778
vn -0.5351 0.5533 -0.6384
vn -0.9831 0.0812 -0.1642
vn -0.4027 -0.9079 0.1163
vn -0.9340 0.2811 -0.2205
vn -0.2043 0.7013 0.6829
vn -0.8817 -0.3900 -0.2654
vn -0.7786 -0.6235 0.0716
vn 0.3011 -0.9357 -0.1837
vn -0.8441 0.5293 0.0856
vn -0.5267 0.8500 0.0028
vn 0.2305 -0.8727 -0.4304
vn -0.9889 -0.0449 -0.1414
vn -0.8481 0.5258 0.0653
vn -0.9882 -0.1038 0.1130
vn -0.3545 0.4730 0.8066
vn -0.7822 0.6229 0.0120
vn -0.8321 -0.5434 0.1112
vn -0.8232 0.5292 -0.2058
vn -0.6714 -0.7332 0.1082
vn -0.5726 0.8193 0.0295
vn -0.4768 -0.8731 0.1016
vn -0.4630 -0.8771 0.1278
vn -0.7024 0.2874 0.6512
vn -0.9528 0.2982 0.0576
vn -0.8158 0.2421 0.5252
vn -0.7976 0.3771 0.4707
vn -0.4880 0.8689 -0.0830
vn -0.1034 0.9943 -0.0277
vn -0.8433 0.5341 -0.0603
vn -0.8929 0.4474 -0.0507
vn 0.1896 -0.2420 0.9516
vn -0.0025 -0.9986 -0.0530
vn -0.6865 0.3669 0.6278
vn -0.3162 -0.9403 0.1257
vn -0.8473 0.5287 0.0509
vn -0.4689 0.8805 -0.0704
vn 0.1072 0.7850 0.6101
vn -0.8169 0.5754 -0.0396
vn -0.8198 0.4663 -0.3323
vn -0.2843 0.9503 -0.1267
vn -0.4614 -0.8804 0.1096
vn -0.0565 0.9984 -0.0002
vn -0.2195 0.9754 -0.0219
vn 0.0390 0.2844 0.9579
vn 0.0317 0.2428 0.9696
vn -0.7374 0.2494 0.6277
vn -0.6364 -0.7622 0.1183
vn -0.8430 0.4021 -0.3572
vn -0.2917 0.9562 -0.0220
vn -0.0022 0.3729 0.9279
vn -0.2909 -0.8996 -0.3259
vn -0.8272 0.5599 -0.0482
vn 0.0473 -0.9606 0.2739
vn 0.4322 0.5816 -0.6892
vn -0.2635 0.8485 0.4590
vn -0.6175 0.7847 0.0537
vn -0.5336 0.8457 -0.0041
vn -0.8493 -0.5092 -0.1392
vn 0.0639 0.9863 0.1521
vn -0.0651 -0.9976 0.0254
vn -0.3158 0.9488 -0.0095
vn -0.1845 0.9825 0.0249
vn 0.4992 0.2236 -0.8371
vn 0.0204 0.9975 -0.0674
vn 0.5754 -0.8112 -0.1040
vn -0.2150 -0.9760 -0.0357
vn 0.5204 -0.8527 -0.0467
vn 0.1044 0.4296 0.8970
vn 0.5721 -0.4442 -0.6895
vn 0.4914 -0.8605 -0.1344
vn -0.3627 -0.9263 0.1020
vn -0.6406 0.7660 0.0532
vn -0.3393 0.9405 -0.0158
vn -0.5694 -0.8209 0.0433
vn -0.0552 0.4771 0.8771
vn -0.4549 -0.8738 -0.1719
vn 0.0772 -0.9970 0.0020
vn -0.3550 -0.9257 0.1303
vn 0.7835 0.5205 -0.3393
vn 0.0685 0.9888 -0.1328
vn 0.7214 -0.6893 -0.0667
vn 0.7163 -0.6793 -0.1596
vn -0.3074 0.9513 0.0225
vn 0.7342 0.3056 -0.6063
vn -0.0485 -0.9709 -0.2347
vn -0.1151 -0.9721 -0.2045
vn 0.0105 -0.9942 0.1067
vn 0.3018 -0.9512 -0.0638
vn 0.2596 0.9551 -0.1429
vn 0.6759 0.6811 -0.2815
vn -0.0433 -0.9882 0.1469
vn 0.1720 -0.9833 0.0595
vn 0.2071 0.9723 -0.1084
vn 0.1423 0.9897 -0.0124
vn 0.7806 -0.5156 -0.3534
vn 0.0775 0.9970 -0.0036
vn 0.0167 0.9996 -0.0221
vn 0.5644 -0.8247 -0.0355
vn 0.8889 0.1583 -0.4298
vn 0.2195 0.9756 0.0041
vn 0.2798 -0.9587 0.0514
vn 0.4666 -0.8843 0.0184
vn 0.2905 0.9544 0.0684
vn 0.5526 -0.1217 0.8245
vn 0.2647 -0.9605 0.0854
vn 0.4278 0.3433 0.8362
vn 0.1273 -0.9837 0.1270
vn -0.1669 0.9846 0.0517
vn -0.3435 0.9391 0.0068
vn 0.3871 -0.9107 -0.1445
vn 0.4623 -0.8858 0.0410
vn 0.4781 0.8778 -0.0300
vn 0.3195 -0.9406 0.1149
vn 0.8458 0.4637 -0.2637
vn 0.2518 -0.9658 0.0623
vn 0.2673 -0.9320 -0.2449
vn 0.8529 -0.5108 -0.1077
vn 0.3530 -0.7727 -0.5275
vn 0.9409 -0.2998 -0.1577
vn 0.2290 -0.9626 0.1447
vn 0.8662 -0.4982 -0.0387
vn 0.4962 -0.7893 0.3617
vn 0.1241 -0.9844 0.1249
vn 0.9501 0.2242 -0.2167
vn -0.1729 0.9846 0.0258
vn 0.7853 -0.6042 -0.1355
vn 0.7173 -0.6945 -0.0558
vn 0.1474 0.9880 -0.0451
vn 0.3706 -0.9273 -0.0531
vn 0.6429 -0.7449 -0.1782
vn 0.1646 -0.9787 0.1228
vn 0.0672 -0.9977 -0.0008
vn 0.6184 0.6782 0.3971
vn 0.9639 -0.2296 -0.1345
vn 0.6777 -0.7274 0.1077
vn 0.7882 0.6111 -0.0729
vn 0.5877 -0.7507 0.3016
vn 0.2832 0.9557 0.0799
vn 0.5351 0.8441 -0.0355
vn 0.7538 0.6384 -0.1558
vn 0.2749 0.9601 -0.0520
vn 0.6823 0.7300 -0.0406
vn 0.6300 -0.7713 -0.0907
vn 0.3804 -0.8946 -0.2345
vn 0.6549 0.7542 -0.0470
vn 0.8088 -0.5876 -0.0246
vn 0.6712 -0.6620 0.3336
vn 0.9834 0.1812 -0.0051
vn 0.6465 -0.7562 -0.1008
vn 0.7975 -0.5935 -0.1083
vn 0.9597 -0.2389 -0.1477
vn 0.3845 0.9225 0.0333
vn 0.9128 -0.4052 -0.0506
vn 0.8611 -0.1135 0.4957
vn 0.9779 -0.1985 -0.0658
vn 0.4156 0.9035 0.1046
vn 0.5575 -0.8300 0.0182
vn 0.4130 0.9104 0.0250
vn 0.5903 -0.7814 -0.2023
vn 0.8264 -0.5481 -0.1293
vn 0.9928 0.0273 -0.1163
vn 0.7600 -0.6500 0.0017
vn 0.9334 -0.3455 -0.0968
vn 0.7654 -0.6433 -0.0169
vn 0.4938 0.8696 0.0026
vn 0.4327 0.8951 -0.1076
vn 0.6434 0.7646 -0.0365
vn 0.9734 0.0298 -0.2271
vn 0.8008 0.5983 -0.0274
vn 0.9121 0.4039 -0.0707
vn 0.8874 -0.4555 -0.0706
vn 0.7607 -0.6487 0.0240
vn 0.8977 0.1252 0.4225
vn 0.9344 -0.3120 0.1721
vn 0.8717 -0.4877 -0.0475
vn 0.6071 -0.7857 0.1186
vn 0.9762 -0.1597 -0.1467
vn 0.9916 -0.0894 -0.0940
vn 0.6875 -0.7256 0.0279
vn 0.6458 -0.7623 0.0416
vn 0.9438 -0.3275 -0.0448
vn 0.9266 0.3713 -0.0590
vn 0.9003 0.3545 0.2526
vn 0.6989 -0.7135 0.0499
vn 0.8749 0.4765 -0.0871
vn 0.7570 0.6294 0.1758
vn 0.9448 0.3241 -0.0488
vn 0.8229 0.5618 0.0850
vn 0.6879 0.7212 0.0821
vn 0.6859 -0.7212 0.0970
vn 0.6950 0.7174 0.0474
vn 0.9819 -0.0872 0.1681
vn 0.9975 0.0488 -0.0508
vn 0.9517 -0.2935 -0.0903
vn 0.7314 0.6809 -0.0384
vn 0.8510 0.5250 -0.0170
vn 0.9799 -0.1988 -0.0155
vn 0.8399 0.4567 -0.2934
vn 0.7823 -0.6218 0.0370
vn 0.9972 -0.0367 -0.0656
vn 0.8552 0.5181 -0.0121
vn 0.8640 0.4936 -0.0989
vn 0.8911 -0.4531 -0.0254
vn 0.8866 -0.4594 0.0538
vn 0.9629 0.2664 0.0425
vn 0.9954 0.0814 -0.0495
vn 0.7763 0.6295 0.0331
vn 0.9942 -0.0926 -0.0553
vn 0.9955 -0.0094 0.0939
vn 0.9176 0.3968 0.0227
vn 0.9464 -0.3228 0.0134
vn 0.8498 -0.5264 0.0278
vn 0.9956 0.0764 0.0550
vn 0.8782 -0.4657 0.1089
vn 0.9993 0.0050 0.0377
vn 0.9996 0.0019 0.0269
vn 0.9997 -0.0225 0.0105
vn 0.9925 -0.0951 -0.0763
f 60//60 44//44 53//53
f 53//53 57//57 67//67
f 4//4 1//1 12//12
f 4//4 7//7 1//1
f 13//13 2//2 12//12
f 8//8 18//18 33//33
f 12//12 8//8 33//33
f 32//32 56//56 58//58
f 4//4 22//22 50//50
f 50//50 58//58 122//122
f 58//58 22//22 33//33
f 22//22 12//12 33//33
f 58//58 109//109 122//122
f 206//206 122//122 180//180
f 27//27 2//2 13//13
f 79//79 26//26 47//47
f 70//70 81//81 83//83
f 81//81 43//43 27//27
f 43//43 24//24 27//27
f 49//49 175//175 36//36
f 195//195 174//174 165//165
f 165//165 81//81 190//190
f 190//190 210//210 195//195
f 210//210 190//190 235//235
f 201//201 81//81 154//154
f 27//27 24//24 5//5
f 2//2 8//8 12//12
f 165//165 79//79 47//47
f 47//47 83//83 165//165
f 78//78 100//100 199//199
f 78//78 199//199 188//188
f 16//16 3//3 9//9
f 49//49 16//16 30//30
f 10//10 7//7 17//17
f 11//11 9//9 10//10
f 23//23 9//9 11//11
f 30//30 16//16 9//9
f 29//29 48//48 84//84
f 11//11 10//10 29//29
f 17//17 29//29 10//10
f 11//11 31//31 15//15
f 7//7 4//4 21//21
f 4//4 50//50 21//21
f 17//17 21//21 80//80
f 17//17 80//80 48//48
f 80//80 119//119 178//178
f 122//122 206//206 193//193
f 49//49 36//36 16//16
f 235//235 245//245 230//230
f 232//232 230//230 245//245
f 279//279 225//225 251//251
f 48//48 80//80 84//84
f 192//192 84//84 178//178
f 264//264 228//228 192//192
f 84//84 192//192 176//176
f 237//237 176//176 228//228
f 264//264 266//266 228//228
f 262//262 228//228 266//266
f 262//262 237//237 228//228
f 192//192 232//232 245//245
f 119//119 193//193 178//178
f 23//23 11//11 40//40
f 9//9 23//23 30//30
f 42//42 72//72 23//23
f 40//40 42//42 23//23
f 30//30 23//23 72//72
f 42//42 40//40 54//54
f 54//54 40//40 51//51
f 51//51 35//35 65//65
f 40//40 19//19 35//35
f 65//65 153//153 51//51
f 40//40 11//11 19//19
f 204//204 72//72 200//200
f 191//191 49//49 72//72
f 225//225 175//175 191//191
f 259//259 279//279 251//251
f 247//247 200//200 223//223
f 272//272 259//259 247//247
f 200//200 54//54 139//139
f 251//251 191//191 204//204
f 191//191 175//175 49//49
f 279//279 259//259 264//264
f 46//46 84//84 143//143
f 78//78 46//46 100//100
f 78//78 31//31 46//46
f 100//100 143//143 181//181
f 46//46 143//143 100//100
f 100//100 181//181 199//199
f 271//271 181//181 176//176
f 181//181 271//271 241//241
f 271//271 237//237 262//262
f 34//34 15//15 20//20
f 25//25 37//37 34//34
f 205//205 104//104 92//92
f 205//205 211//211 104//104
f 104//104 65//65 92//92
f 25//25 28//28 37//37
f 34//34 37//37 52//52
f 52//52 65//65 34//34
f 92//92 65//65 52//52
f 52//52 37//37 38//38
f 173//173 52//52 108//108
f 278//278 293//293 256//256
f 272//272 262//262 266//266
f 281//281 247//247 223//223
f 271//271 262//262 288//288
f 289//289 288//288 281//281
f 223//223 153//153 253//253
f 238//238 241//241 271//271
f 274//274 238//238 271//271
f 282//282 238//238 274//274
f 304//304 289//289 293//293
f 171//171 188//188 209//209
f 103//103 41//41 63//63
f 55//55 41//41 103//103
f 188//188 238//238 209//209
f 278//278 304//304 293//293
f 280//280 304//304 278//278
f 298//298 308//308 304//304
f 280//280 298//298 304//304
f 203//203 103//103 171//171
f 132//132 55//55 114//114
f 132//132 114//114 212//212
f 212//212 203//203 275//275
f 275//275 292//292 308//308
f 311//311 308//308 298//298
f 203//203 222//222 275//275
f 38//38 55//55 44//44
f 211//211 253//253 153//153
f 35//35 15//15 34//34
f 121//121 60//60 96//96
f 278//278 173//173 207//207
f 108//108 52//52 131//131
f 207//207 173//173 108//108
f 208//208 207//207 131//131
f 208//208 131//131 121//121
f 277//277 250//250 208//208
f 75//75 67//67 133//133
f 75//75 133//133 152//152
f 132//132 216//216 133//133
f 291//291 216//216 273//273
f 226//226 133//133 216//216
f 226//226 216//216 291//291
f 311//311 273//273 308//308
f 305//305 273//273 311//311
f 291//291 273//273 305//305
f 290//290 226//226 283//283
f 61//61 59//59 76//76
f 239//239 172//172 168//168
f 168//168 97//97 184//184
f 168//168 184//184 239//239
f 252//252 239//239 184//184
f 90//90 99//99 158//158
f 86//86 99//99 90//90
f 68//68 99//99 86//86
f 97//97 73//73 95//95
f 167//167 97//97 95//95
f 97//97 76//76 73//73
f 128//128 158//158 189//189
f 158//158 198//198 234//234
f 189//189 158//158 234//234
f 234//234 268//268 301//301
f 231//231 234//234 301//301
f 287//287 231//231 301//301
f 167//167 95//95 124//124
f 312//312 321//321 276//276
f 325//325 301//301 328//328
f 326//326 325//325 328//328
f 328//328 327//327 321//321
f 182//182 189//189 231//231
f 93//93 111//111 135//135
f 128//128 182//182 185//185
f 111//111 128//128 185//185
f 185//185 182//182 224//224
f 182//182 231//231 224//224
f 111//111 169//169 125//125
f 315//315 287//287 325//325
f 326//326 315//315 325//325
f 310//310 287//287 315//315
f 135//135 125//125 123//123
f 219//219 167//167 183//183
f 312//312 276//276 269//269
f 183//183 124//124 135//135
f 267//267 300//300 318//318
f 267//267 269//269 219//219
f 236//236 194//194 167//167
f 93//93 135//135 124//124
f 254//254 240//240 310//310
f 187//187 229//229 221//221
f 221//221 229//229 227//227
f 240//240 197//197 185//185
f 240//240 185//185 224//224
f 160//160 220//220 129//129
f 160//160 77//77 147//147
f 214//214 249//249 160//160
f 87//87 82//82 77//77
f 82//82 162//162 105//105
f 66//66 62//62 105//105
f 62//62 66//66 69//69
f 120//120 127//127 77//77
f 149//149 141//141 127//127
f 160//160 147//147 214//214
f 297//297 249//249 214//214
f 120//120 69//69 110//110
f 110//110 166//166 120//120
f 244//244 297//297 214//214
f 294//294 297//297 244//244
f 166//166 244//244 170//170
f 120//120 77//77 69//69
f 187//187 196//196 82//82
f 300//300 263//263 302//302
f 254//254 295//295 314//314
f 299//299 316//316 302//302
f 314//314 310//310 324//324
f 316//316 314//314 324//324
f 286//286 255//255 270//270
f 303//303 286//286 320//320
f 297//297 299//299 249//249
f 299//299 320//320 316//316
f 294//294 303//303 297//297
f 115//115 101//101 116//116
f 179//179 102//102 85//85
f 179//179 85//85 89//89
f 177//177 243//243 145//145
f 242//242 246//246 285//285
f 242//242 145//145 243//243
f 66//66 64//64 69//69
f 66//66 145//145 130//130
f 64//64 66//66 130//130
f 294//294 284//284 303//303
f 265//265 258//258 285//285
f 146//146 88//88 136//136
f 159//159 155//155 161//161
f 155//155 134//134 148//148
f 156//156 126//126 217//217
f 155//155 156//156 217//217
f 157//157 156//156 155//155
f 64//64 88//88 110//110
f 244//244 186//186 217//217
f 244//244 166//166 186//186
f 265//265 284//284 217//217
f 244//244 217//217 284//284
f 142//142 164//164 215//215
f 179//179 142//142 215//215
f 179//179 89//89 142//142
f 115//115 112//112 126//126
f 116//116 179//179 126//126
f 255//255 243//243 177//177
f 257//257 260//260 286//286
f 123//123 113//113 140//140
f 306//306 317//317 309//309
f 309//309 296//296 277//277
f 305//305 311//311 317//317
f 277//277 208//208 239//239
f 277//277 239//239 306//306
f 252//252 307//307 239//239
f 283//283 322//322 319//319
f 319//319 317//317 307//307
f 290//290 283//283 319//319
f 290//290 319//319 329//329
f 313//313 307//307 252//252
f 319//319 307//307 313//313
f 313//313 329//329 319//319
f 309//309 277//277 306//306
f 323//323 290//290 329//329
f 301//301 268//268 323//323
f 323//323 327//327 328//328
f 321//321 327//327 329//329
f 75//75 158//158 99//99
f 44//44 60//60 45//45
f 44//44 57//57 53//53
f 57//57 132//132 67//67
f 53//53 67//67 61//61
f 12//12 14//14 13//13
f 12//12 1//1 3//3
f 12//12 3//3 14//14
f 6//6 14//14 3//3
f 14//14 6//6 16//16
f 14//14 16//16 36//36
f 6//6 3//3 16//16
f 18//18 26//26 32//32
f 32//32 26//26 56//56
f 18//18 32//32 33//33
f 56//56 26//26 79//79
f 58//58 50//50 22//22
f 50//50 122//122 119//119
f 4//4 12//12 22//22
f 56//56 109//109 58//58
f 109//109 56//56 174//174
f 174//174 56//56 79//79
f 174//174 210//210 206//206
f 206//206 210//210 230//230
f 122//122 109//109 180//180
f 5//5 2//2 27//27
f 24//24 43//43 47//47
f 27//27 13//13 36//36
f 70//70 83//83 71//71
f 43//43 81//81 71//71
f 47//47 43//43 70//70
f 47//47 70//70 71//71
f 81//81 27//27 154//154
f 27//27 36//36 154//154
f 175//175 154//154 36//36
f 79//79 165//165 174//174
f 165//165 190//190 195//195
f 81//81 201//201 190//190
f 83//83 81//81 165//165
f 174//174 195//195 210//210
f 8//8 2//2 5//5
f 24//24 18//18 5//5
f 18//18 24//24 26//26
f 3//3 1//1 7//7
f 7//7 10//10 3//3
f 15//15 19//19 11//11
f 11//11 29//29 31//31
f 29//29 17//17 48//48
f 178//178 193//193 232//232
f 119//119 122//122 193//193
f 235//235 201//201 225//225
f 245//245 235//235 225//225
f 245//245 225//225 279//279
f 80//80 178//178 84//84
f 192//192 228//228 176//176
f 264//264 245//245 279//279
f 192//192 245//245 264//264
f 178//178 232//232 192//192
f 15//15 35//35 19//19
f 40//40 35//35 51//51
f 65//65 35//35 34//34
f 49//49 30//30 72//72
f 72//72 42//42 54//54
f 200//200 72//72 54//54
f 200//200 251//251 204//204
f 72//72 204//204 191//191
f 247//247 251//251 200//200
f 251//251 247//247 259//259
f 266//266 259//259 272//272
f 266//266 264//264 259//259
f 139//139 153//153 223//223
f 200//200 139//139 223//223
f 175//175 201//201 154//154
f 201//201 175//175 225//225
f 139//139 54//54 51//51
f 15//15 31//31 20//20
f 31//31 28//28 20//20
f 46//46 31//31 29//29
f 28//28 31//31 41//41
f 78//78 188//188 74//74
f 241//241 238//238 199//199
f 31//31 78//78 74//74
f 84//84 176//176 143//143
f 143//143 176//176 181//181
f 176//176 237//237 271//271
f 20//20 28//28 25//25
f 20//20 25//25 34//34
f 153//153 65//65 104//104
f 153//153 104//104 211//211
f 28//28 41//41 39//39
f 39//39 38//38 37//37
f 28//28 39//39 37//37
f 92//92 52//52 173//173
f 205//205 92//92 173//173
f 211//211 205//205 256//256
f 205//205 278//278 256//256
f 288//288 262//262 272//272
f 272//272 247//247 281//281
f 274//274 271//271 288//288
f 274//274 288//288 289//289
f 282//282 289//289 304//304
f 253//253 293//293 281//281
f 256//256 293//293 253//253
f 289//289 281//281 293//293
f 281//281 223//223 253//253
f 74//74 188//188 171//171
f 171//171 63//63 74//74
f 63//63 171//171 103//103
f 39//39 41//41 55//55
f 39//39 55//55 38//38
f 275//275 209//209 282//282
f 222//222 171//171 213//213
f 171//171 209//209 213//213
f 282//282 292//292 275//275
f 222//222 213//213 275//275
f 52//52 38//38 45//45
f 38//38 44//44 45//45
f 131//131 52//52 45//45
f 292//292 304//304 308//308
f 114//114 103//103 203//203
f 114//114 203//203 212//212
f 132//132 212//212 216//216
f 171//171 222//222 203//203
f 273//273 212//212 275//275
f 55//55 57//57 44//44
f 273//273 275//275 308//308
f 304//304 292//292 282//282
f 238//238 282//282 209//209
f 74//74 63//63 41//41
f 181//181 241//241 199//199
f 256//256 253//253 211//211
f 96//96 60//60 53//53
f 53//53 61//61 76//76
f 172//172 96//96 168//168
f 96//96 53//53 76//76
f 205//205 173//173 278//278
f 207//207 208//208 250//250
f 207//207 108//108 131//131
f 280//280 278//278 207//207
f 207//207 250//250 280//280
f 280//280 250//250 298//298
f 208//208 121//121 172//172
f 121//121 96//96 172//172
f 311//311 298//298 296//296
f 298//298 250//250 296//296
f 208//208 172//172 239//239
f 131//131 60//60 121//121
f 250//250 277//277 296//296
f 132//132 133//133 67//67
f 67//67 75//75 59//59
f 152//152 133//133 226//226
f 152//152 226//226 218//218
f 158//158 152//152 198//198
f 198//198 152//152 218//218
f 291//291 322//322 283//283
f 226//226 291//291 283//283
f 59//59 75//75 68//68
f 75//75 99//99 68//68
f 76//76 68//68 73//73
f 59//59 68//68 76//76
f 86//86 73//73 68//68
f 290//290 268//268 198//198
f 290//290 198//198 218//218
f 252//252 194//194 276//276
f 252//252 184//184 194//194
f 194//194 97//97 167//167
f 276//276 194//194 236//236
f 86//86 95//95 73//73
f 168//168 76//76 97//97
f 158//158 128//128 90//90
f 268//268 234//234 198//198
f 189//189 234//234 231//231
f 90//90 95//95 86//86
f 90//90 128//128 93//93
f 128//128 111//111 93//93
f 95//95 93//93 124//124
f 90//90 93//93 95//95
f 287//287 301//301 325//325
f 328//328 321//321 312//312
f 326//326 328//328 312//312
f 224//224 310//310 240//240
f 231//231 287//287 224//224
f 315//315 326//326 310//310
f 182//182 128//128 189//189
f 224//224 287//287 310//310
f 124//124 183//183 167//167
f 236//236 269//269 276//276
f 236//236 219//219 269//269
f 300//300 219//219 263//263
f 267//267 219//219 300//300
f 219//219 183//183 220//220
f 135//135 140//140 183//183
f 326//326 318//318 324//324
f 269//269 267//267 318//318
f 236//236 167//167 219//219
f 326//326 324//324 310//310
f 326//326 312//312 318//318
f 125//125 169//169 123//123
f 197//197 240//240 254//254
f 169//169 197//197 117//117
f 227//227 229//229 187//187
f 229//229 227//227 197//197
f 187//187 197//197 227//227
f 227//227 229//229 254//254
f 197//197 254//254 229//229
f 196//196 187//187 221//221
f 254//254 310//310 295//295
f 169//169 185//185 197//197
f 221//221 254//254 270//270
f 117//117 113//113 123//123
f 94//94 113//113 117//117
f 113//113 94//94 140//140
f 220//220 140//140 129//129
f 94//94 129//129 140//140
f 82//82 94//94 117//117
f 187//187 82//82 117//117
f 87//87 129//129 94//94
f 129//129 87//87 77//77
f 196//196 162//162 82//82
f 62//62 77//77 82//82
f 177//177 162//162 255//255
f 196//196 255//255 162//162
f 162//162 177//177 105//105
f 62//62 69//69 77//77
f 105//105 62//62 82//82
f 77//77 138//138 147//147
f 138//138 214//214 147//147
f 127//127 141//141 138//138
f 120//120 170//170 151//151
f 214//214 151//151 170//170
f 127//127 120//120 149//149
f 127//127 138//138 77//77
f 138//138 151//151 214//214
f 138//138 141//141 149//149
f 120//120 166//166 170//170
f 170//170 244//244 214//214
f 263//263 220//220 249//249
f 302//302 316//316 300//300
f 117//117 197//197 187//187
f 295//295 310//310 314//314
f 249//249 299//299 302//302
f 263//263 249//249 302//302
f 316//316 324//324 300//300
f 196//196 270//270 255//255
f 254//254 286//286 270//270
f 196//196 221//221 270//270
f 297//297 320//320 299//299
f 314//314 316//316 320//320
f 286//286 314//314 320//320
f 320//320 297//297 303//303
f 116//116 112//112 115//115
f 101//101 85//85 102//102
f 102//102 112//112 101//101
f 126//126 88//88 101//101
f 85//85 107//107 98//98
f 85//85 118//118 107//107
f 118//118 106//106 164//164
f 85//85 101//101 118//118
f 98//98 107//107 89//89
f 115//115 126//126 101//101
f 85//85 98//98 91//91
f 91//91 98//98 89//89
f 243//243 255//255 260//260
f 260//260 261//261 243//243
f 261//261 260//260 255//255
f 242//242 243//243 246//246
f 257//257 285//285 246//246
f 242//242 202//202 145//145
f 257//257 246//246 243//243
f 257//257 286//286 285//285
f 177//177 66//66 105//105
f 66//66 177//177 145//145
f 258//258 265//265 248//248
f 202//202 242//242 258//258
f 130//130 202//202 106//106
f 164//164 106//106 202//202
f 284//284 265//265 285//285
f 242//242 285//285 258//258
f 148//148 134//134 146//146
f 146//146 136//136 157//157
f 148//148 157//157 136//136
f 157//157 148//148 146//146
f 155//155 217//217 161//161
f 155//155 150//150 146//146
f 150//150 159//159 146//146
f 137//137 144//144 88//88
f 126//126 179//179 217//217
f 136//136 144//144 137//137
f 88//88 144//144 136//136
f 69//69 64//64 110//110
f 166//166 110//110 186//186
f 186//186 110//110 88//88
f 284//284 294//294 244//244
f 233//233 215//215 164//164
f 118//118 142//142 91//91
f 118//118 164//164 142//142
f 142//142 89//89 107//107
f 163//163 186//186 88//88
f 161//161 217//217 186//186
f 285//285 286//286 303//303
f 169//169 117//117 123//123
f 286//286 261//261 255//255
f 185//185 169//169 111//111
f 183//183 140//140 220//220
f 291//291 305//305 322//322
f 319//319 322//322 317//317
f 307//307 317//317 306//306
f 309//309 317//317 296//296
f 252//252 276//276 313//313
f 329//329 313//313 321//321
f 313//313 276//276 321//321
f 322//322 305//305 317//317
f 290//290 323//323 268//268
f 301//301 323//323 328//328
f 323//323 329//329 327//327
f 168//168 96//96 76//76
f 317//317 311//311 296//296
f 61//61 67//67 59//59
f 5//5 18//18 8//8
f 58//58 33//33 32//32
f 174//174 180//180 109//109
f 180//180 174//174 206//206
f 47//47 26//26 24//24
f 71//71 81//81 70//70
f 83//83 47//47 71//71
f 43//43 71//71 70//70
f 14//14 36//36 13//13
f 235//235 230//230 210//210
f 190//190 201//201 235//235
f 17//17 7//7 21//21
f 10//10 9//9 3//3
f 84//84 46//46 29//29
f 50//50 80//80 21//21
f 50//50 119//119 80//80
f 230//230 193//193 206//206
f 230//230 232//232 193//193
f 51//51 153//153 139//139
f 225//225 191//191 251//251
f 41//41 31//31 74//74
f 238//238 188//188 199//199
f 116//116 112//112 102//102
f 116//116 102//102 179//179
f 272//272 281//281 288//288
f 274//274 289//289 282//282
f 114//114 55//55 103//103
f 275//275 213//213 209//209
f 132//132 57//57 55//55
f 45//45 60//60 131//131
f 152//152 158//158 75//75
f 290//290 218//218 226//226
f 97//97 194//194 184//184
f 125//125 135//135 111//111
f 123//123 140//140 135//135
f 318//318 312//312 269//269
f 219//219 220//220 263//263
f 318//318 300//300 324//324
f 254//254 221//221 227//227
f 77//77 160//160 129//129
f 82//82 87//87 94//94
f 120//120 151//151 141//141
f 138//138 149//149 151//151
f 151//151 149//149 141//141
f 120//120 141//141 149//149
f 160//160 249//249 220//220
f 314//314 286//286 254//254
f 116//116 101//101 112//112
f 106//106 118//118 101//101
f 107//107 118//118 98//98
f 150//150 161//161 159//159
f 161//161 163//163 159//159
f 98//98 118//118 91//91
f 85//85 91//91 89//89
f 130//130 145//145 202//202
f 257//257 243//243 261//261
f 260//260 257//257 261//261
f 285//285 303//303 284//284
f 258//258 248//248 202//202
f 202//202 248//248 233//233
f 248//248 265//265 233//233
f 233//233 164//164 202//202
f 106//106 64//64 130//130
f 148//148 136//136 134//134
f 146//146 163//163 88//88
f 159//159 161//161 150//150
f 155//155 159//159 150//150
f 136//136 137//137 156//156
f 136//136 156//156 134//134
f 155//155 146//146 134//134
f 163//163 146//146 159//159
f 157//157 155//155 148//148
f 144//144 156//156 137//137
f 126//126 144//144 137//137
f 137//137 88//88 126//126
f 126//126 156//156 144//144
f 156//156 148//148 134//134
f 106//106 101//101 88//88
f 106//106 88//88 64//64
f 156//156 157//157 148//148
f 215//215 233//233 265//265
f 142//142 107//107 98//98
f 142//142 98//98 91//91
f 116//116 126//126 112//112
f 265//265 217//217 215//215
f 179//179 215//215 217//217
f 161//161 186//186 163//163
f 286//286 260//260 261//261
f 307//307 306//306 239//239
f 273//273 216//216 212//212
