# convertido de flygym/NeuroMechFly (lm_tarsus1)
v -0.05124 0.02007 -0.04396
v -0.04938 0.00926 -0.02789
v -0.04938 0.01549 -0.03744
v -0.04888 0.02085 -0.04481
v -0.04881 0.01708 -0.04411
v -0.04871 0.01339 -0.02972
v -0.04864 0.02028 -0.04483
v -0.04835 0.02199 -0.04183
v -0.04822 0.01971 -0.03029
v -0.04816 0.00337 -0.05380
v -0.04760 0.02228 -0.04613
v -0.04754 0.02378 -0.03321
v -0.04752 0.00670 -0.04003
v -0.04751 0.02121 -0.02970
v -0.04721 0.02308 -0.02995
v -0.04716 0.02225 -0.03016
v -0.04709 0.01046 -0.04583
v -0.04672 0.00354 -0.03246
v -0.04639 0.02420 -0.03112
v -0.04636 0.02184 -0.05082
v -0.04579 -0.00029 -0.04453
v -0.04547 0.00808 -0.05900
v -0.04546 0.00351 -0.07265
v -0.04509 0.02374 -0.06151
v -0.04488 0.00083 -0.03496
v -0.04446 0.02116 -0.07169
v -0.04435 0.00102 -0.06137
v -0.04294 0.02122 -0.09857
v -0.04266 -0.00202 -0.03623
v -0.04261 0.01969 -0.08542
v -0.04242 0.02951 -0.03128
v -0.04239 -0.00172 -0.06951
v -0.04198 -0.00033 -0.11047
v -0.04177 0.00210 -0.09609
v -0.04168 0.01447 -0.10517
v -0.04157 -0.00160 -0.10634
v -0.04085 0.00351 -0.11514
v -0.04071 -0.00209 -0.08804
v -0.03977 0.00319 -0.12219
v -0.03967 0.02089 -0.12110
v -0.03959 -0.00051 -0.13337
v -0.03933 -0.00580 -0.03297
v -0.03927 0.01741 -0.13166
v -0.03912 0.02529 -0.08534
v -0.03911 0.02500 -0.10466
v -0.03876 -0.00291 -0.12883
v -0.03873 -0.00360 -0.07811
v -0.03862 0.02567 -0.31365
v -0.03850 0.02778 -0.31406
v -0.03836 0.02843 -0.31353
v -0.03827 0.02763 -0.31348
v -0.03795 -0.00387 -0.09530
v -0.03794 0.03121 -0.05815
v -0.03791 0.02690 -0.30997
v -0.03773 0.03337 -0.02879
v -0.03764 0.00135 -0.03499
v -0.03746 -0.00436 -0.11243
v -0.03705 0.00117 -0.16514
v -0.03704 0.02298 -0.30765
v -0.03695 -0.00797 -0.05618
v -0.03679 0.02152 -0.13734
v -0.03676 -0.00031 -0.15278
v -0.03668 0.01683 -0.15043
v -0.03654 0.03501 -0.04961
v -0.03632 -0.00093 -0.20261
v -0.03615 0.01180 -0.03345
v -0.03608 0.02866 -0.31297
v -0.03606 0.01822 -0.16531
v -0.03598 0.02661 -0.11643
v -0.03597 0.01880 -0.19173
v -0.03552 0.02366 -0.19591
v -0.03521 -0.00486 -0.12066
v -0.03501 -0.00318 -0.25715
v -0.03497 -0.00373 -0.24550
v -0.03494 0.03003 -0.09905
v -0.03492 0.03540 -0.02740
v -0.03483 0.02879 -0.10668
v -0.03483 0.02805 -0.30871
v -0.03480 0.02795 -0.30873
v -0.03470 -0.00319 -0.15462
v -0.03468 0.02198 -0.16491
v -0.03464 0.03068 -0.07963
v -0.03458 0.03426 -0.03883
v -0.03451 0.01790 -0.17644
v -0.03441 -0.00389 -0.19839
v -0.03440 0.02536 -0.19594
v -0.03433 0.00239 -0.19590
v -0.03423 -0.00125 -0.25587
v -0.03374 0.02306 -0.15104
v -0.03366 -0.00437 -0.27951
v -0.03361 0.03628 -0.02672
v -0.03358 -0.00262 -0.21811
v -0.03354 -0.00182 -0.24165
v -0.03350 0.01999 -0.21071
v -0.03340 -0.00310 -0.27533
v -0.03331 -0.01190 -0.03421
v -0.03330 0.02086 -0.29913
v -0.03327 0.01999 -0.20257
v -0.03325 0.00781 -0.18676
v -0.03325 -0.00278 -0.20844
v -0.03319 -0.00031 -0.18254
v -0.03319 0.02984 -0.08693
v -0.03310 0.02755 -0.30586
v -0.03306 -0.00168 -0.22839
v -0.03297 0.03634 -0.02675
v -0.03282 -0.00635 -0.30663
v -0.03267 0.02909 -0.11325
v -0.03245 0.03768 -0.02564
v -0.03242 -0.00362 -0.19461
v -0.03220 0.02719 -0.31064
v -0.03210 0.01588 -0.29772
v -0.03199 -0.00180 -0.25787
v -0.03192 0.00992 -0.20375
v -0.03190 0.02795 -0.12588
v -0.03179 0.03621 -0.02584
v -0.03177 0.02688 -0.30971
v -0.03173 0.02568 -0.30921
v -0.03158 -0.00415 -0.03591
v -0.03143 0.02743 -0.30842
v -0.03132 0.03768 -0.02841
v -0.03129 0.01835 -0.28810
v -0.03126 0.01887 -0.26152
v -0.03113 -0.00443 -0.17852
v -0.03104 -0.00746 -0.25116
v -0.03078 0.00801 -0.21379
v -0.03078 0.02819 -0.31077
v -0.03069 0.01799 -0.26832
v -0.03063 -0.01230 -0.04512
v -0.03054 -0.00637 -0.21833
v -0.03045 -0.01042 -0.30773
v -0.03036 0.00686 -0.22385
v -0.03034 0.00760 -0.24787
v -0.03030 0.01847 -0.22147
v -0.03029 -0.00825 -0.31087
v -0.03029 0.02555 -0.29792
v -0.03019 0.02008 -0.23057
v -0.03018 -0.00168 -0.26400
v -0.03010 -0.00679 -0.22750
v -0.03002 -0.00742 -0.24246
v -0.03002 0.02574 -0.16473
v -0.02997 -0.00103 -0.29446
v -0.02968 0.01487 -0.24160
v -0.02965 0.00488 -0.25527
v -0.02960 0.01493 -0.30618
v -0.02957 0.00312 -0.30600
v -0.02951 0.02504 -0.17724
v -0.02929 0.03951 -0.02310
v -0.02917 -0.01615 -0.05259
v -0.02903 0.00170 -0.28385
v -0.02894 -0.00466 -0.28653
v -0.02894 0.02584 -0.20520
v -0.02881 0.02722 -0.14665
v -0.02875 -0.01299 -0.03757
v -0.02872 0.00609 -0.27870
v -0.02872 0.02134 -0.31114
v -0.02869 0.00831 -0.26781
v -0.02811 0.01918 -0.27586
v -0.02805 0.02378 -0.26866
v -0.02804 -0.00107 -0.31166
v -0.02796 0.02589 -0.31268
v -0.02790 -0.01084 -0.11146
v -0.02778 0.02356 -0.26052
v -0.02763 -0.00984 -0.29305
v -0.02758 0.00860 -0.31766
v -0.02749 -0.00735 -0.25496
v -0.02737 -0.01432 -0.06056
v -0.02699 -0.01261 -0.07886
v -0.02692 -0.00845 -0.18077
v -0.02681 -0.00565 -0.31320
v -0.02680 0.01043 -0.31758
v -0.02676 -0.01161 -0.29995
v -0.02673 0.02063 -0.24200
v -0.02659 0.01170 -0.31748
v -0.02653 0.01165 -0.31724
v -0.02626 0.01646 -0.31646
v -0.02581 -0.01050 -0.13788
v -0.02577 0.03525 -0.05626
v -0.02577 0.02351 -0.24989
v -0.02570 0.02437 -0.21962
v -0.02533 -0.01235 -0.08583
v -0.02519 0.04055 -0.02518
v -0.02512 -0.01328 -0.03748
v -0.02510 0.02859 -0.19887
v -0.02506 0.02482 -0.27620
v -0.02490 -0.00329 -0.31699
v -0.02480 -0.01689 -0.06948
v -0.02459 -0.00955 -0.24630
v -0.02445 -0.01544 -0.04645
v -0.02440 0.03153 -0.31063
v -0.02429 0.02403 -0.31677
v -0.02413 -0.01160 -0.30811
v -0.02397 0.04050 -0.02398
v -0.02390 0.03525 -0.06798
v -0.02384 -0.01292 -0.15880
v -0.02384 0.01553 -0.31697
v -0.02365 0.04003 -0.02419
v -0.02360 0.04050 -0.02350
v -0.02357 -0.01105 -0.27699
v -0.02348 -0.00787 -0.03460
v -0.02309 -0.01207 -0.20568
v -0.02269 0.03768 -0.02442
v -0.02252 -0.01402 -0.03448
v -0.02242 0.03840 -0.03858
v -0.02223 0.02600 -0.23412
v -0.02214 -0.01400 -0.14305
v -0.02104 -0.01454 -0.06037
v -0.02058 0.03737 -0.04829
v -0.02052 0.03010 -0.28259
v -0.02043 0.04021 -0.02440
v -0.02011 -0.01406 -0.25322
v -0.02001 -0.01560 -0.28217
v -0.01996 -0.01405 -0.11810
v -0.01995 0.02885 -0.31535
v -0.01945 0.04038 -0.02729
v -0.01891 -0.00957 -0.31661
v -0.01885 0.03366 -0.08540
v -0.01850 0.03082 -0.29871
v -0.01845 0.02785 -0.25854
v -0.01844 -0.01579 -0.23299
v -0.01825 -0.01447 -0.16786
v -0.01797 -0.01362 -0.10447
v -0.01775 -0.01319 -0.13061
v -0.01764 0.03036 -0.16742
v -0.01760 0.03125 -0.19853
v -0.01741 -0.01486 -0.21709
v -0.01738 -0.01603 -0.30961
v -0.01711 0.03669 -0.06500
v -0.01701 -0.01320 -0.18054
v -0.01673 -0.01539 -0.26436
v -0.01673 -0.01374 -0.19088
v -0.01672 0.03112 -0.15725
v -0.01620 0.03218 -0.15309
v -0.01608 -0.01391 -0.03560
v -0.01608 0.03061 -0.19014
v -0.01596 0.03079 -0.31306
v -0.01563 0.01762 -0.02953
v -0.01533 0.02998 -0.21493
v -0.01521 0.03159 -0.13314
v -0.01507 -0.01452 -0.07445
v -0.01501 -0.01444 -0.19936
v -0.01499 0.03274 -0.12180
v -0.01486 -0.01434 -0.05169
v -0.01485 -0.01797 -0.27735
v -0.01483 0.03128 -0.27789
v -0.01457 0.03005 -0.24308
v -0.01411 0.03885 -0.02290
v -0.01410 -0.01518 -0.31472
v -0.01403 0.03164 -0.10881
v -0.01347 0.03112 -0.17854
v -0.01259 -0.02014 -0.24141
v -0.01205 -0.01285 -0.03150
v -0.01203 0.03097 -0.31056
v -0.01152 -0.01677 -0.25632
v -0.01101 0.02903 -0.25132
v -0.01071 -0.01954 -0.24567
v -0.01052 0.03717 -0.02449
v -0.01048 0.01187 -0.31552
v -0.01024 -0.01420 -0.04289
v -0.01008 0.02986 -0.23618
v -0.00991 -0.01402 -0.31298
v -0.00981 -0.01741 -0.23206
v -0.00962 -0.01758 -0.26661
v -0.00938 -0.01510 -0.15459
v -0.00892 -0.01497 -0.21795
v -0.00889 0.03275 -0.07509
v -0.00855 -0.01763 -0.28858
v -0.00796 -0.01216 -0.09181
v -0.00793 -0.01261 -0.02836
v -0.00771 0.02944 -0.22582
v -0.00749 0.03150 -0.02553
v -0.00737 0.03602 -0.02746
v -0.00718 0.03504 -0.05838
v -0.00681 -0.01280 -0.31254
v -0.00601 -0.00849 -0.02848
v -0.00574 -0.01375 -0.08031
v -0.00558 -0.01579 -0.17411
v -0.00540 0.03000 -0.18528
v -0.00497 -0.01137 -0.06747
v -0.00444 -0.01015 -0.02739
v -0.00441 -0.01384 -0.11547
v -0.00440 -0.02048 -0.28263
v -0.00427 0.03139 -0.06760
v -0.00416 -0.01192 -0.03793
v -0.00407 0.03159 -0.31012
v -0.00407 -0.01788 -0.29653
v -0.00401 -0.01024 -0.05078
v -0.00369 0.03045 -0.10726
v -0.00367 -0.01770 -0.27329
v -0.00365 0.02142 -0.02764
v -0.00328 -0.00905 -0.02655
v -0.00326 -0.00810 -0.02701
v -0.00303 -0.00827 -0.02654
v -0.00288 -0.01210 -0.31467
v -0.00277 0.03182 -0.02561
v -0.00264 -0.01753 -0.18819
v -0.00256 0.01322 -0.02806
v -0.00250 0.03231 -0.28940
v -0.00205 0.02917 -0.31130
v -0.00177 -0.01851 -0.15478
v -0.00165 -0.01745 -0.29238
v -0.00156 -0.01528 -0.19862
v -0.00151 -0.00543 -0.02641
v -0.00136 -0.01515 -0.16291
v -0.00104 0.02793 -0.02749
v -0.00098 -0.01865 -0.23244
v -0.00059 0.02998 -0.12615
v -0.00050 -0.01663 -0.22640
v -0.00047 0.03254 -0.05437
v -0.00036 0.03008 -0.09049
v -0.00031 -0.01616 -0.21126
v -0.00019 -0.00647 -0.02801
v -0.00017 -0.01251 -0.12210
v -0.00014 0.03138 -0.31157
v -0.00012 -0.01510 -0.14238
v 0.00018 0.00588 -0.31531
v 0.00023 -0.00271 -0.02769
v 0.00029 -0.00281 -0.02711
v 0.00037 -0.01375 -0.13247
v 0.00037 -0.01884 -0.23859
v 0.00044 0.02933 -0.25288
v 0.00054 0.00017 -0.02798
v 0.00056 0.03053 -0.24374
v 0.00071 -0.01526 -0.30260
v 0.00074 0.03027 -0.23004
v 0.00082 0.02948 -0.14292
v 0.00092 -0.01577 -0.29983
v 0.00094 -0.01581 -0.29984
v 0.00099 -0.01799 -0.15172
v 0.00110 0.02352 -0.02848
v 0.00123 0.02978 -0.17815
v 0.00133 0.00034 -0.02776
v 0.00142 -0.00573 -0.03662
v 0.00145 0.02890 -0.16516
v 0.00180 0.01650 -0.02637
v 0.00186 0.02703 -0.10575
v 0.00198 -0.01681 -0.21632
v 0.00199 0.02733 -0.18641
v 0.00212 0.01309 -0.02916
v 0.00220 -0.00648 -0.09222
v 0.00221 0.03102 -0.27726
v 0.00267 -0.01250 -0.12728
v 0.00269 0.00831 -0.03024
v 0.00324 -0.01538 -0.25237
v 0.00335 0.02849 -0.13980
v 0.00337 -0.00492 -0.06799
v 0.00387 -0.01453 -0.30018
v 0.00390 0.03125 -0.27001
v 0.00392 -0.01660 -0.28643
v 0.00406 0.02732 -0.20672
v 0.00462 0.02128 -0.03871
v 0.00467 -0.01136 -0.15716
v 0.00468 -0.01510 -0.27474
v 0.00477 -0.00095 -0.05672
v 0.00494 -0.01076 -0.14865
v 0.00513 0.02921 -0.23344
v 0.00521 0.02240 -0.06243
v 0.00548 -0.01239 -0.16944
v 0.00561 0.00173 -0.04318
v 0.00565 -0.00817 -0.12910
v 0.00609 0.02473 -0.08905
v 0.00612 0.00349 -0.05792
v 0.00630 0.02735 -0.24985
v 0.00631 0.01734 -0.05896
v 0.00664 -0.01201 -0.19881
v 0.00669 -0.01276 -0.21180
v 0.00679 -0.01312 -0.22511
v 0.00688 0.01134 -0.04625
v 0.00688 0.02744 -0.21913
v 0.00689 -0.01040 -0.12386
v 0.00691 0.00016 -0.07119
v 0.00701 -0.00551 -0.11068
v 0.00768 0.00187 -0.09387
v 0.00777 -0.00871 -0.31822
v 0.00800 -0.00869 -0.13462
v 0.00815 0.01990 -0.09725
v 0.00833 0.01587 -0.07514
v 0.00852 -0.01158 -0.18195
v 0.00882 0.01878 -0.08785
v 0.00911 0.00651 -0.09805
v 0.00913 0.01897 -0.10563
v 0.00920 -0.01126 -0.31061
v 0.00951 0.02979 -0.29952
v 0.00964 -0.00094 -0.08091
v 0.00992 -0.00610 -0.11585
v 0.01066 0.02306 -0.17041
v 0.01071 0.02458 -0.24932
v 0.01085 -0.00397 -0.12924
v 0.01088 -0.00848 -0.16273
v 0.01094 0.01766 -0.13815
v 0.01104 0.02202 -0.19867
v 0.01107 -0.00350 -0.14176
v 0.01120 0.00110 -0.11089
v 0.01120 -0.01528 -0.28124
v 0.01127 0.01972 -0.15886
v 0.01132 0.02600 -0.31313
v 0.01167 -0.00602 -0.12228
v 0.01202 -0.00867 -0.24670
v 0.01204 0.01462 -0.11633
v 0.01207 0.00661 -0.13535
v 0.01250 -0.00943 -0.20583
v 0.01251 -0.01075 -0.19749
v 0.01261 0.01889 -0.12794
v 0.01301 -0.00523 -0.17133
v 0.01307 0.02753 -0.30405
v 0.01320 0.01747 -0.31306
v 0.01321 0.00318 -0.12388
v 0.01334 -0.01199 -0.26759
v 0.01355 -0.00253 -0.31678
v 0.01375 -0.00807 -0.23046
v 0.01388 -0.01303 -0.27706
v 0.01392 -0.00611 -0.18499
v 0.01406 -0.00407 -0.16166
v 0.01407 0.00849 -0.16264
v 0.01417 0.02482 -0.27881
v 0.01419 0.01679 -0.18245
v 0.01444 -0.00552 -0.30998
v 0.01455 0.00606 -0.15165
v 0.01457 -0.00491 -0.21926
v 0.01481 0.01275 -0.20570
v 0.01487 0.01686 -0.17105
v 0.01521 0.01702 -0.23279
v 0.01536 -0.00467 -0.20639
v 0.01554 0.01807 -0.21838
v 0.01559 0.01794 -0.24829
v 0.01574 0.01793 -0.31250
v 0.01579 -0.00675 -0.25728
v 0.01588 -0.00732 -0.19646
v 0.01594 0.00798 -0.17360
v 0.01615 0.00432 -0.31627
v 0.01656 -0.00584 -0.29633
v 0.01674 -0.00235 -0.23342
v 0.01684 0.01924 -0.26269
v 0.01685 0.00031 -0.19052
v 0.01691 0.00284 -0.22040
v 0.01718 -0.00781 -0.28608
v 0.01737 0.00231 -0.23850
v 0.01738 -0.00038 -0.24535
v 0.01774 0.00461 -0.19184
v 0.01806 0.02209 -0.28580
v 0.01811 0.00782 -0.31049
v 0.01814 -0.00222 -0.25420
v 0.01834 -0.00082 -0.30266
v 0.01894 0.01662 -0.30108
v 0.01905 -0.00569 -0.27824
v 0.01907 -0.00109 -0.26691
v 0.01926 0.00415 -0.25806
v 0.01997 0.00639 -0.26825
v 0.02123 -0.00078 -0.29618
v 0.02192 0.00431 -0.29835
v 0.02251 0.00638 -0.27542
v 0.02426 -0.00049 -0.27994
v 0.02448 0.00612 -0.28371
v 0.02456 -0.00145 -0.28560
vn -0.9889 0.1468 0.0225
vn -0.3644 -0.3175 0.8755
vn -0.9948 -0.0984 0.0279
vn -0.6671 0.6257 -0.4043
vn -0.9118 -0.2360 -0.3362
vn -0.2959 0.0431 0.9542
vn -0.8450 0.0171 -0.5345
vn -0.6701 0.7413 -0.0381
vn -0.9791 0.1589 0.1266
vn -0.9112 -0.4018 -0.0908
vn -0.7711 0.6280 -0.1053
vn -0.8999 0.4202 0.1169
vn -0.9859 -0.1660 -0.0227
vn 0.4880 -0.0582 0.8709
vn -0.8292 0.4662 0.3084
vn -0.9079 0.2969 0.2960
vn -0.9872 0.0224 -0.1580
vn -0.3088 -0.5469 0.7782
vn -0.1597 0.3303 0.9303
vn -0.9830 -0.0232 -0.1821
vn -0.7665 -0.6420 0.0139
vn -0.9949 0.0259 -0.0979
vn -0.9913 -0.1071 -0.0770
vn -0.9084 0.4063 -0.0985
vn -0.4759 -0.7042 0.5269
vn -0.9697 0.2034 -0.1351
vn -0.9776 -0.1563 -0.1412
vn -0.9778 0.1891 -0.0902
vn -0.6733 -0.3724 0.6387
vn -0.9668 0.2497 -0.0541
vn -0.1661 0.1765 0.9702
vn -0.7049 -0.7032 -0.0929
vn -0.9906 -0.0895 -0.1034
vn -0.9827 -0.1633 -0.0868
vn -0.9923 0.0725 -0.1006
vn -0.7635 -0.6437 0.0528
vn -0.9780 -0.1145 -0.1742
vn -0.6911 -0.7216 -0.0397
vn -0.9945 -0.1023 -0.0238
vn -0.9724 0.2123 -0.0970
vn -0.9949 -0.0383 -0.0936
vn -0.4407 -0.3479 0.8275
vn -0.9920 0.0664 -0.1077
vn -0.7493 0.6589 -0.0671
vn -0.8690 0.4794 -0.1223
vn -0.6119 -0.7903 -0.0324
vn -0.6391 -0.7619 -0.1046
vn 0.0329 -0.7317 -0.6809
vn 0.2406 -0.0348 -0.9700
vn -0.4590 0.8524 0.2505
vn -0.9407 -0.0138 -0.3389
vn -0.6054 -0.7958 0.0081
vn -0.5297 0.8395 -0.1213
vn -0.7576 0.4500 0.4728
vn -0.4222 0.0813 0.9029
vn 0.0951 -0.1099 0.9894
vn -0.6375 -0.7641 -0.0985
vn -0.9422 -0.3160 -0.1112
vn -0.9418 -0.3128 -0.1233
vn -0.6620 -0.7479 -0.0489
vn -0.7695 0.6253 -0.1294
vn -0.9669 -0.2368 -0.0952
vn -0.9847 0.1459 -0.0958
vn -0.4654 0.8825 -0.0685
vn -0.9829 0.1246 -0.1359
vn 0.0050 -0.1745 0.9846
vn 0.3684 0.7056 -0.6054
vn -0.9835 0.1706 -0.0600
vn -0.6931 0.7097 -0.1266
vn -0.9826 -0.1754 -0.0605
vn -0.9100 0.4145 0.0048
vn -0.6711 -0.7389 -0.0612
vn -0.7549 -0.5957 -0.2744
vn -0.9916 -0.0850 0.0970
vn -0.4454 0.8951 -0.0199
vn -0.2592 -0.1855 0.9479
vn -0.6352 0.7641 -0.1123
vn -0.1842 0.9649 0.1872
vn -0.0674 0.9716 0.2266
vn -0.7020 -0.7120 -0.0152
vn -0.7739 0.6286 -0.0775
vn -0.4621 0.8772 -0.1301
vn -0.5386 0.8424 -0.0159
vn -0.9904 0.1261 -0.0557
vn -0.7157 -0.6960 0.0586
vn -0.3725 0.9266 0.0508
vn -0.9929 0.0788 0.0890
vn -0.8694 0.4699 -0.1527
vn -0.7801 0.6244 -0.0400
vn -0.7230 -0.6902 -0.0297
vn -0.6543 0.5984 0.4624
vn -0.9997 -0.0056 -0.0257
vn -0.9896 -0.1132 0.0883
vn -0.9694 0.1803 -0.1666
vn -0.9432 0.3321 0.0049
vn -0.5615 -0.8131 0.1536
vn -0.9311 0.1810 0.3167
vn -0.9859 -0.0737 -0.1503
vn -0.9947 -0.0888 -0.0519
vn -0.9309 -0.3448 -0.1205
vn -0.9738 -0.2093 -0.0891
vn -0.3814 0.9241 -0.0251
vn -0.5002 0.7917 0.3509
vn -0.9917 0.1289 0.0026
vn -0.7310 0.6821 0.0197
vn -0.9956 -0.0911 0.0228
vn -0.1856 0.9803 -0.0669
vn -0.5175 0.8552 -0.0300
vn -0.6569 -0.7489 0.0873
vn 0.1540 0.0963 -0.9834
vn -0.9766 -0.2144 0.0154
vn -0.7445 -0.3327 -0.5788
vn -0.9865 0.1064 -0.1248
vn -0.3797 0.9193 -0.1037
vn -0.0984 -0.6546 0.7495
vn -0.7387 -0.3878 -0.5513
vn -0.0354 -0.4201 -0.9068
vn -0.1279 -0.1150 0.9851
vn -0.2008 0.9757 -0.0879
vn -0.3076 0.9337 -0.1831
vn -0.9718 0.1304 0.1963
vn -0.9887 0.1454 0.0358
vn -0.7383 -0.6712 -0.0658
vn -0.4614 -0.8722 -0.1627
vn -0.9958 0.0282 -0.0867
vn -0.4156 0.7063 -0.5730
vn -0.9760 0.1299 -0.1749
vn -0.4838 -0.8699 0.0963
vn -0.6209 -0.7839 0.0032
vn -0.5263 -0.8456 -0.0897
vn -0.9896 0.1424 -0.0215
vn -0.9870 0.1607 -0.0085
vn -0.9464 0.2867 -0.1489
vn -0.5639 -0.3453 -0.7501
vn -0.6139 0.7599 0.2138
vn -0.9070 0.4149 -0.0717
vn -0.9966 0.0227 0.0792
vn -0.6764 -0.7358 0.0318
vn -0.6187 -0.7855 0.0159
vn -0.4492 0.8922 -0.0475
vn -0.9972 -0.0646 0.0373
vn -0.9783 0.2056 0.0263
vn -0.9433 0.2720 -0.1904
vn -0.9300 -0.2316 -0.2855
vn -0.9834 0.1103 -0.1443
vn -0.5081 0.8610 0.0213
vn -0.1870 -0.0085 0.9823
vn -0.2839 -0.9586 -0.0234
vn -0.9998 0.0093 0.0150
vn -0.9073 -0.4093 -0.0958
vn -0.5672 0.7940 -0.2190
vn -0.4229 0.9048 -0.0510
vn -0.0260 -0.6293 0.7767
vn -0.9912 0.1237 0.0479
vn -0.7197 -0.1447 -0.6790
vn -0.9984 0.0325 -0.0459
vn -0.9916 0.1294 0.0053
vn -0.6631 0.7485 -0.0024
vn -0.8972 0.0157 -0.4414
vn -0.5727 0.1985 -0.7954
vn -0.4658 -0.8845 -0.0240
vn -0.6382 0.7678 0.0560
vn -0.8442 -0.5118 0.1593
vn -0.5758 -0.0280 -0.8171
vn -0.7505 -0.6605 0.0207
vn -0.3944 -0.9168 -0.0621
vn -0.2533 -0.9449 -0.2072
vn -0.5668 -0.8217 -0.0594
vn -0.5463 -0.5675 -0.6161
vn 0.1119 0.0396 -0.9929
vn -0.4225 -0.9063 0.0048
vn -0.8031 0.5906 -0.0790
vn -0.1774 0.1776 -0.9680
vn -0.3002 0.1659 -0.9393
vn -0.9252 0.0646 -0.3741
vn -0.5656 -0.8245 -0.0184
vn -0.2334 0.9621 -0.1412
vn -0.6591 0.7488 0.0699
vn -0.5687 0.8172 -0.0934
vn -0.3609 -0.9326 -0.0057
vn -0.1986 0.9572 -0.2107
vn -0.1474 -0.9666 0.2095
vn -0.3481 0.9355 -0.0599
vn -0.8152 0.5664 0.1210
vn 0.0235 -0.0932 -0.9954
vn -0.3553 -0.9325 -0.0643
vn -0.5734 -0.8181 -0.0448
vn -0.0453 -0.9890 0.1406
vn -0.2609 0.9626 -0.0726
vn 0.0302 0.2243 -0.9741
vn -0.3766 -0.8412 -0.3881
vn 0.1338 0.4970 0.8574
vn -0.1727 0.9787 -0.1114
vn -0.5519 -0.8332 -0.0355
vn 0.0747 0.0455 -0.9962
vn -0.2389 0.9509 0.1966
vn 0.0717 -0.1188 0.9903
vn -0.6565 -0.7527 0.0495
vn -0.3045 -0.3733 0.8763
vn -0.5343 -0.8441 0.0459
vn 0.0085 -0.4376 0.8991
vn -0.2128 -0.4083 0.8877
vn 0.0069 0.9963 -0.0853
vn -0.4397 0.8979 -0.0212
vn -0.2312 -0.9721 0.0404
vn 0.1464 -0.9892 0.0081
vn -0.0333 0.9952 -0.0916
vn -0.4664 0.8815 0.0737
vn 0.0556 0.7940 0.6053
vn -0.5814 -0.8136 -0.0078
vn -0.4463 -0.8947 -0.0191
vn -0.3061 -0.9517 -0.0260
vn -0.1650 0.6231 -0.7645
vn 0.1051 0.9791 -0.1742
vn -0.3460 -0.4998 -0.7941
vn -0.0512 0.9955 -0.0792
vn -0.1811 0.9830 0.0307
vn -0.3811 0.9220 0.0686
vn -0.5087 -0.8601 0.0364
vn -0.2480 -0.9674 -0.0507
vn -0.0666 -0.9967 0.0474
vn -0.0405 -0.9989 0.0214
vn -0.1945 0.9804 -0.0325
vn -0.0525 0.9982 -0.0272
vn -0.3602 -0.9316 0.0498
vn -0.2495 -0.9539 -0.1668
vn 0.0394 0.9917 -0.1228
vn -0.2996 -0.9539 -0.0181
vn -0.4583 -0.8887 -0.0076
vn -0.4346 -0.8999 0.0351
vn -0.0471 0.9980 -0.0431
vn -0.0740 0.9971 -0.0151
vn -0.0693 -0.9464 0.3156
vn -0.2416 0.9683 0.0641
vn 0.2849 0.6096 -0.7398
vn -0.1653 -0.1679 0.9719
vn -0.1717 0.9810 -0.0902
vn -0.0791 0.9964 -0.0291
vn 0.0477 -0.9930 -0.1082
vn -0.1480 -0.9890 -0.0051
vn -0.0444 0.9988 -0.0195
vn 0.2148 -0.9756 -0.0460
vn -0.3190 -0.9461 0.0557
vn -0.0940 0.9931 0.0695
vn -0.2827 0.9591 -0.0113
vn -0.0753 -0.2138 0.9740
vn -0.0999 -0.7422 -0.6627
vn -0.0407 0.9987 -0.0294
vn -0.1393 0.9903 -0.0018
vn -0.3915 -0.9182 0.0602
vn -0.3199 -0.1367 0.9375
vn 0.0780 0.6797 -0.7293
vn 0.1193 -0.9924 -0.0292
vn -0.0481 0.9984 0.0286
vn -0.0241 -0.9819 -0.1880
vn 0.5377 0.7854 0.3067
vn 0.1192 0.0753 -0.9900
vn 0.1703 -0.9852 0.0205
vn -0.1416 0.9866 0.0814
vn 0.1025 -0.1106 -0.9886
vn -0.0812 -0.9789 0.1877
vn -0.1227 -0.9895 0.0760
vn -0.1006 -0.9934 0.0546
vn -0.0758 -0.9950 0.0643
vn 0.2014 0.9755 -0.0888
vn -0.2516 -0.9655 -0.0672
vn 0.1432 -0.9897 -0.0061
vn 0.2818 -0.9346 0.2170
vn 0.0187 0.9998 -0.0025
vn 0.0763 -0.1901 0.9788
vn 0.3406 0.9402 -0.0084
vn 0.2515 0.9656 -0.0659
vn 0.1565 -0.9467 -0.2816
vn -0.2746 0.0020 0.9616
vn 0.4780 -0.8783 -0.0083
vn -0.0146 -0.9995 0.0269
vn 0.1607 0.9865 -0.0310
vn 0.4118 -0.9091 0.0622
vn 0.0042 -0.4397 0.8981
vn 0.2668 -0.9622 0.0554
vn 0.1156 -0.9932 0.0151
vn 0.6022 0.7977 -0.0338
vn 0.5897 -0.8073 0.0224
vn -0.0467 0.9886 -0.1430
vn 0.0876 -0.9770 -0.1943
vn 0.6540 -0.7565 -0.0011
vn 0.2219 0.9749 -0.0197
vn 0.1498 -0.9710 0.1863
vn -0.0457 -0.1065 0.9933
vn 0.6237 -0.4726 0.6227
vn -0.4512 0.1356 0.8821
vn 0.3183 -0.4089 0.8552
vn -0.0973 -0.5782 -0.8101
vn 0.8139 0.5565 0.1671
vn 0.0630 -0.9980 0.0102
vn -0.0200 -0.0620 0.9979
vn 0.0261 0.9997 0.0015
vn -0.1104 0.0515 -0.9925
vn -0.2118 -0.9569 -0.1985
vn 0.2054 -0.9654 -0.1605
vn 0.2220 -0.9741 -0.0435
vn -0.2417 0.2160 0.9460
vn 0.3042 -0.9489 -0.0840
vn 0.1455 -0.2015 0.9686
vn 0.3705 -0.9196 0.1307
vn 0.2655 0.9641 -0.0043
vn 0.0657 -0.9913 0.1145
vn 0.7418 0.6705 -0.0109
vn 0.4709 0.8821 -0.0145
vn 0.0851 -0.9945 0.0602
vn 0.8262 -0.5267 0.2002
vn 0.1040 -0.9888 0.1070
vn 0.2177 0.9605 -0.1734
vn 0.2289 -0.9625 0.1454
vn -0.0769 0.0696 -0.9946
vn 0.5868 0.0150 0.8096
vn 0.5503 -0.0896 0.8302
vn 0.5652 -0.8125 0.1428
vn 0.4190 -0.9079 -0.0160
vn 0.0374 0.9988 0.0305
vn -0.0607 0.0410 0.9973
vn 0.0851 0.9950 -0.0528
vn 0.1600 -0.9495 -0.2698
vn 0.0713 0.9947 0.0744
vn 0.3174 0.9483 -0.0084
vn 0.3382 -0.9329 -0.1234
vn 0.3389 -0.9332 -0.1194
vn 0.4681 -0.8801 0.0799
vn 0.8063 0.2525 0.5350
vn 0.3206 0.9461 -0.0458
vn 0.9454 -0.1388 0.2950
vn 0.8058 -0.5910 -0.0372
vn 0.2874 0.9577 0.0116
vn 0.8585 0.0233 0.5123
vn 0.6690 0.7427 0.0283
vn 0.2254 -0.9738 0.0289
vn 0.5470 0.8371 0.0114
vn 0.8752 -0.1254 0.4672
vn 0.6313 -0.7751 0.0249
vn 0.1362 0.9885 0.0651
vn 0.5345 -0.8416 -0.0771
vn 0.9090 -0.0200 0.4163
vn 0.3509 -0.9360 -0.0272
vn 0.6975 0.7165 0.0119
vn 0.7094 -0.6968 0.1065
vn 0.4897 -0.8595 -0.1465
vn 0.4383 0.8967 0.0619
vn 0.3058 -0.9509 -0.0483
vn 0.2874 0.9567 0.0468
vn 0.9339 0.3403 0.1096
vn 0.6569 -0.7517 -0.0587
vn 0.2475 -0.9651 0.0861
vn 0.8197 -0.5686 0.0698
vn 0.7186 -0.6922 0.0669
vn 0.6578 0.7532 0.0007
vn 0.8476 0.5302 0.0227
vn 0.4575 -0.8868 0.0660
vn 0.9365 -0.3346 0.1048
vn 0.6733 -0.7003 -0.2373
vn 0.7397 0.6722 0.0295
vn 0.9954 -0.0935 0.0209
vn 0.4201 0.9072 0.0210
vn 0.9941 0.0893 0.0619
vn 0.3592 -0.9331 0.0184
vn 0.5868 -0.8096 0.0152
vn 0.6124 -0.7893 0.0451
vn 0.9923 0.0096 0.1239
vn 0.6025 0.7965 0.0512
vn 0.5590 -0.8289 -0.0207
vn 0.9627 -0.2241 0.1516
vn 0.6717 -0.7156 0.1918
vn 0.9473 -0.3183 0.0354
vn 0.0231 -0.2535 -0.9671
vn 0.7041 -0.7091 0.0377
vn 0.9365 0.3499 -0.0227
vn 0.9907 0.0191 0.1347
vn 0.5480 -0.8353 0.0440
vn 0.9891 0.1463 0.0164
vn 0.9902 0.0203 0.1378
vn 0.9034 0.4075 0.1337
vn 0.4938 -0.8464 -0.1996
vn 0.3935 0.9193 0.0006
vn 0.8987 -0.4380 0.0230
vn 0.7527 -0.5939 0.2842
vn 0.6837 0.7298 0.0048
vn 0.6929 0.7165 0.0804
vn 0.8849 -0.4648 -0.0281
vn 0.6414 -0.7624 0.0856
vn 0.9371 0.3489 0.0104
vn 0.7473 0.6605 0.0725
vn 0.9063 -0.4108 0.0995
vn 0.9665 -0.1757 0.1873
vn 0.5132 -0.8475 -0.1352
vn 0.8860 0.4574 0.0763
vn 0.3939 0.6479 -0.6520
vn 0.9350 -0.3501 -0.0571
vn 0.7210 -0.6929 0.0023
vn 0.9859 0.0739 0.1501
vn 0.9988 -0.0488 -0.0094
vn 0.6259 -0.7755 -0.0831
vn 0.5324 -0.8457 -0.0368
vn 0.8806 0.4736 0.0144
vn 0.9045 -0.4215 0.0653
vn 0.8153 0.5647 -0.1283
vn 0.0703 0.1819 -0.9808
vn 0.9976 -0.0546 0.0437
vn 0.6402 -0.7586 0.1209
vn 0.5679 -0.2210 -0.7929
vn 0.6953 -0.7183 0.0258
vn 0.6249 -0.7768 0.0778
vn 0.8552 -0.4994 0.1391
vn 0.9729 -0.2206 0.0690
vn 0.9897 0.0966 0.1061
vn 0.5529 0.8311 0.0596
vn 0.8578 0.5130 -0.0320
vn 0.8089 -0.5499 -0.2078
vn 0.9952 0.0517 0.0830
vn 0.8217 -0.5697 0.0126
vn 0.9873 0.1586 0.0084
vn 0.9540 0.2833 0.0982
vn 0.8975 0.4409 0.0140
vn 0.9905 -0.1341 -0.0317
vn 0.9227 0.3848 0.0253
vn 0.9638 0.2522 0.0865
vn 0.8820 0.3157 -0.3499
vn 0.7340 -0.6679 0.1230
vn 0.8808 -0.4678 0.0724
vn 0.9972 -0.0105 0.0734
vn 0.4876 0.0744 -0.8699
vn 0.6697 -0.7250 -0.1611
vn 0.9317 -0.3631 0.0118
vn 0.9286 0.3488 0.1265
vn 0.9919 -0.1240 -0.0283
vn 0.9978 -0.0238 0.0621
vn 0.7136 -0.6889 -0.1276
vn 0.9961 0.0885 0.0065
vn 0.9874 -0.1307 0.0895
vn 0.9977 0.0580 0.0352
vn 0.8764 0.4812 0.0178
vn 0.9354 0.0260 -0.3527
vn 0.9172 -0.3807 0.1178
vn 0.8928 -0.3661 -0.2624
vn 0.9413 0.3025 -0.1500
vn 0.7903 -0.5981 0.1329
vn 0.9267 -0.3361 0.1682
vn 0.9888 0.0891 0.1198
vn 0.9791 0.0676 0.1919
vn 0.7991 -0.5229 -0.2965
vn 0.9681 0.1669 -0.1868
vn 0.9518 0.2291 0.2041
vn 0.9259 -0.2684 0.2659
vn 0.9635 0.2638 -0.0451
vn 0.8901 -0.4371 -0.1292
f 133//133 94//94 151//151
f 71//71 151//151 98//98
f 183//183 151//151 86//86
f 146//146 140//140 223//223
f 95//95 137//137 156//156
f 137//137 95//95 90//90
f 112//112 137//137 165//165
f 229//229 90//90 198//198
f 210//210 165//165 90//90
f 131//131 136//136 142//142
f 131//131 142//142 132//132
f 74//74 132//132 88//88
f 187//187 124//124 165//165
f 138//138 93//93 139//139
f 139//139 124//124 187//187
f 131//131 92//92 125//125
f 138//138 219//219 225//225
f 138//138 225//225 129//129
f 219//219 139//139 187//187
f 113//113 100//100 65//65
f 87//87 65//65 85//85
f 100//100 92//92 129//129
f 200//200 100//100 129//129
f 109//109 200//200 230//230
f 101//101 109//109 168//168
f 99//99 101//101 84//84
f 84//84 101//101 58//58
f 99//99 87//87 101//101
f 228//228 168//168 230//230
f 123//123 58//58 101//101
f 98//98 94//94 125//125
f 277//277 269//269 237//237
f 277//277 237//237 224//224
f 224//224 183//183 234//234
f 277//277 224//224 234//234
f 277//277 249//249 330//330
f 415//415 337//337 330//330
f 51//51 67//67 48//48
f 126//126 119//119 189//189
f 126//126 189//189 160//160
f 103//103 189//189 119//119
f 135//135 59//59 97//97
f 119//119 78//78 103//103
f 59//59 48//48 117//117
f 175//175 164//164 145//145
f 175//175 155//155 190//190
f 175//175 144//144 155//155
f 170//170 174//174 195//195
f 144//144 111//111 59//59
f 117//117 155//155 59//59
f 144//144 59//59 155//155
f 252//252 235//235 189//189
f 189//189 217//217 252//252
f 190//190 213//213 235//235
f 252//252 298//298 405//405
f 284//284 252//252 297//297
f 67//67 50//50 54//54
f 174//174 173//173 195//195
f 215//215 169//169 185//185
f 257//257 260//260 185//185
f 247//247 226//226 215//215
f 215//215 260//260 247//247
f 226//226 169//169 215//215
f 191//191 169//169 226//226
f 191//191 130//130 134//134
f 171//171 130//130 191//191
f 134//134 159//159 169//169
f 226//226 247//247 260//260
f 293//293 260//260 315//315
f 315//315 373//373 293//293
f 381//381 293//293 373//373
f 298//298 395//395 405//405
f 382//382 395//395 313//313
f 313//313 284//284 297//297
f 425//425 395//395 404//404
f 408//408 315//315 429//429
f 98//98 151//151 94//94
f 416//416 408//408 442//442
f 443//443 440//440 425//425
f 442//442 429//429 440//440
f 135//135 208//208 217//217
f 208//208 135//135 184//184
f 157//157 184//184 121//121
f 157//157 121//121 154//154
f 149//149 111//111 141//141
f 297//297 217//217 244//244
f 162//162 127//127 122//122
f 208//208 158//158 218//218
f 122//122 142//142 178//178
f 132//132 122//122 156//156
f 122//122 178//178 162//162
f 218//218 162//162 178//178
f 154//154 95//95 156//156
f 244//244 208//208 218//218
f 347//347 340//340 320//320
f 340//340 254//254 320//320
f 156//156 157//157 154//154
f 266//266 171//171 226//226
f 198//198 150//150 163//163
f 266//266 211//211 171//171
f 285//285 273//273 323//323
f 300//300 326//326 346//346
f 346//346 327//327 323//323
f 300//300 327//327 326//326
f 346//346 323//323 381//381
f 393//393 346//346 430//430
f 348//348 300//300 346//346
f 211//211 266//266 243//243
f 198//198 243//243 229//229
f 229//229 243//243 262//262
f 262//262 243//243 288//288
f 352//352 288//288 281//281
f 281//281 300//300 348//348
f 273//273 285//285 226//226
f 347//347 414//414 340//340
f 386//386 414//414 347//347
f 450//450 432//432 447//447
f 449//449 440//440 443//443
f 430//430 442//442 448//448
f 430//430 448//448 435//435
f 453//453 449//449 452//452
f 453//453 444//444 435//435
f 451//451 452//452 450//450
f 444//444 451//451 445//445
f 445//445 451//451 450//450
f 430//430 416//416 442//442
f 141//141 106//106 163//163
f 347//347 362//362 386//386
f 142//142 172//172 178//178
f 204//204 269//269 259//259
f 362//362 347//347 320//320
f 322//322 259//259 324//324
f 355//355 386//386 362//362
f 136//136 133//133 179//179
f 259//259 269//269 324//324
f 324//324 269//269 349//349
f 434//434 418//418 431//431
f 253//253 229//229 262//262
f 255//255 229//229 253//253
f 255//255 253//253 343//343
f 343//343 352//352 407//407
f 397//397 426//426 441//441
f 397//397 343//343 426//426
f 307//307 261//261 305//305
f 432//432 386//386 424//424
f 446//446 447//447 432//432
f 437//437 424//424 436//436
f 421//421 436//436 424//424
f 441//441 445//445 446//446
f 445//445 447//447 446//446
f 368//368 349//349 390//390
f 419//419 434//434 423//423
f 422//422 400//400 418//418
f 295//295 230//230 240//240
f 377//377 301//301 364//364
f 228//228 295//295 276//276
f 390//390 337//337 415//415
f 415//415 419//419 390//390
f 438//438 415//415 428//428
f 422//422 401//401 400//400
f 433//433 419//419 438//438
f 411//411 377//377 427//427
f 264//264 225//225 261//261
f 336//336 307//307 366//366
f 352//352 253//253 288//288
f 63//63 62//62 43//43
f 63//63 68//68 62//62
f 231//231 140//140 152//152
f 89//89 61//61 152//152
f 40//40 43//43 39//39
f 61//61 69//69 114//114
f 23//23 34//34 38//38
f 102//102 82//82 216//216
f 77//77 69//69 45//45
f 107//107 69//69 77//77
f 40//40 39//39 37//37
f 34//34 35//35 33//33
f 57//57 72//72 161//161
f 52//52 36//36 57//57
f 241//241 107//107 248//248
f 107//107 77//77 75//75
f 30//30 44//44 28//28
f 28//28 35//35 34//34
f 33//33 36//36 34//34
f 75//75 102//102 216//216
f 28//28 34//34 23//23
f 1//1 5//5 3//3
f 11//11 7//7 8//8
f 24//24 23//23 22//22
f 23//23 32//32 27//27
f 23//23 38//38 47//47
f 32//32 23//23 47//47
f 32//32 186//186 60//60
f 10//10 22//22 27//27
f 13//13 10//10 21//21
f 128//128 60//60 148//148
f 10//10 60//60 21//21
f 53//53 82//82 24//24
f 265//265 227//227 272//272
f 265//265 193//193 227//227
f 24//24 11//11 53//53
f 53//53 64//64 177//177
f 8//8 31//31 55//55
f 272//272 227//227 207//207
f 177//177 193//193 53//53
f 207//207 64//64 203//203
f 26//26 30//30 23//23
f 180//180 167//167 47//47
f 239//239 186//186 167//167
f 206//206 166//166 186//186
f 186//186 239//239 278//278
f 206//206 148//148 166//166
f 358//358 286//286 353//353
f 370//370 286//286 345//345
f 9//9 3//3 6//6
f 16//16 15//15 14//14
f 66//66 31//31 6//6
f 6//6 14//14 9//9
f 2//2 13//13 18//18
f 13//13 21//21 18//18
f 66//66 2//2 18//18
f 66//66 18//18 56//56
f 118//118 42//42 96//96
f 56//56 29//29 42//42
f 25//25 29//29 56//56
f 120//120 108//108 181//181
f 181//181 108//108 147//147
f 115//115 105//105 76//76
f 115//115 201//201 147//147
f 197//197 196//196 201//201
f 105//105 91//91 76//76
f 31//31 66//66 55//55
f 66//66 236//236 55//55
f 201//201 76//76 246//246
f 214//214 209//209 246//246
f 270//270 256//256 246//246
f 271//271 270//270 294//294
f 294//294 270//270 304//304
f 329//329 350//350 294//294
f 304//304 270//270 289//289
f 308//308 272//272 271//271
f 236//236 66//66 118//118
f 274//274 236//236 251//251
f 182//182 128//128 188//188
f 202//202 182//182 233//233
f 258//258 182//182 188//188
f 258//258 188//188 242//242
f 251//251 199//199 233//233
f 274//274 251//251 268//268
f 233//233 258//258 268//268
f 296//296 289//289 236//236
f 342//342 367//367 338//338
f 342//342 338//338 296//296
f 331//331 358//358 342//342
f 274//274 321//321 236//236
f 311//311 268//268 283//283
f 6//6 3//3 13//13
f 96//96 42//42 21//21
f 128//128 96//96 60//60
f 62//62 58//58 80//80
f 58//58 123//123 194//194
f 80//80 58//58 194//194
f 194//194 123//123 168//168
f 220//220 228//228 276//276
f 263//263 220//220 276//276
f 303//303 263//263 276//276
f 194//194 220//220 263//263
f 62//62 80//80 176//176
f 46//46 62//62 176//176
f 176//176 205//205 222//222
f 222//222 205//205 263//263
f 312//312 222//222 263//263
f 299//299 328//328 263//263
f 314//314 263//263 328//328
f 312//312 263//263 314//314
f 49//49 48//48 51//51
f 48//48 54//54 51//51
f 318//318 312//312 314//314
f 161//161 72//72 212//212
f 221//221 212//212 280//280
f 280//280 212//212 222//222
f 180//180 161//161 221//221
f 280//280 312//312 371//371
f 267//267 180//180 221//221
f 280//280 339//339 267//267
f 275//275 267//267 339//339
f 275//275 239//239 267//267
f 345//345 278//278 383//383
f 278//278 239//239 275//275
f 330//330 223//223 231//231
f 333//333 231//231 325//325
f 306//306 344//344 325//325
f 389//389 394//394 344//344
f 306//306 238//238 241//241
f 241//241 287//287 306//306
f 287//287 248//248 216//216
f 335//335 287//287 309//309
f 398//398 380//380 379//379
f 356//356 360//360 282//282
f 372//372 378//378 383//383
f 361//361 363//363 367//367
f 363//363 356//356 350//350
f 363//363 361//361 370//370
f 350//350 308//308 294//294
f 378//378 379//379 375//375
f 377//377 403//403 357//357
f 357//357 303//303 276//276
f 388//388 351//351 303//303
f 357//357 403//403 388//388
f 388//388 303//303 357//357
f 377//377 357//357 295//295
f 420//420 385//385 394//394
f 394//394 417//417 413//413
f 413//413 428//428 420//420
f 415//415 385//385 420//420
f 412//412 403//403 428//428
f 391//391 374//374 354//354
f 354//354 374//374 314//314
f 417//417 389//389 399//399
f 387//387 318//318 374//374
f 387//387 359//359 318//318
f 406//406 399//399 402//402
f 384//384 312//312 369//369
f 384//384 396//396 406//406
f 369//369 341//341 359//359
f 369//369 396//396 384//384
f 387//387 399//399 396//396
f 369//369 359//359 387//387
f 372//372 371//371 392//392
f 372//372 339//339 371//371
f 392//392 384//384 406//406
f 428//428 415//415 420//420
f 403//403 433//433 438//438
f 183//183 86//86 234//234
f 249//249 146//146 223//223
f 287//287 216//216 265//265
f 383//383 370//370 345//345
f 136//136 172//172 142//142
f 240//240 225//225 264//264
f 68//68 58//58 62//62
f 71//71 86//86 151//151
f 70//70 84//84 71//71
f 71//71 146//146 86//86
f 146//146 71//71 84//84
f 84//84 70//70 99//99
f 146//146 234//234 86//86
f 146//146 68//68 81//81
f 81//81 140//140 146//146
f 68//68 146//146 84//84
f 156//156 143//143 132//132
f 88//88 112//112 73//73
f 90//90 165//165 137//137
f 143//143 112//112 88//88
f 137//137 112//112 143//143
f 90//90 229//229 210//210
f 73//73 74//74 88//88
f 132//132 143//143 88//88
f 74//74 93//93 132//132
f 73//73 124//124 74//74
f 165//165 124//124 112//112
f 74//74 124//124 139//139
f 104//104 132//132 93//93
f 93//93 138//138 104//104
f 139//139 93//93 74//74
f 131//131 133//133 136//136
f 100//100 125//125 92//92
f 94//94 133//133 125//125
f 133//133 131//131 125//125
f 104//104 138//138 92//92
f 138//138 139//139 219//219
f 92//92 138//138 129//129
f 132//132 104//104 131//131
f 165//165 210//210 187//187
f 125//125 100//100 113//113
f 98//98 125//125 113//113
f 98//98 113//113 99//99
f 85//85 109//109 87//87
f 87//87 109//109 101//101
f 98//98 99//99 70//70
f 65//65 87//87 113//113
f 113//113 87//87 99//99
f 100//100 200//200 85//85
f 200//200 129//129 225//225
f 85//85 200//200 109//109
f 230//230 200//200 240//240
f 168//168 123//123 101//101
f 168//168 109//109 230//230
f 220//220 168//168 228//228
f 73//73 112//112 124//124
f 183//183 237//237 151//151
f 179//179 151//151 237//237
f 269//269 277//277 349//349
f 146//146 249//249 234//234
f 249//249 223//223 330//330
f 330//330 333//333 385//385
f 277//277 330//330 337//337
f 349//349 277//277 337//337
f 237//237 183//183 224//224
f 50//50 51//51 54//54
f 195//195 173//173 175//175
f 195//195 175//175 190//190
f 54//54 78//78 67//67
f 54//54 103//103 79//79
f 78//78 79//79 67//67
f 103//103 59//59 135//135
f 54//54 59//59 103//103
f 67//67 110//110 117//117
f 110//110 116//116 117//117
f 189//189 135//135 217//217
f 103//103 135//135 189//189
f 175//175 145//145 144//144
f 160//160 155//155 117//117
f 155//155 160//160 190//190
f 170//170 195//195 257//257
f 59//59 111//111 97//97
f 111//111 121//121 97//97
f 144//144 145//145 141//141
f 144//144 141//141 111//111
f 213//213 190//190 189//189
f 217//217 297//297 252//252
f 235//235 252//252 190//190
f 195//195 190//190 257//257
f 190//190 252//252 257//257
f 284//284 298//298 252//252
f 252//252 405//405 257//257
f 48//48 67//67 117//117
f 174//174 164//164 175//175
f 174//174 173//173 164//164
f 160//160 189//189 190//190
f 54//54 48//48 59//59
f 106//106 159//159 134//134
f 164//164 159//159 145//145
f 185//185 169//169 159//159
f 257//257 185//185 164//164
f 185//185 260//260 215//215
f 106//106 141//141 145//145
f 159//159 106//106 145//145
f 134//134 169//169 191//191
f 130//130 106//106 134//134
f 106//106 171//171 163//163
f 226//226 260//260 273//273
f 257//257 315//315 260//260
f 405//405 315//315 257//257
f 323//323 273//273 293//293
f 323//323 293//293 381//381
f 298//298 313//313 395//395
f 313//313 297//297 382//382
f 425//425 404//404 443//443
f 425//425 405//405 395//395
f 404//404 395//395 382//382
f 315//315 405//405 429//429
f 315//315 408//408 373//373
f 429//429 442//442 408//408
f 405//405 440//440 429//429
f 184//184 135//135 121//121
f 121//121 149//149 154//154
f 111//111 149//149 121//121
f 141//141 150//150 149//149
f 217//217 208//208 244//244
f 297//297 244//244 340//340
f 184//184 157//157 158//158
f 157//157 127//127 158//158
f 122//122 132//132 142//142
f 162//162 218//218 158//158
f 127//127 157//157 156//156
f 122//122 127//127 156//156
f 218//218 254//254 244//244
f 244//244 254//254 340//340
f 184//184 158//158 208//208
f 198//198 163//163 211//211
f 211//211 163//163 171//171
f 266//266 300//300 281//281
f 266//266 285//285 300//300
f 327//327 326//326 323//323
f 285//285 323//323 326//326
f 300//300 285//285 327//327
f 285//285 326//326 327//327
f 346//346 326//326 327//327
f 348//348 346//346 393//393
f 430//430 346//346 381//381
f 198//198 211//211 243//243
f 243//243 266//266 281//281
f 243//243 281//281 288//288
f 352//352 410//410 407//407
f 410//410 444//444 407//407
f 444//444 445//445 407//407
f 352//352 281//281 348//348
f 348//348 393//393 352//352
f 393//393 435//435 410//410
f 352//352 393//393 410//410
f 382//382 414//414 439//439
f 443//443 404//404 439//439
f 414//414 382//382 340//340
f 297//297 340//340 382//382
f 404//404 382//382 439//439
f 439//439 386//386 432//432
f 452//452 439//439 450//450
f 414//414 386//386 439//439
f 442//442 440//440 448//448
f 453//453 435//435 448//448
f 449//449 439//439 452//452
f 448//448 449//449 453//453
f 381//381 416//416 430//430
f 451//451 444//444 453//453
f 453//453 452//452 451//451
f 447//447 445//445 450//450
f 135//135 97//97 121//121
f 410//410 435//435 444//444
f 170//170 257//257 164//164
f 443//443 439//439 449//449
f 204//204 178//178 172//172
f 218//218 178//178 245//245
f 204//204 172//172 136//136
f 245//245 204//204 259//259
f 178//178 204//204 245//245
f 320//320 254//254 322//322
f 254//254 245//245 322//322
f 362//362 320//320 322//322
f 322//322 245//245 259//259
f 362//362 322//322 355//355
f 136//136 179//179 204//204
f 179//179 237//237 204//204
f 386//386 355//355 421//421
f 324//324 349//349 368//368
f 421//421 355//355 423//423
f 436//436 421//421 423//423
f 436//436 423//423 434//434
f 431//431 436//436 434//434
f 255//255 210//210 229//229
f 343//343 253//253 352//352
f 250//250 187//187 210//210
f 250//250 210//210 255//255
f 255//255 343//343 319//319
f 426//426 343//343 407//407
f 426//426 407//407 445//445
f 437//437 397//397 441//441
f 305//305 319//319 409//409
f 225//225 219//219 261//261
f 264//264 261//261 307//307
f 305//305 366//366 307//307
f 261//261 319//319 305//305
f 319//319 250//250 255//255
f 261//261 250//250 319//319
f 431//431 409//409 397//397
f 437//437 436//436 431//431
f 397//397 437//437 431//431
f 366//366 305//305 409//409
f 431//431 418//418 409//409
f 319//319 397//397 409//409
f 319//319 343//343 397//397
f 432//432 424//424 446//446
f 437//437 446//446 424//424
f 386//386 421//421 424//424
f 426//426 445//445 441//441
f 240//240 264//264 310//310
f 301//301 240//240 310//310
f 301//301 310//310 364//364
f 349//349 337//337 390//390
f 419//419 423//423 390//390
f 423//423 368//368 390//390
f 418//418 434//434 422//422
f 422//422 434//434 419//419
f 240//240 301//301 295//295
f 377//377 295//295 301//301
f 401//401 377//377 364//364
f 415//415 330//330 385//385
f 364//364 400//400 401//401
f 422//422 419//419 433//433
f 427//427 422//422 433//433
f 427//427 401//401 422//422
f 427//427 433//433 411//411
f 365//365 400//400 364//364
f 264//264 336//336 310//310
f 310//310 336//336 365//365
f 364//364 310//310 365//365
f 264//264 307//307 336//336
f 418//418 365//365 366//366
f 400//400 365//365 418//418
f 365//365 336//336 366//366
f 418//418 366//366 409//409
f 441//441 446//446 437//437
f 254//254 218//218 245//245
f 262//262 288//288 253//253
f 152//152 238//238 232//232
f 152//152 232//232 231//231
f 68//68 89//89 81//81
f 89//89 140//140 81//81
f 140//140 89//89 152//152
f 140//140 231//231 223//223
f 89//89 63//63 61//61
f 61//61 43//43 40//40
f 69//69 61//61 40//40
f 62//62 41//41 43//43
f 43//43 41//41 39//39
f 41//41 46//46 39//39
f 114//114 152//152 61//61
f 152//152 114//114 238//238
f 238//238 114//114 241//241
f 63//63 43//43 61//61
f 82//82 102//102 44//44
f 216//216 82//82 193//193
f 40//40 37//37 35//35
f 28//28 75//75 45//45
f 75//75 77//77 45//45
f 45//45 40//40 35//35
f 45//45 35//35 28//28
f 46//46 72//72 39//39
f 37//37 33//33 35//35
f 37//37 57//57 33//33
f 52//52 57//57 161//161
f 36//36 33//33 57//57
f 114//114 69//69 107//107
f 114//114 107//107 241//241
f 44//44 75//75 28//28
f 75//75 44//44 102//102
f 44//44 30//30 26//26
f 28//28 23//23 30//30
f 52//52 180//180 38//38
f 38//38 34//34 52//52
f 107//107 75//75 216//216
f 248//248 107//107 216//216
f 20//20 5//5 7//7
f 7//7 5//5 1//1
f 4//4 7//7 11//11
f 20//20 7//7 4//4
f 17//17 5//5 20//20
f 12//12 31//31 8//8
f 5//5 17//17 3//3
f 1//1 12//12 8//8
f 1//1 3//3 12//12
f 8//8 4//4 1//1
f 20//20 11//11 24//24
f 26//26 23//23 24//24
f 22//22 23//23 27//27
f 32//32 10//10 27//27
f 32//32 47//47 186//186
f 10//10 13//13 17//17
f 20//20 22//22 17//17
f 22//22 10//10 17//17
f 96//96 21//21 60//60
f 13//13 3//3 17//17
f 32//32 60//60 10//10
f 24//24 82//82 44//44
f 26//26 24//24 44//44
f 82//82 53//53 193//193
f 216//216 193//193 265//265
f 193//193 177//177 227//227
f 265//265 272//272 282//282
f 53//53 11//11 64//64
f 8//8 55//55 83//83
f 55//55 76//76 83//83
f 83//83 120//120 203//203
f 64//64 11//11 8//8
f 227//227 177//177 207//207
f 64//64 207//207 177//177
f 47//47 167//167 186//186
f 186//186 278//278 206//206
f 206//206 278//278 242//242
f 242//242 148//148 206//206
f 148//148 242//242 188//188
f 60//60 186//186 166//166
f 358//358 353//353 361//361
f 370//370 353//353 286//286
f 286//286 278//278 345//345
f 286//286 242//242 278//278
f 13//13 2//2 6//6
f 14//14 15//15 9//9
f 15//15 16//16 19//19
f 12//12 16//16 15//15
f 9//9 16//16 12//12
f 6//6 31//31 19//19
f 14//14 6//6 19//19
f 6//6 2//2 66//66
f 18//18 21//21 25//25
f 18//18 25//25 56//56
f 118//118 56//56 42//42
f 153//153 96//96 128//128
f 153//153 118//118 96//96
f 76//76 91//91 120//120
f 147//147 108//108 115//115
f 120//120 181//181 214//214
f 181//181 192//192 196//196
f 181//181 147//147 192//192
f 105//105 91//91 108//108
f 76//76 55//55 236//236
f 76//76 236//236 246//246
f 181//181 209//209 214//214
f 203//203 271//271 272//272
f 308//308 271//271 294//294
f 270//270 236//236 289//289
f 270//270 246//246 236//236
f 271//271 256//256 270//270
f 329//329 294//294 304//304
f 329//329 304//304 289//289
f 203//203 214//214 271//271
f 203//203 120//120 214//214
f 251//251 118//118 199//199
f 251//251 236//236 118//118
f 153//153 128//128 182//182
f 233//233 182//182 258//258
f 242//242 286//286 258//258
f 199//199 182//182 202//202
f 233//233 199//199 202//202
f 233//233 268//268 251//251
f 321//321 296//296 236//236
f 338//338 367//367 334//334
f 334//334 367//367 350//350
f 334//334 289//289 296//296
f 334//334 296//296 338//338
f 358//358 367//367 342//342
f 321//321 331//331 342//342
f 283//283 258//258 286//286
f 283//283 286//286 332//332
f 332//332 286//286 358//358
f 358//358 361//361 367//367
f 311//311 283//283 332//332
f 332//332 358//358 311//311
f 311//311 358//358 331//331
f 274//274 268//268 279//279
f 274//274 291//291 302//302
f 302//302 292//292 311//311
f 291//291 292//292 302//302
f 291//291 292//292 290//290
f 311//311 290//290 279//279
f 316//316 311//311 331//331
f 316//316 317//317 311//311
f 302//302 317//317 316//316
f 321//321 317//317 331//331
f 316//316 317//317 321//321
f 321//321 302//302 316//316
f 279//279 268//268 311//311
f 321//321 274//274 302//302
f 199//199 118//118 153//153
f 12//12 3//3 9//9
f 83//83 76//76 120//120
f 128//128 148//148 188//188
f 148//148 60//60 166//166
f 66//66 56//56 118//118
f 24//24 22//22 20//20
f 38//38 180//180 47//47
f 168//168 220//220 194//194
f 299//299 263//263 303//303
f 41//41 62//62 46//46
f 176//176 80//80 194//194
f 263//263 205//205 194//194
f 194//194 205//205 176//176
f 312//312 318//318 341//341
f 222//222 312//312 280//280
f 221//221 161//161 212//212
f 280//280 371//371 339//339
f 267//267 221//221 280//280
f 167//167 180//180 267//267
f 239//239 167//167 267//267
f 383//383 278//278 275//275
f 275//275 339//339 383//383
f 232//232 325//325 231//231
f 333//333 325//325 385//385
f 385//385 325//325 394//394
f 325//325 232//232 238//238
f 325//325 238//238 306//306
f 344//344 402//402 389//389
f 394//394 325//325 344//344
f 241//241 248//248 287//287
f 335//335 306//306 287//287
f 344//344 335//335 402//402
f 344//344 306//306 335//335
f 402//402 335//335 380//380
f 406//406 402//402 398//398
f 402//402 380//380 398//398
f 287//287 265//265 309//309
f 335//335 309//309 360//360
f 375//375 360//360 378//378
f 375//375 335//335 360//360
f 335//335 375//375 380//380
f 392//392 398//398 379//379
f 282//282 272//272 308//308
f 265//265 282//282 309//309
f 309//309 282//282 360//360
f 363//363 378//378 356//356
f 376//376 378//378 363//363
f 360//360 356//356 378//378
f 383//383 339//339 372//372
f 383//383 376//376 370//370
f 356//356 282//282 308//308
f 356//356 308//308 350//350
f 367//367 363//363 350//350
f 376//376 363//363 370//370
f 372//372 379//379 378//378
f 276//276 295//295 357//357
f 420//420 394//394 413//413
f 413//413 412//412 428//428
f 411//411 433//433 403//403
f 403//403 377//377 411//411
f 412//412 388//388 403//403
f 391//391 417//417 399//399
f 303//303 328//328 299//299
f 354//354 328//328 351//351
f 388//388 412//412 391//391
f 328//328 354//354 314//314
f 354//354 388//388 391//391
f 412//412 417//417 391//391
f 303//303 351//351 328//328
f 412//412 413//413 417//417
f 403//403 438//438 428//428
f 359//359 341//341 318//318
f 399//399 406//406 396//396
f 391//391 399//399 387//387
f 312//312 341//341 369//369
f 369//369 387//387 396//396
f 384//384 371//371 312//312
f 392//392 371//371 384//384
f 372//372 392//392 379//379
f 314//314 374//374 318//318
f 95//95 154//154 149//149
f 228//228 230//230 295//295
f 179//179 133//133 151//151
f 161//161 180//180 52//52
f 417//417 394//394 389//389
f 406//406 398//398 392//392
f 84//84 58//58 68//68
f 98//98 70//70 71//71
f 95//95 149//149 90//90
f 143//143 156//156 137//137
f 149//149 150//150 90//90
f 92//92 131//131 104//104
f 100//100 85//85 65//65
f 200//200 225//225 240//240
f 277//277 234//234 249//249
f 51//51 48//48 49//49
f 110//110 67//67 119//119
f 110//110 119//119 116//116
f 67//67 49//49 50//50
f 51//51 50//50 49//49
f 67//67 51//51 49//49
f 170//170 164//164 173//173
f 54//54 79//79 78//78
f 79//79 103//103 78//78
f 126//126 110//110 116//116
f 126//126 116//116 119//119
f 116//116 110//110 160//160
f 116//116 160//160 117//117
f 119//119 79//79 78//78
f 119//119 67//67 79//79
f 235//235 213//213 189//189
f 174//174 175//175 173//173
f 174//174 170//170 173//173
f 126//126 160//160 110//110
f 381//381 373//373 408//408
f 381//381 408//408 416//416
f 185//185 159//159 164//164
f 130//130 171//171 106//106
f 293//293 273//273 260//260
f 313//313 298//298 284//284
f 440//440 405//405 425//425
f 37//37 39//39 72//72
f 37//37 72//72 57//57
f 162//162 158//158 127//127
f 163//163 150//150 141//141
f 198//198 90//90 150//150
f 285//285 266//266 226//226
f 430//430 435//435 393//393
f 450//450 439//439 432//432
f 449//449 448//448 440//440
f 191//191 226//226 171//171
f 324//324 355//355 322//322
f 237//237 269//269 204//204
f 368//368 355//355 324//324
f 250//250 219//219 187//187
f 250//250 261//261 219//219
f 419//419 415//415 438//438
f 401//401 427//427 377//377
f 368//368 423//423 355//355
f 63//63 89//89 68//68
f 45//45 69//69 40//40
f 192//192 147//147 201//201
f 192//192 201//201 196//196
f 36//36 52//52 34//34
f 11//11 20//20 4//4
f 7//7 1//1 4//4
f 4//4 8//8 7//7
f 21//21 29//29 25//25
f 42//42 29//29 21//21
f 83//83 64//64 8//8
f 203//203 64//64 83//83
f 207//207 203//203 272//272
f 14//14 19//19 16//16
f 19//19 12//12 15//15
f 16//16 9//9 15//15
f 31//31 12//12 19//19
f 115//115 108//108 91//91
f 256//256 271//271 214//214
f 256//256 214//214 246//246
f 196//196 197//197 192//192
f 105//105 120//120 91//91
f 105//105 108//108 120//120
f 105//105 115//115 91//91
f 291//291 274//274 279//279
f 291//291 279//279 292//292
f 209//209 196//196 192//192
f 197//197 209//209 192//192
f 197//197 201//201 209//209
f 209//209 181//181 196//196
f 76//76 201//201 115//115
f 209//209 201//201 246//246
f 199//199 153//153 182//182
f 283//283 268//268 258//258
f 289//289 334//334 329//329
f 329//329 334//334 350//350
f 321//321 342//342 296//296
f 311//311 292//292 291//291
f 279//279 290//290 292//292
f 291//291 290//290 311//311
f 212//212 46//46 176//176
f 212//212 176//176 222//222
f 316//316 331//331 317//317
f 302//302 311//311 317//317
f 212//212 72//72 46//46
f 231//231 333//333 330//330
f 389//389 402//402 399//399
f 375//375 379//379 380//380
f 376//376 383//383 378//378
f 351//351 388//388 354//354
f 374//374 391//391 387//387
f 370//370 361//361 353//353
