# convertido de flygym/NeuroMechFly (lm_tarsus2)
v -0.03658 0.00116 -0.14426
v -0.03627 0.00072 -0.11753
v -0.03607 -0.00093 -0.14735
v -0.03593 -0.00071 -0.14042
v -0.03570 0.02701 -0.16859
v -0.03529 0.00241 -0.14294
v -0.03526 -0.00365 -0.14380
v -0.03499 -0.00124 -0.11332
v -0.03494 0.02540 -0.16530
v -0.03494 0.00024 -0.15125
v -0.03487 -0.00067 -0.12112
v -0.03476 0.00423 -0.07505
v -0.03474 0.02614 -0.16947
v -0.03464 0.02823 -0.16887
v -0.03456 0.00488 -0.06771
v -0.03455 0.00299 -0.07130
v -0.03393 -0.00221 -0.13548
v -0.03382 0.02216 -0.09163
v -0.03377 0.00218 -0.07861
v -0.03377 0.02743 -0.16961
v -0.03373 0.00164 -0.06942
v -0.03373 0.00285 -0.12259
v -0.03367 -0.00129 -0.15446
v -0.03363 0.00147 -0.13559
v -0.03362 0.00274 -0.06286
v -0.03355 0.00402 -0.08273
v -0.03352 -0.00079 -0.13241
v -0.03351 0.02327 -0.16152
v -0.03347 -0.00380 -0.11652
v -0.03345 0.00388 -0.11144
v -0.03344 0.02357 -0.16746
v -0.03338 0.00343 -0.14790
v -0.03324 0.02076 -0.08726
v -0.03309 0.02184 -0.08396
v -0.03297 0.00576 -0.08637
v -0.03296 -0.00302 -0.11111
v -0.03289 0.00809 -0.07023
v -0.03281 0.00306 -0.10527
v -0.03274 0.00196 -0.08625
v -0.03271 0.02773 -0.16603
v -0.03270 -0.00545 -0.14056
v -0.03270 0.00174 -0.12777
v -0.03258 0.00709 -0.07813
v -0.03255 0.02030 -0.06442
v -0.03255 0.02031 -0.08170
v -0.03254 0.00369 -0.15167
v -0.03252 0.00948 -0.01846
v -0.03249 0.00335 -0.08966
v -0.03246 -0.00054 -0.06677
v -0.03245 0.00359 -0.10069
v -0.03244 0.01959 -0.09398
v -0.03240 -0.00199 -0.10861
v -0.03237 0.02215 -0.16581
v -0.03236 0.02026 -0.05642
v -0.03231 0.02140 -0.13363
v -0.03230 -0.00140 -0.07438
v -0.03223 0.00282 -0.04034
v -0.03220 0.02787 -0.16587
v -0.03218 0.02778 -0.16590
v -0.03216 0.00971 -0.02410
v -0.03208 0.02794 -0.16617
v -0.03206 0.00265 -0.15574
v -0.03206 0.02689 -0.16855
v -0.03206 0.00314 -0.05568
v -0.03202 -0.00035 -0.15867
v -0.03199 0.00488 -0.13550
v -0.03196 0.00093 -0.03768
v -0.03194 -0.00528 -0.15258
v -0.03193 -0.00283 -0.12628
v -0.03191 0.00211 -0.05069
v -0.03189 0.01195 -0.01840
v -0.03189 0.01949 -0.13002
v -0.03188 0.00819 -0.06044
v -0.03187 -0.00034 -0.10149
v -0.03178 0.02062 -0.15715
v -0.03178 0.00076 -0.05700
v -0.03177 -0.00477 -0.13179
v -0.03175 0.00730 -0.09847
v -0.03172 0.00600 -0.02055
v -0.03171 0.00118 -0.09358
v -0.03170 0.01834 -0.06631
v -0.03168 0.01367 -0.01813
v -0.03167 0.00673 -0.03434
v -0.03162 -0.00550 -0.14668
v -0.03162 0.00586 -0.02906
v -0.03159 0.02448 -0.09222
v -0.03159 0.00807 -0.08218
v -0.03158 0.00053 -0.04615
v -0.03157 0.02421 -0.08731
v -0.03155 0.00513 -0.01940
v -0.03153 0.01517 -0.03073
v -0.03151 -0.00338 -0.12431
v -0.03150 0.00796 -0.10701
v -0.03148 -0.00353 -0.12393
v -0.03147 0.02017 -0.11385
v -0.03144 0.02372 -0.05799
v -0.03143 0.01903 -0.11003
v -0.03140 -0.00334 -0.12432
v -0.03140 0.00803 -0.11857
v -0.03140 0.02806 -0.16559
v -0.03140 0.00455 -0.01915
v -0.03139 0.01573 -0.15481
v -0.03136 0.00002 -0.03345
v -0.03136 0.01726 -0.05028
v -0.03134 -0.00328 -0.15869
v -0.03134 0.00809 -0.08947
v -0.03132 0.01135 -0.05844
v -0.03129 -0.00127 -0.09975
v -0.03128 -0.00165 -0.08197
v -0.03127 0.00724 -0.12832
v -0.03127 -0.00126 -0.09975
v -0.03127 0.02058 -0.16462
v -0.03125 0.01846 -0.03995
v -0.03124 0.00868 -0.09355
v -0.03123 0.02299 -0.06408
v -0.03120 0.01775 -0.07676
v -0.03117 0.00464 -0.01920
v -0.03115 -0.00486 -0.11341
v -0.03115 -0.00159 -0.09963
v -0.03112 0.01157 -0.06662
v -0.03111 0.02035 -0.10691
v -0.03104 0.01084 -0.10246
v -0.03101 -0.00015 -0.05522
v -0.03100 0.01042 -0.03889
v -0.03100 -0.00015 -0.05522
v -0.03097 0.00353 -0.01921
v -0.03096 0.02158 -0.05396
v -0.03095 0.01573 -0.15977
v -0.03093 0.00323 -0.01872
v -0.03092 -0.00382 -0.12356
v -0.03092 0.00303 -0.01802
v -0.03091 0.01601 -0.09833
v -0.03084 0.01855 -0.10363
v -0.03083 0.01322 -0.09392
v -0.03082 -0.00459 -0.12523
v -0.03081 0.00668 -0.14773
v -0.03080 0.02683 -0.16124
v -0.03078 0.01026 -0.07194
v -0.03078 0.01242 -0.15296
v -0.03073 0.01945 -0.13614
v -0.03072 0.00821 -0.15188
v -0.03070 0.00392 -0.01852
v -0.03070 0.00614 -0.15730
v -0.03069 0.01771 -0.12535
v -0.03068 0.01110 -0.07468
v -0.03061 0.01665 -0.01847
v -0.03057 0.02311 -0.09509
v -0.03056 0.00240 -0.02476
v -0.03053 -0.00119 -0.05405
v -0.03052 0.01782 -0.07157
v -0.03051 -0.00225 -0.08950
v -0.03050 0.02047 -0.04134
v -0.03048 0.01841 -0.11809
v -0.03046 0.00631 -0.01995
v -0.03045 0.01690 -0.01828
v -0.03043 0.00852 -0.14502
v -0.03043 0.01814 -0.02783
v -0.03042 0.01124 -0.10609
v -0.03040 0.00210 -0.16314
v -0.03037 -0.00299 -0.16294
v -0.03036 0.01158 -0.08920
v -0.03036 -0.00309 -0.09743
v -0.03032 0.01722 -0.01856
v -0.03031 -0.00415 -0.10500
v -0.03027 0.01705 -0.01861
v -0.03026 -0.00273 -0.06275
v -0.03024 0.02059 -0.04786
v -0.03022 0.02609 -0.16760
v -0.03021 0.01019 -0.07887
v -0.03020 0.01264 -0.12183
v -0.03012 0.00192 -0.01904
v -0.03011 0.01175 -0.12897
v -0.03010 0.02483 -0.08361
v -0.03008 0.01089 -0.11400
v -0.03001 0.02150 -0.06850
v -0.02996 0.02261 -0.03766
v -0.02994 0.00448 -0.16633
v -0.02987 0.00802 -0.16574
v -0.02979 -0.00242 -0.05386
v -0.02977 0.02431 -0.13371
v -0.02974 0.02151 -0.07493
v -0.02965 0.01473 -0.16419
v -0.02964 0.01135 -0.16457
v -0.02963 0.01710 -0.01856
v -0.02962 0.02272 -0.10962
v -0.02961 0.01891 -0.02126
v -0.02958 -0.00303 -0.07039
v -0.02948 0.02368 -0.12898
v -0.02944 0.01183 -0.13439
v -0.02938 0.02510 -0.15533
v -0.02932 0.02285 -0.11359
v -0.02913 0.01330 -0.16711
v -0.02909 -0.00764 -0.13523
v -0.02894 0.01099 -0.14069
v -0.02886 0.02197 -0.12368
v -0.02883 -0.00409 -0.04309
v -0.02879 0.00007 -0.16465
v -0.02879 -0.00193 -0.02833
v -0.02874 -0.00368 -0.07803
v -0.02872 0.02165 -0.10325
v -0.02871 0.02252 -0.15023
v -0.02870 -0.00402 -0.03641
v -0.02868 0.01659 -0.14062
v -0.02867 -0.00066 -0.02041
v -0.02857 0.02212 -0.11811
v -0.02856 0.02104 -0.09853
v -0.02854 0.02007 -0.14648
v -0.02852 -0.00634 -0.12105
v -0.02852 0.01663 -0.16785
v -0.02848 0.00006 -0.01914
v -0.02848 0.02179 -0.01823
v -0.02847 0.00230 -0.01838
v -0.02845 0.02610 -0.08404
v -0.02844 0.02265 -0.07175
v -0.02837 -0.00281 -0.16576
v -0.02823 -0.00438 -0.08536
v -0.02823 -0.00654 -0.10096
v -0.02823 0.01832 -0.01848
v -0.02814 0.02672 -0.05896
v -0.02809 -0.00531 -0.09265
v -0.02809 -0.00636 -0.16231
v -0.02797 0.02616 -0.08272
v -0.02797 0.02612 -0.08273
v -0.02771 0.02354 -0.16700
v -0.02769 -0.00178 -0.01894
v -0.02769 -0.00917 -0.15012
v -0.02767 0.00838 -0.16715
v -0.02767 0.01761 -0.16955
v -0.02762 -0.00175 -0.01895
v -0.02754 0.02633 -0.15288
v -0.02747 0.02619 -0.08162
v -0.02738 -0.00615 -0.10943
v -0.02726 0.02089 -0.14095
v -0.02723 0.00722 -0.01904
v -0.02723 0.02583 -0.03855
v -0.02721 -0.00223 -0.01782
v -0.02718 -0.00599 -0.16483
v -0.02714 0.02633 -0.06402
v -0.02712 0.02568 -0.05337
v -0.02710 0.02349 -0.01887
v -0.02699 -0.00516 -0.03108
v -0.02695 -0.00710 -0.11589
v -0.02683 -0.00539 -0.05656
v -0.02678 0.02480 -0.04799
v -0.02674 -0.00937 -0.15763
v -0.02673 -0.00308 -0.01744
v -0.02672 0.02632 -0.08725
v -0.02647 0.02141 -0.16861
v -0.02646 0.01982 -0.17033
v -0.02636 -0.00370 -0.16765
v -0.02635 0.02539 -0.06835
v -0.02628 -0.00375 -0.02370
v -0.02621 0.02561 -0.16643
v -0.02612 0.02858 -0.16192
v -0.02607 -0.00718 -0.04598
v -0.02606 0.02354 -0.14039
v -0.02605 0.02502 -0.07189
v -0.02605 0.02535 -0.16649
v -0.02595 0.02471 -0.01861
v -0.02577 0.02551 -0.02825
v -0.02576 0.02594 -0.16646
v -0.02575 0.00129 -0.16705
v -0.02574 0.02592 -0.16634
v -0.02568 -0.00892 -0.09628
v -0.02550 0.02508 -0.10737
v -0.02531 0.02553 -0.09368
v -0.02517 -0.00444 -0.01808
v -0.02510 -0.00913 -0.16219
v -0.02509 0.02795 -0.16622
v -0.02505 0.02837 -0.15541
v -0.02498 0.02800 -0.16606
v -0.02491 0.02428 -0.09844
v -0.02484 -0.00992 -0.14071
v -0.02482 0.02769 -0.16573
v -0.02464 0.02623 -0.13811
v -0.02460 0.02576 -0.16718
v -0.02452 -0.00814 -0.08797
v -0.02441 0.02625 -0.01852
v -0.02433 -0.00819 -0.16522
v -0.02417 0.02819 -0.15101
v -0.02411 -0.00489 -0.16951
v -0.02407 -0.00683 -0.02706
v -0.02386 0.02575 -0.11737
v -0.02382 0.02631 -0.14215
v -0.02379 -0.00708 -0.06414
v -0.02376 0.02801 -0.13355
v -0.02370 0.01626 -0.17003
v -0.02365 -0.00623 -0.01951
v -0.02363 -0.00690 -0.07421
v -0.02353 -0.01268 -0.12274
v -0.02352 -0.01107 -0.11959
v -0.02350 0.02734 -0.08179
v -0.02349 -0.00458 -0.01828
v -0.02349 -0.01184 -0.14771
v -0.02337 0.02628 -0.12283
v -0.02322 0.00358 -0.01839
v -0.02310 -0.01293 -0.12993
v -0.02307 0.02901 -0.03847
v -0.02295 0.02822 -0.02878
v -0.02289 0.02816 -0.04806
v -0.02284 -0.00971 -0.10281
v -0.02283 0.02820 -0.05368
v -0.02278 0.02828 -0.06018
v -0.02273 0.02521 -0.16998
v -0.02252 -0.01063 -0.09240
v -0.02232 -0.00716 -0.01784
v -0.02209 0.02797 -0.01824
v -0.02201 -0.01174 -0.16151
v -0.02191 -0.00554 -0.17120
v -0.02183 -0.01071 -0.04715
v -0.02174 -0.00843 -0.05680
v -0.02167 0.02835 -0.06825
v -0.02166 -0.01340 -0.15360
v -0.02142 -0.01202 -0.13419
v -0.02141 -0.01399 -0.12649
v -0.02109 0.02828 -0.07496
v -0.02108 -0.00961 -0.03236
v -0.02092 0.02995 -0.16716
v -0.02072 -0.00882 -0.02283
v -0.02072 -0.00822 -0.07060
v -0.02014 0.02758 -0.09802
v -0.02010 0.02016 -0.17135
v -0.02004 -0.01222 -0.04195
v -0.02001 0.03044 -0.16388
v -0.01996 0.02968 -0.13715
v -0.01987 0.00449 -0.17141
v -0.01985 0.02927 -0.07132
v -0.01973 0.02978 -0.15090
v -0.01969 -0.00854 -0.01822
v -0.01946 0.02809 -0.10287
v -0.01932 0.02964 -0.16656
v -0.01927 -0.01204 -0.04771
v -0.01926 -0.01184 -0.14100
v -0.01923 -0.01360 -0.12223
v -0.01922 0.03010 -0.15709
v -0.01920 0.02813 -0.11718
v -0.01897 -0.01228 -0.09360
v -0.01896 0.02965 -0.13066
v -0.01891 0.02814 -0.09180
v -0.01885 0.02989 -0.14417
v -0.01885 0.02846 -0.12324
v -0.01880 0.03088 -0.02762
v -0.01880 -0.00647 -0.17299
v -0.01872 0.02872 -0.16931
v -0.01867 0.03181 -0.03748
v -0.01859 0.02860 -0.11239
v -0.01854 -0.01236 -0.08346
v -0.01843 0.02971 -0.01811
v -0.01841 0.03204 -0.04476
v -0.01831 -0.01234 -0.16319
v -0.01818 -0.00266 -0.01878
v -0.01789 -0.01201 -0.11230
v -0.01784 0.03054 -0.13939
v -0.01772 -0.01131 -0.07905
v -0.01740 -0.01144 -0.10211
v -0.01734 0.03113 -0.04899
v -0.01715 -0.01174 -0.10749
v -0.01685 -0.01269 -0.13470
v -0.01671 0.03050 -0.05408
v -0.01627 -0.01029 -0.01907
v -0.01624 -0.01127 -0.02642
v -0.01620 -0.01352 -0.11636
v -0.01618 0.02966 -0.16864
v -0.01615 0.02971 -0.10190
v -0.01611 -0.01211 -0.03375
v -0.01599 -0.01389 -0.14800
v -0.01594 -0.01409 -0.15714
v -0.01593 0.00802 -0.17425
v -0.01588 0.03331 -0.03706
v -0.01582 -0.01039 -0.01898
v -0.01576 -0.00915 -0.16973
v -0.01574 -0.01061 -0.05380
v -0.01574 0.03105 -0.16362
v -0.01560 -0.00734 -0.17533
v -0.01549 0.03319 -0.04442
v -0.01548 0.00996 -0.01867
v -0.01536 0.02984 -0.07173
v -0.01536 0.03075 -0.15436
v -0.01513 0.03047 -0.01803
v -0.01512 0.02565 -0.17035
v -0.01499 0.02950 -0.11142
v -0.01468 0.03232 -0.02552
v -0.01464 0.02941 -0.11907
v -0.01459 -0.01260 -0.08387
v -0.01454 -0.01048 -0.05707
v -0.01436 0.03105 -0.13189
v -0.01420 0.03003 -0.09750
v -0.01419 0.02837 -0.17024
v -0.01408 0.02879 -0.07870
v -0.01408 -0.01246 -0.10995
v -0.01404 0.03123 -0.06685
v -0.01401 0.03009 -0.16578
v -0.01396 -0.01159 -0.16520
v -0.01372 0.03154 -0.05988
v -0.01371 0.03340 -0.04072
v -0.01365 0.02986 -0.09256
v -0.01359 0.03070 -0.15938
v -0.01358 0.02962 -0.10548
v -0.01350 -0.01344 -0.03835
v -0.01345 -0.01066 -0.02004
v -0.01340 0.03140 -0.14095
v -0.01339 0.03016 -0.12508
v -0.01302 -0.01335 -0.12595
v -0.01297 -0.01149 -0.06864
v -0.01294 -0.01315 -0.14310
v -0.01291 -0.00923 -0.02078
v -0.01266 0.02929 -0.07458
v -0.01263 0.03104 -0.01759
v -0.01244 0.03316 -0.02893
v -0.01238 -0.01080 -0.02140
v -0.01238 -0.00366 -0.17692
v -0.01225 -0.01348 -0.04229
v -0.01180 -0.00840 -0.17763
v -0.01176 0.03210 -0.13598
v -0.01164 0.03117 -0.14515
v -0.01127 0.02965 -0.08776
v -0.01098 -0.01318 -0.07702
v -0.01080 -0.01121 -0.09654
v -0.01048 0.02850 -0.17019
v -0.01037 0.03105 -0.06957
v -0.01024 -0.01277 -0.16128
v -0.01023 0.03145 -0.05147
v -0.01011 0.03146 -0.01860
v -0.00988 0.02956 -0.10584
v -0.00976 0.03099 -0.15224
v -0.00972 0.03185 -0.13881
v -0.00959 -0.00026 -0.02018
v -0.00954 0.03118 -0.01756
v -0.00951 0.03364 -0.03214
v -0.00945 0.03091 -0.01764
v -0.00941 0.03117 -0.01732
v -0.00941 -0.01358 -0.14577
v -0.00919 -0.01269 -0.11193
v -0.00892 0.02215 -0.17120
v -0.00890 0.03305 -0.02790
v -0.00861 0.03055 -0.07811
v -0.00857 -0.01155 -0.17121
v -0.00855 0.03338 -0.03953
v -0.00851 0.03005 -0.09309
v -0.00842 0.02855 -0.01760
v -0.00839 -0.00737 -0.17861
v -0.00832 0.02846 -0.16959
v -0.00824 0.03178 -0.04754
v -0.00812 -0.01303 -0.11915
v -0.00804 -0.01202 -0.16868
v -0.00802 0.02995 -0.10164
v -0.00799 -0.00318 -0.17612
v -0.00773 -0.00816 -0.17735
v -0.00768 0.02974 -0.08272
v -0.00764 0.03112 -0.01764
v -0.00746 -0.01430 -0.13244
v -0.00741 -0.01099 -0.02184
v -0.00721 -0.01151 -0.04943
v -0.00713 0.03121 -0.06217
v -0.00656 -0.01230 -0.02891
v -0.00650 0.02844 -0.16933
v -0.00648 -0.01147 -0.05662
v -0.00632 -0.01140 -0.08993
v -0.00620 0.03085 -0.14319
v -0.00611 0.02981 -0.16054
v -0.00585 -0.01167 -0.09430
v -0.00583 0.03116 -0.12922
v -0.00564 0.03097 -0.01878
v -0.00553 0.03198 -0.07767
v -0.00549 -0.01355 -0.07469
v -0.00506 0.02662 -0.16888
v -0.00500 -0.01260 -0.06314
v -0.00499 0.02843 -0.16802
v -0.00495 0.02869 -0.01828
v -0.00489 -0.00823 -0.17503
v -0.00470 -0.01273 -0.10159
v -0.00451 -0.01348 -0.07065
v -0.00445 0.03159 -0.13531
v -0.00420 -0.01355 -0.13758
v -0.00417 -0.00873 -0.02139
v -0.00409 0.01604 -0.01875
v -0.00398 0.03130 -0.11205
v -0.00396 -0.01373 -0.07860
v -0.00394 -0.01380 -0.10930
v -0.00387 0.03248 -0.04734
v -0.00385 -0.01078 -0.02330
v -0.00384 0.03091 -0.08015
v -0.00377 0.03240 -0.07360
v -0.00371 -0.01258 -0.09799
v -0.00351 -0.01371 -0.11639
v -0.00350 0.03204 -0.06728
v -0.00346 -0.01254 -0.03995
v -0.00340 0.03064 -0.12261
v -0.00319 0.03069 -0.02025
v -0.00318 0.03197 -0.05438
v -0.00317 0.03089 -0.11699
v -0.00291 0.02074 -0.17070
v -0.00287 -0.01175 -0.03069
v -0.00280 0.03023 -0.15075
v -0.00272 -0.01122 -0.05788
v -0.00266 0.03151 -0.06146
v -0.00259 -0.01382 -0.10556
v -0.00254 0.03290 -0.04142
v -0.00244 0.03265 -0.07011
v -0.00240 -0.01016 -0.02170
v -0.00237 -0.01252 -0.12247
v -0.00215 0.03086 -0.13100
v -0.00201 0.03226 -0.04842
v -0.00188 -0.01453 -0.11248
v -0.00179 -0.01219 -0.04378
v -0.00178 0.03013 -0.14296
v -0.00166 -0.01203 -0.06648
v -0.00164 -0.00688 -0.17497
v -0.00158 0.03283 -0.05090
v -0.00145 0.03052 -0.13969
v -0.00127 0.02840 -0.16545
v -0.00123 0.02768 -0.16877
v -0.00120 -0.01179 -0.03616
v -0.00113 -0.01112 -0.04870
v -0.00109 -0.00170 -0.17459
v -0.00098 -0.01049 -0.08993
v -0.00094 -0.01208 -0.16427
v -0.00085 -0.01202 -0.07453
v -0.00073 -0.01318 -0.15314
v -0.00060 0.03049 -0.09712
v -0.00056 0.03227 -0.03078
v -0.00055 0.03125 -0.10385
v -0.00049 -0.01202 -0.09992
v -0.00027 0.03230 -0.06649
v -0.00025 0.02922 -0.08480
v -0.00014 0.03248 -0.07333
v -0.00011 0.03257 -0.04720
v -0.00005 -0.01280 -0.11700
v -0.00005 -0.01282 -0.11701
v 0.00003 0.00572 -0.01977
v 0.00011 0.02318 -0.01937
v 0.00016 0.03263 -0.03808
v 0.00038 -0.01281 -0.10717
v 0.00040 -0.01076 -0.08388
v 0.00040 0.02757 -0.16911
v 0.00045 0.02890 -0.15731
v 0.00045 0.02972 -0.09242
v 0.00049 0.03200 -0.06957
v 0.00053 -0.01171 -0.12416
v 0.00077 0.02968 -0.01986
v 0.00079 0.03160 -0.05076
v 0.00093 0.03118 -0.09964
v 0.00095 -0.01161 -0.11956
v 0.00105 0.03224 -0.04310
v 0.00109 0.03125 -0.07540
v 0.00110 -0.01287 -0.11229
v 0.00127 -0.01340 -0.14569
v 0.00131 0.02923 -0.01850
v 0.00133 0.02915 -0.11705
v 0.00139 -0.00824 -0.02142
v 0.00151 -0.00460 -0.17504
v 0.00162 -0.00932 -0.02672
v 0.00162 0.03003 -0.14624
v 0.00168 0.02705 -0.16860
v 0.00178 0.03053 -0.05766
v 0.00190 -0.01228 -0.15584
v 0.00245 0.03004 -0.10927
v 0.00251 0.03087 -0.10397
v 0.00259 -0.00977 -0.03964
v 0.00269 -0.00944 -0.04780
v 0.00272 0.03019 -0.09653
v 0.00286 -0.00921 -0.06742
v 0.00297 -0.01239 -0.13491
v 0.00299 -0.00886 -0.05816
v 0.00306 0.01205 -0.02066
v 0.00318 0.02265 -0.16940
v 0.00318 0.02649 -0.16707
v 0.00327 -0.01106 -0.16207
v 0.00335 0.03002 -0.09969
v 0.00339 -0.01283 -0.14208
v 0.00399 0.02771 -0.01931
v 0.00406 0.02922 -0.10639
v 0.00410 -0.00819 -0.09124
v 0.00448 0.02997 -0.02984
v 0.00451 0.02845 -0.08065
v 0.00453 0.02739 -0.12115
v 0.00459 0.02912 -0.13790
v 0.00461 0.02725 -0.15682
v 0.00461 0.02850 -0.05352
v 0.00474 0.02783 -0.08750
v 0.00474 0.01778 -0.17053
v 0.00477 -0.00807 -0.10998
v 0.00481 0.03049 -0.03853
v 0.00490 -0.00894 -0.12387
v 0.00500 -0.00492 -0.02076
v 0.00504 0.02779 -0.12649
v 0.00511 0.02965 -0.14598
v 0.00518 -0.00104 -0.17489
v 0.00520 -0.00851 -0.10085
v 0.00534 -0.01190 -0.15046
v 0.00538 -0.00551 -0.02442
v 0.00548 -0.00782 -0.11778
v 0.00592 -0.00990 -0.13093
v 0.00604 0.02688 -0.02108
v 0.00613 0.02851 -0.14753
v 0.00630 0.01866 -0.02257
v 0.00651 -0.00812 -0.16326
v 0.00653 -0.00006 -0.17436
v 0.00661 0.02785 -0.13576
v 0.00676 0.02385 -0.16682
v 0.00678 -0.00573 -0.03973
v 0.00708 -0.00511 -0.06410
v 0.00709 -0.01018 -0.13854
v 0.00731 -0.00920 -0.15669
v 0.00731 0.00920 -0.17196
v 0.00749 0.02563 -0.05094
v 0.00762 -0.00158 -0.02104
v 0.00770 -0.01017 -0.14594
v 0.00778 0.00222 -0.17382
v 0.00778 0.02598 -0.02270
v 0.00783 0.02580 -0.12390
v 0.00787 0.01594 -0.17058
v 0.00794 -0.00449 -0.11238
v 0.00805 -0.00490 -0.08894
v 0.00844 0.02433 -0.15862
v 0.00849 0.02081 -0.16959
v 0.00851 0.02682 -0.03146
v 0.00856 0.02501 -0.10775
v 0.00873 -0.00531 -0.07439
v 0.00888 0.02039 -0.02364
v 0.00890 0.01307 -0.16977
v 0.00893 -0.00107 -0.02845
v 0.00912 0.02462 -0.08533
v 0.00922 0.00541 -0.02106
v 0.00924 0.01089 -0.02165
v 0.00926 0.00149 -0.02085
v 0.00929 0.00481 -0.17289
v 0.00935 0.02626 -0.06526
v 0.00952 0.01754 -0.17178
v 0.00961 -0.00179 -0.03594
v 0.00991 0.01582 -0.17048
v 0.00992 0.02240 -0.05302
v 0.01010 0.02301 -0.11421
v 0.01018 -0.00400 -0.12023
v 0.01019 0.02475 -0.04093
v 0.01021 -0.00411 -0.16227
v 0.01026 0.00820 -0.17120
v 0.01045 0.00243 -0.02663
v 0.01047 -0.00114 -0.06631
v 0.01049 -0.00334 -0.05543
v 0.01050 0.02275 -0.09431
v 0.01050 -0.00266 -0.05991
v 0.01053 0.00405 -0.02331
v 0.01055 -0.00733 -0.14357
v 0.01059 0.02552 -0.07514
v 0.01070 -0.00472 -0.12805
v 0.01078 0.02331 -0.02524
v 0.01084 0.01362 -0.16847
v 0.01090 0.00654 -0.02119
v 0.01102 -0.00001 -0.16580
v 0.01128 -0.00251 -0.07297
v 0.01141 -0.00246 -0.05043
v 0.01141 0.02136 -0.02474
v 0.01143 0.00112 -0.03580
v 0.01144 0.02345 -0.14023
v 0.01144 0.00331 -0.03200
v 0.01151 0.00913 -0.02133
v 0.01160 0.02259 -0.15391
v 0.01168 -0.00490 -0.13488
v 0.01191 0.01570 -0.16466
v 0.01193 -0.00127 -0.08267
v 0.01193 0.01911 -0.04871
v 0.01197 -0.00193 -0.07707
v 0.01197 -0.00130 -0.08924
v 0.01198 0.01842 -0.02236
v 0.01199 0.01069 -0.02249
v 0.01207 0.00001 -0.04328
v 0.01213 -0.00194 -0.09570
v 0.01216 0.01861 -0.05577
v 0.01218 0.01582 -0.02197
v 0.01221 0.00067 -0.16233
v 0.01232 0.01351 -0.02262
v 0.01234 0.00298 -0.06636
v 0.01236 0.00278 -0.03981
v 0.01240 0.00566 -0.16467
v 0.01240 0.02202 -0.03907
v 0.01242 -0.00054 -0.11217
v 0.01244 -0.00587 -0.15032
v 0.01258 0.02256 -0.06752
v 0.01265 0.00120 -0.07043
v 0.01279 0.01944 -0.11149
v 0.01287 -0.00205 -0.10269
v 0.01288 0.00078 -0.06067
v 0.01291 -0.00052 -0.11710
v 0.01298 0.01538 -0.05290
v 0.01299 0.00841 -0.05926
v 0.01308 0.01960 -0.08999
v 0.01315 0.00057 -0.08539
v 0.01316 0.00913 -0.06012
v 0.01322 -0.00058 -0.12337
v 0.01324 0.01898 -0.02903
v 0.01327 0.00153 -0.04731
v 0.01330 0.00699 -0.04155
v 0.01331 0.01918 -0.11915
v 0.01343 0.01238 -0.04705
v 0.01343 0.01520 -0.05869
v 0.01348 -0.00009 -0.05074
v 0.01350 0.00067 -0.07719
v 0.01350 0.02217 -0.07583
v 0.01356 0.00298 -0.07418
v 0.01359 -0.00129 -0.13134
v 0.01360 0.01716 -0.11211
v 0.01360 -0.00076 -0.05823
v 0.01369 0.01513 -0.02806
v 0.01378 0.00085 -0.05524
v 0.01389 0.01698 -0.06413
v 0.01389 0.01744 -0.03648
v 0.01390 0.00936 -0.07076
v 0.01393 0.01756 -0.10090
v 0.01398 0.00627 -0.04951
v 0.01400 0.01333 -0.03749
v 0.01402 0.01675 -0.04091
v 0.01407 0.01923 -0.15302
v 0.01409 0.00089 -0.11989
v 0.01410 0.01669 -0.11934
v 0.01411 0.00243 -0.08930
v 0.01414 -0.00423 -0.15017
v 0.01419 0.01827 -0.12639
v 0.01427 0.01877 -0.13248
v 0.01432 0.01339 -0.06807
v 0.01435 0.00481 -0.08567
v 0.01442 -0.00224 -0.13958
v 0.01446 0.01626 -0.06720
v 0.01463 0.01790 -0.07116
v 0.01465 0.01625 -0.09273
v 0.01469 -0.00164 -0.15285
v 0.01473 0.00515 -0.11986
v 0.01477 0.00923 -0.11151
v 0.01478 0.00196 -0.11245
v 0.01482 0.00819 -0.11803
v 0.01483 0.00194 -0.09683
v 0.01484 -0.00011 -0.13500
v 0.01494 -0.00272 -0.14697
v 0.01502 0.01775 -0.13615
v 0.01505 0.01655 -0.08637
v 0.01506 0.00444 -0.09307
v 0.01508 0.01615 -0.13072
v 0.01509 0.00245 -0.13150
v 0.01514 0.01488 -0.07459
v 0.01521 0.01784 -0.14351
v 0.01522 0.01126 -0.15564
v 0.01523 0.01125 -0.08971
v 0.01524 0.00159 -0.10410
v 0.01525 0.00591 -0.12735
v 0.01526 0.01225 -0.08119
v 0.01526 0.01659 -0.14871
v 0.01526 0.00397 -0.10843
v 0.01551 0.01647 -0.08126
v 0.01559 0.00135 -0.15394
v 0.01560 0.00815 -0.13096
v 0.01570 0.00852 -0.10532
v 0.01574 0.00896 -0.09693
v 0.01577 0.00373 -0.10118
v 0.01582 -0.00074 -0.15076
v 0.01583 0.00150 -0.14133
v 0.01584 -0.00079 -0.14245
v 0.01586 0.00428 -0.13546
v 0.01587 0.00615 -0.09684
v 0.01605 0.00111 -0.14451
v 0.01609 0.00184 -0.13913
v 0.01622 0.00735 -0.10091
v 0.01625 0.00246 -0.15070
v 0.01628 0.00594 -0.10528
v 0.01641 0.00801 -0.15014
v 0.01650 0.00781 -0.14084
v 0.01661 0.00374 -0.14295
v 0.01667 0.00134 -0.14629
vn -0.9798 0.1859 -0.0734
vn -0.9709 0.2392 -0.0123
vn -0.9224 -0.3149 -0.2238
vn -0.9517 -0.1586 0.2629
vn -0.9903 0.1188 0.0726
vn -0.8303 0.5535 0.0652
vn -0.7055 -0.7069 -0.0508
vn -0.9091 -0.2770 0.3113
vn -0.9378 0.1260 0.3234
vn -0.9527 0.1326 -0.2734
vn -0.7880 -0.5192 -0.3308
vn -0.9925 0.0808 -0.0915
vn 0.0905 -0.4624 -0.8820
vn -0.0151 0.9918 -0.1272
vn -0.9879 0.1145 0.1047
vn -0.9649 -0.2558 0.0604
vn -0.8649 -0.4618 0.1968
vn -0.9367 0.3083 -0.1660
vn -0.9266 -0.3546 -0.1249
vn 0.0196 0.2752 -0.9612
vn -0.8489 -0.5283 -0.0188
vn -0.9427 0.2312 -0.2405
vn -0.9351 -0.1693 -0.3114
vn -0.9123 0.3038 0.2745
vn -0.9676 -0.1846 0.1722
vn -0.9973 0.0172 -0.0712
vn -0.9877 -0.0110 0.1559
vn -0.9773 -0.0264 0.2100
vn -0.6873 -0.7227 -0.0736
vn -0.9378 0.3183 0.1385
vn -0.2089 -0.7151 -0.6670
vn -0.7938 0.5795 -0.1845
vn -0.9812 -0.1910 0.0279
vn -0.7727 0.5940 0.2238
vn -0.9574 0.2676 -0.1087
vn -0.6615 -0.7065 0.2514
vn -0.8772 0.4798 -0.0163
vn -0.9916 -0.0607 0.1138
vn -0.9091 -0.4089 -0.0802
vn -0.5495 0.7253 0.4148
vn -0.6599 -0.7447 0.1000
vn -0.9968 0.0783 -0.0163
vn -0.8749 0.4719 -0.1093
vn -0.9947 0.0430 -0.0938
vn -0.9790 -0.1751 0.1047
vn -0.8851 0.4503 -0.1175
vn -0.9502 -0.1300 0.2831
vn -0.9886 -0.0424 -0.1444
vn -0.7552 -0.6553 0.0168
vn -0.9979 0.0225 0.0600
vn -0.9632 -0.1225 -0.2392
vn -0.8633 -0.4266 0.2696
vn -0.7923 -0.6088 -0.0394
vn -0.9956 0.0059 0.0931
vn -0.9549 0.1892 -0.2288
vn -0.7245 -0.6891 -0.0145
vn -0.9978 0.0643 -0.0146
vn -0.4176 0.8548 0.3080
vn -0.3482 0.8866 0.3045
vn -0.9994 0.0285 -0.0203
vn 0.3852 0.8709 -0.3053
vn -0.9033 0.3184 -0.2877
vn 0.5505 0.5600 -0.6191
vn -0.9933 0.0127 0.1152
vn -0.9530 0.0918 -0.2889
vn -0.9062 0.4130 0.0904
vn -0.9290 -0.3686 0.0318
vn -0.7352 -0.6655 -0.1286
vn -0.9473 -0.2798 0.1558
vn -0.9999 0.0155 -0.0007
vn -0.5570 -0.0958 0.8250
vn -0.9931 -0.0066 0.1175
vn -0.9507 0.2830 0.1266
vn -0.9297 -0.3629 0.0637
vn -0.9544 0.0783 0.2882
vn -0.8425 -0.5284 0.1047
vn -0.7656 -0.6353 0.1016
vn -0.9929 0.1179 0.0174
vn -0.9491 -0.3143 0.0223
vn -0.9759 -0.2181 0.0085
vn -0.9847 -0.0484 -0.1672
vn -0.8482 0.1916 0.4938
vn -0.9995 0.0256 -0.0165
vn -0.6216 -0.7833 0.0032
vn -0.9721 -0.2170 0.0891
vn -0.3964 0.8995 -0.1839
vn -0.8539 0.5194 -0.0318
vn -0.8748 -0.4838 -0.0242
vn -0.6576 0.7495 0.0764
vn -0.4008 0.5340 0.7444
vn -0.9932 0.1159 -0.0063
vn -0.8427 -0.5345 0.0640
vn -0.9490 0.3153 0.0077
vn -0.8829 -0.4002 -0.2456
vn -0.9765 0.1720 -0.1300
vn -0.8128 0.5689 0.1254
vn -0.9996 -0.0269 0.0089
vn -0.7077 -0.6739 0.2119
vn -0.8689 0.4940 -0.0324
vn -0.1207 0.9816 -0.1481
vn -0.9813 -0.1302 0.1419
vn -0.9774 0.0454 0.2066
vn -0.9245 -0.3510 0.1489
vn -0.9985 0.0246 0.0497
vn -0.8164 -0.5205 -0.2501
vn -0.9348 0.3540 -0.0299
vn -0.9998 -0.0108 0.0162
vn -0.9551 -0.1941 0.2240
vn -0.8172 -0.5739 -0.0527
vn -0.9508 0.3052 -0.0530
vn -0.9533 -0.1889 0.2355
vn -0.7396 -0.2894 -0.6076
vn -0.9945 0.1045 -0.0031
vn -0.9927 0.1161 0.0323
vn -0.7080 0.6661 -0.2347
vn -0.9904 -0.0068 0.1381
vn -0.9548 -0.2970 0.0108
vn -0.5156 -0.8454 0.1396
vn -0.8668 -0.4984 -0.0150
vn -0.9916 0.1136 -0.0620
vn -0.9683 0.2137 0.1297
vn -0.9913 0.1174 -0.0596
vn -0.9327 -0.3190 0.1684
vn -0.9989 0.0457 -0.0090
vn -0.9285 -0.3163 0.1946
vn -0.9088 -0.4138 -0.0534
vn -0.8197 0.5187 0.2431
vn -0.9816 -0.1555 -0.1108
vn -0.4749 -0.3378 -0.8126
vn -0.7724 -0.6255 0.1101
vn -0.3995 -0.3009 0.8660
vn -0.9895 0.1225 -0.0772
vn -0.9802 0.1895 0.0568
vn -0.9985 -0.0475 0.0285
vn -0.7437 -0.6638 0.0795
vn -0.9179 0.3906 -0.0704
vn -0.5455 0.7729 0.3241
vn -0.9490 0.3060 -0.0752
vn -0.9907 0.0704 0.1165
vn -0.8929 0.0239 -0.4495
vn -0.9806 0.1947 -0.0228
vn -0.1440 0.3291 0.9332
vn -0.9898 0.0831 -0.1154
vn -0.9950 0.0349 0.0936
vn -0.9949 0.1009 -0.0087
vn -0.9238 0.3829 -0.0036
vn -0.5523 0.6366 -0.5383
vn -0.9219 -0.3853 0.0395
vn -0.9265 -0.3764 0.0029
vn -0.9914 0.1206 -0.0499
vn -0.8318 -0.5550 0.0043
vn -0.8695 0.4886 -0.0725
vn -0.9928 0.1037 -0.0597
vn -0.1493 -0.0664 0.9866
vn 0.0425 0.1217 0.9917
vn -0.9137 0.4063 -0.0059
vn -0.9128 0.4025 0.0694
vn -0.9996 0.0008 -0.0265
vn -0.9453 0.0491 -0.3226
vn -0.8796 -0.2647 -0.3953
vn -0.9873 -0.1583 0.0145
vn -0.8775 -0.4704 0.0931
vn -0.1612 0.8378 0.5216
vn -0.7662 -0.6425 0.0132
vn -0.8105 0.5519 0.1964
vn -0.6869 -0.7259 0.0349
vn -0.8662 0.4996 0.0108
vn 0.1979 -0.0613 -0.9783
vn -0.9998 0.0194 0.0013
vn -0.9995 0.0307 0.0124
vn -0.8049 -0.5552 0.2094
vn -0.9989 -0.0413 -0.0205
vn -0.5904 0.7999 0.1077
vn -0.9922 0.1214 -0.0292
vn -0.8203 0.4727 -0.3219
vn -0.8797 0.4646 0.1015
vn -0.8357 -0.0945 -0.5410
vn -0.9569 0.1114 -0.2682
vn -0.7772 -0.6280 -0.0397
vn -0.5925 0.8033 -0.0606
vn -0.8763 0.4040 0.2625
vn -0.9484 -0.1415 -0.2837
vn -0.9696 -0.0124 -0.2446
vn 0.0203 0.1013 0.9946
vn -0.7096 0.6975 0.0995
vn -0.9026 0.4185 0.1011
vn -0.6303 -0.7760 0.0244
vn -0.7126 0.6589 0.2410
vn -0.9833 -0.0859 -0.1605
vn -0.7709 0.5323 0.3499
vn -0.5741 0.8140 -0.0889
vn -0.6883 -0.1055 -0.7177
vn -0.6421 -0.7666 0.0061
vn -0.9486 0.3109 0.0588
vn -0.7860 0.6029 0.1365
vn -0.8206 -0.5709 -0.0241
vn -0.6543 -0.1109 -0.7481
vn -0.8464 -0.4964 0.1929
vn -0.6431 -0.7642 0.0502
vn -0.6855 0.7084 0.1681
vn -0.8608 0.4144 0.2954
vn -0.7279 -0.6836 0.0533
vn -0.9870 0.0508 -0.1523
vn -0.8260 -0.5626 0.0348
vn -0.7343 0.6651 -0.1360
vn -0.8183 0.5207 -0.2435
vn -0.9554 0.2377 0.1751
vn -0.6518 -0.7578 0.0288
vn -0.7624 -0.0708 -0.6432
vn -0.7452 -0.3623 0.5599
vn -0.0254 -0.0224 0.9994
vn -0.0893 0.0644 0.9939
vn -0.3412 0.9383 -0.0559
vn -0.8202 0.5688 -0.0607
vn -0.7310 -0.3002 -0.6128
vn -0.7399 -0.6727 -0.0008
vn -0.7287 -0.6844 -0.0250
vn -0.3617 0.0236 0.9320
vn -0.4999 0.8660 0.0137
vn -0.7742 -0.6242 0.1048
vn -0.7243 -0.6253 -0.2906
vn -0.3945 0.9111 0.1196
vn -0.3688 0.9223 0.1154
vn -0.3363 0.0309 -0.9413
vn -0.8724 -0.3889 0.2962
vn -0.6165 -0.7873 0.0106
vn -0.5073 -0.0846 -0.8576
vn -0.6572 -0.1501 -0.7386
vn -0.9063 -0.2969 0.3006
vn -0.6605 0.6859 0.3056
vn -0.5233 0.8374 0.1578
vn -0.5225 -0.8524 0.0184
vn -0.9195 0.3527 -0.1737
vn -0.1808 -0.0509 0.9822
vn -0.7176 0.6964 -0.0076
vn -0.2699 0.0719 0.9602
vn -0.6627 -0.5481 -0.5103
vn -0.4751 0.8645 -0.1638
vn -0.6214 0.7572 0.2012
vn -0.7980 0.6025 0.0107
vn -0.6709 -0.7305 0.1279
vn -0.5263 -0.8379 0.1446
vn -0.6593 -0.7501 -0.0518
vn -0.6996 0.7146 0.0031
vn -0.6656 -0.7277 -0.1656
vn -0.1282 -0.2347 0.9636
vn -0.2979 0.9507 -0.0861
vn -0.6867 0.3321 -0.6467
vn -0.3157 0.0911 -0.9445
vn -0.7045 -0.1588 -0.6917
vn -0.6187 0.7475 -0.2418
vn -0.7524 -0.6508 0.1017
vn 0.0002 0.0564 -0.9984
vn -0.2554 0.9665 0.0272
vn -0.7226 -0.6912 -0.0085
vn -0.7834 0.5327 -0.3201
vn -0.6234 0.7724 0.1211
vn 0.1575 0.1071 -0.9817
vn -0.2863 0.2824 0.9156
vn -0.7646 0.6370 0.0975
vn 0.3226 0.0599 -0.9446
vn -0.5522 -0.0119 -0.8336
vn -0.3758 0.5052 -0.7769
vn -0.6095 -0.7925 0.0198
vn -0.5135 0.8570 0.0432
vn -0.3400 0.9191 -0.1992
vn -0.0527 -0.2197 0.9741
vn -0.5816 -0.7765 -0.2425
vn -0.3613 0.3904 -0.8468
vn -0.3906 0.9120 0.1255
vn -0.1425 0.9594 -0.2436
vn -0.5784 0.8114 -0.0847
vn -0.4546 -0.8899 -0.0382
vn -0.3794 0.8752 -0.3002
vn -0.5947 0.7689 -0.2347
vn -0.6314 0.4047 -0.6615
vn -0.6631 -0.7437 0.0855
vn -0.3265 0.4802 -0.8142
vn -0.5037 -0.7168 -0.4821
vn -0.5760 0.7961 0.1855
vn -0.6374 -0.3696 -0.6761
vn -0.6048 -0.7848 0.1353
vn -0.5185 0.8547 -0.0242
vn -0.7102 0.6971 0.0985
vn -0.4545 -0.8906 -0.0141
vn -0.4779 0.8773 0.0449
vn -0.3977 -0.1053 -0.9115
vn -0.6711 -0.7343 0.1018
vn -0.5324 -0.8433 0.0732
vn -0.6557 -0.7449 0.1230
vn -0.5388 -0.7997 0.2651
vn -0.1935 0.9810 -0.0149
vn -0.1135 -0.0309 0.9931
vn -0.4338 -0.8899 0.1408
vn -0.5018 0.8542 0.1365
vn 0.0210 0.0039 0.9998
vn -0.6230 -0.7818 -0.0253
vn -0.5831 0.8124 -0.0096
vn -0.5864 0.8054 0.0862
vn -0.5763 0.8160 -0.0449
vn -0.4501 -0.8867 -0.1060
vn -0.4030 0.9151 0.0117
vn -0.3369 0.9411 -0.0280
vn -0.2475 0.3278 -0.9117
vn -0.5893 -0.8019 0.0986
vn -0.0882 -0.0698 0.9936
vn -0.6104 0.7863 0.0954
vn -0.4430 -0.8518 -0.2796
vn -0.5808 0.0988 -0.8080
vn -0.6068 -0.7869 -0.1124
vn -0.4119 -0.8992 -0.1476
vn -0.4119 0.9077 -0.0805
vn -0.4207 -0.9053 -0.0587
vn -0.1461 -0.9599 -0.2394
vn -0.0429 -0.9970 -0.0645
vn -0.3218 0.9459 -0.0418
vn -0.4996 -0.8532 0.1497
vn -0.3497 0.7854 -0.5107
vn -0.5344 -0.8400 0.0936
vn -0.4295 -0.8995 0.0806
vn -0.4606 0.8876 0.0007
vn -0.2050 0.1259 -0.9706
vn -0.5290 -0.8447 0.0809
vn -0.1988 0.9787 -0.0513
vn -0.4281 0.9036 -0.0162
vn -0.5359 0.0077 -0.8442
vn -0.2464 0.9687 -0.0313
vn -0.2371 0.9710 0.0320
vn -0.2085 -0.6133 0.7618
vn -0.3883 0.9215 0.0101
vn -0.0384 0.9504 -0.3086
vn -0.1910 -0.9642 -0.1838
vn -0.2493 -0.9625 0.1066
vn -0.3577 -0.9020 0.2417
vn -0.2092 0.9768 0.0451
vn -0.3567 0.9342 0.0017
vn -0.1402 -0.9877 -0.0694
vn -0.3318 0.9344 0.1299
vn -0.2813 0.9595 -0.0155
vn -0.3718 0.9283 0.0100
vn -0.3260 0.9406 0.0950
vn -0.4620 0.8812 0.1000
vn -0.4947 -0.5677 -0.6580
vn -0.1698 0.5056 -0.8459
vn -0.5116 0.8592 -0.0015
vn -0.3798 0.9251 -0.0002
vn -0.4984 -0.8592 0.1161
vn -0.3473 0.6911 0.6339
vn -0.4757 0.8763 -0.0757
vn -0.2420 -0.8942 -0.3766
vn 0.1621 -0.0222 0.9865
vn -0.4335 -0.8757 0.2128
vn -0.2681 0.9630 -0.0273
vn -0.3670 -0.9166 0.1584
vn -0.1044 -0.9944 -0.0132
vn -0.3096 0.9298 -0.1990
vn -0.4269 -0.9040 0.0223
vn -0.1432 -0.9869 -0.0744
vn -0.2708 0.9622 -0.0291
vn 0.2166 -0.2133 0.9527
vn -0.2586 -0.9576 0.1267
vn -0.0011 -0.9974 0.0724
vn -0.0227 0.9413 -0.3368
vn -0.2803 0.9573 -0.0704
vn -0.3538 -0.9243 0.1433
vn -0.1231 -0.9857 0.1155
vn 0.0111 -0.9961 -0.0875
vn -0.0328 0.1742 -0.9842
vn -0.2602 0.9637 0.0593
vn -0.1625 -0.9776 0.1334
vn -0.3018 -0.8929 -0.3342
vn -0.0662 -0.9714 -0.2281
vn 0.0272 0.9949 -0.0971
vn -0.5811 -0.1922 -0.7908
vn -0.0477 0.9790 -0.1980
vn 0.0579 -0.0369 0.9976
vn -0.1626 0.9721 -0.1690
vn -0.1168 0.9931 -0.0044
vn -0.2336 0.7929 0.5627
vn -0.0661 0.1552 -0.9857
vn -0.1735 0.9846 0.0211
vn -0.2022 0.9661 0.1607
vn -0.1662 0.9861 -0.0020
vn -0.0084 -0.9973 -0.0724
vn -0.2260 -0.9738 0.0236
vn -0.1725 0.9768 0.1271
vn -0.1784 0.9839 0.0074
vn -0.0883 0.3706 -0.9246
vn -0.1596 0.9860 -0.0486
vn -0.0650 -0.9910 0.1170
vn -0.2147 0.9740 -0.0726
vn 0.1251 0.9745 -0.1863
vn -0.0966 -0.9472 -0.3058
vn -0.1652 0.9863 -0.0032
vn -0.0739 0.9947 -0.0713
vn -0.1693 0.9815 0.0888
vn 0.0239 0.9990 -0.0383
vn -0.1316 0.9905 -0.0386
vn -0.1106 -0.9903 0.0839
vn 0.5173 0.0257 0.8554
vn -0.1040 0.9887 -0.1085
vn -0.1392 0.9827 0.1218
vn 0.0241 -0.9996 0.0153
vn -0.3170 -0.9449 0.0814
vn -0.1486 -0.9885 0.0270
vn 0.3025 -0.0702 0.9506
vn -0.2455 0.9605 -0.1307
vn -0.1637 0.8375 0.5214
vn -0.2045 0.9721 0.1149
vn 0.1127 -0.6161 0.7796
vn -0.3456 0.1475 -0.9267
vn 0.0462 -0.9930 -0.1090
vn -0.3292 -0.7594 -0.5611
vn -0.1078 0.9924 0.0598
vn -0.0885 0.9959 -0.0178
vn -0.1140 0.9927 0.0396
vn -0.1928 -0.9784 0.0738
vn -0.0158 -0.9998 0.0158
vn 0.1139 0.7843 -0.6099
vn -0.1542 0.9850 -0.0773
vn 0.0329 -0.9889 -0.1447
vn -0.0706 0.9943 -0.0804
vn 0.0386 0.9842 0.1729
vn -0.1422 0.9881 0.0582
vn 0.0706 0.9962 -0.0511
vn 0.0591 0.9902 -0.1263
vn 0.0672 -0.1080 0.9919
vn 0.0251 0.9492 0.3138
vn 0.0558 0.9979 0.0315
vn -0.0650 0.1701 0.9833
vn 0.0027 -0.0144 0.9999
vn 0.0239 -0.9997 -0.0036
vn -0.1158 -0.9907 0.0708
vn 0.0425 0.2098 -0.9768
vn 0.0904 0.9811 0.1710
vn -0.2979 0.9462 -0.1260
vn 0.0304 -0.9333 -0.3578
vn 0.0114 0.9942 -0.1065
vn -0.0117 0.9989 0.0457
vn 0.0319 -0.0574 0.9978
vn 0.1072 0.2048 -0.9729
vn 0.1890 0.8410 -0.5070
vn 0.0189 0.9882 -0.1522
vn 0.0271 -0.9996 -0.0102
vn -0.1074 -0.9784 -0.1766
vn -0.0689 0.9976 -0.0015
vn 0.2301 0.2295 -0.9457
vn 0.4262 -0.6430 -0.6364
vn -0.0517 0.9969 -0.0589
vn 0.2604 0.3889 0.8837
vn 0.0214 -0.9993 0.0319
vn 0.0677 -0.5761 0.8146
vn 0.0195 -0.9918 -0.1264
vn -0.0374 0.9992 -0.0145
vn 0.0370 -0.9923 0.1185
vn 0.3974 0.3776 -0.8364
vn -0.0570 -0.9959 0.0696
vn 0.0601 -0.9889 -0.1359
vn 0.1017 0.9929 -0.0624
vn 0.1368 0.9826 -0.1259
vn -0.0201 -0.9901 0.1386
vn -0.0098 0.9930 0.1174
vn 0.3781 0.7651 0.5212
vn -0.1659 0.9620 -0.2168
vn 0.1036 -0.9938 0.0391
vn 0.1423 0.2892 -0.9466
vn 0.0019 -0.9910 0.1339
vn 0.1450 0.8610 -0.4876
vn 0.2042 0.6079 0.7673
vn 0.3644 -0.6046 -0.7083
vn -0.1519 -0.9829 0.1044
vn -0.0669 -0.9942 0.0843
vn 0.1375 0.9903 -0.0205
vn 0.0655 -0.9976 -0.0241
vn 0.0008 -0.2017 0.9795
vn 0.0893 -0.0591 0.9943
vn -0.0823 0.9966 -0.0022
vn 0.1380 -0.9826 -0.1247
vn -0.0604 -0.9935 0.0962
vn -0.0578 0.9948 -0.0838
vn 0.2485 -0.9396 0.2352
vn 0.0489 0.9597 -0.2768
vn -0.1443 0.9853 -0.0912
vn 0.0226 -0.9889 0.1466
vn -0.0498 -0.9916 -0.1192
vn -0.1261 0.9895 0.0712
vn 0.1855 -0.9821 0.0337
vn 0.0824 0.9964 0.0206
vn 0.1789 0.9538 0.2413
vn 0.0085 0.9961 -0.0873
vn 0.3012 0.9494 -0.0890
vn 0.0783 0.1969 -0.9773
vn 0.2800 -0.9522 0.1224
vn 0.1359 0.9879 -0.0745
vn 0.2446 -0.9683 0.0501
vn 0.0334 0.9983 0.0479
vn -0.0197 -0.9917 0.1273
vn 0.0935 0.9946 -0.0445
vn 0.0428 0.9976 0.0539
vn 0.2802 -0.8722 0.4010
vn 0.1451 -0.9887 0.0389
vn 0.2820 0.9579 0.0544
vn 0.1836 0.9830 -0.0046
vn 0.1092 -0.9938 -0.0219
vn 0.2450 -0.9637 -0.1058
vn 0.0916 0.9953 -0.0324
vn 0.4294 -0.8994 0.0818
vn 0.4264 -0.7205 -0.5468
vn 0.1325 0.9883 -0.0757
vn 0.2031 0.9783 -0.0403
vn 0.1517 0.9783 -0.1410
vn 0.0341 0.4907 -0.8706
vn 0.4221 -0.9047 0.0577
vn 0.2688 -0.9607 -0.0693
vn 0.0722 0.1715 -0.9825
vn 0.2893 -0.9572 -0.0054
vn 0.2115 -0.9481 -0.2374
vn 0.5225 -0.8526 0.0055
vn 0.0903 -0.9935 -0.0690
vn -0.0399 0.9954 0.0876
vn 0.2318 0.9626 0.1403
vn -0.0179 0.9996 0.0211
vn 0.4139 -0.8990 0.1432
vn 0.1020 0.9898 0.0997
vn 0.1929 0.9750 -0.1101
vn 0.1918 0.9757 -0.1056
vn 0.1341 0.9882 -0.0734
vn 0.2730 -0.9543 -0.1220
vn 0.3113 -0.9140 -0.2602
vn 0.0905 -0.0333 0.9953
vn 0.2347 -0.1342 0.9628
vn 0.2619 0.9642 0.0414
vn 0.5609 -0.8244 0.0763
vn 0.5527 -0.8319 -0.0497
vn 0.3346 0.9336 -0.1282
vn 0.2766 0.9533 -0.1215
vn 0.0824 0.9928 0.0865
vn 0.4904 0.8715 -0.0061
vn 0.4592 -0.8802 0.1204
vn 0.3562 0.9037 0.2377
vn 0.4581 0.8830 -0.1025
vn 0.1891 0.9756 0.1119
vn 0.5654 -0.8218 -0.0703
vn 0.4144 0.9072 -0.0724
vn 0.2960 0.9300 -0.2177
vn 0.6846 -0.7288 -0.0166
vn 0.1500 -0.9886 -0.0142
vn 0.1391 0.0415 0.9894
vn 0.4658 0.8829 -0.0598
vn 0.4918 -0.7315 0.4723
vn 0.4956 -0.5701 -0.6553
vn 0.5681 -0.8159 0.1077
vn 0.1661 0.9846 -0.0541
vn 0.2295 0.2552 -0.9392
vn 0.4364 0.8993 0.0284
vn 0.3585 -0.9252 -0.1244
vn 0.4344 0.8929 -0.1186
vn 0.3690 0.9267 -0.0714
vn 0.5997 -0.7996 0.0310
vn 0.5554 -0.8302 -0.0482
vn 0.2375 0.9621 0.1339
vn 0.6045 -0.7959 0.0332
vn 0.3219 -0.9417 0.0983
vn 0.5325 -0.8464 0.0072
vn 0.2449 0.0902 0.9654
vn 0.1684 0.3866 -0.9068
vn 0.5126 0.8299 -0.2205
vn 0.4757 -0.8284 -0.2959
vn 0.6489 0.7600 0.0353
vn 0.3047 -0.9521 0.0268
vn 0.4509 -0.0888 0.8881
vn 0.5977 0.7978 -0.0796
vn 0.5274 -0.8470 0.0671
vn 0.5024 0.8544 0.1329
vn 0.4813 0.8685 -0.1182
vn 0.5613 0.8272 0.0285
vn 0.2926 0.9546 0.0555
vn 0.4702 0.8678 -0.1605
vn 0.6350 0.7711 -0.0465
vn 0.5366 0.8435 0.0254
vn 0.1161 0.1951 -0.9739
vn 0.7095 -0.7038 -0.0371
vn 0.6220 0.7819 -0.0410
vn 0.5920 -0.7969 0.1203
vn 0.1041 -0.1777 0.9786
vn 0.3925 0.9171 0.0697
vn 0.5549 0.8318 0.0092
vn 0.5519 -0.5105 -0.6594
vn 0.6245 -0.7800 0.0391
vn 0.5144 -0.8545 -0.0728
vn 0.7492 -0.6538 0.1064
vn 0.7012 -0.7106 0.0579
vn 0.6045 -0.7821 0.1515
vn 0.5201 0.8300 0.2018
vn 0.5682 0.8134 -0.1247
vn 0.2597 0.0006 0.9657
vn 0.6284 -0.6706 -0.3942
vn 0.4246 -0.1530 -0.8924
vn 0.6310 0.7737 0.0564
vn 0.5787 0.7144 -0.3933
vn 0.7275 -0.6810 0.0833
vn 0.7242 -0.6886 0.0373
vn 0.6490 -0.7549 0.0949
vn 0.6323 -0.7540 -0.1780
vn 0.3647 0.2980 -0.8821
vn 0.7541 0.6566 0.0149
vn 0.6619 -0.4011 0.6332
vn 0.6058 -0.7947 0.0377
vn 0.1243 0.2232 -0.9668
vn 0.7317 0.5780 0.3612
vn 0.6344 0.7697 0.0710
vn -0.1406 -0.3898 -0.9101
vn 0.6927 -0.7204 -0.0347
vn 0.6453 -0.7637 0.0203
vn 0.6294 0.7568 -0.1765
vn 0.7805 0.5436 -0.3088
vn 0.7272 0.6847 0.0486
vn 0.6929 0.7203 -0.0346
vn 0.6410 -0.7675 0.0100
vn 0.4824 0.0972 0.8705
vn 0.3751 0.1539 -0.9141
vn 0.8379 -0.5355 0.1058
vn 0.6650 0.7390 -0.1083
vn 0.2078 0.0492 0.9769
vn 0.1354 0.1067 0.9850
vn 0.4998 -0.1610 0.8511
vn 0.8526 -0.1447 -0.5021
vn 0.6430 0.7625 0.0712
vn 0.5564 0.2741 -0.7844
vn 0.8315 -0.5387 0.1356
vn 0.2783 -0.4259 -0.8609
vn 0.8490 0.5260 0.0506
vn 0.7454 0.6656 0.0356
vn 0.6914 -0.7113 0.1267
vn 0.7706 0.6297 -0.0980
vn 0.7861 -0.5427 -0.2960
vn 0.8193 0.1310 -0.5582
vn 0.9013 -0.4175 0.1156
vn 0.8122 -0.5797 0.0647
vn 0.6483 -0.7614 0.0010
vn 0.7489 0.6627 -0.0000
vn 0.6737 -0.7329 -0.0947
vn 0.9585 -0.2388 0.1559
vn 0.7154 -0.6963 0.0583
vn 0.6038 0.7952 -0.0557
vn 0.7410 -0.6613 0.1165
vn 0.8370 0.5201 0.1703
vn 0.9197 0.0559 -0.3885
vn 0.6844 -0.3766 0.6243
vn 0.8727 -0.3206 -0.3683
vn 0.8481 -0.5079 0.1507
vn 0.7563 -0.6496 0.0774
vn 0.7431 0.4652 0.4810
vn 0.8955 -0.4247 0.1334
vn 0.7606 0.6489 0.0182
vn 0.9565 -0.2653 0.1213
vn 0.8949 -0.1376 0.4244
vn 0.7402 0.6618 -0.1190
vn 0.7451 -0.6586 0.1054
vn 0.9413 0.1910 -0.2784
vn 0.7909 -0.6106 -0.0409
vn 0.9304 0.3509 -0.1057
vn 0.8204 -0.5709 0.0323
vn 0.8220 -0.5680 0.0403
vn 0.7422 0.3503 0.5713
vn 0.8153 0.0194 0.5787
vn 0.8293 -0.5414 0.1386
vn 0.8135 -0.5742 0.0928
vn 0.9305 0.3500 0.1077
vn 0.4221 0.0757 0.9034
vn 0.8795 -0.3717 -0.2972
vn 0.8441 -0.0853 0.5294
vn 0.9713 -0.2346 0.0394
vn 0.9641 -0.2310 0.1307
vn 0.9481 -0.0388 -0.3156
vn 0.8800 0.4742 -0.0257
vn 0.7567 -0.6520 -0.0486
vn 0.7442 -0.6504 -0.1522
vn 0.8731 0.4722 0.1213
vn 0.9250 -0.3514 0.1443
vn 0.8322 0.5545 0.0017
vn 0.7225 -0.6906 -0.0340
vn 0.9682 -0.1415 -0.2065
vn 0.7754 -0.6273 0.0723
vn 0.9912 0.1310 0.0213
vn 0.9945 0.0010 -0.1046
vn 0.8143 0.5749 -0.0803
vn 0.9306 -0.3660 0.0068
vn 0.9991 -0.0384 0.0195
vn 0.8992 -0.4343 0.0530
vn 0.9437 0.3172 0.0939
vn 0.9654 -0.2280 0.1263
vn 0.9874 -0.1412 0.0717
vn 0.8739 0.4844 0.0414
vn 0.9966 0.0697 -0.0449
vn 0.9940 0.0388 0.1019
vn 0.8704 -0.4827 0.0970
vn 0.9684 -0.2490 0.0174
vn 0.8467 0.5286 -0.0615
vn 0.9761 -0.1834 0.1166
vn 0.8926 -0.4334 0.1241
vn 0.9843 0.1764 0.0032
vn 0.7943 -0.5978 -0.1082
vn 0.9848 -0.1319 0.1132
vn 0.9863 -0.1605 -0.0388
vn 0.9654 0.2221 0.1368
vn 0.9854 0.1684 0.0240
vn 0.9845 -0.1397 0.1062
vn 0.9459 0.3221 -0.0390
vn 0.9998 -0.0077 0.0170
vn 0.9978 -0.0665 -0.0009
vn 0.9785 0.1721 -0.1133
vn 0.9106 0.3806 -0.1610
vn 0.9576 -0.2838 0.0505
vn 0.9920 0.1101 0.0615
vn 0.9036 -0.4146 0.1079
vn 0.8406 -0.5254 -0.1317
vn 0.8840 0.4648 0.0511
vn 0.8367 0.5454 0.0498
vn 0.9904 -0.1081 0.0866
vn 0.9778 -0.2072 0.0323
vn 0.8372 -0.5339 0.1186
vn 0.9944 0.0040 0.1058
vn 0.9709 0.2229 0.0873
vn 0.9720 0.2322 -0.0353
vn 0.8126 -0.4999 -0.2996
vn 0.9831 -0.1818 -0.0240
vn 0.9878 0.1445 -0.0580
vn 0.9098 -0.4138 -0.0323
vn 0.9970 0.0760 0.0158
vn 0.9077 -0.4035 0.1151
vn 0.9483 -0.2901 0.1283
vn 0.8479 -0.5291 0.0338
vn 0.9707 0.2358 0.0469
vn 0.9637 0.2568 -0.0732
vn 0.9634 -0.2456 0.1074
vn 0.9920 0.1038 0.0722
vn 0.9484 -0.2895 0.1292
vn 0.9937 -0.0752 0.0828
vn 0.9557 0.2942 -0.0019
vn 0.9647 0.0773 -0.2516
vn 0.9994 -0.0167 0.0306
vn 0.8987 -0.4316 -0.0780
vn 0.9952 -0.0619 0.0762
vn 0.9936 -0.1047 0.0424
vn 0.9793 0.1807 -0.0913
vn 0.9744 -0.2056 -0.0905
vn 0.9846 0.1745 0.0051
vn 0.9497 -0.1151 -0.2913
vn 0.9954 0.0557 0.0780
vn 0.9821 0.1719 -0.0775
vn 0.9926 0.1208 0.0152
vn 0.9541 -0.2960 0.0454
vn 0.9455 -0.3121 -0.0932
vn 0.9527 -0.2686 0.1418
vn 0.9452 -0.3131 0.0924
vn 0.9834 -0.1417 0.1130
vn 0.9873 -0.1256 0.0978
vn 0.9586 -0.2802 0.0515
vn 0.9525 -0.2768 0.1272
vn 0.9999 0.0111 -0.0051
vn 0.9908 -0.0599 -0.1211
vn 0.9963 -0.0465 -0.0717
vn 0.9928 0.0980 -0.0693
vn 0.9955 0.0843 0.0433
vn 0.9989 -0.0390 0.0248
vn 0.9708 -0.2390 -0.0197
f 31//31 5//5 13//13
f 28//28 9//9 53//53
f 9//9 31//31 53//53
f 9//9 5//5 31//31
f 100//100 58//58 137//137
f 271//271 100//100 254//254
f 258//258 269//269 253//253
f 190//190 137//137 28//28
f 254//254 100//100 137//137
f 63//63 14//14 61//61
f 168//168 13//13 63//63
f 137//137 190//190 270//270
f 190//190 75//75 201//201
f 328//328 280//280 340//340
f 270//270 230//230 280//280
f 201//201 207//207 284//284
f 280//280 284//284 340//340
f 275//275 180//180 286//286
f 256//256 180//180 275//275
f 140//140 256//256 233//233
f 335//335 254//254 270//270
f 180//180 55//55 188//188
f 55//55 180//180 256//256
f 188//188 55//55 72//72
f 170//170 144//144 172//172
f 286//286 180//180 295//295
f 295//295 180//180 188//188
f 188//188 195//195 295//295
f 205//205 191//191 283//283
f 95//95 205//205 153//153
f 174//174 153//153 170//170
f 174//174 170//170 110//110
f 341//341 295//295 336//336
f 144//144 153//153 195//195
f 78//78 50//50 114//114
f 185//185 200//200 265//265
f 206//206 200//200 133//133
f 97//97 95//95 174//174
f 99//99 30//30 174//174
f 158//158 93//93 122//122
f 346//346 283//283 265//265
f 330//330 265//265 321//321
f 272//272 200//200 206//206
f 51//51 132//132 134//134
f 86//86 266//266 147//147
f 147//147 206//206 51//51
f 78//78 132//132 122//122
f 132//132 78//78 134//134
f 265//265 272//272 321//321
f 321//321 266//266 339//339
f 133//133 122//122 132//132
f 122//122 93//93 50//50
f 265//265 191//191 185//185
f 158//158 121//121 97//97
f 275//275 286//286 325//325
f 182//182 192//192 183//183
f 112//112 182//182 128//128
f 128//128 183//183 143//143
f 128//128 182//182 183//183
f 177//177 178//178 227//227
f 143//143 178//178 177//177
f 143//143 177//177 159//159
f 224//224 248//248 112//112
f 192//192 209//209 287//287
f 248//248 276//276 304//304
f 287//287 249//249 322//322
f 249//249 248//248 304//304
f 209//209 112//112 248//248
f 112//112 209//209 182//182
f 262//262 227//227 326//326
f 326//326 287//287 322//322
f 182//182 209//209 192//192
f 250//250 262//262 281//281
f 237//237 215//215 279//279
f 279//279 250//250 281//281
f 262//262 326//326 309//309
f 309//309 326//326 343//343
f 445//445 371//371 437//437
f 343//343 279//279 281//281
f 3//3 68//68 84//84
f 4//4 1//1 7//7
f 4//4 6//6 1//1
f 102//102 128//128 139//139
f 139//139 128//128 143//143
f 139//139 207//207 102//102
f 136//136 139//139 141//141
f 23//23 65//65 105//105
f 143//143 159//159 65//65
f 143//143 62//62 46//46
f 136//136 6//6 156//156
f 207//207 139//139 194//194
f 207//207 194//194 203//203
f 156//156 6//6 194//194
f 245//245 105//105 221//221
f 279//279 221//221 237//237
f 68//68 105//105 245//245
f 313//313 68//68 245//245
f 313//313 245//245 268//268
f 268//268 245//245 221//221
f 343//343 350//350 279//279
f 350//350 371//371 393//393
f 421//421 393//393 445//445
f 68//68 226//226 84//84
f 294//294 313//313 366//366
f 432//432 519//519 547//547
f 215//215 237//237 221//221
f 393//393 371//371 445//445
f 105//105 68//68 23//23
f 4//4 17//17 24//24
f 4//4 41//41 17//17
f 22//22 42//42 94//94
f 29//29 2//2 11//11
f 29//29 11//11 208//208
f 189//189 194//194 110//110
f 189//189 110//110 172//172
f 66//66 42//42 110//110
f 66//66 27//27 42//42
f 99//99 2//2 30//30
f 130//130 135//135 208//208
f 172//172 110//110 170//170
f 297//297 273//273 314//314
f 273//273 333//333 358//358
f 333//333 366//366 405//405
f 451//451 405//405 432//432
f 297//297 314//314 315//315
f 8//8 2//2 29//29
f 164//164 38//38 52//52
f 38//38 164//164 74//74
f 80//80 50//50 162//162
f 162//162 108//108 119//119
f 50//50 93//93 38//38
f 242//242 208//208 291//291
f 357//357 242//242 352//352
f 301//301 164//164 232//232
f 264//264 217//217 301//301
f 232//232 357//357 301//301
f 355//355 357//357 390//390
f 334//334 291//291 290//290
f 291//291 334//334 352//352
f 403//403 444//444 362//362
f 444//444 403//403 501//501
f 433//433 362//362 444//444
f 479//479 433//433 504//504
f 331//331 318//318 324//324
f 331//331 324//324 363//363
f 254//254 335//335 324//324
f 324//324 335//335 397//397
f 460//460 392//392 397//397
f 425//425 397//397 378//378
f 328//328 340//340 415//415
f 378//378 328//328 415//415
f 401//401 353//353 414//414
f 494//494 459//459 553//553
f 506//506 459//459 510//510
f 553//553 506//506 510//510
f 425//425 378//378 415//415
f 599//599 587//587 577//577
f 386//386 325//325 338//338
f 338//338 402//402 386//386
f 502//502 462//462 488//488
f 577//577 502//502 586//586
f 488//488 402//402 383//383
f 383//383 336//336 381//381
f 383//383 381//381 477//477
f 577//577 586//586 599//599
f 576//576 611//611 586//586
f 424//424 381//381 398//398
f 477//477 381//381 424//424
f 491//491 477//477 557//557
f 424//424 446//446 522//522
f 572//572 618//618 557//557
f 446//446 398//398 387//387
f 396//396 387//387 339//339
f 558//558 522//522 569//569
f 569//569 522//522 542//542
f 558//558 569//569 572//572
f 618//618 569//569 641//641
f 569//569 618//618 572//572
f 681//681 633//633 618//618
f 611//611 576//576 633//633
f 414//414 325//325 386//386
f 322//322 304//304 434//434
f 434//434 304//304 380//380
f 442//442 456//456 466//466
f 460//460 419//419 392//392
f 511//511 442//442 460//460
f 468//468 442//442 511//511
f 442//442 419//419 460//460
f 492//492 554//554 566//566
f 536//536 535//535 511//511
f 535//535 512//512 511//511
f 368//368 434//434 492//492
f 448//448 437//437 413//413
f 551//551 508//508 515//515
f 437//437 470//470 517//517
f 609//609 605//605 627//627
f 609//609 581//581 605//605
f 598//598 627//627 650//650
f 588//588 515//515 598//598
f 598//598 609//609 627//627
f 567//567 566//566 554//554
f 621//621 581//581 612//612
f 648//648 631//631 629//629
f 631//631 612//612 629//629
f 637//637 605//605 621//621
f 627//627 637//637 675//675
f 627//627 605//605 637//637
f 421//421 445//445 517//517
f 597//597 568//568 508//508
f 636//636 598//598 650//650
f 636//636 671//671 678//678
f 678//678 604//604 636//636
f 644//644 590//590 678//678
f 604//604 597//597 636//636
f 595//595 578//578 536//536
f 713//713 616//616 658//658
f 660//660 713//713 741//741
f 655//655 595//595 587//587
f 658//658 595//595 655//655
f 764//764 741//741 713//713
f 740//740 764//764 746//746
f 740//740 713//713 655//655
f 675//675 671//671 650//650
f 675//675 660//660 741//741
f 766//766 762//762 764//764
f 726//726 678//678 671//671
f 517//517 445//445 437//437
f 570//570 547//547 608//608
f 432//432 547//547 474//474
f 570//570 474//474 547//547
f 474//474 570//570 451//451
f 733//733 644//644 678//678
f 644//644 659//659 608//608
f 501//501 451//451 563//563
f 539//539 501//501 563//563
f 593//593 584//584 539//539
f 646//646 593//593 603//603
f 634//634 593//593 646//646
f 608//608 603//603 570//570
f 734//734 655//655 719//719
f 765//765 740//740 734//734
f 737//737 719//719 718//718
f 694//694 715//715 718//718
f 719//719 633//633 718//718
f 750//750 737//737 744//744
f 738//738 757//757 744//744
f 719//719 655//655 633//633
f 765//765 734//734 750//750
f 715//715 744//744 737//737
f 767//767 762//762 766//766
f 766//766 759//759 767//767
f 757//757 722//722 760//760
f 756//756 722//722 733//733
f 690//690 701//701 744//744
f 722//722 757//757 732//732
f 677//677 684//684 729//729
f 729//729 684//684 727//727
f 729//729 747//747 677//677
f 613//613 684//684 677//677
f 543//543 501//501 539//539
f 584//584 543//543 539//539
f 543//543 529//529 501//501
f 504//504 528//528 543//543
f 584//584 634//634 592//592
f 714//714 684//684 690//690
f 613//613 592//592 684//684
f 684//684 592//592 634//634
f 582//582 533//533 546//546
f 747//747 727//727 730//730
f 729//729 727//727 747//747
f 761//761 751//751 752//752
f 728//728 702//702 709//709
f 751//751 747//747 728//728
f 747//747 763//763 753//753
f 634//634 646//646 690//690
f 732//732 701//701 722//722
f 766//766 764//764 765//765
f 35//35 106//106 48//48
f 87//87 106//106 35//35
f 26//26 39//39 109//109
f 87//87 43//43 169//169
f 109//109 19//19 26//26
f 16//16 56//56 187//187
f 12//12 37//37 43//43
f 145//145 169//169 43//43
f 173//173 213//213 247//247
f 223//223 222//222 292//292
f 173//173 34//34 231//231
f 251//251 175//175 115//115
f 312//312 251//251 238//238
f 214//214 175//175 251//251
f 214//214 251//251 257//257
f 316//316 231//231 257//257
f 257//257 251//251 312//312
f 34//34 89//89 33//33
f 34//34 33//33 45//45
f 247//247 89//89 173//173
f 161//161 114//114 106//106
f 247//247 339//339 266//266
f 339//339 292//292 416//416
f 416//416 292//292 389//389
f 145//145 116//116 169//169
f 138//138 150//150 145//145
f 150//150 116//116 145//145
f 45//45 169//169 116//116
f 113//113 167//167 104//104
f 81//81 120//120 107//107
f 120//120 37//37 73//73
f 49//49 187//187 285//285
f 64//64 25//25 76//76
f 166//166 49//49 285//285
f 166//166 25//25 49//49
f 179//179 76//76 243//243
f 311//311 243//243 166//166
f 115//115 96//96 219//219
f 115//115 219//219 238//238
f 115//115 44//44 96//96
f 239//239 96//96 127//127
f 219//219 96//96 239//239
f 312//312 303//303 391//391
f 303//303 359//359 394//394
f 54//54 104//104 127//127
f 127//127 104//104 167//167
f 219//219 239//239 302//302
f 167//167 113//113 152//152
f 127//127 167//167 244//244
f 356//356 375//375 422//422
f 375//375 356//356 349//349
f 303//303 302//302 359//359
f 16//16 187//187 21//21
f 16//16 15//15 37//37
f 176//176 113//113 91//91
f 91//91 83//83 60//60
f 60//60 82//82 157//157
f 255//255 179//179 310//310
f 202//202 67//67 196//196
f 323//323 202//202 255//255
f 196//196 255//255 202//202
f 83//83 67//67 103//103
f 83//83 91//91 124//124
f 85//85 198//198 148//148
f 202//202 323//323 241//241
f 241//241 198//198 103//103
f 198//198 241//241 282//282
f 241//241 317//317 282//282
f 260//260 235//235 176//176
f 298//298 299//299 342//342
f 299//299 235//235 260//260
f 152//152 176//176 235//235
f 375//375 349//349 395//395
f 345//345 298//298 342//342
f 260//260 157//157 240//240
f 348//348 299//299 307//307
f 240//240 278//278 307//307
f 260//260 240//240 307//307
f 176//176 157//157 260//260
f 342//342 299//299 348//348
f 435//435 409//409 382//382
f 218//218 211//211 186//186
f 184//184 82//82 296//296
f 234//234 296//296 82//82
f 82//82 71//71 234//234
f 79//79 204//204 171//171
f 154//154 142//142 234//234
f 212//212 142//142 131//131
f 204//204 288//288 267//267
f 236//236 225//225 246//246
f 296//296 234//234 212//212
f 246//246 296//296 236//236
f 282//282 361//361 319//319
f 252//252 319//319 288//288
f 204//204 252//252 288//288
f 186//186 211//211 240//240
f 348//348 307//307 259//259
f 296//296 218//218 184//184
f 211//211 218//218 296//296
f 440//440 379//379 348//348
f 382//382 408//408 423//423
f 440//440 430//430 408//408
f 476//476 440//440 211//211
f 376//376 476//476 211//211
f 319//319 370//370 360//360
f 319//319 361//361 370//370
f 427//427 351//351 406//406
f 452//452 427//427 410//410
f 427//427 406//406 410//410
f 406//406 351//351 360//360
f 475//475 427//427 452//452
f 329//329 319//319 360//360
f 148//148 79//79 60//60
f 244//244 235//235 298//298
f 151//151 80//80 220//220
f 151//151 39//39 48//48
f 220//220 80//80 162//162
f 151//151 220//220 277//277
f 109//109 216//216 199//199
f 187//187 56//56 289//289
f 337//337 264//264 301//301
f 305//305 264//264 337//337
f 418//418 337//337 355//355
f 220//220 305//305 277//277
f 59//59 58//58 61//61
f 58//58 100//100 61//61
f 458//458 461//461 516//516
f 418//418 461//461 458//458
f 347//347 384//384 354//354
f 478//478 384//384 458//458
f 478//478 458//458 516//516
f 417//417 384//384 478//478
f 478//478 516//516 534//534
f 518//518 478//478 534//534
f 418//418 484//484 461//461
f 320//320 404//404 285//285
f 285//285 289//289 320//320
f 354//354 320//320 289//289
f 404//404 354//354 417//417
f 465//465 478//478 518//518
f 417//417 472//472 404//404
f 472//472 417//417 465//465
f 472//472 465//465 518//518
f 385//385 285//285 404//404
f 332//332 311//311 372//372
f 311//311 385//385 372//372
f 385//385 404//404 472//472
f 310//310 311//311 332//332
f 323//323 332//332 399//399
f 412//412 332//332 372//372
f 412//412 372//372 453//453
f 365//365 323//323 399//399
f 455//455 399//399 412//412
f 487//487 455//455 412//412
f 361//361 365//365 399//399
f 559//559 552//552 513//513
f 513//513 487//487 559//559
f 559//559 505//505 560//560
f 370//370 361//361 455//455
f 493//493 481//481 455//455
f 475//475 481//481 500//500
f 552//552 500//500 481//481
f 550//550 500//500 552//552
f 552//552 493//493 513//513
f 323//323 310//310 332//332
f 483//483 538//538 526//526
f 449//449 436//436 482//482
f 569//569 580//580 641//641
f 580//580 623//623 641//641
f 580//580 575//575 623//623
f 482//482 483//483 545//545
f 645//645 623//623 575//575
f 545//545 525//525 482//482
f 735//735 725//725 687//687
f 699//699 623//623 645//645
f 735//735 687//687 699//699
f 748//748 735//735 699//699
f 699//699 687//687 623//623
f 454//454 391//391 394//394
f 443//443 422//422 375//375
f 454//454 422//422 490//490
f 496//496 454//454 490//490
f 527//527 503//503 480//480
f 579//579 628//628 555//555
f 679//679 645//645 628//628
f 724//724 679//679 706//706
f 723//723 724//724 706//706
f 606//606 632//632 628//628
f 606//606 628//628 579//579
f 632//632 662//662 669//669
f 720//720 706//706 696//696
f 685//685 689//689 696//696
f 724//724 748//748 699//699
f 499//499 483//483 486//486
f 483//483 482//482 464//464
f 555//555 628//628 538//538
f 480//480 443//443 438//438
f 480//480 438//438 498//498
f 583//583 579//579 544//544
f 583//583 544//544 532//532
f 429//429 409//409 435//435
f 521//521 429//429 435//435
f 583//583 574//574 617//617
f 540//540 574//574 521//521
f 695//695 662//662 712//712
f 710//710 686//686 689//689
f 654//654 656//656 630//630
f 711//711 707//707 704//704
f 656//656 693//693 704//704
f 654//654 674//674 656//656
f 656//656 674//674 693//693
f 674//674 710//710 693//693
f 693//693 695//695 711//711
f 469//469 450//450 440//440
f 489//489 423//423 463//463
f 435//435 423//423 489//489
f 489//489 469//469 540//540
f 540//540 548//548 571//571
f 610//610 594//594 571//571
f 653//653 647//647 620//620
f 620//620 571//571 596//596
f 596//596 476//476 565//565
f 565//565 476//476 530//530
f 657//657 625//625 624//624
f 626//626 530//530 607//607
f 591//591 607//607 585//585
f 607//607 622//622 638//638
f 638//638 626//626 607//607
f 691//691 647//647 653//653
f 691//691 653//653 665//665
f 665//665 596//596 670//670
f 670//670 596//596 625//625
f 666//666 625//625 657//657
f 670//670 704//704 665//665
f 704//704 657//657 643//643
f 607//607 530//530 585//585
f 657//657 704//704 666//666
f 573//573 516//516 523//523
f 614//614 573//573 589//589
f 736//736 716//716 664//664
f 534//534 516//516 573//573
f 614//614 534//534 573//573
f 619//619 534//534 614//614
f 721//721 742//742 745//745
f 700//700 698//698 745//745
f 716//716 721//721 664//664
f 664//664 721//721 688//688
f 661//661 619//619 614//614
f 663//663 661//661 698//698
f 573//573 523//523 589//589
f 752//752 709//709 725//725
f 742//742 752//752 725//725
f 758//758 753//753 752//752
f 752//752 753//753 761//761
f 745//745 742//742 735//735
f 518//518 619//619 562//562
f 602//602 619//619 639//639
f 700//700 745//745 708//708
f 651//651 639//639 619//619
f 673//673 651//651 680//680
f 651//651 673//673 639//639
f 739//739 720//720 708//708
f 673//673 700//700 708//708
f 700//700 651//651 663//663
f 651//651 619//619 663//663
f 562//562 564//564 507//507
f 564//564 562//562 642//642
f 642//642 562//562 602//602
f 642//642 639//639 673//673
f 705//705 683//683 686//686
f 673//673 686//686 683//683
f 642//642 673//673 683//683
f 720//720 673//673 708//708
f 698//698 700//700 663//663
f 619//619 518//518 534//534
f 742//742 736//736 752//752
f 640//640 559//559 560//560
f 697//697 705//705 692//692
f 652//652 640//640 705//705
f 697//697 692//692 652//652
f 652//652 692//692 667//667
f 667//667 630//630 601//601
f 667//667 692//692 674//674
f 591//591 552//552 601//601
f 622//622 591//591 601//601
f 89//89 18//18 33//33
f 161//161 51//51 134//134
f 561//561 520//520 537//537
f 270//270 328//328 335//335
f 341//341 336//336 383//383
f 438//438 395//395 429//429
f 533//533 479//479 504//504
f 269//269 304//304 276//276
f 14//14 5//5 40//40
f 40//40 61//61 14//14
f 13//13 20//20 63//63
f 20//20 14//14 63//63
f 137//137 9//9 28//28
f 28//28 53//53 112//112
f 9//9 137//137 40//40
f 61//61 58//58 59//59
f 61//61 168//168 63//63
f 40//40 137//137 59//59
f 40//40 58//58 61//61
f 168//168 258//258 224//224
f 269//269 258//258 168//168
f 61//61 100//100 168//168
f 269//269 261//261 253//253
f 318//318 304//304 269//269
f 276//276 263//263 274//274
f 258//258 263//263 261//261
f 261//261 263//263 253//253
f 271//271 318//318 269//269
f 276//276 274//274 269//269
f 137//137 270//270 254//254
f 271//271 269//269 168//168
f 13//13 168//168 31//31
f 190//190 201//201 230//230
f 270//270 280//280 328//328
f 201//201 102//102 207//207
f 201//201 284//284 280//280
f 190//190 230//230 270//270
f 280//280 230//230 201//201
f 55//55 256//256 140//140
f 140//140 203//203 189//189
f 207//207 203//203 233//233
f 256//256 207//207 233//233
f 284//284 325//325 340//340
f 284//284 275//275 325//325
f 284//284 256//256 275//275
f 203//203 140//140 233//233
f 190//190 28//28 75//75
f 140//140 189//189 55//55
f 55//55 189//189 72//72
f 72//72 189//189 172//172
f 72//72 144//144 195//195
f 72//72 172//172 144//144
f 286//286 295//295 338//338
f 205//205 95//95 191//191
f 144//144 170//170 153//153
f 195//195 153//153 205//205
f 110//110 99//99 174//174
f 153//153 174//174 95//95
f 295//295 283//283 336//336
f 336//336 283//283 346//346
f 283//283 295//295 195//195
f 97//97 185//185 95//95
f 185//185 97//97 121//121
f 121//121 200//200 185//185
f 121//121 133//133 200//200
f 97//97 174//174 158//158
f 30//30 93//93 174//174
f 174//174 93//93 158//158
f 133//133 158//158 122//122
f 346//346 265//265 330//330
f 364//364 398//398 330//330
f 133//133 132//132 206//206
f 206//206 132//132 51//51
f 206//206 147//147 272//272
f 147//147 51//51 18//18
f 18//18 51//51 33//33
f 18//18 89//89 86//86
f 86//86 247//247 266//266
f 78//78 114//114 134//134
f 78//78 122//122 50//50
f 134//134 114//114 161//161
f 321//321 272//272 266//266
f 330//330 321//321 387//387
f 387//387 321//321 339//339
f 364//364 330//330 387//387
f 200//200 272//272 265//265
f 147//147 266//266 272//272
f 95//95 185//185 191//191
f 28//28 128//128 75//75
f 128//128 28//28 112//112
f 183//183 192//192 227//227
f 227//227 178//178 183//183
f 178//178 143//143 183//183
f 177//177 197//197 159//159
f 177//177 262//262 197//197
f 209//209 228//228 287//287
f 228//228 249//249 287//287
f 224//224 258//258 276//276
f 304//304 322//322 249//249
f 228//228 248//248 249//249
f 227//227 192//192 287//287
f 227//227 287//287 326//326
f 326//326 322//322 368//368
f 197//197 250//250 215//215
f 215//215 250//250 279//279
f 197//197 262//262 250//250
f 326//326 368//368 411//411
f 411//411 374//374 326//326
f 262//262 309//309 281//281
f 326//326 374//374 343//343
f 371//371 374//374 413//413
f 374//374 371//371 343//343
f 371//371 413//413 437//437
f 10//10 23//23 68//68
f 1//1 3//3 7//7
f 3//3 1//1 32//32
f 3//3 10//10 68//68
f 3//3 84//84 7//7
f 41//41 7//7 273//273
f 7//7 41//41 4//4
f 273//273 7//7 84//84
f 75//75 102//102 201//201
f 128//128 102//102 75//75
f 139//139 143//143 141//141
f 65//65 62//62 143//143
f 141//141 143//143 46//46
f 194//194 139//139 156//156
f 6//6 66//66 194//194
f 203//203 194//194 189//189
f 1//1 6//6 32//32
f 141//141 46//46 136//136
f 6//6 136//136 32//32
f 221//221 279//279 268//268
f 268//268 279//279 308//308
f 268//268 308//308 313//313
f 308//308 279//279 350//350
f 350//350 367//367 313//313
f 313//313 308//308 350//350
f 350//350 343//343 371//371
f 367//367 350//350 393//393
f 367//367 393//393 421//421
f 226//226 68//68 313//313
f 226//226 313//313 294//294
f 84//84 294//294 273//273
f 84//84 226//226 294//294
f 367//367 421//421 519//519
f 366//366 367//367 432//432
f 432//432 367//367 519//519
f 32//32 10//10 3//3
f 160//160 159//159 215//215
f 24//24 17//17 27//27
f 41//41 193//193 17//17
f 17//17 77//77 27//27
f 27//27 77//77 69//69
f 17//17 193//193 77//77
f 99//99 22//22 2//2
f 22//22 11//11 2//2
f 22//22 94//94 11//11
f 69//69 77//77 135//135
f 94//94 98//98 92//92
f 69//69 98//98 94//94
f 92//92 98//98 69//69
f 135//135 92//92 69//69
f 94//94 208//208 11//11
f 94//94 130//130 208//208
f 42//42 69//69 94//94
f 42//42 27//27 69//69
f 24//24 66//66 6//6
f 27//27 66//66 24//24
f 66//66 110//110 194//194
f 193//193 297//297 77//77
f 110//110 22//22 99//99
f 297//297 290//290 135//135
f 135//135 290//290 208//208
f 208//208 290//290 291//291
f 77//77 297//297 135//135
f 6//6 4//4 24//24
f 273//273 294//294 333//333
f 333//333 294//294 366//366
f 193//193 273//273 297//297
f 314//314 273//273 358//358
f 358//358 333//333 405//405
f 358//358 405//405 451//451
f 451//451 432//432 474//474
f 290//290 297//297 315//315
f 315//315 358//358 403//403
f 315//315 314//314 358//358
f 334//334 315//315 362//362
f 290//290 315//315 334//334
f 403//403 358//358 451//451
f 403//403 451//451 501//501
f 315//315 403//403 362//362
f 30//30 2//2 8//8
f 8//8 118//118 36//36
f 8//8 29//29 118//118
f 8//8 36//36 52//52
f 30//30 38//38 93//93
f 52//52 118//118 232//232
f 36//36 118//118 52//52
f 30//30 8//8 52//52
f 118//118 29//29 208//208
f 50//50 38//38 74//74
f 74//74 217//217 119//119
f 74//74 164//164 217//217
f 111//111 50//50 108//108
f 74//74 119//119 111//111
f 162//162 217//217 264//264
f 50//50 74//74 108//108
f 164//164 52//52 232//232
f 118//118 242//242 232//232
f 242//242 291//291 352//352
f 242//242 357//357 232//232
f 357//357 352//352 390//390
f 301//301 357//357 355//355
f 355//355 390//390 418//418
f 352//352 362//362 390//390
f 352//352 334//334 362//362
f 444//444 501//501 485//485
f 444//444 485//485 433//433
f 418//418 390//390 433//433
f 433//433 479//479 497//497
f 433//433 497//497 471//471
f 418//418 433//433 471//471
f 390//390 362//362 433//433
f 208//208 242//242 118//118
f 217//217 164//164 301//301
f 366//366 432//432 405//405
f 318//318 344//344 304//304
f 344//344 331//331 363//363
f 318//318 331//331 344//344
f 363//363 324//324 392//392
f 373//373 392//392 324//324
f 373//373 397//397 392//392
f 335//335 328//328 378//378
f 460//460 397//397 425//425
f 460//460 425//425 494//494
f 460//460 494//494 536//536
f 536//536 494//494 553//553
f 340//340 353//353 401//401
f 325//325 414//414 353//353
f 401//401 414//414 426//426
f 340//340 325//325 353//353
f 415//415 340//340 401//401
f 425//425 415//415 459//459
f 494//494 425//425 459//459
f 459//459 506//506 553//553
f 401//401 426//426 459//459
f 459//459 426//426 473//473
f 459//459 473//473 510//510
f 553//553 510//510 577//577
f 553//553 577//577 587//587
f 402//402 462//462 386//386
f 414//414 386//386 462//462
f 426//426 414//414 473//473
f 473//473 414//414 462//462
f 502//502 473//473 462//462
f 510//510 473//473 502//502
f 577//577 510//510 502//502
f 346//346 381//381 336//336
f 488//488 491//491 549//549
f 402//402 488//488 462//462
f 599//599 586//586 611//611
f 381//381 346//346 398//398
f 424//424 398//398 446//446
f 557//557 477//477 522//522
f 477//477 424//424 522//522
f 557//557 522//522 572//572
f 618//618 549//549 557//557
f 364//364 387//387 398//398
f 396//396 439//439 387//387
f 387//387 439//439 446//446
f 520//520 542//542 522//522
f 446//446 520//520 522//522
f 542//542 520//520 569//569
f 446//446 439//439 520//520
f 641//641 681//681 618//618
f 388//388 380//380 344//344
f 344//344 380//380 304//304
f 322//322 434//434 368//368
f 434//434 442//442 466//466
f 456//456 442//442 468//468
f 466//466 456//456 468//468
f 512//512 466//466 468//468
f 434//434 466//466 492//492
f 468//468 511//511 512//512
f 512//512 492//492 466//466
f 512//512 535//535 554//554
f 512//512 554//554 492//492
f 492//492 566//566 581//581
f 411//411 368//368 447//447
f 368//368 515//515 447//447
f 411//411 447//447 441//441
f 413//413 441//441 448//448
f 447//447 448//448 441//441
f 447//447 515//515 470//470
f 515//515 508//508 470//470
f 470//470 508//508 517//517
f 437//437 448//448 470//470
f 368//368 492//492 515//515
f 492//492 598//598 515//515
f 551//551 515//515 588//588
f 508//508 551//551 597//597
f 551//551 588//588 597//597
f 597//597 588//588 598//598
f 554//554 535//535 567//567
f 566//566 567//567 600//600
f 600//600 567//567 615//615
f 567//567 535//535 536//536
f 581//581 566//566 629//629
f 566//566 600//600 616//616
f 648//648 629//629 660//660
f 629//629 616//616 660//660
f 581//581 629//629 612//612
f 648//648 637//637 621//621
f 627//627 675//675 650//650
f 536//536 511//511 460//460
f 517//517 508//508 568//568
f 421//421 517//517 519//519
f 556//556 517//517 568//568
f 597//597 598//598 636//636
f 568//568 597//597 604//604
f 671//671 636//636 650//650
f 519//519 517//517 556//556
f 556//556 590//590 519//519
f 519//519 590//590 547//547
f 590//590 604//604 678//678
f 733//733 678//678 717//717
f 556//556 568//568 604//604
f 556//556 604//604 590//590
f 615//615 567//567 578//578
f 578//578 595//595 615//615
f 616//616 615//615 658//658
f 616//616 713//713 660//660
f 615//615 595//595 658//658
f 658//658 655//655 713//713
f 764//764 740//740 765//765
f 764//764 713//713 746//746
f 600//600 615//615 616//616
f 637//637 648//648 675//675
f 675//675 648//648 660//660
f 749//749 741//741 762//762
f 671//671 675//675 749//749
f 733//733 726//726 754//754
f 754//754 726//726 749//749
f 754//754 749//749 762//762
f 764//764 762//762 741//741
f 717//717 726//726 733//733
f 567//567 536//536 578//578
f 605//605 581//581 621//621
f 563//563 570//570 603//603
f 644//644 722//722 659//659
f 603//603 608//608 659//659
f 539//539 563//563 593//593
f 646//646 603//603 659//659
f 646//646 659//659 701//701
f 659//659 722//722 701//701
f 701//701 690//690 646//646
f 451//451 570//570 563//563
f 593//593 563//563 603//603
f 655//655 587//587 599//599
f 655//655 611//611 633//633
f 655//655 599//599 611//611
f 740//740 655//655 734//734
f 737//737 718//718 715//715
f 750//750 734//734 737//737
f 757//757 765//765 750//750
f 734//734 719//719 737//737
f 756//756 759//759 766//766
f 759//759 733//733 767//767
f 755//755 766//766 760//760
f 766//766 765//765 757//757
f 760//760 766//766 757//757
f 756//756 755//755 722//722
f 766//766 755//755 756//756
f 738//738 701//701 757//757
f 732//732 757//757 701//701
f 714//714 727//727 684//684
f 613//613 677//677 682//682
f 747//747 682//682 677//677
f 682//682 747//747 743//743
f 528//528 529//529 543//543
f 543//543 584//584 592//592
f 529//529 528//528 501//501
f 504//504 543//543 546//546
f 528//528 529//529 485//485
f 485//485 501//501 528//528
f 504//504 485//485 529//529
f 582//582 546//546 592//592
f 634//634 690//690 684//684
f 504//504 546//546 533//533
f 523//523 497//497 533//533
f 589//589 533//533 582//582
f 582//582 613//613 682//682
f 584//584 593//593 634//634
f 613//613 582//582 592//592
f 730//730 715//715 702//702
f 728//728 730//730 702//702
f 702//702 694//694 681//681
f 715//715 694//694 702//702
f 744//744 730//730 727//727
f 690//690 744//744 727//727
f 751//751 709//709 752//752
f 728//728 709//709 751//751
f 730//730 728//728 747//747
f 751//751 761//761 753//753
f 751//751 753//753 763//763
f 751//751 763//763 747//747
f 702//702 681//681 709//709
f 744//744 715//715 730//730
f 722//722 644//644 733//733
f 701//701 738//738 744//744
f 608//608 590//590 644//644
f 608//608 547//547 590//590
f 114//114 48//48 106//106
f 114//114 80//80 48//48
f 48//48 39//39 35//35
f 26//26 43//43 87//87
f 39//39 26//26 35//35
f 87//87 35//35 26//26
f 138//138 145//145 43//43
f 138//138 37//37 120//120
f 26//26 19//19 43//43
f 12//12 16//16 37//37
f 12//12 19//19 56//56
f 12//12 56//56 16//16
f 43//43 37//37 138//138
f 213//213 292//292 247//247
f 173//173 231//231 223//223
f 213//213 222//222 223//223
f 213//213 173//173 222//222
f 231//231 316//316 292//292
f 292//292 316//316 389//389
f 34//34 181//181 257//257
f 181//181 214//214 257//257
f 34//34 257//257 231//231
f 150//150 175//175 214//214
f 377//377 389//389 316//316
f 316//316 312//312 327//327
f 327//327 312//312 377//377
f 391//391 377//377 312//312
f 312//312 316//316 257//257
f 316//316 327//327 377//377
f 34//34 173//173 89//89
f 51//51 161//161 33//33
f 86//86 89//89 247//247
f 181//181 45//45 116//116
f 45//45 161//161 169//169
f 45//45 33//33 161//161
f 106//106 87//87 169//169
f 161//161 106//106 169//169
f 247//247 292//292 339//339
f 339//339 416//416 396//396
f 81//81 150//150 120//120
f 150//150 138//138 120//120
f 214//214 181//181 150//150
f 44//44 107//107 54//54
f 104//104 54//54 107//107
f 104//104 124//124 113//113
f 44//44 81//81 107//107
f 15//15 73//73 37//37
f 120//120 73//73 107//107
f 21//21 49//49 15//15
f 16//16 21//21 15//15
f 15//15 49//49 25//25
f 21//21 187//187 49//49
f 25//25 166//166 76//76
f 166//166 285//285 311//311
f 73//73 64//64 107//107
f 64//64 70//70 107//107
f 124//124 70//70 57//57
f 104//104 107//107 124//124
f 76//76 179//179 123//123
f 64//64 76//76 125//125
f 179//179 70//70 149//149
f 179//179 243//243 310//310
f 125//125 123//123 179//179
f 123//123 64//64 125//125
f 149//149 123//123 125//125
f 76//76 123//123 125//125
f 70//70 179//179 88//88
f 76//76 166//166 243//243
f 73//73 15//15 25//25
f 115//115 175//175 44//44
f 303//303 238//238 219//219
f 115//115 238//238 251//251
f 312//312 238//238 303//303
f 391//391 303//303 394//394
f 298//298 300//300 244//244
f 244//244 239//239 127//127
f 239//239 244//244 300//300
f 239//239 300//300 302//302
f 300//300 345//345 349//349
f 300//300 349//349 356//356
f 300//300 356//356 302//302
f 359//359 302//302 356//356
f 219//219 302//302 303//303
f 150//150 81//81 175//175
f 124//124 91//91 113//113
f 157//157 91//91 60//60
f 186//186 157//157 82//82
f 57//57 70//70 88//88
f 176//176 91//91 157//157
f 57//57 67//67 83//83
f 88//88 67//67 57//57
f 124//124 57//57 83//83
f 88//88 255//255 196//196
f 67//67 88//88 196//196
f 60//60 83//83 85//85
f 83//83 103//103 85//85
f 103//103 67//67 202//202
f 60//60 85//85 148//148
f 103//103 198//198 85//85
f 103//103 202//202 241//241
f 241//241 323//323 317//317
f 317//317 323//323 365//365
f 235//235 299//299 298//298
f 152//152 235//235 167//167
f 167//167 235//235 244//244
f 298//298 345//345 300//300
f 369//369 429//429 395//395
f 345//345 342//342 369//369
f 429//429 369//369 409//409
f 345//345 395//395 349//349
f 240//240 157//157 186//186
f 307//307 299//299 260//260
f 342//342 348//348 382//382
f 409//409 342//342 382//382
f 369//369 342//342 409//409
f 60//60 47//47 71//71
f 79//79 154//154 47//47
f 71//71 47//47 154//154
f 79//79 47//47 60//60
f 186//186 165//165 163//163
f 82//82 146//146 186//186
f 82//82 184//184 155//155
f 146//146 155//155 163//163
f 186//186 146//146 165//165
f 154//154 234//234 71//71
f 82//82 60//60 71//71
f 90//90 101//101 117//117
f 79//79 101//101 90//90
f 90//90 142//142 154//154
f 142//142 90//90 117//117
f 79//79 126//126 117//117
f 79//79 171//171 126//126
f 79//79 148//148 204//204
f 148//148 198//198 252//252
f 148//148 252//252 204//204
f 212//212 131//131 171//171
f 171//171 131//131 129//129
f 210//210 225//225 229//229
f 204//204 225//225 210//210
f 204//204 267//267 246//246
f 142//142 212//212 234//234
f 204//204 246//246 229//229
f 296//296 246//246 267//267
f 212//212 236//236 296//296
f 351//351 296//296 267//267
f 129//129 126//126 142//142
f 171//171 142//142 126//126
f 210//210 236//236 212//212
f 210//210 171//171 204//204
f 282//282 317//317 361//361
f 306//306 293//293 288//288
f 267//267 288//288 293//293
f 351//351 293//293 306//306
f 288//288 329//329 306//306
f 252//252 282//282 319//319
f 319//319 329//329 288//288
f 267//267 293//293 351//351
f 259//259 278//278 240//240
f 259//259 211//211 348//348
f 379//379 382//382 348//348
f 211//211 296//296 376//376
f 382//382 423//423 435//435
f 428//428 430//430 423//423
f 408//408 428//428 423//423
f 408//408 379//379 440//440
f 379//379 408//408 382//382
f 440//440 348//348 211//211
f 296//296 351//351 376//376
f 376//376 351//351 427//427
f 360//360 351//351 329//329
f 400//400 370//370 410//410
f 400//400 410//410 406//406
f 370//370 400//400 360//360
f 476//476 427//427 530//530
f 476//476 376//376 427//427
f 530//530 427//427 585//585
f 585//585 427//427 475//475
f 550//550 585//585 475//475
f 198//198 282//282 252//252
f 113//113 176//176 152//152
f 80//80 151//151 48//48
f 109//109 39//39 216//216
f 39//39 151//151 216//216
f 151//151 277//277 216//216
f 19//19 109//109 199//199
f 289//289 56//56 199//199
f 264//264 305//305 220//220
f 347//347 305//305 337//337
f 277//277 305//305 347//347
f 347//347 337//337 384//384
f 337//337 418//418 384//384
f 458//458 384//384 418//418
f 461//461 484//484 516//516
f 199//199 277//277 347//347
f 199//199 347//347 289//289
f 354//354 384//384 417//417
f 418//418 471//471 484//484
f 471//471 523//523 484//484
f 285//285 187//187 289//289
f 310//310 243//243 311//311
f 320//320 354//354 404//404
f 417//417 478//478 465//465
f 507//507 472//472 518//518
f 562//562 507//507 518//518
f 467//467 385//385 472//472
f 457//457 385//385 467//467
f 457//457 467//467 495//495
f 495//495 507//507 564//564
f 467//467 507//507 495//495
f 467//467 472//472 507//507
f 216//216 277//277 199//199
f 310//310 323//323 255//255
f 332//332 412//412 399//399
f 453//453 385//385 457//457
f 514//514 564//564 560//560
f 453//453 495//495 514//514
f 412//412 453//453 505//505
f 505//505 453//453 514//514
f 505//505 514//514 560//560
f 317//317 365//365 361//361
f 412//412 505//505 487//487
f 487//487 505//505 559//559
f 455//455 487//487 493//493
f 487//487 513//513 493//493
f 453//453 457//457 495//495
f 361//361 399//399 455//455
f 370//370 455//455 410//410
f 410//410 455//455 452//452
f 452//452 455//455 481//481
f 481//481 493//493 552//552
f 552//552 591//591 550//550
f 550//550 475//475 500//500
f 372//372 385//385 453//453
f 407//407 389//389 377//377
f 389//389 407//407 436//436
f 436//436 464//464 482//482
f 436//436 483//483 464//464
f 420//420 377//377 391//391
f 377//377 420//420 407//407
f 420//420 486//486 483//483
f 407//407 420//420 483//483
f 545//545 483//483 526//526
f 483//483 499//499 538//538
f 439//439 416//416 537//537
f 537//537 416//416 449//449
f 537//537 449//449 525//525
f 416//416 389//389 449//449
f 525//525 449//449 482//482
f 449//449 389//389 436//436
f 580//580 537//537 525//525
f 569//569 561//561 580//580
f 580//580 561//561 537//537
f 525//525 575//575 580//580
f 525//525 545//545 575//575
f 575//575 545//545 538//538
f 645//645 575//575 538//538
f 641//641 687//687 709//709
f 709//709 687//687 725//725
f 687//687 641//641 623//623
f 748//748 739//739 745//745
f 420//420 391//391 454//454
f 486//486 454//454 496//496
f 454//454 394//394 422//422
f 555//555 496//496 490//490
f 420//420 454//454 486//486
f 486//486 524//524 538//538
f 538//538 524//524 555//555
f 524//524 496//496 555//555
f 490//490 422//422 480//480
f 541//541 490//490 509//509
f 422//422 443//443 480//480
f 509//509 480//480 503//503
f 503//503 527//527 541//541
f 579//579 555//555 541//541
f 555//555 490//490 541//541
f 628//628 632//632 679//679
f 724//724 723//723 720//720
f 720//720 723//723 706//706
f 679//679 632//632 669//669
f 679//679 669//669 706//706
f 669//669 696//696 706//706
f 689//689 673//673 720//720
f 669//669 685//685 696//696
f 696//696 689//689 720//720
f 699//699 645//645 679//679
f 699//699 679//679 724//724
f 748//748 724//724 739//739
f 724//724 720//720 739//739
f 538//538 499//499 486//486
f 645//645 538//538 628//628
f 545//545 526//526 538//538
f 438//438 443//443 395//395
f 498//498 429//429 532//532
f 498//498 438//438 429//429
f 480//480 498//498 544//544
f 544//544 579//579 541//541
f 606//606 579//579 635//635
f 579//579 583//583 635//635
f 617//617 635//635 583//583
f 617//617 574//574 610//610
f 676//676 635//635 617//617
f 676//676 617//617 647//647
f 583//583 532//532 574//574
f 480//480 544//544 527//527
f 532//532 521//521 574//574
f 662//662 635//635 676//676
f 676//676 707//707 712//712
f 632//632 635//635 662//662
f 685//685 669//669 662//662
f 695//695 710//710 689//689
f 710//710 695//695 693//693
f 692//692 710//710 674//674
f 630//630 656//656 622//622
f 689//689 685//685 695//695
f 711//711 712//712 707//707
f 676//676 647//647 691//691
f 707//707 676//676 691//691
f 704//704 707//707 691//691
f 469//469 463//463 450//450
f 469//469 489//489 463//463
f 548//548 540//540 469//469
f 521//521 489//489 540//540
f 469//469 440//440 548//548
f 531//531 440//440 476//476
f 571//571 531//531 596//596
f 596//596 531//531 476//476
f 574//574 540//540 594//594
f 540//540 571//571 594//594
f 574//574 594//594 610//610
f 647//647 610//610 620//620
f 617//617 610//610 647//647
f 610//610 571//571 620//620
f 596//596 565//565 625//625
f 530//530 625//625 565//565
f 624//624 625//625 530//530
f 638//638 656//656 643//643
f 656//656 638//638 622//622
f 624//624 530//530 626//626
f 643//643 624//624 626//626
f 607//607 591//591 622//622
f 665//665 653//653 620//620
f 691//691 665//665 704//704
f 670//670 625//625 672//672
f 666//666 704//704 672//672
f 672//672 704//704 670//670
f 649//649 643//643 657//657
f 656//656 704//704 643//643
f 657//657 624//624 649//649
f 521//521 435//435 489//489
f 704//704 693//693 711//711
f 527//527 544//544 541//541
f 589//589 582//582 682//682
f 589//589 682//682 614//614
f 668//668 614//614 682//682
f 668//668 753//753 731//731
f 731//731 753//753 758//758
f 668//668 682//682 753//753
f 668//668 736//736 664//664
f 736//736 668//668 731//731
f 758//758 752//752 736//736
f 731//731 758//758 736//736
f 614//614 668//668 664//664
f 698//698 661//661 721//721
f 698//698 721//721 745//745
f 661//661 614//614 664//664
f 619//619 661//661 663//663
f 661//661 664//664 688//688
f 736//736 742//742 721//721
f 716//716 736//736 721//721
f 523//523 533//533 589//589
f 725//725 735//735 742//742
f 602//602 562//562 619//619
f 708//708 745//745 739//739
f 680//680 651//651 700//700
f 700//700 673//673 680//680
f 705//705 686//686 710//710
f 703//703 642//642 683//683
f 703//703 683//683 705//705
f 640//640 642//642 703//703
f 564//564 642//642 560//560
f 640//640 560//560 642//642
f 601//601 559//559 640//640
f 601//601 640//640 652//652
f 601//601 652//652 667//667
f 710//710 692//692 705//705
f 652//652 705//705 697//697
f 667//667 674//674 630//630
f 654//654 630//630 674//674
f 622//622 601//601 630//630
f 601//601 552//552 559//559
f 705//705 640//640 703//703
f 264//264 220//220 162//162
f 337//337 301//301 355//355
f 520//520 439//439 537//537
f 471//471 497//497 523//523
f 271//271 324//324 318//318
f 341//341 402//402 338//338
f 394//394 359//359 422//422
f 375//375 395//395 443//443
f 479//479 533//533 497//497
f 516//516 484//484 523//523
f 168//168 224//224 112//112
f 50//50 80//80 114//114
f 587//587 595//595 553//553
f 419//419 363//363 392//392
f 536//536 553//553 595//595
f 694//694 633//633 681//681
f 681//681 641//641 709//709
f 19//19 199//199 56//56
f 745//745 735//735 748//748
f 550//550 591//591 585//585
f 20//20 13//13 5//5
f 20//20 5//5 14//14
f 9//9 40//40 5//5
f 261//261 269//269 274//274
f 261//261 274//274 263//263
f 59//59 137//137 58//58
f 40//40 59//59 58//58
f 100//100 271//271 168//168
f 168//168 112//112 31//31
f 276//276 258//258 261//261
f 258//258 253//253 263//263
f 254//254 324//324 274//274
f 263//263 276//276 261//261
f 130//130 94//94 92//92
f 130//130 92//92 98//98
f 254//254 274//274 271//271
f 256//256 284//284 207//207
f 72//72 195//195 188//188
f 338//338 325//325 286//286
f 341//341 338//338 295//295
f 195//195 205//205 283//283
f 133//133 121//121 158//158
f 330//330 398//398 346//346
f 147//147 18//18 86//86
f 265//265 283//283 191//191
f 227//227 262//262 177//177
f 159//159 197//197 215//215
f 31//31 112//112 53//53
f 248//248 228//228 209//209
f 276//276 248//248 224//224
f 309//309 343//343 281//281
f 411//411 413//413 374//374
f 160//160 65//65 159//159
f 160//160 105//105 65//65
f 10//10 32//32 46//46
f 46//46 62//62 10//10
f 23//23 62//62 65//65
f 23//23 10//10 62//62
f 156//156 139//139 136//136
f 136//136 46//46 32//32
f 221//221 160//160 215//215
f 105//105 160//160 221//221
f 313//313 367//367 366//366
f 380//380 388//388 419//419
f 380//380 419//419 434//434
f 135//135 98//98 92//92
f 135//135 130//130 98//98
f 42//42 22//22 110//110
f 52//52 38//38 30//30
f 162//162 50//50 111//111
f 162//162 111//111 108//108
f 162//162 119//119 217//217
f 74//74 111//111 108//108
f 111//111 119//119 108//108
f 485//485 504//504 433//433
f 273//273 193//193 41//41
f 397//397 373//373 324//324
f 335//335 378//378 397//397
f 401//401 459//459 415//415
f 488//488 586//586 502//502
f 341//341 383//383 402//402
f 477//477 488//488 383//383
f 477//477 491//491 488//488
f 488//488 549//549 586//586
f 586//586 549//549 576//576
f 558//558 572//572 522//522
f 576//576 618//618 633//633
f 576//576 549//549 618//618
f 396//396 416//416 439//439
f 569//569 520//520 561//561
f 557//557 549//549 491//491
f 419//419 388//388 363//363
f 609//609 598//598 492//492
f 609//609 492//492 581//581
f 442//442 434//434 419//419
f 411//411 441//441 413//413
f 470//470 448//448 447//447
f 64//64 123//123 149//149
f 64//64 149//149 70//70
f 612//612 631//631 621//621
f 648//648 621//621 631//631
f 616//616 629//629 566//566
f 740//740 746//746 713//713
f 726//726 671//671 749//749
f 741//741 749//749 675//675
f 726//726 717//717 678//678
f 633//633 694//694 718//718
f 750//750 744//744 757//757
f 733//733 759//759 756//756
f 755//755 760//760 722//722
f 714//714 690//690 727//727
f 743//743 753//753 682//682
f 747//747 753//753 743//743
f 528//528 504//504 529//529
f 592//592 546//546 543//543
f 762//762 733//733 754//754
f 762//762 767//767 733//733
f 19//19 12//12 43//43
f 231//231 292//292 222//222
f 231//231 222//222 223//223
f 173//173 223//223 222//222
f 292//292 213//213 223//223
f 181//181 34//34 45//45
f 116//116 150//150 181//181
f 107//107 70//70 124//124
f 101//101 131//131 142//142
f 101//101 142//142 117//117
f 179//179 149//149 125//125
f 73//73 25//25 64//64
f 44//44 54//54 96//96
f 54//54 127//127 96//96
f 359//359 356//356 422//422
f 175//175 81//81 44//44
f 179//179 255//255 88//88
f 395//395 345//345 369//369
f 146//146 82//82 155//155
f 165//165 184//184 163//163
f 155//155 165//165 163//163
f 155//155 184//184 165//165
f 184//184 186//186 163//163
f 218//218 186//186 184//184
f 165//165 146//146 163//163
f 79//79 117//117 101//101
f 117//117 126//126 101//101
f 154//154 79//79 90//90
f 171//171 210//210 212//212
f 171//171 129//129 142//142
f 236//236 210//210 229//229
f 236//236 229//229 225//225
f 204//204 229//229 225//225
f 229//229 246//246 225//225
f 431//431 428//428 430//430
f 431//431 430//430 440//440
f 129//129 131//131 126//126
f 126//126 131//131 101//101
f 351//351 306//306 329//329
f 240//240 211//211 259//259
f 259//259 307//307 278//278
f 408//408 430//430 428//428
f 400//400 406//406 360//360
f 289//289 347//347 354//354
f 385//385 311//311 285//285
f 495//495 564//564 514//514
f 452//452 481//481 475//475
f 407//407 483//483 436//436
f 480//480 509//509 490//490
f 503//503 541//541 509//509
f 496//496 524//524 486//486
f 532//532 544//544 498//498
f 429//429 521//521 532//532
f 676//676 712//712 662//662
f 662//662 695//695 685//685
f 695//695 712//712 711//711
f 450//450 463//463 423//423
f 531//531 548//548 440//440
f 548//548 531//531 571//571
f 643//643 626//626 638//638
f 624//624 643//643 649//649
f 625//625 666//666 672//672
f 665//665 620//620 596//596
f 606//606 635//635 632//632
f 688//688 721//721 661//661
f 602//602 639//639 642//642
f 673//673 689//689 686//686
f 274//274 324//324 271//271
f 450//450 430//430 428//428
f 440//440 450//450 431//431
f 431//431 450//450 428//428
f 450//450 423//423 430//430
f 388//388 344//344 363//363
