# convertido de flygym/NeuroMechFly (rf_trochanterfemur)
v -0.09459 -0.02997 -0.40512
v -0.09229 -0.03827 -0.38160
v -0.08988 -0.03499 -0.33551
v -0.08802 -0.00911 -0.42586
v -0.08799 -0.02381 -0.46388
v -0.08778 -0.00247 -0.34401
v -0.08701 -0.00052 -0.39715
v -0.08650 -0.00134 -0.35924
v -0.08480 -0.00990 -0.31294
v -0.08406 -0.04903 -0.44423
v -0.08375 -0.02715 -0.49000
v -0.08334 -0.05113 -0.41864
v -0.08243 -0.03730 -0.29307
v -0.08005 -0.05965 -0.37821
v -0.07950 -0.00688 -0.28835
v -0.07919 -0.00127 -0.50443
v -0.07751 0.01527 -0.40140
v -0.07696 0.00393 -0.45587
v -0.07677 -0.04233 -0.51162
v -0.07656 -0.05788 -0.32556
v -0.07522 -0.01488 -0.53891
v -0.07475 -0.01061 -0.25646
v -0.07351 -0.05648 -0.48258
v -0.07259 -0.01090 -0.56222
v -0.07250 -0.01849 -0.23969
v -0.07239 0.01510 -0.33473
v -0.07195 -0.03038 -0.56386
v -0.07177 0.01230 -0.42385
v -0.07150 0.00361 -0.49129
v -0.07120 0.01334 -0.30517
v -0.07082 -0.05048 -0.26291
v -0.06781 -0.06926 -0.42764
v -0.06781 0.01605 -0.09724
v -0.06669 -0.00078 -0.08889
v -0.06619 -0.00192 -0.10826
v -0.06520 -0.07394 -0.40147
v -0.06396 -0.00410 -0.13829
v -0.06371 -0.04826 -0.23981
v -0.06299 0.00209 -0.54081
v -0.06222 -0.03673 -0.21713
v -0.06220 0.00936 -0.51275
v -0.06201 -0.07506 -0.35583
v -0.06152 0.01665 -0.26372
v -0.06093 -0.02938 -0.61590
v -0.05903 -0.00955 -0.60004
v -0.05882 -0.01478 -0.62443
v -0.05796 0.01368 -0.23304
v -0.05791 -0.07096 -0.29662
v -0.05453 0.02779 -0.06574
v -0.05415 0.03186 -0.09446
v -0.05380 -0.02239 -0.11431
v -0.05370 -0.01674 -0.17671
v -0.05333 -0.05192 -0.60772
v -0.05312 -0.06812 -0.55148
v -0.05289 0.00974 -0.19397
v -0.05275 -0.05776 -0.56932
v -0.05252 0.02105 -0.04228
v -0.05249 0.00032 -0.17069
v -0.05228 -0.07218 -0.51648
v -0.05188 -0.01555 -0.06653
v -0.05106 -0.02541 -0.13169
v -0.05103 0.02015 -0.15809
v -0.05078 0.01607 -0.02752
v -0.05044 0.02972 -0.05136
v -0.05035 0.02686 -0.28515
v -0.04985 0.01947 -0.46501
v -0.04979 -0.01609 -0.65169
v -0.04853 -0.01418 -0.04207
v -0.04777 -0.04049 -0.65563
v -0.04771 0.02499 -0.03233
v -0.04746 0.03393 -0.35124
v -0.04716 0.03745 -0.11404
v -0.04681 -0.01502 -0.16422
v -0.04639 -0.02547 -0.04680
v -0.04601 0.02498 -0.03248
v -0.04600 0.02506 -0.03245
v -0.04597 -0.02740 -0.04171
v -0.04596 -0.01418 -0.02779
v -0.04589 -0.08081 -0.45626
v -0.04559 -0.02082 -0.03460
v -0.04553 -0.02076 -0.03481
v -0.04536 0.00562 -0.58643
v -0.04411 -0.02626 -0.14858
v -0.04256 -0.02698 -0.04470
v -0.04256 -0.02698 -0.04470
v -0.04252 -0.02514 -0.04893
v -0.04236 -0.02443 -0.05067
v -0.04236 -0.02442 -0.05067
v -0.04216 0.03210 -0.40126
v -0.04216 -0.02492 -0.04953
v -0.04216 -0.02492 -0.04953
v -0.04207 -0.02556 -0.03448
v -0.04206 -0.02543 -0.04836
v -0.04206 -0.02543 -0.04836
v -0.04190 -0.02477 -0.04995
v -0.04187 0.03311 -0.14172
v -0.04177 -0.02531 -0.04869
v -0.04116 -0.02352 -0.68761
v -0.04085 -0.03086 -0.03660
v -0.04080 -0.02670 -0.04582
v -0.04017 0.03626 -0.31609
v -0.03984 0.04422 -0.07217
v -0.03907 -0.03325 -0.03598
v -0.03899 -0.03321 -0.03617
v -0.03878 -0.03372 -0.03585
v -0.03870 -0.06693 -0.23314
v -0.03851 -0.03410 -0.03584
v -0.03843 -0.03407 -0.03607
v -0.03825 -0.03596 -0.16636
v -0.03809 -0.03477 -0.03585
v -0.03809 0.03316 -0.17161
v -0.03793 0.00331 -0.65004
v -0.03779 -0.08724 -0.40370
v -0.03709 -0.03614 -0.03653
v -0.03696 -0.03631 -0.03653
v -0.03689 -0.03579 -0.03613
v -0.03687 -0.03627 -0.03681
v -0.03675 -0.03719 -0.03784
v -0.03635 -0.03723 -0.03638
v -0.03626 -0.03713 -0.03662
v -0.03612 -0.03766 -0.03617
v -0.03604 -0.02060 -0.06642
v -0.03510 0.03002 -0.19232
v -0.03504 -0.08719 -0.36757
v -0.03471 0.02630 -0.01774
v -0.03359 -0.04097 -0.03621
v -0.03352 -0.01044 -0.69822
v -0.03331 0.03598 -0.25140
v -0.03263 -0.06672 -0.62204
v -0.03229 -0.05351 -0.19016
v -0.03216 -0.08299 -0.54390
v -0.03180 -0.02265 -0.15596
v -0.03169 -0.03856 -0.03523
v -0.03112 -0.07859 -0.58847
v -0.03097 0.03963 -0.04063
v -0.03074 -0.04877 -0.67833
v -0.03068 -0.01974 -0.71851
v -0.03027 -0.04421 -0.03710
v -0.03009 -0.04414 -0.03748
v -0.02992 -0.04459 -0.03789
v -0.02980 -0.03381 -0.09745
v -0.02961 -0.04496 -0.03727
v -0.02960 -0.04451 -0.03714
v -0.02941 -0.04487 -0.03772
v -0.02914 -0.04542 -0.03812
v -0.02879 0.03230 -0.45078
v -0.02849 -0.04595 -0.03837
v -0.02844 -0.04575 -0.03803
v -0.02836 -0.04587 -0.03870
v -0.02802 -0.04620 -0.03963
v -0.02802 -0.04624 -0.03842
v -0.02799 -0.03588 -0.06509
v -0.02787 -0.04672 -0.03859
v -0.02761 -0.04659 -0.03904
v -0.02761 -0.02431 -0.73263
v -0.02760 0.01553 -0.54755
v -0.02754 -0.04704 -0.03863
v -0.02740 -0.04648 -0.03936
v -0.02724 -0.04738 -0.03873
v -0.02700 -0.04722 -0.03918
v -0.02693 -0.04633 -0.03907
v -0.02687 -0.04776 -0.03891
v -0.02686 -0.04777 -0.03870
v -0.02678 -0.04712 -0.03952
v -0.02677 -0.04702 -0.04064
v -0.02675 -0.08271 -0.29792
v -0.02556 -0.04763 -0.04045
v -0.02542 -0.04750 -0.04066
v -0.02537 -0.04691 -0.03981
v -0.02501 0.03277 -0.01686
v -0.02492 0.03286 -0.01705
v -0.02474 0.03302 -0.01670
v -0.02396 0.03924 -0.21593
v -0.02342 -0.08708 -0.33585
v -0.02313 -0.00839 -0.73225
v -0.02306 -0.00839 -0.73225
v -0.02213 0.03924 -0.29048
v -0.02137 -0.07641 -0.25690
v -0.02089 -0.00483 -0.73394
v -0.02042 -0.04113 -0.11556
v -0.02017 -0.00285 -0.73301
v -0.02004 -0.00284 -0.73313
v -0.01991 -0.00239 -0.73283
v -0.01987 -0.00231 -0.73336
v -0.01960 -0.00421 -0.72652
v -0.01946 0.04103 -0.15821
v -0.01911 -0.00117 -0.73320
v -0.01890 -0.05074 -0.04095
v -0.01872 -0.00051 -0.73312
v -0.01865 -0.00049 -0.73313
v -0.01818 0.03874 -0.37075
v -0.01778 -0.03965 -0.05889
v -0.01765 0.03493 -0.01292
v -0.01703 0.03684 -0.39892
v -0.01695 0.00200 -0.73289
v -0.01670 0.01802 -0.00162
v -0.01599 0.00317 -0.73425
v -0.01584 0.04815 -0.08258
v -0.01583 0.00325 -0.73429
v -0.01579 -0.00200 -0.74392
v -0.01566 0.04060 -0.11107
v -0.01527 -0.09021 -0.53051
v -0.01502 0.00477 -0.67007
v -0.01493 -0.08662 -0.49490
v -0.01489 0.01219 -0.60910
v -0.01469 -0.07754 -0.62340
v -0.01456 -0.04258 -0.72103
v -0.01447 -0.02918 -0.02414
v -0.01446 0.03708 -0.18291
v -0.01348 -0.05188 -0.04239
v -0.01285 0.03669 -0.01260
v -0.01277 -0.08967 -0.43804
v -0.01266 0.03690 -0.01249
v -0.01260 -0.05230 -0.03889
v -0.01258 0.03678 -0.01282
v -0.01242 0.04537 -0.05724
v -0.01219 -0.05219 -0.03919
v -0.01218 0.03697 -0.01253
v -0.01193 -0.06908 -0.65140
v -0.01167 -0.05249 -0.03900
v -0.01166 -0.05223 -0.03897
v -0.01155 -0.05058 -0.03803
v -0.01130 -0.05264 -0.03856
v -0.01070 0.03771 -0.01277
v -0.01054 0.03718 -0.01293
v -0.01044 0.03795 -0.01247
v -0.01038 0.03778 -0.01296
v -0.01023 0.01602 -0.63539
v -0.01009 0.04036 -0.31647
v -0.01004 -0.05246 -0.03860
v -0.00962 0.03838 -0.01274
v -0.00942 0.03870 -0.01264
v -0.00931 0.03860 -0.01311
v -0.00924 -0.07159 -0.22604
v -0.00894 0.03894 -0.01246
v -0.00856 0.03911 -0.01279
v -0.00854 -0.06274 -0.19864
v -0.00818 0.03932 -0.01317
v -0.00810 0.03960 -0.05308
v -0.00785 0.00837 -0.73702
v -0.00773 0.03935 -0.01301
v -0.00764 -0.08957 -0.36312
v -0.00730 0.03586 -0.49444
v -0.00683 0.04015 -0.01363
v -0.00646 -0.08718 -0.55302
v -0.00580 -0.05281 -0.03850
v -0.00572 -0.03757 -0.75062
v -0.00562 0.03793 -0.34706
v -0.00498 0.04067 -0.01366
v -0.00479 0.04082 -0.01350
v -0.00466 -0.05335 -0.03866
v -0.00464 0.04085 -0.01394
v -0.00458 -0.05275 -0.03843
v -0.00410 0.03699 -0.44241
v -0.00383 -0.05356 -0.03901
v -0.00357 -0.03626 -0.09494
v -0.00335 0.03561 -0.51857
v -0.00332 0.04365 -0.02005
v -0.00320 0.04112 -0.01313
v -0.00318 -0.04463 -0.15818
v -0.00298 0.04278 -0.22654
v -0.00192 -0.04764 -0.04102
v -0.00188 -0.03441 -0.06804
v -0.00178 -0.08356 -0.30727
v -0.00170 -0.05359 -0.03869
v -0.00157 0.03989 -0.01492
v -0.00143 -0.05409 -0.03877
v -0.00114 -0.05398 -0.03909
v -0.00096 0.03936 -0.27645
v -0.00080 -0.04279 -0.12791
v -0.00067 -0.05406 -0.03896
v -0.00056 -0.05392 -0.03931
v -0.00054 0.04234 -0.01490
v -0.00018 0.04253 -0.01528
v -0.00005 0.04277 -0.01470
v 0.00049 -0.07729 -0.27335
v 0.00062 -0.03065 -0.14205
v 0.00063 -0.05365 -0.03932
v 0.00075 -0.08943 -0.40692
v 0.00080 0.03080 -0.55665
v 0.00095 0.03396 -0.42395
v 0.00111 -0.05334 -0.03941
v 0.00134 0.03506 -0.13558
v 0.00175 -0.05381 -0.03890
v 0.00183 -0.08882 -0.58642
v 0.00190 -0.05329 -0.03898
v 0.00216 0.01574 -0.73959
v 0.00233 0.01573 -0.73972
v 0.00237 -0.05344 -0.03889
v 0.00244 -0.05377 -0.03912
v 0.00251 0.04382 -0.01675
v 0.00269 -0.05289 -0.03854
v 0.00272 -0.05320 -0.03931
v 0.00283 0.03082 -0.10780
v 0.00289 0.01414 -0.69490
v 0.00344 -0.05373 -0.03881
v 0.00353 -0.05335 -0.03893
v 0.00360 0.02808 -0.70040
v 0.00387 -0.05317 -0.03917
v 0.00405 -0.05350 -0.03886
v 0.00408 -0.05385 -0.03904
v 0.00437 0.01095 -0.72296
v 0.00453 0.04061 -0.24725
v 0.00489 -0.06013 -0.68585
v 0.00489 0.04539 -0.01921
v 0.00509 -0.05344 -0.03881
v 0.00511 0.04583 -0.01952
v 0.00511 -0.05391 -0.03876
v 0.00517 0.04556 -0.01965
v 0.00564 -0.05360 -0.03873
v 0.00571 -0.05394 -0.03896
v 0.00583 0.04597 -0.01955
v 0.00596 0.04618 -0.01945
v 0.00602 0.04709 -0.02425
v 0.00606 0.04692 -0.02420
v 0.00607 -0.05318 -0.03909
v 0.00618 0.04615 -0.02000
v 0.00629 0.04622 -0.01937
v 0.00643 0.02927 -0.61418
v 0.00649 -0.05364 -0.03857
v 0.00675 -0.05355 -0.03881
v 0.00675 -0.05289 -0.03828
v 0.00689 -0.08531 -0.50258
v 0.00705 -0.05426 -0.03889
v 0.00712 0.04688 -0.02253
v 0.00717 -0.05365 -0.03877
v 0.00720 0.04776 -0.03629
v 0.00721 -0.05287 -0.03865
v 0.00736 0.03434 -0.06161
v 0.00741 -0.05210 -0.03856
v 0.00764 -0.05301 -0.03857
v 0.00769 -0.05343 -0.03885
v 0.00772 0.02301 -0.15543
v 0.00787 0.03120 -0.58529
v 0.00807 -0.05287 -0.03886
v 0.00813 0.03090 -0.38348
v 0.00820 0.04016 -0.01695
v 0.00878 0.03698 -0.08053
v 0.00881 -0.05296 -0.03856
v 0.00881 -0.05195 -0.03870
v 0.00903 -0.05356 -0.03868
v 0.00924 0.02698 -0.17908
v 0.00932 -0.05311 -0.03850
v 0.00933 0.03413 -0.50561
v 0.00936 -0.05343 -0.03871
v 0.00950 -0.02438 -0.75943
v 0.00982 0.02007 -0.74408
v 0.00988 -0.05338 -0.03865
v 0.00988 0.03551 -0.20339
v 0.01027 -0.05237 -0.03849
v 0.01034 -0.05267 -0.03807
v 0.01041 -0.05330 -0.03834
v 0.01041 -0.05300 -0.03839
v 0.01092 -0.05229 -0.03809
v 0.01096 -0.05316 -0.03837
v 0.01122 -0.06383 -0.22343
v 0.01128 0.02254 -0.73414
v 0.01135 -0.05287 -0.03836
v 0.01146 -0.05244 -0.03809
v 0.01176 -0.05165 -0.03811
v 0.01179 -0.02023 -0.06467
v 0.01181 -0.08111 -0.33619
v 0.01197 -0.03489 -0.13491
v 0.01252 -0.05074 -0.03679
v 0.01252 -0.05197 -0.03794
v 0.01304 -0.05162 -0.03744
v 0.01341 -0.05117 -0.03778
v 0.01362 -0.05182 -0.03774
v 0.01371 -0.08552 -0.39513
v 0.01382 0.00440 -0.10090
v 0.01388 -0.05133 -0.03725
v 0.01399 -0.04869 -0.71458
v 0.01410 -0.05196 -0.03775
v 0.01412 -0.05110 -0.03740
v 0.01445 -0.05167 -0.03775
v 0.01458 -0.05125 -0.03742
v 0.01464 0.02778 -0.46456
v 0.01482 -0.05016 -0.03734
v 0.01515 0.02898 -0.40650
v 0.01526 -0.05052 -0.03710
v 0.01558 -0.05140 -0.03758
v 0.01569 0.03057 -0.71901
v 0.01570 -0.05063 -0.03706
v 0.01575 -0.00105 -0.08834
v 0.01603 -0.05098 -0.03702
v 0.01617 -0.05052 -0.03731
v 0.01618 -0.08445 -0.62694
v 0.01620 -0.05012 -0.03668
v 0.01623 0.03131 -0.32076
v 0.01631 -0.05128 -0.03743
v 0.01632 -0.01275 -0.09882
v 0.01652 -0.05188 -0.03761
v 0.01652 -0.00880 -0.76313
v 0.01671 -0.05140 -0.03747
v 0.01677 -0.05059 -0.03716
v 0.01681 -0.03735 -0.75084
v 0.01684 -0.03710 -0.75083
v 0.01691 0.03041 -0.52695
v 0.01706 -0.04964 -0.03706
v 0.01706 -0.03726 -0.75106
v 0.01727 -0.05074 -0.03721
v 0.01729 -0.05116 -0.03751
v 0.01741 0.03188 -0.68159
v 0.01769 -0.05014 -0.03683
v 0.01793 -0.05131 -0.03764
v 0.01796 0.02551 -0.35324
v 0.01804 0.00109 -0.01518
v 0.01822 -0.06922 -0.27480
v 0.01823 -0.04951 -0.03636
v 0.01827 -0.04983 -0.03720
v 0.01842 -0.03685 -0.75073
v 0.01842 -0.05021 -0.03724
v 0.01862 -0.04911 -0.03707
v 0.01887 -0.03595 -0.03088
v 0.01902 -0.03761 -0.74830
v 0.01904 0.03223 -0.28314
v 0.01909 -0.08080 -0.48205
v 0.01930 -0.07895 -0.34804
v 0.01934 -0.05057 -0.03768
v 0.01945 0.00151 -0.08110
v 0.01982 -0.04993 -0.03760
v 0.01982 -0.05068 -0.03766
v 0.01984 -0.05134 -0.03773
v 0.02004 -0.04764 -0.03467
v 0.02031 -0.05128 -0.03829
v 0.02033 -0.05277 -0.03876
v 0.02039 -0.05131 -0.03808
v 0.02042 -0.05043 -0.03798
v 0.02043 -0.05007 -0.03723
v 0.02054 0.03245 -0.65160
v 0.02075 -0.04983 -0.03792
v 0.02082 -0.05231 -0.03887
v 0.02100 -0.03626 -0.75087
v 0.02102 -0.03592 -0.75096
v 0.02131 -0.05131 -0.03823
v 0.02133 -0.05092 -0.03788
v 0.02137 -0.05220 -0.03846
v 0.02138 -0.05309 -0.03930
v 0.02139 -0.05266 -0.03900
v 0.02142 -0.05187 -0.17600
v 0.02143 -0.08168 -0.43218
v 0.02162 -0.05181 -0.03880
v 0.02165 -0.03617 -0.75046
v 0.02182 -0.03521 -0.75111
v 0.02187 -0.05313 -0.03945
v 0.02201 -0.03610 -0.75110
v 0.02207 -0.03585 -0.75112
v 0.02223 -0.03608 -0.75117
v 0.02234 -0.05274 -0.03950
v 0.02255 -0.03600 -0.75094
v 0.02260 -0.05281 -0.03912
v 0.02270 -0.05202 -0.03873
v 0.02280 -0.05389 -0.03991
v 0.02283 -0.05340 -0.03943
v 0.02300 -0.05320 -0.03973
v 0.02345 -0.05332 -0.03982
v 0.02349 -0.08256 -0.54173
v 0.02435 -0.03570 -0.75044
v 0.02436 -0.03548 -0.75050
v 0.02490 -0.03942 -0.15350
v 0.02492 0.02820 -0.61292
v 0.02494 -0.05343 -0.04045
v 0.02499 -0.05335 -0.04020
v 0.02508 -0.03559 -0.75058
v 0.02509 0.01115 -0.06539
v 0.02512 -0.05259 -0.03978
v 0.02548 -0.05314 -0.04041
v 0.02595 -0.05325 -0.04046
v 0.02702 -0.05163 -0.04029
v 0.02710 -0.04945 -0.04029
v 0.02712 0.02851 -0.02191
v 0.02723 -0.05238 -0.04054
v 0.02745 -0.05173 -0.04034
v 0.02756 -0.05126 -0.04027
v 0.02762 0.01571 -0.13493
v 0.02765 -0.04914 -0.03883
v 0.02776 -0.00808 -0.13540
v 0.02820 -0.05025 -0.04015
v 0.02848 -0.05004 -0.03964
v 0.02858 -0.04963 -0.03966
v 0.02874 0.02127 -0.21648
v 0.02900 -0.04974 -0.03969
v 0.02908 -0.05075 -0.04018
v 0.02911 -0.04513 -0.03840
v 0.02918 -0.04540 -0.03783
v 0.02930 -0.02996 -0.13506
v 0.02944 -0.04800 -0.03968
v 0.02961 -0.04388 -0.03770
v 0.02980 -0.04146 -0.03597
v 0.02980 -0.04716 -0.03865
v 0.03007 -0.04611 -0.03869
v 0.03009 0.01296 -0.42546
v 0.03010 -0.04462 -0.03811
v 0.03011 -0.04900 -0.03966
v 0.03015 -0.04753 -0.03924
v 0.03022 0.02191 -0.56245
v 0.03041 0.01510 -0.18287
v 0.03042 -0.04985 -0.04001
v 0.03054 -0.04409 -0.03798
v 0.03055 0.01204 -0.76092
v 0.03055 -0.04473 -0.03825
v 0.03056 -0.04621 -0.03881
v 0.03061 -0.04762 -0.03932
v 0.03062 -0.02701 -0.11614
v 0.03063 -0.04717 -0.03928
v 0.03066 -0.04911 -0.03974
v 0.03067 -0.04348 -0.03783
v 0.03077 -0.04559 -0.03865
v 0.03083 -0.05034 -0.19443
v 0.03109 -0.04252 -0.03761
v 0.03127 0.01047 -0.48725
v 0.03132 -0.04849 -0.03961
v 0.03158 -0.04261 -0.03779
v 0.03160 0.03539 -0.03950
v 0.03194 0.01393 -0.37515
v 0.03195 0.03003 -0.69743
v 0.03196 -0.04173 -0.03743
v 0.03219 -0.04082 -0.03885
v 0.03226 0.01242 -0.34126
v 0.03228 0.00713 -0.38880
v 0.03456 0.00405 -0.06477
v 0.03474 -0.02139 -0.06845
v 0.03487 0.01862 -0.74562
v 0.03510 -0.04976 -0.22368
v 0.03581 0.01264 -0.27457
v 0.03600 0.02499 -0.04735
v 0.03621 -0.03136 -0.14440
v 0.03676 -0.04222 -0.04030
v 0.03679 -0.06336 -0.37378
v 0.03789 -0.00630 -0.12149
v 0.03821 -0.01367 -0.05695
v 0.03827 -0.06354 -0.43855
v 0.03850 -0.05862 -0.69491
v 0.03851 -0.03393 -0.05050
v 0.03865 -0.06987 -0.54660
v 0.03907 -0.01891 -0.14924
v 0.03999 -0.07731 -0.60243
v 0.04010 -0.05842 -0.41287
v 0.04013 0.02088 -0.03117
v 0.04027 -0.04218 -0.04168
v 0.04029 -0.04223 -0.04205
v 0.04033 -0.04799 -0.28586
v 0.04042 -0.04270 -0.04202
v 0.04049 0.02506 -0.03229
v 0.04053 -0.04319 -0.19753
v 0.04055 0.02459 -0.03226
v 0.04079 0.02354 -0.03133
v 0.04079 -0.04200 -0.04265
v 0.04098 -0.03044 -0.74962
v 0.04113 0.02390 -0.03194
v 0.04122 -0.04916 -0.33619
v 0.04123 0.02374 -0.03148
v 0.04123 0.02368 -0.03094
v 0.04132 0.02344 -0.03152
v 0.04147 0.02329 -0.03081
v 0.04152 -0.04200 -0.04233
v 0.04156 0.02292 -0.03083
v 0.04176 0.02295 -0.03148
v 0.04183 -0.04251 -0.04269
v 0.04190 0.01678 -0.61696
v 0.04190 -0.05821 -0.49986
v 0.04213 0.02209 -0.03075
v 0.04230 -0.04748 -0.70904
v 0.04231 0.02147 -0.03039
v 0.04244 -0.01283 -0.50839
v 0.04252 0.02164 -0.03052
v 0.04256 -0.00125 -0.75682
v 0.04345 0.01988 -0.03163
v 0.04348 0.02089 -0.03173
v 0.04356 -0.01886 -0.42783
v 0.04381 0.02070 -0.03173
v 0.04387 -0.07258 -0.63582
v 0.04394 -0.04223 -0.04407
v 0.04437 -0.01629 -0.46468
v 0.04441 -0.04554 -0.37376
v 0.04446 0.02008 -0.03237
v 0.04482 -0.04208 -0.31825
v 0.04490 0.01937 -0.03266
v 0.04502 -0.03796 -0.73459
v 0.04506 0.01950 -0.03336
v 0.04519 -0.01118 -0.54294
v 0.04525 0.01888 -0.03335
v 0.04535 0.01923 -0.03270
v 0.04539 -0.02165 -0.35968
v 0.04561 0.01944 -0.03215
v 0.04566 -0.02262 -0.75246
v 0.04566 0.01747 -0.64232
v 0.04566 -0.03916 -0.46168
v 0.04566 0.01878 -0.03342
v 0.04574 -0.04113 -0.40780
v 0.04576 0.01904 -0.03266
v 0.04578 0.01805 -0.03360
v 0.04579 -0.04277 -0.04481
v 0.04585 -0.02281 -0.75199
v 0.04588 -0.02250 -0.75199
v 0.04599 0.01882 -0.03307
v 0.04612 0.01854 -0.03337
v 0.04618 0.01808 -0.03410
v 0.04630 -0.04269 -0.04507
v 0.04635 -0.04240 -0.04491
v 0.04652 0.01791 -0.03406
v 0.04655 0.01825 -0.03377
v 0.04656 -0.02060 -0.17475
v 0.04656 -0.04223 -0.04473
v 0.04660 -0.00948 -0.30480
v 0.04684 0.01750 -0.03415
v 0.04689 0.01799 -0.03359
v 0.04691 -0.04248 -0.04539
v 0.04697 0.01777 -0.03407
v 0.04704 -0.00010 -0.57902
v 0.04734 -0.04227 -0.04543
v 0.04781 -0.04235 -0.04548
v 0.04818 -0.05169 -0.53040
v 0.04827 -0.04151 -0.04517
v 0.04860 -0.03610 -0.24079
v 0.04862 -0.01032 -0.25478
v 0.04881 -0.04200 -0.04603
v 0.04881 -0.04140 -0.04600
v 0.04886 -0.01281 -0.75366
v 0.04917 -0.04196 -0.04614
v 0.04919 -0.04151 -0.04596
v 0.04957 -0.00377 -0.05023
v 0.04966 -0.04136 -0.04605
v 0.05001 -0.01712 -0.21606
v 0.05008 -0.02608 -0.27226
v 0.05014 -0.04606 -0.54997
v 0.05053 -0.04099 -0.04668
v 0.05057 -0.04064 -0.04647
v 0.05115 -0.04016 -0.04726
v 0.05140 -0.04101 -0.04678
v 0.05170 -0.02502 -0.03939
v 0.05183 -0.06009 -0.59009
v 0.05196 -0.04010 -0.04731
v 0.05206 -0.03974 -0.04707
v 0.05219 0.01237 -0.73646
v 0.05251 -0.03914 -0.04735
v 0.05269 -0.04017 -0.04754
v 0.05330 -0.03734 -0.04679
v 0.05340 -0.03688 -0.04644
v 0.05423 -0.03742 -0.58022
v 0.05449 -0.03304 -0.04560
v 0.05467 -0.03327 -0.04505
v 0.05487 -0.04814 -0.69151
v 0.05548 -0.05706 -0.65044
v 0.05589 0.00985 -0.03855
v 0.05593 -0.03099 -0.04526
v 0.05610 -0.03048 -0.04496
v 0.05615 -0.02974 -0.04505
v 0.05629 -0.01434 -0.03458
v 0.05639 -0.03020 -0.04509
v 0.05642 -0.01527 -0.61376
v 0.05700 -0.02859 -0.04536
v 0.05713 -0.02807 -0.04511
v 0.05729 -0.02745 -0.04481
v 0.05733 -0.02697 -0.04498
v 0.05746 -0.02832 -0.04580
v 0.05781 -0.02343 -0.04203
v 0.05792 -0.02510 -0.04420
v 0.05812 -0.02305 -0.04319
v 0.05823 -0.02250 -0.04298
v 0.05825 -0.02133 -0.04289
v 0.05837 -0.02184 -0.04278
v 0.05838 -0.02327 -0.04330
v 0.05838 -0.02779 -0.72059
v 0.05884 -0.02111 -0.04312
v 0.05892 -0.01282 -0.04294
v 0.05894 -0.01672 -0.04205
v 0.05907 -0.01950 -0.04272
v 0.05916 -0.01879 -0.04248
v 0.05926 -0.01811 -0.04235
v 0.05927 -0.00473 -0.67846
v 0.05935 -0.03697 -0.61027
v 0.05936 -0.01525 -0.04159
v 0.05941 -0.01946 -0.04320
v 0.05949 -0.01488 -0.04235
v 0.05952 -0.01744 -0.04225
v 0.05967 -0.01636 -0.04264
v 0.05968 -0.01501 -0.04240
v 0.05993 0.00059 -0.04339
v 0.06002 0.00111 -0.04298
v 0.06004 0.00059 -0.04313
v 0.06020 -0.00390 -0.72456
v 0.06030 -0.01054 -0.04406
v 0.06055 -0.01068 -0.04412
v 0.06083 -0.00516 -0.04641
v 0.06263 -0.03792 -0.64085
v 0.06334 -0.02676 -0.68883
vn -0.9992 -0.0193 -0.0336
vn -0.9793 -0.1982 0.0412
vn -0.9824 -0.1574 0.1008
vn -0.9061 0.4117 -0.0975
vn -0.9865 0.0558 -0.1537
vn -0.9403 0.3268 0.0950
vn -0.9149 0.3989 -0.0622
vn -0.8929 0.4480 0.0455
vn -0.9287 0.3406 0.1467
vn -0.8886 -0.4453 -0.1099
vn -0.9940 -0.0322 -0.1047
vn -0.8251 -0.5632 -0.0460
vn -0.9638 -0.1865 0.1904
vn -0.8006 -0.5985 0.0293
vn -0.9244 0.3443 0.1641
vn -0.8710 0.4785 -0.1111
vn -0.6181 0.7858 -0.0207
vn -0.7532 0.6470 -0.1183
vn -0.8624 -0.4855 -0.1436
vn -0.7905 -0.6025 0.1099
vn -0.9608 0.2225 -0.1651
vn -0.9682 0.1159 0.2218
vn -0.7789 -0.6160 -0.1175
vn -0.8298 0.5199 -0.2030
vn -0.9688 0.0927 0.2298
vn -0.6729 0.7384 0.0453
vn -0.9438 -0.2686 -0.1926
vn -0.5796 0.8032 -0.1379
vn -0.7698 0.6355 -0.0601
vn -0.7793 0.6041 0.1667
vn -0.8112 -0.5351 0.2359
vn -0.6195 -0.7814 -0.0754
vn -0.9139 0.3983 -0.0783
vn -0.9437 -0.2197 0.2474
vn -0.9434 -0.3304 -0.0299
vn -0.5715 -0.8203 -0.0208
vn -0.9608 -0.1558 -0.2293
vn -0.8556 -0.4442 0.2657
vn -0.5535 0.8166 -0.1635
vn -0.7873 -0.5202 0.3310
vn -0.4153 0.9003 -0.1302
vn -0.4861 -0.8707 0.0741
vn -0.7514 0.6528 0.0966
vn -0.9688 -0.1361 -0.2073
vn -0.8490 0.4945 -0.1862
vn -0.9290 0.2765 -0.2460
vn -0.7632 0.6316 0.1367
vn -0.4985 -0.8530 0.1545
vn -0.9078 0.3367 0.2501
vn -0.4752 0.8765 -0.0771
vn -0.7131 -0.6972 0.0732
vn -0.9423 -0.0998 0.3196
vn -0.8059 -0.5675 -0.1686
vn -0.7561 -0.6338 -0.1628
vn -0.9129 0.3932 0.1099
vn -0.7687 -0.6143 -0.1781
vn -0.9326 0.2996 0.2011
vn -0.9807 -0.1288 -0.1472
vn -0.5627 -0.8240 -0.0664
vn -0.6286 -0.7684 0.1202
vn -0.5900 -0.8063 -0.0426
vn -0.8643 0.4688 -0.1824
vn -0.8088 0.0030 0.5881
vn -0.6418 0.7208 0.2618
vn -0.5814 0.8099 0.0779
vn -0.4463 0.8860 -0.1256
vn -0.9244 0.2451 -0.2922
vn -0.9691 -0.1076 0.2221
vn -0.8619 -0.4210 -0.2826
vn -0.7729 0.5694 0.2800
vn -0.4872 0.8733 0.0001
vn -0.4852 0.8710 -0.0772
vn -0.7963 -0.5048 0.3333
vn -0.8408 -0.5383 -0.0572
vn -0.6370 0.6547 0.4069
vn 0.8341 0.4074 -0.3719
vn -0.8769 -0.4451 0.1816
vn -0.5360 -0.3204 0.7811
vn -0.4170 -0.9059 -0.0737
vn -0.8970 -0.3328 0.2909
vn -0.9060 -0.2945 0.3042
vn -0.4498 0.8877 -0.0978
vn -0.4761 -0.8113 -0.3393
vn -0.1513 -0.9165 -0.3703
vn -0.2055 -0.8979 -0.3893
vn -0.1273 -0.9137 -0.3860
vn -0.1644 -0.9026 -0.3979
vn -0.2813 -0.8998 -0.3336
vn -0.2980 0.9509 -0.0839
vn -0.1449 -0.8980 -0.4154
vn -0.1363 -0.9007 -0.4125
vn -0.4265 -0.4595 0.7791
vn -0.1194 -0.9189 -0.3759
vn -0.1316 -0.9112 -0.3904
vn -0.2367 -0.9111 -0.3375
vn -0.5460 0.8247 -0.1476
vn -0.2947 -0.8933 -0.3393
vn -0.9337 -0.1133 -0.3395
vn -0.7610 -0.6123 -0.2144
vn -0.3426 -0.8638 -0.3694
vn -0.3120 0.9497 0.0288
vn -0.4032 0.9121 0.0738
vn -0.6623 -0.4090 0.6277
vn -0.8122 -0.3909 0.4330
vn -0.7862 -0.5265 0.3236
vn -0.4797 -0.8354 0.2684
vn 0.5662 0.4818 0.6688
vn -0.2539 -0.2990 0.9199
vn -0.5873 -0.6101 0.5318
vn -0.7462 -0.5842 0.3192
vn -0.5578 0.8168 -0.1474
vn -0.5985 0.7769 -0.1954
vn -0.2170 -0.9760 -0.0201
vn -0.4581 -0.7138 0.5298
vn -0.8755 -0.4746 0.0906
vn -0.3300 -0.3285 0.8850
vn -0.7579 -0.5765 0.3052
vn -0.7965 -0.5403 -0.2714
vn -0.7830 -0.4824 0.3927
vn -0.6240 -0.4147 0.6623
vn -0.3185 -0.1186 0.9405
vn -0.6914 -0.7180 -0.0797
vn -0.6029 0.7973 0.0286
vn -0.3004 -0.9528 0.0432
vn -0.5993 0.6188 0.5079
vn -0.6898 -0.6675 0.2804
vn -0.6752 0.7017 -0.2275
vn -0.3863 0.9219 0.0289
vn -0.5809 -0.7828 -0.2232
vn -0.4286 -0.8223 0.3743
vn -0.3902 -0.9199 -0.0380
vn -0.2811 -0.9537 -0.1066
vn -0.2573 -0.4566 0.8516
vn -0.5179 -0.8326 -0.1963
vn -0.3904 0.8876 0.2445
vn -0.5713 -0.7512 -0.3307
vn -0.9566 -0.0938 -0.2761
vn -0.0208 -0.3844 0.9229
vn -0.4572 -0.6322 0.6256
vn -0.7117 -0.7025 0.0010
vn -0.4291 -0.8945 0.1251
vn -0.4689 -0.7324 0.4937
vn -0.0482 -0.3675 0.9288
vn -0.3822 -0.7538 0.5346
vn -0.6575 -0.7533 0.0145
vn -0.3685 0.9252 -0.0903
vn -0.6045 -0.7957 0.0375
vn 0.4950 -0.1565 0.8547
vn -0.6264 -0.7792 0.0189
vn -0.7156 -0.6467 -0.2642
vn -0.2396 -0.7752 0.5846
vn -0.4051 -0.8958 -0.1826
vn -0.7995 -0.5593 -0.2191
vn -0.7937 -0.4005 0.4578
vn -0.8294 -0.2830 -0.4816
vn -0.4227 0.8956 -0.1388
vn -0.5785 -0.6529 0.4889
vn -0.7132 -0.6941 -0.0981
vn -0.5514 -0.8167 -0.1700
vn 0.5328 0.3255 0.7811
vn 0.4424 -0.1704 0.8805
vn -0.1713 -0.9813 -0.0877
vn 0.3391 0.4903 0.8029
vn -0.1025 -0.3418 0.9342
vn -0.5590 -0.7661 -0.3173
vn -0.2089 -0.9697 0.1266
vn -0.2468 -0.7195 -0.6492
vn -0.3564 -0.8844 0.3014
vn -0.0892 -0.5584 0.8248
vn -0.4122 0.5311 0.7402
vn -0.5520 0.6648 0.5033
vn -0.4336 0.8309 0.3486
vn -0.3536 0.9314 0.0858
vn -0.1048 -0.9901 0.0932
vn -0.9199 0.3070 -0.2440
vn -0.8314 0.5522 -0.0613
vn -0.1301 0.9912 0.0232
vn -0.1821 -0.9685 0.1698
vn -0.8861 0.3360 -0.3192
vn -0.2719 -0.9623 0.0096
vn -0.9297 0.3445 0.1303
vn -0.8946 0.4393 0.0822
vn -0.8553 0.4880 0.1744
vn -0.8402 0.4681 -0.2738
vn -0.6050 0.7943 -0.0545
vn 0.0893 0.9938 -0.0662
vn -0.8380 0.5053 -0.2060
vn -0.2401 -0.5978 0.7649
vn -0.7959 0.5640 -0.2202
vn -0.8293 0.5553 0.0630
vn 0.0249 0.9991 -0.0341
vn 0.1058 -0.8435 -0.5267
vn -0.3355 0.7640 0.5512
vn 0.0853 0.9945 -0.0602
vn -0.8112 0.5768 -0.0961
vn -0.1387 -0.1258 0.9823
vn -0.4786 0.7695 0.4229
vn 0.0299 0.9909 -0.1312
vn -0.5767 0.7305 -0.3658
vn -0.5765 0.2232 -0.7860
vn 0.0939 0.9930 -0.0717
vn 0.0137 -0.9999 -0.0009
vn -0.5479 0.8270 -0.1259
vn -0.1665 -0.9860 -0.0097
vn -0.4594 0.8844 -0.0824
vn -0.3523 -0.9136 -0.2030
vn -0.5272 -0.7891 -0.3153
vn -0.0750 -0.4496 0.8901
vn 0.0165 0.9994 0.0308
vn -0.0404 -0.8372 -0.5454
vn -0.3159 0.8380 0.4449
vn 0.0168 -0.9987 -0.0484
vn -0.5068 0.8496 0.1456
vn -0.3239 -0.4586 0.8275
vn -0.7228 0.6798 -0.1246
vn 0.0188 0.9785 0.2055
vn -0.1697 -0.9853 -0.0173
vn -0.2648 0.8073 0.5274
vn -0.3491 -0.8772 -0.3296
vn -0.1591 -0.9867 -0.0340
vn -0.6616 -0.4221 0.6197
vn -0.1442 -0.5403 0.8290
vn 0.7112 0.6604 -0.2410
vn -0.3017 0.8547 0.4225
vn 0.3445 -0.7435 0.5732
vn -0.6246 0.7767 0.0815
vn -0.6363 0.7595 0.1350
vn -0.3881 0.9167 -0.0944
vn 0.1665 0.9856 -0.0301
vn -0.3708 -0.4159 0.8304
vn 0.0912 0.0126 0.9958
vn -0.6915 0.4913 0.5296
vn 0.0002 -0.1949 0.9808
vn -0.0109 -0.9682 0.2501
vn -0.2166 0.7328 0.6450
vn 0.0571 0.8501 0.5235
vn 0.1256 -0.9504 0.2845
vn -0.3711 0.8536 0.3656
vn 0.1903 0.9768 -0.0986
vn -0.5809 0.8095 0.0853
vn 0.3149 0.0166 0.9490
vn 0.1042 -0.9941 0.0301
vn -0.2537 0.9629 -0.0921
vn -0.2095 0.7926 0.5726
vn 0.0086 -0.9997 -0.0222
vn 0.3615 0.2905 -0.8860
vn -0.4033 -0.6672 -0.6262
vn 0.1495 0.9874 -0.0518
vn 0.2336 -0.4051 0.8839
vn -0.3455 0.8816 0.3216
vn 0.1250 0.3758 0.9182
vn -0.3485 0.7097 0.6122
vn -0.1585 -0.8588 0.4872
vn 0.0513 0.9987 0.0058
vn 0.0883 -0.7178 -0.6907
vn 0.2998 -0.9249 0.2340
vn -0.2479 0.9615 -0.1183
vn -0.2670 0.9614 0.0659
vn -0.0978 0.7757 0.6235
vn -0.1332 -0.8486 0.5120
vn 0.1078 0.9941 0.0150
vn 0.3880 -0.6674 -0.6357
vn 0.6083 -0.7697 -0.1938
vn 0.2165 -0.9702 0.1093
vn -0.1878 -0.4503 0.8729
vn 0.0878 0.4351 0.8961
vn -0.0712 -0.6043 0.7936
vn -0.0611 -0.9946 -0.0844
vn 0.0079 0.9973 -0.0734
vn 0.1086 -0.9751 -0.1932
vn -0.0311 -0.9870 -0.1579
vn -0.0683 -0.4492 -0.8908
vn 0.0866 0.7712 0.6307
vn 0.2589 0.0021 0.9659
vn -0.2380 0.9028 0.3582
vn 0.2222 -0.9622 0.1573
vn -0.2236 -0.9108 0.3472
vn 0.2637 -0.1575 -0.9517
vn 0.1075 -0.9938 0.0296
vn -0.0872 0.9912 -0.0991
vn 0.3325 0.9431 -0.0009
vn -0.5607 0.0064 0.8280
vn 0.4969 0.8647 -0.0734
vn 0.0551 -0.9094 0.4123
vn -0.0468 -0.9963 -0.0725
vn 0.1156 -0.2704 -0.9558
vn -0.5310 0.8308 0.1668
vn -0.6854 0.7018 0.1945
vn -0.2757 -0.5253 0.8050
vn 0.1306 -0.5301 -0.8378
vn 0.0307 0.8082 0.5881
vn -0.0388 -0.5341 0.8445
vn 0.1307 -0.2883 -0.9486
vn 0.7446 0.6323 0.2138
vn -0.9025 0.3275 -0.2797
vn 0.0029 -0.8078 0.5894
vn 0.8348 -0.4342 -0.3386
vn -0.6282 0.7770 -0.0405
vn -0.0371 0.4325 -0.9009
vn -0.3472 -0.7761 0.5264
vn 0.0418 -0.5353 -0.8436
vn -0.6079 0.7940 -0.0034
vn 0.4831 0.8752 0.0247
vn -0.1889 -0.9149 -0.3567
vn 0.6288 -0.6938 0.3510
vn 0.4664 -0.8322 -0.2999
vn -0.2263 0.9149 0.3342
vn -0.0549 -0.7848 0.6173
vn 0.1740 0.4752 0.8625
vn -0.2844 -0.8959 0.3412
vn -0.1570 -0.5875 -0.7938
vn 0.2294 0.4827 0.8452
vn -0.5595 0.8287 0.0100
vn -0.3099 0.9497 0.0448
vn -0.1661 0.9715 0.1692
vn 0.0586 0.0518 -0.9969
vn -0.4880 0.6036 0.6305
vn 0.7814 0.4569 0.4251
vn -0.3769 0.9247 -0.0545
vn -0.0323 -0.4491 0.8929
vn 0.8292 -0.3088 -0.4659
vn 0.1219 -0.6546 0.7461
vn 0.1803 -0.9816 0.0627
vn 0.2686 -0.6102 -0.7453
vn 0.9007 0.4243 0.0934
vn 0.2835 -0.7565 0.5894
vn 0.2825 0.9589 -0.0270
vn 0.9579 -0.2806 -0.0615
vn 0.5417 0.7732 -0.3298
vn 0.1625 -0.2610 -0.9516
vn 0.0361 -0.2291 0.9727
vn 0.1271 -0.1180 -0.9849
vn 0.6788 0.7341 -0.0212
vn -0.2518 0.9663 -0.0539
vn 0.0673 0.0783 -0.9947
vn 0.4570 0.8894 -0.0133
vn 0.4490 0.3039 0.8403
vn 0.7348 0.6574 -0.1670
vn -0.0821 -0.5644 0.8214
vn 0.2556 -0.0355 -0.9661
vn -0.0185 -0.4737 0.8805
vn 0.4621 0.8682 0.1809
vn -0.4413 -0.8092 0.3878
vn 0.2784 0.9594 0.0464
vn 0.3204 -0.0458 -0.9462
vn -0.2129 -0.2159 -0.9529
vn -0.3653 0.6417 -0.6744
vn 0.1818 0.1771 -0.9672
vn 0.3709 0.9154 0.1566
vn 0.0816 0.4388 -0.8949
vn -0.1206 -0.4626 0.8783
vn -0.0516 -0.5681 0.8214
vn 0.4202 -0.1187 -0.8996
vn 0.5436 -0.7875 -0.2903
vn 0.2474 -0.6588 -0.7105
vn 0.4973 -0.8497 0.1755
vn -0.6756 0.6949 -0.2466
vn 0.7970 0.0301 -0.6033
vn 0.0943 -0.6233 0.7763
vn 0.1777 -0.0486 -0.9829
vn 0.1732 -0.8367 -0.5196
vn 0.5098 -0.8542 0.1018
vn 0.2004 -0.9797 -0.0046
vn 0.1565 -0.8088 0.5668
vn 0.1293 -0.9601 0.2481
vn 0.2257 -0.2131 -0.9506
vn 0.2238 0.6635 -0.7140
vn 0.1783 -0.1827 -0.9669
vn 0.4778 -0.8779 0.0304
vn 0.9277 0.2375 -0.2880
vn 0.1489 -0.4903 0.8587
vn 0.0027 -0.9371 -0.3490
vn 0.0717 -0.7778 0.6245
vn 0.4789 0.1642 -0.8623
vn 0.4869 0.0773 -0.8700
vn -0.0584 -0.9925 0.1070
vn 0.5772 0.8158 0.0356
vn 0.1955 0.2930 -0.9359
vn 0.5456 0.8379 0.0172
vn 0.3112 -0.5110 0.8013
vn -0.0222 0.0037 -0.9997
vn 0.0039 0.9793 -0.2022
vn -0.9505 0.2771 -0.1407
vn 0.8296 -0.4082 -0.3811
vn 0.0417 -0.4832 0.8745
vn -0.0662 0.3963 -0.9157
vn 0.0378 -0.9684 -0.2466
vn 0.1223 -0.7730 0.6225
vn 0.6029 0.7942 -0.0755
vn 0.3128 0.1354 -0.9401
vn 0.8346 -0.1337 0.5344
vn 0.0101 -0.6515 0.7586
vn -0.1590 0.0983 -0.9824
vn 0.1900 -0.9046 0.3814
vn 0.6609 -0.6589 0.3592
vn 0.0192 -0.9778 -0.2088
vn 0.1405 -0.9158 -0.3763
vn 0.6816 0.7315 0.0192
vn 0.1288 -0.1607 -0.9786
vn -0.0128 0.4317 -0.9019
vn 0.0166 -0.8734 0.4867
vn -0.0465 0.3918 -0.9189
vn -0.0614 0.9958 -0.0679
vn 0.0118 -0.7014 0.7127
vn 0.3195 -0.6581 0.6818
vn 0.4870 0.8717 -0.0543
vn 0.2871 -0.2057 0.9356
vn 0.6418 -0.7608 0.0960
vn 0.1331 -0.7203 0.6808
vn -0.3621 0.4883 -0.7940
vn 0.0361 -0.2197 -0.9749
vn -0.0037 -0.9565 0.2916
vn -0.1090 0.3837 -0.9170
vn 0.2533 -0.7054 -0.6619
vn 0.1174 -0.9381 -0.3258
vn 0.5166 0.8560 -0.0188
vn 0.5001 -0.8659 0.0129
vn 0.6518 -0.7513 0.1037
vn -0.4357 0.0652 -0.8977
vn 0.8644 0.2180 -0.4531
vn -0.0491 0.6348 -0.7712
vn 0.0007 -0.6846 0.7289
vn -0.0265 -0.5051 0.8626
vn 0.1185 -0.4058 0.9062
vn -0.3750 0.3723 -0.8490
vn -0.5416 -0.7756 0.3242
vn 0.2547 -0.6491 0.7168
vn -0.1508 0.3996 -0.9042
vn -0.0408 -0.7309 0.6812
vn -0.2241 0.9744 0.0162
vn -0.3404 0.3583 -0.8693
vn -0.2701 0.3762 -0.8863
vn 0.2982 -0.8671 -0.3990
vn 0.1806 -0.6974 -0.6936
vn -0.5600 -0.7840 0.2678
vn -0.0812 -0.6830 0.7259
vn 0.2756 -0.3712 0.8867
vn -0.1801 -0.5577 -0.8103
vn -0.0007 -0.8422 0.5391
vn 0.2651 -0.9066 0.3284
vn 0.4545 -0.8903 -0.0286
vn -0.5649 0.3163 -0.7621
vn -0.0518 -0.7969 -0.6019
vn 0.0958 -0.5089 -0.8555
vn -0.4646 -0.7835 0.4126
vn -0.8134 -0.3603 -0.4567
vn 0.0391 -0.9063 -0.4208
vn 0.3678 0.0747 -0.9269
vn -0.2869 0.2042 -0.9359
vn 0.2076 -0.8045 -0.5565
vn 0.1725 -0.5183 0.8376
vn 0.2567 -0.5342 0.8054
vn -0.2648 -0.3590 -0.8950
vn 0.1629 -0.5092 0.8451
vn -0.0570 0.1747 -0.9830
vn 0.2542 -0.6257 0.7375
vn 0.3486 -0.9366 0.0362
vn 0.2467 -0.8571 0.4523
vn 0.3065 -0.9412 -0.1422
vn 0.4439 -0.8236 0.3530
vn 0.3778 0.9242 0.0559
vn -0.4647 0.4030 -0.7884
vn 0.1396 -0.8523 0.5041
vn 0.1646 -0.3844 -0.9084
vn 0.7159 0.5175 -0.4688
vn 0.3217 -0.6639 0.6751
vn 0.4353 -0.5646 -0.7012
vn -0.0964 0.0556 -0.9938
vn 0.9849 -0.1617 0.0613
vn -0.2454 0.3845 -0.8899
vn 0.5347 0.3371 0.7749
vn 0.6611 -0.6912 -0.2919
vn 0.3233 -0.2074 0.9233
vn 0.7406 -0.4870 0.4629
vn 0.7964 0.5894 -0.1356
vn 0.3590 -0.4538 0.8156
vn 0.9325 0.3597 0.0315
vn -0.0555 0.3477 -0.9360
vn -0.2388 -0.5973 0.7656
vn 0.8214 0.0131 -0.5702
vn 0.7587 0.6502 0.0405
vn 0.0956 -0.9903 0.1008
vn 0.7445 -0.6529 -0.1390
vn 0.0380 0.2691 -0.9624
vn 0.7562 -0.2603 0.6003
vn 0.7609 -0.5261 0.3797
vn -0.0603 0.3937 -0.9173
vn -0.2974 0.3204 -0.8994
vn 0.3397 -0.3681 0.8655
vn 0.3411 -0.2914 0.8937
vn 0.4625 0.4309 -0.7749
vn 0.8074 0.5900 0.0061
vn 0.4525 -0.1645 0.8764
vn 0.6599 -0.5135 0.5485
vn 0.2724 0.0721 -0.9595
vn 0.6441 0.7577 0.1044
vn 0.7818 0.5907 0.1997
vn 0.3713 -0.3429 -0.8629
vn 0.3732 -0.5640 0.7366
vn 0.0156 0.5306 -0.8475
vn 0.8389 0.3317 0.4316
vn 0.5101 -0.1673 0.8437
vn 0.5239 0.6188 -0.5853
vn 0.6907 -0.6559 0.3044
vn 0.5560 0.3246 -0.7652
vn 0.6924 -0.5251 0.4949
vn 0.9207 -0.3767 0.1018
vn 0.9400 -0.3299 0.0867
vn 0.3681 -0.9275 0.0646
vn 0.5444 -0.7781 -0.3134
vn 0.8391 0.5439 0.0112
vn 0.4597 -0.4054 0.7901
vn 0.7278 -0.6176 0.2981
vn 0.4705 0.8609 -0.1933
vn 0.8489 0.5220 -0.0828
vn 0.5490 0.8355 -0.0248
vn 0.4342 -0.4763 0.7646
vn -0.4880 -0.5351 -0.6896
vn 0.7854 0.6181 -0.0327
vn 0.9072 0.4204 -0.0142
vn 0.6913 0.2458 -0.6794
vn 0.3580 -0.5875 -0.7257
vn 0.3187 0.8836 -0.3431
vn 0.4912 -0.8681 0.0715
vn 0.8204 0.5713 -0.0238
vn 0.6186 0.5320 -0.5782
vn 0.7853 -0.5846 0.2037
vn 0.3747 -0.4853 0.7900
vn 0.8096 -0.5854 0.0443
vn 0.8604 0.2814 0.4249
vn 0.7924 -0.0576 -0.6073
vn 0.8363 -0.5481 0.0118
vn 0.2456 -0.9087 -0.3375
vn 0.0677 -0.7023 -0.7086
vn 0.7776 -0.6205 0.1016
vn 0.8802 0.3388 0.3324
vn 0.5022 -0.8645 0.0215
vn 0.8136 -0.5811 0.0202
vn 0.5754 0.5968 0.5593
vn 0.4071 -0.3799 0.8306
vn 0.4402 -0.5245 0.7288
vn 0.8813 -0.4720 -0.0220
vn 0.0361 -0.9841 0.1738
vn -0.3440 0.3074 0.8872
vn 0.8380 -0.5167 0.1753
vn 0.6452 0.5802 -0.4971
vn -0.3037 -0.0338 0.9522
vn -0.3628 -0.5951 -0.7171
vn 0.3208 -0.4471 -0.8350
vn 0.7957 0.5659 -0.2160
vn 0.8336 -0.5491 0.0607
vn 0.4725 0.8803 0.0426
vn 0.5234 0.7796 0.3438
vn 0.8303 0.5573 0.0013
vn 0.5218 0.4060 0.7503
vn 0.3043 -0.3798 0.8736
vn 0.0328 0.1129 0.9931
vn 0.7533 0.6108 0.2440
vn 0.5026 -0.4394 0.7445
vn 0.7213 0.6852 0.1014
vn 0.9397 -0.3401 0.0358
vn -0.8118 -0.5833 0.0261
vn 0.4019 -0.8232 -0.4011
vn -0.7898 -0.5885 0.1730
vn 0.9872 0.1485 0.0576
vn 0.6563 0.3618 0.6621
vn 0.4745 0.1072 -0.8737
vn -0.0589 -0.3869 0.9202
vn 0.7966 0.2790 0.5363
vn 0.9676 0.2476 0.0486
vn 0.7629 0.4819 0.4310
vn 0.6609 -0.7430 -0.1063
vn -0.1696 -0.9643 -0.2033
vn 0.9705 0.2405 -0.0159
vn 0.9392 -0.3363 0.0692
vn 0.7114 0.6885 -0.1410
vn 0.9458 -0.3242 0.0203
vn -0.0575 -0.9903 0.1269
vn 0.4327 -0.8223 -0.3695
vn 0.7251 0.6559 -0.2098
vn 0.9305 0.3497 0.1089
vn 0.8167 0.5754 0.0436
vn 0.4651 0.8675 -0.1766
vn 0.9895 0.1323 -0.0584
vn 0.5480 0.4956 0.6738
vn 0.1106 -0.2010 -0.9733
vn 0.8295 0.5555 0.0588
vn 0.9948 -0.1012 -0.0096
vn 0.3704 0.9110 0.1812
vn 1.0000 -0.0020 -0.0024
vn -0.0412 -0.8081 0.5876
vn 0.2319 -0.2919 0.9279
vn 0.0416 -0.8628 0.5039
vn -0.0534 -0.2436 -0.9684
vn 0.0666 0.0120 0.9977
vn 0.0892 -0.7933 0.6023
vn 0.5706 0.8119 0.1232
vn 0.6374 0.7645 -0.0961
vn -0.1654 -0.9556 -0.2438
vn -0.3842 -0.3171 -0.8671
vn 0.3106 0.6334 -0.7088
vn 0.7485 0.5866 -0.3092
vn 0.9823 -0.0506 0.1806
vn 0.2894 -0.3726 0.8817
vn 0.9741 0.2217 -0.0451
vn 0.3200 -0.1586 0.9341
vn 0.2120 -0.6291 0.7479
vn -0.2445 -0.6849 -0.6864
vn 0.6793 0.3672 0.6354
vn 0.9247 0.3541 0.1398
vn 0.3969 -0.7161 0.5742
vn 0.3898 -0.6983 0.6004
vn 0.9904 -0.0770 0.1152
vn 0.4511 -0.3933 0.8011
vn 0.8392 -0.5410 0.0552
vn 0.9373 0.3484 0.0114
vn 0.0343 -0.5352 -0.8440
vn 0.3304 -0.1546 -0.9311
vn 0.8846 -0.1338 -0.4467
vn 0.0153 -0.5286 -0.8487
vn -0.5003 -0.5533 0.6661
vn 0.6275 0.1079 -0.7711
vn 0.5385 -0.6656 0.5167
vn 0.9728 0.2215 0.0685
vn 0.9857 -0.1426 -0.0901
vn 0.9815 -0.1408 0.1298
vn -0.0215 -0.5153 -0.8567
vn -0.0588 -0.5588 -0.8272
vn -0.0240 -0.4809 -0.8765
vn 0.5686 -0.3894 0.7246
vn 0.8463 -0.4648 -0.2602
vn 0.9079 -0.4117 0.0791
vn -0.0220 -0.2412 -0.9702
vn 0.6429 -0.3583 0.6769
vn 0.8258 0.5531 -0.1100
vn 0.4870 -0.1208 -0.8650
vn 0.7566 -0.2934 0.5843
vn 0.6431 0.0586 -0.7636
vn 0.5437 0.0072 -0.8393
vn 0.9878 0.0690 0.1399
vn 0.1513 0.5141 -0.8443
vn 0.5406 -0.3994 0.7405
vn 0.7765 -0.5890 -0.2239
vn 0.8283 -0.5506 -0.1036
vn 0.8723 0.4125 0.2624
vn 0.7491 -0.4010 -0.5274
vn 0.6047 -0.3234 0.7278
vn -0.5531 0.3338 -0.7633
vn 0.4884 -0.1263 0.8634
vn 0.5060 -0.4822 0.7152
vn 0.9571 0.2814 0.0692
vn -0.3340 0.1699 -0.9271
vn 0.9592 -0.2225 0.1746
vn 0.7992 -0.2990 -0.5214
vn -0.5830 0.3531 -0.7317
vn 0.1147 0.3031 -0.9460
vn 0.8133 -0.3103 0.4922
vn -0.1964 0.4167 -0.8876
vn -0.5307 0.4248 -0.7334
vn -0.5016 0.1523 -0.8516
vn -0.5423 0.2068 -0.8143
vn 0.9313 -0.3507 -0.0985
vn 0.9067 -0.2577 0.3339
vn 0.8746 -0.3923 -0.2850
vn 0.9154 -0.0822 -0.3941
vn 0.3163 -0.4154 -0.8529
vn -0.2170 0.0152 -0.9761
vn 0.7573 0.0150 -0.6529
vn 0.9626 -0.1969 0.1863
vn 0.6372 -0.7298 -0.2476
vn 0.9017 0.4295 0.0493
vn 0.9875 0.0392 0.1528
vn 0.8725 -0.1781 0.4549
vn -0.4868 0.0356 -0.8728
vn 0.9940 0.1092 -0.0025
vn 0.8893 -0.1539 0.4307
vn 0.3937 -0.0194 -0.9191
vn 0.8860 0.3244 0.3314
vn 0.3345 0.4848 -0.8081
vn 0.3123 0.5419 -0.7803
vn -0.0994 -0.4869 0.8678
vn 0.9766 0.0705 -0.2030
vn 0.9099 0.0733 0.4082
vn 0.9262 -0.0114 0.3768
vn 0.7403 -0.0735 -0.6683
vn 0.9979 -0.0256 0.0597
vn 0.9981 -0.0449 -0.0415
f 130//130 234//234 237//237
f 356//356 615//615 524//524
f 276//276 234//234 178//178
f 130//130 106//106 234//234
f 31//31 106//106 38//38
f 276//276 408//408 356//356
f 615//615 408//408 542//542
f 551//551 408//408 362//362
f 551//551 362//362 418//418
f 408//408 264//264 362//362
f 174//174 242//242 362//362
f 575//575 418//418 529//529
f 529//529 418//418 369//369
f 126//126 138//138 133//133
f 165//165 153//153 154//154
f 160//160 159//159 165//165
f 145//145 147//147 148//148
f 149//149 147//147 145//145
f 161//161 169//169 133//133
f 165//165 154//154 158//158
f 164//164 160//160 165//165
f 154//154 153//153 150//150
f 150//150 165//165 158//158
f 149//149 151//151 148//148
f 150//150 147//147 149//149
f 158//158 154//154 150//150
f 144//144 148//148 143//143
f 133//133 143//143 148//148
f 140//140 139//139 126//126
f 140//140 138//138 139//139
f 139//139 138//138 126//126
f 139//139 143//143 133//133
f 145//145 144//144 140//140
f 145//145 142//142 144//144
f 144//144 142//142 140//140
f 162//162 159//159 160//160
f 120//120 133//133 116//116
f 116//116 119//119 120//120
f 118//118 115//115 117//117
f 120//120 119//119 118//118
f 118//118 126//126 120//120
f 116//116 133//133 92//92
f 105//105 104//104 99//99
f 105//105 103//103 104//104
f 108//108 107//107 105//105
f 104//104 103//103 99//99
f 118//118 114//114 110//110
f 108//108 116//116 92//92
f 165//165 167//167 162//162
f 268//268 271//271 265//265
f 265//265 271//271 272//272
f 267//267 271//271 268//268
f 299//299 301//301 300//300
f 293//293 290//290 289//289
f 293//293 301//301 296//296
f 296//296 300//300 297//297
f 282//282 278//278 292//292
f 272//272 262//262 278//278
f 262//262 282//282 292//292
f 282//282 290//290 284//284
f 284//284 289//289 286//286
f 286//286 289//289 292//292
f 299//299 311//311 308//308
f 308//308 310//310 306//306
f 368//368 373//373 371//371
f 371//371 376//376 374//374
f 366//366 373//373 368//368
f 381//381 392//392 385//385
f 374//374 376//376 364//364
f 364//364 371//371 374//374
f 439//439 438//438 432//432
f 432//432 438//438 426//426
f 423//423 435//435 427//427
f 462//462 470//470 467//467
f 466//466 462//462 449//449
f 449//449 462//462 463//463
f 436//436 442//442 452//452
f 435//435 442//442 425//425
f 425//425 431//431 435//435
f 431//431 449//449 442//442
f 454//454 456//456 455//455
f 432//432 449//449 439//439
f 436//436 437//437 442//442
f 437//437 452//452 442//442
f 425//425 432//432 427//427
f 425//425 442//442 432//432
f 445//445 454//454 451//451
f 439//439 451//451 437//437
f 442//442 449//449 432//432
f 437//437 451//451 449//449
f 423//423 422//422 419//419
f 410//410 412//412 404//404
f 409//409 405//405 412//412
f 412//412 402//402 401//401
f 383//383 385//385 388//388
f 378//378 386//386 380//380
f 399//399 386//386 388//388
f 386//386 381//381 383//383
f 378//378 399//399 388//388
f 429//429 428//428 421//421
f 421//421 431//431 429//429
f 421//421 419//419 412//412
f 413//413 421//421 412//412
f 395//395 401//401 404//404
f 385//385 401//401 395//395
f 399//399 410//410 404//404
f 390//390 394//394 385//385
f 413//413 431//431 424//424
f 399//399 413//413 409//409
f 385//385 392//392 390//390
f 392//392 394//394 390//390
f 428//428 431//431 436//436
f 424//424 409//409 412//412
f 364//364 388//388 409//409
f 343//343 352//352 351//351
f 351//351 352//352 353//353
f 353//353 355//355 351//351
f 352//352 355//355 353//353
f 348//348 345//345 343//343
f 331//331 341//341 330//330
f 340//340 335//335 330//330
f 335//335 316//316 330//330
f 330//330 341//341 339//339
f 316//316 335//335 328//328
f 322//322 331//331 328//328
f 331//331 332//332 341//341
f 321//321 326//326 322//322
f 335//335 332//332 331//331
f 367//367 360//360 366//366
f 340//340 330//330 360//360
f 360//360 330//330 262//262
f 350//350 348//348 351//351
f 351//351 359//359 354//354
f 335//335 345//345 341//341
f 341//341 343//343 339//339
f 340//340 360//360 364//364
f 322//322 330//330 364//364
f 364//364 359//359 365//365
f 360//360 350//350 364//364
f 354//354 359//359 364//364
f 330//330 351//351 364//364
f 364//364 351//351 354//354
f 340//340 350//350 351//351
f 316//316 299//299 330//330
f 424//424 292//292 364//364
f 364//364 409//409 424//424
f 262//262 378//378 364//364
f 378//378 367//367 364//364
f 311//311 310//310 316//316
f 320//320 326//326 321//321
f 299//299 316//316 306//306
f 293//293 330//330 292//292
f 330//330 299//299 292//292
f 469//469 473//473 474//474
f 482//482 479//479 483//483
f 470//470 476//476 474//474
f 479//479 474//474 483//483
f 478//478 474//474 479//479
f 479//479 482//482 480//480
f 495//495 503//503 490//490
f 490//490 503//503 505//505
f 493//493 501//501 499//499
f 499//499 484//484 507//507
f 490//490 502//502 491//491
f 476//476 506//506 494//494
f 480//480 482//482 476//476
f 540//540 556//556 541//541
f 541//541 556//556 631//631
f 541//541 543//543 528//528
f 548//548 541//541 528//528
f 510//510 513//513 517//517
f 517//517 513//513 518//518
f 489//489 517//517 631//631
f 517//517 528//528 631//631
f 489//489 513//513 510//510
f 611//611 612//612 614//614
f 604//604 612//612 611//611
f 621//621 620//620 623//623
f 614//614 612//612 617//617
f 614//614 621//621 618//618
f 623//623 618//618 621//621
f 614//614 623//623 631//631
f 604//604 614//614 631//631
f 617//617 608//608 534//534
f 634//634 633//633 637//637
f 631//631 637//637 636//636
f 639//639 642//642 631//631
f 641//641 638//638 639//639
f 636//636 633//633 634//634
f 631//631 634//634 637//637
f 629//629 628//628 534//534
f 629//629 627//627 628//628
f 641//641 534//534 631//631
f 534//534 620//620 621//621
f 534//534 641//641 639//639
f 631//631 559//559 573//573
f 556//556 559//559 548//548
f 573//573 559//559 556//556
f 548//548 573//573 556//556
f 548//548 543//543 541//541
f 548//548 559//559 543//543
f 518//518 548//548 528//528
f 600//600 599//599 593//593
f 608//608 599//599 600//600
f 452//452 466//466 476//476
f 484//484 487//487 485//485
f 470//470 484//484 485//485
f 484//484 470//470 488//488
f 470//470 431//431 414//414
f 414//414 431//431 413//413
f 424//424 452//452 476//476
f 485//485 488//488 489//489
f 424//424 476//476 489//489
f 522//522 534//534 361//361
f 466//466 473//473 469//469
f 463//463 468//468 467//467
f 476//476 490//490 485//485
f 488//488 499//499 489//489
f 488//488 518//518 510//510
f 466//466 474//474 476//476
f 188//188 214//214 222//222
f 230//230 255//255 222//222
f 222//222 223//223 210//210
f 230//230 220//220 255//255
f 220//220 221//221 210//210
f 222//222 214//214 217//217
f 220//220 214//214 217//217
f 221//221 223//223 222//222
f 262//262 272//272 255//255
f 253//253 262//262 265//265
f 253//253 251//251 262//262
f 262//262 255//255 210//210
f 253//253 210//210 251//251
f 222//222 292//292 208//208
f 255//255 253//253 222//222
f 133//133 169//169 188//188
f 208//208 292//292 424//424
f 263//263 262//262 192//192
f 262//262 210//210 192//192
f 188//188 222//222 208//208
f 150//150 126//126 165//165
f 192//192 210//210 152//152
f 210//210 165//165 152//152
f 85//85 84//84 74//74
f 84//84 85//85 100//100
f 94//94 93//93 86//86
f 93//93 94//94 97//97
f 90//90 91//91 95//95
f 100//100 99//99 84//84
f 361//361 414//414 263//263
f 256//256 152//152 141//141
f 256//256 263//263 152//152
f 210//210 167//167 168//168
f 168//168 167//167 165//165
f 255//255 272//272 268//268
f 68//68 80//80 78//78
f 77//77 99//99 92//92
f 78//78 81//81 92//92
f 77//77 80//80 81//81
f 81//81 80//80 68//68
f 196//196 125//125 63//63
f 208//208 424//424 407//407
f 407//407 489//489 649//649
f 564//564 568//568 566//566
f 558//558 571//571 569//569
f 589//589 597//597 539//539
f 598//598 601//601 592//592
f 602//602 609//609 601//601
f 645//645 609//609 606//606
f 598//598 592//592 606//606
f 580//580 576//576 578//578
f 558//558 576//576 550//550
f 550//550 576//576 526//526
f 576//576 580//580 526//526
f 558//558 569//569 576//576
f 569//569 571//571 576//576
f 539//539 606//606 592//592
f 576//576 583//583 578//578
f 526//526 580//580 582//582
f 580//580 589//589 582//582
f 578//578 583//583 568//568
f 558//558 555//555 557//557
f 514//514 544//544 546//546
f 550//550 552//552 554//554
f 547//547 552//552 550//550
f 546//546 550//550 514//514
f 196//196 208//208 407//407
f 337//337 407//407 471//471
f 225//225 193//193 266//266
f 266//266 193//193 196//196
f 213//213 211//211 218//218
f 236//236 238//238 258//258
f 238//238 266//266 241//241
f 233//233 225//225 266//266
f 250//250 249//249 259//259
f 238//238 244//244 258//258
f 249//249 252//252 244//244
f 244//244 235//235 241//241
f 236//236 235//235 244//244
f 225//225 227//227 218//218
f 226//226 231//231 258//258
f 226//226 224//224 225//225
f 231//231 233//233 258//258
f 275//275 273//273 291//291
f 274//274 266//266 291//291
f 275//275 291//291 258//258
f 274//274 273//273 275//275
f 312//312 307//307 337//337
f 291//291 305//305 309//309
f 291//291 309//309 307//307
f 307//307 305//305 337//337
f 307//307 317//317 325//325
f 312//312 317//317 307//307
f 313//313 312//312 318//318
f 325//325 317//317 313//313
f 317//317 312//312 313//313
f 259//259 273//273 258//258
f 273//273 274//274 258//258
f 172//172 170//170 193//193
f 171//171 170//170 172//172
f 135//135 171//171 172//172
f 172//172 193//193 135//135
f 125//125 170//170 171//171
f 135//135 193//193 258//258
f 135//135 258//258 239//239
f 327//327 471//471 514//514
f 307//307 315//315 258//258
f 325//325 337//337 327//327
f 315//315 325//325 327//327
f 314//314 315//315 327//327
f 327//327 239//239 258//258
f 135//135 239//239 216//216
f 122//122 88//88 60//60
f 87//87 74//74 60//60
f 88//88 87//87 60//60
f 87//87 88//88 122//122
f 60//60 34//34 51//51
f 35//35 51//51 34//34
f 77//77 68//68 74//74
f 57//57 68//68 63//63
f 68//68 57//57 49//49
f 49//49 57//57 64//64
f 49//49 50//50 33//33
f 49//49 102//102 50//50
f 70//70 75//75 57//57
f 76//76 75//75 125//125
f 64//64 135//135 49//49
f 102//102 135//135 216//216
f 63//63 76//76 70//70
f 641//641 646//646 642//642
f 361//361 263//263 384//384
f 141//141 180//180 256//256
f 504//504 256//256 270//270
f 363//363 504//504 270//270
f 504//504 391//391 256//256
f 477//477 504//504 486//486
f 504//504 477//477 530//530
f 460//460 527//527 486//486
f 536//536 486//486 527//527
f 603//603 527//527 460//460
f 658//658 656//656 655//655
f 656//656 652//652 653//653
f 654//654 653//653 658//658
f 658//658 655//655 631//631
f 649//649 631//631 650//650
f 659//659 660//660 658//658
f 659//659 658//658 631//631
f 668//668 665//665 661//661
f 653//653 652//652 648//648
f 648//648 652//652 650//650
f 654//654 653//653 648//648
f 657//657 663//663 659//659
f 670//670 669//669 667//667
f 649//649 676//676 667//667
f 676//676 657//657 670//670
f 673//673 678//678 675//675
f 675//675 678//678 649//649
f 673//673 667//667 676//676
f 673//673 676//676 677//677
f 683//683 684//684 645//645
f 645//645 684//684 685//685
f 670//670 669//669 676//676
f 666//666 631//631 622//622
f 667//667 631//631 666//666
f 674//674 668//668 669//669
f 645//645 680//680 622//622
f 681//681 680//680 679//679
f 631//631 531//531 622//622
f 384//384 531//531 522//522
f 521//521 531//531 420//420
f 645//645 622//622 526//526
f 384//384 522//522 361//361
f 521//521 420//420 465//465
f 338//338 465//465 420//420
f 384//384 370//370 420//420
f 370//370 391//391 294//294
f 338//338 294//294 201//201
f 294//294 338//338 370//370
f 338//338 329//329 465//465
f 239//239 338//338 198//198
f 530//530 294//294 391//391
f 475//475 294//294 530//530
f 294//294 475//475 283//283
f 475//475 477//477 333//333
f 83//83 270//270 180//180
f 37//37 35//35 33//33
f 58//58 73//73 83//83
f 277//277 109//109 260//260
f 130//130 260//260 109//109
f 237//237 440//440 260//260
f 277//277 132//132 109//109
f 460//460 277//277 260//260
f 73//73 109//109 132//132
f 40//40 52//52 25//25
f 109//109 73//73 52//52
f 73//73 58//58 52//52
f 58//58 62//62 55//55
f 25//25 52//52 55//55
f 50//50 201//201 72//72
f 198//198 50//50 102//102
f 50//50 198//198 201//201
f 198//198 338//338 201//201
f 33//33 50//50 72//72
f 37//37 33//33 62//62
f 62//62 72//72 96//96
f 62//62 33//33 72//72
f 294//294 283//283 201//201
f 333//333 342//342 186//186
f 96//96 111//111 62//62
f 514//514 550//550 526//526
f 122//122 95//95 87//87
f 91//91 90//90 74//74
f 102//102 216//216 198//198
f 647//647 646//646 650//650
f 62//62 111//111 55//55
f 524//524 545//545 509//509
f 603//603 545//545 624//624
f 497//497 477//477 536//536
f 615//615 545//545 524//524
f 237//237 509//509 440//440
f 356//356 524//524 237//237
f 524//524 509//509 237//237
f 497//497 624//624 481//481
f 47//47 25//25 55//55
f 47//47 123//123 173//173
f 47//47 173//173 128//128
f 542//542 625//625 615//615
f 615//615 625//625 616//616
f 481//481 616//616 525//525
f 416//416 481//481 525//525
f 173//173 261//261 128//128
f 128//128 261//261 269//269
f 177//177 128//128 269//269
f 616//616 481//481 624//624
f 342//342 333//333 497//497
f 186//186 342//342 209//209
f 173//173 209//209 349//349
f 173//173 123//123 209//209
f 173//173 349//349 261//261
f 605//605 616//616 625//625
f 616//616 605//605 525//525
f 389//389 416//416 525//525
f 605//605 584//584 515//515
f 229//229 406//406 248//248
f 48//48 31//31 20//20
f 20//20 31//31 13//13
f 9//9 3//3 15//15
f 6//6 3//3 9//9
f 79//79 212//212 113//113
f 36//36 124//124 42//42
f 20//20 14//14 42//42
f 14//14 3//3 2//2
f 14//14 2//2 12//12
f 369//369 242//242 113//113
f 113//113 124//124 36//36
f 113//113 36//36 32//32
f 12//12 2//2 1//1
f 7//7 1//1 8//8
f 32//32 12//12 10//10
f 1//1 10//10 12//12
f 4//4 1//1 7//7
f 1//1 4//4 5//5
f 4//4 7//7 28//28
f 14//14 20//20 3//3
f 38//38 40//40 25//25
f 22//22 38//38 25//25
f 15//15 43//43 65//65
f 26//26 30//30 65//65
f 43//43 47//47 128//128
f 65//65 43//43 128//128
f 65//65 177//177 101//101
f 229//229 101//101 177//177
f 6//6 9//9 26//26
f 101//101 26//26 65//65
f 101//101 71//71 26//26
f 8//8 6//6 26//26
f 191//191 248//248 406//406
f 406//406 336//336 191//191
f 248//248 191//191 101//101
f 89//89 17//17 71//71
f 532//532 538//538 369//369
f 590//590 532//532 588//588
f 590//590 575//575 529//529
f 584//584 575//575 590//590
f 570//570 520//520 590//590
f 574//574 570//570 588//588
f 441//441 279//279 212//212
f 441//441 212//212 417//417
f 417//417 212//212 204//204
f 441//441 417//417 532//532
f 532//532 417//417 561//561
f 561//561 417//417 535//535
f 146//146 66//66 28//28
f 561//561 588//588 532//532
f 588//588 561//561 574//574
f 492//492 511//511 377//377
f 254//254 377//377 243//243
f 66//66 146//146 243//243
f 59//59 19//19 54//54
f 23//23 5//5 11//11
f 18//18 28//28 66//66
f 29//29 18//18 66//66
f 29//29 5//5 18//18
f 27//27 11//11 21//21
f 21//21 16//16 39//39
f 29//29 66//66 41//41
f 156//156 66//66 243//243
f 417//417 323//323 457//457
f 613//613 535//535 626//626
f 202//202 457//457 323//323
f 626//626 535//535 632//632
f 285//285 537//537 457//457
f 613//613 565//565 561//561
f 581//581 511//511 565//565
f 243//243 344//344 257//257
f 581//581 640//640 610//610
f 280//280 398//398 496//496
f 280//280 496//496 334//334
f 134//134 131//131 54//54
f 56//56 27//27 53//53
f 27//27 45//45 44//44
f 129//129 134//134 56//56
f 219//219 206//206 129//129
f 69//69 129//129 53//53
f 69//69 44//44 46//46
f 129//129 56//56 53//53
f 39//39 156//156 82//82
f 280//280 156//156 257//257
f 27//27 21//21 24//24
f 82//82 156//156 205//205
f 156//156 334//334 205//205
f 334//334 156//156 280//280
f 672//672 640//640 632//632
f 686//686 632//632 572//572
f 672//672 632//632 686//686
f 572//572 644//644 686//686
f 651//651 672//672 686//686
f 572//572 387//387 533//533
f 533//533 644//644 572//572
f 587//587 651//651 686//686
f 671//671 686//686 687//687
f 687//687 686//686 644//644
f 651//651 610//610 672//672
f 496//496 461//461 334//334
f 496//496 560//560 461//461
f 560//560 610//610 587//587
f 219//219 387//387 206//206
f 533//533 387//387 304//304
f 136//136 219//219 129//129
f 129//129 69//69 136//136
f 112//112 46//46 45//45
f 69//69 67//67 98//98
f 563//563 533//533 372//372
f 207//207 136//136 98//98
f 207//207 98//98 137//137
f 155//155 207//207 137//137
f 203//203 295//295 302//302
f 185//185 127//127 203//203
f 137//137 98//98 127//127
f 203//203 228//228 430//430
f 205//205 319//319 430//430
f 82//82 228//228 112//112
f 112//112 228//228 203//203
f 461//461 560//560 587//587
f 430//430 587//587 516//516
f 430//430 516//516 403//403
f 203//203 298//298 295//295
f 687//687 643//643 664//664
f 664//664 563//563 579//579
f 415//415 549//549 579//579
f 682//682 664//664 619//619
f 523//523 516//516 635//635
f 247//247 415//415 372//372
f 207//207 247//247 372//372
f 247//247 207//207 155//155
f 447//447 446//446 450//450
f 450//450 415//415 443//443
f 450//450 458//458 415//415
f 448//448 446//446 447//447
f 464//464 459//459 444//444
f 434//434 433//433 411//411
f 444//444 433//433 434//434
f 434//434 433//433 443//443
f 464//464 458//458 459//459
f 444//444 450//450 448//448
f 448//448 447//447 444//444
f 444//444 434//434 411//411
f 397//397 396//396 411//411
f 400//400 396//396 397//397
f 400//400 397//397 247//247
f 444//444 411//411 247//247
f 179//179 155//155 176//176
f 137//137 176//176 175//175
f 185//185 175//175 176//176
f 179//179 175//175 185//185
f 200//200 179//179 187//187
f 183//183 181//181 182//182
f 185//185 182//182 181//181
f 184//184 181//181 183//183
f 183//183 187//187 184//184
f 187//187 190//190 200//200
f 200//200 189//189 195//195
f 187//187 179//179 184//184
f 185//185 190//190 189//189
f 195//195 189//189 190//190
f 187//187 183//183 185//185
f 195//195 199//199 197//197
f 185//185 197//197 199//199
f 185//185 302//302 240//240
f 200//200 199//199 240//240
f 197//197 185//185 240//240
f 347//347 393//393 200//200
f 302//302 288//288 287//287
f 357//357 287//287 288//288
f 347//347 287//287 357//357
f 523//523 500//500 347//347
f 357//357 523//523 347//347
f 549//549 594//594 595//595
f 619//619 586//586 567//567
f 595//595 594//594 619//619
f 619//619 594//594 586//586
f 619//619 549//549 595//595
f 459//459 458//458 549//549
f 671//671 635//635 516//516
f 643//643 563//563 664//664
f 336//336 520//520 379//379
f 194//194 336//336 379//379
f 146//146 28//28 89//89
f 89//89 254//254 146//146
f 377//377 281//281 492//492
f 281//281 377//377 254//254
f 18//18 4//4 28//28
f 234//234 276//276 356//356
f 356//356 237//237 234//234
f 106//106 178//178 234//234
f 31//31 48//48 106//106
f 106//106 48//48 178//178
f 356//356 408//408 615//615
f 166//166 174//174 264//264
f 42//42 174//174 166//166
f 178//178 166//166 276//276
f 166//166 264//264 276//276
f 48//48 166//166 178//178
f 264//264 408//408 276//276
f 408//408 577//577 542//542
f 408//408 551//551 577//577
f 362//362 264//264 174//174
f 242//242 418//418 362//362
f 584//584 577//577 551//551
f 369//369 418//418 242//242
f 551//551 418//418 575//575
f 584//584 551//551 575//575
f 188//188 167//167 210//210
f 162//162 169//169 163//163
f 147//147 149//149 148//148
f 160//160 157//157 159//159
f 153//153 157//157 154//154
f 154//154 157//157 161//161
f 147//147 151//151 149//149
f 154//154 151//151 153//153
f 144//144 143//143 142//142
f 142//142 148//148 144//144
f 139//139 133//133 138//138
f 142//142 145//145 148//148
f 138//138 143//143 139//139
f 120//120 119//119 121//121
f 114//114 118//118 117//117
f 116//116 115//115 118//118
f 120//120 126//126 121//121
f 115//115 116//116 117//117
f 126//126 133//133 121//121
f 117//117 116//116 114//114
f 110//110 114//114 116//116
f 103//103 104//104 92//92
f 107//107 110//110 116//116
f 107//107 116//116 108//108
f 161//161 164//164 169//169
f 160//160 169//169 164//164
f 159//159 162//162 163//163
f 468//468 463//463 462//462
f 268//268 272//272 271//271
f 268//268 265//265 267//267
f 296//296 289//289 290//290
f 290//290 289//289 284//284
f 308//308 300//300 301//301
f 301//301 299//299 308//308
f 293//293 299//299 297//297
f 290//290 293//293 296//296
f 300//300 297//297 299//299
f 292//292 297//297 300//300
f 292//292 289//289 296//296
f 292//292 300//300 308//308
f 306//306 292//292 308//308
f 292//292 296//296 297//297
f 278//278 282//282 284//284
f 282//282 262//262 286//286
f 278//278 262//262 292//292
f 262//262 330//330 293//293
f 286//286 292//292 284//284
f 272//272 278//278 284//284
f 368//368 371//371 366//366
f 439//439 438//438 445//445
f 373//373 366//366 365//365
f 435//435 432//432 437//437
f 435//435 423//423 432//432
f 436//436 427//427 435//435
f 423//423 437//437 432//432
f 436//436 423//423 427//427
f 463//463 466//466 456//456
f 455//455 456//456 453//453
f 470//470 462//462 466//466
f 467//467 466//466 463//463
f 431//431 442//442 435//435
f 439//439 449//449 445//445
f 431//431 425//425 436//436
f 455//455 451//451 454//454
f 456//456 454//454 453//453
f 451//451 466//466 452//452
f 449//449 453//453 445//445
f 445//445 453//453 454//454
f 449//449 455//455 453//453
f 423//423 426//426 437//437
f 452//452 437//437 449//449
f 402//402 412//412 405//405
f 401//401 402//402 405//405
f 425//425 419//419 422//422
f 419//419 425//425 423//423
f 381//381 386//386 390//390
f 388//388 364//364 380//380
f 386//386 399//399 395//395
f 388//388 386//386 378//378
f 380//380 386//386 383//383
f 380//380 381//381 378//378
f 383//383 381//381 380//380
f 431//431 428//428 429//429
f 410//410 413//413 412//412
f 428//428 425//425 422//422
f 404//404 412//412 399//399
f 452//452 424//424 436//436
f 414//414 413//413 378//378
f 413//413 399//399 378//378
f 423//423 425//425 426//426
f 429//429 424//424 422//422
f 428//428 436//436 425//425
f 431//431 421//421 424//424
f 424//424 421//421 413//413
f 409//409 410//410 399//399
f 436//436 424//424 429//429
f 355//355 352//352 348//348
f 353//353 355//355 348//348
f 321//321 326//326 324//324
f 343//343 341//341 345//345
f 292//292 320//320 322//322
f 292//292 322//322 364//364
f 335//335 340//340 339//339
f 332//332 335//335 341//341
f 330//330 322//322 328//328
f 328//328 335//335 331//331
f 350//350 360//360 354//354
f 366//366 364//364 365//365
f 364//364 367//367 262//262
f 348//348 350//350 353//353
f 351//351 348//348 340//340
f 343//343 339//339 340//340
f 364//364 350//350 340//340
f 378//378 262//262 414//414
f 326//326 320//320 324//324
f 311//311 316//316 324//324
f 321//321 322//322 320//320
f 299//299 293//293 292//292
f 306//306 316//316 310//310
f 360//360 367//367 368//368
f 469//469 470//470 474//474
f 367//367 378//378 374//374
f 480//480 478//478 470//470
f 470//470 478//478 479//479
f 469//469 473//473 472//472
f 474//474 478//478 483//483
f 495//495 487//487 505//505
f 512//512 490//490 476//476
f 493//493 484//484 499//499
f 493//493 488//488 485//485
f 499//499 488//488 493//493
f 508//508 485//485 491//491
f 485//485 490//490 491//491
f 491//491 484//484 508//508
f 501//501 485//485 508//508
f 512//512 476//476 494//494
f 502//502 490//490 505//505
f 491//491 487//487 484//484
f 506//506 476//476 498//498
f 556//556 543//543 559//559
f 494//494 498//498 487//487
f 487//487 498//498 470//470
f 480//480 476//476 479//479
f 506//506 498//498 494//494
f 507//507 489//489 499//499
f 556//556 540//540 543//543
f 621//621 614//614 617//617
f 631//631 540//540 541//541
f 528//528 543//543 540//540
f 528//528 540//540 631//631
f 513//513 507//507 510//510
f 510//510 518//518 513//513
f 517//517 518//518 528//528
f 513//513 489//489 507//507
f 517//517 489//489 510//510
f 614//614 604//604 611//611
f 611//611 608//608 617//617
f 600//600 593//593 573//573
f 618//618 623//623 614//614
f 630//630 633//633 634//634
f 638//638 631//631 636//636
f 638//638 639//639 631//631
f 638//638 641//641 642//642
f 637//637 633//633 636//636
f 634//634 631//631 630//630
f 623//623 627//627 628//628
f 630//630 623//623 628//628
f 628//628 627//627 534//534
f 631//631 623//623 630//630
f 620//620 534//534 623//623
f 617//617 534//534 618//618
f 573//573 534//534 608//608
f 634//634 633//633 629//629
f 630//630 628//628 627//627
f 627//627 629//629 630//630
f 629//629 636//636 634//634
f 573//573 548//548 518//518
f 518//518 534//534 573//573
f 611//611 612//612 608//608
f 631//631 573//573 604//604
f 573//573 593//593 604//604
f 612//612 604//604 608//608
f 600//600 604//604 593//593
f 485//485 487//487 470//470
f 488//488 470//470 414//414
f 518//518 488//488 414//414
f 534//534 414//414 361//361
f 518//518 414//414 534//534
f 476//476 485//485 489//489
f 474//474 466//466 469//469
f 473//473 466//466 472//472
f 467//467 468//468 462//462
f 507//507 484//484 488//488
f 268//268 271//271 255//255
f 510//510 507//507 488//488
f 271//271 267//267 255//255
f 253//253 255//255 246//246
f 246//246 255//255 251//251
f 214//214 220//220 223//223
f 223//223 230//230 210//210
f 220//220 210//210 255//255
f 223//223 220//220 230//230
f 217//217 188//188 210//210
f 217//217 221//221 220//220
f 251//251 255//255 265//265
f 251//251 265//265 262//262
f 292//292 253//253 265//265
f 292//292 222//222 253//253
f 253//253 246//246 210//210
f 246//246 251//251 210//210
f 208//208 133//133 188//188
f 152//152 165//165 118//118
f 92//92 133//133 208//208
f 118//118 165//165 126//126
f 100//100 85//85 74//74
f 95//95 122//122 97//97
f 93//93 97//97 100//100
f 91//91 90//90 97//97
f 90//90 91//91 86//86
f 94//94 93//93 100//100
f 122//122 100//100 97//97
f 86//86 93//93 74//74
f 93//93 94//94 74//74
f 94//94 100//100 74//74
f 85//85 84//84 99//99
f 100//100 122//122 99//99
f 152//152 118//118 122//122
f 118//118 99//99 122//122
f 263//263 192//192 152//152
f 263//263 414//414 262//262
f 168//168 165//165 210//210
f 167//167 188//188 168//168
f 168//168 169//169 167//167
f 126//126 150//150 140//140
f 74//74 84//84 77//77
f 84//84 85//85 77//77
f 85//85 99//99 77//77
f 265//265 255//255 267//267
f 92//92 81//81 80//80
f 80//80 77//77 92//92
f 81//81 68//68 77//77
f 81//81 78//78 80//80
f 196//196 63//63 78//78
f 165//165 159//159 157//157
f 153//153 165//165 157//157
f 585//585 576//576 568//568
f 489//489 631//631 649//649
f 489//489 407//407 424//424
f 471//471 407//407 649//649
f 539//539 471//471 645//645
f 645//645 471//471 649//649
f 566//566 568//568 569//569
f 571//571 558//558 566//566
f 589//589 592//592 597//597
f 609//609 602//602 607//607
f 601//601 598//598 606//606
f 597//597 592//592 607//607
f 601//601 609//609 645//645
f 601//601 606//606 609//609
f 597//597 607//607 602//602
f 582//582 539//539 592//592
f 591//591 585//585 568//568
f 539//539 645//645 606//606
f 582//582 592//592 589//589
f 582//582 589//589 526//526
f 578//578 583//583 580//580
f 583//583 539//539 591//591
f 583//583 578//578 539//539
f 568//568 539//539 578//578
f 564//564 566//566 547//547
f 558//558 557//557 562//562
f 547//547 568//568 562//562
f 547//547 539//539 568//568
f 555//555 562//562 557//557
f 555//555 557//557 566//566
f 555//555 566//566 562//562
f 552//552 558//558 554//554
f 539//539 547//547 546//546
f 547//547 544//544 546//546
f 554//554 558//558 550//550
f 544//544 550//550 546//546
f 544//544 547//547 550//550
f 557//557 547//547 566//566
f 514//514 471//471 539//539
f 562//562 566//566 558//558
f 562//562 568//568 564//564
f 78//78 92//92 208//208
f 196//196 78//78 208//208
f 337//337 196//196 407//407
f 337//337 266//266 196//196
f 258//258 213//213 218//218
f 211//211 215//215 218//218
f 238//238 236//236 266//266
f 236//236 235//235 266//266
f 231//231 233//233 266//266
f 236//236 238//238 241//241
f 231//231 226//226 225//225
f 233//233 231//231 225//225
f 235//235 236//236 241//241
f 259//259 249//249 252//252
f 250//250 259//259 258//258
f 244//244 241//241 266//266
f 252//252 266//266 259//259
f 252//252 249//249 266//266
f 249//249 244//244 266//266
f 227//227 224//224 218//218
f 224//224 227//227 225//225
f 337//337 317//317 312//312
f 274//274 273//273 266//266
f 273//273 274//274 291//291
f 258//258 274//274 275//275
f 318//318 312//312 317//317
f 313//313 318//318 325//325
f 309//309 305//305 266//266
f 307//307 258//258 291//291
f 305//305 291//291 266//266
f 305//305 309//309 337//337
f 309//309 266//266 337//337
f 325//325 318//318 337//337
f 258//258 244//244 252//252
f 170//170 171//171 193//193
f 135//135 125//125 171//171
f 171//171 196//196 193//193
f 171//171 170//170 196//196
f 170//170 125//125 196//196
f 327//327 337//337 471//471
f 314//314 307//307 325//325
f 225//225 215//215 211//211
f 314//314 315//315 307//307
f 314//314 325//325 315//315
f 218//218 215//215 225//225
f 87//87 88//88 74//74
f 141//141 152//152 122//122
f 60//60 141//141 122//122
f 60//60 51//51 141//141
f 68//68 78//78 63//63
f 60//60 74//74 68//68
f 34//34 60//60 68//68
f 49//49 34//34 68//68
f 49//49 33//33 34//34
f 76//76 125//125 57//57
f 135//135 57//57 125//125
f 57//57 63//63 70//70
f 76//76 75//75 70//70
f 64//64 57//57 135//135
f 49//49 135//135 102//102
f 75//75 76//76 63//63
f 33//33 35//35 34//34
f 646//646 648//648 650//650
f 391//391 384//384 263//263
f 391//391 263//263 256//256
f 256//256 180//180 270//270
f 460//460 260//260 440//440
f 440//440 545//545 460//460
f 504//504 363//363 486//486
f 477//477 486//486 536//536
f 530//530 391//391 504//504
f 277//277 460//460 363//363
f 363//363 460//460 486//486
f 603//603 536//536 527//527
f 475//475 530//530 477//477
f 647//647 650//650 631//631
f 650//650 652//652 653//653
f 650//650 654//654 658//658
f 653//653 654//654 650//650
f 661//661 662//662 660//660
f 665//665 663//663 658//658
f 663//663 657//657 658//658
f 657//657 649//649 650//650
f 655//655 648//648 631//631
f 660//660 659//659 631//631
f 668//668 657//657 665//665
f 667//667 661//661 631//631
f 659//659 660//660 657//657
f 662//662 665//665 657//657
f 661//661 658//658 660//660
f 660//660 662//662 657//657
f 648//648 655//655 654//654
f 660//660 659//659 663//663
f 661//661 665//665 658//658
f 670//670 667//667 674//674
f 677//677 676//676 674//674
f 670//670 657//657 669//669
f 676//676 649//649 657//657
f 666//666 677//677 667//667
f 675//675 678//678 677//677
f 675//675 666//666 678//678
f 678//678 673//673 677//677
f 675//675 677//677 666//666
f 683//683 645//645 649//649
f 675//675 649//649 673//673
f 667//667 673//673 649//649
f 666//666 683//683 684//684
f 683//683 685//685 684//684
f 684//684 649//649 666//666
f 685//685 683//683 666//666
f 622//622 685//685 666//666
f 667//667 677//677 674//674
f 631//631 534//534 531//531
f 668//668 669//669 657//657
f 679//679 685//685 622//622
f 681//681 645//645 685//685
f 680//680 685//685 679//679
f 681//681 680//680 645//645
f 680//680 681//681 685//685
f 522//522 531//531 534//534
f 622//622 531//531 521//521
f 420//420 531//531 384//384
f 521//521 526//526 622//622
f 526//526 521//521 465//465
f 526//526 465//465 329//329
f 370//370 384//384 391//391
f 338//338 420//420 370//370
f 514//514 526//526 329//329
f 329//329 239//239 514//514
f 327//327 514//514 239//239
f 239//239 329//329 338//338
f 198//198 216//216 239//239
f 51//51 61//61 141//141
f 61//61 180//180 141//141
f 83//83 180//180 61//61
f 61//61 51//51 37//37
f 37//37 51//51 35//35
f 83//83 61//61 37//37
f 58//58 83//83 37//37
f 260//260 130//130 237//237
f 270//270 277//277 363//363
f 132//132 277//277 270//270
f 132//132 270//270 83//83
f 52//52 40//40 109//109
f 40//40 130//130 109//109
f 73//73 132//132 83//83
f 55//55 52//52 58//58
f 58//58 37//37 62//62
f 123//123 55//55 111//111
f 186//186 201//201 283//283
f 72//72 201//201 186//186
f 96//96 72//72 186//186
f 333//333 283//283 475//475
f 186//186 283//283 333//333
f 186//186 111//111 96//96
f 74//74 90//90 86//86
f 111//111 186//186 209//209
f 111//111 209//209 123//123
f 88//88 87//87 95//95
f 648//648 641//641 631//631
f 603//603 460//460 545//545
f 545//545 440//440 509//509
f 497//497 333//333 477//477
f 603//603 497//497 536//536
f 624//624 497//497 603//603
f 615//615 624//624 545//545
f 481//481 349//349 497//497
f 40//40 106//106 130//130
f 40//40 38//38 106//106
f 47//47 55//55 123//123
f 616//616 624//624 615//615
f 481//481 261//261 349//349
f 261//261 481//481 303//303
f 303//303 481//481 416//416
f 269//269 261//261 303//303
f 416//416 269//269 303//303
f 209//209 342//342 349//349
f 342//342 497//497 349//349
f 625//625 542//542 605//605
f 605//605 542//542 577//577
f 269//269 416//416 177//177
f 416//416 389//389 229//229
f 177//177 416//416 229//229
f 577//577 584//584 605//605
f 519//519 525//525 605//605
f 389//389 525//525 519//519
f 229//229 389//389 406//406
f 406//406 389//389 519//519
f 519//519 605//605 515//515
f 515//515 406//406 519//519
f 336//336 406//406 515//515
f 48//48 42//42 166//166
f 42//42 48//48 20//20
f 20//20 13//13 3//3
f 3//3 13//13 15//15
f 212//212 279//279 113//113
f 79//79 113//113 32//32
f 124//124 174//174 42//42
f 242//242 174//174 124//124
f 14//14 36//36 42//42
f 12//12 36//36 14//14
f 3//3 6//6 8//8
f 8//8 2//2 3//3
f 369//369 113//113 279//279
f 12//12 32//32 36//36
f 124//124 113//113 242//242
f 8//8 1//1 2//2
f 5//5 10//10 1//1
f 7//7 17//17 28//28
f 31//31 38//38 22//22
f 13//13 31//31 22//22
f 13//13 22//22 15//15
f 22//22 25//25 47//47
f 47//47 43//43 22//22
f 43//43 15//15 22//22
f 65//65 30//30 15//15
f 65//65 128//128 177//177
f 30//30 9//9 15//15
f 26//26 9//9 30//30
f 101//101 229//229 248//248
f 191//191 71//71 101//101
f 191//191 336//336 194//194
f 89//89 71//71 191//191
f 17//17 8//8 71//71
f 17//17 7//7 8//8
f 191//191 194//194 89//89
f 89//89 28//28 17//17
f 71//71 8//8 26//26
f 279//279 441//441 369//369
f 538//538 529//529 369//369
f 538//538 590//590 529//529
f 532//532 369//369 441//441
f 532//532 590//590 538//538
f 520//520 515//515 584//584
f 590//590 520//520 584//584
f 492//492 520//520 570//570
f 588//588 570//570 590//590
f 336//336 515//515 520//520
f 32//32 23//23 79//79
f 204//204 212//212 79//79
f 59//59 204//204 79//79
f 323//323 417//417 204//204
f 202//202 323//323 204//204
f 131//131 204//204 59//59
f 204//204 131//131 202//202
f 574//574 561//561 565//565
f 492//492 570//570 574//574
f 511//511 492//492 574//574
f 23//23 59//59 79//79
f 19//19 59//59 23//23
f 54//54 131//131 59//59
f 27//27 54//54 19//19
f 23//23 32//32 10//10
f 23//23 10//10 5//5
f 11//11 19//19 23//23
f 29//29 16//16 11//11
f 29//29 11//11 5//5
f 18//18 5//5 4//4
f 16//16 21//21 11//11
f 27//27 19//19 11//11
f 39//39 16//16 41//41
f 41//41 16//16 29//29
f 66//66 156//156 41//41
f 457//457 535//535 417//417
f 613//613 561//561 535//535
f 245//245 457//457 202//202
f 131//131 245//245 202//202
f 245//245 285//285 457//457
f 131//131 285//285 245//245
f 537//537 535//535 457//457
f 632//632 535//535 537//537
f 640//640 626//626 632//632
f 387//387 537//537 285//285
f 285//285 206//206 387//387
f 581//581 613//613 626//626
f 581//581 565//565 613//613
f 511//511 574//574 565//565
f 377//377 398//398 344//344
f 398//398 377//377 511//511
f 243//243 377//377 344//344
f 257//257 156//156 243//243
f 257//257 344//344 398//398
f 280//280 257//257 398//398
f 640//640 581//581 626//626
f 672//672 610//610 640//640
f 496//496 581//581 610//610
f 581//581 398//398 511//511
f 581//581 496//496 398//398
f 131//131 134//134 285//285
f 54//54 56//56 134//134
f 56//56 54//54 27//27
f 44//44 53//53 27//27
f 129//129 285//285 134//134
f 129//129 206//206 285//285
f 69//69 53//53 44//44
f 46//46 44//44 45//45
f 41//41 156//156 39//39
f 24//24 21//21 39//39
f 82//82 24//24 39//39
f 82//82 45//45 24//24
f 45//45 27//27 24//24
f 228//228 82//82 205//205
f 112//112 45//45 82//82
f 572//572 537//537 387//387
f 632//632 537//537 572//572
f 643//643 644//644 533//533
f 687//687 644//644 643//643
f 671//671 587//587 686//686
f 496//496 610//610 560//560
f 587//587 610//610 651//651
f 219//219 304//304 387//387
f 136//136 304//304 219//219
f 98//98 136//136 69//69
f 67//67 69//69 46//46
f 67//67 46//46 112//112
f 127//127 112//112 203//203
f 127//127 98//98 112//112
f 304//304 372//372 533//533
f 563//563 643//643 533//533
f 136//136 207//207 304//304
f 207//207 372//372 304//304
f 185//185 137//137 127//127
f 302//302 185//185 203//203
f 334//334 461//461 319//319
f 319//319 205//205 334//334
f 228//228 205//205 430//430
f 319//319 461//461 430//430
f 430//430 461//461 587//587
f 430//430 298//298 203//203
f 403//403 298//298 430//430
f 579//579 563//563 372//372
f 372//372 415//415 579//579
f 664//664 579//579 619//619
f 444//444 549//549 464//464
f 619//619 579//579 549//549
f 346//346 549//549 444//444
f 393//393 549//549 346//346
f 671//671 687//687 635//635
f 635//635 687//687 682//682
f 682//682 687//687 664//664
f 393//393 567//567 549//549
f 393//393 500//500 567//567
f 200//200 346//346 247//247
f 200//200 247//247 155//155
f 447//447 443//443 446//446
f 447//447 450//450 443//443
f 446//446 448//448 450//450
f 434//434 415//415 433//433
f 447//447 446//446 444//444
f 458//458 459//459 415//415
f 434//434 443//443 415//415
f 397//397 415//415 396//396
f 397//397 411//411 415//415
f 396//396 400//400 411//411
f 247//247 411//411 400//400
f 444//444 247//247 346//346
f 200//200 393//393 346//346
f 357//357 302//302 295//295
f 357//357 298//298 382//382
f 298//298 357//357 295//295
f 175//175 176//176 155//155
f 175//175 179//179 176//176
f 175//175 155//155 137//137
f 176//176 137//137 185//185
f 190//190 185//185 195//195
f 182//182 185//185 183//183
f 179//179 185//185 181//181
f 181//181 184//184 182//182
f 189//189 187//187 185//185
f 182//182 184//184 179//179
f 190//190 187//187 189//189
f 189//189 200//200 190//190
f 200//200 155//155 179//179
f 199//199 200//200 197//197
f 200//200 195//195 197//197
f 199//199 195//195 185//185
f 197//197 240//240 199//199
f 240//240 347//347 200//200
f 347//347 500//500 393//393
f 523//523 382//382 516//516
f 287//287 288//288 240//240
f 240//240 302//302 287//287
f 287//287 347//347 288//288
f 288//288 347//347 240//240
f 288//288 302//302 357//357
f 382//382 523//523 357//357
f 682//682 619//619 635//635
f 635//635 619//619 567//567
f 567//567 523//523 635//635
f 587//587 671//671 516//516
f 458//458 464//464 549//549
f 459//459 549//549 415//415
f 298//298 403//403 516//516
f 298//298 516//516 382//382
f 492//492 379//379 520//520
f 492//492 281//281 379//379
f 379//379 281//281 194//194
f 89//89 194//194 281//281
f 254//254 89//89 281//281
f 243//243 146//146 254//254
f 162//162 167//167 169//169
f 161//161 157//157 160//160
f 164//164 161//161 160//160
f 148//148 151//151 161//161
f 133//133 148//148 161//161
f 158//158 154//154 161//161
f 150//150 149//149 145//145
f 140//140 150//150 145//145
f 150//150 153//153 151//151
f 147//147 150//150 151//151
f 140//140 142//142 143//143
f 138//138 140//140 143//143
f 151//151 154//154 161//161
f 162//162 160//160 164//164
f 165//165 162//162 164//164
f 118//118 108//108 105//105
f 99//99 118//118 105//105
f 133//133 120//120 121//121
f 115//115 114//114 117//117
f 119//119 116//116 118//118
f 108//108 105//105 107//107
f 108//108 92//92 105//105
f 110//110 107//107 108//108
f 118//118 110//110 108//108
f 92//92 104//104 105//105
f 163//163 169//169 160//160
f 159//159 163//163 160//160
f 99//99 103//103 92//92
f 311//311 324//324 320//320
f 310//310 311//311 320//320
f 272//272 284//284 292//292
f 265//265 272//272 292//292
f 311//311 310//310 308//308
f 301//301 293//293 297//297
f 300//300 301//301 297//297
f 301//301 300//300 296//296
f 290//290 282//282 286//286
f 289//289 290//290 286//286
f 293//293 289//289 286//286
f 262//262 293//293 286//286
f 311//311 299//299 306//306
f 310//310 311//311 306//306
f 292//292 306//306 310//310
f 320//320 292//292 310//310
f 375//375 367//367 374//374
f 376//376 375//375 374//374
f 371//371 373//373 375//375
f 376//376 371//371 375//375
f 375//375 373//373 368//368
f 367//367 375//375 368//368
f 376//376 381//381 385//385
f 364//364 376//376 385//385
f 365//365 360//360 368//368
f 373//373 365//365 368//368
f 439//439 437//437 426//426
f 438//438 439//439 426//426
f 451//451 439//439 445//445
f 456//456 466//466 451//451
f 455//455 456//456 451//451
f 436//436 435//435 437//437
f 463//463 456//456 455//455
f 449//449 463//463 455//455
f 470//470 466//466 449//449
f 431//431 470//470 449//449
f 401//401 405//405 409//409
f 404//404 401//401 409//409
f 449//449 451//451 452//452
f 412//412 419//419 422//422
f 424//424 412//412 422//422
f 394//394 402//402 401//401
f 385//385 394//394 401//401
f 388//388 385//385 395//395
f 404//404 388//388 395//395
f 421//421 428//428 422//422
f 419//419 421//421 422//422
f 383//383 388//388 380//380
f 386//386 402//402 394//394
f 390//390 386//386 394//394
f 381//381 390//390 392//392
f 402//402 386//386 395//395
f 401//401 402//402 395//395
f 399//399 412//412 401//401
f 395//395 399//399 401//401
f 378//378 381//381 376//376
f 374//374 378//378 376//376
f 385//385 383//383 380//380
f 364//364 385//385 380//380
f 425//425 432//432 426//426
f 425//425 427//427 432//432
f 345//345 348//348 352//352
f 343//343 345//345 352//352
f 436//436 429//429 422//422
f 436//436 422//422 423//423
f 388//388 404//404 409//409
f 409//409 413//413 410//410
f 316//316 332//332 326//326
f 321//321 316//316 326//326
f 316//316 321//321 324//324
f 326//326 332//332 331//331
f 322//322 326//326 331//331
f 331//331 330//330 328//328
f 332//332 316//316 328//328
f 331//331 332//332 328//328
f 358//358 350//350 354//354
f 359//359 358//358 354//354
f 365//365 359//359 354//354
f 360//360 365//365 354//354
f 262//262 367//367 366//366
f 360//360 262//262 366//366
f 351//351 355//355 358//358
f 359//359 351//351 358//358
f 350//350 358//358 355//355
f 353//353 350//350 355//355
f 339//339 343//343 351//351
f 330//330 339//339 351//351
f 345//345 335//335 339//339
f 343//343 345//345 339//339
f 348//348 343//343 340//340
f 478//478 480//480 482//482
f 483//483 478//478 482//482
f 366//366 371//371 364//364
f 470//470 479//479 476//476
f 470//470 498//498 482//482
f 480//480 470//470 482//482
f 487//487 495//495 503//503
f 512//512 487//487 503//503
f 470//470 469//469 472//472
f 503//503 495//495 505//505
f 484//484 493//493 501//501
f 508//508 484//484 501//501
f 501//501 493//493 485//485
f 502//502 508//508 491//491
f 490//490 503//503 495//495
f 490//490 512//512 503//503
f 505//505 487//487 491//491
f 502//502 505//505 491//491
f 506//506 512//512 494//494
f 487//487 512//512 506//506
f 494//494 487//487 506//506
f 638//638 636//636 534//534
f 639//639 638//638 534//534
f 498//498 476//476 482//482
f 631//631 556//556 559//559
f 620//620 621//621 617//617
f 612//612 611//611 617//617
f 618//618 621//621 617//617
f 608//608 600//600 573//573
f 638//638 642//642 639//639
f 623//623 534//534 627//627
f 636//636 629//629 534//534
f 621//621 618//618 534//534
f 633//633 630//630 629//629
f 599//599 608//608 604//604
f 600//600 599//599 604//604
f 467//467 468//468 472//472
f 466//466 467//467 472//472
f 470//470 472//472 468//468
f 467//467 470//470 468//468
f 221//221 217//217 214//214
f 223//223 221//221 214//214
f 210//210 230//230 222//222
f 217//217 221//221 222//222
f 221//221 217//217 210//210
f 97//97 94//94 86//86
f 91//91 97//97 86//86
f 217//217 214//214 188//188
f 168//168 188//188 169//169
f 568//568 576//576 571//571
f 569//569 568//568 571//571
f 90//90 95//95 97//97
f 571//571 566//566 569//569
f 602//602 601//601 598//598
f 526//526 602//602 598//598
f 598//598 601//601 645//645
f 526//526 598//598 645//645
f 597//597 602//602 526//526
f 589//589 597//597 526//526
f 601//601 609//609 607//607
f 592//592 601//601 607//607
f 585//585 591//591 583//583
f 576//576 585//585 583//583
f 596//596 580//580 583//583
f 591//591 596//596 583//583
f 596//596 597//597 589//589
f 580//580 596//596 589//589
f 591//591 568//568 583//583
f 589//589 539//539 582//582
f 596//596 591//591 539//539
f 597//597 596//596 539//539
f 552//552 547//547 553//553
f 552//552 554//554 547//547
f 562//562 564//564 547//547
f 554//554 552//552 547//547
f 547//547 557//557 555//555
f 553//553 547//547 555//555
f 553//553 555//555 558//558
f 552//552 553//553 558//558
f 539//539 546//546 544//544
f 514//514 539//539 544//544
f 215//215 211//211 213//213
f 258//258 215//215 213//213
f 211//211 215//215 258//258
f 193//193 211//211 258//258
f 232//232 231//231 266//266
f 235//235 232//232 266//266
f 233//233 231//231 232//232
f 258//258 233//233 232//232
f 235//235 236//236 258//258
f 232//232 235//235 258//258
f 252//252 249//249 250//250
f 258//258 252//252 250//250
f 224//224 227//227 258//258
f 218//218 224//224 258//258
f 236//236 244//244 238//238
f 227//227 224//224 226//226
f 258//258 227//227 226//226
f 258//258 315//315 314//314
f 327//327 258//258 314//314
f 266//266 273//273 259//259
f 337//337 318//318 317//317
f 305//305 307//307 309//309
f 654//654 655//655 656//656
f 653//653 654//654 656//656
f 193//193 225//225 211//211
f 75//75 76//76 57//57
f 125//125 75//75 63//63
f 658//658 653//653 656//656
f 660//660 663//663 665//665
f 662//662 660//660 665//665
f 631//631 661//661 660//660
f 668//668 661//661 667//667
f 669//669 668//668 667//667
f 657//657 650//650 658//658
f 669//669 670//670 674//674
f 678//678 666//666 649//649
f 684//684 683//683 649//649
f 680//680 679//679 622//622
f 680//680 681//681 679//679
f 676//676 669//669 674//674
f 95//95 91//91 74//74
f 88//88 95//95 74//74
f 647//647 631//631 642//642
f 646//646 647//647 642//642
f 647//647 646//646 641//641
f 648//648 647//647 641//641
f 646//646 647//647 648//648
f 444//444 446//446 443//443
f 433//433 444//444 443//443
f 112//112 98//98 67//67
f 433//433 415//415 411//411
f 459//459 458//458 450//450
f 444//444 459//459 450//450
f 586//586 594//594 595//595
f 567//567 586//586 595//595
f 396//396 247//247 397//397
f 396//396 415//415 247//247
f 181//181 182//182 179//179
f 594//594 549//549 567//567
f 595//595 594//594 567//567
f 523//523 567//567 500//500
