# convertido de flygym/NeuroMechFly (rh_tarsus1)
v -0.06985 -0.04324 -0.09496
v -0.06916 -0.04294 -0.10668
v -0.06900 -0.03286 -0.09802
v -0.06701 -0.04751 -0.10247
v -0.06216 -0.04055 -0.09084
v -0.06117 -0.03157 -0.09822
v -0.05789 -0.03647 -0.07613
v -0.05449 -0.03755 -0.08023
v -0.05328 -0.03964 -0.06952
v -0.05314 -0.03481 -0.06436
v -0.05292 -0.03127 -0.04669
v -0.05223 -0.03630 -0.11066
v -0.05204 -0.02390 -0.04505
v -0.05177 -0.04492 -0.09619
v -0.05176 -0.03080 -0.06174
v -0.05127 -0.03609 -0.06354
v -0.05124 -0.03608 -0.06356
v -0.05048 -0.03585 -0.09187
v -0.05046 -0.01764 -0.02445
v -0.05036 -0.03837 -0.06143
v -0.04970 -0.04316 -0.11394
v -0.04933 -0.00220 -0.01463
v -0.04930 -0.04149 -0.07485
v -0.04837 0.00045 -0.03159
v -0.04780 -0.03807 -0.08106
v -0.04766 -0.01458 -0.03628
v -0.04711 -0.02389 -0.36021
v -0.04700 -0.03054 -0.08025
v -0.04685 -0.01213 -0.01572
v -0.04605 -0.04189 -0.13023
v -0.04602 -0.02348 -0.35905
v -0.04585 -0.02346 -0.35865
v -0.04579 -0.02367 -0.35889
v -0.04560 -0.02325 -0.01806
v -0.04559 -0.02324 -0.01807
v -0.04497 -0.04597 -0.13168
v -0.04485 0.00144 -0.31339
v -0.04480 -0.00166 -0.29865
v -0.04459 -0.03222 -0.09445
v -0.04454 0.00431 -0.07713
v -0.04453 -0.02031 -0.01597
v -0.04447 -0.02319 -0.36497
v -0.04431 0.00631 -0.05004
v -0.04416 0.00906 -0.29799
v -0.04403 -0.02361 -0.35585
v -0.04375 -0.03892 -0.06769
v -0.04372 -0.00123 -0.32622
v -0.04362 0.00153 -0.09491
v -0.04361 -0.03647 -0.10659
v -0.04339 0.00696 -0.06110
v -0.04336 -0.02799 -0.35947
v -0.04319 -0.00072 -0.34058
v -0.04291 0.00617 -0.30719
v -0.04291 0.00753 -0.01215
v -0.04289 -0.02155 -0.35969
v -0.04281 -0.04234 -0.03456
v -0.04269 0.00073 -0.14319
v -0.04251 -0.04101 -0.11699
v -0.04238 -0.00139 -0.18305
v -0.04215 -0.00169 -0.11269
v -0.04155 0.00219 -0.19418
v -0.04150 -0.02556 -0.06124
v -0.04136 0.00163 -0.27973
v -0.04128 -0.01354 -0.05208
v -0.04127 -0.03833 -0.01961
v -0.04127 -0.03044 -0.01315
v -0.04126 -0.04246 -0.16502
v -0.04104 -0.00150 -0.26627
v -0.04074 -0.04832 -0.10606
v -0.04047 0.00130 -0.20289
v -0.04040 0.00272 -0.15446
v -0.04037 0.00142 -0.16810
v -0.04034 0.00410 -0.12621
v -0.04029 0.00259 -0.25044
v -0.04027 0.00261 -0.23798
v -0.04007 0.00588 -0.25723
v -0.04001 0.00200 -0.21878
v -0.03987 -0.04952 -0.07450
v -0.03986 0.00815 -0.27799
v -0.03951 0.01241 -0.18443
v -0.03938 0.00984 -0.34252
v -0.03931 -0.01180 -0.09354
v -0.03916 -0.01621 -0.36106
v -0.03912 -0.03387 -0.20688
v -0.03884 0.00764 -0.20628
v -0.03879 -0.01600 -0.07942
v -0.03875 -0.00197 -0.34925
v -0.03872 -0.03764 -0.20271
v -0.03850 -0.04766 -0.09091
v -0.03840 -0.01832 -0.34341
v -0.03837 -0.03444 -0.32824
v -0.03811 -0.02278 -0.36187
v -0.03802 -0.00712 -0.36262
v -0.03796 -0.03667 -0.28448
v -0.03783 -0.02718 -0.35421
v -0.03766 -0.04760 -0.16076
v -0.03752 -0.03984 -0.14337
v -0.03741 -0.03629 -0.18351
v -0.03732 0.01069 -0.24094
v -0.03726 -0.03497 -0.29179
v -0.03724 -0.02848 -0.09852
v -0.03714 -0.03347 -0.30084
v -0.03687 -0.03902 -0.18598
v -0.03671 -0.03884 -0.18614
v -0.03663 -0.03892 -0.18607
v -0.03653 -0.03876 -0.17468
v -0.03643 -0.03234 -0.13000
v -0.03643 -0.04204 -0.18425
v -0.03625 -0.03466 -0.27521
v -0.03624 -0.01800 -0.36641
v -0.03605 -0.01827 -0.36676
v -0.03604 -0.01806 -0.36555
v -0.03600 -0.04792 -0.14283
v -0.03588 -0.01852 -0.36655
v -0.03561 -0.03902 -0.32776
v -0.03560 0.01603 -0.01044
v -0.03542 -0.03573 -0.22060
v -0.03475 -0.01381 -0.16946
v -0.03456 -0.03446 -0.24929
v -0.03452 -0.02701 -0.11930
v -0.03435 -0.02577 -0.34729
v -0.03423 -0.00880 -0.25872
v -0.03421 0.01052 -0.16456
v -0.03409 -0.01953 -0.36762
v -0.03393 0.01779 -0.03728
v -0.03386 -0.04839 -0.11334
v -0.03379 -0.03150 -0.19111
v -0.03357 -0.02298 -0.36837
v -0.03340 0.00402 -0.36200
v -0.03331 0.00799 -0.35237
v -0.03324 -0.02837 -0.15892
v -0.03322 -0.03343 -0.23355
v -0.03318 -0.03917 -0.21686
v -0.03315 0.01566 -0.13964
v -0.03304 -0.03474 -0.31294
v -0.03300 -0.03777 -0.26592
v -0.03280 0.01815 -0.08553
v -0.03262 -0.04072 -0.19071
v -0.03248 -0.02400 -0.32304
v -0.03220 -0.01951 -0.28874
v -0.03209 -0.01698 -0.26938
v -0.03195 -0.03277 -0.33852
v -0.03189 -0.02239 -0.17828
v -0.03165 -0.02534 -0.14288
v -0.03154 -0.02446 -0.33251
v -0.03144 -0.02022 -0.19742
v -0.03106 -0.04913 -0.04882
v -0.03102 -0.04170 -0.25710
v -0.03100 -0.02421 -0.25254
v -0.03082 -0.02922 -0.36743
v -0.03059 -0.02042 -0.31023
v -0.03054 0.01844 -0.06316
v -0.02983 -0.02003 -0.21271
v -0.02952 -0.01781 -0.24300
v -0.02948 -0.02291 -0.22641
v -0.02943 -0.03976 -0.23895
v -0.02941 0.01659 -0.32266
v -0.02923 -0.04136 -0.31641
v -0.02922 -0.04413 -0.17627
v -0.02886 -0.03247 -0.37033
v -0.02880 -0.03252 -0.37028
v -0.02880 -0.03698 -0.37050
v -0.02867 -0.03257 -0.37052
v -0.02829 0.01961 -0.30582
v -0.02795 -0.04773 -0.01534
v -0.02730 -0.03554 -0.35060
v -0.02727 -0.04887 -0.15433
v -0.02667 0.01945 -0.23771
v -0.02663 -0.04125 -0.37055
v -0.02635 0.01902 -0.10958
v -0.02624 -0.03734 -0.37216
v -0.02612 -0.03754 -0.37244
v -0.02604 -0.03771 -0.37231
v -0.02594 0.02168 -0.00889
v -0.02584 -0.03196 -0.01531
v -0.02558 -0.02976 -0.36879
v -0.02511 0.02220 -0.00799
v -0.02508 0.01319 -0.36175
v -0.02490 0.01763 -0.12253
v -0.02480 0.02226 -0.00821
v -0.02398 0.01901 -0.19268
v -0.02367 0.02131 -0.20565
v -0.02362 -0.03782 -0.37152
v -0.02329 0.02298 -0.00762
v -0.02325 0.01961 -0.22053
v -0.02304 -0.04267 -0.30122
v -0.02287 0.02258 -0.00825
v -0.02279 0.01897 -0.09402
v -0.02249 -0.04045 -0.37377
v -0.02247 0.01949 -0.28385
v -0.02235 -0.04058 -0.34103
v -0.02210 0.02079 -0.00890
v -0.02146 -0.04435 -0.24042
v -0.02138 0.02261 -0.26309
v -0.02068 -0.04737 -0.01812
v -0.02055 0.01861 -0.35103
v -0.02054 -0.05173 -0.07476
v -0.02053 -0.05228 -0.12539
v -0.02047 0.01885 -0.24962
v -0.01931 -0.05496 -0.08288
v -0.01914 0.01755 -0.33774
v -0.01853 0.01763 -0.31843
v -0.01837 0.02007 -0.15690
v -0.01798 0.02209 -0.17237
v -0.01780 -0.04454 -0.21330
v -0.01778 0.02277 -0.07784
v -0.01679 0.01437 -0.36168
v -0.01544 -0.04433 -0.27643
v -0.01474 -0.05130 -0.09972
v -0.01471 0.01469 -0.36228
v -0.01466 0.01465 -0.36238
v -0.01453 0.01456 -0.36223
v -0.01435 -0.04671 -0.31259
v -0.01413 -0.04934 -0.03826
v -0.01367 0.02249 -0.31598
v -0.01349 0.01480 -0.36333
v -0.01336 -0.04231 -0.32720
v -0.01277 -0.05117 -0.05396
v -0.01187 0.01587 -0.35328
v -0.01076 0.01520 -0.36114
v -0.01056 0.01869 -0.32027
v -0.00997 0.02685 -0.02801
v -0.00992 -0.03218 -0.37196
v -0.00982 0.01500 -0.36156
v -0.00972 0.01491 -0.36147
v -0.00965 0.01304 -0.36206
v -0.00956 -0.03828 -0.01696
v -0.00874 -0.04429 -0.01711
v -0.00846 -0.04007 -0.36287
v -0.00792 -0.04595 -0.13879
v -0.00741 -0.04464 -0.19615
v -0.00726 -0.03053 -0.37215
v -0.00701 -0.04434 -0.24506
v -0.00684 0.02545 -0.01662
v -0.00654 -0.02737 -0.37052
v -0.00596 -0.03052 -0.37066
v -0.00587 -0.03050 -0.37072
v -0.00574 -0.04419 -0.34887
v -0.00570 -0.04854 -0.12620
v -0.00409 0.02152 -0.06355
v -0.00373 -0.03508 -0.36746
v -0.00365 0.01837 -0.24284
v -0.00356 0.01983 -0.11946
v -0.00344 -0.04293 -0.17629
v -0.00336 0.01988 -0.29796
v -0.00307 0.02469 -0.03565
v -0.00250 -0.04200 -0.28411
v -0.00208 0.02383 -0.04511
v -0.00193 -0.03927 -0.02042
v -0.00160 0.02020 -0.10773
v -0.00128 -0.04113 -0.30807
v -0.00098 -0.02867 -0.37056
v -0.00068 0.02123 -0.22273
v -0.00023 0.01816 -0.01120
v -0.00012 -0.01325 -0.00501
v -0.00012 0.02075 -0.09521
v -0.00009 0.01437 -0.35120
v -0.00009 0.01244 -0.36429
v 0.00016 -0.04286 -0.27129
v 0.00029 -0.04386 -0.16302
v 0.00032 -0.04425 -0.06296
v 0.00088 0.02069 -0.17518
v 0.00140 0.01958 -0.20728
v 0.00197 0.02022 -0.13655
v 0.00231 0.01925 -0.15902
v 0.00238 -0.04137 -0.12423
v 0.00315 -0.03785 -0.37273
v 0.00327 -0.04256 -0.08127
v 0.00327 0.01639 -0.27930
v 0.00413 0.01818 -0.18855
v 0.00442 0.01915 -0.26031
v 0.00446 0.01548 -0.32802
v 0.00447 0.00874 -0.36455
v 0.00456 0.00756 -0.36499
v 0.00474 0.00760 -0.36508
v 0.00478 -0.00096 -0.00235
v 0.00485 0.00649 -0.36553
v 0.00503 -0.02847 -0.01688
v 0.00515 0.01978 -0.03847
v 0.00592 -0.00121 -0.36532
v 0.00596 0.00275 -0.36485
v 0.00598 0.01738 -0.31577
v 0.00621 -0.04190 -0.10983
v 0.00668 -0.00237 -0.36516
v 0.00668 -0.00205 -0.36495
v 0.00674 -0.00203 -0.36505
v 0.00676 -0.00344 -0.36495
v 0.00686 -0.00287 -0.36490
v 0.00692 -0.01933 -0.37074
v 0.00694 -0.00284 -0.36503
v 0.00714 -0.00387 -0.36491
v 0.00768 -0.03442 -0.35817
v 0.00789 -0.00999 -0.36853
v 0.00790 -0.01265 -0.36804
v 0.00801 0.00589 -0.00215
v 0.00804 -0.01053 -0.36895
v 0.00805 -0.01017 -0.36917
v 0.00809 0.00591 -0.00252
v 0.00810 0.01075 -0.00629
v 0.00813 -0.00343 -0.35702
v 0.00813 0.00612 -0.00240
v 0.00816 0.00551 -0.00202
v 0.00817 0.00465 -0.00185
v 0.00817 -0.01048 -0.36919
v 0.00821 0.00486 -0.00174
v 0.00822 -0.03911 -0.03948
v 0.00838 -0.01130 -0.36870
v 0.00846 0.00513 -0.00228
v 0.00847 0.01210 -0.33529
v 0.00849 0.00644 -0.02809
v 0.00858 0.00035 -0.00018
v 0.00869 -0.01329 -0.36739
v 0.00875 -0.01328 -0.36743
v 0.00882 -0.03728 -0.21868
v 0.00901 -0.03822 -0.04819
v 0.00902 -0.03522 -0.23356
v 0.00903 -0.01371 -0.36707
v 0.00926 -0.03298 -0.32491
v 0.00981 -0.03530 -0.24866
v 0.00993 -0.01722 -0.00549
v 0.00996 -0.03614 -0.15070
v 0.01006 -0.00521 0.00012
v 0.01007 -0.00553 -0.00011
v 0.01011 -0.00549 0.00043
v 0.01011 -0.03646 -0.29113
v 0.01013 -0.02984 -0.36206
v 0.01040 -0.03469 -0.25820
v 0.01061 -0.03164 -0.31201
v 0.01102 -0.01133 -0.00101
v 0.01107 0.00056 -0.31601
v 0.01133 -0.01515 -0.02585
v 0.01241 -0.02331 -0.33916
v 0.01287 -0.03251 -0.27397
v 0.01296 -0.01547 -0.23816
v 0.01301 0.01195 -0.23886
v 0.01313 -0.03282 -0.20404
v 0.01335 0.00983 -0.17985
v 0.01364 0.01315 -0.06564
v 0.01367 -0.03253 -0.18008
v 0.01405 -0.01077 -0.01070
v 0.01413 0.01404 -0.22276
v 0.01444 0.00891 -0.26692
v 0.01455 -0.02770 -0.34660
v 0.01487 0.00604 -0.29357
v 0.01494 -0.02957 -0.11371
v 0.01506 -0.03199 -0.13349
v 0.01521 0.01351 -0.20415
v 0.01543 0.00647 -0.26401
v 0.01565 0.00743 -0.26396
v 0.01593 0.00843 -0.11372
v 0.01594 0.00750 -0.26420
v 0.01610 0.00630 -0.08011
v 0.01614 0.00962 -0.15820
v 0.01641 0.00881 -0.25896
v 0.01731 -0.03003 -0.07548
v 0.01747 -0.02670 -0.16119
v 0.01785 0.00706 -0.26179
v 0.01813 -0.02528 -0.09345
v 0.01864 -0.01622 -0.04512
v 0.01948 0.00038 -0.24405
v 0.01949 -0.00275 -0.21343
v 0.01950 -0.02456 -0.06484
v 0.01965 -0.00006 -0.05805
v 0.02106 -0.00894 -0.10708
v 0.02150 -0.00655 -0.15768
v 0.02201 0.00113 -0.22637
v 0.02263 -0.00614 -0.17780
v 0.02288 -0.00895 -0.20332
v 0.02289 -0.00624 -0.08922
v 0.02292 -0.00710 -0.13438
v 0.02302 -0.01617 -0.19223
vn -0.8720 -0.2466 0.4229
vn -0.6545 0.1391 -0.7432
vn -0.6491 0.7407 -0.1733
vn -0.1459 -0.9893 -0.0076
vn -0.1323 -0.1986 0.9711
vn -0.0260 0.9930 0.1150
vn -0.8544 0.5158 -0.0624
vn -0.5193 -0.5318 -0.6690
vn -0.5457 -0.8024 0.2417
vn -0.8708 -0.2292 0.4349
vn -0.9270 -0.3302 0.1780
vn -0.1725 0.7126 -0.6800
vn -0.7849 0.5681 -0.2473
vn -0.2299 -0.8592 0.4571
vn -0.7699 0.6296 -0.1043
vn -0.8239 -0.3945 0.4068
vn -0.8429 -0.1497 0.5168
vn -0.5908 0.4284 0.6837
vn -0.9712 -0.1551 0.1808
vn -0.6755 -0.7345 0.0653
vn -0.1987 -0.4593 -0.8658
vn -0.9574 0.1745 0.2303
vn -0.4664 -0.8832 0.0498
vn -0.9234 0.3703 -0.1013
vn -0.7812 -0.6242 0.0027
vn -0.8891 0.3185 -0.3288
vn -0.9917 -0.1250 -0.0295
vn -0.7254 0.6661 -0.1736
vn -0.2972 -0.1646 0.9405
vn -0.8323 0.5380 -0.1334
vn -0.5883 0.6939 0.4153
vn -0.4692 0.8457 0.2541
vn -0.6238 0.7034 0.3408
vn -0.8791 -0.2380 0.4129
vn -0.8606 -0.2493 0.4441
vn -0.6539 -0.7549 -0.0505
vn -0.9083 -0.4162 -0.0421
vn -0.9115 -0.4092 0.0427
vn -0.2983 0.9435 -0.1445
vn -0.9870 0.1588 -0.0265
vn -0.2968 0.0429 0.9540
vn -0.2618 0.0041 -0.9651
vn -0.9017 0.4218 -0.0953
vn -0.7167 0.6955 0.0520
vn -0.8966 0.0347 0.4416
vn -0.5507 -0.8215 0.1476
vn -0.9981 0.0009 0.0614
vn -0.8984 0.4304 -0.0873
vn -0.3955 0.8564 -0.3320
vn -0.9495 0.3135 -0.0153
vn -0.3893 -0.8640 0.3193
vn -0.9630 0.0209 -0.2687
vn -0.8237 0.5319 -0.1965
vn -0.2976 -0.0392 0.9539
vn -0.7946 0.6069 -0.0145
vn -0.7043 -0.6890 0.1711
vn -0.9866 -0.1572 -0.0429
vn -0.9856 0.0814 -0.1484
vn -0.9869 -0.1562 0.0400
vn -0.9680 -0.2364 -0.0845
vn -0.9432 0.2812 -0.1769
vn -0.8023 0.5638 -0.1962
vn -0.9614 -0.2415 0.1317
vn -0.9874 -0.0636 -0.1447
vn -0.7036 -0.4553 0.5455
vn -0.2342 -0.2329 0.9439
vn -0.9739 0.2259 -0.0231
vn -0.9401 -0.3347 0.0644
vn -0.1198 -0.9827 -0.1410
vn -0.9309 -0.3617 -0.0505
vn -0.9619 0.2584 -0.0893
vn -0.9888 0.0734 0.1301
vn -0.9235 0.3836 0.0077
vn -0.9491 -0.3119 0.0438
vn -0.9645 -0.2642 0.0039
vn -0.7255 0.6862 0.0524
vn -0.9641 -0.2642 -0.0252
vn -0.3839 -0.9223 0.0436
vn -0.7109 0.7009 0.0578
vn -0.6809 0.7319 0.0250
vn -0.7473 0.6613 -0.0642
vn -0.9718 -0.2328 -0.0366
vn -0.9747 0.1812 -0.1307
vn -0.9380 0.3445 -0.0375
vn -0.7337 0.6786 0.0344
vn -0.9957 0.0373 -0.0850
vn -0.9713 0.1420 -0.1906
vn -0.6017 -0.7980 0.0344
vn -0.2997 -0.9535 -0.0307
vn -0.9541 -0.2860 0.0888
vn -0.9796 0.1975 -0.0381
vn -0.4959 -0.5623 -0.6618
vn -0.2602 0.2132 -0.9417
vn -0.9091 -0.4163 -0.0127
vn -0.5664 -0.8053 -0.1748
vn -0.5347 -0.8316 -0.1503
vn -0.9613 0.2601 -0.0907
vn -0.9695 0.1468 -0.1964
vn -0.7225 0.6907 -0.0287
vn -0.6825 -0.7302 -0.0314
vn -0.9222 0.3372 -0.1894
vn -0.9794 -0.1772 -0.0967
vn -0.9818 -0.1385 -0.1296
vn -0.5497 0.4418 -0.7089
vn -0.7722 -0.3507 -0.5298
vn -0.9909 0.0654 -0.1172
vn -0.8278 0.5515 -0.1024
vn -0.6200 -0.7842 -0.0225
vn -0.9612 0.0859 0.2621
vn 0.3366 0.8777 -0.3412
vn -0.4362 0.1405 -0.8888
vn -0.2694 0.1590 -0.9498
vn -0.3720 -0.9264 -0.0581
vn -0.8931 -0.4463 0.0562
vn -0.5919 -0.7923 -0.1477
vn -0.6847 0.7232 0.0902
vn -0.9737 0.1314 -0.1859
vn -0.9404 -0.3381 -0.0376
vn -0.9931 -0.1155 0.0207
vn -0.9944 -0.0736 -0.0760
vn -0.8063 -0.5356 0.2512
vn -0.9170 -0.3845 0.1062
vn -0.6859 0.7272 0.0266
vn 0.5546 0.6069 -0.5693
vn -0.4966 0.8670 -0.0422
vn -0.2605 -0.9651 0.0267
vn -0.9540 0.2938 0.0603
vn -0.4734 -0.2022 -0.8573
vn -0.5599 0.3512 -0.7504
vn -0.5965 0.7708 -0.2238
vn -0.9670 0.2548 0.0031
vn -0.9901 0.1403 0.0044
vn -0.4796 -0.8766 -0.0394
vn -0.6360 0.7716 -0.0099
vn -0.9978 -0.0102 0.0659
vn -0.8972 -0.4403 0.0352
vn -0.6032 0.7942 -0.0734
vn -0.5371 -0.8375 -0.1008
vn -0.9630 -0.2121 0.1664
vn -0.9790 -0.2024 0.0224
vn -0.9919 -0.0785 0.1003
vn -0.8605 -0.4169 -0.2927
vn -0.9955 0.0864 -0.0385
vn -0.9871 -0.1452 -0.0681
vn -0.9930 -0.1114 -0.0393
vn -0.9659 -0.2540 -0.0492
vn -0.3034 -0.9492 0.0829
vn -0.4784 -0.8776 -0.0302
vn -0.9954 0.0879 0.0371
vn -0.8212 -0.5203 -0.2342
vn -0.9507 -0.3097 -0.0169
vn -0.3886 0.9214 -0.0088
vn -0.9981 -0.0358 -0.0492
vn -0.9613 -0.2753 0.0041
vn -0.9959 -0.0835 -0.0357
vn -0.7086 -0.7056 0.0084
vn -0.5122 0.8511 -0.1155
vn -0.3723 -0.9275 -0.0345
vn -0.0937 -0.9911 -0.0950
vn -0.1891 0.5776 -0.7941
vn -0.8043 0.0642 -0.5908
vn -0.4294 0.1088 -0.8966
vn 0.3960 0.0449 -0.9171
vn -0.2795 0.9601 0.0058
vn -0.2771 -0.8981 0.3415
vn -0.5152 -0.8567 -0.0253
vn 0.0868 -0.9885 -0.1237
vn -0.2248 0.9733 -0.0468
vn -0.4231 -0.8932 0.1522
vn -0.4722 0.8783 -0.0746
vn 0.1617 0.9760 -0.1457
vn 0.1838 0.6569 -0.7312
vn -0.5600 -0.2874 -0.7770
vn -0.0211 -0.3322 0.9430
vn -0.1687 -0.1616 0.9723
vn -0.0780 0.2552 -0.9637
vn -0.0659 -0.6739 0.7358
vn -0.5175 0.7567 -0.3995
vn -0.2577 0.9659 0.0246
vn 0.0514 0.0135 0.9986
vn -0.1986 0.9787 -0.0510
vn -0.6083 0.7937 0.0009
vn -0.1485 0.3979 -0.9054
vn -0.1590 0.9100 -0.3829
vn -0.2449 0.9695 0.0054
vn -0.2405 -0.9684 0.0656
vn -0.3303 0.9428 0.0445
vn -0.0922 0.9927 -0.0780
vn 0.2645 -0.6700 -0.6936
vn -0.2207 0.9749 0.0282
vn -0.3053 -0.9402 -0.1509
vn -0.0460 0.2446 0.9685
vn -0.1998 -0.9798 0.0036
vn -0.2463 0.9692 0.0072
vn 0.1362 -0.5498 0.8241
vn -0.3245 0.9421 -0.0852
vn 0.2188 -0.9729 0.0751
vn 0.0016 -0.9984 -0.0570
vn -0.2544 0.9662 0.0413
vn 0.0668 -0.9976 -0.0194
vn -0.1150 0.9908 -0.0708
vn -0.2110 0.9243 -0.3179
vn -0.2286 0.9727 0.0411
vn -0.1542 0.9879 0.0186
vn -0.0372 -0.9992 -0.0152
vn -0.0972 0.9951 -0.0200
vn -0.0158 0.6850 -0.7284
vn -0.1184 -0.9921 -0.0423
vn 0.1979 -0.9798 -0.0282
vn -0.1174 0.9806 -0.1571
vn -0.0341 0.9850 0.1692
vn -0.1294 0.9900 -0.0557
vn 0.0113 -0.9999 -0.0099
vn 0.2326 -0.9678 0.0957
vn -0.0231 0.9955 -0.0919
vn 0.0694 0.0870 -0.9938
vn 0.1613 -0.9853 -0.0559
vn 0.1726 -0.9836 0.0517
vn 0.1874 0.9784 -0.0877
vn -0.0343 0.9805 -0.1933
vn 0.0979 0.9873 -0.1254
vn -0.2143 0.9735 -0.0799
vn 0.0373 0.0745 -0.9965
vn -0.0747 0.5880 -0.8054
vn 0.2334 0.9702 -0.0650
vn -0.0805 0.1708 -0.9820
vn 0.1986 -0.1867 0.9621
vn 0.4127 -0.8653 0.2844
vn 0.0439 -0.9935 -0.1052
vn 0.3920 -0.9179 -0.0621
vn 0.2894 -0.9572 -0.0026
vn 0.2661 0.1184 -0.9567
vn 0.2717 -0.9621 0.0224
vn 0.5663 0.7736 0.2844
vn -0.0962 0.2087 -0.9732
vn 0.2806 0.7547 -0.5930
vn 0.1312 -0.1806 -0.9748
vn 0.2603 -0.9647 -0.0409
vn 0.4316 -0.9008 -0.0479
vn 0.1279 0.9916 -0.0209
vn 0.1011 -0.5610 -0.8216
vn 0.1134 0.9932 -0.0279
vn 0.1625 0.9867 -0.0016
vn 0.2141 -0.9724 -0.0922
vn 0.1126 0.9925 0.0472
vn -0.0698 0.9937 -0.0876
vn 0.2644 -0.9628 -0.0555
vn 0.4382 0.8933 -0.0994
vn 0.6383 -0.5631 0.5248
vn 0.3303 0.9437 -0.0174
vn 0.3294 -0.9424 -0.0580
vn 0.3256 -0.1021 -0.9400
vn 0.1875 0.9797 -0.0704
vn 0.5537 0.7756 0.3030
vn -0.1427 -0.2751 0.9508
vn 0.3313 0.9403 -0.0781
vn 0.6910 0.7111 -0.1296
vn 0.1408 0.7830 -0.6058
vn 0.4084 -0.9128 0.0042
vn 0.3796 -0.9244 -0.0382
vn 0.5560 -0.8305 -0.0348
vn 0.2540 0.9648 -0.0680
vn 0.1349 0.9898 0.0455
vn 0.2681 0.9628 0.0338
vn 0.3302 0.9439 0.0079
vn 0.5905 -0.8048 -0.0600
vn 0.4549 -0.6928 -0.5596
vn 0.5822 -0.8122 0.0370
vn 0.3856 0.9220 -0.0357
vn 0.2766 0.9609 0.0158
vn 0.3214 0.9468 0.0183
vn 0.1851 0.9738 -0.1324
vn 0.8484 0.5284 0.0317
vn 0.5892 0.3960 -0.7043
vn 0.5668 0.3902 -0.7256
vn -0.1986 0.0467 0.9790
vn -0.2618 -0.1039 -0.9595
vn 0.6652 -0.5356 0.5202
vn 0.8504 0.4785 0.2185
vn -0.2109 -0.0488 -0.9763
vn 0.9439 0.3266 -0.0483
vn 0.6556 0.7535 -0.0490
vn 0.6294 -0.7768 -0.0220
vn 0.9327 0.2146 -0.2900
vn 0.9751 0.1654 -0.1475
vn 0.7994 0.0963 -0.5930
vn 0.0815 0.2424 -0.9667
vn 0.9724 0.1704 -0.1595
vn 0.4423 -0.1100 -0.8901
vn 0.9406 0.2779 -0.1953
vn 0.9213 0.2906 -0.2584
vn 0.5507 -0.8323 -0.0624
vn -0.9078 0.1282 -0.3994
vn -0.0335 0.2428 -0.9695
vn -0.8175 0.3899 0.4239
vn 0.8387 0.2972 -0.4564
vn -0.9570 -0.0299 -0.2885
vn 0.5575 0.6757 0.4823
vn 0.6890 0.5498 0.4722
vn 0.9605 0.2434 -0.1350
vn -0.7745 0.3899 0.4981
vn -0.2827 0.2120 0.9355
vn -0.0077 0.3733 0.9277
vn 0.1242 -0.3861 -0.9140
vn -0.5305 0.2611 0.8065
vn 0.7646 -0.6012 0.2321
vn 0.9658 0.2058 -0.1580
vn 0.9413 0.2023 0.2704
vn 0.9182 0.3771 -0.1217
vn 0.9195 0.3929 -0.0154
vn 0.8481 0.1945 0.4928
vn 0.6513 0.1665 -0.7404
vn 0.6690 -0.0484 -0.7417
vn 0.6226 -0.7815 -0.0404
vn 0.6924 -0.7190 0.0605
vn 0.8927 -0.4475 -0.0538
vn 0.9887 0.0801 -0.1268
vn 0.5890 -0.8079 0.0187
vn 0.8182 -0.5739 0.0335
vn 0.3687 -0.6976 0.6143
vn 0.6341 -0.7727 0.0287
vn -0.4695 -0.1083 0.8763
vn 0.9217 0.3268 -0.2088
vn -0.5350 -0.2138 0.8174
vn 0.9583 -0.2761 -0.0734
vn 0.9268 -0.0486 -0.3723
vn 0.9223 -0.3828 0.0525
vn 0.9711 -0.2384 0.0048
vn 0.3402 -0.2268 0.9126
vn 0.9991 0.0056 -0.0412
vn 0.9733 0.0152 0.2292
vn 0.9964 0.0746 -0.0394
vn 0.9550 -0.2966 0.0077
vn 0.9625 -0.2631 -0.0667
vn 0.6220 0.7817 -0.0466
vn 0.8050 -0.5829 -0.1106
vn 0.7319 0.6809 0.0273
vn 0.6599 0.7509 -0.0274
vn 0.6818 -0.7310 -0.0282
vn 0.9999 0.0052 0.0145
vn 0.6136 0.7877 -0.0546
vn 0.6770 0.7278 -0.1093
vn 0.7787 -0.6274 -0.0013
vn 0.8582 0.5098 -0.0589
vn 0.9008 -0.4343 -0.0053
vn 0.8078 -0.5892 0.0165
vn 0.8209 0.5690 0.0479
vn 0.9909 -0.1209 -0.0597
vn 0.8876 0.3309 -0.3204
vn 0.7779 0.6278 0.0282
vn 0.6133 0.6920 -0.3808
vn 0.7772 0.6287 -0.0276
vn 0.8064 0.5912 -0.0136
vn 0.7968 0.6037 -0.0249
vn 0.8768 -0.4800 -0.0299
vn 0.9388 -0.3441 0.0170
vn 0.8937 -0.4484 -0.0113
vn 0.8832 -0.4676 -0.0363
vn 0.9687 -0.1532 0.1952
vn 0.9866 -0.0403 -0.1579
vn 0.9647 -0.2293 -0.1293
vn 0.8790 -0.4731 0.0602
vn 0.9322 0.2980 0.2056
vn 0.9980 -0.0610 -0.0184
vn 0.9993 0.0371 -0.0057
vn 0.9930 0.1136 -0.0316
vn 0.9770 0.2097 0.0388
vn 0.9711 0.2300 -0.0638
vn 0.9981 0.0611 0.0053
vn 0.9997 -0.0148 0.0185
vn 0.9363 -0.3419 -0.0798
f 267//267 241//241 252//252
f 289//289 252//252 235//235
f 326//326 267//267 252//252
f 326//326 252//252 289//289
f 162//162 172//172 173//173
f 171//171 172//172 162//162
f 189//189 169//169 173//173
f 162//162 173//173 169//169
f 169//169 189//189 229//229
f 229//229 189//189 241//241
f 235//235 236//236 232//232
f 223//223 237//237 236//236
f 235//235 232//232 223//223
f 252//252 223//223 236//236
f 236//236 237//237 252//252
f 252//252 237//237 235//235
f 238//238 166//166 229//229
f 150//150 161//161 162//162
f 124//124 111//111 114//114
f 92//92 42//42 83//83
f 95//95 55//55 92//92
f 51//51 92//92 55//55
f 95//95 92//92 150//150
f 166//166 95//95 150//150
f 92//92 83//83 112//112
f 183//183 171//171 162//162
f 166//166 150//150 169//169
f 219//219 258//258 225//225
f 258//258 224//224 225//225
f 225//225 224//224 219//219
f 235//235 226//226 294//294
f 235//235 294//294 289//289
f 317//317 326//326 289//289
f 307//307 304//304 296//296
f 297//297 296//296 294//294
f 312//312 313//313 307//307
f 296//296 304//304 293//293
f 293//293 304//304 297//297
f 291//291 307//307 293//293
f 317//317 313//313 312//312
f 317//317 312//312 307//307
f 317//317 332//332 326//326
f 287//287 280//280 284//284
f 288//288 287//287 284//284
f 300//300 285//285 281//281
f 300//300 286//286 285//285
f 285//285 286//286 281//281
f 291//291 290//290 288//288
f 285//285 286//286 284//284
f 288//288 290//290 300//300
f 285//285 284//284 280//280
f 258//258 281//281 280//280
f 281//281 275//275 274//274
f 274//274 275//275 273//273
f 274//274 275//275 277//277
f 258//258 274//274 277//277
f 287//287 226//226 280//280
f 281//281 257//257 300//300
f 273//273 275//275 258//258
f 93//93 83//83 87//87
f 83//83 93//93 112//112
f 207//207 226//226 129//129
f 210//210 207//207 220//220
f 207//207 196//196 219//219
f 219//219 220//220 207//207
f 207//207 178//178 196//196
f 93//93 235//235 112//112
f 226//226 235//235 93//93
f 83//83 55//55 90//90
f 87//87 83//83 90//90
f 129//129 226//226 93//93
f 219//219 224//224 220//220
f 220//220 225//225 226//226
f 238//238 229//229 292//292
f 191//191 166//166 238//238
f 292//292 343//343 238//238
f 55//55 31//31 33//33
f 27//27 45//45 33//33
f 45//45 31//31 33//33
f 32//32 31//31 45//45
f 33//33 31//31 32//32
f 142//142 166//166 191//191
f 45//45 51//51 90//90
f 90//90 51//51 121//121
f 115//115 91//91 142//142
f 91//91 139//139 145//145
f 135//135 139//139 91//91
f 81//81 52//52 47//47
f 47//47 139//139 151//151
f 139//139 47//47 90//90
f 158//158 217//217 213//213
f 158//158 115//115 191//191
f 135//135 115//115 158//158
f 251//251 208//208 186//186
f 251//251 247//247 208//208
f 151//151 135//135 102//102
f 102//102 158//158 186//186
f 100//100 102//102 186//186
f 140//140 151//151 102//102
f 208//208 94//94 100//100
f 309//309 300//300 257//257
f 157//157 201//201 130//130
f 272//272 219//219 201//201
f 309//309 330//330 332//332
f 309//309 332//332 300//300
f 330//330 309//309 282//282
f 202//202 221//221 157//157
f 202//202 215//215 221//221
f 282//282 272//272 221//221
f 245//245 221//221 215//215
f 272//272 201//201 221//221
f 330//330 325//325 328//328
f 325//325 330//330 348//348
f 348//348 330//330 344//344
f 344//344 282//282 269//269
f 282//282 245//245 269//269
f 44//44 157//157 53//53
f 245//245 164//164 190//190
f 164//164 157//157 44//44
f 190//190 164//164 44//44
f 79//79 63//63 68//68
f 38//38 151//151 140//140
f 259//259 325//325 333//333
f 208//208 247//247 259//259
f 208//208 259//259 233//233
f 334//334 327//327 348//348
f 334//334 319//319 327//327
f 327//327 319//319 233//233
f 141//141 94//94 109//109
f 141//141 109//109 136//136
f 149//149 136//136 119//119
f 68//68 140//140 141//141
f 68//68 141//141 122//122
f 76//76 68//68 74//74
f 122//122 149//149 154//154
f 149//149 141//141 136//136
f 148//148 136//136 208//208
f 148//148 208//208 193//193
f 148//148 193//193 156//156
f 119//119 148//148 156//156
f 132//132 154//154 149//149
f 117//117 132//132 156//156
f 156//156 193//193 133//133
f 133//133 117//117 156//156
f 354//354 342//342 271//271
f 357//357 351//351 354//354
f 335//335 242//242 253//253
f 354//354 348//348 357//357
f 316//316 334//334 361//361
f 354//354 335//335 360//360
f 366//366 360//360 335//335
f 335//335 341//341 366//366
f 99//99 74//74 75//75
f 75//75 74//74 154//154
f 154//154 77//77 75//75
f 168//168 199//199 99//99
f 168//168 99//99 185//185
f 155//155 117//117 153//153
f 70//70 77//77 153//153
f 157//157 130//130 81//81
f 368//368 371//371 361//361
f 336//336 231//231 314//314
f 339//339 336//336 371//371
f 244//244 339//339 260//260
f 339//339 321//321 260//260
f 88//88 84//84 133//133
f 117//117 84//84 153//153
f 153//153 84//84 127//127
f 88//88 138//138 127//127
f 88//88 133//133 205//205
f 85//85 77//77 70//70
f 159//159 138//138 205//205
f 108//108 138//138 159//159
f 98//98 127//127 138//138
f 105//105 104//104 138//138
f 98//98 105//105 103//103
f 105//105 104//104 103//103
f 103//103 104//104 108//108
f 98//98 108//108 106//106
f 167//167 159//159 244//244
f 106//106 127//127 98//98
f 131//131 143//143 106//106
f 131//131 106//106 67//67
f 67//67 97//97 131//131
f 253//253 242//242 185//185
f 335//335 253//253 341//341
f 347//347 366//366 341//341
f 263//263 253//253 185//185
f 85//85 182//182 185//185
f 270//270 347//347 263//263
f 337//337 347//347 270//270
f 368//368 361//361 347//347
f 367//367 368//368 347//347
f 356//356 371//371 367//367
f 265//265 337//337 262//262
f 353//353 337//337 265//265
f 365//365 367//367 353//353
f 337//337 353//353 367//367
f 370//370 365//365 353//353
f 371//371 368//368 367//367
f 181//181 85//85 61//61
f 61//61 85//85 70//70
f 71//71 72//72 118//118
f 123//123 72//72 71//71
f 260//260 321//321 230//230
f 230//230 266//266 239//239
f 266//266 345//345 283//283
f 230//230 321//321 346//346
f 107//107 144//144 97//97
f 120//120 144//144 107//107
f 73//73 120//120 60//60
f 198//198 239//239 209//209
f 113//113 198//198 126//126
f 69//69 58//58 126//126
f 49//49 58//58 21//21
f 239//239 266//266 209//209
f 209//209 266//266 283//283
f 101//101 120//120 49//49
f 173//173 172//172 171//171
f 183//183 173//173 171//171
f 69//69 126//126 89//89
f 198//198 230//230 239//239
f 265//265 203//203 264//264
f 350//350 353//353 264//264
f 264//264 203//203 179//179
f 364//364 370//370 350//350
f 358//358 364//364 369//369
f 73//73 134//134 57//57
f 60//60 120//120 82//82
f 48//48 60//60 82//82
f 48//48 170//170 73//73
f 170//170 137//137 188//188
f 283//283 268//268 209//209
f 209//209 268//268 200//200
f 200//200 268//268 197//197
f 283//283 358//358 268//268
f 358//358 355//355 268//268
f 268//268 362//362 261//261
f 218//218 261//261 315//315
f 355//355 369//369 362//362
f 12//12 21//21 2//2
f 3//3 12//12 2//2
f 49//49 39//39 101//101
f 14//14 18//18 5//5
f 39//39 49//49 6//6
f 18//18 39//39 6//6
f 25//25 78//78 23//23
f 25//25 89//89 78//78
f 3//3 1//1 5//5
f 40//40 48//48 82//82
f 28//28 25//25 8//8
f 86//86 101//101 28//28
f 28//28 8//8 7//7
f 15//15 28//28 7//7
f 46//46 78//78 20//20
f 9//9 46//46 20//20
f 62//62 28//28 15//15
f 16//16 17//17 20//20
f 9//9 17//17 16//16
f 15//15 17//17 16//16
f 10//10 17//17 15//15
f 50//50 40//40 64//64
f 23//23 78//78 46//46
f 218//218 147//147 78//78
f 315//315 306//306 214//214
f 165//165 147//147 214//214
f 165//165 56//56 147//147
f 195//195 165//165 214//214
f 214//214 306//306 228//228
f 65//65 56//56 165//165
f 352//352 350//350 250//250
f 352//352 250//250 256//256
f 369//369 350//350 352//352
f 352//352 338//338 363//363
f 206//206 188//188 137//137
f 206//206 137//137 152//152
f 352//352 256//256 338//338
f 338//338 256//256 240//240
f 240//240 206//206 152//152
f 279//279 338//338 248//248
f 248//248 240//240 246//246
f 359//359 362//362 369//369
f 369//369 363//363 359//359
f 331//331 306//306 359//359
f 363//363 338//338 279//279
f 331//331 363//363 279//279
f 234//234 279//279 246//246
f 310//310 279//279 234//234
f 152//152 40//40 50//50
f 246//246 152//152 125//125
f 50//50 64//64 43//43
f 19//19 26//26 13//13
f 64//64 26//26 24//24
f 22//22 54//54 24//24
f 222//222 246//246 125//125
f 187//187 222//222 125//125
f 174//174 184//184 187//187
f 255//255 175//175 195//195
f 175//175 255//255 54//54
f 228//228 306//306 249//249
f 249//249 278//278 227//227
f 227//227 278//278 195//195
f 331//331 340//340 278//278
f 255//255 278//278 320//320
f 66//66 175//175 41//41
f 35//35 34//34 66//66
f 19//19 34//34 41//41
f 34//34 35//35 41//41
f 54//54 29//29 175//175
f 234//234 246//246 222//222
f 299//299 310//310 254//254
f 311//311 340//340 308//308
f 308//308 299//299 298//298
f 311//311 305//305 276//276
f 276//276 305//305 303//303
f 302//302 301//301 295//295
f 311//311 308//308 303//303
f 302//302 303//303 305//305
f 192//192 174//174 116//116
f 254//254 192//192 299//299
f 187//187 177//177 180//180
f 184//184 177//177 187//187
f 276//276 329//329 324//324
f 276//276 323//323 322//322
f 48//48 40//40 137//137
f 283//283 345//345 358//358
f 143//143 127//127 106//106
f 292//292 267//267 326//326
f 172//172 173//173 183//183
f 172//172 189//189 173//173
f 176//176 223//223 183//183
f 176//176 112//112 235//235
f 176//176 235//235 223//223
f 241//241 223//223 252//252
f 189//189 183//183 223//223
f 237//237 223//223 232//232
f 237//237 232//232 236//236
f 236//236 235//235 237//237
f 267//267 229//229 241//241
f 241//241 189//189 223//223
f 161//161 150//150 160//160
f 163//163 176//176 162//162
f 160//160 162//162 161//161
f 160//160 163//163 162//162
f 150//150 162//162 169//169
f 124//124 176//176 128//128
f 112//112 128//128 150//150
f 92//92 112//112 150//150
f 114//114 112//112 110//110
f 112//112 176//176 124//124
f 110//110 124//124 114//114
f 111//111 128//128 114//114
f 114//114 128//128 112//112
f 111//111 124//124 128//128
f 112//112 124//124 110//110
f 55//55 95//95 51//51
f 92//92 51//51 42//42
f 51//51 27//27 42//42
f 27//27 55//55 42//42
f 42//42 55//55 83//83
f 229//229 166//166 169//169
f 162//162 176//176 183//183
f 224//224 258//258 226//226
f 224//224 226//226 225//225
f 287//287 291//291 294//294
f 294//294 226//226 287//287
f 304//304 307//307 294//294
f 296//296 304//304 294//294
f 304//304 296//296 297//297
f 289//289 294//294 312//312
f 294//294 291//291 293//293
f 313//313 317//317 289//289
f 300//300 307//307 291//291
f 307//307 300//300 317//317
f 290//290 291//291 287//287
f 290//290 288//288 284//284
f 286//286 285//285 280//280
f 275//275 281//281 277//277
f 273//273 257//257 281//281
f 280//280 226//226 258//258
f 273//273 258//258 257//257
f 257//257 258//258 219//219
f 275//275 274//274 258//258
f 332//332 317//317 300//300
f 87//87 129//129 93//93
f 212//212 207//207 210//210
f 211//211 207//207 212//212
f 211//211 216//216 207//207
f 210//210 220//220 212//212
f 226//226 207//207 216//216
f 224//224 225//225 220//220
f 129//129 130//130 178//178
f 130//130 196//196 178//178
f 52//52 130//130 87//87
f 52//52 81//81 130//130
f 130//130 129//129 87//87
f 121//121 95//95 166//166
f 292//292 326//326 343//343
f 332//332 343//343 326//326
f 318//318 238//238 343//343
f 217//217 191//191 238//238
f 217//217 238//238 318//318
f 251//251 217//217 318//318
f 213//213 217//217 251//251
f 328//328 318//318 332//332
f 251//251 318//318 328//328
f 332//332 318//318 343//343
f 325//325 251//251 328//328
f 31//31 55//55 27//27
f 31//31 27//27 33//33
f 45//45 27//27 51//51
f 33//33 32//32 55//55
f 90//90 55//55 45//45
f 121//121 51//51 95//95
f 145//145 90//90 121//121
f 142//142 121//121 166//166
f 142//142 145//145 121//121
f 191//191 115//115 142//142
f 91//91 145//145 142//142
f 139//139 90//90 145//145
f 47//47 52//52 90//90
f 47//47 157//157 81//81
f 135//135 151//151 139//139
f 37//37 47//47 151//151
f 52//52 87//87 90//90
f 217//217 158//158 191//191
f 213//213 186//186 158//158
f 186//186 213//213 251//251
f 102//102 135//135 158//158
f 100//100 140//140 102//102
f 208//208 100//100 186//186
f 208//208 136//136 94//94
f 247//247 251//251 325//325
f 136//136 109//109 94//94
f 309//309 257//257 219//219
f 309//309 219//219 272//272
f 219//219 196//196 201//201
f 272//272 282//282 309//309
f 221//221 201//201 157//157
f 282//282 221//221 245//245
f 330//330 328//328 332//332
f 344//344 330//330 282//282
f 342//342 348//348 344//344
f 333//333 325//325 348//348
f 269//269 342//342 344//344
f 53//53 157//157 47//47
f 47//47 37//37 53//53
f 151//151 38//38 37//37
f 38//38 53//53 37//37
f 63//63 44//44 38//38
f 245//245 215//215 164//164
f 63//63 79//79 44//44
f 79//79 190//190 44//44
f 44//44 53//53 38//38
f 63//63 38//38 140//140
f 68//68 63//63 140//140
f 247//247 325//325 259//259
f 259//259 333//333 327//327
f 233//233 259//259 327//327
f 327//327 333//333 348//348
f 233//233 319//319 316//316
f 94//94 140//140 100//100
f 140//140 94//94 141//141
f 74//74 68//68 122//122
f 141//141 149//149 122//122
f 233//233 193//193 208//208
f 148//148 119//119 136//136
f 205//205 233//233 314//314
f 316//316 314//314 233//233
f 119//119 132//132 149//149
f 132//132 119//119 156//156
f 155//155 154//154 132//132
f 117//117 155//155 132//132
f 205//205 133//133 193//193
f 233//233 205//205 193//193
f 190//190 269//269 245//245
f 194//194 269//269 190//190
f 271//271 269//269 194//194
f 271//271 342//342 269//269
f 349//349 342//342 354//354
f 351//351 348//348 342//342
f 79//79 194//194 190//190
f 271//271 335//335 354//354
f 335//335 271//271 242//242
f 199//199 271//271 194//194
f 242//242 271//271 199//199
f 242//242 199//199 168//168
f 185//185 242//242 168//168
f 360//360 348//348 354//354
f 334//334 348//348 360//360
f 316//316 319//319 334//334
f 334//334 360//360 366//366
f 361//361 334//334 366//366
f 68//68 76//76 79//79
f 76//76 194//194 79//79
f 99//99 199//199 76//76
f 74//74 99//99 76//76
f 199//199 194//194 76//76
f 122//122 154//154 74//74
f 77//77 85//85 99//99
f 85//85 185//185 99//99
f 99//99 75//75 77//77
f 77//77 154//154 155//155
f 77//77 155//155 153//153
f 130//130 201//201 196//196
f 202//202 157//157 164//164
f 164//164 215//215 202//202
f 91//91 115//115 135//135
f 231//231 205//205 314//314
f 361//361 314//314 316//316
f 361//361 336//336 314//314
f 371//371 336//336 361//361
f 231//231 336//336 339//339
f 244//244 231//231 339//339
f 84//84 117//117 133//133
f 127//127 146//146 153//153
f 88//88 127//127 84//84
f 70//70 153//153 146//146
f 118//118 61//61 70//70
f 59//59 61//61 118//118
f 146//146 127//127 143//143
f 118//118 146//146 143//143
f 70//70 146//146 118//118
f 205//205 138//138 88//88
f 231//231 159//159 205//205
f 244//244 159//159 231//231
f 104//104 98//98 138//138
f 105//105 138//138 108//108
f 104//104 105//105 108//108
f 108//108 98//98 103//103
f 159//159 106//106 108//108
f 159//159 96//96 106//106
f 167//167 244//244 260//260
f 159//159 167//167 96//96
f 230//230 167//167 260//260
f 96//96 67//67 106//106
f 97//97 96//96 113//113
f 97//97 67//67 96//96
f 167//167 113//113 96//96
f 97//97 113//113 36//36
f 341//341 253//253 263//263
f 347//347 341//341 263//263
f 361//361 366//366 347//347
f 181//181 263//263 185//185
f 181//181 185//185 182//182
f 181//181 182//182 85//85
f 270//270 263//263 181//181
f 337//337 270//270 262//262
f 204//204 262//262 181//181
f 262//262 270//270 181//181
f 265//265 262//262 204//204
f 339//339 371//371 356//356
f 365//365 356//356 367//367
f 337//337 367//367 347//347
f 321//321 339//339 356//356
f 370//370 356//356 365//365
f 353//353 265//265 264//264
f 181//181 61//61 80//80
f 59//59 80//80 61//61
f 80//80 59//59 72//72
f 72//72 59//59 118//118
f 80//80 204//204 181//181
f 123//123 203//203 80//80
f 80//80 203//203 204//204
f 123//123 80//80 72//72
f 57//57 134//134 71//71
f 203//203 265//265 204//204
f 123//123 134//134 203//203
f 134//134 123//123 71//71
f 118//118 143//143 131//131
f 321//321 356//356 346//346
f 230//230 198//198 167//167
f 346//346 356//356 370//370
f 345//345 266//266 346//346
f 266//266 230//230 346//346
f 118//118 131//131 144//144
f 58//58 30//30 36//36
f 97//97 30//30 107//107
f 58//58 107//107 30//30
f 58//58 120//120 107//107
f 144//144 57//57 118//118
f 57//57 144//144 120//120
f 73//73 57//57 120//120
f 113//113 167//167 198//198
f 126//126 36//36 113//113
f 126//126 58//58 36//36
f 58//58 69//69 21//21
f 209//209 126//126 198//198
f 58//58 49//49 120//120
f 209//209 89//89 126//126
f 209//209 200//200 89//89
f 179//179 203//203 134//134
f 350//350 264//264 243//243
f 243//243 264//264 179//179
f 170//170 243//243 179//179
f 350//350 370//370 353//353
f 364//364 345//345 370//370
f 370//370 345//345 346//346
f 358//358 345//345 364//364
f 350//350 243//243 250//250
f 350//350 369//369 364//364
f 73//73 179//179 134//134
f 60//60 48//48 73//73
f 73//73 170//170 179//179
f 188//188 250//250 170//170
f 250//250 243//243 170//170
f 137//137 170//170 48//48
f 82//82 120//120 101//101
f 369//369 355//355 358//358
f 197//197 268//268 261//261
f 218//218 197//197 261//261
f 362//362 268//268 355//355
f 261//261 362//362 315//315
f 6//6 12//12 3//3
f 5//5 6//6 3//3
f 3//3 2//2 1//1
f 49//49 21//21 12//12
f 69//69 4//4 21//21
f 5//5 4//4 14//14
f 4//4 69//69 14//14
f 1//1 2//2 4//4
f 5//5 1//1 4//4
f 12//12 6//6 49//49
f 18//18 6//6 5//5
f 25//25 18//18 14//14
f 69//69 89//89 14//14
f 89//89 200//200 78//78
f 89//89 25//25 14//14
f 23//23 9//9 8//8
f 23//23 8//8 25//25
f 9//9 7//7 8//8
f 25//25 28//28 18//18
f 39//39 28//28 101//101
f 86//86 82//82 101//101
f 62//62 86//86 28//28
f 46//46 9//9 23//23
f 15//15 7//7 9//9
f 10//10 15//15 9//9
f 17//17 9//9 20//20
f 17//17 10//10 16//16
f 16//16 10//10 9//9
f 15//15 20//20 11//11
f 40//40 82//82 86//86
f 64//64 40//40 86//86
f 62//62 64//64 86//86
f 13//13 62//62 15//15
f 13//13 26//26 62//62
f 26//26 64//64 62//62
f 13//13 15//15 11//11
f 19//19 13//13 11//11
f 18//18 28//28 39//39
f 21//21 4//4 2//2
f 197//197 78//78 200//200
f 218//218 78//78 197//197
f 214//214 147//147 218//218
f 78//78 147//147 20//20
f 56//56 11//11 20//20
f 147//147 56//56 20//20
f 214//214 218//218 315//315
f 228//228 195//195 214//214
f 175//175 65//65 165//165
f 195//195 175//175 165//165
f 188//188 256//256 250//250
f 256//256 188//188 206//206
f 240//240 256//256 206//206
f 338//338 240//240 248//248
f 279//279 248//248 246//246
f 315//315 362//362 359//359
f 315//315 359//359 306//306
f 331//331 359//359 363//363
f 310//310 331//331 279//279
f 363//363 369//369 352//352
f 40//40 152//152 137//137
f 43//43 152//152 50//50
f 24//24 43//43 64//64
f 43//43 125//125 152//152
f 24//24 125//125 43//43
f 19//19 24//24 26//26
f 24//24 19//19 22//22
f 22//22 19//19 29//29
f 222//222 187//187 234//234
f 24//24 116//116 125//125
f 24//24 54//54 116//116
f 125//125 116//116 187//187
f 174//174 187//187 116//116
f 310//310 340//340 331//331
f 278//278 249//249 306//306
f 278//278 306//306 331//331
f 228//228 249//249 227//227
f 228//228 227//227 195//195
f 320//320 278//278 340//340
f 320//320 340//340 329//329
f 195//195 278//278 255//255
f 19//19 56//56 65//65
f 35//35 19//19 65//65
f 35//35 34//34 19//19
f 34//34 35//35 65//65
f 34//34 65//65 66//66
f 41//41 35//35 66//66
f 56//56 19//19 11//11
f 65//65 175//175 66//66
f 175//175 29//29 41//41
f 19//19 41//41 29//29
f 22//22 29//29 54//54
f 254//254 310//310 234//234
f 299//299 340//340 310//310
f 299//299 192//192 276//276
f 301//301 298//298 299//299
f 295//295 276//276 302//302
f 299//299 308//308 340//340
f 305//305 311//311 303//303
f 301//301 299//299 276//276
f 303//303 302//302 276//276
f 305//305 308//308 302//302
f 305//305 303//303 308//308
f 192//192 116//116 54//54
f 276//276 54//54 255//255
f 54//54 276//276 192//192
f 192//192 254//254 234//234
f 187//187 192//192 234//234
f 180//180 174//174 177//177
f 322//322 323//323 324//324
f 177//177 174//174 192//192
f 177//177 192//192 180//180
f 180//180 184//184 174//174
f 180//180 192//192 187//187
f 329//329 340//340 311//311
f 276//276 255//255 329//329
f 329//329 255//255 320//320
f 322//322 323//323 311//311
f 323//323 329//329 311//311
f 322//322 311//311 276//276
f 240//240 152//152 246//246
f 97//97 144//144 131//131
f 97//97 36//36 30//30
f 71//71 118//118 57//57
f 176//176 161//161 160//160
f 150//150 176//176 160//160
f 189//189 172//172 183//183
f 267//267 292//292 229//229
f 150//150 128//128 176//176
f 163//163 160//160 161//161
f 176//176 163//163 161//161
f 294//294 307//307 313//313
f 312//312 294//294 313//313
f 114//114 111//111 110//110
f 297//297 294//294 293//293
f 300//300 290//290 284//284
f 286//286 300//300 284//284
f 313//313 289//289 312//312
f 296//296 293//293 307//307
f 216//216 211//211 212//212
f 220//220 216//216 212//212
f 288//288 300//300 291//291
f 290//290 287//287 288//288
f 286//286 280//280 281//281
f 274//274 273//273 281//281
f 258//258 277//277 281//281
f 178//178 207//207 129//129
f 349//349 351//351 357//357
f 348//348 349//349 357//357
f 212//212 211//211 210//210
f 216//216 220//220 226//226
f 32//32 45//45 55//55
f 302//302 308//308 298//298
f 301//301 302//302 298//298
f 349//349 348//348 351//351
f 351//351 349//349 354//354
f 349//349 351//351 342//342
f 105//105 98//98 104//104
f 16//16 20//20 15//15
f 295//295 301//301 298//298
f 276//276 295//295 298//298
f 298//298 301//301 276//276
f 177//177 184//184 180//180
f 329//329 323//323 324//324
f 276//276 324//324 323//323
